<svg xmlns="http://www.w3.org/2000/svg" width="270" height="270" viewBox="0 0 270 270"><g transform="translate(-676 -1677)"><g transform="translate(-1438.703 60.739)"><g transform="translate(2134.703 1729.261)"><g transform="translate(0 0)"><path d="M-20.072,290.975a8.643,8.643,0,0,1,2.082-10.41,39.417,39.417,0,0,1,6.78-4.263c1.434-.8,2.87-1.589,4.345-2.406,0,1.565,0,3.064,0,4.565,0,.425-.378.5-.643.655-2.505,1.473-5.116,2.754-7.491,4.461a4.228,4.228,0,0,0-1.464,5.33,3.908,3.908,0,0,0,3.917,2.319,3.849,3.849,0,0,0,3.461-2.75,4.218,4.218,0,0,0-1.082-4.469c-.171-.161-.353-.31-.634-.555,1.189-.738,2.322-1.446,3.461-2.142.377-.23.515.145.689.353,3.836,4.563,1.644,11.951-4.015,13.543a8.106,8.106,0,0,1-2.194.3A8.075,8.075,0,0,1-20.072,290.975Zm-9.6-5.066a8.259,8.259,0,0,1-7.422-7.225c-.756-6.62,5.28-11.414,11.253-8.92a18.394,18.394,0,0,1,2.588,1.3c2.748,1.7,5.468,3.446,8.364,5.279-1.413.793-2.686,1.5-3.954,2.221-.375.213-.606-.087-.863-.244-2.407-1.468-4.718-3.107-7.232-4.386a4.37,4.37,0,0,0-2.521-.559,4.115,4.115,0,0,0-3.584,4.546,4.088,4.088,0,0,0,3.413,3.69,3.912,3.912,0,0,0,4.446-3.147c.178-.934.435-.878,1.068-.462.786.515,1.61.972,2.438,1.412.4.213.432.455.307.866A8.267,8.267,0,0,1-29,285.941c-.225,0-.448-.011-.671-.033Zm24.823-8.3c-.057-2.324-.009-4.651-.009-6.977H-4.86c0-2.205.008-4.411,0-6.616a8.052,8.052,0,0,0-7.814-8.271,8.038,8.038,0,0,0-7.988,8c-.062,1.84-.045,3.685-.012,5.527.014.776-.191.79-.756.426-.965-.621-1.963-1.185-2.947-1.773-.25-.15-.518-.274-.514-.655.027-2.589-.169-5.186.743-7.7a12.143,12.143,0,0,1,13.484-8.025A12.484,12.484,0,0,1-.622,263.935c.029,4.441,0,8.882.01,13.321a3.966,3.966,0,0,0,3.12,4.21,3.9,3.9,0,0,0,4.6-3.155,4.036,4.036,0,0,0-3.045-4.759,3.762,3.762,0,0,0-1.54,0c-1.11.247-1.11.247-1.11-.928,0-.845.033-1.693-.011-2.536-.031-.6.164-.84.752-.932a8.217,8.217,0,0,1,9.164,7.089,8.414,8.414,0,0,1-6.558,9.539,8.526,8.526,0,0,1-1.476.129,8.2,8.2,0,0,1-8.124-8.3Z" transform="translate(37.154 -251.365)" fill="#030303"/><g transform="translate(19.306 10.021)"><circle cx="2.119" cy="2.119" r="2.119" transform="translate(0)" fill="#030303"/><circle cx="2.119" cy="2.119" r="2.119" transform="translate(5.709)" fill="#030303"/></g></g></g><g transform="translate(2192.42 1738.385)"><g transform="translate(0 0)"><path d="M54.264,291.937H51.3q-.557,0-.371-.649L55.811,272.7a.887.887,0,0,1,.928-.649h4.113a.833.833,0,0,1,.928.649l4.886,18.587q.186.649-.371.649H63.325a.607.607,0,0,1-.463-.138,1.055,1.055,0,0,1-.186-.51l-.866-3.4H55.78l-.865,3.4a.966.966,0,0,1-.2.51A.618.618,0,0,1,54.264,291.937Zm4.484-16.142-2.227,8.937H61.1l-2.227-8.937Z" transform="translate(-50.878 -270.196)" fill="#030303"/><path d="M82.452,290.913H79.823a.574.574,0,0,1-.649-.649V269.821a.574.574,0,0,1,.649-.649h2.629a.574.574,0,0,1,.649.649v20.442A.574.574,0,0,1,82.452,290.913ZM88.2,275.141h3a.52.52,0,0,1,.494.217.534.534,0,0,1-.092.556l-4.114,6.773v.123l4.3,7.329a.48.48,0,0,1,.031.541.622.622,0,0,1-.557.232h-2.66a1.7,1.7,0,0,1-.757-.124,1.408,1.408,0,0,1-.479-.525l-3.928-6.9a1,1,0,0,1,0-1.021l3.711-6.586A1.12,1.12,0,0,1,88.2,275.141Z" transform="translate(-60.943 -269.172)" fill="#030303"/><path d="M102.261,293.559V279.086q0-.649.619-.65h2.66a.574.574,0,0,1,.649.65v14.473a.711.711,0,0,1-.139.525.721.721,0,0,1-.48.124H102.91A.574.574,0,0,1,102.261,293.559Z" transform="translate(-69.156 -272.467)" fill="#030303"/><path d="M117.634,290.913h-2.628a.574.574,0,0,1-.65-.649V269.821a.574.574,0,0,1,.65-.649h2.628a.574.574,0,0,1,.65.649v20.442A.574.574,0,0,1,117.634,290.913Z" transform="translate(-73.458 -269.172)" fill="#030303"/><path d="M129.49,290.913h-2.628a.574.574,0,0,1-.65-.649V269.821a.574.574,0,0,1,.65-.649h2.628a.574.574,0,0,1,.65.649v20.442A.574.574,0,0,1,129.49,290.913Z" transform="translate(-77.676 -269.172)" fill="#030303"/><path d="M138.26,293.559V279.086q0-.649.619-.65h2.66a.574.574,0,0,1,.649.65v14.473a.714.714,0,0,1-.139.525.723.723,0,0,1-.48.124H138.91A.574.574,0,0,1,138.26,293.559Z" transform="translate(-81.962 -272.467)" fill="#030303"/></g><g transform="translate(70.586 0)"><path d="M163.823,285.409h-2.968q-.557,0-.371-.649l4.886-18.586a.887.887,0,0,1,.927-.65h4.114a.832.832,0,0,1,.927.65l4.886,18.586q.187.649-.371.649h-2.968a.606.606,0,0,1-.464-.139,1.043,1.043,0,0,1-.186-.51l-.867-3.4h-6.03l-.866,3.4a.962.962,0,0,1-.2.51A.617.617,0,0,1,163.823,285.409Zm4.484-16.143L166.08,278.2h4.578l-2.227-8.937Z" transform="translate(-160.437 -263.668)" fill="#030303"/><path d="M192.01,284.385h-2.629a.574.574,0,0,1-.649-.649V263.293a.574.574,0,0,1,.649-.649h2.629a.574.574,0,0,1,.649.649v6.989h.124q.68-1.67,3.031-1.67h.99q4.854,0,4.855,5.041v10.082q0,.65-.68.649h-2.6a.574.574,0,0,1-.649-.649v-9.9a1.539,1.539,0,0,0-1.825-1.825h-1.113q-2.134,0-2.134,2.35v9.37A.574.574,0,0,1,192.01,284.385Z" transform="translate(-170.502 -262.644)" fill="#030303"/><path d="M213.322,273.141h-1.237a.783.783,0,0,1-.51-.124.659.659,0,0,1-.139-.495v-2.134a.574.574,0,0,1,.649-.649h1.237a.3.3,0,0,0,.34-.34v-2.938q0-.649.681-.649h2.6a.574.574,0,0,1,.649.649V269.4c0,.227.124.34.371.34h2.412a.574.574,0,0,1,.649.649v2.134a.665.665,0,0,1-.139.479.72.72,0,0,1-.51.139h-2.412c-.247,0-.371.114-.371.34v6.834a1.85,1.85,0,0,0,.433,1.376,2,2,0,0,0,1.423.417h1.237a.574.574,0,0,1,.649.649v2.134a.665.665,0,0,1-.139.479.72.72,0,0,1-.51.139H218.8a5.23,5.23,0,0,1-3.788-1.3,4.92,4.92,0,0,1-1.346-3.711v-7.02A.3.3,0,0,0,213.322,273.141Z" transform="translate(-178.578 -263.771)" fill="#030303"/><path d="M236.145,287.68H235.4a5.173,5.173,0,0,1-3.773-1.3,4.993,4.993,0,0,1-1.33-3.742v-5.69a4.993,4.993,0,0,1,1.33-3.742,5.173,5.173,0,0,1,3.773-1.3h7.144q.68,0,.68.649v14.473q0,.649-.68.649h-2.6a.574.574,0,0,1-.65-.649V286.01h-.123a2.345,2.345,0,0,1-1.206,1.252A4.151,4.151,0,0,1,236.145,287.68Zm3.154-5.752V275.65c0-.226-.123-.34-.371-.34h-2.906a1.888,1.888,0,0,0-1.392.417,2,2,0,0,0-.4,1.407v5.319a2,2,0,0,0,.4,1.407,1.888,1.888,0,0,0,1.392.417h1.144Q239.3,284.278,239.3,281.928Z" transform="translate(-185.288 -265.939)" fill="#030303"/><path d="M258.921,291.886h-2.629q-.649,0-.649-.619v-18.71a.574.574,0,0,1,.649-.649h2.629a.574.574,0,0,1,.65.649v1.021h.124a2.342,2.342,0,0,1,1.205-1.252,4.144,4.144,0,0,1,1.825-.417h1.268a4.712,4.712,0,0,1,3.6,1.3,5.26,5.26,0,0,1,1.222,3.742v5.69a5.26,5.26,0,0,1-1.222,3.742,4.712,4.712,0,0,1-3.6,1.3h-1.268a4.146,4.146,0,0,1-1.825-.417,2.342,2.342,0,0,1-1.205-1.252h-.124v5.257Q259.571,291.886,258.921,291.886Zm2.783-7.608h1.361a1.539,1.539,0,0,0,1.824-1.825v-5.319a1.539,1.539,0,0,0-1.824-1.825H261.7q-2.134,0-2.134,2.35v4.268Q259.571,284.278,261.7,284.278Z" transform="translate(-194.304 -265.939)" fill="#030303"/><path d="M288.265,287.68h-2.752a5.174,5.174,0,0,1-3.773-1.3,5,5,0,0,1-1.33-3.742v-5.69a5,5,0,0,1,1.33-3.742,5.174,5.174,0,0,1,3.773-1.3h2.752a5.147,5.147,0,0,1,3.757,1.314,4.971,4.971,0,0,1,1.345,3.727v5.69a4.969,4.969,0,0,1-1.345,3.727A5.147,5.147,0,0,1,288.265,287.68Zm-2.164-3.371h1.577a1.994,1.994,0,0,0,1.408-.4,1.885,1.885,0,0,0,.417-1.392v-5.443a1.888,1.888,0,0,0-.417-1.392,2,2,0,0,0-1.408-.4H286.1a1.5,1.5,0,0,0-1.794,1.794v5.443a1.5,1.5,0,0,0,1.794,1.794Z" transform="translate(-203.114 -265.939)" fill="#030303"/><path d="M304.808,273.141h-1.237a.784.784,0,0,1-.51-.124.659.659,0,0,1-.139-.495v-2.134a.574.574,0,0,1,.649-.649h1.237a.3.3,0,0,0,.34-.34v-2.938q0-.649.68-.649h2.6a.574.574,0,0,1,.649.649V269.4c0,.227.124.34.371.34h2.412a.574.574,0,0,1,.649.649v2.134a.668.668,0,0,1-.139.479.721.721,0,0,1-.51.139h-2.412c-.247,0-.371.114-.371.34v6.834a1.85,1.85,0,0,0,.432,1.376,2.007,2.007,0,0,0,1.423.417h1.237a.574.574,0,0,1,.65.649v2.134a.662.662,0,0,1-.14.479.718.718,0,0,1-.51.139h-1.886a5.228,5.228,0,0,1-3.788-1.3,4.92,4.92,0,0,1-1.345-3.711v-7.02A.3.3,0,0,0,304.808,273.141Z" transform="translate(-211.122 -263.771)" fill="#030303"/></g></g></g><g transform="translate(676 1677)" fill="#fff" stroke="#707070" stroke-width="1" opacity="0"><rect width="270" height="270" stroke="none"/><rect x="0.5" y="0.5" width="269" height="269" fill="none"/></g></g></svg>