<svg xmlns="http://www.w3.org/2000/svg" width="524.864" height="702.06" viewBox="0 0 524.864 702.06"><g transform="translate(-0.004 2.057)"><g transform="translate(0.004 369.114)"><path d="M.465,30.894C3.827,20.736,27.5-1.025,30.058.038S13.35,13.5,4.718,34.511C4.2,35.809-1.669,37.371.465,30.894Z" transform="translate(387.959 253.348)" fill="#74baab"/><path d="M.725,16.735c2.431-5.173,9.491-2.961,15.488-.836C13.625,8.155,17.441-1.291,23.672.146s1.7,10.939-.274,16.12c4.026-.555,11.43-4.884,14.182,0S31.436,21.6,27.417,21.071c1.392,3.125,9.71,11.447,1.931,12.338-5.621.649-8.6-2.391-10.281-9.455C8.285,24.1-3,24.658.725,16.735Z" transform="translate(396.111 232.978)" fill="#ec8c92"/><path d="M0,0S17.505,2.641,18.92,8.478C17.028,13.213,5.113,8.962,0,0Z" transform="translate(403.115 267.13)" fill="#74baab"/><path d="M0,0,16.2,0V1.567L0,1.563Z" transform="translate(351.146 313.658) rotate(-30.97)" fill="#74baab"/><path d="M1.04,12.111,0,10.939C4.691,6.735,11.383,1.43,16.418,0l.43,1.508C12.095,2.86,5.637,8.017,1.04,12.111Z" transform="translate(333.282 293.133)" fill="#74baab"/><path d="M1.095,17.081,0,15.963C5.582,10.494,13.494,3.3,19.475,0l.782,1.375C14.409,4.579,6.606,11.689,1.095,17.081Z" transform="translate(245.943 306.917)" fill="#74baab"/><path d="M1.259,12.353,0,11.424C3.237,7.048,7.982,1.508,12.2,0l.524,1.469C9.726,2.547,5.653,6.407,1.259,12.353Z" transform="translate(239.001 270.45)" fill="#74baab"/><path d="M1.321,17.706,0,16.878C.344,16.323,8.483,3.376,14.855,0l.782,1.375C9.593,4.563,1.439,17.573,1.321,17.706Z" transform="translate(216.546 266.661)" fill="#74baab"/><path d="M1.29,16.581,0,15.745C3.237,10.634,8.225,3.758,13.635,0l.891,1.281C9.3,4.891,4.449,11.6,1.29,16.581Z" transform="translate(209.385 305.307)" fill="#74baab"/><path d="M1.5,19.253,0,18.808C.141,18.347,3.471,7.525,11.211,0L12.3,1.125C4.847,8.4,1.532,19.183,1.5,19.253Z" transform="translate(136.104 279.413)" fill="#74baab"/><path d="M1.485,20.7,0,20.206A62.59,62.59,0,0,1,12,0L13.15,1.063C5.27,9.548,1.517,20.589,1.485,20.7Z" transform="translate(114.728 285.492)" fill="#74baab"/><path d="M417.973,90.935A116.435,116.435,0,0,0,406.9,77.082a3.187,3.187,0,0,1,.453-4.688,39.427,39.427,0,0,1,7.036-4.1c.407-.188.657-.461.633-.688s-.321-.484-.782-.609a23.679,23.679,0,0,0-13.807.477c-1.611.516-3.518-.117-5.512-1.813l-.782-.649a4.812,4.812,0,0,1-1.712-3.383,32.845,32.845,0,0,0-6.653-18.237.785.785,0,0,0-1.392.461c-.086,1.211-.25,2.641-.477,4.258A5.168,5.168,0,0,1,376,51.75l-.1-.063a3.906,3.906,0,0,1-1.65-4.36l1.962-6.876a.328.328,0,0,0-.125-.375.336.336,0,0,0-.4,0l-5.184,3.352a8.026,8.026,0,0,1-8.162.336,249.376,249.376,0,0,0-28.529-13.01,3.125,3.125,0,0,1-1.564-4.563l4.019-6.313a1.1,1.1,0,0,0-.078-1.328,1.118,1.118,0,0,0-1.3-.336L320.518,23.9a9.231,9.231,0,0,1-6.067.227c-8.686-2.641-17.779-4.977-27.036-6.931a2.015,2.015,0,0,1-1.024-3.376c1.689-1.727,3.065-3.165,4.37-4.524,1.923-2.008,3.737-3.907,6.208-6.368a.781.781,0,0,0,.109-.945.719.719,0,0,0-.86-.336,112.4,112.4,0,0,0-24.495,10.986,6.258,6.258,0,0,1-4.41.891c-18.217-3-34.1-4.173-56.62-4.173-11.727,0-23.6.547-35.229,1.61a2.142,2.142,0,0,1-2.15-1.235l-.844-1.8a1.118,1.118,0,0,0-1.564-.508L166.286,9.97a3.769,3.769,0,0,1-5.223-1.656l-.219-.453a.521.521,0,0,0-.774-.188l-3.127,2.344a2.111,2.111,0,0,1-3.385-1.688V3.9a1.109,1.109,0,0,0-.078-.656.868.868,0,0,0-.2.2l-7.208,9.58a7.913,7.913,0,0,1-4.55,2.633c-27.364,5.1-49.631,12.072-70.185,21.925a4.091,4.091,0,0,1-4.269-.414,64.864,64.864,0,0,0-27.411-12.1.43.43,0,0,0-.5.273.445.445,0,0,0,.156.57c4.691,3.415,8.811,6.54,12.142,9.29a2.719,2.719,0,0,1-1.72,4.813H43.883a.366.366,0,0,0-.18.688c1.267.656,2.463,1.344,3.557,2.024a4.585,4.585,0,0,1,0,7.814c-3.237,2.016-6.388,4.11-9.382,6.251a3.911,3.911,0,0,1-5.309-.781l-5.942-7.423a1.368,1.368,0,0,0-.2-.211,1.351,1.351,0,0,0,0,.742l2.979,11.775a2.906,2.906,0,0,1-.954,3.04L28,64.306a2.581,2.581,0,0,1-2.541.438c-2.736-1-10.312-3.008-21.555,0,5.84,1.281,10.43,2.93,13.627,4.915a2.344,2.344,0,0,1,1.306,1.9,1.562,1.562,0,0,1-.453,1.141,3.48,3.48,0,0,1-2.345.883A36.247,36.247,0,0,0,1.859,77.129a.586.586,0,0,0,.289,1.1,39.984,39.984,0,0,1,6.685.3,2.15,2.15,0,0,1,1.72,1.367,2.195,2.195,0,0,1-.367,2.2C7.8,84.974,5.557,87.951,3.525,90.959l-1.29-.875a111.328,111.328,0,0,1,6.771-9,.656.656,0,0,0,.109-.641.6.6,0,0,0-.485-.383,37.628,37.628,0,0,0-6.419-.289A2.15,2.15,0,0,1,.077,78.207a2.117,2.117,0,0,1,1.071-2.446A37.491,37.491,0,0,1,16,72.034c1.087-.039,1.431-.352,1.47-.461s-.2-.359-.579-.586C13.853,69.1,9.435,67.51,3.767,66.3a1.563,1.563,0,0,1-.07-3.047c11.673-3.125,19.616-.977,22.493.078a1.017,1.017,0,0,0,1-.18l.453-.375a1.351,1.351,0,0,0,.446-1.43L25.119,49.57a2.148,2.148,0,0,1,.782-2.625,1.666,1.666,0,0,1,2.111.734l5.926,7.4a2.346,2.346,0,0,0,3.182.461c2.994-2.133,6.169-4.243,9.437-6.251a3.023,3.023,0,0,0,0-5.157c-1.063-.656-2.228-1.321-3.456-1.961a1.93,1.93,0,0,1,.883-3.633h5.872a1.126,1.126,0,0,0,1.079-.781,1.148,1.148,0,0,0-.36-1.289c-3.3-2.727-7.357-5.829-12.056-9.228a2.032,2.032,0,0,1,1.564-3.649A66.655,66.655,0,0,1,68.166,35.982a2.5,2.5,0,0,0,2.635.25c20.687-9.916,43.11-16.924,70.584-22.05A6.3,6.3,0,0,0,145,12.1l7.083-9.626A1.728,1.728,0,0,1,154.09,1.7a2.062,2.062,0,0,1,1.118,2.266V8.314a.516.516,0,0,0,.3.484.532.532,0,0,0,.571-.047l3.127-2.344a2.1,2.1,0,0,1,1.736-.367,2.056,2.056,0,0,1,1.384,1.117l.219.453a2.15,2.15,0,0,0,1.259,1.117,2.175,2.175,0,0,0,1.736-.172L170.164,6a2.682,2.682,0,0,1,3.729,1.211l.844,1.813a.571.571,0,0,0,.586.336c11.727-1.07,23.588-1.617,35.378-1.617,22.618,0,38.568,1.18,56.87,4.2a4.756,4.756,0,0,0,3.315-.664A113.879,113.879,0,0,1,295.781.1a2.291,2.291,0,0,1,2.65,1.031,2.343,2.343,0,0,1-.352,2.852c-2.455,2.453-4.261,4.344-6.176,6.345-1.313,1.367-2.689,2.805-4.386,4.54a.43.43,0,0,0-.1.438.438.438,0,0,0,.336.313c9.3,1.969,18.436,4.313,27.169,6.97a7.674,7.674,0,0,0,5.035-.188l14.37-5.688a2.7,2.7,0,0,1,3.276,3.962l-4.019,6.306a1.588,1.588,0,0,0,.805,2.25,248.7,248.7,0,0,1,28.7,13.1,6.461,6.461,0,0,0,6.575-.273l5.184-3.352a1.915,1.915,0,0,1,2.877,2.133l-1.97,6.876a2.343,2.343,0,0,0,.993,2.618l.094.063a3.612,3.612,0,0,0,5.52-2.547c.227-1.563.383-2.977.469-4.157a2.347,2.347,0,0,1,4.175-1.313,33.992,33.992,0,0,1,6.99,19.128,3.265,3.265,0,0,0,1.157,2.274l.782.649c1.095.93,2.674,1.946,4.034,1.563a25.134,25.134,0,0,1,14.691-.5,2.162,2.162,0,0,1,.352,4.227,37.534,37.534,0,0,0-6.724,3.907,1.617,1.617,0,0,0-.649,1.156,1.562,1.562,0,0,0,.414,1.235,117.547,117.547,0,0,1,11.219,14.065Z" transform="translate(47.922 239.93)" fill="#74baab"/><path d="M140.379,107.074a10.215,10.215,0,0,1-3.815-.782L5.811,53.863a8.805,8.805,0,0,1-5.356-5.4,10.037,10.037,0,0,1,.337-6.892A11.466,11.466,0,0,1,4.34,36.833a9.133,9.133,0,0,1,5.618-1.992,9.472,9.472,0,0,1,3.529.706l9.382,3.75a1.974,1.974,0,0,0,1.744.086c1.895-.959,3.124-5.927,4.548-11.679l.01-.041c.425-1.722.864-3.5,1.368-5.377l.094-.344.014-.051c.965-3.611,2.423-9.068,5.676-13.643A19.47,19.47,0,0,1,42.708,2.41,20.425,20.425,0,0,1,52.748,0c.393,0,.8.009,1.2.026,6.365.255,9.42.6,14.965,1.235l.2.023h.14l.9.1.014,0c1.166.135,2.489.288,3.953.449,5.187.569,8.652,1.928,11.235,4.407,3.13,3.01,4.761,7.652,4.988,14.189.312,9.073,2.343,11.119,5.981,11.721,31.338,5.065,31.273,18.587,31.211,31.663v2.389c0,7.82.765,15.363,6.318,17.581l9.858,3.906a9.349,9.349,0,0,1,5.614,5.689,10.506,10.506,0,0,1-.265,7.329,10.272,10.272,0,0,1-4.6,5.282A8.514,8.514,0,0,1,140.379,107.074ZM10.019,36.462h0a7.654,7.654,0,0,0-4.735,1.7A9.85,9.85,0,0,0,2.276,42.2a8.455,8.455,0,0,0-.312,5.813,7.269,7.269,0,0,0,4.457,4.439l130.729,52.39a7.506,7.506,0,0,0,3.1.666,7.59,7.59,0,0,0,3.442-.83,8.844,8.844,0,0,0,3.91-4.493,9.051,9.051,0,0,0,.243-6.25,7.849,7.849,0,0,0-4.691-4.743L133.3,85.243c-6.377-2.557-7.278-10.652-7.3-19.019V63.88c.077-12.439.158-25.3-29.9-30.161-5.726-.923-7.037-5.731-7.295-13.189C88.6,14.414,87.122,10.122,84.3,7.41c-2.351-2.224-5.534-3.453-10.321-3.985L69.1,2.878h-.126c-5.59-.639-8.669-.991-15.065-1.25-.338-.013-.677-.02-1.008-.02A18.866,18.866,0,0,0,43.518,3.9a18.446,18.446,0,0,0-5.99,5.548c-3.062,4.347-4.446,9.52-5.362,12.943l-.093.344c-.468,1.75-.885,3.424-1.288,5.043l-.065.261C29.074,34.7,27.885,39.522,25.34,40.8a3.581,3.581,0,0,1-3.026,0l-9.382-3.75a7.791,7.791,0,0,0-2.913-.584Z" transform="translate(374.999 115.409)"/><path d="M102.336,62.779a8.077,8.077,0,0,1-1.469-.142L5.4,44.955A6.294,6.294,0,0,1,.878,41.924a7.2,7.2,0,0,1-.736-4.868,8.039,8.039,0,0,1,2.6-4.579,6.365,6.365,0,0,1,5.473-1.406l6.825,1.258a2.349,2.349,0,0,0,.44.048.737.737,0,0,0,.553-.181c1.073-.836,1.228-4.48,1.392-8.337l.01-.217c.052-1.158.105-2.355.186-3.612v-.257C17.961,14.487,18.659,3.487,30.6,1.59,35.076.882,37.321.693,41.04.378h.211L44.5.1c.736-.065,1.437-.1,2.083-.1a11.154,11.154,0,0,1,6.251,1.59c2.585,1.639,4.354,4.6,5.41,9.064a14.635,14.635,0,0,0,2.195,5.573A3.356,3.356,0,0,0,63.3,17.57c.108,0,.222,0,.338-.009.895-.034,1.775-.051,2.617-.051,19.629,0,21.434,9.256,23.026,17.423V35.1q.05.252.1.5c.058.3.119.617.184.925,1.064,5.2,2.584,10.11,6.466,10.83l7.193,1.329a6.663,6.663,0,0,1,4.69,3.2,7.483,7.483,0,0,1,.852,5.156A6.53,6.53,0,0,1,102.336,62.779Zm-1.188-1.68h0a6.394,6.394,0,0,0,1.167.112A4.686,4.686,0,0,0,105.7,59.85a5.954,5.954,0,0,0,1.577-3.119,6.017,6.017,0,0,0-.657-4.078,5.185,5.185,0,0,0-3.667-2.446l-7.193-1.335c-4.8-.885-6.543-6.314-7.716-12.049-.091-.423-.176-.861-.258-1.284l-.031-.162v-.148c-1.622-8.317-3.154-16.172-21.38-16.172-.857,0-1.758.018-2.677.053-.094,0-.188.005-.28.005-3.963,0-5.494-3.1-6.678-8.115-.958-4.026-2.493-6.677-4.691-8.1a9.6,9.6,0,0,0-5.368-1.351c-.614,0-1.283.034-1.989.1l-3.261.274h-.2c-3.833.318-5.945.493-10.335,1.2-10.719,1.7-11.329,11.494-11.657,16.753v.242c-.078,1.191-.129,2.33-.179,3.432l-.016.358,0,.035c-.21,4.758-.362,8.2-1.992,9.475a2.671,2.671,0,0,1-2.244.438L7.977,32.578A4.857,4.857,0,0,0,3.833,33.65a6.416,6.416,0,0,0-2.072,3.664,5.568,5.568,0,0,0,.555,3.805A4.771,4.771,0,0,0,5.756,43.4L101.147,61.13V61.1Z" transform="translate(412.065 0)"/><path d="M7.142,68.495a6.469,6.469,0,0,1-2.925-.7A7.83,7.83,0,0,1,.675,63.815a8.667,8.667,0,0,1-.353-5.7,6.93,6.93,0,0,1,4.1-4.485l7-2.915a1.326,1.326,0,0,0,.868-.782c.479-1.415-1.525-4.817-3.647-8.419L8.571,41.4l-.023-.039c-.676-1.14-1.376-2.318-2.079-3.571l-.134-.234c-2.848-5.022-8.773-15.471.985-24.3,3.335-3.009,5.223-4.494,8.081-6.742l.746-.587.1-.077,2.885-2.259C22.263,1.132,24.876.024,27.609,0h.11c3.287,0,6.624,1.651,10.2,5.047,2.943,2.8,5,4.043,6.676,4.043a4.124,4.124,0,0,0,2.471-.917C54.461,2.939,60.61.4,65.868.4a15.121,15.121,0,0,1,8.576,2.668,39.186,39.186,0,0,1,6.368,5.7l1.235,1.266a36.371,36.371,0,0,0,5.175,4.527,9.358,9.358,0,0,0,5.186,1.955,5.439,5.439,0,0,0,2.1-.42l7.38-3.071a8,8,0,0,1,3.079-.646A7.03,7.03,0,0,1,109.2,13.8a8.33,8.33,0,0,1,2.681,3.484,7.9,7.9,0,0,1,.329,5.413,7.1,7.1,0,0,1-4.239,4.376L10.1,67.869a7.618,7.618,0,0,1-2.948.626ZM27.624,1.578c-2.346,0-4.666,1-7.521,3.258L17.211,7.1l-.093.07C13.928,9.652,12,11.149,8.376,14.432c-8.823,7.983-3.33,17.693-.69,22.36l.011.019.133.234c.7,1.242,1.39,2.407,2.059,3.534L9.9,40.6l.015.026c2.65,4.482,4.565,7.721,3.846,9.826a2.825,2.825,0,0,1-1.743,1.7l-7,2.915a5.393,5.393,0,0,0-3.2,3.5,7.06,7.06,0,0,0,.3,4.641,6.167,6.167,0,0,0,2.807,3.188,5.34,5.34,0,0,0,4.575,0l97.9-40.787a5.577,5.577,0,0,0,3.333-3.431,6.353,6.353,0,0,0-.291-4.321,6.7,6.7,0,0,0-2.147-2.761,5.708,5.708,0,0,0-3.428-1.164,6.18,6.18,0,0,0-2.378.5L95.112,17.5a7.027,7.027,0,0,1-2.717.551,10.6,10.6,0,0,1-5.839-2.1A37,37,0,0,1,80.938,11.1L79.694,9.822a40.263,40.263,0,0,0-6.1-5.5A13.374,13.374,0,0,0,65.833,1.86c-4.838,0-10.682,2.471-17.865,7.555a5.785,5.785,0,0,1-3.4,1.187c-2.161,0-4.4-1.288-7.73-4.445-3.288-3.081-6.272-4.579-9.123-4.579Z" transform="translate(0 150.784)"/></g><g transform="translate(8.487 0.003)"><path d="M5.24,42.366,77.95,164.329a12.052,12.052,0,0,1-3.385,16.456l-14.706,9.994a4.539,4.539,0,0,0,2.557,8.29H114.97a48.5,48.5,0,0,0,15.762-2.625l33.2-11.361c14.182-4.852,18.2-21.511,10.547-34.38L138.057,85.849l1.736-.617a53.371,53.371,0,0,0,26.731-79.7L162.873,0H23.214C1.667-.031-6.2,24.113,5.24,42.366Z" transform="translate(80.92 400.518)" fill="#cbcbcb"/><path d="M5.236,42.366l72.71,121.964a12.06,12.06,0,0,1-3.393,16.456l-14.683,9.994a4.539,4.539,0,0,0,2.557,8.29H114.99a48.5,48.5,0,0,0,15.754-2.625l33.2-11.361c14.182-4.852,18.209-21.511,10.555-34.38L138.069,85.849l1.736-.617a53.371,53.371,0,0,0,26.731-79.7L162.885,0H23.218C1.663-.031-6.194,24.113,5.236,42.366Z" transform="translate(173.055 400.518)" fill="#efefef"/><path d="M88.408,1.684c63.133,27.9,250.288,172.143,341.926,235.653,10.5,7.267,12.079,24.332-10.875,24.129L7.645,257.887C-.04,257.824-1,250.651.742,243.174c0,0,46.066-207.766,62.015-236.481C65.735,1.028,79.714-2.16,88.408,1.684Z" transform="translate(19.455 0)" fill="#fff" stroke="#ededed" stroke-width="4"/><path d="M1.173,36.116C6.513,17.364,22.494,6.221,54.65,1.947,70.287-.131,89.27,0,111.388,0c105.164,0,199.977,79.512,199.977,145.4,0,40.631-49.568,55.165-143.755,11.533-39.154-.539-67.542-.359-102.6-.25C30.39,109.721-7.154,65.277,1.173,36.116Z" transform="translate(70.726 243.797)" fill="#2c3e50"/><path d="M18.623,72.339H8.3a8.3,8.3,0,0,1-8.3-8.3V0H23.455L39.42,17.385a21.09,21.09,0,0,1,5.559,14.276V45.952A26.371,26.371,0,0,1,18.623,72.339Z" transform="translate(142.749 232.883)" fill="#ec8c92"/><path d="M46.707,39.188h-.782a1.657,1.657,0,0,1-1.657-1.656V17.677c5.254-3.016,3.823-11.338,2.345-14.651C45.049-.521,42.587-.826,41.922,1.464A7.65,7.65,0,0,1,34.1,7C26.59,6.832,26.1.323,13.448.565A13.811,13.811,0,0,0,0,14.434V77.327a7.988,7.988,0,0,0,7.967,7.962H24.151A20.087,20.087,0,0,0,44.244,65.208V64.122a3.688,3.688,0,0,1,2.345-3.469,7.65,7.65,0,0,0,4.949-7.15V43.978a4.791,4.791,0,0,0-4.832-4.79Z" transform="translate(128.043 196.43)" fill="#f2bdba"/><path d="M34.854,22.863c-4.914,0-9.341-4.051-11.016-10.08a.589.589,0,0,0-.547-.445.579.579,0,0,0-.548.445,15.167,15.167,0,0,1-4.276,7.3,9.948,9.948,0,0,1-6.74,2.781C5.261,22.863,0,15.986,0,7.532v-.4C0,5.551,0,4.407.039,2.688A2.757,2.757,0,0,1,2.782,0H43.821a2.774,2.774,0,0,1,2.761,2.758V7.532C46.582,15.986,41.321,22.863,34.854,22.863ZM23.291,10.786a2.127,2.127,0,0,1,2.055,1.584,13.962,13.962,0,0,0,3.66,6.419A8.416,8.416,0,0,0,34.854,21.3c5.6,0,10.164-6.176,10.164-13.768V2.759a1.2,1.2,0,0,0-1.2-1.2H2.8A1.19,1.19,0,0,0,1.6,2.727c-.039,1.836-.039,3.017-.039,4.8,0,7.592,4.559,13.768,10.164,13.768a8.409,8.409,0,0,0,5.845-2.511,14.012,14.012,0,0,0,3.663-6.419A2.128,2.128,0,0,1,23.291,10.786Z" transform="translate(120.123 232.25)"/><path d="M3.847,4.821H3.729A3.72,3.72,0,0,1,0,1.1H0A1.1,1.1,0,0,1,1.1,0H6.466a1.1,1.1,0,0,1,1.1,1.1h0A3.72,3.72,0,0,1,3.847,4.821Z" transform="translate(131.319 237.626)"/><path d="M3.847,4.821H3.729A3.728,3.728,0,0,1,0,1.1H0A1.1,1.1,0,0,1,1.1,0H6.474A1.1,1.1,0,0,1,7.568,1.1h0A3.72,3.72,0,0,1,3.847,4.821Z" transform="translate(148.245 237.626)"/><path d="M9.249,2.938H0V1.375H9.249A3,3,0,0,0,11.774,0l1.313.844A4.551,4.551,0,0,1,9.249,2.938Z" transform="translate(144.055 259.418)"/><path d="M9.827,0,1.884,10.939a9.881,9.881,0,0,0,3.37,14.533l9.226,4.9a13.945,13.945,0,0,0,17.9-4.227L35.5,21.738Z" transform="translate(190.23 374.217)" fill="#ec8c92"/><path d="M25.668,0l7.943,10.939a9.881,9.881,0,0,1-3.37,14.533l-9.226,4.9a13.945,13.945,0,0,1-17.888-4.2L0,21.761Z" transform="translate(129.755 374.217)" fill="#ec8c92"/><path d="M9.676,58.985A76.838,76.838,0,0,1,3.116,0l1.5.438a75.276,75.276,0,0,0,6.427,57.821Z" transform="translate(218.379 273.248)"/><path d="M8.843,59.384C-.828,38.857-2.485,20.558,3.472,0L4.981.438C-.867,20.558.759,38.521,10.258,58.673Z" transform="translate(98.09 274.749)"/><path d="M214.231,258.43c-13.62,0-25.795-.045-37.22-.137L57.782,257.8l-14.91-.063H35.4a40.5,40.5,0,0,1-8.929-1.039,34.773,34.773,0,0,1-16.278-8.6,32.731,32.731,0,0,1-9.28-16.158,35.172,35.172,0,0,1,.641-18.292A38.786,38.786,0,0,1,5.1,205.426c.2-.373.424-.733.645-1.08.169-.266.341-.538.5-.81l.586-.922.524-.782,2.095-3.126L26.181,174.1,93.207,75.43l33.5-49.327,8.381-12.33a36.84,36.84,0,0,1,5.88-6.54,31.689,31.689,0,0,1,3.612-2.751,27.6,27.6,0,0,1,4.1-2.227,25.889,25.889,0,0,1,18.765-.922A30.933,30.933,0,0,1,175.6,5.521a39.092,39.092,0,0,1,3.448,2.774l.782.782.782.711,1.321,1.312,169.447,167.62a52.748,52.748,0,0,1,10.109,13.845,50.084,50.084,0,0,1,5.012,16.55,47.8,47.8,0,0,1-1.056,17.417,43.075,43.075,0,0,1-7.724,16.025,40.01,40.01,0,0,1-14.073,11.408,43.308,43.308,0,0,1-17.341,4.157H311.15l-14.909.055c-10.042.027-20.246.07-30.114.11h-.041C249.09,258.357,231.515,258.43,214.231,258.43ZM159.2,11.626a13.689,13.689,0,0,0-5.783,1.272,22.237,22.237,0,0,0-8.757,7.657L136.4,32.939,103.346,82.478,37.258,181.563,20.731,206.324l-2.064,3.126-.515.782-.4.648c-.091.154-.189.307-.284.455l0,.007a8.073,8.073,0,0,0-.493.843,25.325,25.325,0,0,0-2.291,5.47,21.409,21.409,0,0,0-.336,11.126,18.769,18.769,0,0,0,5.426,9.275,20.764,20.764,0,0,0,9.8,5.024,27.329,27.329,0,0,0,5.808.626h7.467l14.91-.063,119.229-.5c11.525-.091,23.779-.135,37.462-.135,18.082,0,36.458.078,54.229.153h.225c8.952.038,18.21.077,27.313.105l29.56.079a28.778,28.778,0,0,0,11.47-2.61,25.1,25.1,0,0,0,8.913-7.117,28.668,28.668,0,0,0,5.169-10.586,33.315,33.315,0,0,0,.819-12.144,35.847,35.847,0,0,0-3.5-11.846,38.531,38.531,0,0,0-7.317-10.251L173.579,19.391l-1.306-1.329-.32-.32-.282-.266-.555-.531a26.622,26.622,0,0,0-2.345-1.906,19.04,19.04,0,0,0-5.027-2.642A13.754,13.754,0,0,0,159.2,11.626Z" transform="translate(1.561 126.433)" fill="#fff"/><path d="M215.42,261.578c-13.476,0-25.529-.046-36.848-.14l-119.229-.492-14.9-.063H36.952a42.589,42.589,0,0,1-9.257-1.078A36.021,36.021,0,0,1,10.682,250.8,34.389,34.389,0,0,1,.963,233.871a36.569,36.569,0,0,1,.657-19.1A41.1,41.1,0,0,1,5.3,206.234c.27-.5.554-.957.821-1.375l.375-.6.586-.922.523-.782,2.1-3.079,16.754-24.667,67-98.633,33.51-49.327,8.389-12.354a38.526,38.526,0,0,1,6.129-6.821,33.921,33.921,0,0,1,3.8-2.946A28.866,28.866,0,0,1,149.6,2.383,27.209,27.209,0,0,1,159.441.039C159.894,0,160.364,0,160.818,0a27.474,27.474,0,0,1,8.662,1.422,31.936,31.936,0,0,1,8.578,4.454,39.072,39.072,0,0,1,3.589,2.883l.782.781.782.727,1.329,1.313,169.5,167.6a54.075,54.075,0,0,1,10.4,14.253,51.272,51.272,0,0,1,5.176,17.064,49.027,49.027,0,0,1-1.086,18,44.866,44.866,0,0,1-8.006,16.612,41.47,41.47,0,0,1-14.652,11.854,45.171,45.171,0,0,1-17.982,4.313h-15.16l-14.909.055c-10.924.033-21.036.072-30.914.117l-7.115.027h-.018C245.236,261.52,230.207,261.578,215.42,261.578ZM160.818,1.562c-.216,0-.434.01-.645.02s-.43.02-.645.02a25.6,25.6,0,0,0-9.289,2.219,27.54,27.54,0,0,0-4.1,2.227A31.694,31.694,0,0,0,142.53,8.8a36.846,36.846,0,0,0-5.88,6.54l-8.381,12.33L94.768,77,27.742,175.667,11.01,200.272,8.915,203.4l-.525.781L7.8,205.1c-.157.276-.33.548-.5.812-.221.347-.449.706-.644,1.08a38.767,38.767,0,0,0-3.549,8.227,35.171,35.171,0,0,0-.641,18.292,32.735,32.735,0,0,0,9.281,16.159,34.763,34.763,0,0,0,16.277,8.6A40.554,40.554,0,0,0,36.96,259.3h7.473l14.91.063,119.229.492c12.272.093,24.666.14,36.84.14,16.923,0,34.128-.072,50.767-.142h.011c10.348-.044,21.048-.089,31.612-.116l14.909-.054h15.153a43.305,43.305,0,0,0,17.341-4.157,40,40,0,0,0,14.073-11.408A43.062,43.062,0,0,0,367,228.1a47.812,47.812,0,0,0,1.087-17.4,50.078,50.078,0,0,0-5.012-16.549A52.775,52.775,0,0,0,352.968,180.3L183.466,12.666l-1.321-1.313-.782-.711-.782-.781a38.749,38.749,0,0,0-3.448-2.774A30.867,30.867,0,0,0,168.98,2.9,26.207,26.207,0,0,0,160.818,1.562Z" transform="translate(0 124.867)" fill="#93b4f6"/><path d="M334.9,187.341a38.609,38.609,0,0,0-7.318-10.158L159.814,7.775l-1.306-1.328-.321-.32-.281-.266-.555-.531a26.626,26.626,0,0,0-2.345-1.907A19.073,19.073,0,0,0,149.978.781,14.08,14.08,0,0,0,145.412,0a13.924,13.924,0,0,0-5.762,1.266,22.223,22.223,0,0,0-8.757,7.657L122.63,21.308,89.582,70.847l-66.088,99.1L6.966,194.709,4.9,197.834l-.516.781-.4.649c-.258.438-.563.852-.782,1.3a25.3,25.3,0,0,0-2.291,5.47,21.389,21.389,0,0,0-.336,11.127A18.828,18.828,0,0,0,6,226.44a20.762,20.762,0,0,0,9.8,5.024,27.131,27.131,0,0,0,5.84.625v-1.563a25.762,25.762,0,0,1-5.473-.586A19.159,19.159,0,0,1,7.106,225.3a17.188,17.188,0,0,1-4.972-8.509,19.656,19.656,0,0,1,.313-10.314,23.433,23.433,0,0,1,2.15-5.1v-.094a6.035,6.035,0,0,1,.4-.68c.1-.164.211-.336.313-.516l.367-.594.508-.781,2.064-3.126,16.52-24.762,66.088-99.07,33.056-49.539L132.168,9.83a20.543,20.543,0,0,1,8.1-7.095A12.226,12.226,0,0,1,145.389,1.6a12.438,12.438,0,0,1,4.058.688,17.305,17.305,0,0,1,4.613,2.422,23.657,23.657,0,0,1,2.2,1.789l.532.516.274.25.3.3,1.306,1.321L326.461,178.277a36.89,36.89,0,0,1,7.036,9.751,33.983,33.983,0,0,1,3.354,11.33c.923,7.9-1.188,15.963-5.66,21.589a23.359,23.359,0,0,1-8.366,6.673,27.017,27.017,0,0,1-10.821,2.461L282.475,230q-15.457-.047-30.906-.117c-16.872-.07-34.322-.141-51.491-.141-13.487,0-25.542.047-36.848.133L44,230.378l-14.9.062H21.672V232h7.42L44,231.941l119.229-.5q18.428-.141,36.84-.133c27.466,0,54.931.18,82.389.258l29.561.078a28.942,28.942,0,0,0,11.47-2.61,24.953,24.953,0,0,0,8.913-7.118c4.84-6.087,6.95-14.565,5.989-22.73A35.927,35.927,0,0,0,334.9,187.341Z" transform="translate(15.326 138.049)" fill="#93b4f6"/><path d="M16.161,55.545c2.087,3.907,9.679,4.688,15,.734,3.127,4.383,12.251,4.383,16.817-.734C54.737,62,70.647,54.9,74.939,39.973c-9.867,0-9.194-15.346.7-15.705C72.57,10.2,59.873-2.369,38.709.381,26.489,1.944,11.72,4.827,5.411,14.657-.664,24.127,0,33.175.04,39.973.118,54.819,8.436,60.64,16.161,55.545Z" transform="translate(85.354 345.003)" fill="#f2bdba"/><path d="M11.782,7.759a7.308,7.308,0,0,1,3.19-5.813c1.11-.86.461-1.946-.938-1.946H8.053C2.58,0,0,2.743,0,8.017s2.549,8.009,8.053,8.009h4.253c1.689,0,3.221-1.4,3.049-2.2A6.354,6.354,0,0,1,11.782,7.759Z" transform="translate(150.935 125.398)" fill="#274d76"/><path d="M60.2,55.575c-2.087,3.907-9.914,4.688-15.23.734-2.252,4.383-12.017,4.383-16.583-.734-6.88,6.563-22.673-1.094-27.216-16.409C-4.183,21.195,8.944-3.348,37.653.379,53.29,2.4,72.836,6.63,74.188,24.437c-8.1.055-10.539,15.534,2.134,15.534C77.98,54.794,67.957,60.669,60.2,55.575Z" transform="translate(193.763 344.974)" fill="#f2bdba"/><path d="M0,0H1.563l0,10.575H0Z" transform="translate(243.534 390.832) rotate(-44.11)"/><path d="M0,0H1.563l0,9.9H0Z" transform="translate(228.203 391.605) rotate(-44.11)"/><path d="M0,0H1.563l0,10.841H0Z" transform="matrix(0.718, -0.696, 0.696, 0.718, 211.556, 390.708)"/><path d="M0,0H1.563l0,8.987H0Z" transform="translate(95.019 390.558) rotate(-29.46)"/><path d="M0,0H1.563l0,8.174H0Z" transform="translate(109.723 390.649) rotate(-29.45)"/><path d="M0,0H1.563l0,8.682H0Z" transform="translate(126.839 390.648) rotate(-29.45)"/><path d="M0,0H1.563l.024,96.957H.024Z" transform="translate(172.809 161.343) rotate(-28.11)" fill="#2c3e50"/><path d="M0,0H1.563l.013,53.4H.013Z" transform="translate(123.583 69.245) rotate(-28.11)" fill="#2c3e50"/><path d="M0,0H1.563l.009,36H.009Z" transform="translate(93.319 12.635) rotate(-28.11)" fill="#2c3e50"/><path d="M45.221,19.381C50.4,13.739,48.114,6.34,46.613,3.027,45.049-.521,42.586-.826,41.922,1.464A7.65,7.65,0,0,1,34.1,7C26.59,6.832,26.1.323,13.448.565A13.928,13.928,0,0,0,0,14.434c0,11.861,11.329-1.8,20.844,4.829C34.1,28.46,41.672,23.248,45.221,19.381Z" transform="translate(127.996 196.43)"/><rect width="53.204" height="1.563" transform="translate(173.053 571.817)" fill="#fff"/><rect width="62.586" height="1.563" transform="translate(262.729 571.817)"/><path d="M0,0H1.563l.009,34.057H.009Z" transform="translate(288.779 448.197) rotate(-29.3)"/></g></g></svg>