<svg xmlns="http://www.w3.org/2000/svg" width="270" height="270" viewBox="0 0 270 270"><g transform="translate(-1272 -1167)"><g transform="translate(1272 1167)" fill="#fff" stroke="#707070" stroke-width="1" opacity="0"><rect width="270" height="270" stroke="none"/><rect x="0.5" y="0.5" width="269" height="269" fill="none"/></g><g transform="translate(-339.594 -75.911)"><path d="M207,161.628V156.7a2.239,2.239,0,0,0,.653.072,2.5,2.5,0,0,0,.653-.072c-.073.58-.073,1.3-.145,2.029v2.247a5.2,5.2,0,0,0,.145,1.232,1.4,1.4,0,0,0,.363.652,3.155,3.155,0,0,0,.508.435,2.61,2.61,0,0,0,.8.145,1.75,1.75,0,0,0,1.088-.29,2.057,2.057,0,0,0,.653-.725,1.029,1.029,0,0,0,.145-.435,1.074,1.074,0,0,0,.073-.507c0-.217.072-.507.072-.8V156.7l.29.072h.58l.29-.072c-.073.8-.073,1.595-.073,2.319v3.7a7.874,7.874,0,0,0,.073,1.3H212v-1.3a2.616,2.616,0,0,1-1.088,1.087,3,3,0,0,1-1.378.362A2.283,2.283,0,0,1,207,161.628Z" transform="translate(1574.736 1272.784)" fill="#030303"/><path d="M198.346,163.948l-.435-1.087c-.145-.435-.363-.87-.58-1.377l-.653-1.45c-.218-.507-.435-1.015-.58-1.45l-.508-1.16-.29-.725.363.072h.725l.363-.072a23.55,23.55,0,0,0,1.088,2.9c.363.942.8,1.957,1.233,2.972a26.789,26.789,0,0,0,1.233-2.9c.363-1.015.725-2.029,1.088-2.972a1.814,1.814,0,0,0,1.015,0l-.363.725-.58,1.232-.725,1.594-.8,1.739-.8,1.812c-.29.58-.508,1.16-.725,1.667l-.58,1.45c-.145.435-.29.8-.363,1.015a1.815,1.815,0,0,0-1.015,0c.653-1.3,1.306-2.609,1.886-3.986Z" transform="translate(1577.949 1272.784)" fill="#030303"/><path d="M184.7,161.628V156.7a2.239,2.239,0,0,0,.653.072,2.5,2.5,0,0,0,.653-.072c-.073.58-.073,1.3-.145,2.029v2.247a5.2,5.2,0,0,0,.145,1.232,1.4,1.4,0,0,0,.363.652,3.152,3.152,0,0,0,.508.435,2.609,2.609,0,0,0,.8.145,1.749,1.749,0,0,0,1.088-.29,2.057,2.057,0,0,0,.653-.725,1.03,1.03,0,0,0,.145-.435,1.074,1.074,0,0,0,.073-.507c0-.217.073-.507.073-.8V156.7l.29.072h.58l.29-.072c-.073.8-.073,1.595-.073,2.319v3.7a7.872,7.872,0,0,0,.073,1.3H189.7v-1.3a2.616,2.616,0,0,1-1.088,1.087,3,3,0,0,1-1.378.362,2.283,2.283,0,0,1-2.539-2.537Z" transform="translate(1580.861 1272.784)" fill="#030303"/><path d="M173.98,160.7c.073.217.218.362.29.58a1.693,1.693,0,0,0,.508.507,2.271,2.271,0,0,0,.725.362,3.645,3.645,0,0,0,.87.145,2.708,2.708,0,0,0,.87-.145,1.58,1.58,0,0,0,.653-.507,1.5,1.5,0,0,0,.435-.725,3.638,3.638,0,0,0,.145-.87,1.63,1.63,0,0,0-.363-1.087,1.98,1.98,0,0,0-.87-.652,5.613,5.613,0,0,0-1.161-.507,5.782,5.782,0,0,1-1.16-.58,2.5,2.5,0,0,1-.87-.87,2.853,2.853,0,0,1-.363-1.45,3,3,0,0,1,.218-1.16,2.757,2.757,0,0,1,.653-.942,2.616,2.616,0,0,1,1.088-.58,4.225,4.225,0,0,1,1.378-.217,3.515,3.515,0,0,1,1.306.217,6.629,6.629,0,0,1,1.016.507,4.993,4.993,0,0,0-.218.58c-.073.217-.145.435-.218.725h-.218l-.218-.435a2.2,2.2,0,0,0-.363-.507,1.3,1.3,0,0,0-.508-.362,2.146,2.146,0,0,0-.725-.145,2.608,2.608,0,0,0-.8.145,2.939,2.939,0,0,0-.653.362,4.026,4.026,0,0,0-.435.58,2.606,2.606,0,0,0-.145.8,1.843,1.843,0,0,0,.363,1.16,4.21,4.21,0,0,0,.87.725,5.62,5.62,0,0,0,1.161.507,5.616,5.616,0,0,1,1.161.507,3.092,3.092,0,0,1,.87.8,2.576,2.576,0,0,1,.363,1.377,2.653,2.653,0,0,1-.29,1.3,2.867,2.867,0,0,1-.725,1.087,3.16,3.16,0,0,1-1.161.725,5.31,5.31,0,0,1-1.6.217,4.24,4.24,0,0,1-1.523-.217,2.982,2.982,0,0,1-.943-.58l.218-.652a2.234,2.234,0,0,0,.073-.725h.29Z" transform="translate(1583.965 1274.077)" fill="#030303"/><path d="M157.845,155.194V152.8a6.225,6.225,0,0,0-.073-1.16,3.828,3.828,0,0,0-.072-.942,2.5,2.5,0,0,0,.653.073,2.237,2.237,0,0,0,.653-.073l-.073.942v6.306c0,.217.073.29.218.29a.549.549,0,0,0,.29-.072l.363-.217.435-.435.725-.725.87-.87a8.689,8.689,0,0,0,.8-.87,1.6,1.6,0,0,0,.58.072h.363c.145,0,.29-.072.435-.072-.653.507-1.233,1.015-1.886,1.522-.58.507-1.161,1.015-1.668,1.522.58.725,1.16,1.377,1.813,2.1s1.233,1.377,1.886,2.1h-1.668l-.8-.87-.87-1.015a10.849,10.849,0,0,0-.8-.942,5.29,5.29,0,0,1-.653-.725c-.145-.145-.218-.145-.218-.145-.073,0-.145.072-.145.217v2.319c0,.435.073.87.073,1.3h-1.306a4.154,4.154,0,0,1,.073-.87,6.628,6.628,0,0,1,.073-1.16v-5.218Z" transform="translate(1588.277 1274.435)" fill="#030303"/><path d="M152.755,163.485h-.145a.544.544,0,0,1-.363-.072.377.377,0,0,1-.145-.29.653.653,0,0,1-.073-.362v-3.914a2.006,2.006,0,0,0-.218-.942,2.6,2.6,0,0,0-.508-.725,1.73,1.73,0,0,0-.8-.435,2.308,2.308,0,0,0-1.015-.145,3.009,3.009,0,0,0-1.161.217,6.15,6.15,0,0,0-1.306.725v.8h.145a1.7,1.7,0,0,1,.8-.8,2.13,2.13,0,0,1,1.161-.29,2.61,2.61,0,0,1,.8.145.975.975,0,0,1,.508.435,1.456,1.456,0,0,1,.29.58,2.461,2.461,0,0,1,.073.725.543.543,0,0,1-.073.362c0,.072-.145.145-.29.217a3.381,3.381,0,0,1-.653.217,11.932,11.932,0,0,1-1.306.217,4.071,4.071,0,0,0-1.6.652,1.9,1.9,0,0,0-.58,1.45,2.605,2.605,0,0,0,.145.8,4.018,4.018,0,0,0,.435.58,2.94,2.94,0,0,0,.653.362,3.264,3.264,0,0,0,2.031-.217,3.474,3.474,0,0,0,1.088-.8.918.918,0,0,0,.29.652,1.083,1.083,0,0,0,.725.217,1.6,1.6,0,0,0,.58-.072,1.031,1.031,0,0,0,.435-.145v-.217C152.828,163.413,152.828,163.485,152.755,163.485ZM150.8,162.4a2.3,2.3,0,0,1-.725.725,1.749,1.749,0,0,1-1.088.29,1.529,1.529,0,0,1-.943-.362,1.272,1.272,0,0,1-.435-1.087,2.143,2.143,0,0,1,.145-.725,1.232,1.232,0,0,1,.435-.435,2.173,2.173,0,0,1,.58-.29,2.145,2.145,0,0,1,.725-.145c.218-.073.435-.073.653-.145s.435-.072.58-.145Z" transform="translate(1591.408 1272.811)" fill="#030303"/><path d="M140.5,159.617a2.932,2.932,0,0,0-.435-1.739,1.55,1.55,0,0,0-1.233-.58,1.927,1.927,0,0,0-1.6.652,3.425,3.425,0,0,0-.508,1.884v2.754c0,.507.072.942.072,1.377H135.5a8.314,8.314,0,0,0,.073-1.377v-4.494c0-.507-.073-1.015-.073-1.45a2.5,2.5,0,0,0,.653.072h.29l.363-.072c0,.435-.072.8-.072,1.232a2.907,2.907,0,0,1,1.088-1.015,2.859,2.859,0,0,1,1.451-.362,3.641,3.641,0,0,1,.87.145,1.729,1.729,0,0,1,.8.435,2.272,2.272,0,0,1,.58.8,3.508,3.508,0,0,1,.218,1.3v4.784h-1.306l.073-1.667c0-.58.072-1.16.072-1.739v-.942Z" transform="translate(1594.375 1272.839)" fill="#030303"/><path d="M126.846,163.948l-.435-1.087c-.145-.435-.363-.87-.58-1.377l-.653-1.45c-.218-.507-.435-1.015-.58-1.45l-.508-1.16-.29-.725.363.072h.725l.363-.072a23.552,23.552,0,0,0,1.088,2.9c.363.942.8,1.957,1.233,2.972a26.786,26.786,0,0,0,1.233-2.9c.363-1.015.725-2.029,1.088-2.972a1.814,1.814,0,0,0,1.015,0l-.363.725-.58,1.232-.725,1.594-.8,1.739-.8,1.812c-.29.58-.508,1.16-.725,1.667l-.58,1.45c-.145.435-.29.8-.363,1.015a1.815,1.815,0,0,0-1.015,0c.653-1.3,1.306-2.609,1.886-3.986Z" transform="translate(1597.589 1272.784)" fill="#030303"/><path d="M120.555,163.485h-.145a.544.544,0,0,1-.363-.072.376.376,0,0,1-.145-.29.653.653,0,0,1-.073-.362v-3.914a2.006,2.006,0,0,0-.218-.942,2.6,2.6,0,0,0-.508-.725,1.73,1.73,0,0,0-.8-.435,2.308,2.308,0,0,0-1.015-.145,3.009,3.009,0,0,0-1.16.217,6.148,6.148,0,0,0-1.306.725v.8h.145a1.7,1.7,0,0,1,.8-.8,2.13,2.13,0,0,1,1.161-.29,2.611,2.611,0,0,1,.8.145.975.975,0,0,1,.508.435,1.457,1.457,0,0,1,.29.58,2.464,2.464,0,0,1,.073.725.543.543,0,0,1-.073.362c0,.072-.145.145-.29.217a3.382,3.382,0,0,1-.653.217,11.933,11.933,0,0,1-1.306.217,4.071,4.071,0,0,0-1.6.652,1.9,1.9,0,0,0-.58,1.45,2.605,2.605,0,0,0,.145.8,4.021,4.021,0,0,0,.435.58,2.942,2.942,0,0,0,.653.362,3.265,3.265,0,0,0,2.031-.217,3.474,3.474,0,0,0,1.088-.8.918.918,0,0,0,.29.652,1.083,1.083,0,0,0,.725.217,1.6,1.6,0,0,0,.58-.072,1.031,1.031,0,0,0,.435-.145v-.217C120.7,163.413,120.628,163.485,120.555,163.485ZM118.67,162.4a2.3,2.3,0,0,1-.725.725,1.749,1.749,0,0,1-1.088.29,1.528,1.528,0,0,1-.943-.362,1.271,1.271,0,0,1-.435-1.087,2.143,2.143,0,0,1,.145-.725,1.232,1.232,0,0,1,.435-.435,2.173,2.173,0,0,1,.58-.29,2.146,2.146,0,0,1,.725-.145c.218-.073.435-.073.653-.145s.435-.072.58-.145Z" transform="translate(1600.253 1272.811)" fill="#030303"/><path d="M102.4,162.709c0-.652.073-1.3.073-1.957s.073-1.3.073-1.957v-2.609a17.642,17.642,0,0,0-.073-1.957c0-.652-.073-1.3-.073-1.957l.363.072h.725l.363-.072-.073,1.957v2.827c0,.072,0,.145.073.145s.145-.073.218-.145a13.905,13.905,0,0,0,1.088-1.015c.363-.362.8-.8,1.161-1.232s.8-.87,1.161-1.3l1.088-1.3.29.072h.653l.363-.072c-.363.29-.725.652-1.233,1.087-.435.435-.87.87-1.378,1.3l-1.306,1.3c-.435.435-.725.8-1.015,1.087.8.942,1.668,1.884,2.466,2.827.87.942,1.668,1.957,2.539,2.9h-1.451c-.363-.435-.8-.87-1.233-1.45-.435-.507-.87-1.087-1.306-1.595s-.8-.942-1.161-1.377-.58-.725-.725-.87c-.073-.072-.145-.145-.218-.145l-.073,1.45v1.957l.073,1.957h-.725c-.218,0-.435.072-.725.072Z" transform="translate(1603.467 1274.022)" fill="#030303"/><g transform="translate(1854.195 1365.849)"><path d="M313.791,70.784a4.17,4.17,0,0,0-1.378-1.377A4.012,4.012,0,0,0,310.6,68.9a3.276,3.276,0,0,0-1.813.507,3.592,3.592,0,0,0-1.378,1.377A3.441,3.441,0,0,0,306.9,72.6a3.27,3.27,0,0,0,.508,1.812,3.592,3.592,0,0,0,1.378,1.377,4.282,4.282,0,0,0,1.813.507,3.275,3.275,0,0,0,1.813-.507,3.591,3.591,0,0,0,1.378-1.377,3.487,3.487,0,0,0,0-3.624Zm-.508,3.406a2.974,2.974,0,0,1-1.16,1.16,2.885,2.885,0,0,1-3.046,0,2.973,2.973,0,0,1-1.16-1.16,2.878,2.878,0,0,1,0-3.044,2.973,2.973,0,0,1,1.16-1.16,2.885,2.885,0,0,1,3.046,0,2.973,2.973,0,0,1,1.16,1.16,3.042,3.042,0,0,1,.435,1.522A6.007,6.007,0,0,1,313.283,74.191Z" transform="translate(-306.9 -68.9)" fill="#030303"/><path d="M311.994,73.792a1.586,1.586,0,0,0-.363-.217,1.04,1.04,0,0,0,.8-.362.93.93,0,0,0,.29-.725.822.822,0,0,0-.218-.58.839.839,0,0,0-.508-.362,3.364,3.364,0,0,0-1.015-.145H309.6v3.986h.653V73.719h.363a1.049,1.049,0,0,1,.508.145,4.728,4.728,0,0,1,.653.942l.363.652h.8l-.508-.8A1.61,1.61,0,0,0,311.994,73.792Zm-.87-.652h-.8V71.907h.725a1.611,1.611,0,0,1,.653.072,1,1,0,0,1,.29.217.568.568,0,0,1-.145.725C311.776,73.067,311.486,73.139,311.123,73.139Z" transform="translate(-307.642 -69.588)" fill="#030303"/></g><path d="M227.5,71.7c9.864,1.884,17.625,15.365,11.605,25.512-4.352,7.03-3.409,16.307,3.046,19.134,3.336,1.087,6.528-.362,6.528-7.248V78.078l-1.523-.8v-.87h10.227v.942l-1.668.87v48.125a16.5,16.5,0,0,1-1.523,7.248c-3.119,5.871-8.631,8.625-14.942,5.943-5.73-2.247-6.455-11.017-2.031-14.133-3.191,6.958-.943,12.1,4.207,12.828,3.772.217,6.963-2.9,6.746-8.77V118.448c-6.528,5.146-14.579,2.609-16.9-4.059-2.394-7.32-.363-12.539,2.684-17.829,3.482-6.668,1.088-18.409-6.455-24.86Z" transform="translate(1569.105 1296.178)" fill="#030303"/><path d="M212.6,65.449a4.352,4.352,0,1,1,4.352,4.349,4.363,4.363,0,0,1-4.352-4.349Z" transform="translate(1573.197 1299.095)" fill="#030303"/><path d="M220.821,78.2v43.486l1.306.507v.87H211.973v-.87l1.6-.362V79.722L211.9,79v-.8Z" transform="translate(1573.39 1294.389)" fill="#030303"/><path d="M194.026,116.35V59.6h-8.849v.8l1.668.87V72.356c0,5.363-1.088,7.175-4.715,10.8-8.849,6.885-15.087,10.364-16.175,19.5-.8,6.958,2.539,12.466,7.906,14.713,5.077,1.594,9.5.29,13.128-4.784v5.363h8.631v-1.16Zm-6.891-10.944c0,6.161-5.295,9.495-10.009,6.306-5.658-4.639-5.077-13.843,1.015-20.511,3.554-3.914,7.036-6.161,8.994-9.567Z" transform="translate(1586.042 1299.508)" fill="#030303"/><path d="M90.439,77.942l.145,2.9c4.787-4.711,10.517-3.7,13.419,1.884,4.062-4.639,9.792-6.161,14.361-3.914,6.165,3.334,6.31,10.509,6.31,18.192v24.425l1.378.58v.8H115.97v-.8l1.6-.58V93.887c0-3.841-.653-7.1-2.176-8.842-2.756-3.479-8.486-3.334-10.517-.362,1.16,2.827,1.523,6.958,1.523,10.727v25.947l1.523.725v.8H98.708v-.87l1.451-.507V93.09c0-4.349-1.16-9.35-3.772-10.437C93.2,81.493,90.8,83.668,90.8,87.364V121.5l1.741.507v.8H81.518v-1.015l1.451-.217V79.464L81.3,78.522v-.58Z" transform="translate(1609.262 1294.502)" fill="#030303"/><path d="M65.373,121.743V93.331c0-8.987-3.554-14.061-11.1-15.148-10.517-.87-13.2,11.669-7.253,15.075-3.844-6.6-.218-13.988,6.165-12.321,4.57,1.087,6.963,7.973,2.466,12.684-3.046,3.769-10.735,7.755-13.128,13.118C40.2,111.233,41,118.916,45.789,121.453c5,2.682,9.067,1.812,12.113-2.464V122.9h8.849v-.87Zm-7.616-10.509c0,5.871-3.917,7.03-7.253,4.928-4.062-3.261-3.191-10.654.58-14.5,1.958-2.174,4.5-4.131,6.745-6.74v16.307Z" transform="translate(1620.258 1294.405)" fill="#030303"/><path d="M8.414,59.3l.073,16.96c4.352-4.2,10.3-4.2,14.579-.072,4.715,5.146,4.57,12.321-.145,21.961-3.482,6.306-.943,18.192,5.948,24.642-6.383-1.015-12.258-8.77-13.056-13.553-2.031-7.973,3.046-12.249,4.062-16.6a16.706,16.706,0,0,0-.218-10.364c-3.119-7.61-10.155-6.813-11.1-1.015v35.224l1.306.29v.8H.073v-.725l1.451-.29V61.982C1.523,59.807,0,60.17,0,60.17V59.3Z" transform="translate(1631.594 1299.591)" fill="#030303"/><path d="M292.168,108.031c3.772,7.1-.29,12.249-4.57,12.466-4.134-.145-6.746-3.334-6.746-7.828.29-3.7,2.539-6.523,7.4-9.712,7.688-5.436,11.17-11.379,8.921-17.974-4.787-12.611-23.573-7.755-23.573,8.335v14.206c0,10,4.062,14.93,11.75,15.438C293.691,123.251,298.479,113.177,292.168,108.031ZM280.636,89.042c0-7.828,7.253-8.915,10.082-3.334,4.134,9.712-5.367,15.945-10.082,20.874Z" transform="translate(1556.442 1294.491)" fill="#030303"/><g transform="translate(1733.061 1315.911)"><path d="M153.553,0c6.448,4.393,6.519,12.542-.567,23.029-8.149,11.266-12.9,17.077-6.944,24.871-8.574-5.031-9.778-11.2,1.417-26.218,6.873-9.141,9.283-16.439,6.094-21.683Z" transform="translate(-139.337)" fill="#030303"/><path d="M178.831,7.1c-5.385,2.905-6.944,10.487-5.6,21.824C175.5,47.489,171.32,52.308,161.4,52.308c9.07-3.826,7.794-11.2,6.448-25.013-.921-12.613,3.189-19.628,10.983-20.195Z" transform="translate(-145.767 -2.069)" fill="#030303"/><path d="M161.366,28.3a84.236,84.236,0,0,0,.709,14.243c1.417,9-4.252,15.8-7.865,14.88-5.456-.85-6.661-10.416-.283-18.14,2.622-3.4,5.669-6.944,7.44-10.983Z" transform="translate(-142.332 -8.247)" fill="#030303"/></g><path d="M155.821,78.2v43.486l1.306.507v.87H146.973v-.87l1.523-.362V79.722L146.9,79v-.8Z" transform="translate(1591.244 1294.389)" fill="#030303"/></g></g></svg>