<svg xmlns="http://www.w3.org/2000/svg" width="100" height="100" viewBox="0 0 100 100">
  <g id="Group_12" data-name="Group 12" transform="translate(-1212 -164)">
    <circle id="Ellipse_1" data-name="Ellipse 1" cx="50" cy="50" r="50" transform="translate(1212 164)" fill="rgba(0,0,0,0)"/>
    <g id="Group_11" data-name="Group 11" transform="translate(941.779 -150.431)">
      <path id="Path_44" data-name="Path 44" d="M320.221,334.431c-16.566,0-30,13.771-30,30.76a30.708,30.708,0,0,0,20.516,29.188c1.5.284,2.05-.668,2.05-1.48,0-.733-.028-3.157-.041-5.727-8.346,1.861-10.107-3.629-10.107-3.629-1.365-3.555-3.331-4.5-3.331-4.5-2.722-1.909.205-1.87.205-1.87,3.013.217,4.6,3.17,4.6,3.17,2.676,4.7,7.018,3.343,8.73,2.557a6.615,6.615,0,0,1,1.9-4.114c-6.663-.777-13.668-3.415-13.668-15.2a12.072,12.072,0,0,1,3.091-8.256,11.314,11.314,0,0,1,.291-8.141s2.519-.826,8.252,3.154a27.765,27.765,0,0,1,15.024,0c5.726-3.98,8.242-3.154,8.242-3.154a11.3,11.3,0,0,1,.294,8.141,12.049,12.049,0,0,1,3.088,8.256c0,11.814-7.018,14.415-13.7,15.176,1.076.955,2.035,2.826,2.035,5.7,0,4.116-.035,7.428-.035,8.441,0,.819.54,1.778,2.061,1.476a30.7,30.7,0,0,0,20.5-29.184C350.221,348.2,336.789,334.431,320.221,334.431Z" transform="translate(0 0)" fill="#fff" fill-rule="evenodd"/>
      <path id="Path_45" data-name="Path 45" d="M312.279,420.632a.373.373,0,0,1-.514.094c-.218-.1-.34-.309-.269-.462s.3-.2.517-.1.342.311.267.464Zm-.369-.28" transform="translate(-10.696 -42.037)" fill="#fff"/>
      <path id="Path_46" data-name="Path 46" d="M314.74,423.041c-.143.135-.423.072-.613-.142a.479.479,0,0,1-.088-.639c.148-.136.419-.072.616.142s.235.5.085.639Zm-.286-.315" transform="translate(-11.941 -43.057)" fill="#fff"/>
      <path id="Path_47" data-name="Path 47" d="M317.1,426.327c-.184.131-.484.009-.67-.265s-.184-.6,0-.733.482-.013.671.258a.553.553,0,0,1,0,.74Zm0,0" transform="translate(-13.12 -44.571)" fill="#fff"/>
      <path id="Path_48" data-name="Path 48" d="M320.139,429.723c-.164.186-.515.135-.771-.118a.6.6,0,0,1-.17-.786c.166-.186.519-.133.777.118s.34.6.164.786Zm0,0" transform="translate(-14.537 -46.255)" fill="#fff"/>
      <path id="Path_49" data-name="Path 49" d="M324.411,432c-.073.24-.41.35-.75.248s-.561-.388-.493-.631.409-.357.752-.247.561.385.491.63Zm0,0" transform="translate(-16.573 -47.543)" fill="#fff"/>
      <path id="Path_50" data-name="Path 50" d="M329.318,432.581c.008.254-.28.464-.636.469s-.649-.2-.653-.447.282-.464.64-.471.649.2.649.449Zm0,0" transform="translate(-19.025 -47.935)" fill="#fff"/>
      <path id="Path_51" data-name="Path 51" d="M333.927,431.892c.043.247-.205.5-.559.569s-.671-.088-.715-.333.209-.508.557-.574.672.086.717.337Zm0,0" transform="translate(-21.35 -47.645)" fill="#fff"/>
    </g>
  </g>
</svg>
