<svg id="instagram-color" xmlns="http://www.w3.org/2000/svg" xmlns:xlink="http://www.w3.org/1999/xlink" width="20" height="20" viewBox="0 0 20 20">
  <defs>
    <linearGradient id="linear-gradient" x1="0.084" y1="0.916" x2="0.916" y2="0.084" gradientUnits="objectBoundingBox">
      <stop offset="0" stop-color="#ffd600"/>
      <stop offset="0.5" stop-color="#ff0100"/>
      <stop offset="1" stop-color="#d800b9"/>
    </linearGradient>
    <linearGradient id="linear-gradient-2" x1="0.146" y1="0.854" x2="0.854" y2="0.146" gradientUnits="objectBoundingBox">
      <stop offset="0" stop-color="#ff6400"/>
      <stop offset="0.5" stop-color="#ff0100"/>
      <stop offset="1" stop-color="#fd0056"/>
    </linearGradient>
    <linearGradient id="linear-gradient-3" x1="0.146" y1="0.854" x2="0.854" y2="0.146" gradientUnits="objectBoundingBox">
      <stop offset="0" stop-color="#f30072"/>
      <stop offset="1" stop-color="#e50097"/>
    </linearGradient>
  </defs>
  <path id="Path_13289" data-name="Path 13289" d="M19.94,5.877a7.342,7.342,0,0,0-.465-2.427,4.9,4.9,0,0,0-1.153-1.771A4.9,4.9,0,0,0,16.55.525,7.34,7.34,0,0,0,14.123.06C13.057.012,12.716,0,10,0S6.944.012,5.877.06A7.342,7.342,0,0,0,3.45.525,4.9,4.9,0,0,0,1.678,1.678,4.9,4.9,0,0,0,.525,3.45,7.341,7.341,0,0,0,.06,5.877C.012,6.944,0,7.284,0,10s.012,3.057.06,4.123A7.34,7.34,0,0,0,.525,16.55a4.9,4.9,0,0,0,1.153,1.771A4.9,4.9,0,0,0,3.45,19.475a7.338,7.338,0,0,0,2.427.465C6.944,19.989,7.284,20,10,20s3.057-.011,4.123-.06a7.338,7.338,0,0,0,2.427-.465,5.112,5.112,0,0,0,2.925-2.925,7.339,7.339,0,0,0,.465-2.427c.049-1.067.06-1.407.06-4.123S19.989,6.944,19.94,5.877Zm-1.8,8.164A5.533,5.533,0,0,1,17.8,15.9a3.312,3.312,0,0,1-1.9,1.9,5.533,5.533,0,0,1-1.857.344c-1.054.048-1.371.058-4.041.058s-2.987-.01-4.041-.058A5.535,5.535,0,0,1,4.1,17.8a3.1,3.1,0,0,1-1.15-.748A3.1,3.1,0,0,1,2.2,15.9a5.533,5.533,0,0,1-.344-1.857C1.812,12.987,1.8,12.67,1.8,10s.01-2.986.058-4.041A5.537,5.537,0,0,1,2.2,4.1a3.1,3.1,0,0,1,.748-1.15A3.1,3.1,0,0,1,4.1,2.2,5.532,5.532,0,0,1,5.959,1.86C7.014,1.812,7.33,1.8,10,1.8h0c2.67,0,2.986.01,4.041.058A5.534,5.534,0,0,1,15.9,2.2a3.1,3.1,0,0,1,1.15.748A3.1,3.1,0,0,1,17.8,4.1a5.528,5.528,0,0,1,.344,1.857C18.188,7.014,18.2,7.33,18.2,10S18.188,12.987,18.14,14.041Zm0,0" fill="url(#linear-gradient)"/>
  <path id="Path_13290" data-name="Path 13290" d="M129.674,124.539a5.135,5.135,0,1,0,5.135,5.135A5.135,5.135,0,0,0,129.674,124.539Zm0,8.469a3.333,3.333,0,1,1,3.333-3.333A3.333,3.333,0,0,1,129.674,133.008Zm0,0" transform="translate(-119.674 -119.674)" fill="url(#linear-gradient-2)"/>
  <path id="Path_13291" data-name="Path 13291" d="M364.33,89.825a1.2,1.2,0,1,1-1.2-1.2A1.2,1.2,0,0,1,364.33,89.825Zm0,0" transform="translate(-347.792 -85.163)" fill="url(#linear-gradient-3)"/>
</svg>
