<svg xmlns="http://www.w3.org/2000/svg" width="19.874" height="20" viewBox="0 0 19.874 20">
  <g id="linkedin-color" transform="translate(-18.063)">
    <path id="Path_13286" data-name="Path 13286" d="M20.468,2H3.532A1.452,1.452,0,0,0,2.063,3.433V20.568A1.451,1.451,0,0,0,3.532,22H20.468a1.451,1.451,0,0,0,1.469-1.432V3.433A1.451,1.451,0,0,0,20.468,2ZM8.088,18.742h-3V9.711h3ZM6.833,8.479a1.57,1.57,0,0,1-.246,0h-.02a1.565,1.565,0,1,1,.04-3.121,1.565,1.565,0,1,1,.226,3.122ZM18.911,18.742h-3V13.911c0-1.214-.435-2.042-1.521-2.042a1.643,1.643,0,0,0-1.54,1.1,2.059,2.059,0,0,0-.1.732v5.043h-3s.039-8.184,0-9.031h3v1.28A2.978,2.978,0,0,1,15.456,9.5c1.975,0,3.456,1.291,3.456,4.065v5.178Z" transform="translate(16 -2)" fill="#0077b5"/>
  </g>
</svg>
