<svg id="youtube-color" xmlns="http://www.w3.org/2000/svg" width="28.564" height="20" viewBox="0 0 28.564 20">
  <path id="Path_13287" data-name="Path 13287" d="M27.976,3.129A3.579,3.579,0,0,0,25.459.612C23.223,0,14.282,0,14.282,0S5.341,0,3.106.588A3.652,3.652,0,0,0,.588,3.129,37.711,37.711,0,0,0,0,10a37.572,37.572,0,0,0,.588,6.871,3.579,3.579,0,0,0,2.518,2.518C5.365,20,14.282,20,14.282,20s8.941,0,11.176-.588a3.579,3.579,0,0,0,2.518-2.518,37.712,37.712,0,0,0,.588-6.871A35.8,35.8,0,0,0,27.976,3.129Zm0,0" transform="translate(0 0)" fill="red"/>
  <path id="Path_13288" data-name="Path 13288" d="M204.969,111.049l7.435-4.282-7.435-4.282Zm0,0" transform="translate(-193.533 -96.767)" fill="#fff"/>
</svg>
