<svg xmlns="http://www.w3.org/2000/svg" width="960" height="1080"><defs><filter id="b" x="100.066" y="420.715" width="651.022" height="588.966" filterUnits="userSpaceOnUse"><feOffset dy="100"/><feGaussianBlur stdDeviation="49.5" result="c"/><feFlood flood-color="#1f485d" flood-opacity=".2"/><feComposite operator="in" in2="c"/><feComposite in="SourceGraphic"/></filter><filter id="c" x="371.344" y="406.613" width="619.157" height="683.589" filterUnits="userSpaceOnUse"><feOffset dy="100"/><feGaussianBlur stdDeviation="49.5" result="e"/><feFlood flood-color="#1f485d" flood-opacity=".259"/><feComposite operator="in" in2="e"/><feComposite in="SourceGraphic"/></filter><filter id="d" x="53.501" y="255.568" width="891.591" height="534.924" filterUnits="userSpaceOnUse"><feOffset dy="100"/><feGaussianBlur stdDeviation="49.5" result="k"/><feFlood flood-color="#1f485d" flood-opacity=".2"/><feComposite operator="in" in2="k"/><feComposite in="SourceGraphic"/></filter><filter id="f" x="546.388" y="354.501" width="62.439" height="37.28" filterUnits="userSpaceOnUse"><feOffset dy="1"/><feGaussianBlur stdDeviation="1.5" result="n"/><feFlood flood-opacity=".149"/><feComposite operator="in" in2="n"/><feComposite in="SourceGraphic"/></filter><filter id="g" x="217.211" y="58.667" width="603.281" height="542.025" filterUnits="userSpaceOnUse"><feOffset dy="50"/><feGaussianBlur stdDeviation="49.5" result="p"/><feFlood flood-color="#1f305d" flood-opacity=".259"/><feComposite operator="in" in2="p"/><feComposite in="SourceGraphic"/></filter><linearGradient id="e" x1=".5" y1="1" x2=".5" gradientUnits="objectBoundingBox"><stop offset="0" stop-color="#fff" stop-opacity="0"/><stop offset="1" stop-color="#ff5353"/></linearGradient><clipPath id="a"><path transform="translate(480.5 1.812)" fill="none" d="M0 0h960v1080H0z"/></clipPath></defs><path fill="#225cff" d="M0 0h960v1080H0z"/><g clip-path="url(#a)" transform="translate(-480.5 -1.812)"><g fill="none" opacity=".1"><path d="M1390.912 212.545a16 16 0 0118.24 20.257l-230.256 781.858a16 16 0 01-27.238 6.186L580.27 386.255a16 16 0 019-26.442z"/><path d="M1366.85 252.552L629.022 388.095l525.901 584.072 211.925-719.615m38.845-34.976c3.514 3.904 5.142 9.506 3.458 15.226l-230.256 781.858c-3.535 12.006-18.864 15.487-27.238 6.186L580.27 386.256c-8.374-9.3-3.31-24.182 8.999-26.443l801.643-147.268c5.865-1.077 11.267 1.127 14.782 5.03z" fill="#fff"/></g><g transform="rotate(-50 945.71 -405.963)" fill="none" stroke="#fff" stroke-width="12"><rect width="67" height="67" rx="8" stroke="none"/><rect x="6" y="6" width="55" height="55" rx="2"/></g><g transform="translate(545.5 729.813)" fill="none" stroke="#fff" stroke-width="11"><circle cx="21.5" cy="21.5" r="21.5" stroke="none"/><circle cx="21.5" cy="21.5" r="16"/></g><g transform="rotate(-14.98 2453.278 -2492.879)"><g transform="rotate(15 2198.588 -666.661)" filter="url(#b)"><rect width="307.604" height="219.844" rx="8" transform="matrix(.97 -.26 .26 .97 248.57 548.83)" fill="#fff"/></g><path d="M21.275 122.775h265.053" fill="none" stroke="#e6ebf0" stroke-linecap="square" stroke-miterlimit="10"/><text transform="translate(21.275 32.05)" fill="#79828b" font-size="10" font-family="Poppins-Medium, Poppins" font-weight="500" letter-spacing=".107em"><tspan x="0" y="0">CAMPAIGNS</tspan></text><text transform="translate(183.499 32.05)" fill="#79828b" font-size="10" font-family="Poppins-Medium, Poppins" font-weight="500"><tspan x="0" y="0" letter-spacing=".107em">PROJECT</tspan><tspan y="0">S</tspan></text><g transform="translate(21.275 52.302)"><circle cx="14.183" cy="14.183" r="14.183" fill="#b9b9b9" opacity=".5"/><path d="M14.184 18.853l-4.383 2.422.837-5.132-3.546-3.633 4.9-.749 2.192-4.669 2.191 4.669 4.9.749-3.545 3.634.837 5.132z" fill="#fff"/></g><g transform="translate(183.499 52.302)"><circle cx="14.183" cy="14.183" r="14.183" fill="#b9b9b9" opacity=".5"/><path d="M17.584 20.389l-1.279-1.324 4.182-4.434-4.182-4.415 1.279-1.351 5.463 5.762-5.462 5.761zm-5.916 0l-5.463-5.762 5.463-5.762 1.281 1.351-4.183 4.411 4.183 4.438-1.28 1.327z" fill="#fff"/></g><rect width="93.079" height="12.411" rx="6.205" transform="translate(58.507 60.28)" fill="#225cff"/><rect width="64.712" height="12.411" rx="6.205" transform="translate(220.73 60.28)" fill="#225cff"/><rect width="84.214" height="9.456" rx="4.728" transform="translate(21.275 93.67)" fill="#225cff" opacity=".3"/><rect width="84.214" height="8.865" rx="4.432" transform="translate(21.275 146.267)" fill="#225cff"/><rect width="45.21" height="8.865" rx="4.432" transform="translate(21.275 178.18)" fill="#225cff" opacity=".3"/><rect width="45.21" height="8.865" rx="4.432" transform="translate(94.852 178.18)" fill="#225cff" opacity=".3"/><rect width="45.21" height="8.865" rx="4.432" transform="translate(174.634 178.18)" fill="#225cff" opacity=".3"/><rect width="84.214" height="9.456" rx="4.728" transform="translate(183.499 93.67)" fill="#225cff" opacity=".3"/></g><g transform="translate(1000.344 456.925)"><g transform="translate(-519.84 -455.11)" filter="url(#c)"><rect width="322.157" height="386.589" rx="8" transform="translate(519.84 455.11)" fill="#fff"/></g><path d="M22.091 127.482h277.976m-277.976 81h277.976M22.091 289.481h277.976" fill="none" stroke="#e6ebf0" stroke-linecap="square" stroke-miterlimit="10"/><text transform="translate(22.091 94.138)" fill="#42505c" font-size="17" font-family="AktivGrotesk-Regular, Aktiv Grotesk"><tspan x="0" y="0">1.</tspan></text><text transform="translate(22.091 175.138)" fill="#42505c" font-size="17" font-family="AktivGrotesk-Regular, Aktiv Grotesk"><tspan x="0" y="0">2.</tspan></text><text transform="translate(22.091 337.137)" fill="#42505c" font-size="17" font-family="AktivGrotesk-Regular, Aktiv Grotesk"><tspan x="0" y="0">4.</tspan></text><text transform="translate(22.091 256.137)" fill="#42505c" font-size="17" font-family="AktivGrotesk-Regular, Aktiv Grotesk"><tspan x="0" y="0">3.</tspan></text><circle cx="22.091" cy="22.091" r="22.091" fill="#225cff" transform="translate(47.863 65.352)"/><circle cx="22.091" cy="22.091" r="22.091" fill="#6a91ff" transform="translate(47.863 146.351)"/><circle cx="22.091" cy="22.091" r="22.091" fill="#d8e2ff" transform="translate(47.863 227.351)"/><circle cx="22.091" cy="22.091" r="22.091" fill="#ebf1ff" transform="translate(47.863 308.35)"/><rect width="98.488" height="12.886" rx="6.443" transform="translate(21.17 23.932)" fill="#b9c0e9"/><rect width="98.488" height="9.204" rx="4.602" transform="translate(115.977 69.954)" fill="#b9c0e9"/><rect width="98.488" height="9.204" rx="4.602" transform="translate(115.977 153.715)" fill="#225cff"/><rect width="98.488" height="9.204" rx="4.602" transform="translate(115.977 234.714)" fill="#225cff"/><rect width="98.488" height="9.204" rx="4.602" transform="translate(115.977 316.634)" fill="#225cff"/><rect width="59.829" height="9.204" rx="4.602" transform="translate(115.977 88.363)" fill="#225cff" opacity=".47"/><rect width="59.829" height="9.204" rx="4.602" transform="translate(115.977 172.124)" fill="#225cff" opacity=".47"/><rect width="59.829" height="9.204" rx="4.602" transform="translate(115.977 253.123)" fill="#225cff" opacity=".47"/><rect width="59.829" height="9.204" rx="4.602" transform="translate(115.977 335.043)" fill="#225cff" opacity=".47"/><rect width="35.898" height="9.204" rx="4.602" transform="translate(224.59 25.773)" fill="#b9c0e9" opacity=".49"/><rect width="35.898" height="9.204" rx="4.602" transform="translate(268.771 25.773)" fill="#225cff"/></g><g transform="rotate(4 -4031.48 10122.623)"><g transform="translate(-236.48 -288.27)" filter="url(#d)"><rect width="582.212" height="197.793" rx="8" transform="rotate(4 -4245.813 3241.887)" fill="#fff"/></g><rect width="94.111" height="25.522" rx="12.761" fill="#225cff" opacity=".3" transform="translate(19.141 118.037)"/><g transform="translate(171.337 25.522)"><path fill="#f6f8fa" d="M32.836 0h23.927v127.608H32.836zm119.632 0h23.927v127.608h-23.927zm119.633 0h23.927v127.608h-23.927zM92.652 0h23.927v127.608H92.652zm119.633 0h23.927v127.608h-23.927zM331.12 0h23.927v127.608H331.12zM63.143 0H87.07v127.608H63.143zm118.835 0h23.927v127.608h-23.927zM301.61 0h23.927v127.608H301.61zM122.959 0h23.927v127.608h-23.927zm118.835 0h23.927v127.608h-23.927zm119.632 0h23.927v127.608h-23.927z"/><path d="M330.186 94.909H0V52.128l31.126-40.836 30.512 18.889 28.29-18.331 29.757 80.415 30.251-85 29.1 46.952 31.959-31.33 28.55 11.984 28.789-23.021 31.079 11.04L330.186 0" transform="translate(44.001 31.902)" opacity=".2" fill="url(#e)"/><path d="M44.799 84.895l30.667-42.074 30.446 20.248L134.77 43.8l29.4 80.621 30.311-85.555 29.29 48.373 31.795-32.272 28.49 12.847L313.117 43.8l31.07 11.169 30-22.269" fill="none" stroke="#225cff" stroke-linecap="round" stroke-miterlimit="10" stroke-width="1.65"/><circle cx="3.589" cy="3.589" r="3.589" transform="translate(190.751 34.295)" fill="#fff" stroke="#4360df" stroke-miterlimit="10" stroke-width="1.65"/><text transform="translate(44.621 140.191)" fill="#79828b" font-size="7" font-family="Poppins-Regular, Poppins"><tspan x="-6.685" y="0">Mar</tspan></text><text transform="translate(16.731 111.479)" fill="#79828b" font-size="7" font-family="Poppins-Regular, Poppins"><tspan x="-15.386" y="0">$100</tspan></text><text transform="translate(16.731 80.375)" fill="#79828b" font-size="7" font-family="Poppins-Regular, Poppins"><tspan x="-15.386" y="0">$150</tspan></text><text transform="translate(17 50.068)" fill="#79828b" font-size="7" font-family="Poppins-Regular, Poppins"><tspan x="-17.171" y="0">$200</tspan></text><text transform="translate(17 18.963)" fill="#79828b" font-size="7" font-family="Poppins-Regular, Poppins"><tspan x="-17.171" y="0">$250</tspan></text><text transform="translate(103.241 140.191)" fill="#79828b" font-size="7" font-family="Poppins-Regular, Poppins"><tspan x="-7.35" y="0">May</tspan></text><text transform="translate(162.051 139.191)" fill="#79828b" font-size="6" font-family="Poppins-Regular, Poppins"><tspan x="-4.248" y="0">Jul</tspan></text><text transform="translate(221.475 139.191)" fill="#79828b" font-size="6" font-family="Poppins-Regular, Poppins"><tspan x="-5.649" y="0">Sep</tspan></text><text transform="translate(340.709 140.191)" fill="#79828b" font-size="7" font-family="Poppins-Regular, Poppins"><tspan x="-6.461" y="0">Jan</tspan></text><text transform="translate(283.089 140.191)" fill="#79828b" font-size="7" font-family="Poppins-Regular, Poppins"><tspan x="-6.664" y="0">Nov</tspan></text><g transform="translate(-407.82 -313.8)" filter="url(#f)"><g transform="rotate(4 -4849.584 8091.34)" fill="#fff" stroke="#6271d2" stroke-miterlimit="10" stroke-width="1.1"><rect width="51.841" height="24.724" rx="12.362" stroke="none"/><rect x=".55" y=".55" width="50.741" height="23.624" rx="11.812" fill="none"/></g></g><text transform="translate(191.591 21.435)" fill="#42505c" font-size="11" font-family="Poppins-Medium, Poppins" font-weight="500" letter-spacing=".042em"><tspan x="-14.141" y="0">$226</tspan></text></g><rect width="110.86" height="11.166" rx="5.583" transform="translate(19.939 22.331)" fill="#225cff"/><rect width="112.455" height="11.166" rx="5.583" transform="translate(19.939 62.209)" fill="#225cff" opacity=".3"/><rect width="35.89" height="11.166" rx="5.583" transform="translate(19.939 84.54)" fill="#225cff" opacity=".3"/><rect width="75.767" height="7.178" rx="3.589" transform="translate(19.939 157.915)" fill="#225cff" opacity=".3"/><rect width="65.399" height="7.178" rx="3.589" transform="translate(33.7 127.259)" fill="#fff" opacity=".44"/></g><g transform="translate(846.211 158.979)"><g transform="translate(-365.71 -157.17)" filter="url(#g)"><rect width="306.281" height="245.025" rx="8" transform="translate(365.71 157.17)" fill="#fff"/></g><circle cx="21.002" cy="21.002" r="21.002" transform="translate(21.002 21.002)" fill="#225cff" opacity=".79"/><path d="M21.002 178.08h264.277" fill="none" stroke="#e6ebf0" stroke-linecap="square" stroke-miterlimit="10"/><rect width="82.258" height="9.626" rx="4.813" transform="translate(79.633 28.003)" fill="#225cff"/><rect width="54.255" height="9.626" rx="4.813" transform="translate(79.633 44.629)" fill="#225cff" opacity=".3"/><rect width="256.401" height="9.626" rx="4.813" transform="translate(21.002 96.26)" fill="#225cff" opacity=".2"/><rect width="198.645" height="9.626" rx="4.813" transform="translate(21.002 114.637)" fill="#225cff" opacity=".2"/><rect width="152.265" height="9.626" rx="4.813" transform="translate(21.002 133.013)" fill="#225cff" opacity=".2"/><g transform="translate(230.148 31.503)"><rect width="55.131" height="21.002" rx="10.501" fill="#225cff" opacity=".3"/><rect width="25.842" height="3.5" rx="1.75" transform="translate(14.644 8.751)" fill="#fff" opacity=".3"/></g><g transform="translate(21.002 201.27)"><rect width="55.131" height="21.002" rx="10.501" fill="#225cff"/><rect width="25.842" height="3.5" rx="1.75" transform="translate(14.644 8.751)" fill="#fff" opacity=".3"/></g><g transform="translate(126.012 201.27)"><rect width="55.131" height="21.002" rx="10.501" fill="#225cff"/><rect width="25.842" height="3.5" rx="1.75" transform="translate(14.644 8.751)" fill="#fff" opacity=".3"/></g><g transform="translate(230.148 201.27)"><rect width="55.131" height="21.002" rx="10.501" fill="#225cff"/><rect width="25.842" height="3.5" rx="1.75" transform="translate(14.644 8.751)" fill="#fff" opacity=".3"/></g></g></g></svg>