<svg xmlns="http://www.w3.org/2000/svg" xmlns:xlink="http://www.w3.org/1999/xlink" width="960" height="1080" viewBox="0 0 960 1080"><defs><clipPath id="a"><rect width="960" height="1080" transform="translate(480.5 1.812)" fill="none"/></clipPath><filter id="b" x="100.066" y="420.715" width="651.022" height="588.966" filterUnits="userSpaceOnUse"><feOffset dy="100" input="SourceAlpha"/><feGaussianBlur stdDeviation="49.5" result="c"/><feFlood flood-color="#1f485d" flood-opacity="0.2"/><feComposite operator="in" in2="c"/><feComposite in="SourceGraphic"/></filter><filter id="d" x="371.344" y="406.613" width="619.157" height="683.589" filterUnits="userSpaceOnUse"><feOffset dy="100" input="SourceAlpha"/><feGaussianBlur stdDeviation="49.5" result="e"/><feFlood flood-color="#1f485d" flood-opacity="0.259"/><feComposite operator="in" in2="e"/><feComposite in="SourceGraphic"/></filter><clipPath id="f"><circle cx="22.091" cy="22.091" r="22.091" fill="#bcd0e7"/></clipPath><clipPath id="g"><circle cx="22.091" cy="22.091" r="22.091" fill="#6a91ff"/></clipPath><clipPath id="h"><circle cx="22.091" cy="22.091" r="22.091" fill="#d8e2ff"/></clipPath><clipPath id="i"><circle cx="22.091" cy="22.091" r="22.091" fill="#ebf1ff"/></clipPath><filter id="j" x="53.501" y="255.568" width="891.591" height="534.924" filterUnits="userSpaceOnUse"><feOffset dy="100" input="SourceAlpha"/><feGaussianBlur stdDeviation="49.5" result="k"/><feFlood flood-color="#1f485d" flood-opacity="0.2"/><feComposite operator="in" in2="k"/><feComposite in="SourceGraphic"/></filter><linearGradient id="l" x1="0.5" y1="1" x2="0.5" gradientUnits="objectBoundingBox"><stop offset="0" stop-color="#fff" stop-opacity="0"/><stop offset="1" stop-color="#ff5353"/></linearGradient><filter id="m" x="546.388" y="354.501" width="62.439" height="37.28" filterUnits="userSpaceOnUse"><feOffset dy="1" input="SourceAlpha"/><feGaussianBlur stdDeviation="1.5" result="n"/><feFlood flood-opacity="0.149"/><feComposite operator="in" in2="n"/><feComposite in="SourceGraphic"/></filter><filter id="o" x="217.211" y="58.667" width="603.281" height="542.025" filterUnits="userSpaceOnUse"><feOffset dy="50" input="SourceAlpha"/><feGaussianBlur stdDeviation="49.5" result="p"/><feFlood flood-color="#1f305d" flood-opacity="0.259"/><feComposite operator="in" in2="p"/><feComposite in="SourceGraphic"/></filter></defs><g transform="translate(-9884 -1546)"><rect width="960" height="1080" transform="translate(9884 1546)" fill="#225cff"/><g transform="translate(9403.5 1544.188)"><g clip-path="url(#a)"><g transform="translate(753.5 -2576.188)"><g transform="translate(358.155 2445.466) rotate(48)" fill="none" opacity="0.1"><path d="M441.957,22.162a16,16,0,0,1,27.258,0L896.178,716.44a16,16,0,0,1-13.629,24.381H28.623A16,16,0,0,1,14.994,716.44Z" stroke="none"/><path d="M 455.5860290527344 66.81390380859375 L 62.61285400390625 705.8217163085938 L 848.55908203125 705.8217163085938 L 455.5860290527344 66.81390380859375 M 455.5860290527344 14.54351806640625 C 460.8388366699219 14.54351806640625 466.0916442871094 17.0830078125 469.2150573730469 22.1619873046875 L 896.1780395507812 716.4403076171875 C 902.7340698242188 727.1008911132812 895.0640869140625 740.8217163085938 882.549072265625 740.8217163085938 L 28.623046875 740.8217163085938 C 16.1080322265625 740.8217163085938 8.43804931640625 727.1008911132812 14.993896484375 716.4403076171875 L 441.9569091796875 22.1619873046875 C 445.0804138183594 17.0830078125 450.333251953125 14.54351806640625 455.5860290527344 14.54351806640625 Z" stroke="none" fill="#fff"/></g></g><g transform="translate(648.805 579.441) rotate(-50)" fill="none" stroke="#fff" stroke-width="12"><rect width="67" height="67" rx="8" stroke="none"/><rect x="6" y="6" width="55" height="55" rx="2" fill="none"/></g><g transform="translate(545.5 729.813)" fill="none" stroke="#fff" stroke-width="11"><circle cx="21.5" cy="21.5" r="21.5" stroke="none"/><circle cx="21.5" cy="21.5" r="16" fill="none"/></g><g transform="translate(-270.021 -3566.621)"><g transform="matrix(0.966, -0.259, 0.259, 0.966, 999.088, 4117.262)"><g transform="matrix(0.97, 0.26, -0.26, 0.97, -98.05, -594.46)" filter="url(#b)"><rect width="307.604" height="219.844" rx="8" transform="matrix(0.97, -0.26, 0.26, 0.97, 248.57, 548.83)" fill="#fff"/></g><path d="M0,0,265.053,0" transform="translate(21.275 122.775)" fill="none" stroke="#e6ebf0" stroke-linecap="square" stroke-miterlimit="10" stroke-width="1"/><text transform="translate(21.275 32.05)" fill="#79828b" font-size="10" font-family="Poppins-Medium, Poppins" font-weight="500" letter-spacing="0.107em"><tspan x="0" y="0">CAMPAIGNS</tspan></text><text transform="translate(183.499 32.05)" fill="#79828b" font-size="10" font-family="Poppins-Medium, Poppins" font-weight="500"><tspan x="0" y="0" letter-spacing="0.107em">PROJECT</tspan><tspan y="0">S</tspan></text><g transform="translate(21.275 52.302)"><circle cx="14.183" cy="14.183" r="14.183" fill="#b9b9b9" opacity="0.5"/><path d="M7.092,11.761,2.709,14.183l.837-5.132L0,5.418l4.9-.749L7.092,0,9.283,4.669l4.9.749L10.638,9.052l.837,5.132Z" transform="translate(7.092 7.092)" fill="#fff"/></g><g transform="translate(183.499 52.302)"><circle cx="14.183" cy="14.183" r="14.183" fill="#b9b9b9" opacity="0.5"/><path d="M11.379,11.524h0L10.1,10.2l4.182-4.434L10.1,1.351,11.379,0l5.463,5.762L11.38,11.523Zm-5.916,0h0L0,5.762,5.463,0,6.744,1.351,2.561,5.762,6.744,10.2l-1.28,1.327Z" transform="translate(6.205 8.865)" fill="#fff"/></g><rect width="93.079" height="12.411" rx="6.205" transform="translate(58.507 60.28)" fill="#225cff"/><rect width="64.712" height="12.411" rx="6.205" transform="translate(220.73 60.28)" fill="#225cff"/><rect width="84.214" height="9.456" rx="4.728" transform="translate(21.275 93.67)" fill="#225cff" opacity="0.3"/><rect width="84.214" height="8.865" rx="4.432" transform="translate(21.275 146.267)" fill="#225cff"/><rect width="45.21" height="8.865" rx="4.432" transform="translate(21.275 178.18)" fill="#225cff" opacity="0.3"/><rect width="45.21" height="8.865" rx="4.432" transform="translate(94.852 178.18)" fill="#225cff" opacity="0.3"/><rect width="45.21" height="8.865" rx="4.432" transform="translate(174.634 178.18)" fill="#225cff" opacity="0.3"/><rect width="84.214" height="9.456" rx="4.728" transform="translate(183.499 93.67)" fill="#225cff" opacity="0.3"/></g><g transform="translate(1270.365 4023.546)"><g transform="matrix(1, 0, 0, 1, -519.84, -455.11)" filter="url(#d)"><rect width="322.157" height="386.589" rx="8" transform="translate(519.84 455.11)" fill="#fff"/></g><path d="M0,.5,277.976.5" transform="translate(22.091 126.982)" fill="none" stroke="#e6ebf0" stroke-linecap="square" stroke-miterlimit="10" stroke-width="1"/><path d="M0,.5,277.976.5" transform="translate(22.091 207.982)" fill="none" stroke="#e6ebf0" stroke-linecap="square" stroke-miterlimit="10" stroke-width="1"/><path d="M0,.5,277.976.5" transform="translate(22.091 288.981)" fill="none" stroke="#e6ebf0" stroke-linecap="square" stroke-miterlimit="10" stroke-width="1"/><text transform="translate(22.091 94.138)" fill="#42505c" font-size="17" font-family="AktivGrotesk-Regular, Aktiv Grotesk"><tspan x="0" y="0">1.</tspan></text><text transform="translate(22.091 175.138)" fill="#42505c" font-size="17" font-family="AktivGrotesk-Regular, Aktiv Grotesk"><tspan x="0" y="0">2.</tspan></text><text transform="translate(22.091 337.137)" fill="#42505c" font-size="17" font-family="AktivGrotesk-Regular, Aktiv Grotesk"><tspan x="0" y="0">4.</tspan></text><text transform="translate(22.091 256.137)" fill="#42505c" font-size="17" font-family="AktivGrotesk-Regular, Aktiv Grotesk"><tspan x="0" y="0">3.</tspan></text><g transform="translate(47.863 65.352)"><circle cx="22.091" cy="22.091" r="22.091" fill="#225cff"/></g><g transform="translate(47.863 146.351)"><circle cx="22.091" cy="22.091" r="22.091" fill="#6a91ff"/></g><g transform="translate(47.863 227.351)"><circle cx="22.091" cy="22.091" r="22.091" fill="#d8e2ff"/></g><g transform="translate(47.863 308.35)"><circle cx="22.091" cy="22.091" r="22.091" fill="#ebf1ff"/></g><rect width="98.488" height="12.886" rx="6.443" transform="translate(21.17 23.932)" fill="#b9c0e9"/><rect width="98.488" height="9.204" rx="4.602" transform="translate(115.977 69.954)" fill="#b9c0e9"/><rect width="98.488" height="9.204" rx="4.602" transform="translate(115.977 153.715)" fill="#225cff"/><rect width="98.488" height="9.204" rx="4.602" transform="translate(115.977 234.714)" fill="#225cff"/><rect width="98.488" height="9.204" rx="4.602" transform="translate(115.977 316.634)" fill="#225cff"/><rect width="59.829" height="9.204" rx="4.602" transform="translate(115.977 88.363)" fill="#225cff" opacity="0.47"/><rect width="59.829" height="9.204" rx="4.602" transform="translate(115.977 172.124)" fill="#225cff" opacity="0.47"/><rect width="59.829" height="9.204" rx="4.602" transform="translate(115.977 253.123)" fill="#225cff" opacity="0.47"/><rect width="59.829" height="9.204" rx="4.602" transform="translate(115.977 335.043)" fill="#225cff" opacity="0.47"/><rect width="35.898" height="9.204" rx="4.602" transform="translate(224.59 25.773)" fill="#b9c0e9" opacity="0.49"/><rect width="35.898" height="9.204" rx="4.602" transform="translate(268.771 25.773)" fill="#225cff"/></g><g transform="translate(966.319 3872.501) rotate(4)"><g transform="translate(0 0)"><g transform="matrix(1, -0.07, 0.07, 1, -236.48, -288.27)" filter="url(#j)"><rect width="582.212" height="197.793" rx="8" transform="translate(215.8 304.07) rotate(4)" fill="#fff"/></g><g transform="translate(19.141 118.037)"><rect width="94.111" height="25.522" rx="12.761" fill="#225cff" opacity="0.3"/></g><g transform="translate(171.337 25.522)"><rect width="23.927" height="127.608" transform="translate(32.836 0)" fill="#f6f8fa"/><rect width="23.927" height="127.608" transform="translate(152.468 0)" fill="#f6f8fa"/><rect width="23.927" height="127.608" transform="translate(272.101 0)" fill="#f6f8fa"/><rect width="23.927" height="127.608" transform="translate(92.652 0)" fill="#f6f8fa"/><rect width="23.927" height="127.608" transform="translate(212.285 0)" fill="#f6f8fa"/><rect width="23.927" height="127.608" transform="translate(331.12 0)" fill="#f6f8fa"/><rect width="23.927" height="127.608" transform="translate(63.143 0)" fill="#f6f8fa"/><rect width="23.927" height="127.608" transform="translate(181.978 0)" fill="#f6f8fa"/><rect width="23.927" height="127.608" transform="translate(301.61 0)" fill="#f6f8fa"/><rect width="23.927" height="127.608" transform="translate(122.959 0)" fill="#f6f8fa"/><rect width="23.927" height="127.608" transform="translate(241.794 0)" fill="#f6f8fa"/><rect width="23.927" height="127.608" transform="translate(361.426 0)" fill="#f6f8fa"/><path d="M330.186,94.909H0V52.128L31.126,11.292,61.638,30.181,89.928,11.85l29.757,80.415,30.251-85,29.1,46.952,31.959-31.33,28.55,11.984L268.334,11.85l31.079,11.04L330.186,0" transform="translate(44.001 31.902)" opacity="0.2" fill="url(#l)"/><path d="M0,52.195,30.667,10.121,61.113,30.369,89.971,11.1l29.4,80.621L149.682,6.166l29.29,48.373,31.795-32.272,28.49,12.847L268.318,11.1l31.07,11.169L329.388,0" transform="translate(44.799 32.7)" fill="none" stroke="#225cff" stroke-linecap="round" stroke-miterlimit="10" stroke-width="1.65"/><circle cx="3.589" cy="3.589" r="3.589" transform="translate(190.751 34.295)" fill="#fff" stroke="#4360df" stroke-miterlimit="10" stroke-width="1.65"/><text transform="translate(44.621 140.191)" fill="#79828b" font-size="7" font-family="Poppins-Regular, Poppins"><tspan x="-6.685" y="0">Mar</tspan></text><text transform="translate(16.731 111.479)" fill="#79828b" font-size="7" font-family="Poppins-Regular, Poppins"><tspan x="-15.386" y="0">$100</tspan></text><text transform="translate(16.731 80.375)" fill="#79828b" font-size="7" font-family="Poppins-Regular, Poppins"><tspan x="-15.386" y="0">$150</tspan></text><text transform="translate(17 50.068)" fill="#79828b" font-size="7" font-family="Poppins-Regular, Poppins"><tspan x="-17.171" y="0">$200</tspan></text><text transform="translate(17 18.963)" fill="#79828b" font-size="7" font-family="Poppins-Regular, Poppins"><tspan x="-17.171" y="0">$250</tspan></text><text transform="translate(103.241 140.191)" fill="#79828b" font-size="7" font-family="Poppins-Regular, Poppins"><tspan x="-7.35" y="0">May</tspan></text><text transform="translate(162.051 139.191)" fill="#79828b" font-size="6" font-family="Poppins-Regular, Poppins"><tspan x="-4.248" y="0">Jul</tspan></text><text transform="translate(221.475 139.191)" fill="#79828b" font-size="6" font-family="Poppins-Regular, Poppins"><tspan x="-5.649" y="0">Sep</tspan></text><text transform="translate(340.709 140.191)" fill="#79828b" font-size="7" font-family="Poppins-Regular, Poppins"><tspan x="-6.461" y="0">Jan</tspan></text><text transform="translate(283.089 140.191)" fill="#79828b" font-size="7" font-family="Poppins-Regular, Poppins"><tspan x="-6.664" y="0">Nov</tspan></text><g transform="matrix(1, -0.07, 0.07, 1, -407.82, -313.8)" filter="url(#m)"><g transform="translate(552.61 358) rotate(4)" fill="#fff" stroke="#6271d2" stroke-miterlimit="10" stroke-width="1.1"><rect width="51.841" height="24.724" rx="12.362" stroke="none"/><rect x="0.55" y="0.55" width="50.741" height="23.624" rx="11.812" fill="none"/></g></g><text transform="translate(191.591 21.435)" fill="#42505c" font-size="11" font-family="Poppins-Medium, Poppins" font-weight="500" letter-spacing="0.042em"><tspan x="-14.141" y="0">$226</tspan></text></g></g><rect width="110.86" height="11.166" rx="5.583" transform="translate(19.939 22.331)" fill="#225cff"/><rect width="112.455" height="11.166" rx="5.583" transform="translate(19.939 62.209)" fill="#225cff" opacity="0.3"/><rect width="35.89" height="11.166" rx="5.583" transform="translate(19.939 84.54)" fill="#225cff" opacity="0.3"/><rect width="75.767" height="7.178" rx="3.589" transform="translate(19.939 157.915)" fill="#225cff" opacity="0.3"/><rect width="65.399" height="7.178" rx="3.589" transform="translate(33.7 127.259)" fill="#fff" opacity="0.44"/></g><g transform="translate(1116.232 3725.6)"><g transform="matrix(1, 0, 0, 1, -365.71, -157.17)" filter="url(#o)"><rect width="306.281" height="245.025" rx="8" transform="translate(365.71 157.17)" fill="#fff"/></g><circle cx="21.002" cy="21.002" r="21.002" transform="translate(21.002 21.002)" fill="#225cff" opacity="0.79"/><path d="M0,.5H264.277" transform="translate(21.002 177.58)" fill="none" stroke="#e6ebf0" stroke-linecap="square" stroke-miterlimit="10" stroke-width="1"/><rect width="82.258" height="9.626" rx="4.813" transform="translate(79.633 28.003)" fill="#225cff"/><rect width="54.255" height="9.626" rx="4.813" transform="translate(79.633 44.629)" fill="#225cff" opacity="0.3"/><rect width="256.401" height="9.626" rx="4.813" transform="translate(21.002 96.26)" fill="#225cff" opacity="0.2"/><rect width="198.645" height="9.626" rx="4.813" transform="translate(21.002 114.637)" fill="#225cff" opacity="0.2"/><rect width="152.265" height="9.626" rx="4.813" transform="translate(21.002 133.013)" fill="#225cff" opacity="0.2"/><g transform="translate(230.148 31.503)"><rect width="55.131" height="21.002" rx="10.501" fill="#225cff" opacity="0.3"/><rect width="25.842" height="3.5" rx="1.75" transform="translate(14.644 8.751)" fill="#fff" opacity="0.3"/></g><g transform="translate(21.002 201.27)"><rect width="55.131" height="21.002" rx="10.501" transform="translate(0 0)" fill="#225cff"/><rect width="25.842" height="3.5" rx="1.75" transform="translate(14.644 8.751)" fill="#fff" opacity="0.3"/></g><g transform="translate(126.012 201.27)"><rect width="55.131" height="21.002" rx="10.501" transform="translate(0 0)" fill="#225cff"/><rect width="25.842" height="3.5" rx="1.75" transform="translate(14.644 8.751)" fill="#fff" opacity="0.3"/></g><g transform="translate(230.148 201.27)"><rect width="55.131" height="21.002" rx="10.501" transform="translate(0 0)" fill="#225cff"/><rect width="25.842" height="3.5" rx="1.75" transform="translate(14.644 8.751)" fill="#fff" opacity="0.3"/></g></g></g></g></g></g></svg>