<svg xmlns="http://www.w3.org/2000/svg" width="960" height="1080"><style><![CDATA[.B{fill:url(#A)}.C{opacity:.3}]]></style><defs><linearGradient id="A" x1=".5" x2=".5" y2="1"><stop offset="0" stop-color="#fff" stop-opacity=".114"/><stop offset="1" stop-color="#fff" stop-opacity=".204"/></linearGradient><clipPath id="B"><path d="M0 0h948.23v948.224H0z" class="B"/></clipPath></defs><path fill="#e74c3c" d="M0 0h960v1080H0z"/><g transform="translate(6)" clip-path="url(#B)" class="B"><g opacity=".8"><path d="M233.67 777.49c-.2.001-.416-.05-.6-.15l-58.72-32.543c-.42-.23-.668-.68-.64-1.155s.33-.893.77-1.07l74.447-30.42c.43-.176.924-.095 1.276.21s.503.78.4 1.233l-15.725 62.962a1.24 1.24 0 0 1-1.2.935zm-55.87-33.61l55.063 30.515 14.747-59.037z"/><path d="M174.947 744.952c-.5 0-.934-.3-1.13-.74s-.1-.972.222-1.332l90.042-97.823c.38-.412.988-.516 1.483-.255s.752.823.627 1.368l-15.6 67.4c-.088.393-.364.717-.738.866l-74.448 30.42c-.147.064-.306.097-.467.096zm87.784-94.784l-83.13 90.31 68.737-28.085z"/><path d="M249.4 714.53c-.168.001-.333-.033-.487-.1-.55-.236-.853-.832-.718-1.416l15.593-67.4a1.22 1.22 0 0 1 .339-.609l79.605-77.307c.452-.44 1.162-.47 1.648-.067s.592 1.105.245 1.63l-95.2 144.714a1.23 1.23 0 0 1-1.025.554zm16.71-68.006l-13.953 60.334 85.214-129.532z"/><path d="M249.4 714.528c-.454.001-.872-.248-1.088-.648s-.195-.886.054-1.265l95.2-144.71a1.26 1.26 0 0 1 1.218-.543l196.195 30c.55.084.977.528 1.04 1.083s-.257 1.08-.776 1.284L249.85 714.443a1.2 1.2 0 0 1-.451.085zm95.788-144.6L252.57 710.72l283.5-111.608z"/><path d="M540.8 599.82a1.2 1.2 0 0 1-.188-.016l-196.195-30a1.23 1.23 0 0 1-1-1.567l20.015-67.617a1.23 1.23 0 0 1 .711-.794c.348-.14.74-.118 1.07.063l175.992 97.5c.595.176.968.765.872 1.377s-.63 1.06-1.25 1.046zm-194.61-32.24l187.973 28.74-168.8-93.525z"/><path d="M84.19 889.435a1.23 1.23 0 0 1-1.044-1.89l90.757-144.487a1.23 1.23 0 0 1 1.643-.421l58.724 32.54c.366.203.604.578.632.995s-.156.82-.5 1.073L84.93 889.192c-.215.158-.474.243-.74.243zm91.182-144.072L88.77 883.23l142.635-106.817z"/><path d="M177.482 1031.23c-.416-.002-.804-.2-1.034-.557L83.156 888.88c-.36-.545-.23-1.276.293-1.666l149.49-111.945c.412-.31.974-.33 1.406-.05s.65.8.54 1.307l-56.197 253.737c-.11.484-.496.856-.984.945a1 1 0 0 1-.221.023zM85.86 888.493l91.046 138.386 54.84-247.636z"/><path d="M177.482 1031.23c-.264 0-.52-.084-.734-.24a1.23 1.23 0 0 1-.471-1.261l56.19-253.74a1.2 1.2 0 0 1 1.248-.968l368.674 12.367c.552.02 1.024.405 1.155.942s-.11 1.096-.59 1.37l-424.866 241.37c-.185.104-.394.16-.606.16zm57.174-253.708L179.3 1027.55l418.64-237.84z"/><path d="M602.405 789.858c-.02-.002-.04-.002-.06 0h-.043l-368.67-12.367a1.22 1.22 0 0 1-.945-.491 1.24 1.24 0 0 1-.211-1.04l15.725-62.962a1.24 1.24 0 0 1 1.455-.912l352.83 75.305c.67.038 1.187.603 1.164 1.273s-.576 1.2-1.246 1.193zm-367.163-14.784l353.216 11.85-338.15-72.17z"/><path d="M602.345 789.857a1.33 1.33 0 0 1-.257-.026l-352.946-75.33c-.532-.115-.926-.564-.97-1.107s.27-1.05.776-1.25l291.387-114.713c.318-.122.672-.11.98.036a1.23 1.23 0 0 1 .645.731l61.447 189.706a1.22 1.22 0 0 1 .23.718c.022.34-.106.67-.348.908s-.577.357-.916.327zm-348.68-76.916l346.842 74.03-60.492-186.756z"/><path d="M602.345 789.857a1.23 1.23 0 0 1-1.146-1.7l82.2-204c.205-.497.704-.81 1.24-.774.536.043.983.427 1.106.95l46.272 197.477c.084.357.005.732-.216 1.025s-.56.472-.926.49l-128.47 6.525zm81.887-201.153l-80.02 198.59 125.06-6.358z"/><path d="M602.346 789.858h-.046c-.518-.02-.97-.36-1.13-.853l-61.56-190.04c-.113-.356-.06-.744.145-1.057a1.22 1.22 0 0 1 .915-.55l143.756-13.963a1.21 1.21 0 0 1 1.11.491 1.23 1.23 0 0 1 .151 1.2l-82.2 204c-.188.466-.64.77-1.142.773zm-59.9-190.193l60.035 185.343 80.172-198.96z"/><path d="M177.482 1031.23c-.56 0-1.05-.377-1.194-.918s.095-1.112.582-1.4L601.733 787.55c.448-.25 1.004-.202 1.4.125l202.9 169.533c.38.316.533.828.39 1.3s-.55.816-1.04.873l-627.764 71.842c-.046.006-.092.01-.138.01zM602.2 790.117L183.35 1028.08l618.892-70.828z"/><path d="M805.24 959.4c-.29-.001-.57-.104-.8-.3l-202.9-169.533c-.39-.324-.543-.855-.383-1.337s.6-.817 1.107-.843l128.473-6.528c.52-.035 1.004.268 1.2.75l74.3 175.742c.188.224.292.507.293.8.022.34-.106.67-.348.908s-.577.357-.916.327zM605.556 789.696L802.118 953.93 730 783.37z"/><path d="M882.977 962.1h-.026l-77.752-2.7c-.48-.02-.906-.315-1.093-.757l-74.43-176.062c-.236-.56-.027-1.2.492-1.53s1.192-.212 1.586.252l152.16 178.77c.312.366.382.88.18 1.317s-.638.717-1.12.718zm-76.9-5.153l74.146 2.588-145.147-170.527z"/><path d="M174.947 744.952a1.26 1.26 0 0 1-.665-.194c-.504-.323-.703-.96-.474-1.514l61.75-149.663c.182-.44.6-.735 1.073-.76s.92.224 1.15.64l28.292 51.84a1.23 1.23 0 0 1-.178 1.429l-90.038 97.822a1.24 1.24 0 0 1-.909.399zm61.905-148.037l-58.12 140.866 84.748-92.074z"/><path d="M265 647.128a1.2 1.2 0 0 1-.188-.016c-.382-.058-.715-.3-.9-.63l-28.292-51.84c-.183-.34-.2-.746-.043-1.1s.47-.6.843-.7l107.9-25.467c.54-.127 1.1.122 1.365.61s.175 1.092-.223 1.478l-79.603 77.313a1.23 1.23 0 0 1-.859.352zm-26.43-52.247l26.735 48.99 75.23-73.06z"/><path d="M236.698 595.29c-.536 0-1.01-.345-1.176-.855s.017-1.068.452-1.38l127.906-93.088a1.24 1.24 0 0 1 1.439-.007c.434.304.624.853.47 1.36l-20.013 67.618a1.23 1.23 0 0 1-.9.849l-107.9 25.467c-.09.023-.185.036-.28.037zm125.7-91.187l-120 87.34 101.23-23.9z"/><path d="M540.786 599.817a1.25 1.25 0 0 1-.6-.155l-176.18-97.616a1.23 1.23 0 0 1-.635-1.11c.012-.46.277-.875.688-1.08l170.345-84.14c.376-.186.82-.17 1.182.046s.583.602.6 1.02l5.838 181.754c.01.335-.117.66-.35.9s-.554.377-.89.38zm-173.52-98.79l172.22 95.42-5.7-177.665z"/><path d="M364.606 502.2c-.37 0-.72-.165-.955-.45s-.33-.66-.257-1.024L384.416 395.3a1.21 1.21 0 0 1 1.38-.978l149.33 21.283c.535.076.96.493 1.044 1.027s-.187 1.062-.672 1.3l-170.345 84.14c-.17.084-.357.128-.547.128zm22-105.27l-20.3 101.816 164.518-81.258z"/><path d="M540.794 599.818c-.3-.001-.59-.112-.817-.3-.257-.225-.41-.547-.418-.89l-5.838-181.754c-.016-.518.294-.992.775-1.184s1.032-.062 1.378.325l149.6 167.794c.31.346.397.837.228 1.27s-.566.733-1.028.78l-143.766 13.965c-.043.005-.082.005-.114.005zm-4.5-179.63l5.683 177.04 140.025-13.6z"/><path d="M534.952 418.065c-.06 0-.117-.004-.175-.013L385.45 396.766c-.628-.09-1.085-.643-1.057-1.277l1.287-28.928c.017-.388.216-.745.537-.965s.725-.275 1.093-.15l147.88 50.16c.64.094 1.1.666 1.054 1.312s-.584 1.146-1.232 1.147a.2.2 0 0 0-.062 0zm-148.046-23.587l135.074 19.254-133.9-45.42z"/><path d="M534.952 418.065c-.136 0-.272-.023-.4-.07L386.52 367.782a1.23 1.23 0 0 1-.138-2.278l113.6-54.612c.32-.156.693-.164 1.02-.023a1.25 1.25 0 0 1 .691.747l34.31 104.487c.277.38.314.884.096 1.3s-.653.673-1.123.662zm-144.773-51.65l142.827 48.45-33.214-101.134z"/><path d="M684.545 585.856a1.23 1.23 0 0 1-.922-.412L534.03 417.65c-.224-.25-.336-.583-.31-.918s.188-.646.447-.86l239.956-196.465a1.23 1.23 0 0 1 1.979 1.248l-90.36 364.267c-.11.443-.457.79-.9.9a1.3 1.3 0 0 1-.299.034zM536.73 416.965l147.18 165.09 88.9-358.385z"/><path d="M534.952 418.065c-.117 0-.234-.018-.346-.053a1.23 1.23 0 0 1-.826-.8L499.354 312.4c-.212-.645.136-1.34.78-1.557l274.38-91.643c.566-.2 1.186.05 1.474.574s.16 1.176-.302 1.553L535.732 417.785a1.24 1.24 0 0 1-.78.28zm-32.87-105.28l33.48 101.948L768.93 223.66z"/><path d="M803.195 1310.287c-.173 0-.343-.038-.5-.11l-625.717-279.056c-.51-.226-.804-.765-.72-1.315s.528-.976 1.08-1.04l627.762-71.838a1.23 1.23 0 0 1 1.373 1.235l-2.048 350.9c-.01.677-.558 1.223-1.235 1.228zm-621.084-279.58l619.857 276.45 2.027-347.62z"/><path d="M177.482 1031.232c-.098-.001-.195-.013-.3-.036l-38.008-9.166a1.23 1.23 0 0 1-.853-.728L83.048 888.678c-.246-.59-.004-1.268.56-1.568s1.262-.12 1.613.412l93.292 141.8c.25.38.272.865.057 1.265s-.634.65-1.088.648zm-37.113-11.458l34.36 8.287L90.396 899.88z"/><path d="M1034.643 572.522a1.23 1.23 0 0 1-.991-.5l-259.74-350.93c-.35-.473-.32-1.127.074-1.565s1.042-.536 1.55-.235l341.492 202.47a1.23 1.23 0 0 1 .451 1.656l-81.752 148.464a1.24 1.24 0 0 1-1 .639zM779.536 224.54l254.956 344.465 80.247-145.728z"/><path d="M684.545 585.856a1.23 1.23 0 0 1-1.2-1.528l90.364-364.265c.114-.465.487-.822.956-.915s.95.092 1.234.477l259.74 350.928c.272.37.318.857.12 1.27s-.61.682-1.067.7l-350.1 13.334zm90.928-362.652L686.14 583.327l346.12-13.183z"/><path d="M838.057 1359.585c-.402.001-.78-.194-1.01-.523l-34.864-49.3c-.306-.434-.3-1.015.013-1.444s.867-.608 1.373-.446l35.865 11.5a1.23 1.23 0 0 1 .856 1.208l-1 37.8c-.018.53-.37.993-.88 1.15a1.21 1.21 0 0 1-.353.056zm-31.723-48.235l30.584 43.253.88-33.165z"/><path d="M839.054 1321.788c-.13.001-.257-.02-.38-.062l-35.86-11.504a1.23 1.23 0 0 1-.836-1.393l48.9-273.35c.112-.64.704-1.085 1.35-1.012s1.126.635 1.095 1.285l-13.04 284.86a1.22 1.22 0 0 1-.527.958c-.207.142-.453.22-.704.22zm-34.456-13.58l33.3 10.677 12.1-264.477z"/><path d="M803.193 1310.288c-.04 0-.076 0-.112-.007-.638-.057-1.127-.594-1.123-1.235l2.048-350.9c.002-.554.372-1.04.905-1.186s1.1.078 1.387.55l46.855 77.547a1.24 1.24 0 0 1 .161.856l-48.906 273.353c-.104.6-.616 1.02-1.215 1.02zm3.256-347.744l-1.94 332.128 46.29-258.73z"/><path d="M852.096 1036.93c-.433-.001-.834-.23-1.057-.6L804.19 958.8c-.237-.387-.24-.873-.01-1.264.243-.377.66-.605 1.1-.606l77.732 2.7c.404.013.775.223.994.562s.26.764.106 1.138l-30.88 74.838a1.24 1.24 0 0 1-1.047.761zm-44.616-77.47l44.41 73.5 29.27-70.933z"/><path d="M1110.794 664.127a1.22 1.22 0 0 1-.948-.448l-76.15-91.6c-.23-.273-.33-.632-.27-.984a1.24 1.24 0 0 1 .566-.853l178.343-111.18c.47-.292 1.076-.237 1.484.135s.52.97.274 1.465l-102.195 202.8c-.188.37-.55.62-.96.668-.047.005-.095.007-.142.006zm-74.3-92.54l74.047 89.067 99.363-197.17z"/><path d="M1034.644 572.525c-.437 0-.84-.23-1.063-.607s-.228-.842-.017-1.224l81.755-148.464c.298-.542.95-.78 1.528-.556l96.59 37.284a1.23 1.23 0 0 1 .207 2.2l-178.35 111.18c-.196.122-.42.187-.652.188zm82.315-148.158l-78.95 143.367 172.23-107.364z"/><path d="M934.312 695.29c-.477-.002-.9-.277-1.114-.708s-.142-.94.16-1.3l100.33-122.767c.232-.287.583-.453.952-.45h0a1.23 1.23 0 0 1 .952.441l76.15 91.606c.28.34.36.8.208 1.214s-.512.714-.945.79l-176.477 31.16c-.07.015-.144.023-.217.025zm100.34-122.065l-97.28 119.04 171.1-30.215z"/><path d="M882.976 962.1c-.363 0-.707-.16-.942-.435l-152.167-178.77c-.253-.3-.35-.7-.26-1.08a1.25 1.25 0 0 1 .711-.856l203.5-88.037a1.24 1.24 0 0 1 1.261.171c.36.286.53.75.438 1.2l-51.33 266.804c-.1.467-.44.84-.9.96a1.16 1.16 0 0 1-.312.043zm-150.14-179.535l149.416 175.54 50.408-261.988z"/><path d="M730.81 783.328c-.573-.002-1.07-.397-1.2-.955l-46.268-197.47a1.23 1.23 0 0 1 1.7-1.409l249.763 109.43c.45.196.74.64.74 1.13s-.29.935-.74 1.13l-203.5 88.04a1.26 1.26 0 0 1-.495.101zm-44.5-196.583l45.367 193.627L931.22 694.05z"/><path d="M934.312 695.29c-.17-.001-.34-.038-.494-.11l-249.77-109.428c-.526-.232-.822-.797-.715-1.36s.59-.98 1.166-1.003l350.1-13.335c.49-.035.95.238 1.152.685a1.24 1.24 0 0 1-.148 1.33L935.27 694.837a1.24 1.24 0 0 1-.958.454zm-244.34-109.64L933.953 692.55l98-119.922z"/></g><g class="C"><path d="M755.33 1627.355c-.353 0-.688-.15-.922-.415l-72.424-81.624c-.308-.35-.395-.84-.224-1.274s.57-.733 1.034-.777l87.665-8.188c.382-.03.758.113 1.02.392a1.24 1.24 0 0 1 .313 1.047l-15.244 89.81a1.24 1.24 0 0 1-.879.981 1.19 1.19 0 0 1-.34.049zm-69.883-81.857l69.1 77.877 14.54-85.69z"/><path d="M755.33 1627.356a1.21 1.21 0 0 1-.487-.1l-165.72-71.268c-.515-.222-.817-.763-.734-1.318s.53-.985 1.086-1.046l93.3-10.358c.4-.045.794.108 1.06.408l72.416 81.627c.322.363.4.882.202 1.325s-.64.728-1.124.73zm-160.94-71.79l156.34 67.232-68.325-77z"/><path d="M589.6 1556.09a1.23 1.23 0 0 1-.55-.132l-134.764-67.13c-.56-.283-.817-.94-.6-1.528s.84-.92 1.45-.772l228.063 56.77c.58.146.972.686.93 1.282s-.502 1.078-1.096 1.145l-93.3 10.355a.99.99 0 0 1-.133.009zm-124.123-64.443l124.347 61.94 86.088-9.558z"/><path d="M682.908 1545.732c-.1.001-.202-.01-.3-.036l-228.062-56.773a1.24 1.24 0 0 1-.915-.968l-49.84-264.638c-.104-.55.174-1.1.678-1.342s1.107-.118 1.472.305l277.9 321.407c.316.365.39.882.2 1.322s-.64.722-1.122.723zm-227-59.01l223.513 55.636-272.356-315z"/><path d="M359.282 1493.754c-.353-.001-.69-.152-.925-.415a1.23 1.23 0 0 1-.29-1.027l45.72-269.43a1.24 1.24 0 0 1 1.205-1.031c.587.027 1.087.437 1.228 1.008l49.838 264.637a1.22 1.22 0 0 1-.244.991 1.21 1.21 0 0 1-.905.468l-95.564 4.794zm45.788-263.657l-44.3 261.113 92.61-4.646z"/><path d="M981.11 1678.546c-.092 0-.183-.01-.273-.03l-225.782-51.194a1.23 1.23 0 0 1-.942-1.412l15.244-89.81a1.23 1.23 0 0 1 .728-.928c.386-.162.827-.12 1.175.112l210.337 140.868c.564.205.9.785.794 1.376s-.62 1.02-1.22 1.018a.39.39 0 0 0-.062-.001zm-224.372-53.374l218.156 49.466-203.422-136.242z"/><path d="M981.11 1678.547a1.21 1.21 0 0 1-.685-.207l-210.537-141c-.43-.286-.638-.81-.517-1.315s.543-.878 1.057-.937l350.088-42.2a1.22 1.22 0 0 1 1.218.609 1.24 1.24 0 0 1-.089 1.363l-139.55 183.2c-.234.307-.598.487-.984.487zm-207.084-141.41l206.807 138.507 137.08-179.95z"/><path d="M770.574 1537.543a1.24 1.24 0 0 1-1.179-.863l-149.978-477.5c-.167-.528.04-1.103.503-1.406s1.073-.26 1.49.106l500.067 435.3c.367.32.51.826.368 1.29s-.547.803-1.03.862l-350.087 42.2c-.05.007-.102.01-.153.01zm-147.486-474.92l148.36 472.336 346.312-41.736z"/><path d="M682.905 1545.732a1.23 1.23 0 0 1-1.221-1.08l-62.3-485.672c-.08-.633.335-1.223.958-1.36s1.248.223 1.442.83l149.98 477.5a1.23 1.23 0 0 1-1.063 1.6l-87.67 8.184c-.04.008-.08.008-.115.008zm-59.31-473.247l60.384 470.67 84.962-7.932z"/><path d="M682.91 1545.732c-.36.001-.7-.155-.935-.428l-277.9-321.408c-.22-.26-.326-.597-.293-.935s.2-.647.48-.853l215.586-164.27c.35-.268.82-.328 1.227-.158s.693.546.75.984l62.26 485.3c.08.166.12.35.12.533a1.23 1.23 0 0 1-1.264 1.235zm-276.1-322.458L681.16 1540.59l-61.517-479.492z"/><path d="M620.6 1060.056h-.06l-298.1-13.476a1.23 1.23 0 0 1-.606-2.272l231.97-148.042a1.24 1.24 0 0 1 1.807.573l66.14 161.51c.158.38.115.816-.115 1.16s-.615.548-1.028.547zm-294.162-15.768l292.29 13.21-64.85-158.35z"/><path d="M405.007 1224.32a1.22 1.22 0 0 1-1.119-.711l-82.522-177.744c-.182-.39-.147-.85.092-1.208.23-.373.65-.583 1.087-.543l298.106 13.472c.52.023.97.37 1.123.865s-.018 1.036-.432 1.35L405.758 1224.07a1.23 1.23 0 0 1-.751.25zm-80.543-177.652l81.018 174.5 211.66-161.272z"/><path d="M1120.727 1495.354h-.06c-.297.001-.585-.106-.8-.3l-500.067-435.3a1.24 1.24 0 0 1-.349-1.363l125.766-335.97c.172-.464.606-.78 1.1-.8a1.21 1.21 0 0 1 1.166.695l374.153 770.96a1.22 1.22 0 0 1 .333.843c-.001.68-.552 1.233-1.233 1.234zm-498.67-436.9l494.858 430.764L746.506 725.98z"/><path d="M620.598 1060.056a1.24 1.24 0 0 1-1.146-.771l-66.14-161.508a1.24 1.24 0 0 1 .313-1.38l191.9-174.465c.422-.385 1.054-.43 1.527-.11s.664.924.462 1.46l-125.765 335.97c-.178.474-.627.79-1.133.8zm-64.67-162.414l64.618 157.792 122.872-328.242z"/><path d="M554.46 898.544c-.442-.001-.85-.237-1.07-.62s-.22-.855.003-1.237l160.41-275.185c.246-.423.72-.66 1.205-.606s.894.392 1.04.86L747.54 722.48a1.23 1.23 0 0 1-.349 1.281l-191.9 174.46a1.23 1.23 0 0 1-.829.323zM714.526 625.16L559.57 890.994 744.945 722.46z"/><path d="M755.33 1627.356h-.066l-219.36-11.74a1.24 1.24 0 0 1-.853-2.061l53.638-59.525c.354-.394.92-.518 1.406-.31l165.72 71.266c.537.233.837.8.72 1.383s-.62.985-1.206.987zm-216.7-14.07l209.86 11.227-158.546-68.177z"/><path d="M535.975 1615.614h-.105c-.383-.033-.73-.242-.938-.566L453.805 1488.4c-.3-.468-.25-1.077.122-1.5s.97-.528 1.468-.28l134.764 67.13c.346.17.593.495.665.875s-.037.77-.296 1.058l-53.638 59.525c-.234.26-.566.407-.915.407zm-77.68-124.79l77.847 121.528 51.46-57.118z"/><path d="M535.976 1615.614c-.25.001-.495-.074-.7-.217l-176.695-121.86c-.436-.3-.632-.846-.487-1.355s.598-.87 1.126-.897l95.564-4.794a1.28 1.28 0 0 1 1.1.57L537 1613.715c.244.38.26.862.045 1.258s-.63.642-1.082.642zm-172.995-122.04l168.644 116.3-77.432-120.9z"/><path d="M359.285 1493.753c-.323.001-.633-.125-.863-.352l-184.318-180.217c-.3-.294-.43-.72-.346-1.13s.372-.752.764-.904l230.042-89.213c.415-.162.884-.088 1.23.194s.5.727.434 1.166l-45.724 269.43c-.077.453-.4.826-.836.968-.123.04-.252.06-.382.06zM177.202 1312.76l181.26 177.227 44.965-264.96z"/><path d="M214.874 1514.26c-.588-.002-1.093-.417-1.208-.994l-39.912-200.722c-.105-.53.148-1.067.624-1.325s1.063-.176 1.45.202l184.316 180.217c.334.33.452.82.306 1.264s-.533.77-.997.836l-144.4 20.505a1.1 1.1 0 0 1-.179.017zm-37.92-198.286l38.907 195.665 140.766-19.99z"/><path d="M174.967 1313.54a1.22 1.22 0 0 1-.928-.425c-.342-.39-.402-.954-.15-1.41l147.518-266.956a1.27 1.27 0 0 1 1.126-.639c.465.02.88.296 1.077.718l82.52 177.74a1.23 1.23 0 0 1-.672 1.669l-230.04 89.216c-.143.054-.295.082-.448.085zM322.4 1048.072L177.693 1309.92l225.643-87.508z"/><path d="M177.267 1525.612a1.23 1.23 0 0 1-1.235-1.221l-2.3-212.08c-.01-.638.47-1.178 1.105-1.244s1.215.363 1.338 1l39.915 200.722c.124.623-.245 1.238-.853 1.422l-37.6 11.36a1.33 1.33 0 0 1-.359.051zm-.923-200.048l2.14 197.16 34.96-10.56z"/><path d="M177.268 1525.616c-.327-.001-.64-.13-.872-.36l-121-120.868c-.25-.252-.382-.6-.36-.955s.2-.683.48-.9l118.7-91.215c.37-.285.87-.335 1.292-.13s.69.63.693 1.098l2.3 211.693c.044.13.066.264.066.4a1.18 1.18 0 0 1-1.264 1.235zm-119.135-121.98l117.87 117.735-2.245-206.583z"/><path d="M174.967 1313.54c-.227.001-.45-.062-.642-.18l-359.42-218.8a1.23 1.23 0 0 1-.563-1.33c.12-.518.558-.9 1.087-.952l506.94-48.16a1.2 1.2 0 0 1 1.146.553 1.23 1.23 0 0 1 .049 1.274L176.047 1312.9a1.22 1.22 0 0 1-.764.6c-.103.026-.21.04-.316.04zm-355.606-219.155l355.148 216.193 145.765-263.782z"/><path d="M56.266 1404.748a1.24 1.24 0 0 1-.978-.474l-240.72-310.013a1.23 1.23 0 0 1 .056-1.577c.397-.445 1.054-.543 1.564-.234l359.42 218.8c.346.212.566.58.59.986s-.156.796-.477 1.045l-118.7 91.215a1.23 1.23 0 0 1-.754.252zm-235.628-306.697l235.85 303.737 116.3-89.368z"/><path d="M1120.666 1495.354c-.474.001-.906-.27-1.113-.695l-374.3-771.27a1.24 1.24 0 0 1-.03-1.014c.138-.326.407-.578.74-.695l450.1-155.187c.393-.14.83-.068 1.16.188s.507.66.47 1.076l-75.812 926.465c-.045.554-.454 1.01-1 1.113-.075.013-.15.02-.226.02zM748.08 723.563l371.723 765.95 75.282-920.075z"/><path d="M981.11 1678.547c-.47.001-.898-.265-1.107-.686s-.16-.923.126-1.296l139.552-183.193c.307-.404.83-.58 1.318-.44s.843.56.895 1.063l5.36 52.775c.037.39-.11.778-.4 1.044L981.938 1678.23a1.23 1.23 0 0 1-.827.316zm138.64-181.195l-129.677 170.234 134.658-121.19z"/><path d="M-184.457 1094.74a1.2 1.2 0 0 1-.474-.1 1.23 1.23 0 0 1-.734-1.38l105.59-528.2c.13-.656.757-1.1 1.416-.978l226.82 37.883a1.24 1.24 0 0 1 .817 1.913l-332.41 490.322c-.232.338-.615.54-1.024.54zM-77.9 566.722l-104.153 521.03L145.85 604.088z"/><path d="M-184.457 1094.74c-.436.001-.84-.23-1.06-.606-.243-.41-.227-.925.04-1.32l332.4-490.314c.258-.376.702-.58 1.156-.533a1.23 1.23 0 0 1 1.014.77l174.53 442.156c.144.362.106.77-.1 1.1s-.55.548-.935.586l-507.055 48.16zm332.12-488.918l-329.625 486.21 502.7-47.757z"/><path d="M1196.47 568.892c-.666-.005-1.2-.534-1.235-1.2l-1.41-51.083c-.014-.55.336-1.04.86-1.208l48.837-15.718c.506-.163 1.06.016 1.375.445s.32 1.01.01 1.445l-47.43 66.8a1.24 1.24 0 0 1-1.007.519zm-.148-51.425l1.28 46.457 43.14-60.76z"/><path d="M824.554 629.227c-.6-.003-1.126-.45-1.215-1.055s.28-1.18.863-1.358l370.508-111.42c.367-.115.768-.048 1.077.18s.502.583.5.968l1.41 51.08a1.24 1.24 0 0 1-1.037 1.254L824.755 629.21c-.066.012-.134.017-.2.016zm369.32-111.006L842.896 623.768l352.31-57.154z"/><path d="M746.36 724.083c-.477 0-.912-.275-1.116-.707s-.14-.942.16-1.31l78.2-94.856a1.26 1.26 0 0 1 .757-.435l371.9-60.338c.633-.104 1.24.295 1.397.918s-.2 1.26-.797 1.47l-450.11 155.19c-.13.045-.264.07-.4.07zm78.85-94.947l-75.11 91.116 432.364-149.075z"/><path d="M746.36 724.083c-.08.001-.16-.007-.237-.023-.445-.087-.807-.4-.942-.843L713.7 622.5a1.24 1.24 0 0 1 1.245-1.6l109.69 5.87c.466.026.877.31 1.065.74s.118.923-.18 1.283l-78.2 94.853a1.24 1.24 0 0 1-.949.448zm-29.783-100.63l30.284 96.85 75.187-91.208z"/><path d="M147.954 604.424c-.28 0-.552-.095-.77-.27l-222.535-178.3c-.432-.347-.58-.94-.362-1.45s.745-.81 1.294-.74l305.548 39.62c.413.054.77.313.952.688a1.21 1.21 0 0 1-.053 1.169l-83.013 138.682a1.23 1.23 0 0 1-1.06.6zm-218.32-177.74l217.99 174.66 81.317-135.85z"/><path d="M147.954 604.424a1.03 1.03 0 0 1-.2-.016l-226.822-37.883c-.61-.102-1.05-.637-1.03-1.254l4.284-140.414c.014-.468.293-.887.718-1.083a1.22 1.22 0 0 1 1.291.158l222.33 178.132c.443.2.728.64.728 1.126a1.2 1.2 0 0 1-1.264 1.235zM-77.592 564.27l221.086 36.925L-73.418 427.4z"/><path d="M350.24 677.64c-.142.001-.284-.024-.418-.072L147.54 604.352a1.24 1.24 0 0 1-.741-.747 1.22 1.22 0 0 1 .1-1.047l83.013-138.683a1.29 1.29 0 0 1 1.077-.6 1.23 1.23 0 0 1 1.057.629l119.266 211.9c.216.382.213.85-.01 1.23s-.628.612-1.068.61zm-200.45-75.1l197.735 71.576L230.94 466.967z"/><path d="M554.46 898.544a1.23 1.23 0 0 1-.905-.4l-204.23-220.9c-.31-.336-.41-.817-.257-1.25s.532-.743.985-.81l364.634-54.28c.47-.07.938.134 1.205.527s.285.904.046 1.314L555.522 897.93c-.197.336-.54.56-.928.6a.93.93 0 0 1-.135.013zm-201.733-221.26l201.506 217.962L712.507 623.72z"/><path d="M322.485 1046.58c-.222-.001-.44-.06-.632-.174a1.23 1.23 0 0 1-.6-1.152l27.75-368.94c.037-.5.36-.91.824-1.073s.98-.034 1.313.326l204.225 220.9a1.23 1.23 0 0 1-.244 1.88l-231.97 148.04a1.24 1.24 0 0 1-.665.194zm28.766-367.255l-27.347 363.653L552.55 897.062z"/><path d="M322.485 1046.578c-.507 0-.962-.31-1.15-.78L146.81 603.644c-.178-.45-.075-.964.263-1.312s.848-.465 1.304-.3l202.28 73.215c.52.19.852.702.8 1.255l-27.748 368.936c-.042.574-.475 1.042-1.044 1.13-.062.01-.125.013-.188.012zM150.108 605.283l171.55 434.6 27.272-362.64z"/></g></g></svg>