<svg xmlns="http://www.w3.org/2000/svg" width="960" height="1080"><style>.B{fill:url(#A)}</style><defs><linearGradient id="A" x1=".5" x2=".5" y2="1"><stop offset="0" stop-color="#fff" stop-opacity=".114"/><stop offset="1" stop-color="#fff" stop-opacity=".204"/></linearGradient><clipPath id="B"><path d="M0 0h948.23v948.224H0z" class="B"/></clipPath></defs><path fill="#e74c3c" d="M0 0h960v1080H0z"/><g transform="translate(6)" clip-path="url(#B)" class="B"><g opacity=".8"><path d="M233.67 777.49a1.27 1.27 0 01-.6-.15l-58.72-32.543a1.234 1.234 0 01.13-2.225l74.447-30.42c.43-.176.924-.095 1.276.21s.503.78.4 1.233l-15.725 62.962a1.24 1.24 0 01-1.2.935zm-55.87-33.61l55.063 30.515 14.747-59.037z"/><path d="M174.947 744.952c-.5 0-.934-.3-1.13-.74s-.1-.972.222-1.332l90.042-97.823a1.233 1.233 0 012.11 1.113l-15.6 67.4a1.218 1.218 0 01-.738.866l-74.448 30.42a1.152 1.152 0 01-.467.096zm87.784-94.784l-83.13 90.31 68.737-28.085z"/><path d="M249.4 714.53a1.238 1.238 0 01-1.205-1.516l15.593-67.4a1.22 1.22 0 01.339-.609l79.605-77.307a1.234 1.234 0 011.893 1.563l-95.2 144.714a1.23 1.23 0 01-1.025.554zm16.71-68.006l-13.953 60.334 85.214-129.532z"/><path d="M249.4 714.528a1.234 1.234 0 01-1.034-1.913l95.2-144.71a1.26 1.26 0 011.218-.543l196.195 30a1.231 1.231 0 01.264 2.367L249.85 714.443a1.2 1.2 0 01-.451.085zm95.788-144.6L252.57 710.72l283.5-111.608z"/><path d="M540.8 599.82a1.2 1.2 0 01-.188-.016l-196.195-30a1.23 1.23 0 01-1-1.567l20.015-67.617a1.23 1.23 0 01.711-.794c.348-.14.74-.118 1.07.063l175.992 97.5a1.237 1.237 0 01-.378 2.423zm-194.61-32.24l187.973 28.74-168.8-93.525zm-262 321.855a1.23 1.23 0 01-1.044-1.89l90.757-144.487a1.23 1.23 0 011.643-.421l58.724 32.54c.366.203.604.578.632.995s-.156.82-.5 1.073L84.93 889.192a1.25 1.25 0 01-.74.243zm91.182-144.072L88.77 883.23l142.635-106.817z"/><path d="M177.482 1031.23a1.222 1.222 0 01-1.034-.557L83.156 888.88a1.232 1.232 0 01.293-1.666l149.49-111.945c.412-.31.974-.33 1.406-.05s.65.8.54 1.307l-56.197 253.737c-.11.484-.496.856-.984.945a1 1 0 01-.221.023zM85.86 888.493l91.046 138.386 54.84-247.636z"/><path d="M177.482 1031.23c-.264 0-.52-.084-.734-.24a1.23 1.23 0 01-.471-1.261l56.19-253.74a1.2 1.2 0 011.248-.968l368.674 12.367c.552.02 1.024.405 1.155.942s-.11 1.096-.59 1.37l-424.866 241.37c-.185.104-.394.16-.606.16zm57.174-253.708L179.3 1027.55l418.64-237.84z"/><path d="M602.405 789.858a.3.3 0 00-.06 0h-.043l-368.67-12.367a1.22 1.22 0 01-.945-.491 1.24 1.24 0 01-.211-1.04l15.725-62.962a1.24 1.24 0 011.455-.912l352.83 75.305a1.233 1.233 0 01-.082 2.466zm-367.163-14.784l353.216 11.85-338.15-72.17z"/><path d="M602.345 789.857a1.33 1.33 0 01-.257-.026l-352.946-75.33a1.235 1.235 0 01-.194-2.357l291.387-114.713c.318-.122.672-.11.98.036a1.23 1.23 0 01.645.731l61.447 189.706a1.22 1.22 0 01.23.718 1.167 1.167 0 01-1.264 1.235zm-348.68-76.916l346.842 74.03-60.492-186.756z"/><path d="M602.345 789.857a1.23 1.23 0 01-1.146-1.7l82.2-204c.205-.497.704-.81 1.24-.774.536.043.983.427 1.106.95l46.272 197.477a1.232 1.232 0 01-1.142 1.515l-128.47 6.525zm81.887-201.153l-80.02 198.59 125.06-6.358z"/><path d="M602.346 789.858h-.046c-.518-.02-.97-.36-1.13-.853l-61.56-190.04a1.243 1.243 0 01.145-1.057 1.22 1.22 0 01.915-.55l143.756-13.963a1.21 1.21 0 011.11.491 1.23 1.23 0 01.151 1.2l-82.2 204c-.188.466-.64.77-1.142.773zm-59.9-190.193l60.035 185.343 80.172-198.96z"/><path d="M177.482 1031.23c-.56 0-1.05-.377-1.194-.918s.095-1.112.582-1.4L601.733 787.55a1.245 1.245 0 011.4.125l202.9 169.533c.38.316.533.828.39 1.3s-.55.816-1.04.873l-627.764 71.842c-.046.006-.092.01-.138.01zM602.2 790.117L183.35 1028.08l618.892-70.828z"/><path d="M805.24 959.4a1.233 1.233 0 01-.8-.3l-202.9-169.533a1.234 1.234 0 01.724-2.18l128.473-6.528a1.208 1.208 0 011.2.75l74.3 175.742c.188.224.292.507.293.8a1.167 1.167 0 01-1.264 1.235zM605.556 789.696L802.118 953.93 730 783.37z"/><path d="M882.977 962.1h-.026l-77.752-2.7a1.243 1.243 0 01-1.093-.757l-74.43-176.062c-.236-.56-.027-1.2.492-1.53s1.192-.212 1.586.252l152.16 178.77a1.236 1.236 0 01-.94 2.035zm-76.9-5.153l74.146 2.588-145.147-170.527zm-631.13-211.995a1.26 1.26 0 01-.665-.194 1.236 1.236 0 01-.474-1.514l61.75-149.663a1.232 1.232 0 012.223-.12l28.292 51.84a1.23 1.23 0 01-.178 1.429l-90.038 97.822a1.24 1.24 0 01-.909.399zm61.905-148.037l-58.12 140.866 84.748-92.074z"/><path d="M265 647.128a1.2 1.2 0 01-.188-.016 1.261 1.261 0 01-.9-.63l-28.292-51.84c-.183-.34-.2-.746-.043-1.1s.47-.6.843-.7l107.9-25.467a1.236 1.236 0 011.142 2.088l-79.603 77.313a1.23 1.23 0 01-.859.352zm-26.43-52.247l26.735 48.99 75.23-73.06z"/><path d="M236.698 595.29c-.536 0-1.01-.345-1.176-.855s.017-1.068.452-1.38l127.906-93.088a1.24 1.24 0 011.439-.007c.434.304.624.853.47 1.36l-20.013 67.618a1.23 1.23 0 01-.9.849l-107.9 25.467c-.09.023-.185.036-.28.037zm125.7-91.187l-120 87.34 101.23-23.9z"/><path d="M540.786 599.817a1.25 1.25 0 01-.6-.155l-176.18-97.616a1.23 1.23 0 01-.635-1.11c.012-.46.277-.875.688-1.08l170.345-84.14a1.235 1.235 0 011.782 1.066l5.838 181.754c.01.335-.117.66-.35.9s-.554.377-.89.38zm-173.52-98.79l172.22 95.42-5.7-177.665z"/><path d="M364.606 502.2c-.37 0-.72-.165-.955-.45s-.33-.66-.257-1.024L384.416 395.3a1.21 1.21 0 011.38-.978l149.33 21.283a1.233 1.233 0 01.372 2.327l-170.345 84.14c-.17.084-.357.128-.547.128zm22-105.27l-20.3 101.816 164.518-81.258z"/><path d="M540.794 599.818c-.3-.001-.59-.112-.817-.3a1.221 1.221 0 01-.418-.89l-5.838-181.754a1.234 1.234 0 012.153-.859l149.6 167.794a1.236 1.236 0 01-.8 2.05l-143.766 13.965c-.043.005-.082.005-.114.005zm-4.5-179.63l5.683 177.04 140.025-13.6z"/><path d="M534.952 418.065c-.06 0-.117-.004-.175-.013L385.45 396.766a1.235 1.235 0 01-1.057-1.277l1.287-28.928a1.236 1.236 0 011.63-1.115l147.88 50.16a1.237 1.237 0 01-.178 2.459.2.2 0 00-.062 0zm-148.046-23.587l135.074 19.254-133.9-45.42z"/><path d="M534.952 418.065c-.136 0-.272-.023-.4-.07L386.52 367.782a1.23 1.23 0 01-.138-2.278l113.6-54.612c.32-.156.693-.164 1.02-.023a1.25 1.25 0 01.691.747l34.31 104.487a1.234 1.234 0 01-1.027 1.962zm-144.773-51.65l142.827 48.45-33.214-101.134z"/><path d="M684.545 585.856a1.23 1.23 0 01-.922-.412L534.03 417.65a1.235 1.235 0 01.137-1.778l239.956-196.465a1.23 1.23 0 011.979 1.248l-90.36 364.267c-.11.443-.457.79-.9.9a1.3 1.3 0 01-.299.034zM536.73 416.965l147.18 165.09 88.9-358.385z"/><path d="M534.952 418.065c-.117 0-.234-.018-.346-.053a1.23 1.23 0 01-.826-.8L499.354 312.4a1.236 1.236 0 01.78-1.557l274.38-91.643c.566-.2 1.186.05 1.474.574s.16 1.176-.302 1.553L535.732 417.785a1.24 1.24 0 01-.78.28zm-32.87-105.28l33.48 101.948L768.93 223.66zm301.113 997.502c-.173 0-.343-.038-.5-.11l-625.717-279.056a1.234 1.234 0 01.36-2.355L805.1 956.928a1.23 1.23 0 011.373 1.235l-2.048 350.9a1.245 1.245 0 01-1.235 1.228zm-621.084-279.58l619.857 276.45 2.027-347.62z"/><path d="M177.482 1031.232a1.452 1.452 0 01-.3-.036l-38.008-9.166a1.23 1.23 0 01-.853-.728L83.048 888.678a1.235 1.235 0 012.173-1.156l93.292 141.8a1.23 1.23 0 01-1.031 1.913zm-37.113-11.458l34.36 8.287L90.396 899.88zm894.274-447.252a1.23 1.23 0 01-.991-.5l-259.74-350.93a1.236 1.236 0 011.624-1.8l341.492 202.47a1.23 1.23 0 01.451 1.656l-81.752 148.464a1.24 1.24 0 01-1 .639zM779.536 224.54l254.956 344.465 80.247-145.728z"/><path d="M684.545 585.856a1.23 1.23 0 01-1.2-1.528l90.364-364.265a1.232 1.232 0 012.19-.438l259.74 350.928a1.238 1.238 0 01-.947 1.97l-350.1 13.334zm90.928-362.652L686.14 583.327l346.12-13.183zm62.584 1136.381a1.229 1.229 0 01-1.01-.523l-34.864-49.3c-.306-.434-.3-1.015.013-1.444s.867-.608 1.373-.446l35.865 11.5a1.23 1.23 0 01.856 1.208l-1 37.8c-.018.53-.37.993-.88 1.15a1.21 1.21 0 01-.353.056zm-31.723-48.235l30.584 43.253.88-33.165z"/><path d="M839.054 1321.788c-.13.001-.257-.02-.38-.062l-35.86-11.504a1.23 1.23 0 01-.836-1.393l48.9-273.35a1.232 1.232 0 012.445.273l-13.04 284.86a1.22 1.22 0 01-.527.958c-.207.142-.453.22-.704.22zm-34.456-13.58l33.3 10.677 12.1-264.477z"/><path d="M803.193 1310.288c-.04 0-.076 0-.112-.007a1.233 1.233 0 01-1.123-1.235l2.048-350.9c.002-.554.372-1.04.905-1.186s1.1.078 1.387.55l46.855 77.547a1.24 1.24 0 01.161.856l-48.906 273.353c-.104.6-.616 1.02-1.215 1.02zm3.256-347.744l-1.94 332.128 46.29-258.73z"/><path d="M852.096 1036.93a1.24 1.24 0 01-1.057-.6L804.19 958.8a1.228 1.228 0 01-.01-1.264c.243-.377.66-.605 1.1-.606l77.732 2.7a1.233 1.233 0 011.1 1.7l-30.88 74.838a1.24 1.24 0 01-1.047.761zm-44.616-77.47l44.41 73.5 29.27-70.933zm303.314-295.333a1.22 1.22 0 01-.948-.448l-76.15-91.6a1.211 1.211 0 01-.27-.984 1.24 1.24 0 01.566-.853l178.343-111.18a1.235 1.235 0 011.758 1.6l-102.195 202.8a1.24 1.24 0 01-1.102.674zm-74.3-92.54l74.047 89.067 99.363-197.17z"/><path d="M1034.644 572.525a1.233 1.233 0 01-1.08-1.831l81.755-148.464c.298-.542.95-.78 1.528-.556l96.59 37.284a1.23 1.23 0 01.207 2.2l-178.35 111.18a1.24 1.24 0 01-.652.188zm82.315-148.158l-78.95 143.367 172.23-107.364z"/><path d="M934.312 695.29c-.477-.002-.9-.277-1.114-.708s-.142-.94.16-1.3l100.33-122.767c.232-.287.583-.453.952-.45a1.23 1.23 0 01.952.441l76.15 91.606a1.236 1.236 0 01-.737 2.004l-176.477 31.16c-.07.015-.144.023-.217.025zm100.34-122.065l-97.28 119.04 171.1-30.215z"/><path d="M882.976 962.1a1.24 1.24 0 01-.942-.435l-152.167-178.77c-.253-.3-.35-.7-.26-1.08a1.25 1.25 0 01.711-.856l203.5-88.037a1.24 1.24 0 011.261.171c.36.286.53.75.438 1.2l-51.33 266.804c-.1.467-.44.84-.9.96a1.16 1.16 0 01-.312.043zm-150.14-179.535l149.416 175.54 50.408-261.988z"/><path d="M730.81 783.328a1.236 1.236 0 01-1.2-.955l-46.268-197.47a1.23 1.23 0 011.7-1.409l249.763 109.43a1.232 1.232 0 010 2.26l-203.5 88.04a1.26 1.26 0 01-.495.101zm-44.5-196.583l45.367 193.627L931.22 694.05z"/><path d="M934.312 695.29a1.187 1.187 0 01-.494-.11l-249.77-109.428a1.236 1.236 0 01.451-2.363l350.1-13.335c.49-.035.95.238 1.152.685a1.24 1.24 0 01-.148 1.33L935.27 694.837a1.24 1.24 0 01-.958.454zm-244.34-109.64l243.981 106.9 98-119.922z"/></g><g opacity=".3"><path d="M755.33 1627.355c-.353 0-.688-.15-.922-.415l-72.424-81.624a1.238 1.238 0 01.81-2.051l87.665-8.188c.382-.03.758.113 1.02.392a1.24 1.24 0 01.313 1.047l-15.244 89.81a1.24 1.24 0 01-.879.981 1.19 1.19 0 01-.34.049zm-69.883-81.857l69.1 77.877 14.54-85.69z"/><path d="M755.33 1627.356a1.21 1.21 0 01-.487-.1l-165.72-71.268a1.237 1.237 0 01.352-2.364l93.3-10.358c.4-.045.794.108 1.06.408l72.416 81.627a1.237 1.237 0 01-.922 2.055zm-160.94-71.79l156.34 67.232-68.325-77z"/><path d="M589.6 1556.09a1.23 1.23 0 01-.55-.132l-134.764-67.13a1.235 1.235 0 01.85-2.3l228.063 56.77c.58.146.972.686.93 1.282s-.502 1.078-1.096 1.145l-93.3 10.355a.99.99 0 01-.133.009zm-124.123-64.443l124.347 61.94 86.088-9.558z"/><path d="M682.908 1545.732a1.13 1.13 0 01-.3-.036l-228.062-56.773a1.24 1.24 0 01-.915-.968l-49.84-264.638a1.236 1.236 0 012.15-1.037l277.9 321.407c.316.365.39.882.2 1.322s-.64.722-1.122.723zm-227-59.01l223.513 55.636-272.356-315z"/><path d="M359.282 1493.754a1.246 1.246 0 01-.925-.415 1.23 1.23 0 01-.29-1.027l45.72-269.43a1.24 1.24 0 011.205-1.031 1.328 1.328 0 011.228 1.008l49.838 264.637a1.22 1.22 0 01-.244.991 1.21 1.21 0 01-.905.468l-95.564 4.794zm45.788-263.657l-44.3 261.113 92.61-4.646zm576.04 448.449c-.092 0-.183-.01-.273-.03l-225.782-51.194a1.23 1.23 0 01-.942-1.412l15.244-89.81a1.23 1.23 0 01.728-.928c.386-.162.827-.12 1.175.112l210.337 140.868a1.233 1.233 0 01-.426 2.394.39.39 0 00-.062-.001zm-224.372-53.374l218.156 49.466-203.422-136.242z"/><path d="M981.11 1678.547a1.21 1.21 0 01-.685-.207l-210.537-141a1.234 1.234 0 01.54-2.252l350.088-42.2a1.22 1.22 0 011.218.609 1.24 1.24 0 01-.089 1.363l-139.55 183.2a1.237 1.237 0 01-.984.487zm-207.084-141.41l206.807 138.507 137.08-179.95z"/><path d="M770.574 1537.543a1.24 1.24 0 01-1.179-.863l-149.978-477.5a1.237 1.237 0 011.993-1.3l500.067 435.3a1.233 1.233 0 01-.662 2.152l-350.087 42.2c-.05.007-.102.01-.153.01zm-147.486-474.92l148.36 472.336 346.312-41.736z"/><path d="M682.905 1545.732a1.23 1.23 0 01-1.221-1.08l-62.3-485.672a1.233 1.233 0 012.4-.53l149.98 477.5a1.23 1.23 0 01-1.063 1.6l-87.67 8.184c-.04.008-.08.008-.115.008zm-59.31-473.247l60.384 470.67 84.962-7.932z"/><path d="M682.91 1545.732c-.36.001-.7-.155-.935-.428l-277.9-321.408c-.22-.26-.326-.597-.293-.935s.2-.647.48-.853l215.586-164.27a1.238 1.238 0 011.977.826l62.26 485.3c.08.166.12.35.12.533a1.23 1.23 0 01-1.264 1.235zm-276.1-322.458l274.35 317.316-61.517-479.492z"/><path d="M620.6 1060.056h-.06l-298.1-13.476a1.23 1.23 0 01-.606-2.272l231.97-148.042a1.24 1.24 0 011.807.573l66.14 161.51a1.235 1.235 0 01-1.143 1.707zm-294.162-15.768l292.29 13.21-64.85-158.35z"/><path d="M405.007 1224.32a1.22 1.22 0 01-1.119-.711l-82.522-177.744c-.182-.39-.147-.85.092-1.208.23-.373.65-.583 1.087-.543l298.106 13.472a1.232 1.232 0 01.691 2.215L405.758 1224.07a1.23 1.23 0 01-.751.25zm-80.543-177.652l81.018 174.5 211.66-161.272z"/><path d="M1120.727 1495.354h-.06a1.19 1.19 0 01-.8-.3l-500.067-435.3a1.24 1.24 0 01-.349-1.363l125.766-335.97c.172-.464.606-.78 1.1-.8a1.21 1.21 0 011.166.695l374.153 770.96a1.22 1.22 0 01.333.843 1.236 1.236 0 01-1.233 1.234zm-498.67-436.9l494.858 430.764L746.506 725.98z"/><path d="M620.598 1060.056a1.24 1.24 0 01-1.146-.771l-66.14-161.508a1.24 1.24 0 01.313-1.38l191.9-174.465a1.236 1.236 0 011.989 1.35l-125.765 335.97c-.178.474-.627.79-1.133.8zm-64.67-162.414l64.618 157.792 122.872-328.242z"/><path d="M554.46 898.544a1.237 1.237 0 01-1.067-1.857l160.41-275.185a1.235 1.235 0 012.245.254L747.54 722.48a1.23 1.23 0 01-.349 1.281l-191.9 174.46a1.23 1.23 0 01-.829.323zM714.526 625.16L559.57 890.994 744.945 722.46zm40.804 1002.196h-.066l-219.36-11.74a1.24 1.24 0 01-.853-2.061l53.638-59.525c.354-.394.92-.518 1.406-.31l165.72 71.266c.537.233.837.8.72 1.383s-.62.985-1.206.987zm-216.7-14.07l209.86 11.227-158.546-68.177z"/><path d="M535.975 1615.614h-.105a1.242 1.242 0 01-.938-.566L453.805 1488.4c-.3-.468-.25-1.077.122-1.5s.97-.528 1.468-.28l134.764 67.13a1.236 1.236 0 01.369 1.933l-53.638 59.525a1.23 1.23 0 01-.915.407zm-77.68-124.79l77.847 121.528 51.46-57.118z"/><path d="M535.976 1615.614a1.215 1.215 0 01-.7-.217l-176.695-121.86a1.235 1.235 0 01.639-2.252l95.564-4.794a1.28 1.28 0 011.1.57L537 1613.715c.244.38.26.862.045 1.258s-.63.642-1.082.642zm-172.995-122.04l168.644 116.3-77.432-120.9z"/><path d="M359.285 1493.753a1.222 1.222 0 01-.863-.352l-184.318-180.217a1.236 1.236 0 01.418-2.034l230.042-89.213c.415-.162.884-.088 1.23.194s.5.727.434 1.166l-45.724 269.43a1.237 1.237 0 01-1.218 1.028zM177.202 1312.76l181.26 177.227 44.965-264.96z"/><path d="M214.874 1514.26a1.235 1.235 0 01-1.208-.994l-39.912-200.722a1.235 1.235 0 012.074-1.123l184.316 180.217a1.235 1.235 0 01-.691 2.1l-144.4 20.505a1.1 1.1 0 01-.179.017zm-37.92-198.286l38.907 195.665 140.766-19.99z"/><path d="M174.967 1313.54a1.22 1.22 0 01-.928-.425 1.233 1.233 0 01-.15-1.41l147.518-266.956a1.27 1.27 0 011.126-.639c.465.02.88.296 1.077.718l82.52 177.74a1.23 1.23 0 01-.672 1.669l-230.04 89.216a1.343 1.343 0 01-.448.085zM322.4 1048.072L177.693 1309.92l225.643-87.508z"/><path d="M177.267 1525.612a1.23 1.23 0 01-1.235-1.221l-2.3-212.08a1.232 1.232 0 012.443-.244l39.915 200.722a1.234 1.234 0 01-.853 1.422l-37.6 11.36a1.33 1.33 0 01-.359.051zm-.923-200.048l2.14 197.16 34.96-10.56z"/><path d="M177.268 1525.616a1.243 1.243 0 01-.872-.36l-121-120.868c-.25-.252-.382-.6-.36-.955s.2-.683.48-.9l118.7-91.215a1.233 1.233 0 011.985.968l2.3 211.693c.044.13.066.264.066.4a1.18 1.18 0 01-1.264 1.235zm-119.135-121.98l117.87 117.735-2.245-206.583z"/><path d="M174.967 1313.54a1.218 1.218 0 01-.642-.18l-359.42-218.8a1.23 1.23 0 01-.563-1.33c.12-.518.558-.9 1.087-.952l506.94-48.16a1.2 1.2 0 011.146.553 1.23 1.23 0 01.049 1.274L176.047 1312.9a1.22 1.22 0 01-.764.6c-.103.026-.21.04-.316.04zm-355.606-219.155l355.148 216.193 145.765-263.782z"/><path d="M56.266 1404.748a1.24 1.24 0 01-.978-.474l-240.72-310.013a1.23 1.23 0 01.056-1.577 1.236 1.236 0 011.564-.234l359.42 218.8c.346.212.566.58.59.986s-.156.796-.477 1.045l-118.7 91.215a1.23 1.23 0 01-.754.252zm-235.628-306.697l235.85 303.737 116.3-89.368zm1300.028 397.303a1.236 1.236 0 01-1.113-.695l-374.3-771.27a1.24 1.24 0 01-.03-1.014c.138-.326.407-.578.74-.695l450.1-155.187c.393-.14.83-.068 1.16.188s.507.66.47 1.076l-75.812 926.465a1.233 1.233 0 01-1.226 1.133zM748.08 723.563l371.723 765.95 75.282-920.075z"/><path d="M981.11 1678.547a1.232 1.232 0 01-.981-1.982l139.552-183.193c.307-.404.83-.58 1.318-.44s.843.56.895 1.063l5.36 52.775c.037.39-.11.778-.4 1.044L981.938 1678.23a1.23 1.23 0 01-.827.316zm138.64-181.195l-129.677 170.234 134.658-121.19zM-184.457 1094.74a1.2 1.2 0 01-.474-.1 1.23 1.23 0 01-.734-1.38l105.59-528.2c.13-.656.757-1.1 1.416-.978l226.82 37.883a1.24 1.24 0 01.817 1.913l-332.41 490.322c-.232.338-.615.54-1.024.54zM-77.9 566.722l-104.153 521.03L145.85 604.088z"/><path d="M-184.457 1094.74a1.235 1.235 0 01-1.02-1.926l332.4-490.314c.258-.376.702-.58 1.156-.533a1.23 1.23 0 011.014.77l174.53 442.156c.144.362.106.77-.1 1.1s-.55.548-.935.586l-507.055 48.16zm332.12-488.918l-329.625 486.21 502.7-47.757zm1048.807-36.93a1.253 1.253 0 01-1.235-1.2l-1.41-51.083c-.014-.55.336-1.04.86-1.208l48.837-15.718a1.236 1.236 0 011.385 1.89l-47.43 66.8a1.24 1.24 0 01-1.007.519zm-.148-51.425l1.28 46.457 43.14-60.76z"/><path d="M824.554 629.227c-.6-.003-1.126-.45-1.215-1.055s.28-1.18.863-1.358l370.508-111.42c.367-.115.768-.048 1.077.18s.502.583.5.968l1.41 51.08a1.24 1.24 0 01-1.037 1.254L824.755 629.21a1.038 1.038 0 01-.2.016zm369.32-111.006L842.896 623.768l352.31-57.154z"/><path d="M746.36 724.083a1.234 1.234 0 01-.956-2.017l78.2-94.856a1.26 1.26 0 01.757-.435l371.9-60.338c.633-.104 1.24.295 1.397.918s-.2 1.26-.797 1.47l-450.11 155.19a1.22 1.22 0 01-.4.07zm78.85-94.947l-75.11 91.116 432.364-149.075z"/><path d="M746.36 724.083c-.08.001-.16-.007-.237-.023a1.217 1.217 0 01-.942-.843L713.7 622.5a1.24 1.24 0 011.245-1.6l109.69 5.87a1.235 1.235 0 01.885 2.023l-78.2 94.853a1.24 1.24 0 01-.949.448zm-29.783-100.63l30.284 96.85 75.187-91.208zm-568.623-19.029a1.23 1.23 0 01-.77-.27l-222.535-178.3a1.237 1.237 0 01.932-2.19l305.548 39.62c.413.054.77.313.952.688a1.21 1.21 0 01-.053 1.169l-83.013 138.682a1.23 1.23 0 01-1.06.6zm-218.32-177.74l217.99 174.66 81.317-135.85z"/><path d="M147.954 604.424a1.03 1.03 0 01-.2-.016l-226.822-37.883a1.231 1.231 0 01-1.03-1.254l4.284-140.414c.014-.468.293-.887.718-1.083a1.22 1.22 0 011.291.158l222.33 178.132c.443.2.728.64.728 1.126a1.2 1.2 0 01-1.264 1.235zM-77.592 564.27l221.086 36.925L-73.418 427.4z"/><path d="M350.24 677.64a1.217 1.217 0 01-.418-.072L147.54 604.352a1.24 1.24 0 01-.741-.747 1.22 1.22 0 01.1-1.047l83.013-138.683a1.29 1.29 0 011.077-.6 1.23 1.23 0 011.057.629l119.266 211.9c.216.382.213.85-.01 1.23s-.628.612-1.068.61zm-200.45-75.1l197.735 71.576L230.94 466.967z"/><path d="M554.46 898.544a1.23 1.23 0 01-.905-.4l-204.23-220.9a1.236 1.236 0 01.728-2.06l364.634-54.28a1.235 1.235 0 011.251 1.841L555.522 897.93c-.197.336-.54.56-.928.6a.93.93 0 01-.135.013zm-201.733-221.26l201.506 217.962L712.507 623.72z"/><path d="M322.485 1046.58a1.247 1.247 0 01-.632-.174 1.23 1.23 0 01-.6-1.152l27.75-368.94c.037-.5.36-.91.824-1.073s.98-.034 1.313.326l204.225 220.9a1.23 1.23 0 01-.244 1.88l-231.97 148.04a1.24 1.24 0 01-.665.194zm28.766-367.255l-27.347 363.653L552.55 897.062z"/><path d="M322.485 1046.578a1.24 1.24 0 01-1.15-.78L146.81 603.644a1.233 1.233 0 011.567-1.612l202.28 73.215c.52.19.852.702.8 1.255l-27.748 368.936a1.235 1.235 0 01-1.232 1.142zM150.108 605.283l171.55 434.6 27.272-362.64z"/></g></g></svg>