<svg xmlns="http://www.w3.org/2000/svg" xmlns:xlink="http://www.w3.org/1999/xlink" width="960" height="1080"><defs><filter id="A" x="315.251" y="58.461" width="227.916" height="237.387" filterUnits="userSpaceOnUse"><feOffset dy="13"/><feGaussianBlur stdDeviation="12.5" result="A"/><feFlood flood-color="#3a6faf" flood-opacity=".078"/><feComposite operator="in" in2="A"/><feComposite in="SourceGraphic"/></filter><clipPath id="B"><path transform="translate(480.5 1.812)" fill="none" d="M0 0h960v1080H0z"/></clipPath><linearGradient id="C" x1=".303" y1=".035" x2=".789" y2=".914"><stop offset="0" stop-color="#fff"/><stop offset="1" stop-color="#fff" stop-opacity=".33"/></linearGradient><linearGradient id="D" y1=".5" x2="1" y2=".5"><stop offset="0" stop-color="#3546c7"/><stop offset="1" stop-color="#3c4dd2"/></linearGradient><linearGradient id="E" y1=".5" x2="1" y2=".5"><stop offset="0" stop-color="#3444c5"/><stop offset="1" stop-color="#3c4dd2"/></linearGradient><clipPath id="F"><g filter="url(#A)"><path d="M0,72.144A27.127,27.127,0,0,1,9.356,51.75L64.76,3.182a20.552,20.552,0,0,1,27.326.369l52.058,48.268a27.094,27.094,0,0,1,8.772,19.867V139.88c0,11.416-9.6,20.671-21.437,20.671H21.437C9.6,160.551,0,151.3,0,139.88Z" transform="translate(0 1.84)" fill="#e3ecf3"/></g></clipPath><filter id="G" x="385.054" y="103.052" width="86.289" height="86.289" filterUnits="userSpaceOnUse"><feOffset dy="2"/><feGaussianBlur stdDeviation="4" result="A"/><feFlood flood-color="#ffb240" flood-opacity=".404"/><feComposite operator="in" in2="A"/><feComposite in="SourceGraphic"/></filter><filter id="H" x="327.251" y="116.511" width="203.916" height="151.337" filterUnits="userSpaceOnUse"><feOffset dy="-3"/><feGaussianBlur stdDeviation="8.5" result="A"/><feFlood flood-color="#1c3d64" flood-opacity=".07"/><feComposite operator="in" in2="A"/><feComposite in="SourceGraphic"/></filter><filter id="I" x="342.251" y="182.158" width="173.916" height="70.689" filterUnits="userSpaceOnUse"><feOffset dy="-3"/><feGaussianBlur stdDeviation="3.5" result="A"/><feFlood flood-color="#406ca0" flood-opacity=".027"/><feComposite operator="in" in2="A"/><feComposite in="SourceGraphic"/></filter><path id="J" d="M1169.51 1257.1h-40.372c-8.542 0-15.542-6.738-15.542-14.976v-38.945c0-8.237 7-14.98 15.542-14.98h40.372c8.537 0 15.542 6.742 15.542 14.98v38.945c0 8.238-7 14.98-15.542 14.98"/></defs><g transform="translate(-8840 -1546)"><path fill="#225cff" d="M8840 1546h960v1080h-960z"/><g clip-path="url(#B)" transform="translate(8359.5 1544.188)"><g fill="#2055eb"><circle cx="468.613" cy="60.982" r="12.653"/><path d="M589.334 54.692L562.467 9.528a12.45 12.45 0 0 0-4.919-5.814h0c-2.867-1.795-6.34-2.35-9.622-1.538l-.663.186-.372.1c-3.3 1.063-6 3.455-7.472 6.6l-17.665 28.23-17.45-29.33c-3.56-5.903-11.217-7.823-17.14-4.3s-7.9 11.17-4.402 17.114l27.792 46.72c2.545 3.646 6.742 5.78 11.187 5.694s8.554-2.387 10.954-6.13l17.86-28.54 17.237 28.976c3.56 5.903 11.217 7.823 17.14 4.3s7.9-11.17 4.402-17.114z"/><circle cx="686.996" cy="60.982" r="12.653"/><path d="M807.717 54.692L780.852 9.528a12.47 12.47 0 0 0-4.919-5.814h0c-2.866-1.795-6.338-2.35-9.62-1.538l-.663.186-.373.1a12.45 12.45 0 0 0-7.472 6.6l-17.665 28.23-17.45-29.33c-3.54-5.95-11.23-7.903-17.18-4.365s-7.903 11.23-4.365 17.18l27.792 46.72a13.32 13.32 0 0 0 22.142-.434l17.86-28.54 17.238 28.976c2.275 3.877 6.453 6.24 10.948 6.19s8.62-2.503 10.808-6.43 2.107-8.725-.214-12.574z"/><circle cx="905.378" cy="60.982" r="12.653"/><path d="M1026.1 54.692L999.233 9.528a12.47 12.47 0 0 0-4.919-5.814h0c-2.867-1.795-6.34-2.35-9.623-1.538l-.663.186-.372.1c-3.302 1.063-6.01 3.455-7.474 6.6l-17.667 28.23-17.444-29.33c-2.275-3.877-6.453-6.24-10.948-6.19s-8.62 2.503-10.808 6.43-2.107 8.725.214 12.574l27.792 46.72a13.32 13.32 0 0 0 22.139-.436l17.86-28.54 17.237 28.976c3.565 5.9 11.214 7.803 17.13 4.283s7.888-11.154 4.413-17.098z"/><circle cx="1123.761" cy="60.982" r="12.653"/><path d="M1244.485 54.692l-26.868-45.164a12.45 12.45 0 0 0-4.918-5.814h0c-2.867-1.795-6.34-2.35-9.622-1.538l-.662.186-.373.1a12.45 12.45 0 0 0-7.473 6.6l-17.665 28.23-17.45-29.33c-2.275-3.877-6.453-6.24-10.948-6.19s-8.62 2.503-10.808 6.43-2.107 8.725.214 12.574l27.792 46.72c2.546 3.646 6.742 5.78 11.187 5.694s8.554-2.387 10.955-6.13l17.858-28.54 17.238 28.976c3.56 5.903 11.217 7.823 17.14 4.3s7.9-11.17 4.402-17.114z"/><circle cx="1342.144" cy="60.982" r="12.653"/><path d="M1462.864 54.692L1436 9.528c-.993-2.404-2.713-4.437-4.92-5.814h0a12.48 12.48 0 0 0-9.621-1.538l-.663.186-.372.1a12.44 12.44 0 0 0-7.472 6.6l-17.667 28.23-17.448-29.33c-2.275-3.877-6.453-6.24-10.948-6.19s-8.62 2.503-10.808 6.43-2.107 8.725.214 12.574l27.794 46.72a13.32 13.32 0 0 0 22.141-.436l17.86-28.54 17.236 28.976c2.275 3.877 6.453 6.24 10.948 6.19s8.62-2.503 10.808-6.43 2.107-8.725-.214-12.574z"/><circle cx="468.613" cy="229.148" r="12.653"/><path d="M589.334 222.86l-26.867-45.164a12.45 12.45 0 0 0-4.919-5.814h0c-2.867-1.795-6.34-2.35-9.622-1.538l-.663.186-.372.11a12.46 12.46 0 0 0-7.472 6.6l-17.665 28.23-17.45-29.33c-3.56-5.903-11.217-7.823-17.14-4.3s-7.9 11.17-4.402 17.114l27.792 46.72c2.546 3.645 6.742 5.78 11.187 5.692s8.554-2.386 10.954-6.128l17.86-28.54 17.237 28.976c3.56 5.903 11.217 7.823 17.14 4.3s7.9-11.17 4.402-17.114z"/><circle cx="686.996" cy="229.148" r="12.653"/><path d="M807.717 222.86l-26.865-45.164a12.47 12.47 0 0 0-4.919-5.814h0c-2.866-1.795-6.338-2.35-9.62-1.538l-.663.186-.373.11a12.46 12.46 0 0 0-7.472 6.6l-17.665 28.23-17.45-29.33c-3.54-5.95-11.23-7.903-17.18-4.365s-7.903 11.23-4.365 17.18l27.792 46.72c2.545 3.645 6.74 5.78 11.186 5.693s8.554-2.386 10.954-6.13l17.86-28.54 17.238 28.976c2.275 3.877 6.453 6.24 10.948 6.19s8.62-2.503 10.808-6.43 2.107-8.725-.214-12.574z"/><circle cx="905.378" cy="229.148" r="12.653"/><path d="M1026.1 222.86l-26.867-45.164a12.47 12.47 0 0 0-4.919-5.814h0c-2.867-1.795-6.34-2.35-9.623-1.538l-.663.186-.372.11a12.46 12.46 0 0 0-7.472 6.6l-17.667 28.23-17.446-29.33c-2.275-3.877-6.453-6.24-10.948-6.19s-8.62 2.503-10.808 6.43-2.107 8.725.214 12.574l27.792 46.72c2.546 3.644 6.74 5.78 11.186 5.69s8.553-2.386 10.953-6.127l17.86-28.54 17.237 28.976c3.565 5.9 11.214 7.803 17.13 4.283s7.888-11.154 4.413-17.098z"/><circle cx="1123.761" cy="229.148" r="12.653"/><path d="M1244.485 222.86l-26.868-45.164a12.45 12.45 0 0 0-4.918-5.814h0c-2.867-1.795-6.34-2.35-9.622-1.538l-.662.186-.373.11a12.46 12.46 0 0 0-7.473 6.6l-17.665 28.23-17.45-29.33c-2.275-3.877-6.453-6.24-10.948-6.19s-8.62 2.503-10.808 6.43-2.107 8.725.214 12.574l27.792 46.72a13.33 13.33 0 0 0 22.142-.436l17.858-28.54 17.238 28.976c3.538 5.95 11.23 7.903 17.18 4.365s7.903-11.23 4.365-17.18z"/><circle cx="1342.144" cy="229.148" r="12.653"/><path d="M1462.864 222.86l-26.866-45.164c-.993-2.404-2.713-4.437-4.92-5.814h0a12.48 12.48 0 0 0-9.621-1.538l-.663.186-.372.11c-3.3 1.064-6.01 3.456-7.472 6.6l-17.667 28.23-17.447-29.33c-2.275-3.877-6.453-6.24-10.948-6.19s-8.62 2.503-10.808 6.43-2.107 8.725.214 12.574l27.794 46.72c2.546 3.645 6.742 5.78 11.187 5.693s8.554-2.386 10.954-6.13l17.86-28.54 17.236 28.976c2.275 3.877 6.453 6.24 10.948 6.19s8.62-2.503 10.808-6.43 2.107-8.725-.214-12.574z"/><circle cx="468.613" cy="397.316" r="12.653"/><path d="M589.334 391.026l-26.867-45.164a12.45 12.45 0 0 0-4.919-5.814h0c-2.867-1.794-6.34-2.35-9.622-1.538l-.663.187-.372.11a12.46 12.46 0 0 0-7.472 6.6l-17.665 28.23-17.45-29.33c-3.56-5.903-11.217-7.823-17.14-4.3s-7.9 11.17-4.402 17.114l27.792 46.72c2.546 3.645 6.742 5.78 11.187 5.693s8.554-2.387 10.954-6.13l17.86-28.54 17.237 28.977c3.56 5.903 11.217 7.823 17.14 4.3s7.9-11.17 4.402-17.114z"/><circle cx="686.996" cy="397.316" r="12.653"/><path d="M807.717 391.026l-26.865-45.164a12.47 12.47 0 0 0-4.919-5.814h0c-2.867-1.794-6.338-2.35-9.62-1.538l-.663.187-.373.11a12.46 12.46 0 0 0-7.472 6.6l-17.665 28.23-17.45-29.33c-3.54-5.95-11.23-7.903-17.18-4.365s-7.903 11.23-4.365 17.18l27.792 46.72a13.32 13.32 0 0 0 22.14-.437l17.86-28.54 17.238 28.977c2.275 3.877 6.453 6.24 10.948 6.19s8.62-2.503 10.808-6.43 2.107-8.725-.214-12.574z"/><circle cx="905.378" cy="397.316" r="12.653"/><path d="M1026.1 391.026l-26.867-45.164a12.47 12.47 0 0 0-4.919-5.814h0a12.5 12.5 0 0 0-9.623-1.538l-.663.187-.372.11a12.46 12.46 0 0 0-7.472 6.6l-17.667 28.23-17.446-29.33c-2.275-3.877-6.453-6.24-10.948-6.19s-8.62 2.503-10.808 6.43-2.107 8.725.214 12.574l27.792 46.72c2.545 3.645 6.74 5.78 11.186 5.692s8.553-2.387 10.953-6.13l17.86-28.54 17.237 28.977c3.565 5.9 11.214 7.803 17.13 4.283s7.888-11.154 4.413-17.098z"/><circle cx="1123.761" cy="397.316" r="12.653"/><path d="M1244.485 391.026l-26.868-45.164a12.45 12.45 0 0 0-4.918-5.814h0c-2.867-1.794-6.34-2.35-9.622-1.538l-.662.187-.373.11a12.46 12.46 0 0 0-7.473 6.6l-17.665 28.23-17.45-29.33c-2.275-3.877-6.453-6.24-10.948-6.19s-8.62 2.503-10.808 6.43-2.107 8.725.214 12.574l27.792 46.72c2.546 3.645 6.742 5.78 11.188 5.692s8.554-2.387 10.954-6.13l17.858-28.54 17.238 28.977c3.56 5.903 11.217 7.823 17.14 4.3s7.9-11.17 4.402-17.114z"/><circle cx="1342.144" cy="397.316" r="12.653"/><path d="M1462.864 391.026l-26.866-45.164c-.993-2.404-2.713-4.437-4.92-5.814h0a12.49 12.49 0 0 0-9.621-1.538l-.663.187-.372.11c-3.3 1.064-6.01 3.456-7.472 6.6l-17.667 28.23-17.447-29.33c-2.275-3.877-6.453-6.24-10.948-6.19s-8.62 2.503-10.808 6.43-2.107 8.725.214 12.574l27.794 46.72c2.545 3.646 6.742 5.782 11.187 5.694s8.554-2.387 10.954-6.13l17.86-28.54 17.236 28.977c2.275 3.877 6.453 6.24 10.948 6.19s8.62-2.503 10.808-6.43 2.107-8.725-.214-12.574z"/><circle cx="905.346" cy="565.482" r="12.653"/><path d="M1026.068 559.19L999.2 514.028c-.993-2.404-2.713-4.437-4.92-5.815h0a12.49 12.49 0 0 0-9.623-1.538l-.663.187-.372.11a12.46 12.46 0 0 0-7.472 6.6l-17.667 28.23-17.447-29.33c-3.54-5.95-11.23-7.902-17.18-4.363s-7.902 11.23-4.363 17.18l27.792 46.72c2.545 3.645 6.74 5.78 11.186 5.692s8.553-2.387 10.953-6.13l17.86-28.54 17.237 28.977c3.553 5.917 11.222 7.848 17.153 4.32s7.895-11.19 4.39-17.135z"/><circle cx="687.298" cy="565.482" r="12.653"/><path d="M808.02 559.19l-26.867-45.163c-.993-2.404-2.713-4.437-4.92-5.815h0a12.49 12.49 0 0 0-9.623-1.538l-.663.187-.372.11a12.46 12.46 0 0 0-7.472 6.6l-17.667 28.23L723 512.47c-3.54-5.95-11.23-7.902-17.18-4.363s-7.902 11.23-4.363 17.18l27.792 46.72c2.545 3.645 6.74 5.78 11.186 5.692s8.553-2.387 10.953-6.13l17.86-28.54 17.237 28.977c3.553 5.917 11.222 7.848 17.153 4.32s7.895-11.19 4.39-17.135z"/><circle cx="469.249" cy="565.482" r="12.653"/><path d="M589.97 559.19l-26.867-45.163c-.993-2.404-2.713-4.437-4.92-5.815h0a12.49 12.49 0 0 0-9.623-1.538l-.663.187-.372.11a12.46 12.46 0 0 0-7.472 6.6l-17.667 28.23-17.447-29.33c-3.54-5.95-11.23-7.902-17.18-4.363s-7.902 11.23-4.363 17.18l27.792 46.72c2.545 3.645 6.74 5.78 11.186 5.692s8.553-2.387 10.953-6.13l17.86-28.54 17.237 28.977c3.553 5.917 11.222 7.848 17.153 4.32s7.895-11.19 4.39-17.135z"/><circle cx="1123.745" cy="565.482" r="12.653"/><path d="M1244.47 559.19l-26.868-45.163a12.45 12.45 0 0 0-4.918-5.815h0a12.49 12.49 0 0 0-9.622-1.538l-.662.187-.373.11a12.46 12.46 0 0 0-7.473 6.6l-17.665 28.23-17.448-29.33c-3.54-5.95-11.23-7.902-17.18-4.363s-7.902 11.23-4.363 17.18l27.792 46.72c2.546 3.645 6.742 5.78 11.188 5.692s8.554-2.387 10.954-6.13l17.858-28.54 17.238 28.977c3.54 5.95 11.23 7.902 17.18 4.363s7.902-11.23 4.363-17.18z"/><circle cx="1342.144" cy="565.482" r="12.653"/><path d="M1462.864 559.19l-26.866-45.163a12.47 12.47 0 0 0-4.919-5.815h0c-2.866-1.794-6.338-2.35-9.62-1.538l-.663.187-.372.11c-3.3 1.064-6.01 3.456-7.472 6.6l-17.667 28.23-17.447-29.33c-3.54-5.95-11.23-7.902-17.18-4.363s-7.902 11.23-4.363 17.18l27.794 46.72c2.545 3.646 6.742 5.782 11.187 5.694s8.554-2.387 10.954-6.13l17.86-28.54 17.236 28.977c3.54 5.95 11.23 7.902 17.18 4.363s7.902-11.23 4.363-17.18z"/><circle cx="468.613" cy="733.649" r="12.653"/><path d="M589.334 727.36l-26.867-45.164a12.45 12.45 0 0 0-4.919-5.814h0c-2.867-1.795-6.34-2.35-9.622-1.538l-.663.187-.372.11c-3.302 1.063-6 3.455-7.472 6.6l-17.665 28.23-17.45-29.332c-3.56-5.903-11.217-7.823-17.14-4.3s-7.9 11.17-4.402 17.114l27.792 46.72c2.545 3.646 6.74 5.782 11.187 5.694s8.554-2.387 10.954-6.13l17.86-28.54 17.237 28.976c3.56 5.903 11.217 7.823 17.14 4.3s7.9-11.17 4.402-17.114z"/><circle cx="686.996" cy="733.649" r="12.653"/><path d="M807.717 727.36l-26.865-45.164a12.47 12.47 0 0 0-4.919-5.814h0c-2.866-1.795-6.338-2.35-9.62-1.538l-.663.187-.373.11c-3.3 1.063-6 3.455-7.472 6.6l-17.665 28.23-17.45-29.332c-3.54-5.95-11.23-7.903-17.18-4.364s-7.903 11.23-4.365 17.18l27.792 46.72a13.32 13.32 0 0 0 22.14-.436l17.86-28.54 17.238 28.976c3.54 5.95 11.23 7.902 17.18 4.364s7.902-11.23 4.363-17.178z"/><circle cx="905.378" cy="733.649" r="12.653"/><path d="M1026.1 727.36l-26.867-45.164a12.47 12.47 0 0 0-4.919-5.814h0c-2.867-1.795-6.34-2.35-9.623-1.538l-.663.187-.372.11c-3.302 1.063-6 3.455-7.472 6.6l-17.667 28.23-17.447-29.33c-2.275-3.877-6.453-6.24-10.948-6.19s-8.62 2.503-10.808 6.43-2.107 8.725.214 12.574l27.792 46.72a13.32 13.32 0 0 0 22.139-.436l17.86-28.54 17.237 28.976c3.565 5.9 11.214 7.803 17.13 4.283s7.888-11.154 4.413-17.098z"/><circle cx="1123.761" cy="733.649" r="12.653"/><path d="M1244.485 727.36l-26.868-45.164a12.45 12.45 0 0 0-4.918-5.814h0c-2.867-1.795-6.34-2.35-9.622-1.538l-.662.187-.373.11c-3.302 1.063-6.01 3.455-7.473 6.6l-17.665 28.23-17.448-29.33c-2.275-3.877-6.453-6.24-10.948-6.19s-8.62 2.503-10.808 6.43-2.107 8.725.214 12.574l27.792 46.72c2.546 3.646 6.742 5.78 11.187 5.694s8.554-2.387 10.955-6.13l17.858-28.54 17.238 28.976c3.56 5.903 11.217 7.823 17.14 4.3s7.9-11.17 4.402-17.114z"/><circle cx="1342.144" cy="733.649" r="12.653"/><path d="M1462.864 727.36l-26.866-45.164c-.993-2.404-2.713-4.437-4.92-5.814h0a12.48 12.48 0 0 0-9.621-1.538l-.663.187-.372.11a12.44 12.44 0 0 0-7.472 6.6l-17.667 28.23-17.447-29.33c-2.275-3.877-6.453-6.24-10.948-6.19s-8.62 2.503-10.808 6.43-2.107 8.725.214 12.574l27.794 46.72a13.32 13.32 0 0 0 22.141-.436l17.86-28.54 17.236 28.976c2.275 3.877 6.453 6.24 10.948 6.19s8.62-2.503 10.808-6.43 2.107-8.725-.214-12.574z"/><circle cx="468.613" cy="901.815" r="12.653"/><path d="M589.334 895.525l-26.867-45.164a12.45 12.45 0 0 0-4.919-5.814h0c-2.867-1.795-6.34-2.35-9.622-1.538l-.663.186-.372.11a12.46 12.46 0 0 0-7.472 6.6l-17.665 28.23-17.45-29.333c-3.56-5.903-11.217-7.823-17.14-4.3s-7.9 11.17-4.402 17.114l27.792 46.72c2.545 3.646 6.74 5.782 11.187 5.694s8.554-2.387 10.954-6.13l17.86-28.54 17.237 28.976c3.56 5.903 11.217 7.823 17.14 4.3s7.9-11.17 4.402-17.114z"/><circle cx="686.996" cy="901.815" r="12.653"/><path d="M807.717 895.525l-26.865-45.164a12.47 12.47 0 0 0-4.919-5.814h0c-2.866-1.795-6.338-2.35-9.62-1.538l-.663.186-.373.11a12.46 12.46 0 0 0-7.472 6.6l-17.665 28.23-17.45-29.333c-3.54-5.95-11.23-7.903-17.18-4.364s-7.903 11.23-4.365 17.18l27.792 46.72a13.32 13.32 0 0 0 22.14-.436l17.86-28.54 17.238 28.976c2.275 3.877 6.453 6.24 10.948 6.19s8.62-2.503 10.808-6.43 2.107-8.725-.214-12.574z"/><circle cx="905.378" cy="901.815" r="12.653"/><path d="M1026.1 895.525l-26.867-45.164a12.47 12.47 0 0 0-4.919-5.814h0c-2.867-1.795-6.34-2.35-9.623-1.538l-.663.186-.372.11a12.46 12.46 0 0 0-7.472 6.6l-17.667 28.23-17.447-29.33c-3.54-5.95-11.23-7.902-17.178-4.364s-7.902 11.23-4.364 17.18l27.792 46.72a13.32 13.32 0 0 0 22.139-.436l17.86-28.54 17.237 28.976c3.565 5.9 11.214 7.803 17.13 4.283s7.888-11.154 4.413-17.098z"/><circle cx="1123.761" cy="901.815" r="12.653"/><path d="M1244.485 895.525l-26.868-45.164a12.45 12.45 0 0 0-4.918-5.814h0c-2.867-1.795-6.34-2.35-9.622-1.538l-.662.186-.373.11a12.46 12.46 0 0 0-7.473 6.6l-17.665 28.23-17.448-29.33c-3.54-5.95-11.23-7.902-17.178-4.364s-7.902 11.23-4.364 17.18l27.792 46.72c2.546 3.646 6.742 5.78 11.187 5.694s8.554-2.387 10.955-6.13l17.858-28.54 17.238 28.976c3.56 5.903 11.217 7.823 17.14 4.3s7.9-11.17 4.402-17.114z"/><circle cx="1342.144" cy="901.815" r="12.653"/><path d="M1462.864 895.525l-26.866-45.164c-.993-2.404-2.713-4.437-4.92-5.814h0a12.48 12.48 0 0 0-9.621-1.538l-.663.186-.372.11c-3.3 1.064-6.01 3.456-7.472 6.6l-17.667 28.23-17.447-29.33c-3.54-5.95-11.23-7.902-17.178-4.363s-7.902 11.23-4.363 17.178l27.794 46.72a13.32 13.32 0 0 0 22.141-.436l17.86-28.54 17.236 28.976c2.275 3.877 6.453 6.24 10.948 6.19s8.62-2.503 10.808-6.43 2.107-8.725-.214-12.574z"/><circle cx="468.613" cy="1069.981" r="12.653"/><path d="M589.334 1063.692l-26.867-45.164a12.45 12.45 0 0 0-4.919-5.814h0a12.49 12.49 0 0 0-9.622-1.537l-.663.186-.372.11a12.46 12.46 0 0 0-7.472 6.6l-17.665 28.23-17.448-29.33c-3.56-5.903-11.217-7.823-17.14-4.3s-7.9 11.17-4.402 17.114l27.792 46.72c2.546 3.645 6.742 5.78 11.187 5.692s8.554-2.386 10.954-6.128l17.86-28.54 17.237 28.976c2.275 3.877 6.453 6.24 10.948 6.19s8.62-2.503 10.808-6.43 2.107-8.725-.214-12.574z"/><circle cx="686.996" cy="1069.981" r="12.653"/><path d="M807.717 1063.692l-26.865-45.164a12.47 12.47 0 0 0-4.919-5.814h0a12.49 12.49 0 0 0-9.621-1.537l-.663.186-.373.11a12.46 12.46 0 0 0-7.472 6.6l-17.665 28.23-17.447-29.33c-3.54-5.95-11.23-7.903-17.18-4.364s-7.903 11.23-4.365 17.18l27.792 46.72c2.545 3.645 6.74 5.78 11.186 5.693s8.554-2.386 10.954-6.13l17.86-28.54 17.238 28.976c2.275 3.877 6.453 6.24 10.948 6.19s8.62-2.503 10.808-6.43 2.107-8.725-.214-12.574z"/><circle cx="905.378" cy="1069.981" r="12.653"/><path d="M1026.1 1063.692l-26.867-45.164a12.47 12.47 0 0 0-4.919-5.814h0a12.49 12.49 0 0 0-9.623-1.537l-.663.186-.372.11a12.46 12.46 0 0 0-7.472 6.6l-17.667 28.23-17.447-29.33c-2.275-3.877-6.453-6.24-10.948-6.19s-8.62 2.503-10.808 6.43-2.107 8.725.214 12.574l27.792 46.72c2.546 3.645 6.74 5.78 11.186 5.692s8.553-2.386 10.953-6.128l17.86-28.54 17.237 28.976c3.565 5.9 11.214 7.803 17.13 4.283s7.888-11.154 4.413-17.098z"/><circle cx="1123.761" cy="1069.981" r="12.653"/><path d="M1244.485 1063.692l-26.868-45.164a12.45 12.45 0 0 0-4.918-5.814h0a12.49 12.49 0 0 0-9.622-1.537l-.662.186-.373.11a12.46 12.46 0 0 0-7.473 6.6l-17.665 28.23-17.448-29.33c-2.275-3.877-6.453-6.24-10.948-6.19s-8.62 2.503-10.808 6.43-2.107 8.725.214 12.574l27.792 46.72a13.33 13.33 0 0 0 22.142-.436l17.858-28.54 17.238 28.976c3.56 5.903 11.217 7.823 17.14 4.3s7.9-11.17 4.402-17.114z"/><circle cx="1342.144" cy="1069.981" r="12.653"/><path d="M1462.864 1063.692L1436 1018.528c-.993-2.404-2.713-4.437-4.92-5.814h0c-2.867-1.794-6.338-2.35-9.62-1.537l-.663.186-.372.11c-3.3 1.064-6.01 3.456-7.472 6.6l-17.667 28.23-17.447-29.33c-2.275-3.877-6.453-6.24-10.948-6.19s-8.62 2.503-10.808 6.43-2.107 8.725.214 12.574l27.793 46.72c2.545 3.646 6.742 5.78 11.187 5.694s8.554-2.387 10.954-6.13l17.86-28.54 17.236 28.976c2.275 3.877 6.453 6.24 10.948 6.19s8.62-2.503 10.808-6.43 2.107-8.725-.214-12.574z"/></g><g transform="translate(-403.5 -174.83)"><circle cx="168.041" cy="168.041" r="168.041" transform="matrix(.241922 .970296 -.970296 .241922 1437 154.643)" opacity=".077" fill="url(#C)"/><g fill="#3c4dd2"><use xlink:href="#J"/><path d="M1093.6 1232.3V897.426h185.785c22.125 0 40.015 17.223 40.015 38.586v257.7c0 21.363-17.9 38.586-40.015 38.586z"/></g><path d="M1162.187 1203.36l4.335-304.58 118.158-1.353c19.1 0 34.7 15.07 34.7 33.49v238.953c0 18.42-15.606 33.492-34.7 33.492z" fill="url(#D)"/><path d="M1285.3 1011.806h-120.265l4.256-113.874 116.01-.506c18.757 0 34.08 5.633 34.08 12.52v89.34c0 6.887-15.322 12.52-34.08 12.52" fill="url(#E)"/><path d="M1663.664 1036.612H1436.72c-15.775 0-28.725-12.486-28.725-27.756V925.18c0-15.265 12.95-27.753 28.725-27.753h226.944c15.776 0 28.725 12.488 28.725 27.753v83.677c0 15.267-12.95 27.756-28.725 27.756" fill="#c5473d"/><path d="M1883.74 1093.114h-458.413c-14.254 0-25.906-11.253-25.906-25.005v-17.52c0-13.748 11.652-25 25.906-25h458.413c14.224 0 25.875 11.252 25.875 25v17.52c0 13.752-11.652 25-25.875 25" fill="#da5240"/><path d="M1452.287 1025.588h0c-16.515 0-30-13.24-30-29.418v-61.054c0-16.18 13.48-29.42 30-29.42s30.023 13.242 30.023 29.42v61.053c0 16.18-13.512 29.418-30.027 29.418" fill="#e15e4b"/><path d="M1848.188 1112.406h-245.826c-44.986 0-81.466-32.155-81.466-71.825V805.264c0-39.67 36.48-71.83 81.466-71.83h245.826c44.986 0 81.435 32.158 81.435 71.83v235.317c0 39.67-36.45 71.826-81.435 71.826" fill="#534756"/><path d="M1596.676 1184.067h-293.043c-53.66 0-97.143-38.71-97.143-86.455V814.374c0-47.746 43.482-86.45 97.143-86.45h293.043c53.66 0 97.143 38.705 97.143 86.45v283.238c0 47.746-43.482 86.454-97.143 86.454" fill="#3546c7"/><path d="M1729.944 1184.067H1369.01c-66.093 0-119.648-38.71-119.648-86.455V814.374c0-47.746 53.555-86.45 119.648-86.45h360.933c66.093 0 119.648 38.705 119.648 86.45v283.238c0 47.746-53.555 86.454-119.648 86.454" fill="#3c4dd2"/><path d="M1319.57 1257.1h-40.372c-8.542 0-15.542-6.738-15.542-14.976v-38.945c0-8.237 7-14.98 15.542-14.98h40.372c8.537 0 15.542 6.742 15.542 14.98v38.945c0 8.238-7 14.98-15.542 14.98" fill="#b53c36"/><path d="M1161.675 1257.105l.668-137.808h585.783c8.033 0 14.29 7.53 14.29 16.5v103.986c0 8.975-6.26 16.5-14.29 16.5z" fill="#3c4dd2"/><path d="M1770.64 1072.442H1192.55c-5.587.11-10.213-4.313-10.356-9.9v-42.214c.142-5.586 4.77-10.01 10.356-9.9h578.088c5.587-.11 10.214 4.314 10.356 9.9v42.214c-.142 5.586-4.77 10.01-10.356 9.9" fill="#4758e2"/><path d="M1207.92 1225.408h38.586v-26.183h-38.586v26.183" fill="#dad0c2"/><path d="M1246.505 1252.97h-102.897c-1.228-13.705 9.603-24.805 24.295-24.805h78.6v24.805" fill="#eea43a"/><path d="M1143.61 1257.104h102.9v-6.9h-102.9v6.9" fill="#534756"/><path d="M1205.928 1217.14h17.182c5.565 9.044 15.648 7.91 21.274 0h2.12v11.025h-52.877z" fill="#eea43a"/><path d="M1306.528 1226.787h38.586v-27.562h-38.586v27.562" fill="#dad0c2"/><path fill="#3647c8" d="M1237.93 1072.442h487.33v48.233h-487.33z"/><path d="M1256.51 1251.592c-1.073-13.7 8.276-24.805 21.437-24.805h14.44l11.04-9.647h17.644c5.714 9.04 16.082 7.9 21.856 0h2.187v34.452z" fill="#eea43a"/><path d="M1256.51 1251.592h51.448v-8.268c.326-9.293-5.183-16.537-12.862-16.537H1270.8c-7.607 0-13.64 7.244-14.29 16.537v8.268" fill="#fdb040"/><path d="M1256.51 1257.104h88.605v-6.9h-88.605v6.9" fill="#534756"/><g fill="#3a353c"><path d="M1392.54 976.75c-155.85-13.84-196.864 9.9-194.532 127.448l3.638 110.188h48.6s-13.93-183.7 27.583-184.642c90.643-2.038 131.6 5.313 131.6 5.313l-16.89-58.307"/><path d="M1457.838 1037.99l-119.87-1.36 12.644-66.165 141.7 1.678c0 63.28-7.786 65.847-34.475 65.847"/><path d="M1485.168 977.355c-149.915-14.445-189.368 9.304-187.214 126.783l4.13 110.246h46.8c-.593 0-13.993-183.71 26.155-184.662 86.975-2.017 101.57 2.386 101.867 2.756l8.26-55.123"/></g><path d="M1337.866 852.64c8.155-22.982-2.9-77.188 13.638-97.74 0 0 35.617 9.062 33.532 61.208-1.526 38.65-8.684 139.552-151.393 134.908l.187-30.475s76.77 8.834 104.036-67.902z" fill="#e0e0db"/><path d="M1455.156 754.226v-26.29l-58.623-1.392-1.4 28.94z" fill="#c6c3ba"/><path d="M1447.573 738.42c5.073 27.7-35.543 38.13-40.616 10.434l-10.395-56.418 39.682-12.747 11.33 58.73" fill="#f1b08c"/><path d="M1465.16 749.1l-3.876 231.93-89.017.46 11.658-239.785 27.688 17.514 25.642 1.353 27.9-11.473" fill="#e0e0db"/><path d="M1404.048 984.245a66.43 66.43 0 0 1-4.226-9.741q-1.05 4-2.214 7.846l-56.78 1.895 8.612-133.616-.83-22.267 2.738-73.376c4.706-4.14 38.448-17.417 38.448-17.417l21.615 80.9 44.592-85.034s23.594 13.68 33.925 17.045l10.957 67.5-8.712 166.265z" fill="#c5c5c5"/><g fill="#f4f4f1"><path d="M1415.14 759.623l40.015-31.7 14.29 9.647-28.582 49.6-25.724-27.557"/><path d="M1380.842 736.192l7.962 44.26 26.7-20.844c0 .54-12.6-13.9-18.945-33.063z"/></g><path d="M1373.697 962.197l-22.12-9.7c-5.748-2.515-12.398-1.795-17.474 1.893l-27.576 20.21h67.168v-12.4z" fill="#f7c1a2"/><path d="M1265.08 921.185l-25.282-8.6-36.165 24.593h62.877l4.29.212-5.72-16.205" fill="#d98567"/><g fill="#e0e0db"><path d="M1369.41 955.306l1.694 23.427h9.74v-23.427h-11.433"/><path d="M1373.697 952.555s126.223-36.404 112.04-203.96c0 0 39.82 15.62 32.93 66.62-5.06 37.794-2.11 165.186-143.976 160.644l-.993-23.303"/></g><path d="M1305.1 984.246h128.62c0-4.6-5.232-9.647-10-9.647H1305.1z" fill="#ebece9"/><path d="M1338.524 984.245H1184.72l-11.634-.146-29.1-104.88c-1.648-5.93 2.26-10.73 8.703-10.73h158.08s-4.122 4.8-2.473 10.73l26.077 94.3c1.65 5.927 10.6 10.73 4.153 10.73" fill="#aeb0be"/><path d="M1310.815 868.487h0c-8.246 0-9.712 4.9-8.576 11.025l32.87 104.734h7.146l-1.43-13.78" fill="#ebece9"/><path d="M1249.3 933.257c.815 7.612-5.233 13.78-13.475 13.78s-15.575-6.17-16.39-13.78 5.233-13.78 13.475-13.78 15.574 6.17 16.39 13.78" fill="#fffffe"/><path d="M1137.892 953.238c0 30.825-19.83 55.812-44.282 55.812-24.487 0-44.323-24.987-44.323-55.812s19.836-55.812 44.323-55.812c24.452 0 44.282 24.987 44.282 55.812" fill="#3c4dd2"/><g fill="#534756"><path d="M1297.953 1214.384h57.165v-20.67h-57.165zm-102.896 0h57.165v-20.67h-57.165z"/></g><path d="M1364.264 673.875s.764 2.83 3.574-8.806c3.763-15.612 7.398-51.465 14.76-52.836 2.047-.38 16.313-3.028 9.073-6.87-12.066-6.4-26.76 10.004-27.307 14.685-2.875 16.294-2.692 36.126-.1 53.828" fill="#68493e"/><path d="M1367.648 618.016s-1.454 28.97-.464 33.457c1.176 5.3-3.186 11.628-3.186 11.628s-2.568 2.843-1.454 13.16c.526 4.735 7.734 23.914 12.56 34.39 2.815 6.1 8.167 10.94 15.066 10.33 15.035-1.334 41.144-11.67 51.075-30.195 14.91-27.866.526-67.345.526-67.345s-46.033-24.41-74.123-5.425" fill="#f7c1a2"/><path d="M1366.55 632.836c34.58-7.077 62.75-5.15 72.885 4.134 1.523 1.12 3.5 3.11 2.858 4.134-.376 23.6-7.75 33.954-2.858 58.486l2.425 9.54c7.966-2.084 21.084-21.892 24.728-29.44 7.736-19.9 15.22-60.134-11.433-63.392-.344-.59.244-.507 0-1.378.182-13.106-9.28-18.32-30.01-20.672-60.658-7.055-66.317 16.378-65.74 27.562.196 2.988 3.964 11.822 7.146 11.025z" fill="#68493e"/><path d="M1438.8 670.308c-3.467 6.506-2.832 13.512 1.478 15.65 4.282 2.14 10.583-1.4 14.05-7.91 3.497-6.506 2.834-13.513-1.448-15.65-4.313-2.14-10.613 1.403-14.08 7.91" fill="#f1b08c"/><path d="M1437.66 682.43l-2.532-.2a4.5 4.5 0 0 1-4.251-4.779l3.907-44.694c.3-2.483 2.51-4.28 5-4.04l2.532.2a4.54 4.54 0 0 1 4.251 4.776l-3.907 44.7c-.29 2.482-2.513 4.276-5 4.038" fill="#68493e"/><path d="M1885.523 1257.1h-40.39c-8.572 0-15.55-6.738-15.55-14.976v-38.945c0-8.237 6.977-14.98 15.55-14.98h40.39c8.54 0 15.518 6.742 15.518 14.98v38.945c0 8.238-6.977 14.98-15.518 14.98" fill="#534756"/><path d="M1897.74 1233.677h-122.462l4.335-334.766 118.127-1.485c19.1 0 34.74 16.564 34.74 36.81v262.633c0 20.245-15.637 36.81-34.74 36.81" fill="#635768"/><g fill="#726877"><path d="M1897.74 1013.184h-122.462l4.335-115.246 118.127-.512c19.1 0 34.74 5.7 34.74 12.67v90.417c0 6.97-15.637 12.67-34.74 12.67"/><path d="M1816.723 953.238c0 30.825-19.825 55.812-44.3 55.812s-44.305-24.987-44.305-55.812 19.825-55.812 44.3-55.812 44.3 24.987 44.3 55.812m135.772 0c0 30.825-19.825 55.812-44.3 55.812-24.448 0-44.305-24.987-44.305-55.812s19.857-55.812 44.3-55.812c24.477 0 44.3 24.987 44.3 55.812"/></g><g transform="translate(1145.287 259.603)"><g transform="translate(91.464)"><g transform="translate(-352.75 -82.96)" filter="url(#A)"><path d="M0,72.144A27.127,27.127,0,0,1,9.356,51.75L64.76,3.182a20.552,20.552,0,0,1,27.326.369l52.058,48.268a27.094,27.094,0,0,1,8.772,19.867V139.88c0,11.416-9.6,20.671-21.437,20.671H21.437C9.6,160.551,0,151.3,0,139.88Z" transform="translate(352.75 84.8)" fill="#e3ecf3"/></g><g clip-path="url(#F)"><g transform="translate(-352.75 -82.96)" filter="url(#G)"><circle cx="428.195" cy="144.195" r="31.145" fill="#fbba00"/></g><g transform="translate(-352.75 -82.96)" filter="url(#H)"><path d="M0,0,68.13,47.107a14.723,14.723,0,0,0,16.656,0L152.916,0V86.556a14.043,14.043,0,0,1-14.291,13.781H14.291A14.043,14.043,0,0,1,0,86.556Z" transform="translate(352.75 145.01)" fill="#fdfeff"/></g><g transform="translate(-352.75 -82.96)" filter="url(#I)"><path d="M68.13,1.589a14.723,14.723,0,0,1,16.656,0L152.916,48.7H0Z" transform="translate(352.75 196.65)" fill="#fff"/></g><path d="M85.26 72.65h-1.253v-2.088c-.004-.716-.13-1.427-.375-2.1l-.045-.106c-.203-.553-.484-1.075-.833-1.55L81 64.468c-.487-.652-.75-1.443-.752-2.256v-1.268c.003-.996.398-1.95 1.1-2.657l.823-.823a6.2 6.2 0 0 0 1.749-3.556c0-.017.01-.032.01-.05v-.017c.044-.267.07-.536.08-.806V50.1h1.253c.692 0 1.253-.56 1.253-1.253s-.56-1.253-1.253-1.253H67.72c-.692 0-1.253.56-1.253 1.253s.56 1.253 1.253 1.253h1.255v2.935c.01.27.035.54.08.806v.017c0 .018.01.032.01.05a6.2 6.2 0 0 0 1.749 3.556l.823.823c.702.706 1.097 1.66 1.1 2.657v1.265c-.004.814-.27 1.605-.76 2.256l-1.75 2.34a6.24 6.24 0 0 0-.832 1.55l-.045.1a6.27 6.27 0 0 0-.375 2.1v2.088H67.72c-.692 0-1.253.56-1.253 1.253s.56 1.253 1.253 1.253h17.54c.692 0 1.253-.56 1.253-1.253s-.56-1.253-1.253-1.253zM71.476 52.605V50.1H81.5v2.505zm1.1 3.087a3.72 3.72 0 0 1-.472-.581h8.772a3.72 3.72 0 0 1-.472.581l-.823.823c-.98.97-1.607 2.24-1.785 3.607h-2.612c-.177-1.367-.804-2.635-1.78-3.607zm1.406 10.276a6.31 6.31 0 0 0 1.238-3.34h2.534c.083 1.21.514 2.37 1.24 3.34l1.253 1.67H72.73zm7.516 6.682H71.476v-2.088a3.7 3.7 0 0 1 .034-.417h9.954a3.7 3.7 0 0 1 .034.417z" fill="#fff"/></g></g><g fill="#fff"><circle cx="33.155" cy="314.924" r="18.864" opacity=".083"/><circle cx="13.352" cy="393.475" r="13.352" opacity=".05"/><circle cx="9.218" cy="458.245" r="9.218" opacity=".06"/><circle cx="19.222" cy="525.77" r="9.218" opacity=".05"/></g></g></g></g></g></svg>