<svg xmlns="http://www.w3.org/2000/svg" width="717" height="495.603"><defs><clipPath id="a"><path d="M5605.261 3234.255c-46.8 5.479-105.705-10.212-185.716 32.16-149.68 79.262-321.016 64.359-352.329-117.8s52.844-311.626 231.078-290.5c130.85 15.509 163.438 92.107 242.639 83.709 147.467-15.633 224.906 66.111 205.332 164.069s-78.782 121.078-141.004 128.362z" transform="translate(-5060.792 -2855.858)" fill="none"/></clipPath></defs><g clip-path="url(#a)" transform="translate(28.538 39.441)"><path d="M92.225 399.86c26.976-6.295 32.906-26.843 67.877-30.484 16.465-1.715 19.3 2.9 35.544 9.11 20.521 7.845 31.905-11.829 41.732-2.845a11.679 11.679 0 014.1 6.873 19.06 19.06 0 00-1.171-1.078c-10.215-8.641-20.744 11.393-41.6 4.251-16.512-5.654-19.545-10.165-35.934-7.894-34.8 4.818-34.937 26.713-67.328 28.158-10.327.46-19.412-1.6-29.623-2.854-.674-.082 6.746 1.349 26.403-3.237z" fill="#fff"/><path fill="#30313e" d="M-102.997-37.065h882.342v496.318h-882.342z"/><path d="M725.48-37.065c-14.987 18.146-56.2 66.288-76.648 72.609-20.9 6.461 49.033-52.143 73.851-72.609h-20.6c-22.258 17.988-42.935 39.66-67.045 53.774-73.926 43.276-144.842 38.664-225.129 21.594-31.571-6.713-61.4-14.392-93.874-10.156-27.712 3.616-57.01 20.477-80.649 34.511-61.3 36.392-124.781 90.151-201.932 70.356-43.31-11.112-96.065-35.811-136.451-11.842v27.6c9.861-5.759 25.063-11.2 43.657-6.614 33.547 8.272 86.855 30.79 112.59 22.978 0 0-24.815 21.139-64.337 14.247-28.849-5.032-71.159 4.382-91.911 9.834v55.1c54.239-20.384 124.087 2.788 180.539-7.407 50.428-9.107 81.687-38.822 108.418-80.094 19.4-29.958 51.185-65.214 80.822-85 21.856-14.593 45.824-8.708 69.458 1.088 80.792 33.486 183.1 108.177 272.7 56.932 38.423-21.977 45.188-62.915 68.291-96.183C688.905 16.84 704.103.479 718.736-14.04c6.842-6.788 13.413-15.255 20.531-23.028zm-376.277 81.8s34.007-4.6 62.5 21.6c-.001-.001-36.306 2.297-62.5-21.6z" fill="#3d4051"/><path d="M-102.997 264.978c32.1-8.071 64.68-23.951 98.871-20.908 38.02 3.383 67.248 36.392 104.779 9.005 29.329-21.4 41.718-58.781 75.047-75.185 21.361-10.514 45.993-5.3 61.428-26.167 12.573-17 22.043-36.715 34.3-53.565-25.778 4.5-25.479 24.946-39.809 43.6-18.759 24.423-42.552 10.729-65.953 25.375-16.235 10.163-23 28.238-36.683 40.543-13.821 12.433-37.236 25.249-55.722 27.873-27.313 3.875-52.449-5.287-78.6-10.1-16.893-3.11-72.145-7.024-97.66 4.938z" fill="#4d515e"/><path d="M-70.018 459.252h806.582c-.507-3.635-1.046-7.016-1.455-9.875-4.177-29.237-29.011-45.408-43.393-69.887-7.362-12.531-13.86-27.323-26.93-34.906-9.688-5.621-22.217-5.375-32.864-8.378-20.366-5.745-35.393-21.237-56.6-23.16-8.663-.785-16.338 1.017-24.624-2.461-8.515-3.573-12.576-11.11-20.952-15.26-19.324-9.574-41.229-1.321-60.973-1.523-39.107-.4-62.451-38.675-102.031-28.675-11.686 2.951-23.225 8.937-35.307 9.335-8.176.268-15.636-3.287-23.677-4.06-19.738-1.9-42.5 1.693-62.059 4.01-17.124 2.029-32.876 11.975-49.578 16.634-11.009 3.071-22.386 2.724-33.548 3.769-19.755 1.848-39.784 5.475-56.226 16.886-7.158 4.967-11.3 13.1-17.746 17.88-7.753 5.755-12.691 4.05-21.864 5.525-16.132 2.594-28.72 11.858-42.979 19.639-13.212 7.21-26.481 10.227-34.2 24.45-6.7 12.354-6.057 24.649-17.528 33.821-13.114 10.487-43.675 25.151-42.066 46.176.009.021.009.04.018.06z" fill="#3d4051"/><path d="M677.068 416.921c-.927-5.961-2.71-11.443-4.885-18.233-3.121-9.749-3.966-12.852-12.083-19.165-6.734-5.238-13.089-7.675-20.6-12.219-9.654-5.838-17.925-2.616-26.911.56q-15.74-9.612-32.749-18.108c-3.24-9.854-23.805-17.719-30.587-21.566-4.752-2.7-33.695-13.535-39.785-6.89a549.244 549.244 0 00-102.783-21.963c-.869-.739-1.546-1.332-1.875-1.672-13.206-13.659-22.055-11.388-40.018-11.385a458.9 458.9 0 00-49.883 2.907c-6.994.762-12.55 1.284-18.139 5.6a19.189 19.189 0 00-2.384 2.232 551.236 551.236 0 00-140.529 28.775 24.816 24.816 0 00-2.417-1.94c-13.061-9.326-22.428 1.736-33.559 7.168-.147 3.078-.433 6.152-.684 9.224q-17.789 7.854-34.4 16.908c-4.57-.275-9.728-.167-11.6-.354-14.891-1.485-19.066 1.58-28.367 12.544-8.978 10.583-23.6 10.308-32.7 19.6-6.972 7.113-6.486 15.1-5.61 23.521a320.662 320.662 0 00-42.245 46.784h752.274a317.673 317.673 0 00-37.481-42.328z" fill="#f9f191"/><path d="M28.866 459.254h628c-5.529-8.83-15.814-15.694-25.776-14.824-10.583.925-20.219 5.2-31.074 5.614-7.878.3-11.257-2.315-18.341-3.652-10.018-1.889-13.207 3.614-22.308 5.663-5.278 1.188-12.548-.114-17.96-.069-14.812.12-28.249 4.111-42.9 1.21-9.493-1.88-17.687-5.933-27.117-8.747-14-4.178-15.653-9.089-24.222-20.315-7.168-9.39-18.591-21.229-30.654-22.644-11.585-1.361-18.943 9.51-29.423 10.763-6.775.81-13.068-1.228-20.052-.069-9.322 1.546-19.121 2.691-28.851 4.87-13.879 3.109-18.638 15.776-33.715 17.512-12.428 1.432-25.706.971-38.252.947-14.916-.029-29.673 3.681-44.669 1.719-20.7-2.708-41.967-24.605-57.341-2.746-6.295 8.95-8.044 14.417-20.433 15.6-9.67.921-19.464 1.119-29.039 1.952-11.339.985-72.409-8.16-85.873 7.216z" fill="#fff8bb"/><path d="M99.534 357.834c3.446-1.537 11.9-3.376 14.5-6.018 2.807-2.854 1.291-7.162 2.128-11.1q-17.238 7.66-33.363 16.446c-.5-.03-1.009-.054-1.518-.077 2.487 1.23 5.286 3.941 7.456 4.292 3.466.559 7.296-1.977 10.797-3.543zM-7.684 448.873c3.055-4.453 5.257-9.531 9.394-12.8 6.433-5.089 13.91-3.024 8.736-12.758-1.843-3.468-3.813-7.445-6.479-10.336a320.256 320.256 0 00-41.7 46.279h21.293c2.545-3.624 6.47-7.051 8.756-10.385zm201.176-121.238c-2.339-5.818 23.646-12.021 29.379-12.99 17.965-3.038 12.93 5.155 7.853 16.623 5.6 1.1 11.727-2.324 17.35-2.635 7.319-.4 16.314-.272 23.217-3.07 8.445-3.424 3.083-8.022 7.3-14.251 2.665-3.94 9.39-6.207 13.724-6.206.676-2.639 1.225-5.437 1.921-8.072A551.745 551.745 0 00155.6 325.197c.065.122.128.244.2.367-.471.508-.32.933-1.384.867 7.281 10.094 28.554 1.8 39.076 1.204zm484.134 89.824a6.479 6.479 0 01-1.487-.325c-3.4-1.959-12.2.856-11.662 6.177.323 3.189 10.155 10.619 13.276 11.137 5.239.868 7.928-4.231 13.664.128 4.1 3.119 6.528 10.344 6.394 15.175-6.85 2.79-14.893.562-22.29.923a39.216 39.216 0 00-.68 8.58h39.7a317.411 317.411 0 00-36.915-41.795zm-84.034-53.674c2.2 2.741 4.542 12.9 3 16.287-2.09 4.6-8.773 4.323-11.3 7.631-7.17 9.369 11.394 9.73 16.036 3.146 2.531-3.59 4.717-11.538 7.066-15.847 1.243-2.279 1.2-3.811 2.89-6.009a6.278 6.278 0 012.473-1.539l-1.167.413q-15.739-9.611-32.749-18.108a10.707 10.707 0 00-.6-1.419c-.162.159-.324.313-.479.483-1.455 1.478-2.13 3.021-4.233 3.76-1.574 12.313 13.976 4.848 19.063 11.202zm-186.911-64.448l-.388-.333c5.835 12.016 16 20.234 28.495 22.092-1.145-2.387-2.487-5.121-2.739-7.742 6.59-4.636 21.031-2.714 27.884.574 9.03 4.331 6.659 7.4 4.114 13.692 11.006 2.208 24.235 10.608 35.368 9.46.709-6.292 6.609-6.116 8.874-10.427-.257.489.263-3.76.541-5.551a549.431 549.431 0 00-102.149-21.765z" fill="#e5d96a"/><path d="M10.451 403.324c-1.248-9.372 6.276-12.621 13.245-16.516 8.9-4.975 16.918-7.888 24.928-14.288 4.311-3.445 14.858-13.375 19.418-6.438 7.2 10.959-23.353 24.573-29.462 27.809-3.615 1.913-27.703 16.531-28.129 9.433zm112.64-69.766c1.962-2.066 22.514-15.49 18.746-3.8-.5 1.556-11.953 7.974-14.022 8.185-4.457.451-8.418-2.871-2.542-5.84zm182.411-36.338c7.848-.364 15.918-4.337 23.8-5.629 7.478-1.225 15.165-1.316 22.659-2 8.605-.787 16.51 1.631 24.922 2.561 6.094.674 18.817 4.375 7.725 9.891-6.9 3.431-17.7.256-25.137.959-8.938.844-17.423 2.242-26.508 2.215-6.709-.019-18.61 3.31-24.421-.73-3.362-2.337-5.864-8.386-3.04-7.267zm138.081 18.899c1.4-2.76 22.021-1.78 15.275 5.141-2.835 2.908-18.761 1.715-15.275-5.141zm76.308 10.172c3.661-3.256 54.656 9.748 50.841 21.466-1.956 6.002-52.214-8.411-50.841-21.466zm103.923 45.784c10.188-2.581 45.7 14.157 40.005 29.8-4.4 12.088-21.674-8.741-26.179-12.333-2.66-2.126-23.184-13.948-13.826-17.467zM92.569 436.028c-1.483-28.629 58.684-37.517 62.516-10.777 2.556 17.828-30.15 15.76-41.381 18.589-7.246 1.825-20.91.706-21.135-7.812z" fill="#e5d96a"/><path d="M40.243 433.847c6.208 8.388 18.165 11.178 27.987 11.627 14.494.663 8.381-8.644 14.325-19.053 6.487-11.357 29.579-21.135 41.989-22.37 10.783-1.073 20.8 3.646 30.416 3.524 1.441-6.307 6.583-21.2-.492-25.271-1 12.092-8.981 13.643-19.729 15.385-13.483 2.185-27.021 3.287-39.717 9.333-13.134 6.254-18.788 24.326-32.291 27.769-6.564 1.673-17.911-1.24-22.488-.944zm189.387-35.643c7.291-6.783 26.577-12.347 35.641-17.474 11.5-6.5 20.731-3.079 32.725-1.371 11.909 1.695 40.753 1.635 41.732 19.046 1.084 19.272-26.054 21.147-39.289 20.543-14.079-.64-36.3 9.675-49.03 1.48-4.341-2.792-26.294-18.609-21.779-22.224zm240.694-5.552c16.1 9.348 26.223-2.851 36.96 3.654 8.572 5.192 12.956 10.347 23.244 12.393 10.852 2.159 38.71 11.066 29.2 28.132-6.257 11.222-28.466 6.6-38.859 5.667-14.073-1.268-28.309-.031-42.317-1.678-14.97-1.759-23.711-14.507-27.566-26.134-5.338-16.083 9.991-27.745 19.338-22.034z" fill="#e5d96a"/><path d="M219.455 416.131c0-16.017-.606-17.957 11.678-26.379 11.455-7.853 19.357-12.417 33.113-15.5 10.457-2.344 18.2-6.894 29.609-5.652 11.134 1.213 30.032 3.853 40.159 8.53 7.533 3.479 12.431 17.843 19 18.48 1.854-5.594 7.606-4.4 10.143-8.261 1.553-2.365 3.608-11.811 4.338-14.846 1.968-8.176 1.628-4.2-2.687-8.652-2.688-2.775-7.011-6.139-9.691-8.691-6.288 14.772-30.552 22.346-26.314.065-8.876-1.51-18.744 1.5-26.5 3.841-12.4 3.746-26.9 2.879-40.163 5.949-14.763 3.418-24.256 19.079-38.108 21.1-11.3 1.647-17.961-16.505-28.016-4.96 3.6 5.333 8.069 9.5 9.907 15.885 1.117 3.875-.579 9.568.886 13.005 2.22 5.207 6.939 8.187 12.646 6.086zm223.862-26.074c6.08-8.708 19.979-7.763 29.6-7.271 12.506.639 27.562-2.585 39.579 1.028 6.521 1.96 11.267 7.225 17 10.451 7.833 4.406 16.44 6.548 24.956 9.3 8.152 2.633 13.853 4.82 17.889 12.634 2.366 4.582 1.665 10.323 3.888 14.368 5.1 9.286 26.612 9.685 37.3 8.128-3.166-7.915-19-10.224-25.287-16.429-5.711-5.637-5.556-14.193-10.5-20.3-4.33-5.343-12.239-9.282-18.724-11.427-13.938-4.613-29.95-6.556-44.108-10.134-16.089-4.066-32.82.519-49.724-4.251-7.916-2.234-8.143-2.842-15.657.175-5.583 2.242-6.275 5.822-13.324 3.5-1.311 4.892 1.084 8.66 7.112 10.228z" fill="#e5d96a"/><path d="M332.833 445.686c-10.124-14.176 21.054-11.881 27.156-12.6 9.66-1.134 18.128-7.191 28.082-7.8 12.188-.741 64.594 4.455 58.959 26.039-14.583 4.018-27.822-.922-42.507-.873-13.337.044-27.519.172-40.889.991-4.552.287-37.537 8.396-30.801-5.757z" fill="#f9f191"/><path d="M454.478 354.117c5.9 3.571 13.912 2.116 20.375 3.174 7.938 1.3 14.2-.588 22.329 1.015 4.637.914 11.743 1.99 15.186 5.248 1.9 1.8 1.18 2.887 2.231 4.546 1.029 1.621 3.475 2.761 4.284 4.181 3.236 5.681-8.111 6.857-13.488 5.953-6.286-1.057-5.552-5.813-10.673-7.586-4.048-1.4-9.155 1.1-13.61.771-4.891-.364-10.427-2.129-15.407-3.45-5.576-1.479-18.124-2.749-18.436-8.528-.143-2.676 3.172-5.248 7.209-5.324zm-190.776-6.609c5.88.175 12.121-1.956 17.97-3.287 7.319-1.665 13.526-.941 20.815-1.277 9.963-.459 14.388-10.727 24.7-9.833 12.69 1.1 21.578 1.338 34-2.94 13.822-4.758 20.688-2.055 33.7 1.957 11.259 3.473 22.73 1.576 32.62 9.982 14.861 12.631 1.093 30.722-14.28 23.12-26.384-13.046-58.889-21.57-88.18-16.889-7.8 1.248-15.013 4.042-22.989 4.125-8.7.091-14.7.748-23.14 3.984-7.909 3.032-14.183 4.154-16.714-6.149.391-1.37.612-.055 1.498-2.793zm257.017-2.694q-2.542 4-5.086 7.995c-.5.791.752 1.521 1.254.733l5.086-7.994c.5-.792-.752-1.521-1.254-.734zm6.464 3.085q-1.091 2.906-2.18 5.813c-.33.877 1.075 1.256 1.4.387q1.092-2.907 2.181-5.814c.328-.877-1.077-1.256-1.4-.387zm4.361 2.908l-.727 5.087c-.13.915 1.27 1.311 1.4.387q.363-2.544.728-5.087c.13-.916-1.271-1.311-1.4-.387zm5.087 2.18l-1.454 7.267c-.182.913 1.218 1.3 1.4.386q.725-3.635 1.453-7.267c.183-.914-1.217-1.3-1.4-.386zm7.992.726q-.724 2.908-1.452 5.814a.727.727 0 001.4.386l1.454-5.814a.728.728 0 00-1.4-.386zm6.781 2.831q-2.565 4.348-5.13 8.7a.727.727 0 001.255.734l5.13-8.695a.727.727 0 00-1.255-.734zm69.862 35.98l-5.814 4.36c-.739.555-.017 1.817.734 1.256l5.813-4.361c.739-.554.016-1.817-.733-1.254zm4.941 5.2l-5.088 5.087a.727.727 0 001.028 1.028l5.087-5.087a.727.727 0 00-1.028-1.028zm3.519 3.054q-1.816 2.544-3.634 5.087c-.544.762.716 1.489 1.255.734l3.634-5.087c.545-.762-.715-1.49-1.255-.734zm4.287 2.355l-1.454 5.814a.727.727 0 001.4.386l1.454-5.814a.727.727 0 00-1.4-.386zm5.658 3.611l-.689 5.093c-.123.915 1.278 1.311 1.4.386l.689-5.092c.124-.915-1.276-1.312-1.4-.387zm6.098 2.95l-.729 4.36c-.153.916 1.248 1.308 1.4.387q.363-2.181.728-4.361c.153-.915-1.247-1.309-1.4-.386zm-162.325-23.075l.646 8.727c.068.927 1.522.934 1.453 0q-.321-4.363-.645-8.727c-.069-.928-1.522-.935-1.454 0zm7.377-.736v7.268a.728.728 0 001.454 0v-7.268a.728.728 0 00-1.454 0zm6.544 0l-.727 6.541c-.1.928 1.351.92 1.453 0l.727-6.541c.1-.928-1.351-.921-1.453 0zm7.418 1.289l-1.461 6.538c-.2.912 1.2 1.3 1.4.387l1.462-6.539c.2-.911-1.2-1.3-1.4-.386zm7.256 2.914l-2.206 7.26a.728.728 0 001.4.386l2.205-7.259a.727.727 0 00-1.4-.387zm7.876 4.325q-1.452 4-2.906 7.994c-.32.881 1.084 1.26 1.4.387l2.906-7.995c.32-.881-1.083-1.26-1.4-.386zm7.341 3.46q-1.452 3.271-2.907 6.54c-.376.848.875 1.588 1.254.734l2.907-6.541c.376-.847-.875-1.588-1.255-.733zm7.923 4.534l-2.181 5.813c-.329.877 1.076 1.256 1.4.387l2.18-5.814c.33-.877-1.075-1.256-1.4-.386zm6.007 2.222l-1.555 7.245c-.2.912 1.205 1.3 1.4.387l1.556-7.246c.2-.912-1.205-1.3-1.4-.386zm5.619 2.139l-.726 5.087c-.131.915 1.27 1.31 1.4.387l.727-5.088c.13-.914-1.271-1.31-1.4-.386zm-238.276-94.115l2.16 8a.727.727 0 001.4-.387l-2.16-8a.727.727 0 00-1.4.387zm9.328-.169l.726 8c.084.924 1.539.932 1.454 0l-.726-8c-.084-.924-1.539-.932-1.454 0zm8.72-.726l.726 7.994c.085.924 1.54.933 1.455 0q-.365-4-.727-7.994c-.084-.924-1.539-.932-1.454 0zm7.268.727v7.268a.727.727 0 001.454 0v-7.268a.727.727 0 00-1.454 0zm6.671.014l-.727 6.541c-.1.928 1.351.92 1.454 0l.727-6.541c.1-.928-1.352-.921-1.454 0zm6.411-.014q.362 3.271.726 6.541c.1.919 1.557.93 1.454 0l-.727-6.541c-.1-.919-1.557-.93-1.453 0zm6.417.963l2.135 7.281a.727.727 0 001.4-.386q-1.066-3.641-2.134-7.281a.727.727 0 00-1.4.386zm8.737-.486l2.779 5.155c.445.824 1.7.091 1.255-.733q-1.391-2.577-2.78-5.155c-.444-.824-1.7-.091-1.255.734zm9.729-3.396l.672 9.452c.065.928 1.519.935 1.453 0l-.672-9.452c-.065-.928-1.52-.935-1.453 0zm5.639.012v7.994a.727.727 0 001.454 0v-7.994a.727.727 0 00-1.454 0zm5.307.843l1.431 3.643c.338.861 1.744.486 1.4-.387l-1.431-3.643c-.338-.86-1.744-.486-1.4.387zm-258.477 34.338l2.313 6.493c.312.875 1.717.5 1.4-.387l-2.313-6.493c-.312-.875-1.717-.5-1.4.386zm4.725-2.836l3.634 5.088c.539.754 1.8.029 1.255-.734q-1.816-2.544-3.634-5.087c-.539-.754-1.8-.03-1.255.733zm7.87-2.089l3.412 4.527c.557.738 1.819.015 1.256-.733l-3.413-4.528c-.556-.738-1.818-.014-1.255.734zm8.756-2.941l2.91 4.359c.517.774 1.777.047 1.255-.734l-2.909-4.359c-.518-.774-1.777-.048-1.255.734zm-126.053 77.98l3.806 5.7c.518.774 1.777.047 1.255-.734l-3.806-5.7c-.518-.774-1.776-.047-1.255.733zm6.307-1.552l5.091 5.812c.617.7 1.642-.326 1.027-1.028l-5.09-5.812c-.617-.705-1.642.327-1.028 1.028zm8.839-5.928q2.893 2.921 5.789 5.84a.727.727 0 001.027-1.028l-5.787-5.839a.727.727 0 00-1.028 1.027zm6.459-3.55l5.087 5.087a.727.727 0 001.028-1.028l-5.087-5.087a.727.727 0 00-1.028 1.028zm6.323-6.613l4.313 5.848c.548.745 1.812.021 1.255-.734l-4.313-5.848c-.549-.745-1.812-.021-1.255.734zm9.461-3.881a6.372 6.372 0 006.533 4.894c.929-.058.935-1.512 0-1.454a4.926 4.926 0 01-5.131-3.826c-.208-.912-1.61-.526-1.4.386zm7.364-4.648l4.293 3.71c.7.609 1.737-.415 1.028-1.027l-4.294-3.711c-.705-.609-1.738.415-1.028 1.028zm6.636-6.297l7.16 4.53c.793.5 1.523-.755.734-1.255l-7.16-4.53c-.793-.5-1.523.756-.734 1.255zm7.347-7.366l5.112 2.862a.727.727 0 00.733-1.255l-5.112-2.862c-.817-.457-1.551.8-.733 1.255zm2.987-4.513l2.907 1.454c.835.417 1.571-.836.733-1.255l-2.907-1.454c-.835-.417-1.571.837-.734 1.255zm186.154 58.35l.765-2.071h-1.4l1.647 7.239c.208.911 1.609.526 1.4-.386l-1.647-7.24c-.172-.754-1.172-.624-1.4 0l-.765 2.071c-.325.879 1.08 1.257 1.4.386zm3.918-2.826l3.633 10.9c.294.883 1.7.5 1.4-.386l-3.634-10.9c-.294-.883-1.7-.5-1.4.386zm8.56-2.152l1.914 10.948c.161.919 1.562.53 1.4-.386l-1.914-10.948c-.16-.92-1.561-.53-1.4.386zm6.53 1.483l3.687 10.883c.3.881 1.7.5 1.4-.387l-3.686-10.883c-.3-.881-1.7-.5-1.4.386zm7.438-.785l2.907 9.448c.275.892 1.678.511 1.4-.386l-2.907-9.447c-.274-.892-1.677-.512-1.4.386zm6.54-.726l2.181 10.174c.2.915 1.6.527 1.4-.386l-2.181-10.175c-.2-.914-1.6-.527-1.4.386zm5.744-1.431l3.308 10.279c.286.887 1.689.508 1.4-.386l-3.308-10.279c-.285-.887-1.689-.508-1.4.386zm7.338-3.656l2.181 11.628c.172.918 1.574.529 1.4-.386l-2.18-11.628c-.172-.918-1.574-.529-1.4.387zm4.585 1.561l2.862 6.56c.373.855 1.625.116 1.255-.733q-1.43-3.281-2.862-6.56c-.373-.856-1.625-.116-1.255.733zm-147.539-21.98l5.048 15.274c.292.885 1.7.505 1.4-.386l-5.047-15.275c-.293-.884-1.7-.505-1.4.386zm7.394-.44l2.95 15.111c.18.917 1.581.529 1.4-.387l-2.951-15.11c-.178-.917-1.58-.53-1.4.386zm8.355.317v12.354a.727.727 0 001.454 0v-12.354a.728.728 0 00-1.454 0zm22.529-62.499v4.36a.728.728 0 001.454 0v-4.36a.727.727 0 00-1.454 0z" fill="#fff8bb"/><g transform="translate(-79.579 -23.068)"><path d="M81.686 8.451S82.781 0 85.517 0s4.2 8.513 4.2 8.513 5.837-3.223 8.208-1.217-5.837 7.6-5.837 7.6 5.655 10.154 1.46 10.032-7.662-6.08-7.662-6.08-3.831 7.662-6.02 6.08.913-9.059.913-9.059-8.573-3.526-8.208-6.506 9.115-.912 9.115-.912zm547.648 6.79s-2.505-6.426-.562-7.489 6.285 4.416 6.285 4.416 2.893-4.555 5.356-4.051-1.193 7.664-1.193 7.664 7.958 5.014 4.933 6.557-7.8-1.342-7.8-1.342.255 6.927-1.913 6.655-2.871-6.787-2.871-6.787-7.457.825-8.355-1.433 6.12-4.19 6.12-4.19zm18.498 289.535s6.421-2.915 7.614-.991-4.159 6.662-4.159 6.662 4.813 2.7 4.434 5.243-7.89-.792-7.89-.792-4.677 8.4-6.42 5.4.936-8.039.936-8.039-7.058.646-6.9-1.583 6.769-3.309 6.769-3.309-1.257-7.567 1-8.609 4.616 6.018 4.616 6.018z" fill="#e8d418"/><path d="M43.292 39.568s3.2-6.155 5.295-5.389.825 7.683.825 7.683 5.365-.83 6.616 1.368-6.591 4.177-6.591 4.177 1.481 9.347-1.692 8.08-4.156-6.794-4.156-6.794-5.074 4.786-6.306 2.964 3.234-6.672 3.234-6.672-5.568-5.1-4.455-7.273 7.23 1.856 7.23 1.856z" fill="#3d4051"/><path d="M317.603 228.776s2.342-4.5 3.873-3.941.6 5.619.6 5.619 3.923-.607 4.838 1-4.819 3.054-4.819 3.054 1.083 6.835-1.238 5.908-3.039-4.968-3.039-4.968-3.71 3.5-4.611 2.167 2.366-4.879 2.366-4.879-4.073-3.727-3.258-5.318 5.288 1.358 5.288 1.358zM97.447 69.326s1.012-3.54 2.181-3.364 1.243 3.906 1.243 3.906 2.7-1 3.585.01-2.983 2.87-2.983 2.87 1.761 4.7-.023 4.38-2.881-3.091-2.881-3.091-2.13 3.026-2.963 2.209.972-3.811.972-3.811-3.435-2.058-3.087-3.308 3.956.199 3.956.199zm723.356 81.359s2.253-7.883 4.856-7.491 2.77 8.7 2.77 8.7 6.016-2.228 7.984.021-6.644 6.394-6.644 6.394 3.924 10.471-.051 9.754-6.416-6.884-6.416-6.884-4.742 6.739-6.6 4.921 2.167-8.488 2.167-8.488-7.65-4.585-6.876-7.367 8.81.44 8.81.44z" fill="#e8d418"/><path d="M774.937 336.754s.466-7.661 2.485-7.972 2.795 7.972 2.795 7.972 6.833-.621 7.919 1.759-7.764 3.261-7.764 3.261.31 8.7-2.174 8.178-3.261-7.971-3.261-7.971-7.763-.052-8.229-2.744 8.229-2.483 8.229-2.483z" fill="#3d4051"/><path d="M398.908 28.273s.556-9.141 2.965-9.512 3.335 9.512 3.335 9.512 8.152-.741 9.45 2.1-9.264 3.891-9.264 3.891.371 10.376-2.594 9.759-3.892-9.511-3.892-9.511-9.265-.062-9.82-3.274 9.82-2.965 9.82-2.965zm-20.382 221.559s7.9-4.624 9.553-2.829-6.048 8.063-6.048 8.063 5.152 6.362 3.513 9.021-8.388-5.533-8.388-5.533-8.416 6.081-9.551 3.274 5.738-8.524 5.738-8.524-5.1-7.733-2.743-9.982 7.926 6.51 7.926 6.51zM54.297 379.987s.3-4.982 1.616-5.184 1.817 5.184 1.817 5.184 4.443-.4 5.15 1.144-5.049 2.121-5.049 2.121.2 5.655-1.414 5.318-2.121-5.183-2.121-5.183-5.049-.034-5.353-1.784 5.354-1.616 5.354-1.616z" fill="#e8d418"/><path d="M517.439 258.832s.3-4.982 1.617-5.184 1.817 5.184 1.817 5.184 4.443-.4 5.149 1.144-5.049 2.12-5.049 2.12.2 5.656-1.414 5.319-2.121-5.184-2.121-5.184-5.048-.033-5.352-1.784 5.353-1.615 5.353-1.615z" fill="#3d4051"/><path d="M479.072 170.585s.3-4.982 1.616-5.184 1.818 5.184 1.818 5.184 4.443-.4 5.148 1.145-5.048 2.12-5.048 2.12.2 5.655-1.414 5.318-2.12-5.184-2.12-5.184-5.049-.033-5.353-1.784 5.353-1.615 5.353-1.615z" fill="#e8d418"/><path d="M221.947 12.649s.3-4.982 1.615-5.184 1.818 5.184 1.818 5.184 4.443-.4 5.15 1.145-5.049 2.121-5.049 2.121.2 5.655-1.414 5.318-2.12-5.184-2.12-5.184-5.05-.034-5.352-1.784 5.352-1.616 5.352-1.616z" fill="#4d515e"/><path d="M45.848 303.738s3.595-3.461 4.7-2.721-2.172 5.046-2.172 5.046 3.543 2.711 3.015 4.329-5.152-1.859-5.152-1.859-3.68 4.3-4.641 2.957 1.949-5.25 1.949-5.25-3.693-3.443-2.731-4.937 5.032 2.435 5.032 2.435z" fill="#3d4051"/><path d="M810.474 37.365s6.257-6.023 8.176-4.735-3.78 8.78-3.78 8.78 6.166 4.717 5.248 7.533-8.965-3.233-8.965-3.233-6.4 7.48-8.077 5.145 3.391-9.137 3.391-9.137-6.426-5.992-4.751-8.59 8.758 4.237 8.758 4.237z" fill="#4d515e"/><circle cx="8.249" cy="8.249" r="8.249" transform="translate(295.567 44.509)" fill="#e8d418"/><circle cx="3.645" cy="3.645" r="3.645" transform="rotate(-76.64 147.152 -110.65)" fill="#3d4051"/><circle cx="2.302" cy="2.302" r="2.302" transform="translate(170.454 30.864)" fill="#e8d418"/><circle cx="3.645" cy="3.645" r="3.645" transform="translate(258.326 83.747)" fill="#e8d418"/><circle cx="3.645" cy="3.645" r="3.645" transform="translate(561.632 51.578)" fill="#e8d418"/><path d="M399.715 133.284a2.494 2.494 0 11-2.494-2.494 2.494 2.494 0 012.494 2.494z" fill="#4d515e"/><circle cx="2.686" cy="2.686" r="2.686" transform="translate(485.788 39.169)" fill="#3d4051"/><circle cx="4.029" cy="4.029" r="4.029" transform="rotate(-76.7 361.908 -443.696)" fill="#3d4051"/><circle cx="3.453" cy="3.453" r="3.453" transform="rotate(-80.783 464.826 -439.13)" fill="#3d4051"/><circle cx="5.947" cy="5.947" r="5.947" transform="rotate(-79.586 300.134 -104.723)" fill="#3d4051"/><path d="M104.034 337.691a2.494 2.494 0 11-2.494-2.494 2.494 2.494 0 012.494 2.494z" fill="#3d4051"/><circle cx="6.139" cy="6.139" r="6.139" transform="translate(1.201 313.588)" fill="#e8d418"/><circle cx="2.686" cy="2.686" r="2.686" transform="translate(0 102.757)" fill="#3d4051"/><path d="M81.676 116.656a3.261 3.261 0 11-3.262-3.261 3.261 3.261 0 013.262 3.261zm741.616 141.819a2.251 2.251 0 11-2.251-2.251 2.251 2.251 0 012.251 2.251z" fill="#4d515e"/><path d="M816.493 346.955a2.894 2.894 0 11-2.9-2.893 2.894 2.894 0 012.9 2.893z" fill="#3d4051"/><circle cx="3.376" cy="3.376" r="3.376" transform="rotate(-45 733.441 -705.22)" fill="#4d515e"/><circle cx="3.859" cy="3.859" r="3.859" transform="translate(733.213 302.26)" fill="#3d4051"/><circle cx="3.215" cy="3.215" r="3.215" transform="translate(763.455 274.471)" fill="#e8d418"/><circle cx="4.796" cy="4.796" r="4.796" transform="rotate(-76.718 666.568 -305.952)" fill="#e8d418"/><path d="M11.395 405.278a2.11 2.11 0 11-2.11-2.11 2.111 2.111 0 012.11 2.11z" fill="#e8d418"/><circle cx="3.658" cy="3.658" r="3.658" transform="rotate(-76.717 16.237 10.76)" fill="#e8d418"/></g><path d="M62.548 265.351c-2.95 0-10.323-.54-15.712-5.514-3.976-3.669-5.992-8.859-5.992-15.426a23.083 23.083 0 019.142-18.576c5.922-4.7 14.453-7.523 24.672-8.15 13.007-.8 24.787-11.556 30.689-21.862 2.895-5.052 3.95-11.8 4.972-18.319 1.8-11.471 3.833-24.472 17.727-25 15.063-.581 20.248 17.96 20.461 18.75l-5.767 1.564c-.04-.147-4.173-14.73-14.467-14.344-8.562.326-10.089 7.428-12.051 19.955-1.105 7.058-2.249 14.356-5.69 20.364-6.7 11.7-20.279 23.921-35.507 24.856-17.4 1.069-28.205 9.025-28.205 20.764 0 4.831 1.37 8.544 4.068 11.036 4.761 4.394 12.765 3.86 13.854 3.9a59.522 59.522 0 00-2.194 6.002z" fill="#fff"/><path d="M142.961 172.756c-.008-.03-.061-.22-.164-.537l5.25-1.69c.161.5.236.783.236.783zm-85.7 91.851c-.5-.1-1-.212-1.492-.338l1.375-5.341c.385.1.782.189 1.18.267zm-6.813-2.438a19.601 19.601 0 01-1.363-.841l3.092-4.566c.31.21.635.41.967.6zm-5.645-4.945a17.815 17.815 0 01-.9-1.357l4.734-2.828c.188.317.394.626.61.92zm-3.064-6.768c-.118-.492-.221-1-.308-1.524l5.439-.912c.066.4.145.785.233 1.156zm4.865-6.86l-5.509-.235c.022-.515.06-1.031.114-1.538l5.483.583c-.042.39-.071.79-.088 1.189zm1.069-5.388l-5.167-1.929c.182-.486.382-.971.6-1.441l5.019 2.284c-.164.354-.314.721-.452 1.085zm2.719-4.752l-4.295-3.46c.321-.4.659-.792 1-1.17l4.067 3.725c-.263.292-.523.592-.771.905zm4.1-3.831l-3.2-4.488c.4-.289.824-.573 1.246-.844l2.977 4.643c-.344.22-.686.452-1.018.688zm5.059-2.825l-2.2-5.059q.667-.289 1.361-.561l2 5.138q-.582.232-1.156.481zm5.629-1.9l-1.366-5.344q.7-.177 1.409-.338l1.208 5.382c-.418.091-.835.19-1.246.297zm5.938-1.115l-.695-5.471c.468-.059.943-.114 1.422-.164l.569 5.485q-.65.065-1.291.147zm6.4-.619l-.776-5.46c.405-.057.816-.125 1.224-.2l1.023 5.418c-.487.088-.983.17-1.47.239zm6.721-1.676l-1.85-5.195q.593-.211 1.178-.447l2.054 5.117q-.684.278-1.381.523zm6.226-2.855l-2.7-4.807c.37-.209.739-.424 1.1-.645l2.862 4.714q-.624.377-1.261.735zm5.65-3.747l-3.361-4.372q.513-.395 1.015-.8l3.478 4.279q-.558.448-1.131.89zm5.064-4.423l-3.873-3.926q.464-.458.912-.924l3.972 3.825q-.495.514-1.009 1.022zm4.493-4.983l-4.3-3.448q.41-.51.8-1.025l4.389 3.34q-.434.564-.888 1.13zm3.882-5.5l-4.7-2.889q.343-.556.659-1.106l4.781 2.748q-.352.62-.738 1.247zm3.03-6.238l-5.184-1.881q.215-.593.411-1.2l5.249 1.692q-.225.702-.474 1.388zm1.834-6.5l-5.386-1.183q.141-.644.271-1.293l5.407 1.088q-.139.701-.289 1.392zm1.19-6.444l-5.443-.878.213-1.341 5.448.859q-.105.683-.215 1.364zm1.006-6.289l-5.437-.926c.08-.462.159-.923.243-1.378l5.426.985q-.116.658-.229 1.323zm1.25-6.009l-5.328-1.421q.191-.719.4-1.411l5.275 1.608c-.117.405-.232.813-.344 1.228zm23.183-.543c-.18-.362-.375-.734-.583-1.111l4.829-2.664c.237.429.47.872.69 1.315zm-21.157-4.767l-4.811-2.7c.268-.477.552-.937.846-1.368l4.555 3.108c-.199.306-.399.627-.587.964zm18.064-.076a18.338 18.338 0 00-.789-.892l4.011-3.784c.346.366.69.756 1.023 1.159zm-4.051-3.507a11.01 11.01 0 00-.976-.492l2.228-5.044c.494.219.988.467 1.468.739zm-10.706-.018l-2.859-4.715a13.8 13.8 0 011.51-.791l2.251 5.034a8.129 8.129 0 00-.899.477zm4.776-1.339l-.318-5.506a15.688 15.688 0 011.627-.019l-.192 5.511c-.27-.01-.545-.01-.826 0-.099.005-.194.013-.287.019z" fill="#dfe2ea"/></g><g transform="translate(478.564 53.126)"><circle cx="81.76" cy="81.76" r="81.76" transform="rotate(-45 139.573 57.813)" fill="#61b9d1"/><path d="M196.352 102.586c-.143.495-.284.99-.435 1.483a84.905 84.905 0 01-161.553 2.457 81.767 81.767 0 10161.988-3.94z" fill="#60b09e"/><g fill="#70990d"><path d="M75.426 130.644c4.622 1.021 5.313-4.015 9.016-4.551a14.737 14.737 0 00-7.516-4.379l1.525.468c-3.561.289-4.278 5.673-3.025 8.462zM37.458 91.652a81.371 81.371 0 00-1.188 43.689c2.512-2.792 2.064-11.689 1.843-14.78-.744-10.363-.324-18.005 3.494-28.262 2.933-7.88 8.367-7.127 16.35-8.343 6.994-1.065 19.2.141 25.516 2.468 3.073 1.132 5.182 3.22 8.7 4.314 4.175 1.3 8.03-.4 11.69.591 3.973 1.078 5.736 6.173 9.507 6.5 4.961.432 6.633-3.974 5.6-7.982-1.059-4.109-6.291-7.508-8.15-11.614-1.2-2.65-.662-4.306-2.631-7.067-1.4-1.964-4.088-2.985-5.546-4.953-4.463-6.02-2.4-11.283-3.011-18.426a19.372 19.372 0 00-4.6-11.292 81.708 81.708 0 00-57.574 55.157zm106.299 67.919c-4.425 3.6-7.646 10.4-12.257 14.5-4.9 4.346-10.025 8.552-14.31 13.528-2.188 2.54-6.041 5.961-8.929 9.471a81.763 81.763 0 0055.065-15.04 55.971 55.971 0 006.117-10.456c2.051-5-.575-4.543-.769-9.235-.174-4.247 3.274-20.407 6.663-23.522 4.2-3.857 7.7-.479 10.078-.165 1.455.191 1.175 3.112 3.6 2.346 4.366-1.376.663-5.867.827-7.107.52-3.912-.33-6.46 3.436-10.653 1.413-1.575 2.773-2.918 4.049-4.142a81.694 81.694 0 00-10.421-43.51c-4.777 3.183-9.587 6.15-15.687 7.678-5.395 1.352-9.791.2-15.045.768-8.614.934-10.466 9.867-15.5 16.268-3.583.329-15.986-5.157-15.027 3.335.5 4.453 10.538 5.485 13.2 9.7 2.346 3.71.273 5.607 4.8 8.615 2.573 1.709 6.417 1.239 8.964 2.878 5.111 3.29 6.545 7.81 13.265 9.432 1.5 5.569.595 14.474-2.647 19.255-5.624 8.295-12.576.443-19.472 6.056z"/><path d="M56.392 92.843c-1.576.553-3.613 4.353-5.234 5.6-4.56 3.507-4.293 8.382-5.861 13.289a3.134 3.134 0 011.7-.011c2.669-4.548 6.09-10.166 11.042-12.91 3.024-1.677 7.307.87 9.439-2 2.116.475 5.426 3.368 6.746.045 1.006-2.529-2.755-4.458-4.724-5.53-2.2-1.2-2.812-.58-4.881.373-.763.351-1.614.207-2.071.831-.251.343.05 1.759-.251 2.364-1.585-.434-4.13-2.674-5.905-2.051zm23.807 41.355c.313-4.227-2.2-2.023-4.627-1.432-.657.471.148 1.244-.263 2.38-.66 1.826-2.571 2.991-3.1 4.87-1.09 3.862 3.177 4.522 4.979 2.048.761-1.047.972-3.133 1.592-4.357.671-1.332 1.308-2.028 1.419-3.509zm-34.724 23.421c1.736-.253 3.548-1.276 5.619-2.306 2.356-1.171 2.878-2.761 3.171-5.454.355-3.269-.112-2.892 2.1-4.567a1.511 1.511 0 01-.529-2.085c3.833.571 2.89-1.315.754-3.208-2.361-2.094-3.75-2.367-6.836-2.907-.89-.156-2.612-1-3.5-.522-1.117.6-.722 2.031-1.515 2.8-1.161 1.119-2.076.674-2.969 1.983a17.187 17.187 0 00-1.892 5.058 82.237 82.237 0 005.597 11.208zm12.417 15.915a81.468 81.468 0 006.687 5.986 7.151 7.151 0 00-.122-.559c-.634-2.3-.149-2.931-.018-5.648.267-5.508-4.249-4.344-8.054-4.445-.067 1.848 2.1 2.295 2.117 3.915.005.361-.266.577-.61.751zm1.004-20.292c-3.358 1.064-5.543 8.886-8.042 10.528-1.243 3.483 3.321 2.052 4.19-.151.889 1.012 2.383 1.852 3.637 1.148a2.213 2.213 0 01-.438-3.136c1.485 1.274 3.164 2.576 4.971.716-1.022-1.919-4.817-2.008-2.943-4.906 2.269.923 3.585 3.754 6.1 3.98.376-3.183-4.534-9.11-7.475-8.179z"/></g><g fill="#9ec918"><path d="M66.344 176.661c-.608-2.209-.143-2.816-.017-5.425.256-5.29-4.081-4.172-7.735-4.269-.063 1.775 2.019 2.2 2.033 3.76.009.874-1.641.868-1.945 1.533-.325.713.1 1.351.042 2.1a81.416 81.416 0 008.229 6.98 37.824 37.824 0 00-.607-4.679zM37.458 91.655a81.365 81.365 0 00-1.2 43.641c5.7 2.413 5.06-10.864 4.783-14.722-.714-9.953-.311-17.293 3.356-27.145 2.817-7.569 8.037-6.845 15.7-8.014 6.716-1.023 18.44.136 24.507 2.371 2.95 1.086 4.978 3.093 8.354 4.142 4.01 1.249 7.711-.386 11.229.568 3.814 1.034 5.508 5.929 9.131 6.244 4.764.415 6.37-3.817 5.378-7.666-1.018-3.947-6.044-7.211-7.829-11.155-1.153-2.546-.636-4.136-2.527-6.789-1.345-1.885-3.926-2.866-5.327-4.756-4.286-5.782-2.306-10.837-2.892-17.7-.528-6.183-3.293-10.192-7.141-13.617a81.689 81.689 0 00-55.522 54.598zm16.054 62.294c2.263-1.125 2.764-2.651 3.044-5.238.342-3.14-.106-2.779 2.022-4.387a1.452 1.452 0 01-.508-2c3.68.549 2.775-1.262.725-3.081-2.269-2.01-3.6-2.273-6.567-2.791-.854-.149-2.508-.957-3.361-.5-1.073.573-.693 1.951-1.456 2.687-1.114 1.075-1.992.647-2.851 1.9a18.89 18.89 0 00-2.189 7.14 2.036 2.036 0 00-2.618-1.6 82.234 82.234 0 003.979 8.466c3.161 3.115 6.032 1.268 9.78-.596zm88.998 4.09c-4.25 3.459-7.344 9.992-11.775 13.924-4.7 4.174-9.626 8.214-13.742 12.992-2.687 3.12-7.995 7.621-10.626 11.916a81.607 81.607 0 0049.659-10.167c3.955-5.2 8.844-11.508 11.154-17.139 1.971-4.8-.552-4.365-.738-8.869-.168-4.08 3.146-19.6 6.4-22.593 4.031-3.7 7.395-.459 9.68-.159 1.4.184 1.128 2.989 3.462 2.254 4.192-1.322.634-5.635.793-6.826.5-3.758-.317-6.205 3.3-10.232 2.731-3.042 5.257-5.189 7.327-7.3a81.755 81.755 0 00-10.574-40.39c-5.59 3.737-10.862 7.527-17.94 9.3-5.182 1.3-9.4.191-14.45.738-8.274.9-10.052 9.478-14.883 15.625-3.442.316-15.354-4.953-14.434 3.2.483 4.277 10.122 5.268 12.678 9.313 2.253 3.564.263 5.385 4.61 8.274 2.471 1.642 6.163 1.19 8.609 2.765 4.909 3.159 6.288 7.5 12.742 9.06 1.443 5.348.57 13.9-2.544 18.493-5.407 7.972-12.084.431-18.708 5.821zM61 151.96c-3.225 1.022-5.324 8.534-7.725 10.111-1.193 3.346 3.19 1.971 4.026-.145.854.972 2.289 1.779 3.493 1.1a2.127 2.127 0 01-.421-3.012c1.426 1.223 3.038 2.474 4.775.688-.982-1.844-4.627-1.929-2.828-4.714 2.179.888 3.444 3.607 5.854 3.825.371-3.055-4.345-8.748-7.174-7.853z"/><path d="M58.596 93.949c-1.514.531-3.469 4.181-5.028 5.379-4.379 3.368-4.122 8.051-5.629 12.763a3.012 3.012 0 011.63-.01c2.564-4.369 5.851-9.764 10.605-12.4 2.906-1.61 7.019.836 9.065-1.921 2.033.456 5.212 3.234 6.48.043.966-2.429-2.647-4.282-4.537-5.311-2.115-1.15-2.7-.557-4.688.358-.734.336-1.55.2-1.989.8-.242.33.048 1.69-.241 2.271-1.516-.42-3.959-2.57-5.668-1.972zm22.867 39.72c.3-4.06-2.115-1.943-4.445-1.375-.63.453.143 1.2-.251 2.286-.633 1.754-2.469 2.873-2.98 4.678-1.047 3.709 3.052 4.343 4.782 1.967.731-1.005.934-3.01 1.529-4.185.647-1.28 1.26-1.949 1.365-3.371zm-4.582-3.414c4.439.98 5.1-3.856 8.66-4.371a14.167 14.167 0 00-7.219-4.205l1.465.45c-3.42.276-4.11 5.447-2.906 8.126z"/></g><path d="M109.855 34.053c5.179 7.108.679 14.185 3.688 22.139 2.852 7.541 11.461 11.369 17.861 16.185 5.653 4.253 9.291 2.2 16.23 1.752 5.411-.35 10.758.771 16.11-.367 4.625-.984 14.541-3.65 15.73-9.213a81.869 81.869 0 00-69.62-30.5z" fill="#9ec918"/><g fill="#fff"><path d="M54.58 52.22c-7.023 2.26-8.71 6.906-2.67 11.107 4.534 3.153 9.277 7.809 13.983 10.476 6.85 3.883 14.5 7.178 21.489 10.745 4.167 2.127 12.419 5.844 14.616 9.813-6.886 4.4-12.912-1.12-19.129-3.6-7.073-2.818-13.329-3.722-20.472-5.37-9.645-2.224-27.2-11.725-21.155-24.593 1.856-3.945 9.297-8.181 13.338-8.578zm65.463 49.487c4.137-1.209 13.942 1.365 17.341 2.618 11.263 4.149 20.433 9.243 32.663 9.612 5.987.18 31.7 4.217 32.032-3.223 4.464 1.536 5.874 8.3.746 10.109-5.431 1.911-11.976-.574-17.582-.4-4.352.131-8.064 1.183-12.422.056 5.007 2.281 12.958 3.661 16.289 8.163-5.784 3.1-15.795.135-22.089-.8a113.217 113.217 0 01-30.332-9.343c-5.256-2.366-12.773-6.172-16.44-10.659-3.026-3.705-2.451-5.477-.206-6.133zM67.059 45.32c-8.65 8.363 28.142 27.1 36.264 30.322 6.86 2.723 13.081 7.745 19.621 10.728 3.5 1.594 2.256 2.465 6.187 1.554 3.146-.729 2.763-2.541 6.714-2.541 8.6 0 12.33 7.657 19.387 10.155 3.106 1.1 7.3 1.133 8.476-2.858 1.519-5.137-4-4.86-7.634-6.041-5.263-1.709-9.638-5.128-14.937-6.657-4.777-1.379-8.551-.51-13.319-.659-8.931-.279-9.929-8.379-16.783-11.788-6.114-3.042-8.441-4.218-12.792-10.231a31.043 31.043 0 00-16.078-11.24c-4.088-1.144-14.879-4.575-15.106-.744z"/><path d="M130.574 62.762c5.662 5.112 16.8 4.686 24.138 6.644 5.878 1.567 11.19 3.181 17.235 4.233 2.835.493 22.728 3.62 15.363-5.18 5.195.769 6.734 7.262 3.556 11-4.726 5.556-11.424 1.386-17.182 1.115-7.372-.346-13.19 1.946-20.9-.288-6.6-1.915-15.053-3.8-21.223-6.432-5.982-2.55-9.711-11.841-.987-11.092zm69.711 35.309c-8.172-1.094-21.452-8.029-28-.616 2.581 3.784 11.576 1.663 15.745 2.2 4.4.562 8.962 1.794 13.494 2.131 3.44-4.478-2.019-8.32-5.722-9.706 1.849 1.369 2.388 2.949 4.483 5.991zm-91.578 34.259a7.556 7.556 0 012.619-3.014c4.3-2.79 6.531.129 10.468 2.2 5.575 2.929 10.664 3.092 16.7 4.234 5.4 1.024 7.369 3.556 11.873 5.955 3.7 1.974 7.56 1.175 11.491 2.551 7.528 2.636 9.406 9.9.145 10.982-8.488.995-18.062-1.337-25.9-4.477-5.557-2.225-25.456-9.208-27.658-14.58a4.744 4.744 0 01.262-3.851zM37.146 87.713c-7.336 5.413-7.19 5.894.886 11.082 5.542 3.559 9.329 8.515 14.815 12.264 7.819 5.345 15.146 10.491 24.548 12.253 8.332 1.561 12.565 1.2 19.246 7.953 3.3 3.337 7.126 9.888-.115 10.54-3.79.34-7.138-3.993-10.913-4.361-4.894-.478-6.185 3.662-10.46 4.655-9.925 2.3-11.766-9.189-18.212-12.219-1.527-.718-3.636.367-5.016-.133-3.286-1.191-4.395-2.608-6.98-5.238-1.775-1.805-4.29-3.586-5.874-5.351-2.114-2.358-2.122-4.635-3.852-7.263-3.6-5.471-11.9-9.967-8.518-18.844 2.18-5.72 5.906-3.245 10.445-5.338zm144.395 79.188c-.433 3.69 5.539 10.339 2.142 15.572-3.08 4.745-13.707 7.531-19.058 7.681-9.362.262-19.143-3.851-28.367-5.412-7.311-1.238-15.409-4-22.508-4.745-3.247-.341-5.773 1.566-8.827 1.56-2.794 0-5.1-1.482-7.8-2.24-4.12-1.158-9.526-1.258-13.3-3.311-3.677-2-16.667-10.9-14.438-15.866 4.574-10.184 24.1 1.946 28.354 5.791 5.3 4.788 4.669 4.793 12.051 4.219 7.166-.557 13.2-.6 19.889 2.326 4.095 1.789 7.524 3.787 12.021 4.463 5.348.8 7.956 2.5 12.989 4.166a21.935 21.935 0 0018.826-2.917c4.014-2.881 4.358-8.652 8.026-11.287zm10.551-10.806c-4.864-.753-16.714-.554-14.714-7.909 4.729-.63 11.664-3.661 15.966-1.679 5.5 2.534 3.576 6.047-.5 8.469z"/><path d="M65.323 100.535c8.6 6.267 16.558 5.224 25.791 7.759 2.011.553 9.352 2.941 11.026 4.2 3.455 2.6 3.149 4.744-.324 7.135-8.209 5.649-21.451-4.948-28.222-8.24-4.179-2.033-11.654-3.123-11.407-9.329a7.928 7.928 0 003.136-1.525zm31.246-66.587c1.351 4.555 9.508 6.04 13.187 8.736 3.536 2.591 6.571 5.93 10.152 8.341 3.23 2.175 21.5 6.806 25.083 4.206 5.781-4.2-5.74-11.907-9.025-13.093-3.458-1.248-8.449 1.231-11.669-.243-3.333-1.525-3.3-6.234-6.267-7.743-3.432-1.742-16.3 5.659-16.971-1.338 1.306.246 2.907.011 4.219.443-1.467-1.1-5.8-2.262-8.825-2.263-.818 1.297-1.433 2.945.116 2.954zm-59.7 116.48c6.075 3.863 9.6 6.121 13.4 11.884 3.322 5.042 6.582 7.082 11.779 9.655 5.814 2.879 9.691 7.263 14.764 10.776 3.543 2.455 9.268 2.566 12.582 5.588 4.462 4.069 3.149 6.227-2.377 6.43-4.17.152-12.125-3.91-15.657-6.273-4.384-2.934-8.476-8.209-12.588-11.688a110.345 110.345 0 01-11.72-11.045 68.538 68.538 0 01-10.183-15.327z"/></g></g><path d="M441.374 340.419c11.136 9.168 8.543 20.681 2.323 39.262s-28.286 33.276-33.814 35.063-45.254-3.446-45.254-3.446-2.623 15.821-18.4 16.976-21.87-9.886-17.478-22.78 13.65-30 20.746-30.677 40.646 6.431 48.41 4.759 36.16-45.175 43.467-39.157z" fill="#bbbec4"/><path d="M350.093 374.762l-.6.057c-7.1.682-16.354 17.784-20.746 30.677-3.976 11.673.638 21.826 13.256 22.788-8.99-3.508-11.861-13-8.241-23.655 3.567-10.493 10.054-23.513 16.331-29.867z" fill="#a2a5aa"/><path d="M436.466 275.768c9.068-5.383 18.244 4.261 21.548 9.5 4.91 7.781 9.061 20.57 16.375 26.274 0 0 25.028 4.632 38.866-7.012 2.618-2.2 3.87-7.315 8.411-6.18 4.007 1 3.731 5.672 3.417 9.387 6.584-1.248 12.716-1.365 10.786 10-1.421 8.371-6.033 10.881-12.957 13.063-16.161 5.093-42.686 8.956-59.839 7.752 0 0-26.357-14.6-32.373-33.778-1.471-4.693-1.916-24.445 5.766-29.006z" fill="#fff"/><path d="M532.918 327.022a.675.675 0 00-.553-1.231l-.062.027c-11.452 4.981-62.726 13.423-69.211 9.586s-26.02-27.9-26.306-44.331c-.239-13.732 5.768-16.171 7.748-16.6a10.739 10.739 0 00-8.067 1.3c-7.682 4.561-7.237 24.312-5.766 29 6.016 19.181 32.373 33.778 32.373 33.778 17.153 1.2 43.678-2.658 59.839-7.752a77.818 77.818 0 0010.005-3.777z" fill="#dfe2ea"/><path d="M506.73 308.588q-.682.311-1.378.592a51.16 51.16 0 0110.673 23.558c.474-.12.94-.241 1.4-.364a52.566 52.566 0 00-10.695-23.786zm-17.614 28.975q.727-.084 1.456-.173a74.051 74.051 0 00-3.258-24.953q-.765.014-1.5.012a72.931 72.931 0 013.302 25.114zm-16.491 1.175q.724-.015 1.457-.038l3.061-26.767a62.415 62.415 0 01-1.432-.185l-3.086 26.99zm25.008-27.331c-.48.093-.961.177-1.441.257a73.59 73.59 0 014.943 24.187q.716-.122 1.427-.249a75.57 75.57 0 00-4.929-24.195zm-30.832-9.478q-.355-.624-.7-1.26a49.877 49.877 0 00-21.752 23.948q.558.53 1.12 1.043a48.312 48.312 0 0121.332-23.731zm-4.759-9.222c-.217-.435-.431-.866-.647-1.294a56.53 56.53 0 00-22.937 25.552c-.382.848.983 1.323 1.362.481a54.911 54.911 0 0122.222-24.739zm9.6 16.221c-.3-.344-.6-.7-.9-1.066a.789.789 0 00-.238.184 64.63 64.63 0 00-13.883 26.426q.658.452 1.269.859a63.736 63.736 0 0113.752-26.403zm-14.467-24.905a30.135 30.135 0 00-.9-1.191 42.959 42.959 0 00-24.163 25.594q.428.94.915 1.861a41.572 41.572 0 0124.148-26.264z" fill="#dfe2ea"/><path d="M482.383 144.19l58.349 235.214a2.639 2.639 0 003.15 1.938 2.639 2.639 0 001.971-3.223L497.568 187.97l-10.113-42.134-1.745-3a1.813 1.813 0 00-3.327 1.354z" fill="#ecba12"/><path d="M531.068 303.88s-11.865 2.579-11.733 6.277 2.186 13.813 4.807 16.039 8.2 2.255 11.4-.3 5.785-9.643 3.988-13.912-6.446-8.849-8.462-8.104z" fill="#dfe2ea"/><path d="M519.969 298.212s7.3-3.275 10.1-.9 7.695 12.371 4.537 12.946-7.194-5.838-9.37-6.189-5.738-3.499-5.267-5.857z" fill="#dfe2ea"/><path d="M489.106 152.218s-15.044 7.961-29.557 6.012-23.531-29.914-47.14-36.678-54.44 9.936-63.822 25.686l29.058 5.42-22.375 33.41s40.6-22.257 65.058-5.156 60.069 31.622 81.71 24.669z" fill="#e22000"/><path d="M420.328 180.911c17.646 12.34 41.1 23.334 60.927 25.889-5.765-6.607-17.647-17.441-26.559-21.352-11.538-5.064-24.74-3.084-27.005-2.27s-11.821-10.691-29.588-15.155-42.831 18.044-42.831 18.044 40.601-22.257 65.056-5.156zm-53.617-40.183c7.961-9.779 20.415-11.145 32.011-12.433 3.608-.4 21.931-.567 19.4 5.507-.717-.008-2.062.287-2.46.225 8.009 2.677 11.958 6.893 17.591 13.1 3.351 3.692 7.553 7.775 11.97 10.232 2.526 1.406 8.809 1.585 6.915 5.565 4.082 1.051 9.306.7 13.581.543 2.43-.089 9.3-1.245 5.253 3.3-3.531 3.971-15.059.089-19.484-.344-4.255-.416-8.755.432-12.31-2.469 1.026-.577 2.006-1.691 3.424-1.9a107.621 107.621 0 01-23.517-17.064c-3.293-3.176-6.438-4.123-10.179-6.273a11.132 11.132 0 01-3.087-2.058c-.4-.348.712-1.837-.226-2.622-4-3.348-22.431 1.271-27.139 2.749-3.336 1.049-9.689 6.038-11.743 3.942zm117.545 19.064l11.07 44.21s-14.93-33.31-11.07-44.21z" fill="#f73616"/><path d="M371.64 250.402l39.065 4.535-20.3 8.44z" fill="#bbbec4"/><path d="M395.468 262.068l-16.281-9.836a17.465 17.465 0 00-16.524-.829 17.463 17.463 0 00-8.333 8.384l-19.748 42.261a13.3 13.3 0 00.111 11.494 13.3 13.3 0 006.6 6.321l22.617 9.91z" fill="#fff"/><g transform="translate(343.345 245.747)"><ellipse cx="11.913" cy="7.942" rx="11.913" ry="7.942" transform="rotate(-64.47 19.567 9.161)" fill="#dfe2ea"/><ellipse cx="11.913" cy="7.942" rx="11.913" ry="7.942" transform="rotate(-64.47 17.048 10.75)" fill="#fff"/></g><path d="M379.191 252.232c-.181-.109-.366-.207-.55-.31-4.825 5.574-11.07 18.091-18.376 33.252-4.249 8.817-8.643 17.935-10.062 18.686-2.277 1.205-8.84-2.109-13.96-5.36l-.617 1.321a47.5 47.5 0 0010.247 5.156c2.009.619 3.8.8 5.006.159 1.753-.927 5.036-7.608 10.686-19.336 5.728-11.886 13.157-27.3 18.3-33.159z" fill="#dfe2ea"/><path d="M379.078 260.897c-3.965 6.335-24.114 50.5-32.785 50.857-5.5.223-10-4.1-12.556-7.3a13.293 13.293 0 007.561 15.414l22.618 9.909 31.556-67.706-10.891-6.579a16.617 16.617 0 00-5.503 5.405z" fill="#bbbec4"/><path d="M399.034 253.484c-23.266 10.649-34.335 40.539-40.035 63.78-5.924 24.157 6 41.8 27.174 52.742 20.979 10.84 55.435 11.241 62.48-17.383 1.724-7-.627-13.126-1.82-19.822-1.187-6.669-.232-12.948.356-19.7.725-8.328.9-16.525 3.044-24.674 1.37-5.213 4.838-11.312 5.167-16.657.774-12.593-20.763-19.706-31.161-21.874-9.567-1.998-18.933.936-25.205 3.588z" fill="#fff"/><path d="M403.373 277.991c15.863 4.811 31.358 7.914 47.665 7.854 1.6-4.578 4.085-9.592 4.361-14.078.774-12.593-20.763-19.706-31.161-21.874-9.566-1.995-18.933.938-25.2 3.591-23.266 10.649-34.335 40.539-40.035 63.78-5.924 24.157 6 41.8 27.174 52.742q1.079.558 2.206 1.077c-.662-9.687-14-17.3-16.628-26.463-5.814-20.24 1.617-42.106 11.45-60.014 5.415-9.874 10.139-9.657 20.168-6.615z" fill="#dfe2ea"/><path d="M407.38 287.391c8.328.389 22.5 1.391 32.4 3.9a8.225 8.225 0 015.858 8.928c-.746 8.5-2.166 23.227-3.868 33.751-.742 4.589-4.641 7.946-8.933 7.664-8.61-.566-23.024-1.768-33.317-3.953a8.216 8.216 0 01-6.138-9.16 318.292 318.292 0 015.322-34.021 8.778 8.778 0 018.676-7.109z" fill="#dfe2ea"/><path d="M412.334 287.148c8.328.389 22.5 1.391 32.4 3.9a8.225 8.225 0 015.859 8.928c-.747 8.5-2.167 23.228-3.868 33.752-.742 4.589-4.641 7.946-8.934 7.663-8.61-.565-23.024-1.768-33.317-3.953a8.216 8.216 0 01-6.138-9.16 318.045 318.045 0 015.321-34.021 8.779 8.779 0 018.677-7.109z" fill="#60b09e"/><path d="M410.891 299.909s2.9-6.158 8-3.077 4.67 11.009 0 13.1-12.707-2.909-8-10.023zm21.98 2.234s2.9-6.158 8-3.078 4.671 11.008 0 13.1-12.709-2.909-8-10.022zm-24.815 13.516s20.688 4.417 35.881 3.523l-.839 5.4s-22.8.388-35.4-4.5zm4.026-124.91c-22.01 4.3-40.237 37.414-32.562 57.747 8.349 22.122 43.643 28.125 64.454 29.791 45.457 3.638 44.833-64.365 13.852-79.865-10.592-5.3-30.887-10.575-45.744-7.673z" fill="#fff"/><path d="M464.856 217.42c-2.8-2.317-6.953-3.978-10.254-5.561-4.737-2.27-10.031-3.266-15.277-4.2-6.577-1.177-18.128-.52-23.043-5.814 2.671-4.556 6.726-5.229 11.807-5.029 12.809.5 30.278 1.745 40.772 10.686a33.606 33.606 0 00-11.033-9.077c-10.592-5.3-30.887-10.574-45.744-7.672-22.01 4.3-40.237 37.414-32.562 57.747 2.519 6.672 7.49 11.877 13.774 15.939a5.464 5.464 0 013.916-2.384c2.811-.458 6.162.938 8.852 1.771 12.565 3.9 26.248 7.694 39.449 6.049 6.04-.753 9.473-.595 12.618-6.357 4.65-8.523 7.291-19.032 9.125-28.484 1.176-6.078 2.86-13.27-2.4-17.614z" fill="#dfe2ea"/><path d="M434.006 266.45c-24.374-4.088-38.089-13.188-38.847-13.7l-1.371-.929.334-1.621c5.01-24.318 21.747-40.362 22.457-41.033l.653-.618.9-.054c30.524-1.852 51.856 13.419 52.75 14.071l1.079.786-.063 1.333c-1.446 30.524-6.953 41.829-7.187 42.294l-.665 1.323-1.478.042a146.686 146.686 0 01-28.562-1.894zm-34.66-16.943c5.59 3.248 27.547 14.547 61.478 13.924 1.356-3.619 4.862-14.93 6.055-37.589a84.041 84.041 0 00-47.518-12.454c-2.936 3.024-15.491 16.814-20.015 36.119zm20.636-36.741z" fill="#4d515e"/><path d="M418.28 210.967s-16.821 15.9-21.731 39.732c0 0 24.191 16.386 65.946 15.17 0 0 5.489-10.951 6.926-41.3 0-.002-21.156-15.418-51.141-13.602z" fill="#7dbfb2"/><path d="M423.389 259.24c-1.25-6.393-1.382-14.272.741-20.289a48.059 48.059 0 0110.769-16.665c5.763-5.52 13.851-3.737 20.7-5a85.348 85.348 0 00-37.313-6.321s-16.821 15.9-21.731 39.732c0 0 9.66 6.54 27.3 11.05-.154-.784-.291-1.614-.466-2.507z" fill="#60b09e"/><path d="M421.702 214.14c-5.384 7.709-10.378 14.374-14.315 23.007-2 4.376-7.673 11.7-2.313 14.906 1.051.629 4.9 2.545 6.169 2.229 3.5-.868 5.54-10.552 7.254-13.432 3.775-6.345 7.7-12.928 10.484-19.741 1.176-2.877 2.618-5.4-1-6.919-2.312-.973-4.604.342-6.279-.05zm38.092 8.901c1.416.8 3.409 1.115 4.7 2.076 1.933 1.44 1.615 1.952 1.629 4.656.033 6.086-.8 11.784-1.263 17.82-.346 4.475-1.176 10.015-2.824 14.13-.9 2.24-.394 2.14-3.277 2.141a30.237 30.237 0 01-6.239-.7c.301-13.151 5.033-27.099 7.274-40.123zm-12.911-3.975c3.612.086 8.978 1.464 9.128 5.038.274 6.525-3.453 13.717-4.4 20.2a151.72 151.72 0 01-2.92 15.6c-.824 3.15-4.782 3.688-7 .918-2.7-3.364 1.96-10.822 1.865-14.781a2.443 2.443 0 00-1.426-.117c-1.772 3.8-1.948 8.019-3.364 11.794-.675 1.8-1.979 3.686-4.141 2.378.233-9.08 3.529-17.759 6.2-26.437 1.383-4.493 2.374-10.021 4.972-13.934.514-.018 1.061-.217 1.086-.659z" fill="#94d3c7"/><path d="M375.472 216.208a11.648 11.648 0 0113.147-6.477c3.725.824 7.354 2.042 7.432 7.194.1 6.36-4.177 13.464-5.983 19.359-1.89 6.17-4.118 9.623-11.524 6.818-7.285-2.76-5.711-12.18-5.008-18.744a26.574 26.574 0 011.936-8.15z" fill="#fff"/><path d="M381.397 212.41a4.317 4.317 0 01.9 1.935.784.784 0 00-.437-.379c-.714-.22-1.677.855-2.152 2.4-.43 1.394-.314 2.693.238 3.094a5.348 5.348 0 01-.934.7s2.582.8 4.2-2.946-1.815-4.804-1.815-4.804zm5.225 7.263a3.6 3.6 0 01.75 1.613.656.656 0 00-.364-.316c-.594-.182-1.4.713-1.793 2-.357 1.162-.261 2.244.2 2.578a4.44 4.44 0 01-.778.581s2.152.662 3.5-2.455-1.515-4.001-1.515-4.001zm-7.584 4.734a3.6 3.6 0 01.751 1.613.653.653 0 00-.365-.316c-.594-.183-1.4.712-1.793 2-.358 1.162-.261 2.244.2 2.579a4.461 4.461 0 01-.778.58s2.151.662 3.5-2.455-1.515-4.001-1.515-4.001zm3.145 6.621a3.585 3.585 0 01.75 1.612.654.654 0 00-.363-.316c-.6-.183-1.4.713-1.793 2-.358 1.163-.262 2.244.2 2.579a4.426 4.426 0 01-.778.581s2.152.663 3.5-2.455-1.516-4.001-1.516-4.001z" fill="#dfe2ea"/><path d="M374.467 330.526c23.06-10.357 54.876 8.389 76.818 22.006 17.831 11.065 5.641 39.37 3.66 55.8-1.726 14.32-7.631 41.476-27.982 35.966-14.109-3.819-20.512-9.3-19.678-24.051.581-10.305 5.972-31.784 5.972-31.784-12.089-8.977-34.215 5.3-47.139-19.423-3.684-7.044-8.573-30.912 8.349-38.514z" fill="#fff"/><path d="M449.411 392.664c-8.623-4.119-17.312-13.817-20.3-23.932-3.219-10.895 2.646-19.791 8.133-25.334l1.062-1.071 1.294.774c3.754 2.242 7.284 4.436 10.7 6.559l2 1.241c13.73 8.522 11.292 25.573 7.617 42.309l-.316 1.439-1.472.071a18.535 18.535 0 01-8.718-2.056zm-10.467-45.469c-4.42 4.831-8.632 12.013-6.142 20.446 3.547 12 15.652 22.335 23.688 23.186 3.184-14.877 4.981-29.7-6.223-36.656l-2-1.242a703.044 703.044 0 00-9.319-5.736z" fill="#dfe2ea"/><path d="M423.482 336.355q-1.723-.865-3.458-1.684a248.481 248.481 0 00-20.392 50.294c1.339.044 2.649.114 3.924.241a244.559 244.559 0 0119.926-48.851zm-42.82 46.456a68.087 68.087 0 0113.907-56.114 42.4 42.4 0 00-4.7-.243 71.822 71.822 0 00-13.471 54.3 23.758 23.758 0 004.264 2.057zm28.787-52.539q-1.853-.657-3.7-1.218a135.768 135.768 0 00-14.527 55.681c1.278.07 2.552.107 3.813.132a131.35 131.35 0 0114.414-54.595zm3.521 59.358c-.221.9-.553 2.286-.951 4a83.936 83.936 0 0027.891-8.3c2.19-1.1.931-4.736-1.283-3.63a81.481 81.481 0 01-25.657 7.93zm16.241-26.666c1.593-1.9-1.315-4.422-2.91-2.523l-20.4 24.313a1.966 1.966 0 00-.385.7 21.539 21.539 0 013.978 1.005zm21.755 63.735a67.255 67.255 0 001.163-3.747c-14.977-1.326-30.224-2.261-44.884 1.268a27.63 27.63 0 00.423 3.855c14.118-3.525 28.854-2.651 43.298-1.376zm3.953-18.157l.024-.208c.138-1.142.327-2.343.549-3.589a259.392 259.392 0 00-46.227 1.765c-.255 1.329-.5 2.659-.724 3.968a254.641 254.641 0 0146.378-1.936z" fill="#dfe2ea"/><path d="M413.832 411.16c-1.372-3.719 5.246-25.9 5.246-25.9s-23.537-6.591-39.613-11.97c-7.861-2.631-13.019-8.355-16.241-13.518a34.759 34.759 0 002.894 9.271c12.924 24.72 35.049 10.445 47.139 19.423 0 0-5.391 21.479-5.972 31.784-.6 10.7 2.606 16.525 9.8 20.375l2.623-2.07 15.866-34.062s-20.372 10.386-21.742 6.667z" fill="#dfe2ea"/><path d="M483.103 414.597s-3.31-11.715-9.677-14.756-15.955-10.149-29.781-4.824-28.989 23.677-28.989 23.677l-8 1.866a45.664 45.664 0 00-1.339 37.04z" fill="#fff"/><path d="M470.384 406.208c13.067 3.8 19.182 13.427 11.389 26.767s-30.483 28.1-37.248 34.82-37.135 9.279-39.208-10.2 22.75-35.959 29.066-42.993c15.188-16.913 30.631-9.956 36.001-8.394z" fill="#dfe2ea"/><g transform="translate(397.35 412.256)"><ellipse cx="9.623" cy="6.415" rx="9.623" ry="6.415" transform="rotate(-64.47 15.805 7.4)" fill="#dfe2ea"/><ellipse cx="9.623" cy="6.415" rx="9.623" ry="6.415" transform="rotate(-64.47 13.77 8.684)" fill="#fff"/></g><path d="M420.055 427.93q-.666.664-1.329 1.349l38.1 28.383q.751-.6 1.518-1.208zm-7.983 9.176q-.552.761-1.074 1.539l36.269 26.677c.472-.4.96-.808 1.485-1.237zm25.743 34.148a25.763 25.763 0 002.223-.77l-33.641-22.621c-.2.632-.377 1.267-.532 1.908zm-7.83-52.457q-.68.606-1.408 1.252l36.671 30.73q.72-.612 1.433-1.232-18.349-15.374-36.696-30.75zm17.4-13.583q-1.093.419-2.2.961a285.793 285.793 0 0138.1 23.873c.272-.605.521-1.2.734-1.791a285.8 285.8 0 00-36.634-23.043zm-8.057 4.7q-.743.593-1.488 1.254a296.77 296.77 0 0137.187 30.467q.652-.691 1.271-1.382a299.2 299.2 0 00-36.97-30.339z" fill="#a2a5aa"/><path d="M395.262 274.04c2.14 11.573-10.068 14.682-15.843 15.8-8.583 1.662-21.339.924-28.912 5.431 0 0-12.736 20.56-7.2 36.83 1.047 3.078 5.141 5.95 2.569 9.579-2.27 3.2-6.309 1.347-9.489-.214-1.167 6.26-4.361 19.6-13.756 13.974-6.922-4.147-6.37-16.971-5.913-23.854 1.067-16.066 6.8-40.882 13.785-55.652 0 0 21.986-17.692 41.075-17.006 6.758.243 20.51-2.055 23.684 15.112z" fill="#fff"/><path d="M318.894 333.977c1.067-16.065 10.579-37.682 17.563-52.452 0 0 24.45-14.481 43.539-13.8 0 0 6.231-7.149 11.8-2.448-5.446-7.515-14.958-6.162-20.227-6.352-19.089-.685-41.075 17.006-41.075 17.006-6.985 14.77-12.718 39.586-13.785 55.652-.437 6.579-.955 18.582 5.046 23.25-3.672-5.568-3.236-15.21-2.861-20.856z" fill="#dfe2ea"/><path d="M341.96 324.922q-.038-.712-.047-1.425a48.614 48.614 0 01-24.539 1.321q-.086.691-.162 1.368a49.942 49.942 0 0024.748-1.264zm-19.575-25.591c-.118.448-.232.9-.348 1.347a70.364 70.364 0 0023.216 5.726c.167-.455.337-.9.508-1.335a69.319 69.319 0 01-23.376-5.738zm4.652-15.007c-.158.431-.314.865-.469 1.3l22.641 11.946c.25-.468.472-.871.658-1.2zm15.567 31.572q.126-.687.271-1.365a69.934 69.934 0 01-23.12-3.969c-.093.45-.182.9-.271 1.348a71.785 71.785 0 0023.12 3.986zm19.034-24.032c.45-.066.9-.128 1.357-.187a47.386 47.386 0 00-13.7-27.521q-.662.311-1.31.631a45.9 45.9 0 0113.653 27.077zm9.804-1.026q.69-.062 1.368-.127a53.708 53.708 0 00-14.707-29.123c-.62-.632-1.511.413-.9 1.04a52.172 52.172 0 0114.239 28.21zm-17.676 2.903q.614-.227 1.254-.428a.766.766 0 00-.083-.274 61.39 61.39 0 00-18.6-21.41c-.419.285-.819.562-1.2.828a60.554 60.554 0 0118.629 21.284zm27.039-4.216c.438-.112.894-.24 1.365-.387a40.823 40.823 0 00-14.322-30.225q-.981.055-1.963.168a39.5 39.5 0 0114.92 30.444z" fill="#dfe2ea"/><path d="M371.225 273.872c-4.945.1-9.005-2.5-9.069-5.8s3.894-6.047 8.839-6.143 9.006 2.5 9.07 5.8-3.894 6.051-8.84 6.143z" fill="#dfe2ea"/><path d="M371.18 271.483c-4.945.1-9.005-2.5-9.07-5.8s3.894-6.047 8.839-6.143 9.006 2.5 9.07 5.8-3.895 6.048-8.839 6.143zm-197.534-35.144c.61-.7 1.167-1.294 1.758-1.921s1.173-1.228 1.771-1.828q1.787-1.8 3.644-3.526 3.713-3.451 7.688-6.616a110.331 110.331 0 0117.043-11.238 74.8 74.8 0 0119.524-7.191 52.52 52.52 0 0121.355-.113 49.057 49.057 0 0110.315 3.372c1.656.733 3.25 1.582 4.819 2.47.78.464 1.547.972 2.321 1.461.384.251.775.485 1.152.752l1.11.84 1.11.845.553.427.524.473c.7.634 1.4 1.258 2.086 1.912l1.935 2.105c.334.34.6.749.9 1.122l.871 1.148a36.181 36.181 0 015.093 10.263 48.82 48.82 0 012.021 10.9 83.8 83.8 0 01.071 10.575c-.333 6.9-1.162 13.5-1.651 19.917a84.415 84.415 0 00.167 18.406l.378 2.132a10.685 10.685 0 00.228 1.045l.251 1.033a20.815 20.815 0 00.583 2.02l.31 1c.111.31.23.589.34.886a25.113 25.113 0 001.75 3.445 30.412 30.412 0 002.349 3.281 47.259 47.259 0 0013.336 10.785 72.621 72.621 0 0016.631 6.743 79.151 79.151 0 0035.654 1.478 66.316 66.316 0 0016.6-5.57 61.284 61.284 0 0014.252-9.725l11.962 13.716a79.133 79.133 0 01-18.864 11.787 83.288 83.288 0 01-21.12 6.162 94.9 94.9 0 01-42.752-3.438 87.163 87.163 0 01-19.649-8.923c-1.553-.946-3.06-1.989-4.552-3.055-1.478-1.094-2.935-2.228-4.337-3.451a53.888 53.888 0 01-7.769-8.249 43.285 43.285 0 01-3.206-4.91 37.9 37.9 0 01-2.5-5.49c-.163-.481-.338-.974-.484-1.448l-.378-1.381c-.249-.922-.514-1.842-.676-2.767l-.277-1.387a16.921 16.921 0 01-.241-1.384l-.373-2.764a75.679 75.679 0 01-.281-10.8c.137-3.525.463-6.967.866-10.329.793-6.732 1.862-13.211 2.412-19.493.568-6.274.578-12.381-.9-17.82a26.064 26.064 0 00-3.356-7.551l-.594-.848a8.417 8.417 0 00-.611-.839l-1.351-1.6c-.493-.5-1.009-.991-1.509-1.494l-.377-.376-.416-.343-.835-.688-.833-.693c-.288-.222-.6-.42-.9-.634-.607-.415-1.2-.849-1.819-1.257-1.274-.788-2.568-1.55-3.907-2.2a40.152 40.152 0 00-8.36-3.114 44.192 44.192 0 00-17.986-.6 67.357 67.357 0 00-17.78 5.776 103.768 103.768 0 00-16.4 9.9q-3.892 2.855-7.574 6.009a119.959 119.959 0 00-3.606 3.22 85.71 85.71 0 00-3.4 3.329z" fill="#fff"/><path d="M173.646 236.339l1.626-1.79 4.013 3.928-1.533 1.542zm5.267-5.485l1.7-1.623 3.966 4.418-1.689 1.476zm5.544-5.086l1.793-1.524 3.908 4.889-1.77 1.376zm5.839-4.766l1.886-1.42 3.792 5.378-1.843 1.264zm6.143-4.416l1.983-1.3 3.594 5.893-1.91 1.135zm6.463-4.006l2.09-1.155 3.28 6.437-1.977.982zm6.81-3.511l2.2-.978 2.815 7-2.036.8zm7.166-2.896l2.314-.755 2.153 7.568-2.083.58zm7.522-2.123l2.417-.476 1.253 8.094-2.108.32zm7.826-1.165l2.491-.135.092 8.511-2.1.022zm8.007-.01l2.507.257-1.3 8.738-2.054-.3zm7.972 1.272l2.442.667-2.808 8.714-1.966-.631zm7.676 2.558l2.3 1.045-4.3 8.447-1.844-.939zm7.169 3.724l2.143 1.413-5.777 7.915-1.644-1.192zm6.613 5.022l1.877 1.88-7.543 6.748-1.309-1.434zm5.525 6.524l1.393 2.312-9.236 4.874-.905-1.667zm3.812 7.698l.807 2.527-10.411 2.74-.506-1.874zm2.013 8.13l.325 2.536-11.047.942-.169-2.031zm.665 8.045l.019 2.463-11.4-.308.078-2.131zm-.152 7.791l-.146 2.382-11.683-1.056.232-2.2zm-.563 7.543l-.211 2.312-11.973-1.377.306-2.254zm-.676 7.33l-.2 2.251-12.305-1.3.3-2.317zm-.546 7.138l-.108 2.19-12.67-.807.224-2.393zm-.189 6.93l.05 2.114-13.017.184.052-2.482zm.39 6.653l.274 2-13.222 1.763-.237-2.564zm1.176 6.246l.554 1.845-13.078 3.949-.652-2.586zm2.077 5.431l.9 1.553-12.042 7.107-1.292-2.484zm3.311 4.847l1.266 1.425-10.693 9.5-1.692-2.09zm4.361 4.383l1.528 1.263-9.359 11.24-1.938-1.752zm5.115 3.852l1.714 1.089-8.1 12.563-2.1-1.469zm5.645 3.296l1.849.916-6.9 13.622-2.218-1.224zm6.025 2.739l1.941.744-5.729 14.5-2.306-1zm6.291 2.191l2.007.575-4.549 15.25-2.377-.8zm6.473 1.658l2.05.406-3.333 15.891-2.435-.6zm6.589 1.113l2.072.236-2.056 16.43-2.479-.394zm6.641.563l2.077.063-.7 16.865-2.511-.187zm6.635.009l2.063-.114.762 17.185-2.53.028zm6.571-.561l2.03-.294 2.329 17.368-2.531.253zm6.447-1.141l1.979-.476 4.006 17.39-2.515.488zm6.26-1.728l1.907-.66 5.779 17.223-2.471.734zm6.011-2.313l1.816-.842 7.621 16.845-2.4.984zm5.702-2.893l1.71-1.02 9.489 16.242-2.293 1.232zm5.344-3.453l1.589-1.189 11.328 15.418-2.157 1.47zm4.944-3.985l.541-.49 12.744 14.613-.738.613z" fill="#dfe2ea"/><path d="M84.064 420.89s38.4-20.2 61.789-25.7 66.657-12.252 78.481-17.748 60.536-10.892 70.4 1.691-30.448 26.636-47.662 29.673-49.328 20.516-64.166 18.844-56.479 4.189-70.465 9.518-44.567.022-28.377-16.278z" fill="#e5d96a"/><path d="M143.026 244.637c3.865 20.052 12.261 38.339 18.194 57.741 5.215 17.045 9.155 34.621 13.063 52.044 2.646 11.793 6.276 24.067 9.915 35.583 1.311 4.151 3.275 12.92 6.823 15.616 7.3 5.548 5.851-5.62 5.3-11.5-1.894-20.041-11.547-39.315-16.389-58.729-6.071-24.347-7.792-49.37-10.4-74.1-.844-8.015-2.329-14.8-10.628-17.869-4.433-1.631-13.882-1.876-15.878 1.214z" fill="#d84d33"/><path d="M98.459 10.017c-20.776 30.658-51.669 110.5 2.289 282.994a22.757 22.757 0 0025.944 15.59l87.534-16.576a22.756 22.756 0 0018.447-24.023c-12.836-177.385-71.882-242-102.2-263.774a22.708 22.708 0 00-32.014 5.789z" fill="#fff"/><path d="M195.032 222.694c-5.156 5.24-6.663 13.3-7.016 20.594-.524 10.784 7.952 28.238 4.623 37.931-3.022 8.8-28.087 12.22-37.752 13.521-13.308 1.793-14.2-1.088-15.162-12.267-.767-8.917-1.656-19.152-5.758-27.306-6.071-12.069-18.106-16.71-26.957-26.11-11.507-12.225-9.731-38.356 7.785-44.324 22.427-7.641 47.787-4.577 65.551-22.661 14.113-14.368 8.055-30.7 4.68-48.524-2.888-15.246-6.4-27.016-18.836-36.749-11.2-8.768-27.391-6.5-40.376-2.8-14.407 4.1-24.583 19.581-40.106 20.354-4.547-12.59 2.923-33.7 8.249-45.1 5.072-10.855 12.833-23.353 25.037-27.041 12.425-3.753 23.768 5.332 35.779 4.383a146.33 146.33 0 00-24.3-22.37 22.708 22.708 0 00-32.01 5.789c-20.776 30.658-51.669 110.5 2.289 282.994a22.757 22.757 0 0025.94 15.593l87.534-16.576a22.756 22.756 0 0018.447-24.023q-2.064-28.535-5.633-53.262c-11.262-.376-23.048-1.157-32.008 7.954z" fill="#dfe2ea"/><path d="M102.537 240.716c-13.079 2.477-25.413 3.673-35.475 13.3s-19.374 27.6-19.617 42.019c-.507 29.887 16.162 54.733 27.1 80.989 3.684 8.845 25.522 54.83 35.761 51.669 7.319-2.26-9-29.646-11.541-37.1-5.3-15.58-13.2-29.74-11.811-46.621 2.212-26.88 23.414-31 44.383-36.077-2.688-20.602-6.056-68.065-28.8-68.179z" fill="#e22000"/><path d="M131.336 308.893c-2.687-20.6-6.056-68.064-28.8-68.178-8.14 1.542-15.992 2.589-23.187 5.48 5.729 4.183 13.194 6.032 18.493 11.787 3.2 3.474 7.792 9.691 9.679 14.113 4.194 9.836 1.134 26.895-4.516 35.549-6.246 9.57-18.775 13.276-23.7 23.864-4.333 9.323-1.834 17.043.364 26.3 4.336 18.273 12.727 35.447 19.647 52.716 2.051 5.116 7.913 11.881 9.569 18.3a3.658 3.658 0 001.416-.135c7.319-2.26-9-29.646-11.541-37.1-5.3-15.58-13.2-29.74-11.811-46.621 2.218-26.875 23.42-31.001 44.387-36.075z" fill="#fa2502"/><path d="M97.289 246.858c-14.218-2.358-33.942 14.518-40.375 26.163-7.18 12.994-5.014 28.055-3.678 42.113a46.67 46.67 0 006.652 20.119c4.838 8.257 8.952 8.1 7.824-2.252-1.537-14.1-9.219-25.909-7.72-40.671.952-9.374 3.751-17.1 10.648-23.478 7.742-7.164 13.929-9.89 23.476-13.343 3.471-1.254 16.576-10.187 3.173-8.651z" fill="#ff6a52"/><path d="M210.403 220.271c13.081-2.467 25-5.853 37.882-.561s28.109 18.629 33.6 31.964c11.377 27.642 4.923 56.856 4.32 85.294-.2 9.579-3.756 60.362-14.442 61.155-7.639.567-2.436-30.887-2.792-38.754-.748-16.44 1.438-32.505-6.014-47.717-11.869-24.219-33.114-20.323-54.488-17.395-5.018-20.163-19.201-65.582 1.934-73.986z" fill="#e22000"/><path d="M208.466 294.256c-5.015-20.163-19.2-65.582 1.938-73.986 8.142-1.535 15.833-3.426 23.587-3.36-3.807 5.986-10.083 10.431-12.917 17.722-1.711 4.4-3.72 11.867-3.862 16.672-.317 10.688 8.758 25.454 17.176 31.451 9.307 6.63 22.325 5.51 30.77 13.572 7.436 7.1 7.926 15.2 9.258 24.623 2.63 18.6 1.085 37.647.943 56.25-.042 5.511-3.032 13.948-2.231 20.53a3.655 3.655 0 01-1.367.391c-7.639.567-2.436-30.886-2.792-38.754-.748-16.441 1.438-32.506-6.014-47.717-11.87-24.218-33.115-20.321-54.489-17.394z" fill="#fa2502"/><path d="M217.53 224.074c12.378-7.384 36.9 1.133 47.138 9.627 11.426 9.479 14.906 24.292 18.791 37.868a46.659 46.659 0 011.148 21.159c-1.492 9.453-5.38 10.807-8.106.758-3.713-13.686-.869-27.487-7.652-40.683-4.307-8.381-9.731-14.548-18.481-17.974-9.822-3.845-16.577-4.127-26.725-3.857-3.691.097-19.151-3.438-6.113-6.898z" fill="#ff6a52"/><path d="M118.774 82.576c-46.523 9.6-38.321 89.216 7.48 90.05 21.152.385 51.04-3.2 59.243-26.786 6.907-19.857-2.357-49.232-18.227-62.155-12.549-10.223-35.103-9.043-48.496-1.109z" fill="#3d4051"/><path d="M120.535 86.633c-42.072 8.684-34.654 80.681 6.765 81.436 19.129.348 46.157-2.9 53.575-24.224 6.246-17.957-2.132-44.522-16.482-56.208-11.354-9.247-31.751-8.179-43.858-1.004z" fill="#30313e"/><path d="M20.537 107.026s-27.2 9.444-19 47.074 45.185 31.7 45.185 31.7z" fill="#7dbfb2"/><path d="M47.165 96.137c39.379-6.664 59.795 70.637 24.488 86.829-16.3 7.477-40.734 14.174-55.043-5.145-12.047-16.267-14.734-46.888-6.752-64.327 6.318-13.796 24.238-20.28 37.307-17.357z" fill="#4d515e"/><path d="M47.171 104.086c32.555-5.509 49.434 58.4 20.245 71.784-13.48 6.182-33.677 11.719-45.506-4.253-9.961-13.448-12.182-38.764-5.583-53.182 5.22-11.406 20.035-16.765 30.844-14.349z" fill="#7dbfb2"/><path d="M47.17 104.086a29.2 29.2 0 00-17.052 1.8 24.269 24.269 0 014.616.554c32.556-5.509 49.435 58.4 20.245 71.784a81.821 81.821 0 01-9.763 3.78c7.836-.4 15.78-3.19 22.2-6.135 29.188-13.385 12.31-77.292-20.246-71.783z" fill="#60b09e"/><path d="M21.829 122.348c-5.8 8.934-5.808 19.968-2.973 29.653 1.708 5.836 3.946 22.112 13.991 14.865-.592-7.4-4.679-13.47-3.622-21.291.885-6.549 1.33-10.767.679-17.361-.339-3.436 1.223-7.837-2.746-9.052a4.279 4.279 0 00-5.329 3.186z" fill="#94d3c7"/><g fill="#ecba12"><path d="M128.066 181.668l15.562 82.177c2.4 12.647 12.673 89.6 12.673 89.6l12.656 66.847 8.291-1.57s-25.338-111.139-25.2-124.584-17.763-113.647-17.763-113.647zm39.901-7.557l15.561 82.177c2.4 12.648 20.964 88.033 20.964 88.033l12.657 66.844-8.29 1.57s-17.049-112.709-22.093-125.173-25.018-112.273-25.018-112.273z"/><path d="M132.844 189.889l32.645-6.182.981 5.182-32.645 6.182zm4.317 22.799l32.645-6.182.981 5.182-32.645 6.182zm4.317 22.799l32.645-6.182.981 5.182-32.645 6.182zm4.317 22.8l32.645-6.182.981 5.182-32.645 6.182zm4.318 22.799l35.754-6.77 1.079 5.7-35.754 6.77zm1.11 22.87l38.862-7.36 1.178 6.22-38.862 7.358zm4.415 23.318l38.862-7.36.982 5.183-38.863 7.359zm4.318 22.799l38.862-7.36.982 5.183-38.863 7.359zm4.317 22.8l38.862-7.36.982 5.183-38.863 7.359zm4.317 22.799l38.862-7.36.982 5.183-38.863 7.359z"/></g></svg>