<svg xmlns="http://www.w3.org/2000/svg" viewBox="0 0 262.6 250"><path d="M125.898 250c-1.4 0-2.8-.1-4.2-.2-8.7 0-17.4-.9-25.8-2.8-8.2-1.8-16.3-4.5-23.9-8.1-7.6-3.5-14.8-7.8-21.5-12.7-6.7-5-12.9-10.6-18.4-16.8-5.7-6.4-10.8-13.4-15.1-20.9-4.4-7.6-8-15.6-10.7-23.9-2.8-8.5-4.7-17.3-5.6-26.3-1-9.3-.9-18.7.1-28 1.5-13.7 5.3-27.1 11.2-39.6 5.7-12.2 13.4-23.4 22.7-33.1 9.2-9.7 19.9-17.8 31.7-24 11.9-6.3 24.9-10.5 38.3-12.4 5.6-.8 11.3-1.2 17-1.2 3.1 0 6.2.1 9.3.4V30c-2.1-.1-4.2-.2-6.4-.2-6.3 0-12.5.6-18.7 1.9-6 1.3-11.8 3.1-17.4 5.5-5.5 2.4-10.8 5.3-15.8 8.8-4.9 3.4-9.5 7.3-13.7 11.6-4.2 4.3-8 9-11.3 14.1-3.4 5.1-6.2 10.5-8.6 16.2-2.4 5.8-4.2 11.8-5.4 17.9-1.3 6.3-1.9 12.7-1.9 19.2 0 6.4.6 12.9 1.9 19.2 1.2 6.1 3 12.1 5.4 17.9 2.3 5.6 5.2 11.1 8.6 16.2 3.3 5 7.1 9.8 11.3 14.1 4.2 4.3 8.8 8.2 13.7 11.6 5 3.4 10.2 6.4 15.8 8.8 5.6 2.4 11.4 4.3 17.4 5.5 6.2 1.3 12.4 1.9 18.7 1.9 2.1 0 4.2-.1 6.4-.2v29.8c-1.8.1-3.5.2-5.1.2z" fill="#1974f8"/><path d="M130.998 220c48.3-3.4 86.4-44.6 86.4-95s-38.1-91.6-86.4-95V.3c38.8 3 72.4 24.7 92.6 56.3.2.2.3.4.5.7 5.8 8.1 10 17.9 13.1 28.4 2 6.2 3.5 12.6 4.5 19 .7 3.8 1.2 7.5 1.7 11.3 2.1 16.9 2.3 20.9 1.3 37.9-.2 2.9-.3 5.9-.3 8.9 0 27 5.5 39 18.1 58.9-13.9 5.5-26.3 4.5-38.2 3.5-13.4-1.2-25.9-2.3-38.7 6-.7.4-1.4.7-2.1 1.1-9.2 5.6-19.2 10-29.6 12.9-7.5 2.4-15.2 3.9-23 4.6V220z" fill="#fff"/></svg>