<?xml version="1.0" encoding="utf-8"?>
<!-- Generator: Adobe Illustrator 24.1.0, SVG Export Plug-In . SVG Version: 6.00 Build 0)  -->
<svg version="1.1" id="katman_1" xmlns="http://www.w3.org/2000/svg" xmlns:xlink="http://www.w3.org/1999/xlink" x="0px" y="0px"
	 viewBox="0 0 262.6 250" style="enable-background:new 0 0 262.6 250;" xml:space="preserve">
<style type="text/css">
	.adekstra0{fill:#1974F8;}
	.adekstra1{fill:#FFFFFF;}
</style>
<g transform="translate(-829.002 -415)">
	<path class="adekstra0" d="M954.9,665c-1.4,0-2.8-0.1-4.2-0.2c-8.7,0-17.4-0.9-25.8-2.8c-8.2-1.8-16.3-4.5-23.9-8.1
		c-7.6-3.5-14.8-7.8-21.5-12.7c-6.7-5-12.9-10.6-18.4-16.8c-5.7-6.4-10.8-13.4-15.1-20.9c-4.4-7.6-8-15.6-10.7-23.9
		c-2.8-8.5-4.7-17.3-5.6-26.3c-1-9.3-0.9-18.7,0.1-28c1.5-13.7,5.3-27.1,11.2-39.6c5.7-12.2,13.4-23.4,22.7-33.1
		c9.2-9.7,19.9-17.8,31.7-24c11.9-6.3,24.9-10.5,38.3-12.4c5.6-0.8,11.3-1.2,17-1.2c3.1,0,6.2,0.1,9.3,0.4V445
		c-2.1-0.1-4.2-0.2-6.4-0.2c-6.3,0-12.5,0.6-18.7,1.9c-6,1.3-11.8,3.1-17.4,5.5c-5.5,2.4-10.8,5.3-15.8,8.8
		c-4.9,3.4-9.5,7.3-13.7,11.6c-4.2,4.3-8,9-11.3,14.1c-3.4,5.1-6.2,10.5-8.6,16.2c-2.4,5.8-4.2,11.8-5.4,17.9
		c-1.3,6.3-1.9,12.7-1.9,19.2c0,6.4,0.6,12.9,1.9,19.2c1.2,6.1,3,12.1,5.4,17.9c2.3,5.6,5.2,11.1,8.6,16.2c3.3,5,7.1,9.8,11.3,14.1
		c4.2,4.3,8.8,8.2,13.7,11.6c5,3.4,10.2,6.4,15.8,8.8c5.6,2.4,11.4,4.3,17.4,5.5c6.2,1.3,12.4,1.9,18.7,1.9c2.1,0,4.2-0.1,6.4-0.2
		v29.8C958.2,664.9,956.5,665,954.9,665z"/>
	<path class="adekstra1" d="M960,635c48.3-3.4,86.4-44.6,86.4-95s-38.1-91.6-86.4-95v-29.7c38.8,3,72.4,24.7,92.6,56.3
		c0.2,0.2,0.3,0.4,0.5,0.7c5.8,8.1,10,17.9,13.1,28.4c2,6.2,3.5,12.6,4.5,19c0.7,3.8,1.2,7.5,1.7,11.3c2.1,16.9,2.3,20.9,1.3,37.9
		c-0.2,2.9-0.3,5.9-0.3,8.9c0,27,5.5,39,18.1,58.9c-13.9,5.5-26.3,4.5-38.2,3.5c-13.4-1.2-25.9-2.3-38.7,6c-0.7,0.4-1.4,0.7-2.1,1.1
		c-9.2,5.6-19.2,10-29.6,12.9c-7.5,2.4-15.2,3.9-23,4.6V635z"/>
</g>
</svg>
