<svg xmlns="http://www.w3.org/2000/svg" viewBox="0 0 550 500"><path d="M275 500h-.4v-48.3c1.4 0 2.7-.1 4.1-.2 19.2-1.7 32.4-12.4 39.2-31.1 6.3-17.8 1.5-37.6-12.3-50.6-1.9-1.8-4-3.5-7.2-6.3 13.5-8.4 26.3-16.4 39.2-24.3 4.3-2.6 5.8 1.6 7.8 4 43.4 51.7 18.6 135.4-45.5 153.4-8.1 2.3-16.4 3.4-24.8 3.5h-.1zm90.9-202.8c-.6-26.3-.1-52.7-.1-79h-.1c0-25 .1-50 0-74.9-.2-52-38.9-92.8-88.5-93.7h-2.7V0c8.5-.1 17.1.6 25.5 2.1 65.1 11.4 113.3 70.6 113.7 140.3.3 50.3 0 100.6.1 150.9.1 25.3 13.2 42.7 35.3 47.7 23.9 5 47.2-11 52.1-35.7 4.9-24.8-10.6-48.9-34.5-53.9a42.5 42.5 0 00-17.4 0c-12.6 2.8-12.6 2.8-12.6-10.5 0-9.6.4-19.2-.1-28.7-.4-6.8 1.9-9.5 8.5-10.6 48.8-7.7 96.1 28.7 103.8 80.3 7.5 50.5-26.2 99.6-74.3 108-5.5 1-11.1 1.5-16.7 1.5-49.9-.1-90.6-39.9-92-94.2zm-91.3-4.2c6.4-3.5 12.9-7 19.3-10.6 16.2-9 32.5-18 49.2-27.3v51.7c0 4.8-4.3 5.7-7.3 7.4-20.3 11.9-41.1 22.7-61.2 34.9V293zm8.7-155.5c0-13.3 10.7-24 24-24s24 10.7 24 24-10.7 24-24 24-24-10.7-24-24z" fill="#fff"/><path d="M274.6 500c-16.8-.1-33.3-4.9-47.5-14-14.4-9.2-26-22.1-33.6-37.4-4.9-9.8-8.1-20.4-9.5-31.3-1.4-10.6-1-21.4 1.1-32 2.1-10.5 5.9-20.5 11.2-29.8 5.4-9.4 12.5-17.8 20.8-24.8 8.8-7.4 18.1-14.3 27.9-20.4 10-6.4 20.2-12.1 29.7-17.3v56.2c-8.8 5.4-16.6 10.5-23.7 15.6-4.8 3.4-9.1 7.7-12.5 12.5-3.2 4.6-5.7 9.6-7.1 15-1.5 5.3-2 10.9-1.5 16.4.5 5.7 2.1 11.3 4.5 16.5 3.5 7.9 9.3 14.6 16.5 19.3 7.1 4.6 15.3 7.1 23.8 7.1l-.1 48.4zM92.4 391.6c-2.5 0-5.1-.1-7.6-.4-21.3-2.1-41.3-11.4-56.7-26.3-7.5-7.3-13.7-15.7-18.4-25.1-4.8-9.5-7.8-19.8-9-30.4-.9-7.5-1-15.1-.3-22.7.7-7.1 2.1-14.1 4.2-20.9 2-6.5 4.8-12.8 8.2-18.7 3.3-5.8 7.2-11.2 11.6-16.1 4.2-4.7 8.8-8.9 13.9-12.7 5-3.7 10.4-6.9 16.1-9.5 11.6-5.3 24.2-8.1 37-8.1 12.7.1 25.2 2.6 36.9 7.6 10.1 4.1 19.9 9.1 29.3 14.8 22.4 13.8 44.3 27.8 67.5 42.5 8.9 5.6 18 11.4 27.2 17.3-4.3 2.4-8.6 4.8-12.6 7.1l-.7.4c-10.9 6.1-21.2 11.9-31.4 17.7-.9.5-1.9.8-2.9.8-1.9 0-3.5-1.2-5.1-2.3-.6-.4-1.2-.9-1.8-1.3-8.7-5.3-17.5-11-26-16.4-18-11.5-36.6-23.4-55.9-33.3-8.8-4.5-16.5-6.6-24-6.6-1.5 0-3 .1-4.5.3-6.1.6-11.9 2.5-17.2 5.5-5.2 2.9-9.7 6.8-13.4 11.5-3.7 4.7-6.5 10.1-8.2 15.9-3.3 11.2-2.5 23.1 2.2 33.7 2.1 4.6 4.9 8.9 8.4 12.6 3.4 3.7 7.4 6.8 11.8 9.2 4.5 2.4 9.4 4.1 14.4 4.8 2.1.3 4.3.4 6.5.4 5.2 0 10.3-.9 15.2-2.6 4.8-1.7 9.2-4.1 13.1-7.3 4-3.2 7.3-7 9.9-11.4 2.7-4.6 4.7-9.6 5.6-14.9.3-2.3 1-4.5 2.1-6.5.5-1.2 1.7-1.9 3-1.9 1.8 0 4 1.2 7.1 3.2 9.4 6.1 19.2 11.5 27.6 16 2.2 1.2 3.5 2.5 4 4.1.4 1.4.3 3.2-.5 5.8-2.8 9.2-7.2 17.8-13 25.5-5.7 7.8-12.6 14.6-20.3 20.3-16.1 12-35 18.4-53.3 18.4zm91.5-181.3c-1.2 0-3-.8-5.8-2.6-7.6-4.9-15.5-9.5-23.1-14-3.4-2-6.8-4-10.2-6.1-.2-.1-.4-.3-.7-.4-1.3-.7-2.5-1.6-3.6-2.6-1.1-1.2-1.7-2.8-1.6-4.4.1-4.9 0-9.9 0-14.7 0-12-.1-24.4.9-36.5.5-6.1 1.3-12.1 2.5-18.1 1.2-6.1 2.9-12.1 5-17.9 4.9-13.6 11.8-26.4 20.5-38 8.4-11.1 18.4-20.9 29.7-29.1 11.1-8.1 23.4-14.4 36.4-18.8C247 2.7 260.7.3 274.6.1v49.6c-11.5.1-22.9 2.6-33.5 7.3-5.1 2.3-10.1 5.1-14.7 8.3-4.6 3.2-8.9 6.9-12.9 11-16.4 16.9-25.9 39.6-26.8 64.1-.7 21.2-.5 42.6-.1 62.6.1 3.8-.3 5.9-1.2 6.8-.4.3-.9.5-1.5.5zm58.8-48.8c-13.2 0-23.9-10.7-23.9-24 0-13.2 10.7-23.9 24-23.9 13.2 0 23.9 10.7 23.9 24 0 9.6-5.8 18.3-14.6 22-3 1.3-6.2 1.9-9.4 1.9z" fill="#aa0bff"/></svg>