<?xml version="1.0" encoding="utf-8"?>
<!-- Generator: Adobe Illustrator 24.1.0, SVG Export Plug-In . SVG Version: 6.00 Build 0)  -->
<svg version="1.1" id="katman_1" xmlns="http://www.w3.org/2000/svg" xmlns:xlink="http://www.w3.org/1999/xlink" x="0px" y="0px"
	 viewBox="0 0 550 500" style="enable-background:new 0 0 550 500;" xml:space="preserve">
<style type="text/css">
	.st0{fill:#FFFFFF;}
	.st1{fill:#AA0BFF;}
</style>
<g transform="translate(-685 -290)">
	<path class="st0" d="M960,790h-0.4v-48.3c1.4,0,2.7-0.1,4.1-0.2c19.2-1.7,32.4-12.4,39.2-31.1c6.3-17.8,1.5-37.6-12.3-50.6
		c-1.9-1.8-4-3.5-7.2-6.3c13.5-8.4,26.3-16.4,39.2-24.3c4.3-2.6,5.8,1.6,7.8,4c43.4,51.7,18.6,135.4-45.5,153.4
		c-8.1,2.3-16.4,3.4-24.8,3.5H960z M1050.9,587.2c-0.6-26.3-0.1-52.7-0.1-79h-0.1c0-25,0.1-50,0-74.9c-0.2-52-38.9-92.8-88.5-93.7
		c-0.9,0-1.8,0-2.7,0V290c8.5-0.1,17.1,0.6,25.5,2.1c65.1,11.4,113.3,70.6,113.7,140.3c0.3,50.3,0,100.6,0.1,150.9
		c0.1,25.3,13.2,42.7,35.3,47.7c23.9,5,47.2-11,52.1-35.7c4.9-24.8-10.6-48.9-34.5-53.9c-5.7-1.2-11.7-1.2-17.4,0
		c-12.6,2.8-12.6,2.8-12.6-10.5c0-9.6,0.4-19.2-0.1-28.7c-0.4-6.8,1.9-9.5,8.5-10.6c48.8-7.7,96.1,28.7,103.8,80.3
		c7.5,50.5-26.2,99.6-74.3,108c-5.5,1-11.1,1.5-16.7,1.5C1093,681.3,1052.3,641.5,1050.9,587.2z M959.6,583
		c6.4-3.5,12.9-7,19.3-10.6c16.2-9,32.5-18,49.2-27.3c0,17.7,0,34.7,0,51.7c0,4.8-4.3,5.7-7.3,7.4c-20.3,11.9-41.1,22.7-61.2,34.9
		V583z M968.3,427.5c0-13.3,10.7-24,24-24s24,10.7,24,24c0,13.3-10.7,24-24,24S968.3,440.8,968.3,427.5L968.3,427.5z"/>
	<path class="st1" d="M959.6,790L959.6,790c-16.8-0.1-33.3-4.9-47.5-14c-14.4-9.2-26-22.1-33.6-37.4c-4.9-9.8-8.1-20.4-9.5-31.3
		c-1.4-10.6-1-21.4,1.1-32c2.1-10.5,5.9-20.5,11.2-29.8c5.4-9.4,12.5-17.8,20.8-24.8c8.8-7.4,18.1-14.3,27.9-20.4
		c10-6.4,20.2-12.1,29.7-17.3v56.2c-8.8,5.4-16.6,10.5-23.7,15.6c-4.8,3.4-9.1,7.7-12.5,12.5c-3.2,4.6-5.7,9.6-7.1,15
		c-1.5,5.3-2,10.9-1.5,16.4c0.5,5.7,2.1,11.3,4.5,16.5c3.5,7.9,9.3,14.6,16.5,19.3c7.1,4.6,15.3,7.1,23.8,7.1L959.6,790L959.6,790z
		 M777.4,681.6c-2.5,0-5.1-0.1-7.6-0.4v0c-21.3-2.1-41.3-11.4-56.7-26.3c-7.5-7.3-13.7-15.7-18.4-25.1c-4.8-9.5-7.8-19.8-9-30.4
		c-0.9-7.5-1-15.1-0.3-22.7c0.7-7.1,2.1-14.1,4.2-20.9c2-6.5,4.8-12.8,8.2-18.7c3.3-5.8,7.2-11.2,11.6-16.1
		c4.2-4.7,8.8-8.9,13.9-12.7c5-3.7,10.4-6.9,16.1-9.5c11.6-5.3,24.2-8.1,37-8.1c12.7,0.1,25.2,2.6,36.9,7.6
		c10.1,4.1,19.9,9.1,29.3,14.8c22.4,13.8,44.3,27.8,67.5,42.5c8.9,5.6,18,11.4,27.2,17.3c-4.3,2.4-8.6,4.8-12.6,7.1l-0.7,0.4
		c-10.9,6.1-21.2,11.9-31.4,17.7c-0.9,0.5-1.9,0.8-2.9,0.8c-1.9,0-3.5-1.2-5.1-2.3c-0.6-0.4-1.2-0.9-1.8-1.3
		c-8.7-5.3-17.5-11-26-16.4l0,0c-18-11.5-36.6-23.4-55.9-33.3c-8.8-4.5-16.5-6.6-24-6.6c-1.5,0-3,0.1-4.5,0.3
		c-6.1,0.6-11.9,2.5-17.2,5.5c-5.2,2.9-9.7,6.8-13.4,11.5c-3.7,4.7-6.5,10.1-8.2,15.9c-3.3,11.2-2.5,23.1,2.2,33.7
		c2.1,4.6,4.9,8.9,8.4,12.6c3.4,3.7,7.4,6.8,11.8,9.2c4.5,2.4,9.4,4.1,14.4,4.8c2.1,0.3,4.3,0.4,6.5,0.4c5.2,0,10.3-0.9,15.2-2.6
		c4.8-1.7,9.2-4.1,13.1-7.3c4-3.2,7.3-7,9.9-11.4c2.7-4.6,4.7-9.6,5.6-14.9c0.3-2.3,1-4.5,2.1-6.5c0.5-1.2,1.7-1.9,3-1.9
		c1.8,0,4,1.2,7.1,3.2c9.4,6.1,19.2,11.5,27.6,16c2.2,1.2,3.5,2.5,4,4.1c0.4,1.4,0.3,3.2-0.5,5.8c-2.8,9.2-7.2,17.8-13,25.5
		c-5.7,7.8-12.6,14.6-20.3,20.3C814.6,675.2,795.7,681.6,777.4,681.6z M868.9,500.3c-1.2,0-3-0.8-5.8-2.6c-7.6-4.9-15.5-9.5-23.1-14
		c-3.4-2-6.8-4-10.2-6.1c-0.2-0.1-0.4-0.3-0.7-0.4c-1.3-0.7-2.5-1.6-3.6-2.6c-1.1-1.2-1.7-2.8-1.6-4.4c0.1-4.9,0-9.9,0-14.7
		c0-12-0.1-24.4,0.9-36.5c0.5-6.1,1.3-12.1,2.5-18.1c1.2-6.1,2.9-12.1,5-17.9c4.9-13.6,11.8-26.4,20.5-38
		c8.4-11.1,18.4-20.9,29.7-29.1c11.1-8.1,23.4-14.4,36.4-18.8c13.1-4.4,26.8-6.8,40.7-7v49.6c-11.5,0.1-22.9,2.6-33.5,7.3
		c-5.1,2.3-10.1,5.1-14.7,8.3c-4.6,3.2-8.9,6.9-12.9,11c-16.4,16.9-25.9,39.6-26.8,64.1c-0.7,21.2-0.5,42.6-0.1,62.6
		c0.1,3.8-0.3,5.9-1.2,6.8C870,500.1,869.5,500.3,868.9,500.3z M927.7,451.5c-13.2,0-23.9-10.7-23.9-24c0-13.2,10.7-23.9,24-23.9
		c13.2,0,23.9,10.7,23.9,24c0,9.6-5.8,18.3-14.6,22C934.1,450.9,930.9,451.5,927.7,451.5L927.7,451.5z"/>
</g>
</svg>
