<?xml version="1.0" encoding="utf-8"?>
<!-- Generator: Adobe Illustrator 24.1.0, SVG Export Plug-In . SVG Version: 6.00 Build 0)  -->
<svg version="1.1" id="katman_1" xmlns="http://www.w3.org/2000/svg" xmlns:xlink="http://www.w3.org/1999/xlink" x="0px" y="0px"
	 viewBox="0 0 350 500" style="enable-background:new 0 0 350 500;" xml:space="preserve">
<style type="text/css">
	.gitmeden0{fill:#F16721;}
	.gitmeden1{fill:none;}
	.gitmeden2{fill:#FFFFFF;}
</style>
<g transform="translate(-13829 -1835.5)">
	<g transform="translate(13829 1836)">
		<g transform="translate(36.069)">
			<path class="gitmeden0" d="M0,74.6C19.1,46.7,46,25,77.2,12.1c20.3-8.3,42-12.6,63.9-12.6c90.8,0,165.3,72,172.3,163.5
				c0.3,4.6,0.5,9.4,0.5,14.1c0,22.5-4.1,44.7-12.2,65.7l-33-33.9l-16.3-16.7c0.6-5,0.9-10,0.9-15c0-50.8-31.9-93.9-76.2-109.3
				c-22.5-7.8-49.7-8.2-72.3-0.6c-22.5,7.6-41.8,22.3-55.2,41.9c-2.3,3.3-4.4,6.7-6.3,10.2L0,74.6z"/>
		</g>
		<path class="gitmeden0" d="M91.5,260.5c1.6,1.7,3.2,3.3,4.8,4.9l77.3,78.4l0.1,0.1v-0.2l59.1-60l-2.6-2.6L158.2,208l43-43.7
			c38.6,39.2,77.2,78.3,115.7,117.5c-4.6,6.7-9.6,13.1-15,19.2L173.7,431.1v-0.2l-0.1,0.1l-0.1,0.1L53.9,309.7l-6-6.1
			C17,270.6-0.1,227.2,0,182c0-4.7,0.2-9.3,0.5-13.8c1.4-18.6,5.7-36.8,12.8-54.1l1-2.5l48.3,49C56.5,194.7,65,231.9,91.5,260.5"/>
		<g transform="translate(71.815 459.599)">
			<path class="gitmeden1" d="M103.2-0.5H0v40.4h206.4V-0.5H103.2z"/>
			<g transform="translate(0 0)">
				<path class="gitmeden0" d="M103.2-0.5c57,0,103.2,9.1,103.2,20.2c0,11.2-46.2,20.2-103.2,20.2C46.2,39.9,0,30.9,0,19.7
					C0,8.6,46.2-0.5,103.2-0.5"/>
			</g>
		</g>
	</g>
	<path class="gitmeden2" d="M14004,2295.1c57,0,103.2,9,103.2,20.2c0,11.2-46.2,20.2-103.2,20.2V2295.1z M14004,2178.4l57.9-58.7l-2.6-2.6
		l-55.3-56.1V2027l26.2-26.6c38.6,39.2,77.2,78.3,115.7,117.5c-4.6,6.7-9.6,13.1-15,19.2l-126.9,128.8V2178.4z M14133.8,2044.8
		l-16.3-16.7c0.6-5,0.9-10,0.9-15c0-50.8-31.9-93.9-76.2-109.3c-12.3-4.2-25.2-6.2-38.3-6.1v-62.2c0.7,0,1.5,0,2.2,0
		c90.8,0,165.3,72,172.3,163.5c0.3,4.6,0.5,9.4,0.5,14.1c0,22.5-4.1,44.7-12.2,65.7L14133.8,2044.8z"/>
</g>
</svg>
