<svg version="1.1" id="katman_1" xmlns="http://www.w3.org/2000/svg" x="0" y="0" viewBox="0 0 350 500" xml:space="preserve"><style>.gitmeden0{fill:#f16721}</style><path class="gitmeden0" d="M0 74.6C19.1 46.7 46 25 77.2 12.1c20.3-8.3 42-12.6 63.9-12.6 90.8 0 165.3 72 172.3 163.5.3 4.6.5 9.4.5 14.1 0 22.5-4.1 44.7-12.2 65.7l-33-33.9-16.3-16.7c.6-5 .9-10 .9-15 0-50.8-31.9-93.9-76.2-109.3-22.5-7.8-49.7-8.2-72.3-.6-22.5 7.6-41.8 22.3-55.2 41.9-2.3 3.3-4.4 6.7-6.3 10.2L0 74.6z" transform="translate(36.069 .5)"/><path class="gitmeden0" d="M91.5 260.5c1.6 1.7 3.2 3.3 4.8 4.9l77.3 78.4.1.1v-.2l59.1-60-2.6-2.6-72-73.1 43-43.7c38.6 39.2 77.2 78.3 115.7 117.5-4.6 6.7-9.6 13.1-15 19.2L173.7 431.1v-.2l-.1.1-.1.1L53.9 309.7l-6-6.1C17 270.6-.1 227.2 0 182c0-4.7.2-9.3.5-13.8 1.4-18.6 5.7-36.8 12.8-54.1l1-2.5 48.3 49c-6.1 34.1 2.4 71.3 28.9 99.9" transform="translate(0 .5)"/><path d="M103.2-.5H0v40.4h206.4V-.5H103.2z" fill="none" transform="translate(71.815 460.099)"/><path class="gitmeden0" d="M103.2-.5c57 0 103.2 9.1 103.2 20.2 0 11.2-46.2 20.2-103.2 20.2S0 30.9 0 19.7C0 8.6 46.2-.5 103.2-.5" transform="translate(71.815 460.099)"/><path d="M14004 2295.1c57 0 103.2 9 103.2 20.2s-46.2 20.2-103.2 20.2v-40.4zm0-116.7l57.9-58.7-2.6-2.6-55.3-56.1v-34l26.2-26.6c38.6 39.2 77.2 78.3 115.7 117.5-4.6 6.7-9.6 13.1-15 19.2l-126.9 128.8v-87.5zm129.8-133.6l-16.3-16.7c.6-5 .9-10 .9-15 0-50.8-31.9-93.9-76.2-109.3-12.3-4.2-25.2-6.2-38.3-6.1v-62.2h2.2c90.8 0 165.3 72 172.3 163.5.3 4.6.5 9.4.5 14.1 0 22.5-4.1 44.7-12.2 65.7l-32.9-34z" fill="#fff" transform="translate(-13829 -1835.5)"/></svg>