<svg version="1.1" id="katman_1" xmlns="http://www.w3.org/2000/svg" x="0" y="0" viewBox="0 0 524.9 702" xml:space="preserve"><style>.st0{fill:#74baab}.st1{fill:#ec8c92}.st5{fill:#2c3e50}.st6{fill:#f2bdba}.st7{fill:#fff}.st8{fill:#93b4f6}</style><path class="st0" d="M388.4 284.2c3.4-10.2 27-31.9 29.6-30.9 2.6 1.1-16.7 13.5-25.3 34.5-.5 1.3-6.4 2.9-4.3-3.6z" transform="translate(0 371.171)"/><path class="st1" d="M396.8 249.7c2.4-5.2 9.5-3 15.5-.8-2.6-7.7 1.2-17.2 7.5-15.8 6.2 1.4 1.7 10.9-.3 16.1 4-.6 11.4-4.9 14.2 0 2.8 4.9-6.1 5.3-10.2 4.8 1.4 3.1 9.7 11.4 1.9 12.3-5.6.6-8.6-2.4-10.3-9.5-10.7.2-22 .8-18.3-7.1z" transform="translate(0 371.171)"/><path class="st0" d="M403.1 267.1s17.5 2.6 18.9 8.5c-1.9 4.7-13.8.4-18.9-8.5zm-52 46.5l13.9-8.3.8 1.3-13.9 8.3-.8-1.3zm-16.8-8.4l-1-1.2c4.7-4.2 11.4-9.5 16.4-10.9l.4 1.5c-4.7 1.3-11.2 6.5-15.8 10.6zM247 323.9l-1.1-1.1c5.6-5.5 13.5-12.7 19.5-16l.8 1.4c-5.8 3.2-13.6 10.3-19.2 15.7zm-6.7-41.2l-1.3-.9c3.2-4.4 8-9.9 12.2-11.4l.5 1.5c-3 1-7 4.9-11.4 10.8zm-22.4 1.6l-1.3-.8c.3-.6 8.5-13.5 14.9-16.9l.8 1.4c-6.2 3.2-14.3 16.2-14.4 16.3zm-7.2 37.5l-1.3-.8c3.2-5.1 8.2-12 13.6-15.7l.9 1.3c-5.2 3.5-10.1 10.2-13.2 15.2zm-73.1-23.2l-1.5-.4c.1-.5 3.5-11.3 11.2-18.8l1.1 1.1c-7.4 7.3-10.8 18-10.8 18.1zm-21.4 7.5l-1.5-.5c2.7-7.4 6.8-14.3 12-20.2l1.2 1.1c-7.9 8.5-11.7 19.5-11.7 19.6z" transform="translate(0 371.171)"/><path class="st0" d="M465.9 330.8c-3.3-4.9-7-9.5-11.1-13.9-1.2-1.3-1.1-3.3.2-4.5l.2-.2c2.2-1.6 4.6-3 7-4.1.4-.2.7-.5.6-.7 0-.2-.3-.5-.8-.6-4.5-1.2-9.4-1.1-13.8.5-1.6.5-3.5-.1-5.5-1.8l-.8-.6c-1-.8-1.6-2.1-1.7-3.4-.3-6.6-2.6-13-6.7-18.2-.3-.3-.8-.4-1.1-.1-.2.1-.3.3-.3.6-.1 1.2-.2 2.6-.5 4.3-.4 2.8-3 4.8-5.8 4.4-.7-.1-1.4-.4-2.1-.8l-.1-.1c-1.5-.9-2.1-2.7-1.6-4.4l2-6.9c0-.1 0-.3-.1-.4-.1-.1-.3-.1-.4 0l-5.2 3.4c-2.5 1.6-5.6 1.7-8.2.3-9.2-4.9-18.8-9.3-28.5-13-1.6-.6-2.4-2.4-1.8-4 .1-.2.2-.4.3-.5l4-6.3c.3-.4.2-1-.1-1.3-.3-.4-.8-.5-1.3-.3l-14.4 5.7c-1.9.8-4.1.8-6.1.2-8.7-2.6-17.8-5-27-6.9-1.1-.2-1.8-1.3-1.6-2.4.1-.4.3-.7.5-1 1.7-1.7 3.1-3.2 4.4-4.5 1.9-2 3.7-3.9 6.2-6.4.2-.3.3-.6.1-.9-.2-.3-.5-.4-.9-.3-8.6 2.7-16.8 6.4-24.5 11-1.3.8-2.9 1.2-4.4.9-18.2-3-34.1-4.2-56.6-4.2-11.7 0-23.6.5-35.2 1.6-.9.1-1.8-.4-2.1-1.2l-.8-1.8c-.3-.6-.9-.8-1.5-.5h-.1l-4.6 2.6c-1.8 1-4.1.4-5.1-1.5 0-.1-.1-.1-.1-.2l-.2-.5c-.1-.3-.4-.4-.7-.2h-.1l-3.1 2.3c-.9.7-2.3.5-3-.4-.3-.4-.4-.8-.4-1.3v-4.4c0-.2 0-.5-.1-.7l-.2.2-7.2 9.6c-1.2 1.4-2.8 2.3-4.6 2.6-27.4 5.1-49.6 12.1-70.2 21.9-1.4.7-3 .5-4.3-.4-8.1-6.1-17.5-10.3-27.4-12.1-.2 0-.4.1-.5.3-.1.2 0 .4.2.6 4.7 3.4 8.8 6.5 12.1 9.3 1.2 1 1.3 2.7.4 3.8-.5.6-1.3 1-2.1 1h-5.9c-.2 0-.4.2-.4.4 0 .1.1.3.2.3 1.3.7 2.5 1.3 3.6 2 2.2 1.3 2.8 4.1 1.5 6.3-.4.6-.9 1.1-1.5 1.5-3.2 2-6.4 4.1-9.4 6.3-1.7 1.2-4 .8-5.3-.8l-5.9-7.4-.2-.2c-.1.2-.1.5 0 .7l3 11.8c.3 1.1-.1 2.3-1 3l-.5.4c-.7.6-1.7.8-2.5.4-2.7-1-10.3-3-21.6 0 5.8 1.3 10.4 2.9 13.6 4.9.7.4 1.2 1.1 1.3 1.9 0 .4-.2.8-.5 1.1-.6.6-1.5.9-2.3.9-4.9.2-9.7 1.4-14.2 3.5-.3.2-.4.5-.2.8.1.2.3.3.5.3 2.2-.1 4.5 0 6.7.3.8.1 1.4.6 1.7 1.4.3.7.1 1.6-.4 2.2-2.4 2.9-4.6 5.9-6.7 8.9l-1.3-.9c2.1-3.1 4.4-6.1 6.8-9 .1-.2.2-.4.1-.6-.1-.2-.3-.4-.5-.4-2.1-.3-4.3-.4-6.4-.3-1 0-1.9-.6-2.1-1.6-.3-1 .2-2 1.1-2.4 4.6-2.3 9.7-3.5 14.9-3.7 1.1 0 1.4-.4 1.5-.5 0-.1-.2-.4-.6-.6-3-1.9-7.5-3.5-13.1-4.7-.8-.2-1.4-1-1.2-1.8.1-.6.6-1.1 1.1-1.2 11.7-3.1 19.6-1 22.5.1.3.1.7.1 1-.2l.5-.4c.4-.3.6-.9.4-1.4l-3-11.8c-.4-.9-.1-2.1.8-2.6.8-.3 1.7 0 2.1.7l5.9 7.4c.8 1 2.2 1.2 3.2.5 3-2.1 6.2-4.2 9.4-6.3 1.4-.9 1.9-2.7 1-4.2-.2-.4-.6-.8-1-1-1.1-.7-2.2-1.3-3.5-2-.9-.5-1.3-1.7-.8-2.6.3-.6 1-1 1.7-1h5.9c.5 0 .9-.3 1.1-.8.2-.5 0-1-.4-1.3-3.3-2.7-7.4-5.8-12.1-9.2-.9-.7-1.1-1.9-.5-2.8.5-.6 1.3-1 2-.8 10.2 1.9 19.8 6.1 28.1 12.4.8.6 1.8.7 2.6.2 20.7-9.9 43.1-16.9 70.6-22 1.4-.3 2.7-1 3.6-2.1l7.1-9.6c.4-.7 1.2-1 2-.8.8.4 1.3 1.3 1.1 2.3v4.3c0 .2.1.4.3.5.2.1.4.1.6 0l3.1-2.3c.5-.4 1.1-.5 1.7-.4.6.1 1.1.6 1.4 1.1l.2.5c.3.5.7.9 1.3 1.1.6.2 1.2.1 1.7-.2l4.6-2.6c1.3-.7 2.9-.2 3.6 1 0 .1.1.1.1.2l.8 1.8c.1.2.3.4.6.3 11.7-1.1 23.6-1.6 35.4-1.6 22.6 0 38.6 1.2 56.9 4.2 1.1.2 2.3 0 3.3-.7 7.8-4.7 16.2-8.5 24.9-11.2 1-.3 2.1.1 2.6 1s.4 2.1-.4 2.9c-2.5 2.5-4.3 4.3-6.2 6.3-1.3 1.4-2.7 2.8-4.4 4.5-.1.1-.2.3-.1.4 0 .2.2.3.3.3 9.3 2 18.4 4.3 27.2 7 1.7.5 3.4.4 5-.2l14.4-5.7c1.4-.6 3 .1 3.5 1.5.3.8.2 1.7-.2 2.5l-4 6.3c-.4.8-.2 1.7.6 2.2.1 0 .1.1.2.1 9.8 3.8 19.4 8.1 28.7 13.1 2.1 1.1 4.6 1 6.6-.3l5.2-3.4c.9-.6 2.1-.3 2.6.6.3.5.4 1 .2 1.6l-2 6.9c-.3 1 .1 2.1 1 2.6l.1.1c1.7 1.1 3.9.6 5-1.1.3-.4.5-.9.5-1.4.2-1.6.4-3 .5-4.2.1-1.3 1.2-2.3 2.5-2.2.7 0 1.3.4 1.7.9 4.2 5.5 6.7 12.2 7 19.1.1.9.5 1.7 1.2 2.3l.8.6c1.1.9 2.7 1.9 4 1.6 4.7-1.6 9.9-1.8 14.7-.5 1.2.1 2 1.2 1.9 2.4-.1.9-.7 1.6-1.6 1.8-2.4 1.1-4.6 2.4-6.7 3.9-.4.3-.6.7-.6 1.2s.1.9.4 1.2c4.1 4.4 7.8 9.1 11.2 14.1l-.7.9z" transform="translate(0 371.171)"/><path d="M515.4 222.4c-1.3 0-2.6-.3-3.8-.8l-130.8-52.4c-2.5-.9-4.5-2.9-5.4-5.4-.7-2.3-.6-4.7.3-6.9.7-1.9 2-3.5 3.5-4.7 1.6-1.3 3.6-2 5.6-2 1.2 0 2.4.2 3.5.7l9.4 3.8c.5.3 1.2.3 1.7.1 1.9-1 3.1-5.9 4.5-11.7.4-1.7.9-3.5 1.4-5.4l.1-.3v-.1c1-3.6 2.4-9.1 5.7-13.6 1.7-2.4 3.8-4.4 6.4-5.8 3.1-1.6 6.5-2.5 10-2.4h1.2c6.4.3 9.4.6 15 1.2h.3l.9.1c1.2.1 2.5.3 4 .4 5.2.6 8.7 1.9 11.2 4.4 3.1 3 4.8 7.7 5 14.2.3 9.1 2.3 11.1 6 11.7 31.3 5.1 31.3 18.6 31.2 31.7v2.4c0 7.8.8 15.4 6.3 17.6l9.9 3.9c2.6 1 4.7 3 5.6 5.7.8 2.4.7 5-.3 7.3-.9 2.2-2.5 4.1-4.6 5.3-1 .6-2.4 1-3.8 1zM385 151.8c-1.7 0-3.4.6-4.7 1.7-1.3 1.1-2.4 2.5-3 4-.8 1.8-.9 3.9-.3 5.8.7 2.1 2.4 3.7 4.5 4.4l130.7 52.4c1 .4 2 .7 3.1.7 1.2 0 2.4-.3 3.4-.8 1.8-1 3.2-2.6 3.9-4.5.8-2 .9-4.2.2-6.2-.8-2.2-2.5-3.9-4.7-4.7l-9.9-3.9c-6.4-2.6-7.3-10.7-7.3-19v-2.3c.1-12.4.2-25.3-29.9-30.2-5.7-.9-7-5.7-7.3-13.2-.2-6.1-1.7-10.4-4.5-13.1-2.4-2.2-5.5-3.5-10.3-4l-4.9-.5c-5.6-.6-8.7-1-15.1-1.2h-1c-3.3-.1-6.5.7-9.4 2.3-2.4 1.4-4.4 3.3-6 5.5-3.1 4.3-4.4 9.5-5.4 12.9l-.1.3c-.5 1.8-.9 3.4-1.3 5l-.1.3c-1.6 6.7-2.8 11.5-5.4 12.8-1 .4-2.1.4-3 0l-9.4-3.8c-.8-.5-1.8-.7-2.8-.7zm129.4-89.1c-.5 0-1 0-1.5-.1l-95.5-17.7c-1.9-.3-3.6-1.4-4.5-3-.8-1.5-1.1-3.2-.7-4.9.3-1.8 1.2-3.4 2.6-4.6 1.5-1.3 3.5-1.8 5.5-1.4l6.8 1.3h.4c.2 0 .4 0 .6-.2 1.1-.8 1.2-4.5 1.4-8.3v-.2c.1-1.2.1-2.4.2-3.6v-.3c.3-5.3 1-16.3 13-18.2 4.5-.7 6.7-.9 10.4-1.2h.2l3.2-.3c.7-.1 1.4-.1 2.1-.1 2.2-.1 4.4.5 6.3 1.6 2.6 1.6 4.4 4.6 5.4 9.1.3 2 1.1 3.9 2.2 5.6.7.9 1.7 1.4 2.9 1.3h.3c.9 0 1.8-.1 2.6-.1 19.6 0 21.4 9.3 23 17.4v.2c0 .2.1.3.1.5.1.3.1.6.2.9 1.1 5.2 2.6 10.1 6.5 10.8l7.2 1.3c2 .3 3.7 1.5 4.7 3.2.9 1.6 1.2 3.4.9 5.2-.5 3.3-3.2 5.8-6.5 5.8zm-1.2-1.7c.4.1.8.1 1.2.1 1.3 0 2.5-.5 3.4-1.4.8-.9 1.4-1.9 1.6-3.1.3-1.4 0-2.8-.7-4.1-.8-1.3-2.1-2.2-3.7-2.4l-7.2-1.3c-4.8-.9-6.5-6.3-7.7-12-.1-.4-.2-.9-.3-1.3v-.3c-1.6-8.3-3.2-16.2-21.4-16.2-.9 0-1.8 0-2.7.1h-.3c-4 0-5.5-3.1-6.7-8.1-1-4-2.5-6.7-4.7-8.1-1.6-1-3.5-1.4-5.4-1.4-.6 0-1.3 0-2 .1l-3.3.3h-.2c-3.8.3-5.9.5-10.3 1.2-10.7 1.7-11.3 11.5-11.7 16.8v.2c-.1 1.2-.1 2.3-.2 3.4v.4c-.2 4.8-.4 8.2-2 9.5-.6.5-1.5.6-2.2.4l-6.8-1.3c-1.5-.3-3 .1-4.1 1.1-1.1 1-1.8 2.2-2.1 3.7-.3 1.3-.1 2.6.6 3.8.7 1.2 2 2.1 3.4 2.3L513.2 61zM7.1 219.2c-1 0-2-.2-2.9-.7-1.6-.9-2.9-2.3-3.5-4-.8-1.8-.9-3.8-.4-5.7.6-2 2.1-3.7 4.1-4.5l7-2.9c.4-.1.7-.4.9-.8.5-1.4-1.5-4.8-3.6-8.4l-.1-.1c-.7-1.1-1.4-2.3-2.1-3.6l-.1-.2c-2.8-5-8.8-15.5 1-24.3 3.3-3 5.2-4.5 8.1-6.7l.7-.6.1-.1 2.9-2.3c3.1-2.5 5.7-3.6 8.5-3.6h.1c3.3 0 6.6 1.7 10.2 5 2.9 2.8 5 4 6.7 4 .9 0 1.8-.3 2.5-.9 7.4-5.2 13.5-7.8 18.8-7.8 3.1 0 6.1.9 8.6 2.7 2.3 1.7 4.5 3.6 6.4 5.7l1.2 1.3c1.6 1.7 3.3 3.2 5.2 4.5 1.5 1.2 3.3 1.8 5.2 2 .7 0 1.4-.1 2.1-.4l7.4-3.1c1-.4 2-.6 3.1-.6 1.5 0 3 .5 4.2 1.4 1.2.9 2.1 2.1 2.7 3.5.7 1.7.9 3.6.3 5.4-.7 2-2.2 3.6-4.2 4.4l-97.9 40.8c-1.1.4-2.1.6-3.2.6zm20.5-66.9c-2.3 0-4.7 1-7.5 3.3l-2.9 2.3-.1.1c-3.2 2.5-5.1 4-8.7 7.3-8.8 8-3.3 17.7-.7 22.4l.1.2c.7 1.2 1.4 2.4 2.1 3.5 2.7 4.5 4.6 7.7 3.8 9.8-.3.8-.9 1.4-1.7 1.7l-7 2.9c-1.5.6-2.7 1.9-3.2 3.5-.4 1.5-.3 3.2.3 4.6.5 1.4 1.5 2.5 2.8 3.2 1.4.7 3.1.7 4.6 0l97.9-40.8c1.6-.6 2.8-1.8 3.3-3.4.4-1.4.3-3-.3-4.3-.5-1.1-1.2-2-2.1-2.8-1-.7-2.2-1.2-3.4-1.2-.8 0-1.6.2-2.4.5l-7.4 3.1c-.9.4-1.8.5-2.7.6-2.1-.1-4.1-.8-5.8-2.1-2-1.4-3.9-3-5.6-4.9l-1.2-1.3c-1.8-2-3.9-3.9-6.1-5.5-2.3-1.6-5-2.5-7.8-2.5-4.8 0-10.7 2.5-17.9 7.6-1 .7-2.2 1.2-3.4 1.2-2.2 0-4.4-1.3-7.7-4.4-3.3-3.1-6.3-4.6-9.3-4.6z" transform="translate(0 371.171)"/><path d="M86.2 442.8l72.7 122c3.5 5.5 2 12.8-3.4 16.5l-14.7 10c-2.1 1.4-2.6 4.2-1.2 6.3.8 1.2 2.3 2 3.8 2H196c5.4 0 10.7-.9 15.8-2.6l33.2-11.4c14.2-4.9 18.2-21.5 10.5-34.4L219 486.3l1.7-.6c27.8-9.8 42.3-40.3 32.5-68.1-1.4-4.1-3.4-8-5.8-11.6l-3.7-5.5H104.1c-21.5-.1-29.4 24.1-17.9 42.3z" fill="#cbcbcb" transform="translate(8.483 2.06)"/><path d="M178.3 442.8l72.7 122c3.5 5.5 2 12.8-3.4 16.5l-14.7 10c-2.1 1.4-2.6 4.2-1.2 6.3.8 1.2 2.3 2 3.8 2H288c5.4 0 10.7-.9 15.8-2.6l33.2-11.4c14.2-4.9 18.2-21.5 10.6-34.4l-36.4-64.9 1.7-.6c27.8-9.8 42.3-40.3 32.5-68.1-1.4-4.1-3.4-8-5.8-11.6l-3.7-5.5H196.3c-21.6-.1-29.4 24.1-18 42.3z" fill="#efefef" transform="translate(8.483 2.06)"/><path d="M116.383 3.66c63.1 27.9 250.3 172.2 341.9 235.7 10.5 7.3 12.1 24.3-10.9 24.1l-411.8-3.6c-7.7-.1-8.6-7.2-6.9-14.7 0 0 46.1-207.8 62-236.5 3-5.6 17-8.8 25.7-5z" fill="#fff" stroke="#ededed" stroke-width="4"/><path class="st5" d="M71.9 279.9c5.3-18.8 21.3-29.9 53.5-34.2 15.6-2.1 34.6-1.9 56.7-1.9 105.2 0 200 79.5 200 145.4 0 40.6-49.6 55.2-143.8 11.5-39.2-.5-67.5-.4-102.6-.2-34.6-47-72.1-91.5-63.8-120.6z" transform="translate(8.483 2.06)"/><path class="st1" d="M161.4 305.2h-10.3c-4.6 0-8.3-3.7-8.3-8.3v-64h23.5l16 17.4c3.6 3.9 5.6 9 5.6 14.3v14.3c-.2 14.4-12 26.3-26.5 26.3z" transform="translate(8.483 2.06)"/><path class="st6" d="M174.8 235.6h-.8c-.9 0-1.7-.7-1.7-1.7V214c5.3-3 3.8-11.3 2.3-14.7-1.6-3.5-4-3.9-4.7-1.6-1 3.5-4.2 5.8-7.8 5.5-7.5-.2-8-6.7-20.7-6.4-7.5.2-13.5 6.4-13.4 13.9v62.9c0 4.4 3.6 8 8 8h16.2c11.1 0 20.1-9 20.1-20.1v-1.1c0-1.5.9-2.9 2.3-3.5 3-1.1 4.9-4 4.9-7.2v-9.5c.1-2.5-2.1-4.6-4.7-4.6z" transform="translate(8.483 2.06)"/><path d="M155 255.1c-4.9 0-9.3-4.1-11-10.1-.1-.3-.3-.4-.5-.4-.3 0-.5.2-.5.4-.7 2.8-2.2 5.3-4.3 7.3-1.8 1.7-4.2 2.7-6.7 2.8-6.5 0-11.7-6.9-11.7-15.3V235c0-1.5 1.3-2.7 2.7-2.7h41c1.5 0 2.8 1.2 2.8 2.8v4.8c-.1 8.3-5.4 15.2-11.8 15.2zM143.4 243c1 0 1.8.7 2.1 1.6.6 2.4 1.9 4.6 3.7 6.4 1.5 1.6 3.6 2.5 5.8 2.5 5.6 0 10.2-6.2 10.2-13.8v-4.8c0-.7-.5-1.2-1.2-1.2h-41c-.7 0-1.2.5-1.2 1.2v4.8c0 7.6 4.6 13.8 10.2 13.8 2.2 0 4.3-.9 5.8-2.5 1.8-1.8 3-4 3.7-6.4.1-1 1-1.6 1.9-1.6z" transform="translate(8.483 2.06)"/><path d="M135.2 242.4h-.2c-2.1 0-3.7-1.7-3.7-3.7 0-.6.5-1.1 1.1-1.1h5.4c.6 0 1.1.5 1.1 1.1 0 2-1.7 3.7-3.7 3.7zm16.9 0h-.1c-2.1 0-3.7-1.7-3.7-3.7 0-.6.5-1.1 1.1-1.1h5.4c.6 0 1.1.5 1.1 1.1-.1 2-1.8 3.7-3.8 3.7zm1.2 19.9h-9.2v-1.6h9.2c1 0 2-.5 2.5-1.4l1.3.8c-.8 1.4-2.2 2.2-3.8 2.2z" transform="translate(8.483 2.06)"/><path class="st1" d="M200.1 374.2l-7.9 10.9c-3.2 4.4-2.2 10.6 2.2 13.8.4.3.8.5 1.2.7l9.2 4.9c6.2 3.3 13.8 1.5 17.9-4.2l3.1-4.4-25.7-21.7zm-44.7 0l7.9 10.9c3.2 4.4 2.2 10.6-2.2 13.8-.4.3-.8.5-1.2.7l-9.2 4.9c-6.2 3.3-13.8 1.5-17.9-4.2l-3.1-4.4 25.7-21.7z" transform="translate(8.483 2.06)"/><path d="M228.1 332.2c-10-18-12.4-39.2-6.6-59l1.5.4c-5.7 19.4-3.4 40.2 6.4 57.8l-1.3.8zm-121.2 1.9c-9.7-20.5-11.3-38.8-5.4-59.4l1.5.4c-5.8 20.1-4.2 38.1 5.3 58.2l-1.4.8z" transform="translate(8.483 2.06)"/><path class="st7" d="M215.8 384.8c-13.6 0-25.8 0-37.2-.1l-119.2-.5-14.9-.1H37c-3 0-6-.4-8.9-1-6.1-1.4-11.7-4.3-16.3-8.6-4.6-4.4-7.8-10-9.3-16.2-1.4-6-1.2-12.4.6-18.3.9-2.9 2.1-5.6 3.5-8.2.2-.4.4-.7.6-1.1.2-.3.3-.5.5-.8l.6-.9.5-.8 2.1-3.1 16.7-24.6 67-98.7 33.5-49.3 8.4-12.3c1.7-2.4 3.7-4.6 5.9-6.5 1.1-1 2.3-1.9 3.6-2.8 1.3-.9 2.7-1.6 4.1-2.2 5.9-2.6 12.6-3 18.8-.9 2.9 1 5.7 2.4 8.2 4.2 1.2.9 2.4 1.8 3.4 2.8l.8.8.8.7 1.3 1.3 169.4 167.6c4.1 4 7.5 8.7 10.1 13.8 2.6 5.2 4.3 10.8 5 16.5.7 5.8.4 11.7-1.1 17.4-1.4 5.8-4.1 11.3-7.7 16-3.8 4.8-8.6 8.7-14.1 11.4-5.4 2.6-11.3 4-17.3 4.2h-15.2l-14.9.1c-10 0-20.2.1-30.1.1-16.8 0-34.4.1-51.7.1zm-55-246.8c-2 0-4 .4-5.8 1.3-3.5 1.7-6.6 4.4-8.8 7.7l-8.3 12.4-33.1 49.5L38.7 308l-16.5 24.8-2.1 3.1-.5.8-.4.6c-.1.2-.2.3-.3.5-.2.3-.3.6-.5.8-1 1.7-1.7 3.6-2.3 5.5-1.1 3.6-1.2 7.5-.3 11.1.9 3.6 2.8 6.8 5.4 9.3 2.8 2.5 6.1 4.3 9.8 5 1.9.4 3.9.6 5.8.6h7.5l14.9-.1 119.2-.5c11.5-.1 23.8-.1 37.5-.1 18.1 0 36.5.1 54.2.2h.2c9 0 18.2.1 27.3.1l29.6.1c4-.1 7.9-1 11.5-2.6 3.5-1.7 6.5-4.1 8.9-7.1 2.4-3.1 4.2-6.7 5.2-10.6 1-4 1.3-8.1.8-12.1-.5-4.1-1.7-8.1-3.5-11.8-1.9-3.8-4.3-7.3-7.3-10.3L175.1 145.8l-1.3-1.3-.3-.3-.3-.3-.6-.5c-.7-.7-1.5-1.3-2.3-1.9-1.5-1.1-3.2-2-5-2.6-1.5-.6-3-.9-4.5-.9z" transform="translate(8.483 2.06)"/><path class="st8" d="M215.4 386.4c-13.5 0-25.5 0-36.8-.1l-119.2-.5-14.9-.1H37c-3.1 0-6.2-.4-9.3-1.1-6.4-1.4-12.3-4.5-17-9-4.8-4.6-8.2-10.5-9.7-16.9-1.5-6.3-1.3-12.9.7-19.1.9-3 2.1-5.8 3.7-8.5.3-.5.6-1 .8-1.4l.4-.6.6-.9.5-.8 2.1-3.1 16.8-24.7 67-98.6 33.5-49.3 8.4-12.4c1.8-2.5 3.8-4.8 6.1-6.8 1.2-1.1 2.5-2.1 3.8-2.9 1.4-.9 2.8-1.7 4.3-2.3 3.1-1.4 6.4-2.2 9.8-2.3h1.4c2.9 0 5.9.5 8.7 1.4 3.1 1 6 2.5 8.6 4.5 1.3.9 2.5 1.9 3.6 2.9l.8.8.8.7 1.3 1.3L354 304c4.2 4.1 7.7 9 10.4 14.3 2.7 5.3 4.5 11.1 5.2 17.1.8 6 .4 12.1-1.1 18-1.5 6-4.2 11.7-8 16.6-3.9 5-8.9 9.1-14.7 11.9-5.6 2.7-11.8 4.1-18 4.3h-15.2l-14.9.1c-10.9 0-21 .1-30.9.1h-7.1c-14.5-.1-29.5 0-44.3 0zm-54.6-260h-1.2c-3.2.2-6.4.9-9.3 2.2-1.4.6-2.8 1.4-4.1 2.2-1.3.8-2.5 1.7-3.6 2.8-2.2 1.9-4.2 4.1-5.9 6.5l-8.4 12.3-33.5 49.3-67 98.7L11 325.1l-2.1 3.1-.5.8-.6.9c-.2.3-.3.5-.5.8-.2.3-.4.7-.6 1.1-1.5 2.6-2.7 5.4-3.5 8.2-1.8 5.9-2 12.2-.6 18.3 1.5 6.2 4.7 11.8 9.3 16.2 4.6 4.3 10.2 7.2 16.3 8.6 2.9.7 5.9 1 8.9 1h7.5l14.9.1 119.2.5c12.3.1 24.7.1 36.8.1 16.9 0 34.1-.1 50.8-.1 10.3 0 21-.1 31.6-.1l14.9-.1H328c6-.2 11.9-1.6 17.3-4.2 5.5-2.7 10.3-6.6 14.1-11.4 3.7-4.7 6.3-10.2 7.7-16 1.4-5.7 1.8-11.6 1.1-17.4-.7-5.8-2.4-11.4-5-16.5s-6-9.8-10.1-13.9L183.5 137.5l-1.3-1.3-.8-.7-.8-.8c-1.1-1-2.2-1.9-3.4-2.8-2.5-1.8-5.2-3.2-8.2-4.2-2.7-.9-5.4-1.3-8.2-1.3z" transform="translate(8.483 2.06)"/><path class="st8" d="M350.2 325.3c-1.9-3.8-4.3-7.2-7.3-10.2L175.1 145.8l-1.3-1.3-.3-.3-.3-.3-.6-.5c-.7-.7-1.5-1.3-2.3-1.9-1.5-1.1-3.2-2-5-2.6-1.5-.5-3-.8-4.6-.8-2 0-4 .4-5.8 1.3-3.5 1.7-6.6 4.4-8.8 7.7l-8.3 12.4-33 49.5-66.1 99.1-16.5 24.8-2.1 3.1-.5.8-.4.6c-.3.4-.6.9-.8 1.3-1 1.7-1.7 3.6-2.3 5.5-1.1 3.6-1.2 7.5-.3 11.1.9 3.6 2.8 6.8 5.4 9.3 2.8 2.5 6.1 4.3 9.8 5 1.9.4 3.9.6 5.8.6v-1.6c-1.8 0-3.7-.2-5.5-.6-3.4-.7-6.5-2.3-9.1-4.6-2.5-2.3-4.2-5.2-5-8.5-.8-3.4-.7-7 .3-10.3.5-1.8 1.2-3.5 2.2-5.1v-.1c.1-.2.3-.5.4-.7.1-.2.2-.3.3-.5l.4-.6.5-.8 2.1-3.1 16.5-24.8 66.1-99.1 33.1-49.5 8.3-12.4c2-3 4.8-5.5 8.1-7.1 1.6-.7 3.4-1.1 5.1-1.1 1.4 0 2.8.2 4.1.7 1.7.6 3.2 1.4 4.6 2.4.8.6 1.5 1.1 2.2 1.8l.5.5.3.2.3.3 1.3 1.3 167.8 169.4c2.9 2.8 5.2 6.1 7 9.8 1.8 3.6 2.9 7.4 3.4 11.3.9 7.9-1.2 16-5.7 21.6-2.2 2.8-5.1 5.1-8.4 6.7-3.4 1.6-7.1 2.4-10.8 2.5l-29.5-.1c-10.3 0-20.6-.1-30.9-.1-16.9-.1-34.3-.1-51.5-.1-13.5 0-25.5 0-36.8.1l-119.2.5-14.9.1H37v1.6h7.4l14.9-.1 119.2-.5c12.3-.1 24.6-.1 36.8-.1 27.5 0 54.9.2 82.4.3l29.6.1c4-.1 7.9-1 11.5-2.6 3.5-1.7 6.5-4.1 8.9-7.1 4.8-6.1 7-14.6 6-22.7-.5-4.4-1.6-8.5-3.5-12.2z" transform="translate(8.483 2.06)"/><path class="st6" d="M101.5 400.5c2.1 3.9 9.7 4.7 15 .7 3.1 4.4 12.3 4.4 16.8-.7 6.8 6.5 22.7-.6 27-15.6-9.9 0-9.2-15.3.7-15.7-3.1-14.1-15.8-26.6-36.9-23.9-12.2 1.6-27 4.4-33.3 14.3-6.1 9.5-5.4 18.5-5.4 25.3.1 14.9 8.4 20.7 16.1 15.6z" transform="translate(8.483 2.06)"/><path d="M162.7 133.1c.1-2.3 1.3-4.5 3.2-5.8 1.1-.9.5-1.9-.9-1.9h-6c-5.5 0-8.1 2.7-8.1 8s2.5 8 8.1 8h4.3c1.7 0 3.2-1.4 3-2.2-2.3-1.2-3.7-3.5-3.6-6.1z" fill="#274d76" transform="translate(8.483 2.06)"/><path class="st6" d="M254 400.5c-2.1 3.9-9.9 4.7-15.2.7-2.3 4.4-12 4.4-16.6-.7-6.9 6.6-22.7-1.1-27.2-16.4-5.4-18 7.8-42.5 36.5-38.8 15.6 2 35.2 6.3 36.5 24.1-8.1.1-10.5 15.5 2.1 15.5 1.6 14.8-8.4 20.7-16.1 15.6z" transform="translate(8.483 2.06)"/><path d="M243.5 390.8l1.1-1.1 7.4 7.6-1.1 1.1-7.4-7.6zm-15.3.7l1.1-1.1 6.9 7.1-1.1 1.1-6.9-7.1zm-16.6-.9l1.1-1.1 7.5 7.8-1.1 1.1-7.5-7.8zM95 390.5l1.4-.8 4.4 7.8-1.4.8-4.4-7.8zm14.7.1l1.4-.8 4 7.1-1.4.8-4-7.1zm17.1 0l1.4-.8 4.3 7.6-1.4.8-4.3-7.6z" transform="translate(8.483 2.06)"/><path class="st5" d="M172.8 161.3l1.4-.7 45.7 85.5-1.4.7-45.7-85.5zm-49.2-92.1l1.4-.7 25.2 47.1-1.4.7-25.2-47.1zM93.3 12.6l1.4-.7 17 31.7-1.4.7-17-31.7z" transform="translate(8.483 2.06)"/><path d="M173.2 215.8c5.2-5.6 2.9-13 1.4-16.4-1.6-3.5-4-3.9-4.7-1.6-1 3.5-4.2 5.8-7.8 5.5-7.5-.2-8-6.7-20.7-6.4-7.5.3-13.4 6.4-13.4 13.9 0 11.9 11.3-1.8 20.8 4.8 13.3 9.2 20.9 4 24.4.2z" transform="translate(8.483 2.06)"/><path class="st7" d="M173.1 571.8h53.2v1.6h-53.2z" transform="translate(8.483 2.06)"/><path d="M262.7 571.8h62.6v1.6h-62.6zm26.1-123.7l1.4-.8 16.7 29.7-1.4.8-16.7-29.7z" transform="translate(8.483 2.06)"/></svg>