<?xml version="1.0" encoding="utf-8"?>
<!-- Generator: Adobe Illustrator 24.1.0, SVG Export Plug-In . SVG Version: 6.00 Build 0)  -->
<svg version="1.1" id="katman_1" xmlns="http://www.w3.org/2000/svg" xmlns:xlink="http://www.w3.org/1999/xlink" x="0px" y="0px"
	 viewBox="0 0 524.9 702" style="enable-background:new 0 0 524.9 702;" xml:space="preserve">
<style type="text/css">
	.st0{fill:#74BAAB;}
	.st1{fill:#EC8C92;}
	.st2{fill:#CBCBCB;}
	.st3{fill:#EFEFEF;}
	.st4{fill:#FFFFFF;stroke:#EDEDED;stroke-width:4;}
	.st5{fill:#2C3E50;}
	.st6{fill:#F2BDBA;}
	.st7{fill:#FFFFFF;}
	.st8{fill:#93B4F6;}
	.st9{fill:#274D76;}
</style>
<g transform="translate(-0.004 2.057)">
	<g transform="translate(0.004 369.114)">
		<path class="st0" d="M388.4,284.2c3.4-10.2,27-31.9,29.6-30.9c2.6,1.1-16.7,13.5-25.3,34.5C392.2,289.1,386.3,290.7,388.4,284.2z"
			/>
		<path class="st1" d="M396.8,249.7c2.4-5.2,9.5-3,15.5-0.8c-2.6-7.7,1.2-17.2,7.5-15.8c6.2,1.4,1.7,10.9-0.3,16.1
			c4-0.6,11.4-4.9,14.2,0c2.8,4.9-6.1,5.3-10.2,4.8c1.4,3.1,9.7,11.4,1.9,12.3c-5.6,0.6-8.6-2.4-10.3-9.5
			C404.4,257,393.1,257.6,396.8,249.7z"/>
		<path class="st0" d="M403.1,267.1c0,0,17.5,2.6,18.9,8.5C420.1,280.3,408.2,276,403.1,267.1z"/>
		<path class="st0" d="M351.1,313.6l13.9-8.3l0.8,1.3l-13.9,8.3L351.1,313.6z"/>
		<path class="st0" d="M334.3,305.2l-1-1.2c4.7-4.2,11.4-9.5,16.4-10.9l0.4,1.5C345.4,295.9,338.9,301.1,334.3,305.2z"/>
		<path class="st0" d="M247,323.9l-1.1-1.1c5.6-5.5,13.5-12.7,19.5-16l0.8,1.4C260.4,311.4,252.6,318.5,247,323.9z"/>
		<path class="st0" d="M240.3,282.7l-1.3-0.9c3.2-4.4,8-9.9,12.2-11.4l0.5,1.5C248.7,272.9,244.7,276.8,240.3,282.7z"/>
		<path class="st0" d="M217.9,284.3l-1.3-0.8c0.3-0.6,8.5-13.5,14.9-16.9l0.8,1.4C226.1,271.2,218,284.2,217.9,284.3z"/>
		<path class="st0" d="M210.7,321.8l-1.3-0.8c3.2-5.1,8.2-12,13.6-15.7l0.9,1.3C218.7,310.1,213.8,316.8,210.7,321.8z"/>
		<path class="st0" d="M137.6,298.6l-1.5-0.4c0.1-0.5,3.5-11.3,11.2-18.8l1.1,1.1C141,287.8,137.6,298.5,137.6,298.6z"/>
		<path class="st0" d="M116.2,306.1l-1.5-0.5c2.7-7.4,6.8-14.3,12-20.2l1.2,1.1C120,295,116.2,306,116.2,306.1z"/>
		<path class="st0" d="M465.9,330.8c-3.3-4.9-7-9.5-11.1-13.9c-1.2-1.3-1.1-3.3,0.2-4.5c0.1-0.1,0.1-0.1,0.2-0.2
			c2.2-1.6,4.6-3,7-4.1c0.4-0.2,0.7-0.5,0.6-0.7c0-0.2-0.3-0.5-0.8-0.6c-4.5-1.2-9.4-1.1-13.8,0.5c-1.6,0.5-3.5-0.1-5.5-1.8
			l-0.8-0.6c-1-0.8-1.6-2.1-1.7-3.4c-0.3-6.6-2.6-13-6.7-18.2c-0.3-0.3-0.8-0.4-1.1-0.1c-0.2,0.1-0.3,0.3-0.3,0.6
			c-0.1,1.2-0.2,2.6-0.5,4.3c-0.4,2.8-3,4.8-5.8,4.4c-0.7-0.1-1.4-0.4-2.1-0.8l-0.1-0.1c-1.5-0.9-2.1-2.7-1.6-4.4l2-6.9
			c0-0.1,0-0.3-0.1-0.4c-0.1-0.1-0.3-0.1-0.4,0l-5.2,3.4c-2.5,1.6-5.6,1.7-8.2,0.3c-9.2-4.9-18.8-9.3-28.5-13
			c-1.6-0.6-2.4-2.4-1.8-4c0.1-0.2,0.2-0.4,0.3-0.5l4-6.3c0.3-0.4,0.2-1-0.1-1.3c-0.3-0.4-0.8-0.5-1.3-0.3l-14.4,5.7
			c-1.9,0.8-4.1,0.8-6.1,0.2c-8.7-2.6-17.8-5-27-6.9c-1.1-0.2-1.8-1.3-1.6-2.4c0.1-0.4,0.3-0.7,0.5-1c1.7-1.7,3.1-3.2,4.4-4.5
			c1.9-2,3.7-3.9,6.2-6.4c0.2-0.3,0.3-0.6,0.1-0.9c-0.2-0.3-0.5-0.4-0.9-0.3c-8.6,2.7-16.8,6.4-24.5,11c-1.3,0.8-2.9,1.2-4.4,0.9
			c-18.2-3-34.1-4.2-56.6-4.2c-11.7,0-23.6,0.5-35.2,1.6c-0.9,0.1-1.8-0.4-2.1-1.2l-0.8-1.8c-0.3-0.6-0.9-0.8-1.5-0.5
			c0,0-0.1,0-0.1,0l-4.6,2.6c-1.8,1-4.1,0.4-5.1-1.5c0-0.1-0.1-0.1-0.1-0.2l-0.2-0.5c-0.1-0.3-0.4-0.4-0.7-0.2c0,0-0.1,0-0.1,0
			l-3.1,2.3c-0.9,0.7-2.3,0.5-3-0.4c-0.3-0.4-0.4-0.8-0.4-1.3v-4.4c0-0.2,0-0.5-0.1-0.7c-0.1,0.1-0.1,0.1-0.2,0.2l-7.2,9.6
			c-1.2,1.4-2.8,2.3-4.6,2.6c-27.4,5.1-49.6,12.1-70.2,21.9c-1.4,0.7-3,0.5-4.3-0.4c-8.1-6.1-17.5-10.3-27.4-12.1
			c-0.2,0-0.4,0.1-0.5,0.3c-0.1,0.2,0,0.4,0.2,0.6c4.7,3.4,8.8,6.5,12.1,9.3c1.2,1,1.3,2.7,0.4,3.8c-0.5,0.6-1.3,1-2.1,1h-5.9
			c-0.2,0-0.4,0.2-0.4,0.4c0,0.1,0.1,0.3,0.2,0.3c1.3,0.7,2.5,1.3,3.6,2c2.2,1.3,2.8,4.1,1.5,6.3c-0.4,0.6-0.9,1.1-1.5,1.5
			c-3.2,2-6.4,4.1-9.4,6.3c-1.7,1.2-4,0.8-5.3-0.8l-5.9-7.4c-0.1-0.1-0.1-0.1-0.2-0.2c-0.1,0.2-0.1,0.5,0,0.7l3,11.8
			c0.3,1.1-0.1,2.3-1,3l-0.5,0.4c-0.7,0.6-1.7,0.8-2.5,0.4c-2.7-1-10.3-3-21.6,0c5.8,1.3,10.4,2.9,13.6,4.9c0.7,0.4,1.2,1.1,1.3,1.9
			c0,0.4-0.2,0.8-0.5,1.1c-0.6,0.6-1.5,0.9-2.3,0.9c-4.9,0.2-9.7,1.4-14.2,3.5c-0.3,0.2-0.4,0.5-0.2,0.8c0.1,0.2,0.3,0.3,0.5,0.3
			c2.2-0.1,4.5,0,6.7,0.3c0.8,0.1,1.4,0.6,1.7,1.4c0.3,0.7,0.1,1.6-0.4,2.2c-2.4,2.9-4.6,5.9-6.7,8.9l-1.3-0.9
			c2.1-3.1,4.4-6.1,6.8-9c0.1-0.2,0.2-0.4,0.1-0.6c-0.1-0.2-0.3-0.4-0.5-0.4c-2.1-0.3-4.3-0.4-6.4-0.3c-1,0-1.9-0.6-2.1-1.6
			c-0.3-1,0.2-2,1.1-2.4c4.6-2.3,9.7-3.5,14.9-3.7c1.1,0,1.4-0.4,1.5-0.5c0-0.1-0.2-0.4-0.6-0.6c-3-1.9-7.5-3.5-13.1-4.7
			c-0.8-0.2-1.4-1-1.2-1.8c0.1-0.6,0.6-1.1,1.1-1.2c11.7-3.1,19.6-1,22.5,0.1c0.3,0.1,0.7,0.1,1-0.2l0.5-0.4
			c0.4-0.3,0.6-0.9,0.4-1.4l-3-11.8c-0.4-0.9-0.1-2.1,0.8-2.6c0.8-0.3,1.7,0,2.1,0.7l5.9,7.4c0.8,1,2.2,1.2,3.2,0.5
			c3-2.1,6.2-4.2,9.4-6.3c1.4-0.9,1.9-2.7,1-4.2c-0.2-0.4-0.6-0.8-1-1c-1.1-0.7-2.2-1.3-3.5-2c-0.9-0.5-1.3-1.7-0.8-2.6
			c0.3-0.6,1-1,1.7-1h5.9c0.5,0,0.9-0.3,1.1-0.8c0.2-0.5,0-1-0.4-1.3c-3.3-2.7-7.4-5.8-12.1-9.2c-0.9-0.7-1.1-1.9-0.5-2.8
			c0.5-0.6,1.3-1,2-0.8c10.2,1.9,19.8,6.1,28.1,12.4c0.8,0.6,1.8,0.7,2.6,0.2c20.7-9.9,43.1-16.9,70.6-22c1.4-0.3,2.7-1,3.6-2.1
			l7.1-9.6c0.4-0.7,1.2-1,2-0.8c0.8,0.4,1.3,1.3,1.1,2.3v4.3c0,0.2,0.1,0.4,0.3,0.5c0.2,0.1,0.4,0.1,0.6,0l3.1-2.3
			c0.5-0.4,1.1-0.5,1.7-0.4c0.6,0.1,1.1,0.6,1.4,1.1l0.2,0.5c0.3,0.5,0.7,0.9,1.3,1.1c0.6,0.2,1.2,0.1,1.7-0.2l4.6-2.6
			c1.3-0.7,2.9-0.2,3.6,1c0,0.1,0.1,0.1,0.1,0.2l0.8,1.8c0.1,0.2,0.3,0.4,0.6,0.3c11.7-1.1,23.6-1.6,35.4-1.6
			c22.6,0,38.6,1.2,56.9,4.2c1.1,0.2,2.3,0,3.3-0.7c7.8-4.7,16.2-8.5,24.9-11.2c1-0.3,2.1,0.1,2.6,1c0.5,0.9,0.4,2.1-0.4,2.9
			c-2.5,2.5-4.3,4.3-6.2,6.3c-1.3,1.4-2.7,2.8-4.4,4.5c-0.1,0.1-0.2,0.3-0.1,0.4c0,0.2,0.2,0.3,0.3,0.3c9.3,2,18.4,4.3,27.2,7
			c1.7,0.5,3.4,0.4,5-0.2l14.4-5.7c1.4-0.6,3,0.1,3.5,1.5c0.3,0.8,0.2,1.7-0.2,2.5l-4,6.3c-0.4,0.8-0.2,1.7,0.6,2.2
			c0.1,0,0.1,0.1,0.2,0.1c9.8,3.8,19.4,8.1,28.7,13.1c2.1,1.1,4.6,1,6.6-0.3l5.2-3.4c0.9-0.6,2.1-0.3,2.6,0.6c0.3,0.5,0.4,1,0.2,1.6
			l-2,6.9c-0.3,1,0.1,2.1,1,2.6l0.1,0.1c1.7,1.1,3.9,0.6,5-1.1c0.3-0.4,0.5-0.9,0.5-1.4c0.2-1.6,0.4-3,0.5-4.2
			c0.1-1.3,1.2-2.3,2.5-2.2c0.7,0,1.3,0.4,1.7,0.9c4.2,5.5,6.7,12.2,7,19.1c0.1,0.9,0.5,1.7,1.2,2.3l0.8,0.6c1.1,0.9,2.7,1.9,4,1.6
			c4.7-1.6,9.9-1.8,14.7-0.5c1.2,0.1,2,1.2,1.9,2.4c-0.1,0.9-0.7,1.6-1.6,1.8c-2.4,1.1-4.6,2.4-6.7,3.9c-0.4,0.3-0.6,0.7-0.6,1.2
			c0,0.5,0.1,0.9,0.4,1.2c4.1,4.4,7.8,9.1,11.2,14.1L465.9,330.8z"/>
		<path d="M515.4,222.4c-1.3,0-2.6-0.3-3.8-0.8l-130.8-52.4c-2.5-0.9-4.5-2.9-5.4-5.4c-0.7-2.3-0.6-4.7,0.3-6.9
			c0.7-1.9,2-3.5,3.5-4.7c1.6-1.3,3.6-2,5.6-2c1.2,0,2.4,0.2,3.5,0.7l9.4,3.8c0.5,0.3,1.2,0.3,1.7,0.1c1.9-1,3.1-5.9,4.5-11.7l0,0
			c0.4-1.7,0.9-3.5,1.4-5.4l0.1-0.3l0-0.1c1-3.6,2.4-9.1,5.7-13.6c1.7-2.4,3.8-4.4,6.4-5.8c3.1-1.6,6.5-2.5,10-2.4
			c0.4,0,0.8,0,1.2,0c6.4,0.3,9.4,0.6,15,1.2l0.2,0h0.1l0.9,0.1h0c1.2,0.1,2.5,0.3,4,0.4c5.2,0.6,8.7,1.9,11.2,4.4
			c3.1,3,4.8,7.7,5,14.2c0.3,9.1,2.3,11.1,6,11.7c31.3,5.1,31.3,18.6,31.2,31.7v2.4c0,7.8,0.8,15.4,6.3,17.6l9.9,3.9
			c2.6,1,4.7,3,5.6,5.7c0.8,2.4,0.7,5-0.3,7.3c-0.9,2.2-2.5,4.1-4.6,5.3C518.2,222,516.8,222.4,515.4,222.4z M385,151.8L385,151.8
			c-1.7,0-3.4,0.6-4.7,1.7c-1.3,1.1-2.4,2.5-3,4c-0.8,1.8-0.9,3.9-0.3,5.8c0.7,2.1,2.4,3.7,4.5,4.4l130.7,52.4c1,0.4,2,0.7,3.1,0.7
			c1.2,0,2.4-0.3,3.4-0.8c1.8-1,3.2-2.6,3.9-4.5c0.8-2,0.9-4.2,0.2-6.2c-0.8-2.2-2.5-3.9-4.7-4.7l-9.9-3.9c-6.4-2.6-7.3-10.7-7.3-19
			v-2.3c0.1-12.4,0.2-25.3-29.9-30.2c-5.7-0.9-7-5.7-7.3-13.2c-0.2-6.1-1.7-10.4-4.5-13.1c-2.4-2.2-5.5-3.5-10.3-4l-4.9-0.5H444
			c-5.6-0.6-8.7-1-15.1-1.2c-0.3,0-0.7,0-1,0c-3.3-0.1-6.5,0.7-9.4,2.3c-2.4,1.4-4.4,3.3-6,5.5c-3.1,4.3-4.4,9.5-5.4,12.9l-0.1,0.3
			c-0.5,1.8-0.9,3.4-1.3,5l-0.1,0.3c-1.6,6.7-2.8,11.5-5.4,12.8c-1,0.4-2.1,0.4-3,0l-9.4-3.8C387,152,386,151.8,385,151.8L385,151.8
			z"/>
		<path d="M514.4,62.7c-0.5,0-1,0-1.5-0.1l-95.5-17.7c-1.9-0.3-3.6-1.4-4.5-3c-0.8-1.5-1.1-3.2-0.7-4.9c0.3-1.8,1.2-3.4,2.6-4.6
			c1.5-1.3,3.5-1.8,5.5-1.4l6.8,1.3c0.1,0,0.3,0,0.4,0c0.2,0,0.4,0,0.6-0.2c1.1-0.8,1.2-4.5,1.4-8.3l0-0.2c0.1-1.2,0.1-2.4,0.2-3.6
			v-0.3c0.3-5.3,1-16.3,13-18.2c4.5-0.7,6.7-0.9,10.4-1.2h0.2l3.2-0.3c0.7-0.1,1.4-0.1,2.1-0.1c2.2-0.1,4.4,0.5,6.3,1.6
			c2.6,1.6,4.4,4.6,5.4,9.1c0.3,2,1.1,3.9,2.2,5.6c0.7,0.9,1.7,1.4,2.9,1.3c0.1,0,0.2,0,0.3,0c0.9,0,1.8-0.1,2.6-0.1
			c19.6,0,21.4,9.3,23,17.4V35c0,0.2,0.1,0.3,0.1,0.5c0.1,0.3,0.1,0.6,0.2,0.9c1.1,5.2,2.6,10.1,6.5,10.8l7.2,1.3
			c2,0.3,3.7,1.5,4.7,3.2c0.9,1.6,1.2,3.4,0.9,5.2C520.4,60.2,517.7,62.7,514.4,62.7z M513.2,61L513.2,61c0.4,0.1,0.8,0.1,1.2,0.1
			c1.3,0,2.5-0.5,3.4-1.4c0.8-0.9,1.4-1.9,1.6-3.1c0.3-1.4,0-2.8-0.7-4.1c-0.8-1.3-2.1-2.2-3.7-2.4l-7.2-1.3
			c-4.8-0.9-6.5-6.3-7.7-12c-0.1-0.4-0.2-0.9-0.3-1.3l0-0.2v-0.1c-1.6-8.3-3.2-16.2-21.4-16.2c-0.9,0-1.8,0-2.7,0.1
			c-0.1,0-0.2,0-0.3,0c-4,0-5.5-3.1-6.7-8.1c-1-4-2.5-6.7-4.7-8.1c-1.6-1-3.5-1.4-5.4-1.4c-0.6,0-1.3,0-2,0.1l-3.3,0.3h-0.2
			c-3.8,0.3-5.9,0.5-10.3,1.2c-10.7,1.7-11.3,11.5-11.7,16.8v0.2c-0.1,1.2-0.1,2.3-0.2,3.4l0,0.4v0c-0.2,4.8-0.4,8.2-2,9.5
			c-0.6,0.5-1.5,0.6-2.2,0.4l-6.8-1.3c-1.5-0.3-3,0.1-4.1,1.1c-1.1,1-1.8,2.2-2.1,3.7c-0.3,1.3-0.1,2.6,0.6,3.8
			c0.7,1.2,2,2.1,3.4,2.3L513.2,61L513.2,61L513.2,61z"/>
		<path d="M7.1,219.2c-1,0-2-0.2-2.9-0.7c-1.6-0.9-2.9-2.3-3.5-4c-0.8-1.8-0.9-3.8-0.4-5.7c0.6-2,2.1-3.7,4.1-4.5l7-2.9
			c0.4-0.1,0.7-0.4,0.9-0.8c0.5-1.4-1.5-4.8-3.6-8.4l-0.1-0.1l0,0c-0.7-1.1-1.4-2.3-2.1-3.6l-0.1-0.2c-2.8-5-8.8-15.5,1-24.3
			c3.3-3,5.2-4.5,8.1-6.7l0.7-0.6l0.1-0.1l2.9-2.3c3.1-2.5,5.7-3.6,8.5-3.6h0.1c3.3,0,6.6,1.7,10.2,5c2.9,2.8,5,4,6.7,4
			c0.9,0,1.8-0.3,2.5-0.9c7.4-5.2,13.5-7.8,18.8-7.8c3.1,0,6.1,0.9,8.6,2.7c2.3,1.7,4.5,3.6,6.4,5.7l1.2,1.3
			c1.6,1.7,3.3,3.2,5.2,4.5c1.5,1.2,3.3,1.8,5.2,2c0.7,0,1.4-0.1,2.1-0.4l7.4-3.1c1-0.4,2-0.6,3.1-0.6c1.5,0,3,0.5,4.2,1.4
			c1.2,0.9,2.1,2.1,2.7,3.5c0.7,1.7,0.9,3.6,0.3,5.4c-0.7,2-2.2,3.6-4.2,4.4l-97.9,40.8C9.2,219,8.2,219.2,7.1,219.2L7.1,219.2z
			 M27.6,152.3c-2.3,0-4.7,1-7.5,3.3l-2.9,2.3l-0.1,0.1c-3.2,2.5-5.1,4-8.7,7.3c-8.8,8-3.3,17.7-0.7,22.4l0,0l0.1,0.2
			c0.7,1.2,1.4,2.4,2.1,3.5l0,0l0,0c2.7,4.5,4.6,7.7,3.8,9.8c-0.3,0.8-0.9,1.4-1.7,1.7l-7,2.9c-1.5,0.6-2.7,1.9-3.2,3.5
			c-0.4,1.5-0.3,3.2,0.3,4.6c0.5,1.4,1.5,2.5,2.8,3.2c1.4,0.7,3.1,0.7,4.6,0l97.9-40.8c1.6-0.6,2.8-1.8,3.3-3.4
			c0.4-1.4,0.3-3-0.3-4.3c-0.5-1.1-1.2-2-2.1-2.8c-1-0.7-2.2-1.2-3.4-1.2c-0.8,0-1.6,0.2-2.4,0.5l-7.4,3.1c-0.9,0.4-1.8,0.5-2.7,0.6
			c-2.1-0.1-4.1-0.8-5.8-2.1c-2-1.4-3.9-3-5.6-4.9l-1.2-1.3c-1.8-2-3.9-3.9-6.1-5.5c-2.3-1.6-5-2.5-7.8-2.5
			c-4.8,0-10.7,2.5-17.9,7.6c-1,0.7-2.2,1.2-3.4,1.2c-2.2,0-4.4-1.3-7.7-4.4C33.6,153.8,30.6,152.3,27.6,152.3L27.6,152.3z"/>
	</g>
	<g transform="translate(8.487 0.003)">
		<path class="st2" d="M86.2,442.8l72.7,122c3.5,5.5,2,12.8-3.4,16.5l-14.7,10c-2.1,1.4-2.6,4.2-1.2,6.3c0.8,1.2,2.3,2,3.8,2h52.6
			c5.4,0,10.7-0.9,15.8-2.6l33.2-11.4c14.2-4.9,18.2-21.5,10.5-34.4L219,486.3l1.7-0.6c27.8-9.8,42.3-40.3,32.5-68.1
			c-1.4-4.1-3.4-8-5.8-11.6l-3.7-5.5H104.1C82.6,400.4,74.7,424.6,86.2,442.8z"/>
		<path class="st3" d="M178.3,442.8l72.7,122c3.5,5.5,2,12.8-3.4,16.5l-14.7,10c-2.1,1.4-2.6,4.2-1.2,6.3c0.8,1.2,2.3,2,3.8,2H288
			c5.4,0,10.7-0.9,15.8-2.6l33.2-11.4c14.2-4.9,18.2-21.5,10.6-34.4l-36.4-64.9l1.7-0.6c27.8-9.8,42.3-40.3,32.5-68.1
			c-1.4-4.1-3.4-8-5.8-11.6l-3.7-5.5H196.3C174.7,400.4,166.9,424.6,178.3,442.8z"/>
		<path class="st4" d="M107.9,1.6C171,29.5,358.2,173.8,449.8,237.3c10.5,7.3,12.1,24.3-10.9,24.1l-411.8-3.6
			c-7.7-0.1-8.6-7.2-6.9-14.7c0,0,46.1-207.8,62-236.5C85.2,1,99.2-2.2,107.9,1.6z"/>
		<path class="st5" d="M71.9,279.9c5.3-18.8,21.3-29.9,53.5-34.2c15.6-2.1,34.6-1.9,56.7-1.9c105.2,0,200,79.5,200,145.4
			c0,40.6-49.6,55.2-143.8,11.5c-39.2-0.5-67.5-0.4-102.6-0.2C101.1,353.5,63.6,309,71.9,279.9z"/>
		<path class="st1" d="M161.4,305.2h-10.3c-4.6,0-8.3-3.7-8.3-8.3c0,0,0,0,0,0v-64h23.5l16,17.4c3.6,3.9,5.6,9,5.6,14.3v14.3
			C187.7,293.3,175.9,305.2,161.4,305.2C161.4,305.2,161.4,305.2,161.4,305.2z"/>
		<path class="st6" d="M174.8,235.6H174c-0.9,0-1.7-0.7-1.7-1.7V214c5.3-3,3.8-11.3,2.3-14.7c-1.6-3.5-4-3.9-4.7-1.6
			c-1,3.5-4.2,5.8-7.8,5.5c-7.5-0.2-8-6.7-20.7-6.4c-7.5,0.2-13.5,6.4-13.4,13.9v62.9c0,4.4,3.6,8,8,8h16.2c11.1,0,20.1-9,20.1-20.1
			l0,0v-1.1c0-1.5,0.9-2.9,2.3-3.5c3-1.1,4.9-4,4.9-7.2v-9.5C179.6,237.7,177.4,235.6,174.8,235.6
			C174.8,235.6,174.8,235.6,174.8,235.6L174.8,235.6z"/>
		<path d="M155,255.1c-4.9,0-9.3-4.1-11-10.1c-0.1-0.3-0.3-0.4-0.5-0.4c-0.3,0-0.5,0.2-0.5,0.4c-0.7,2.8-2.2,5.3-4.3,7.3
			c-1.8,1.7-4.2,2.7-6.7,2.8c-6.5,0-11.7-6.9-11.7-15.3v-0.4c0-1.6,0-2.7,0-4.4c0-1.5,1.3-2.7,2.7-2.7h41c1.5,0,2.8,1.2,2.8,2.8v4.8
			C166.7,248.2,161.4,255.1,155,255.1z M143.4,243c1,0,1.8,0.7,2.1,1.6c0.6,2.4,1.9,4.6,3.7,6.4c1.5,1.6,3.6,2.5,5.8,2.5
			c5.6,0,10.2-6.2,10.2-13.8v-4.8c0-0.7-0.5-1.2-1.2-1.2l0,0h-41c-0.7,0-1.2,0.5-1.2,1.2c0,1.8,0,3,0,4.8c0,7.6,4.6,13.8,10.2,13.8
			c2.2,0,4.3-0.9,5.8-2.5c1.8-1.8,3-4,3.7-6.4C141.6,243.6,142.5,243,143.4,243z"/>
		<path d="M135.2,242.4H135c-2.1,0-3.7-1.7-3.7-3.7c0,0,0,0,0,0l0,0c0-0.6,0.5-1.1,1.1-1.1c0,0,0,0,0,0h5.4c0.6,0,1.1,0.5,1.1,1.1
			l0,0C138.9,240.7,137.2,242.4,135.2,242.4C135.2,242.4,135.2,242.4,135.2,242.4z"/>
		<path d="M152.1,242.4H152c-2.1,0-3.7-1.7-3.7-3.7l0,0c0-0.6,0.5-1.1,1.1-1.1c0,0,0,0,0,0h5.4c0.6,0,1.1,0.5,1.1,1.1l0,0
			C155.8,240.7,154.1,242.4,152.1,242.4C152.1,242.4,152.1,242.4,152.1,242.4z"/>
		<path d="M153.3,262.3h-9.2v-1.6h9.2c1,0,2-0.5,2.5-1.4l1.3,0.8C156.3,261.5,154.9,262.3,153.3,262.3z"/>
		<path class="st1" d="M200.1,374.2l-7.9,10.9c-3.2,4.4-2.2,10.6,2.2,13.8c0.4,0.3,0.8,0.5,1.2,0.7l9.2,4.9
			c6.2,3.3,13.8,1.5,17.9-4.2l3.1-4.4L200.1,374.2z"/>
		<path class="st1" d="M155.4,374.2l7.9,10.9c3.2,4.4,2.2,10.6-2.2,13.8c-0.4,0.3-0.8,0.5-1.2,0.7l-9.2,4.9
			c-6.2,3.3-13.8,1.5-17.9-4.2l-3.1-4.4L155.4,374.2z"/>
		<path d="M228.1,332.2c-10-18-12.4-39.2-6.6-59l1.5,0.4c-5.7,19.4-3.4,40.2,6.4,57.8L228.1,332.2z"/>
		<path d="M106.9,334.1c-9.7-20.5-11.3-38.8-5.4-59.4l1.5,0.4c-5.8,20.1-4.2,38.1,5.3,58.2L106.9,334.1z"/>
		<path class="st7" d="M215.8,384.8c-13.6,0-25.8,0-37.2-0.1l-119.2-0.5l-14.9-0.1H37c-3,0-6-0.4-8.9-1c-6.1-1.4-11.7-4.3-16.3-8.6
			c-4.6-4.4-7.8-10-9.3-16.2c-1.4-6-1.2-12.4,0.6-18.3c0.9-2.9,2.1-5.6,3.5-8.2c0.2-0.4,0.4-0.7,0.6-1.1c0.2-0.3,0.3-0.5,0.5-0.8
			l0.6-0.9l0.5-0.8l2.1-3.1l16.7-24.6l67-98.7l33.5-49.3l8.4-12.3c1.7-2.4,3.7-4.6,5.9-6.5c1.1-1,2.3-1.9,3.6-2.8
			c1.3-0.9,2.7-1.6,4.1-2.2c5.9-2.6,12.6-3,18.8-0.9c2.9,1,5.7,2.4,8.2,4.2c1.2,0.9,2.4,1.8,3.4,2.8l0.8,0.8l0.8,0.7l1.3,1.3
			l169.4,167.6c4.1,4,7.5,8.7,10.1,13.8c2.6,5.2,4.3,10.8,5,16.5c0.7,5.8,0.4,11.7-1.1,17.4c-1.4,5.8-4.1,11.3-7.7,16
			c-3.8,4.8-8.6,8.7-14.1,11.4c-5.4,2.6-11.3,4-17.3,4.2h-15.2l-14.9,0.1c-10,0-20.2,0.1-30.1,0.1h0
			C250.7,384.7,233.1,384.8,215.8,384.8z M160.8,138c-2,0-4,0.4-5.8,1.3c-3.5,1.7-6.6,4.4-8.8,7.7l-8.3,12.4l-33.1,49.5l-66.1,99.1
			l-16.5,24.8l-2.1,3.1l-0.5,0.8l-0.4,0.6c-0.1,0.2-0.2,0.3-0.3,0.5v0c-0.2,0.3-0.3,0.6-0.5,0.8c-1,1.7-1.7,3.6-2.3,5.5
			c-1.1,3.6-1.2,7.5-0.3,11.1c0.9,3.6,2.8,6.8,5.4,9.3c2.8,2.5,6.1,4.3,9.8,5c1.9,0.4,3.9,0.6,5.8,0.6h7.5l14.9-0.1l119.2-0.5
			c11.5-0.1,23.8-0.1,37.5-0.1c18.1,0,36.5,0.1,54.2,0.2h0.2c9,0,18.2,0.1,27.3,0.1l29.6,0.1c4-0.1,7.9-1,11.5-2.6
			c3.5-1.7,6.5-4.1,8.9-7.1c2.4-3.1,4.2-6.7,5.2-10.6c1-4,1.3-8.1,0.8-12.1c-0.5-4.1-1.7-8.1-3.5-11.8c-1.9-3.8-4.3-7.3-7.3-10.3
			L175.1,145.8l-1.3-1.3l-0.3-0.3l-0.3-0.3l-0.6-0.5c-0.7-0.7-1.5-1.3-2.3-1.9c-1.5-1.1-3.2-2-5-2.6
			C163.8,138.3,162.3,138,160.8,138z"/>
		<path class="st8" d="M215.4,386.4c-13.5,0-25.5,0-36.8-0.1l-119.2-0.5l-14.9-0.1H37c-3.1,0-6.2-0.4-9.3-1.1
			c-6.4-1.4-12.3-4.5-17-9C5.9,371,2.5,365.1,1,358.7c-1.5-6.3-1.3-12.9,0.7-19.1c0.9-3,2.1-5.8,3.7-8.5c0.3-0.5,0.6-1,0.8-1.4
			l0.4-0.6l0.6-0.9l0.5-0.8l2.1-3.1l16.8-24.7l67-98.6l33.5-49.3l8.4-12.4c1.8-2.5,3.8-4.8,6.1-6.8c1.2-1.1,2.5-2.1,3.8-2.9
			c1.4-0.9,2.8-1.7,4.3-2.3c3.1-1.4,6.4-2.2,9.8-2.3c0.5,0,0.9,0,1.4,0c2.9,0,5.9,0.5,8.7,1.4c3.1,1,6,2.5,8.6,4.5
			c1.3,0.9,2.5,1.9,3.6,2.9l0.8,0.8l0.8,0.7l1.3,1.3L354,304c4.2,4.1,7.7,9,10.4,14.3c2.7,5.3,4.5,11.1,5.2,17.1
			c0.8,6,0.4,12.1-1.1,18c-1.5,6-4.2,11.7-8,16.6c-3.9,5-8.9,9.1-14.7,11.9c-5.6,2.7-11.8,4.1-18,4.3h-15.2l-14.9,0.1
			c-10.9,0-21,0.1-30.9,0.1l-7.1,0h0C245.2,386.3,230.2,386.4,215.4,386.4z M160.8,126.4c-0.2,0-0.4,0-0.6,0c-0.2,0-0.4,0-0.6,0
			c-3.2,0.2-6.4,0.9-9.3,2.2c-1.4,0.6-2.8,1.4-4.1,2.2c-1.3,0.8-2.5,1.7-3.6,2.8c-2.2,1.9-4.2,4.1-5.9,6.5l-8.4,12.3l-33.5,49.3
			l-67,98.7L11,325.1l-2.1,3.1L8.4,329l-0.6,0.9c-0.2,0.3-0.3,0.5-0.5,0.8c-0.2,0.3-0.4,0.7-0.6,1.1c-1.5,2.6-2.7,5.4-3.5,8.2
			c-1.8,5.9-2,12.2-0.6,18.3c1.5,6.2,4.7,11.8,9.3,16.2c4.6,4.3,10.2,7.2,16.3,8.6c2.9,0.7,5.9,1,8.9,1h7.5l14.9,0.1l119.2,0.5
			c12.3,0.1,24.7,0.1,36.8,0.1c16.9,0,34.1-0.1,50.8-0.1h0c10.3,0,21-0.1,31.6-0.1l14.9-0.1h15.2c6-0.2,11.9-1.6,17.3-4.2
			c5.5-2.7,10.3-6.6,14.1-11.4c3.7-4.7,6.3-10.2,7.7-16c1.4-5.7,1.8-11.6,1.1-17.4c-0.7-5.8-2.4-11.4-5-16.5
			c-2.6-5.1-6-9.8-10.1-13.9L183.5,137.5l-1.3-1.3l-0.8-0.7l-0.8-0.8c-1.1-1-2.2-1.9-3.4-2.8c-2.5-1.8-5.2-3.2-8.2-4.2
			C166.3,126.8,163.6,126.4,160.8,126.4z"/>
		<path class="st8" d="M350.2,325.3c-1.9-3.8-4.3-7.2-7.3-10.2L175.1,145.8l-1.3-1.3l-0.3-0.3l-0.3-0.3l-0.6-0.5
			c-0.7-0.7-1.5-1.3-2.3-1.9c-1.5-1.1-3.2-2-5-2.6c-1.5-0.5-3-0.8-4.6-0.8c-2,0-4,0.4-5.8,1.3c-3.5,1.7-6.6,4.4-8.8,7.7l-8.3,12.4
			l-33,49.5l-66.1,99.1l-16.5,24.8l-2.1,3.1l-0.5,0.8l-0.4,0.6c-0.3,0.4-0.6,0.9-0.8,1.3c-1,1.7-1.7,3.6-2.3,5.5
			c-1.1,3.6-1.2,7.5-0.3,11.1c0.9,3.6,2.8,6.8,5.4,9.3c2.8,2.5,6.1,4.3,9.8,5c1.9,0.4,3.9,0.6,5.8,0.6v-1.6c-1.8,0-3.7-0.2-5.5-0.6
			c-3.4-0.7-6.5-2.3-9.1-4.6c-2.5-2.3-4.2-5.2-5-8.5c-0.8-3.4-0.7-7,0.3-10.3c0.5-1.8,1.2-3.5,2.2-5.1v-0.1c0.1-0.2,0.3-0.5,0.4-0.7
			c0.1-0.2,0.2-0.3,0.3-0.5l0.4-0.6l0.5-0.8l2.1-3.1l16.5-24.8l66.1-99.1l33.1-49.5l8.3-12.4c2-3,4.8-5.5,8.1-7.1
			c1.6-0.7,3.4-1.1,5.1-1.1c1.4,0,2.8,0.2,4.1,0.7c1.7,0.6,3.2,1.4,4.6,2.4c0.8,0.6,1.5,1.1,2.2,1.8l0.5,0.5l0.3,0.2l0.3,0.3
			l1.3,1.3l167.8,169.4c2.9,2.8,5.2,6.1,7,9.8c1.8,3.6,2.9,7.4,3.4,11.3c0.9,7.9-1.2,16-5.7,21.6c-2.2,2.8-5.1,5.1-8.4,6.7
			c-3.4,1.6-7.1,2.4-10.8,2.5l-29.5-0.1c-10.3,0-20.6-0.1-30.9-0.1c-16.9-0.1-34.3-0.1-51.5-0.1c-13.5,0-25.5,0-36.8,0.1l-119.2,0.5
			l-14.9,0.1H37v1.6h7.4l14.9-0.1l119.2-0.5c12.3-0.1,24.6-0.1,36.8-0.1c27.5,0,54.9,0.2,82.4,0.3l29.6,0.1c4-0.1,7.9-1,11.5-2.6
			c3.5-1.7,6.5-4.1,8.9-7.1c4.8-6.1,7-14.6,6-22.7C353.2,333.1,352.1,329,350.2,325.3z"/>
		<path class="st6" d="M101.5,400.5c2.1,3.9,9.7,4.7,15,0.7c3.1,4.4,12.3,4.4,16.8-0.7c6.8,6.5,22.7-0.6,27-15.6
			c-9.9,0-9.2-15.3,0.7-15.7c-3.1-14.1-15.8-26.6-36.9-23.9c-12.2,1.6-27,4.4-33.3,14.3c-6.1,9.5-5.4,18.5-5.4,25.3
			C85.5,399.8,93.8,405.6,101.5,400.5z"/>
		<path class="st9" d="M162.7,133.1c0.1-2.3,1.3-4.5,3.2-5.8c1.1-0.9,0.5-1.9-0.9-1.9h-6c-5.5,0-8.1,2.7-8.1,8s2.5,8,8.1,8h4.3
			c1.7,0,3.2-1.4,3-2.2C164,138,162.6,135.7,162.7,133.1z"/>
		<path class="st6" d="M254,400.5c-2.1,3.9-9.9,4.7-15.2,0.7c-2.3,4.4-12,4.4-16.6-0.7c-6.9,6.6-22.7-1.1-27.2-16.4
			c-5.4-18,7.8-42.5,36.5-38.8c15.6,2,35.2,6.3,36.5,24.1c-8.1,0.1-10.5,15.5,2.1,15.5C271.7,399.7,261.7,405.6,254,400.5z"/>
		<path d="M243.5,390.8l1.1-1.1l7.4,7.6l-1.1,1.1L243.5,390.8z"/>
		<path d="M228.2,391.5l1.1-1.1l6.9,7.1l-1.1,1.1L228.2,391.5z"/>
		<path d="M211.6,390.6l1.1-1.1l7.5,7.8l-1.1,1.1L211.6,390.6z"/>
		<path d="M95,390.5l1.4-0.8l4.4,7.8l-1.4,0.8L95,390.5z"/>
		<path d="M109.7,390.6l1.4-0.8l4,7.1l-1.4,0.8L109.7,390.6z"/>
		<path d="M126.8,390.6l1.4-0.8l4.3,7.6l-1.4,0.8L126.8,390.6z"/>
		<path class="st5" d="M172.8,161.3l1.4-0.7l45.7,85.5l-1.4,0.7L172.8,161.3z"/>
		<path class="st5" d="M123.6,69.2l1.4-0.7l25.2,47.1l-1.4,0.7L123.6,69.2z"/>
		<path class="st5" d="M93.3,12.6l1.4-0.7l17,31.7l-1.4,0.7L93.3,12.6z"/>
		<path d="M173.2,215.8c5.2-5.6,2.9-13,1.4-16.4c-1.6-3.5-4-3.9-4.7-1.6c-1,3.5-4.2,5.8-7.8,5.5c-7.5-0.2-8-6.7-20.7-6.4
			c-7.5,0.3-13.4,6.4-13.4,13.9c0,11.9,11.3-1.8,20.8,4.8C162.1,224.8,169.7,219.6,173.2,215.8z"/>
		<rect x="173.1" y="571.8" class="st7" width="53.2" height="1.6"/>
		<rect x="262.7" y="571.8" width="62.6" height="1.6"/>
		<path d="M288.8,448.1l1.4-0.8l16.7,29.7l-1.4,0.8L288.8,448.1z"/>
	</g>
</g>
</svg>
