<svg xmlns="http://www.w3.org/2000/svg" viewBox="0 0 329.1 500"><path d="M164.965 495.814c79.9-39.2 67.7-112.1 54.8-244.7-9.2-125.5 31.7-195.3 109.3-201-53.6 28.9-69.1 104.4-55.7 217.2 21.8 178.8-16.4 229.5-108.4 232.6v-4.1zm0-252.6c9.4-13.8 17.6-28.3 24.4-43.5-.7 85.3 2.8 107.2 7.1 141.7 8.5 54-8.6 100.1-31.5 126.1v-224.3zm0-222.2c31.8 37.4 32.7 91.9 0 158.5v-158.5z" fill="#fff"/><path d="M155.565 500.014c3.2-1.4 6.4-2.8 9.4-4.3v4.1c-3 .1-6.2.2-9.4.2zm-30.6-9.8c-2.3 0-4.6-.3-6.8-.8-9-1.4-17.4-5.4-24.1-11.6-3.4-3.1-6.4-6.7-8.9-10.6-2.7-4.2-4.9-8.6-6.7-13.2-3.6-10-5.7-20.4-5.9-31-.4-12.2.8-24.5 3.6-36.4 6.2-27.3 19.7-54.1 39.2-77.8 4.1-5.4 8.5-10.9 12.7-16.2 12.5-15.9 25.4-32.4 36.9-49.6v224.3c-3 3.5-6.3 6.7-9.8 9.7-3.2 2.7-6.6 5.1-10.2 7.2-3.2 1.9-6.6 3.3-10.2 4.4-3.1 1.1-6.4 1.6-9.8 1.6zm-58.2-13.5c-18.9-11.1-33.2-22.1-43.6-33.8-5.3-5.9-9.9-12.4-13.6-19.3-1.8-3.4-3.3-6.9-4.6-10.5-1.3-3.6-2.3-7.4-3.1-11.2-4.4-21.6-.4-46.6 12.1-76.4 12.8-30.5 34.7-66.4 67-109.6 8.6-11.4 16.5-22.6 23.5-33.3 7.1-10.8 13.6-21.4 19.2-31.5 5.7-10.2 10.7-20.2 14.8-29.7 4-9.1 7.4-18.4 10.3-27.9 2.5-8.5 4.4-17.3 5.6-26.1 1-8.1 1.3-16.2.7-24.3-.5-7.6-2-15.1-4.2-22.4-2.3-7.2-5.4-14.1-9.3-20.5 8.7 5.9 16.6 12.9 23.5 20.9v158.6c-8.6 17.2-18.3 33.9-29.2 49.8-3.5 4.9-7 9.7-10.4 14.3l-.1.1c-18.9 26-35.2 48.5-48.6 69.4-14.7 22.9-24.2 41.3-29.9 57.9-3 8.6-5.1 17.5-6.1 26.6-.5 4.3-.6 8.7-.5 13 .1 4.3.6 8.7 1.3 13 3 17.2 11.2 34.7 25.2 52.9z" fill="#e52a7e"/></svg>