<?xml version="1.0" encoding="utf-8"?>
<!-- Generator: Adobe Illustrator 24.1.0, SVG Export Plug-In . SVG Version: 6.00 Build 0)  -->
<svg version="1.1" id="katman_1" xmlns="http://www.w3.org/2000/svg" xmlns:xlink="http://www.w3.org/1999/xlink" x="0px" y="0px"
	 viewBox="0 0 329.1 500" style="enable-background:new 0 0 329.1 500;" xml:space="preserve">
<style type="text/css">
	.hamidiye0{fill:#FFFFFF;}
	.hamidiye1{fill:#E52A7E;}
</style>
<g transform="translate(-794.535 -278.286)">
	<path class="hamidiye0" d="M959.5,774.1c79.9-39.2,67.7-112.1,54.8-244.7c-9.2-125.5,31.7-195.3,109.3-201
		c-53.6,28.9-69.1,104.4-55.7,217.2c21.8,178.8-16.4,229.5-108.4,232.6V774.1z M959.5,521.5c9.4-13.8,17.6-28.3,24.4-43.5
		c-0.7,85.3,2.8,107.2,7.1,141.7c8.5,54-8.6,100.1-31.5,126.1L959.5,521.5z M959.5,299.3c31.8,37.4,32.7,91.9,0,158.5V299.3z"/>
	<path class="hamidiye1" d="M950.1,778.3L950.1,778.3c3.2-1.4,6.4-2.8,9.4-4.3v4.1C956.5,778.2,953.3,778.3,950.1,778.3z M919.5,768.5
		L919.5,768.5c-2.3,0-4.6-0.3-6.8-0.8c-9-1.4-17.4-5.4-24.1-11.6c-3.4-3.1-6.4-6.7-8.9-10.6c-2.7-4.2-4.9-8.6-6.7-13.2
		c-3.6-10-5.7-20.4-5.9-31c-0.4-12.2,0.8-24.5,3.6-36.4c6.2-27.3,19.7-54.1,39.2-77.8c4.1-5.4,8.5-10.9,12.7-16.2
		c12.5-15.9,25.4-32.4,36.9-49.6v224.3c-3,3.5-6.3,6.7-9.8,9.7c-3.2,2.7-6.6,5.1-10.2,7.2c-3.2,1.9-6.6,3.3-10.2,4.4
		C926.2,768,922.9,768.5,919.5,768.5L919.5,768.5z M861.3,755c-18.9-11.1-33.2-22.1-43.6-33.8c-5.3-5.9-9.9-12.4-13.6-19.3
		c-1.8-3.4-3.3-6.9-4.6-10.5c-1.3-3.6-2.3-7.4-3.1-11.2c-4.4-21.6-0.4-46.6,12.1-76.4c12.8-30.5,34.7-66.4,67-109.6
		c8.6-11.4,16.5-22.6,23.5-33.3c7.1-10.8,13.6-21.4,19.2-31.5c5.7-10.2,10.7-20.2,14.8-29.7c4-9.1,7.4-18.4,10.3-27.9
		c2.5-8.5,4.4-17.3,5.6-26.1c1-8.1,1.3-16.2,0.7-24.3c-0.5-7.6-2-15.1-4.2-22.4c-2.3-7.2-5.4-14.1-9.3-20.5
		c8.7,5.9,16.6,12.9,23.5,20.9v158.6c-8.6,17.2-18.3,33.9-29.2,49.8c-3.5,4.9-7,9.7-10.4,14.3l-0.1,0.1l0,0
		c-18.9,26-35.2,48.5-48.6,69.4c-14.7,22.9-24.2,41.3-29.9,57.9c-3,8.6-5.1,17.5-6.1,26.6c-0.5,4.3-0.6,8.7-0.5,13
		c0.1,4.3,0.6,8.7,1.3,13C839.1,719.3,847.3,736.8,861.3,755L861.3,755z"/>
</g>
</svg>
