<svg xmlns="http://www.w3.org/2000/svg" viewBox="0 0 330.6 500"><g transform="translate(38.767 91.184)"><linearGradient id="a" gradientUnits="userSpaceOnUse" x1="-829.687" y1="699.359" x2="-829.339" y2="698.029" gradientTransform="matrix(291.654 0 0 -391.2755 242087.203 273531.844)"><stop offset="0" stop-color="#d09318"/><stop offset="1" stop-color="#c3922e"/></linearGradient><path d="M244.2 0c35.3 13.2 47.4 16.8 47.4 16.8s-.5 2.7-1.7 7.1c-11 39.5-254.7-19-159.4 250.4.2 3.4 3.1 68.4-9.1 95.6-11.1 24.7-36.8 16.8-36.3 20.9C12.6 403.6 5.5 141.2 0 74.8 0 56.5 115.1 0 133.4 0h110.8z" fill="url(#a)"/></g><linearGradient id="b" gradientUnits="userSpaceOnUse" x1="-791.294" y1="790.504" x2="-790.896" y2="789.504" gradientTransform="matrix(330.6133 0 0 -499.9996 261714.547 395210.656)"><stop offset="0" stop-color="#f2b231"/><stop offset="1" stop-color="#eba10c"/></linearGradient><path d="M.4 229.7C-3.3 174 18 52 61.6 0c0 0-27.4 91.3-17.2 140.4 0 0 159.8-139.4 286.2-32.2 0 0-283-102.4-261.3 205.1C86.5 557.2 174 449 169.2 365.2c0 0 25.3 83.4-6.9 118.8-9.9 10.4-23.6 16.1-37.9 15.9-45.5.1-109.9-55.5-124-270.2zm56.1-167c0-16.1 13.1-29.2 29.2-29.2s29.2 13.1 29.2 29.2-13.1 29.2-29.2 29.2c-16.1.1-29.2-13-29.2-29.2z" fill="url(#b)"/></svg>