<?xml version="1.0" encoding="utf-8"?>
<!-- Generator: Adobe Illustrator 24.1.0, SVG Export Plug-In . SVG Version: 6.00 Build 0)  -->
<svg version="1.1" id="katman_1" xmlns="http://www.w3.org/2000/svg" xmlns:xlink="http://www.w3.org/1999/xlink" x="0px" y="0px"
	 viewBox="0 0 330.6 500" style="enable-background:new 0 0 330.6 500;" xml:space="preserve">
<style type="text/css">
	.st0{fill:url(#SVGID_1_);}
	.st1{fill:url(#SVGID_2_);}
</style>
<g transform="translate(-474.591 -520.232)">
	<g transform="translate(513.358 611.416)">
		
			<linearGradient id="SVGID_1_" gradientUnits="userSpaceOnUse" x1="-829.6873" y1="699.3591" x2="-829.3392" y2="698.0291" gradientTransform="matrix(291.654 0 0 -391.2755 242087.2031 273531.8438)">
			<stop  offset="0" style="stop-color:#D09318"/>
			<stop  offset="1" style="stop-color:#C3922E"/>
		</linearGradient>
		<path class="st0" d="M244.2,0c35.3,13.2,47.4,16.8,47.4,16.8s-0.5,2.7-1.7,7.1c-11,39.5-254.7-19-159.4,250.4
			c0.2,3.4,3.1,68.4-9.1,95.6c-11.1,24.7-36.8,16.8-36.3,20.9C12.6,403.6,5.5,141.2,0,74.8C0,56.5,115.1,0,133.4,0L244.2,0z"/>
	</g>
	<g transform="translate(474.591 520.232)">
		
			<linearGradient id="SVGID_2_" gradientUnits="userSpaceOnUse" x1="-791.2941" y1="790.5044" x2="-790.8961" y2="789.5044" gradientTransform="matrix(330.6133 0 0 -499.9996 261714.5469 395210.6562)">
			<stop  offset="0" style="stop-color:#F2B231"/>
			<stop  offset="1" style="stop-color:#EBA10C"/>
		</linearGradient>
		<path class="st1" d="M0.4,229.7C-3.3,174,18,52,61.6,0c0,0-27.4,91.3-17.2,140.4c0,0,159.8-139.4,286.2-32.2
			c0,0-283-102.4-261.3,205.1C86.5,557.2,174,449,169.2,365.2c0,0,25.3,83.4-6.9,118.8c-9.9,10.4-23.6,16.1-37.9,15.9
			C78.9,500,14.5,444.4,0.4,229.7z M56.5,62.7c0-16.1,13.1-29.2,29.2-29.2c16.1,0,29.2,13.1,29.2,29.2c0,16.1-13.1,29.2-29.2,29.2
			C69.6,92,56.5,78.9,56.5,62.7C56.5,62.7,56.5,62.7,56.5,62.7L56.5,62.7z"/>
	</g>
</g>
</svg>
