<svg xmlns="http://www.w3.org/2000/svg" viewBox="0 0 469 250"><path d="M388.036 228.349l-59.8-100.7-62 99.2c-2.5 3.9-5.6 7.5-9.1 10.4-2.4 2.4-5.2 4.5-8.1 6.3-4.4 2.6-9.2 4.4-14.2 5.4v-136l54.8-87.6c5.1-10.9 14.5-19.2 25.9-22.9.4-.1.9-.2 1.3-.4.8-.2 1.5-.5 2.3-.6 11.4-2.8 23.5-.9 33.4 5.3 7.7 4.8 13.6 11.9 17.1 20.2l93.3 157c12.3 20.7 5.5 47.4-15.1 59.7-20.8 12.1-47.5 5.3-59.8-15.3z" fill="#fff"/><path d="M43.836 250.049c-5.9 0-11.7-1.2-17-3.5-5.2-2.2-9.9-5.5-13.9-9.5-17.1-17.4-17.1-45.3 0-62.6 4-4 8.7-7.3 13.9-9.5 10.9-4.6 23.2-4.6 34.1 0 5.2 2.2 9.9 5.5 13.9 9.5 17.1 17.4 17.1 45.3 0 62.6-4 4-8.7 7.3-13.9 9.5-5.5 2.3-11.3 3.5-17.1 3.5zm182.9-.4c-7.4 0-14.7-1.9-21.2-5.5-6.7-3.7-12.3-9.2-16.2-15.8l-96.5-162.4c-12.3-20.6-5.6-47.4 15.1-59.7 6.7-4 14.4-6.1 22.3-6.1 7.4 0 14.7 1.9 21.2 5.5 6.7 3.7 12.3 9.2 16.2 15.8l60.6 101.9 6.6-10.5v136c-2.7.5-5.4.8-8.1.8z" fill="#225cff"/></svg>