<?xml version="1.0" encoding="utf-8"?>
<!-- Generator: Adobe Illustrator 24.1.0, SVG Export Plug-In . SVG Version: 6.00 Build 0)  -->
<svg version="1.1" id="katman_1" xmlns="http://www.w3.org/2000/svg" xmlns:xlink="http://www.w3.org/1999/xlink" x="0px" y="0px"
	 viewBox="0 0 469 250" style="enable-background:new 0 0 469 250;" xml:space="preserve">
<style type="text/css">
	.st0{fill:#FFFFFF;}
	.st1{fill:#225CFF;}
</style>
<g transform="translate(-724.764 -414.851)">
	<path class="st0" d="M1112.8,643.2L1053,542.5l-62,99.2c-2.5,3.9-5.6,7.5-9.1,10.4c-2.4,2.4-5.2,4.5-8.1,6.3
		c-4.4,2.6-9.2,4.4-14.2,5.4v-136l54.8-87.6c5.1-10.9,14.5-19.2,25.9-22.9c0.4-0.1,0.9-0.2,1.3-0.4c0.8-0.2,1.5-0.5,2.3-0.6
		c11.4-2.8,23.5-0.9,33.4,5.3l0,0c7.7,4.8,13.6,11.9,17.1,20.2l93.3,157c12.3,20.7,5.5,47.4-15.1,59.7
		C1151.8,670.6,1125.1,663.8,1112.8,643.2L1112.8,643.2L1112.8,643.2z"/>
	<path class="st1" d="M768.6,664.9c-5.9,0-11.7-1.2-17-3.5c-5.2-2.2-9.9-5.5-13.9-9.5c-17.1-17.4-17.1-45.3,0-62.6
		c4-4,8.7-7.3,13.9-9.5c10.9-4.6,23.2-4.6,34.1,0c5.2,2.2,9.9,5.5,13.9,9.5c17.1,17.4,17.1,45.3,0,62.6c-4,4-8.7,7.3-13.9,9.5
		C780.2,663.7,774.4,664.9,768.6,664.9z M951.5,664.5c-7.4,0-14.7-1.9-21.2-5.5c-6.7-3.7-12.3-9.2-16.2-15.8l-96.5-162.4
		c-12.3-20.6-5.6-47.4,15.1-59.7c6.7-4,14.4-6.1,22.3-6.1c7.4,0,14.7,1.9,21.2,5.5c6.7,3.7,12.3,9.2,16.2,15.8L953,538.2l6.6-10.5
		v136C956.9,664.2,954.2,664.5,951.5,664.5L951.5,664.5z"/>
</g>
</svg>
