<?xml version="1.0" encoding="utf-8"?>
<!-- Generator: Adobe Illustrator 24.1.0, SVG Export Plug-In . SVG Version: 6.00 Build 0)  -->
<svg version="1.1" id="katman_1" xmlns="http://www.w3.org/2000/svg" xmlns:xlink="http://www.w3.org/1999/xlink" x="0px" y="0px"
	 viewBox="0 0 500 500" style="enable-background:new 0 0 500 500;" xml:space="preserve">
<style type="text/css">
	.st0{fill:#FFFFFF;}
	.st1{fill:#F60569;}
</style>
<g transform="translate(-709.5 -289.5)">
	<path class="st0" d="M959.5,789.5V635.2l0,0c6.5,0,12.9-0.7,19.3-1.9c6.2-1.3,12.2-3.1,18-5.6c5.7-2.4,11.1-5.4,16.3-8.8
		c5.1-3.4,9.8-7.3,14.2-11.7c4.3-4.3,8.3-9.1,11.7-14.2c3.3-4.9,6.1-10.1,8.5-15.5c0.1-0.3,0.2-0.6,0.3-0.8c0.2-0.4,0.3-0.8,0.5-1.2
		c2.2-5.4,3.9-11.1,5.1-16.8c1.3-6.3,1.9-12.8,1.9-19.3c0-6.5-0.7-12.9-1.9-19.3c-1.3-6.2-3.1-12.2-5.6-18
		c-2.4-5.7-5.4-11.1-8.8-16.3c-3.4-5.1-7.3-9.8-11.7-14.2c-4.3-4.3-9.1-8.3-14.2-11.7c-5.1-3.5-10.6-6.4-16.3-8.8
		c-5.8-2.4-11.8-4.3-18-5.6c-6.3-1.3-12.8-1.9-19.3-1.9l0,0V289.5l0,0c21.5,0,42.8,2.7,63.6,8.2c20.1,5.3,39.4,13,57.5,23.1v298.8h0
		c0,1.7,0.4,3.3,0.9,4.9c1.1,3.1,3.1,5.8,5.8,7.7c2.7,2,6,3,9.4,3c4.2,0,8.2-1.6,11.2-4.6c3-2.9,4.8-6.9,4.9-11.1h0V342
		c14.7,11.4,28.1,24.5,39.9,38.9c11.9,14.5,22.1,30.2,30.5,46.9c8.5,17,15,34.9,19.4,53.4c4.5,19.1,6.8,38.7,6.8,58.3
		c0,16.9-1.7,33.8-5.1,50.4c-3.3,16.1-8.2,31.8-14.6,46.9c-6.3,14.9-14,29.1-23,42.5c-9,13.3-19.2,25.7-30.5,37
		c-11.3,11.3-23.7,21.6-37,30.5c-13.4,9-27.6,16.8-42.5,23.1c-15.1,6.4-30.8,11.3-46.9,14.6C993.3,787.8,976.4,789.5,959.5,789.5z
		 M959.5,602V477l0,0c8.4,0,16.6,1.7,24.3,4.9c3.7,1.6,7.3,3.5,10.6,5.8c3.3,2.2,6.4,4.8,9.2,7.6c2.8,2.8,5.4,5.9,7.6,9.2
		c2.3,3.3,4.2,6.9,5.8,10.6c3.3,7.7,4.9,16,4.9,24.3c0,8.4-1.7,16.6-4.9,24.3c-1.6,3.7-3.5,7.3-5.8,10.6c-2.2,3.3-4.8,6.4-7.6,9.2
		c-2.8,2.8-5.9,5.4-9.2,7.6c-3.3,2.3-6.9,4.2-10.6,5.8C976.1,600.3,967.9,602,959.5,602z"/>
	<path class="st1" d="M959.5,789.5L959.5,789.5c-21.8,0-43.6-2.8-64.7-8.4c-20.4-5.5-40-13.5-58.4-23.9V459.4h0
		c-0.1-4.2-1.9-8.2-4.9-11.1c-3-2.9-7-4.6-11.2-4.6c-4.2,0-8.2,1.6-11.2,4.6c-3,2.9-4.8,6.9-4.9,11.1h0v276
		c-14.4-11.5-27.6-24.5-39.2-38.8c-11.6-14.4-21.7-30-29.9-46.6c-8.3-16.9-14.7-34.6-19-52.9c-4.4-18.9-6.7-38.3-6.7-57.7
		c0-16.9,1.7-33.8,5.1-50.4c3.3-16.1,8.2-31.8,14.6-46.9c6.3-14.9,14-29.1,23.1-42.5c9-13.3,19.2-25.7,30.5-37
		c11.3-11.3,23.7-21.6,37-30.5c13.4-9,27.6-16.8,42.5-23.1c15.1-6.4,30.8-11.3,46.9-14.6c16.6-3.4,33.5-5.1,50.4-5.1v154.3h0
		c-6.5,0-12.9,0.6-19.3,1.9c-6.2,1.3-12.2,3.1-18,5.6c-5.7,2.4-11.1,5.4-16.3,8.8c-5.1,3.4-9.8,7.4-14.2,11.7
		c-4.3,4.3-8.3,9.1-11.7,14.2c-2.9,4.2-5.4,8.7-7.5,13.4c-0.4,1-0.9,1.9-1.3,2.9c-0.1,0.3-0.2,0.5-0.3,0.8
		c-2.3,5.6-4.1,11.3-5.3,17.2c-1.3,6.3-1.9,12.8-1.9,19.3c0,6.5,0.6,12.9,1.9,19.3c1.3,6.2,3.1,12.2,5.6,18
		c2.4,5.7,5.4,11.1,8.8,16.3c3.4,5.1,7.3,9.8,11.7,14.2c4.3,4.3,9.1,8.3,14.2,11.7c5.1,3.5,10.6,6.4,16.3,8.8
		c5.8,2.4,11.8,4.3,18,5.6c6.3,1.3,12.8,1.9,19.3,1.9V789.5L959.5,789.5z M959.5,602L959.5,602c-8.4,0-16.6-1.7-24.3-4.9
		c-3.7-1.6-7.3-3.5-10.6-5.8c-3.3-2.2-6.4-4.8-9.3-7.6c-2.8-2.8-5.4-5.9-7.6-9.2c-2.3-3.3-4.2-6.9-5.8-10.6
		c-3.3-7.7-4.9-16-4.9-24.3c0-8.4,1.7-16.6,4.9-24.3c1.6-3.7,3.5-7.3,5.8-10.6c2.2-3.3,4.8-6.4,7.6-9.2c2.8-2.8,5.9-5.4,9.2-7.6
		c3.3-2.3,6.9-4.2,10.6-5.8c7.7-3.3,16-4.9,24.3-4.9V602z"/>
</g>
</svg>
