<svg xmlns="http://www.w3.org/2000/svg" viewBox="0 0 500 500"><path d="M250 500V345.7c6.5 0 12.9-.7 19.3-1.9 6.2-1.3 12.2-3.1 18-5.6 5.7-2.4 11.1-5.4 16.3-8.8 5.1-3.4 9.8-7.3 14.2-11.7 4.3-4.3 8.3-9.1 11.7-14.2 3.3-4.9 6.1-10.1 8.5-15.5.1-.3.2-.6.3-.8.2-.4.3-.8.5-1.2 2.2-5.4 3.9-11.1 5.1-16.8 1.3-6.3 1.9-12.8 1.9-19.3s-.7-12.9-1.9-19.3c-1.3-6.2-3.1-12.2-5.6-18-2.4-5.7-5.4-11.1-8.8-16.3-3.4-5.1-7.3-9.8-11.7-14.2-4.3-4.3-9.1-8.3-14.2-11.7-5.1-3.5-10.6-6.4-16.3-8.8-5.8-2.4-11.8-4.3-18-5.6-6.3-1.3-12.8-1.9-19.3-1.9V0c21.5 0 42.8 2.7 63.6 8.2 20.1 5.3 39.4 13 57.5 23.1v298.8c0 1.7.4 3.3.9 4.9 1.1 3.1 3.1 5.8 5.8 7.7 2.7 2 6 3 9.4 3 4.2 0 8.2-1.6 11.2-4.6 3-2.9 4.8-6.9 4.9-11.1V52.5C418 63.9 431.4 77 443.2 91.4c11.9 14.5 22.1 30.2 30.5 46.9 8.5 17 15 34.9 19.4 53.4 4.5 19.1 6.8 38.7 6.8 58.3 0 16.9-1.7 33.8-5.1 50.4-3.3 16.1-8.2 31.8-14.6 46.9-6.3 14.9-14 29.1-23 42.5-9 13.3-19.2 25.7-30.5 37s-23.7 21.6-37 30.5c-13.4 9-27.6 16.8-42.5 23.1-15.1 6.4-30.8 11.3-46.9 14.6-16.5 3.3-33.4 5-50.3 5zm0-187.5v-125c8.4 0 16.6 1.7 24.3 4.9 3.7 1.6 7.3 3.5 10.6 5.8 3.3 2.2 6.4 4.8 9.2 7.6 2.8 2.8 5.4 5.9 7.6 9.2 2.3 3.3 4.2 6.9 5.8 10.6 3.3 7.7 4.9 16 4.9 24.3 0 8.4-1.7 16.6-4.9 24.3-1.6 3.7-3.5 7.3-5.8 10.6-2.2 3.3-4.8 6.4-7.6 9.2-2.8 2.8-5.9 5.4-9.2 7.6-3.3 2.3-6.9 4.2-10.6 5.8-7.7 3.4-15.9 5.1-24.3 5.1z" fill="#fff"/><path d="M250 500c-21.8 0-43.6-2.8-64.7-8.4-20.4-5.5-40-13.5-58.4-23.9V169.9c-.1-4.2-1.9-8.2-4.9-11.1-3-2.9-7-4.6-11.2-4.6-4.2 0-8.2 1.6-11.2 4.6-3 2.9-4.8 6.9-4.9 11.1v276c-14.4-11.5-27.6-24.5-39.2-38.8-11.6-14.4-21.7-30-29.9-46.6-8.3-16.9-14.7-34.6-19-52.9-4.4-18.9-6.7-38.3-6.7-57.7 0-16.9 1.7-33.8 5.1-50.4 3.3-16.1 8.2-31.8 14.6-46.9 6.3-14.9 14-29.1 23.1-42.5 9-13.3 19.2-25.7 30.5-37s23.7-21.6 37-30.5c13.4-9 27.6-16.8 42.5-23.1 15.1-6.4 30.8-11.3 46.9-14.6C216.2 1.5 233.1-.2 250-.2v154.3c-6.5 0-12.9.6-19.3 1.9-6.2 1.3-12.2 3.1-18 5.6-5.7 2.4-11.1 5.4-16.3 8.8-5.1 3.4-9.8 7.4-14.2 11.7-4.3 4.3-8.3 9.1-11.7 14.2-2.9 4.2-5.4 8.7-7.5 13.4-.4 1-.9 1.9-1.3 2.9-.1.3-.2.5-.3.8-2.3 5.6-4.1 11.3-5.3 17.2-1.3 6.3-1.9 12.8-1.9 19.3s.6 12.9 1.9 19.3c1.3 6.2 3.1 12.2 5.6 18 2.4 5.7 5.4 11.1 8.8 16.3 3.4 5.1 7.3 9.8 11.7 14.2 4.3 4.3 9.1 8.3 14.2 11.7 5.1 3.5 10.6 6.4 16.3 8.8 5.8 2.4 11.8 4.3 18 5.6 6.3 1.3 12.8 1.9 19.3 1.9V500zm0-187.5c-8.4 0-16.6-1.7-24.3-4.9-3.7-1.6-7.3-3.5-10.6-5.8-3.3-2.2-6.4-4.8-9.3-7.6-2.8-2.8-5.4-5.9-7.6-9.2-2.3-3.3-4.2-6.9-5.8-10.6-3.3-7.7-4.9-16-4.9-24.3 0-8.4 1.7-16.6 4.9-24.3 1.6-3.7 3.5-7.3 5.8-10.6 2.2-3.3 4.8-6.4 7.6-9.2 2.8-2.8 5.9-5.4 9.2-7.6 3.3-2.3 6.9-4.2 10.6-5.8 7.7-3.3 16-4.9 24.3-4.9v124.8z" fill="#f60569"/></svg>