<svg xmlns="http://www.w3.org/2000/svg" width="230.535" height="40"><path d="M214.326 39.978a14.247 14.247 0 01-13.915-16.054 14.233 14.233 0 0111.953-12.555 13.866 13.866 0 0113.683 6.377c.02.029.038.047.058.076a11.164 11.164 0 011.513 3.267 14.536 14.536 0 01.516 2.191c.077.432.142.869.2 1.307a17.582 17.582 0 01.151 4.365c-.02.338-.031.679-.031 1.026a10.574 10.574 0 002.082 6.775 8.966 8.966 0 01-4.4.4c-1.538-.133-2.983-.268-4.455.686-.079.047-.156.086-.236.13a13.787 13.787 0 01-3.408 1.485A11.171 11.171 0 01214.8 40a4 4 0 01-.474-.022zm-10.342-14.362a10.68 10.68 0 1021.352 0 10.68 10.68 0 10-21.352 0zM14.008 39.978A14.248 14.248 0 01.093 23.924a14.235 14.235 0 0111.953-12.555 13.867 13.867 0 0113.683 6.377c.022.029.038.047.059.076a11.212 11.212 0 011.512 3.267 14.5 14.5 0 01.516 2.191c.077.432.144.869.2 1.307a17.551 17.551 0 01.153 4.365 15.78 15.78 0 00-.031 1.026 10.574 10.574 0 002.082 6.775 8.966 8.966 0 01-4.4.4c-1.539-.133-2.984-.268-4.456.686-.081.047-.158.086-.236.13a13.817 13.817 0 01-3.408 1.485 11.175 11.175 0 01-3.24.55 4.006 4.006 0 01-.472-.026zM3.666 25.616a10.818 10.818 0 0010.678 10.953 10.816 10.816 0 0010.674-10.953 10.818 10.818 0 00-10.674-10.955A10.82 10.82 0 003.666 25.616zm145.164 3.6V2.27h3.7v9.68h16.1v3.375h-16.094v13.887c0 4.979 2.766 7.357 7.023 7.357 4.205 0 7.025-2.324 7.025-7.357V28.6h3.6v.608c0 7.193-4.315 10.787-10.62 10.787-6.364.005-10.733-3.595-10.733-10.783zm-25.5 2.378h3.77c.165 2.932 2.819 5.035 7.41 5.035 4.758 0 7.412-2.212 7.412-5.144 0-3.319-3.484-3.706-7.412-4.2-4.926-.618-10.51-1.392-10.51-7.424 0-5.144 4.038-8.631 10.453-8.631s10.343 3.542 10.453 8.188h-3.649c-.165-2.711-2.654-4.813-6.857-4.813s-6.692 2.1-6.692 4.925c0 3.375 3.539 3.762 7.41 4.259 4.259.554 10.565 1.219 10.565 7.414 0 5.2-4.369 8.8-11.173 8.8-6.75-.003-11.01-3.603-11.177-8.413zm-58.62-5.978c0-8.3 6.082-14.386 14.711-14.386s14.6 6.088 14.6 14.386v1.217h-25.5c.5 5.7 4.756 9.736 10.9 9.736 4.313 0 7.631-1.769 9.4-4.923h4.039C90.758 36.68 85.781 40 79.42 40c-8.628 0-14.71-6.086-14.71-14.384zm3.926-2.1H90.15c-.885-5.533-5.2-8.852-10.73-8.852-5.697-.003-9.954 3.484-10.784 8.849zM32.355 25.5c0-8.408 6.14-14.274 14.157-14.274 5.2 0 9.458 2.435 11.5 6.584V0a3.707 3.707 0 013.707 3.708V25.45c0 8.795-6.14 14.549-14.6 14.549C38.438 40 32.355 33.914 32.355 25.5zm3.761.112a10.513 10.513 0 0010.951 10.957c6.582 0 10.949-4.646 10.949-10.953s-4.367-10.955-10.949-10.955a10.514 10.514 0 00-10.952 10.955zM173.5 39.281V22.9c0-7.857 4.7-11.675 11.5-11.675s11.448 3.818 11.448 11.731v.331H192.8V22.9c0-5.7-3.152-8.244-7.8-8.244-4.7 0-7.8 2.545-7.8 8.244v16.381zm-56.744 0l-14.989-13v13h-3.7V0h3.7v24.176l14.487-12.226h5.2l-15.762 13.277 16.315 14.054z" fill="#fff"/></svg>