<svg xmlns="http://www.w3.org/2000/svg" width="208.406" height="40" viewBox="0 0 208.406 40"><g transform="translate(-2134.703 -1729.261)"><g transform="translate(2134.703 1729.261)"><g transform="translate(0 0)"><path d="M-21.676,287.256a7.831,7.831,0,0,1,1.886-9.433,35.717,35.717,0,0,1,6.143-3.863c1.3-.721,2.6-1.44,3.937-2.18,0,1.418,0,2.776,0,4.136,0,.385-.342.452-.583.593-2.27,1.334-4.636,2.495-6.787,4.042a3.831,3.831,0,0,0-1.326,4.83,3.541,3.541,0,0,0,3.549,2.1,3.488,3.488,0,0,0,3.136-2.492,3.822,3.822,0,0,0-.98-4.049c-.155-.146-.32-.281-.575-.5,1.077-.669,2.1-1.31,3.136-1.941.342-.209.467.131.624.32,3.476,4.134,1.489,10.829-3.638,12.271a7.346,7.346,0,0,1-1.988.276A7.317,7.317,0,0,1-21.676,287.256Zm-8.695-4.59a7.484,7.484,0,0,1-6.725-6.547c-.685-6,4.784-10.342,10.2-8.083a16.67,16.67,0,0,1,2.345,1.182c2.49,1.539,4.955,3.123,7.578,4.784-1.28.718-2.434,1.361-3.583,2.012-.34.193-.549-.079-.782-.221-2.181-1.331-4.275-2.815-6.553-3.974a3.96,3.96,0,0,0-2.284-.507,3.729,3.729,0,0,0-3.248,4.119,3.7,3.7,0,0,0,3.093,3.344,3.545,3.545,0,0,0,4.029-2.851c.162-.846.394-.8.968-.419.712.467,1.459.88,2.209,1.28.363.193.392.412.278.785a7.491,7.491,0,0,1-6.915,5.125c-.2,0-.406-.01-.608-.03Zm22.493-7.522c-.052-2.106-.009-4.215-.009-6.322h0c0-2,.007-4,0-5.995a7.3,7.3,0,0,0-7.08-7.494,7.283,7.283,0,0,0-7.238,7.251c-.057,1.667-.041,3.339-.011,5.008.013.7-.173.716-.685.386-.874-.563-1.779-1.073-2.67-1.607-.227-.136-.47-.248-.466-.593.025-2.346-.153-4.7.674-6.976a11,11,0,0,1,12.218-7.272,11.312,11.312,0,0,1,9.1,11.225c.026,4.024,0,8.048.009,12.071a3.594,3.594,0,0,0,2.827,3.815,3.538,3.538,0,0,0,4.164-2.859,3.657,3.657,0,0,0-2.759-4.313,3.409,3.409,0,0,0-1.4,0c-1.006.223-1.006.223-1.006-.841,0-.766.03-1.534-.01-2.3-.028-.544.149-.761.681-.845a7.445,7.445,0,0,1,8.3,6.423A7.624,7.624,0,0,1,.82,282.549a7.724,7.724,0,0,1-1.337.117,7.434,7.434,0,0,1-7.361-7.523Z" transform="translate(37.154 -251.365)" fill="#fff"/><g transform="translate(17.494 9.08)"><circle cx="1.92" cy="1.92" r="1.92" transform="translate(0)" fill="#fff"/><circle cx="1.92" cy="1.92" r="1.92" transform="translate(5.173)" fill="#fff"/></g></g></g><g transform="translate(2187.001 1737.528)"><g transform="translate(0 0)"><path d="M53.946,290.07h-2.69q-.5,0-.336-.588l4.427-16.842a.8.8,0,0,1,.841-.588h3.727a.754.754,0,0,1,.841.588l4.427,16.842q.168.588-.336.588h-2.69a.55.55,0,0,1-.42-.125.955.955,0,0,1-.169-.462l-.785-3.083H55.319l-.784,3.083a.875.875,0,0,1-.183.462A.56.56,0,0,1,53.946,290.07Zm4.063-14.627-2.018,8.1h4.147l-2.018-8.1Z" transform="translate(-50.878 -270.371)" fill="#fff"/><path d="M82.144,288.871H79.762a.52.52,0,0,1-.588-.588V269.76a.52.52,0,0,1,.588-.588h2.382a.52.52,0,0,1,.588.588v18.523A.52.52,0,0,1,82.144,288.871Zm5.211-14.291h2.719a.471.471,0,0,1,.448.2.484.484,0,0,1-.083.5l-3.728,6.137v.112l3.9,6.641a.435.435,0,0,1,.028.49.563.563,0,0,1-.5.21H87.72a1.536,1.536,0,0,1-.686-.112,1.276,1.276,0,0,1-.434-.476l-3.559-6.249a.911.911,0,0,1,0-.925l3.363-5.968A1.015,1.015,0,0,1,87.356,274.58Z" transform="translate(-62.655 -269.172)" fill="#fff"/><path d="M102.261,292.139V279.025q0-.588.56-.589h2.41a.52.52,0,0,1,.588.589v13.114a.644.644,0,0,1-.126.476.654.654,0,0,1-.435.112h-2.409A.52.52,0,0,1,102.261,292.139Z" transform="translate(-72.264 -273.028)" fill="#fff"/><path d="M117.326,288.871h-2.381a.52.52,0,0,1-.589-.588V269.76a.52.52,0,0,1,.589-.588h2.381a.52.52,0,0,1,.589.588v18.523A.52.52,0,0,1,117.326,288.871Z" transform="translate(-77.298 -269.172)" fill="#fff"/><path d="M129.182,288.871H126.8a.52.52,0,0,1-.589-.588V269.76a.52.52,0,0,1,.589-.588h2.381a.52.52,0,0,1,.589.588v18.523A.52.52,0,0,1,129.182,288.871Z" transform="translate(-82.233 -269.172)" fill="#fff"/><path d="M138.26,292.139V279.025q0-.588.561-.589h2.41a.52.52,0,0,1,.588.589v13.114a.647.647,0,0,1-.126.476.655.655,0,0,1-.435.112h-2.409A.52.52,0,0,1,138.26,292.139Z" transform="translate(-87.247 -273.028)" fill="#fff"/></g><g transform="translate(63.959 0)"><path d="M163.5,283.542h-2.69q-.5,0-.336-.588l4.427-16.841a.8.8,0,0,1,.84-.589h3.728a.754.754,0,0,1,.84.589l4.427,16.841q.169.589-.336.588h-2.69a.549.549,0,0,1-.42-.126.945.945,0,0,1-.168-.462l-.785-3.082h-5.464l-.785,3.082a.872.872,0,0,1-.182.462A.559.559,0,0,1,163.5,283.542Zm4.063-14.627-2.018,8.1H169.7l-2.018-8.1Z" transform="translate(-160.437 -263.843)" fill="#fff"/><path d="M191.7,282.343H189.32a.52.52,0,0,1-.588-.588V263.232a.52.52,0,0,1,.588-.588H191.7a.52.52,0,0,1,.588.588v6.333h.112a2.631,2.631,0,0,1,2.746-1.513h.9q4.4,0,4.4,4.568v9.135q0,.589-.616.588h-2.354a.52.52,0,0,1-.588-.588v-8.967a1.395,1.395,0,0,0-1.653-1.653h-1.009q-1.934,0-1.934,2.13v8.491A.52.52,0,0,1,191.7,282.343Z" transform="translate(-172.213 -262.644)" fill="#fff"/><path d="M213.145,272.453h-1.121a.71.71,0,0,1-.462-.112.6.6,0,0,1-.126-.448v-1.934a.52.52,0,0,1,.588-.588h1.121a.272.272,0,0,0,.308-.308V266.4q0-.588.617-.588h2.354a.52.52,0,0,1,.588.588v2.662c0,.206.112.308.336.308h2.186a.52.52,0,0,1,.588.588v1.934a.6.6,0,0,1-.126.434.652.652,0,0,1-.462.126h-2.186c-.224,0-.336.1-.336.308v6.193a1.676,1.676,0,0,0,.392,1.247,1.816,1.816,0,0,0,1.289.378h1.121a.52.52,0,0,1,.588.588V283.1a.6.6,0,0,1-.126.434.652.652,0,0,1-.462.126h-1.709a4.739,4.739,0,0,1-3.433-1.177,4.458,4.458,0,0,1-1.22-3.363v-6.361A.272.272,0,0,0,213.145,272.453Z" transform="translate(-181.663 -263.963)" fill="#fff"/><path d="M235.6,286.2h-.673a4.687,4.687,0,0,1-3.419-1.177,4.525,4.525,0,0,1-1.2-3.391v-5.156a4.525,4.525,0,0,1,1.2-3.391,4.688,4.688,0,0,1,3.419-1.177H241.4q.616,0,.617.588v13.114q0,.588-.617.588h-2.354a.52.52,0,0,1-.589-.588v-.925h-.111a2.125,2.125,0,0,1-1.093,1.135A3.762,3.762,0,0,1,235.6,286.2Zm2.858-5.212V275.3c0-.2-.111-.308-.336-.308h-2.633a1.711,1.711,0,0,0-1.262.378,1.808,1.808,0,0,0-.364,1.275v4.82a1.808,1.808,0,0,0,.364,1.275,1.711,1.711,0,0,0,1.262.378h1.037Q238.454,283.117,238.454,280.987Z" transform="translate(-189.514 -266.5)" fill="#fff"/><path d="M258.613,290.01h-2.382q-.588,0-.588-.56V272.5a.52.52,0,0,1,.588-.588h2.382a.52.52,0,0,1,.589.588v.925h.113a2.122,2.122,0,0,1,1.092-1.135,3.756,3.756,0,0,1,1.653-.378h1.149a4.27,4.27,0,0,1,3.265,1.177,4.767,4.767,0,0,1,1.107,3.391v5.156a4.766,4.766,0,0,1-1.107,3.391,4.27,4.27,0,0,1-3.265,1.177H262.06a3.757,3.757,0,0,1-1.653-.378,2.122,2.122,0,0,1-1.092-1.135H259.2v4.764Q259.2,290.01,258.613,290.01Zm2.522-6.893h1.233a1.394,1.394,0,0,0,1.653-1.653v-4.82a1.394,1.394,0,0,0-1.653-1.653h-1.233q-1.934,0-1.934,2.13v3.867Q259.2,283.117,261.135,283.117Z" transform="translate(-200.062 -266.5)" fill="#fff"/><path d="M287.528,286.2h-2.493a4.688,4.688,0,0,1-3.419-1.177,4.527,4.527,0,0,1-1.2-3.391v-5.156a4.527,4.527,0,0,1,1.2-3.391,4.688,4.688,0,0,1,3.419-1.177h2.493a4.664,4.664,0,0,1,3.4,1.191,4.5,4.5,0,0,1,1.219,3.377v5.156a4.5,4.5,0,0,1-1.219,3.377A4.664,4.664,0,0,1,287.528,286.2Zm-1.961-3.054H287a1.807,1.807,0,0,0,1.276-.364,1.708,1.708,0,0,0,.378-1.261v-4.932a1.711,1.711,0,0,0-.378-1.261,1.813,1.813,0,0,0-1.276-.364h-1.429a1.359,1.359,0,0,0-1.625,1.625v4.932a1.359,1.359,0,0,0,1.625,1.625Z" transform="translate(-210.371 -266.5)" fill="#fff"/><path d="M304.631,272.453H303.51a.711.711,0,0,1-.462-.112.6.6,0,0,1-.126-.448v-1.934a.52.52,0,0,1,.588-.588h1.121a.272.272,0,0,0,.308-.308V266.4q0-.588.616-.588h2.354a.52.52,0,0,1,.588.588v2.662c0,.206.112.308.336.308h2.186a.52.52,0,0,1,.588.588v1.934a.606.606,0,0,1-.126.434.653.653,0,0,1-.462.126h-2.186c-.224,0-.336.1-.336.308v6.193a1.676,1.676,0,0,0,.392,1.247,1.818,1.818,0,0,0,1.289.378H311.3a.52.52,0,0,1,.589.588V283.1a.6.6,0,0,1-.127.434.65.65,0,0,1-.462.126h-1.709a4.738,4.738,0,0,1-3.433-1.177,4.458,4.458,0,0,1-1.219-3.363v-6.361A.273.273,0,0,0,304.631,272.453Z" transform="translate(-219.74 -263.963)" fill="#fff"/></g></g></g></svg>