<svg xmlns="http://www.w3.org/2000/svg" width="223.234" height="40"><path d="M0 .441C.05.411.118.392.147.347A.84.84 0 01.938.009c1.83.007 3.66 0 5.49.007A26.629 26.629 0 019.646.08a6.855 6.855 0 014.73 2.491 5.769 5.769 0 011.095 5.5 6.566 6.566 0 01-2.71 3.475c-.172.12-.347.235-.521.352.1.171.26.187.39.252a8.5 8.5 0 012.029 1.354 5.7 5.7 0 011.361 6.454 6.528 6.528 0 01-4.073 3.813 8.994 8.994 0 01-3.161.519c-2.5 0-4.991-.007-7.486.007a1.47 1.47 0 01-1.3-.448zm3.6 16.921v3.13c0 .106.006.212 0 .317-.011.195.081.277.27.266h5.039a3.391 3.391 0 00.987-.129 3.532 3.532 0 002.6-2.754 3.3 3.3 0 00-1.313-3.568 4.579 4.579 0 00-2.835-.943c-1.437-.008-2.875 0-4.313 0-.435 0-.438 0-.439.46l.005 3.222zm2.739-14.03H3.981c-.339 0-.35.009-.35.312q-.005 3.284 0 6.569c0 .313.012.322.344.325.589.007 1.179 0 1.768 0 1 0 2 .017 2.992-.028a3.082 3.082 0 002.493-1.444 3.744 3.744 0 00.633-1.957 3.344 3.344 0 00-3.572-3.784c-.648.026-1.299.008-1.949.008zm7.555 36.667a.473.473 0 00-.256-.079 3.044 3.044 0 01-2.7-2.9 3.585 3.585 0 01.3-1.859 3.107 3.107 0 013.025-1.852 3.127 3.127 0 013.074 1.995 3.578 3.578 0 01-.792 3.855 3.029 3.029 0 01-1.53.742.818.818 0 00-.39.1zm.383-1.162a1.909 1.909 0 001.946-1.331 2.652 2.652 0 00.08-1.429 1.973 1.973 0 00-2.03-1.651 1.978 1.978 0 00-2.074 1.654 2.11 2.11 0 002.078 2.756zm151.185 1.162c-.119-.12-.284-.084-.427-.117a2.386 2.386 0 01-1.644-1.174c-.152-.276-.144-.294.134-.448.053-.029.107-.056.162-.081a1.515 1.515 0 01.533-.229c.18 0 .221.259.351.384a2.207 2.207 0 001.805.547 1.821 1.821 0 00.656-.166.822.822 0 00.531-.774.763.763 0 00-.548-.706 3.554 3.554 0 00-1.014-.223 4.831 4.831 0 01-1.529-.393 1.556 1.556 0 01-.934-1.392 1.533 1.533 0 01.77-1.534 3.532 3.532 0 013.509-.047 1.632 1.632 0 01.622.584c.153.237.145.267-.114.411-.092.051-.2.084-.283.142a.494.494 0 01-.7-.059 1.989 1.989 0 00-2.009-.317.934.934 0 00-.24.125.626.626 0 00.088 1.148 3.205 3.205 0 001.01.238 6.087 6.087 0 011.286.259 1.737 1.737 0 011.328 1.692 1.883 1.883 0 01-1.214 1.845c-.305.136-.646.139-.945.286zm-129.591 0c-.12-.119-.284-.083-.427-.118a2.407 2.407 0 01-1.62-1.14c-.174-.3-.169-.319.124-.484a2.209 2.209 0 01.2-.1c.165-.071.311-.233.491-.207s.2.244.318.363a2.037 2.037 0 001.3.574 2.15 2.15 0 001.237-.2.779.779 0 00.476-.76.756.756 0 00-.522-.676 3.232 3.232 0 00-1.012-.233 5.327 5.327 0 01-1.324-.3 1.6 1.6 0 01-1.157-1.471 1.611 1.611 0 011.025-1.7 3.664 3.664 0 013.036-.012 1.947 1.947 0 01.877.762c.08.124.079.223-.067.294a2.4 2.4 0 00-.322.166.557.557 0 01-.785-.054 1.993 1.993 0 00-1.974-.3.9.9 0 00-.381.24.605.605 0 00.144.994 2.922 2.922 0 001.091.281 5.633 5.633 0 011.413.31 1.693 1.693 0 011.19 1.826 1.779 1.779 0 01-.965 1.538 7.831 7.831 0 01-1.189.409zm11.443 0a.779.779 0 00-.393-.087 2.55 2.55 0 01-2.314-2.4c-.053-.646-.026-1.3-.03-1.949 0-.589-.005-1.179 0-1.769 0-.319.015-.335.338-.332 1.056.009.865-.142.878.836.012.862 0 1.724 0 2.585 0 .136 0 .273.011.408a1.6 1.6 0 002.062 1.518 1.465 1.465 0 001.145-1.357 5.852 5.852 0 00.016-.634v-2.993c0-.352.01-.366.354-.362 1.03.01.856-.147.868.85.01.892 0 1.784 0 2.676a5.64 5.64 0 01-.034.679 2.473 2.473 0 01-2.244 2.254.812.812 0 00-.394.084zm-44.045 0a.5.5 0 00-.257-.078 3.118 3.118 0 01-2.789-3.592 3 3 0 011.938-2.732 3.461 3.461 0 013.6.464c.263.206.258.222.04.45a1.281 1.281 0 01-.065.063 1.989 1.989 0 01-.475.413c-.222.093-.359-.169-.54-.26a2.412 2.412 0 00-2.634.311A2.342 2.342 0 001.61 37.6a2.148 2.148 0 002.5 1.167 2.5 2.5 0 00.911-.392c.269-.189.273-.185.511.051.086.085.168.174.253.26.35.355.351.357-.071.654a3.25 3.25 0 01-1.417.571.535.535 0 00-.3.086zm96.989 0a.625.625 0 00-.3-.082 3.13 3.13 0 01-2.747-3.629 3.013 3.013 0 011.932-2.692 3.493 3.493 0 013.567.435c.322.241.321.253.016.53-.167.152-.289.39-.508.438s-.357-.19-.544-.283a2.182 2.182 0 00-3.25 1.81 1.976 1.976 0 00.99 2 2.383 2.383 0 002.467-.07c.407-.238.4-.246.725.072l.162.159c.356.353.357.355-.065.656a3.312 3.312 0 01-1.372.567c-.116.02-.245 0-.342.093zm109.068 0c-.1-.1-.225-.073-.341-.092a2.989 2.989 0 01-2.616-2.63 3.276 3.276 0 011.229-3.31 3.6 3.6 0 014.238.065c.3.239.3.241.033.511a.981.981 0 01-.065.064 1.847 1.847 0 01-.443.381c-.206.086-.335-.153-.5-.241a2.415 2.415 0 00-2.674.295 2.35 2.35 0 00-.452 2.605 2.158 2.158 0 002.485 1.121 2.233 2.233 0 00.979-.453.214.214 0 01.345.021c.156.165.316.327.485.477s.129.267-.034.4a3.422 3.422 0 01-1.51.693c-.116.023-.246 0-.34.1zM32.456 8.695c-.078.457-.147.853-.212 1.25q-.765 4.721-1.528 9.443-.332 2.059-.66 4.118c-.024.149-.044.3-.074.448a.633.633 0 01-.641.587c-.772.016-1.544.022-2.315 0-.487-.015-.673-.318-.574-.866.123-.684.256-1.366.382-2.05l1.956-10.611Q29.72 5.976 30.656.94a1.015 1.015 0 011.542-.742.849.849 0 01.369.5q.866 2.119 1.735 4.238l5.2 12.714a.937.937 0 00.206.394c.184-.064.193-.235.246-.365q1.852-4.533 3.7-9.069L46.868.715c.1-.236.168-.509.473-.559a1.6 1.6 0 011.065.067.825.825 0 01.368.645c.23 1.279.471 2.556.705 3.834q1.029 5.619 2.055 11.238l1.4 7.625c.148.807 0 .988-.811.99h-1.861c-.548 0-.772-.189-.862-.724q-.361-2.146-.712-4.294L46.942 8.982c-.012-.074-.019-.152-.112-.2-.143.1-.163.275-.221.422q-2.957 7.533-5.909 15.069c-.228.581-.287.619-.9.623-.849.005-.851.006-1.158-.774q-2.944-7.47-5.881-14.937a.859.859 0 00-.305-.49zm125.261.077c-.152.08-.158.246-.21.378q-2.642 6.732-5.277 13.467c-.226.577-.462 1.15-.671 1.733a.731.731 0 01-.776.549c-.945 0-.944.014-1.287-.858q-2.921-7.426-5.845-14.852a1.374 1.374 0 00-.227-.457c-.178.114-.148.3-.172.445-.229 1.387-.449 2.775-.672 4.163q-.834 5.193-1.67 10.385a1.585 1.585 0 01-.106.438.707.707 0 01-.711.387c-.681-.007-1.362 0-2.043 0-.6-.008-.815-.264-.71-.872.169-.983.355-1.963.537-2.944l1.24-6.686q1-5.371 1.991-10.743c.154-.832.3-1.666.461-2.5a.73.73 0 01.844-.7h.272a.723.723 0 01.729.5c.322.815.662 1.623.994 2.434q2.98 7.28 5.963 14.56c.061.149.084.325.239.435.175-.082.185-.265.244-.41q2.665-6.528 5.324-13.058c.53-1.3 1.071-2.6 1.583-3.908a.747.747 0 01.82-.555h.227a.744.744 0 01.837.708c.17.906.332 1.814.5 2.72l1.913 10.435q.862 4.7 1.721 9.41c.025.134.048.268.065.4.071.554-.095.744-.665.762h-2.043a.733.733 0 01-.856-.729q-.634-3.8-1.262-7.6l-1.188-7.156c-.016-.094-.003-.21-.113-.281zm47.974 3.721V1.197c.015-.512.238-.729.763-.742h9.354a7.4 7.4 0 017.08 5.189 6.987 6.987 0 01-1.927 7.362 8.042 8.042 0 01-2.433 1.641c-.387.173-.406.147-.19.545l3.838 7.1.623 1.158a.882.882 0 01.13.519.565.565 0 01-.554.559 85.21 85.21 0 01-2.86.006c-.307 0-.476-.225-.6-.483-.382-.772-.77-1.542-1.155-2.313-1.035-2.068-2.077-4.134-3.1-6.209a.619.619 0 00-.65-.414c-1.422.02-2.845.007-4.268.009-.44 0-.445 0-.445.455v7.893c0 .928-.146 1.071-1.085 1.071h-1.68c-.637 0-.836-.205-.836-.85q-.006-5.597-.005-11.2zm3.658-4.521v3.719c0 .425.006.43.427.431h5.584a4.472 4.472 0 001.254-.176 4.176 4.176 0 002.363-6.191 4.156 4.156 0 00-3.638-1.949c-1.846-.018-3.692-.005-5.538 0-.447 0-.451 0-.452.451v3.715zm-32.2 4.51c0-3.673.01-7.347-.008-11.02 0-.741.209-1.018 1.011-1.015 4.373.018 8.746.008 13.118.009.121 0 .243-.007.363 0a.619.619 0 01.625.642q.02 1 0 2a.6.6 0 01-.629.632c-.135.01-.272 0-.408 0h-10.028c-.446 0-.45.005-.451.453v6.077c0 .432 0 .435.461.435h8.352c.121 0 .243-.006.363 0a.649.649 0 01.67.659 30.13 30.13 0 010 1.994.616.616 0 01-.642.629c-.15.014-.3.009-.454.009h-8.361c-.384.009-.392.009-.393.373v6.576c0 .376.008.38.425.381h10.036a3.728 3.728 0 01.453.01.625.625 0 01.61.659q.018.952 0 1.9a.61.61 0 01-.621.643c-.12.011-.242.005-.363.005h-13.117c-.121 0-.243.006-.363 0a.63.63 0 01-.639-.633c-.012-.135-.005-.272-.005-.408q-.005-5.5-.005-11.01zm-72.641-3.703V1.523a4.412 4.412 0 01.01-.453.6.6 0 01.612-.607q1.179-.026 2.36 0a.6.6 0 01.6.617c.012.15 0 .3 0 .453v13.6a7.012 7.012 0 00.765 3.415 5.248 5.248 0 004.359 2.851 5.915 5.915 0 003.392-.6 5.646 5.646 0 002.9-3.967 6.916 6.916 0 00.151-1.576c0-4.6.006-9.19-.007-13.786 0-.7.135-1.075 1.039-1.028.589.031 1.18 0 1.77.007.552 0 .788.222.788.76 0 4.943.053 9.887-.026 14.828a9.013 9.013 0 01-7.729 8.718 9.33 9.33 0 01-7.347-1.718 8.83 8.83 0 01-3.612-7.057c-.073-2.4-.015-4.806-.015-7.21zM84.02 24.898a11.191 11.191 0 01-6.831-2.328 8.6 8.6 0 01-.639-.577.558.558 0 01-.12-.742 16.657 16.657 0 011.093-1.721.764.764 0 011.154-.1 11.114 11.114 0 003.411 1.947 5.533 5.533 0 003.389.2 3.412 3.412 0 001.565-.877 3.022 3.022 0 00.377-3.971 4.384 4.384 0 00-1.024-1.019 15.17 15.17 0 00-3.176-1.741 25.438 25.438 0 01-3.019-1.463 7.592 7.592 0 01-2.884-2.758 6.338 6.338 0 011.967-8.321A7.434 7.434 0 0182.614.198a11.217 11.217 0 017.65 1.818 1.335 1.335 0 01.377.322.752.752 0 01.051.926c-.315.48-.619.969-.949 1.439a.779.779 0 01-1.172.274c-.469-.245-.918-.53-1.394-.76a8.7 8.7 0 00-2.694-.92 4.591 4.591 0 00-2.7.414 3.023 3.023 0 00-.742 4.983 8.591 8.591 0 002.354 1.52c1.15.539 2.333 1.006 3.473 1.569a11.669 11.669 0 013.066 2.078 6.172 6.172 0 01-1.156 9.775 8.667 8.667 0 01-4.758 1.262zm115.636 12.698l1.884 2.1c-.141.183-.3.1-.44.122a1.526 1.526 0 01-1.653-.716c-.264-.4-.641-.722-.946-1.1a.74.74 0 00-.656-.309c-.915.029-.765-.105-.779.759q-.009.543 0 1.087c0 .186-.065.278-.263.275-1.2-.018-.968.16-.977-.874-.015-1.645 0-3.291 0-4.937v-.362a.182.182 0 01.2-.2h2.856a3.034 3.034 0 01.851.112 2.123 2.123 0 011.242 3.106 1.709 1.709 0 01-.833.737c-.139.061-.28.115-.486.2zm-1.5-1.014v-.008c.317 0 .636.023.951 0a.952.952 0 00.888-1.1.958.958 0 00-.976-.89c-.557-.027-1.117 0-1.676-.01-.183 0-.282.055-.279.257q.01.747 0 1.494c0 .2.094.263.277.26.273-.007.545-.003.821-.003zm-171 .679v-2.022c0-.5.005-1 0-1.5 0-.2.061-.292.281-.308.963-.068.962-.075.962.9v5.257c0 .145-.068.216-.219.225a.864.864 0 01-.858-.346c-.873-1.158-1.788-2.284-2.689-3.421a1.225 1.225 0 00-.309-.339c-.156.089-.086.241-.086.36-.006 1.1 0 2.206 0 3.308 0 .431-.005.432-.419.438-.181 0-.363-.006-.544 0s-.271-.087-.267-.274 0-.393 0-.589v-5.302c0-.123.06-.2.191-.2.227 0 .453-.007.68 0 .2.005.271.177.372.3q1.267 1.57 2.528 3.144a1.149 1.149 0 00.377.369zm119.228.335l1.88 2.089c-.116.193-.267.108-.391.129a1.583 1.583 0 01-1.729-.751c-.257-.387-.623-.7-.917-1.064a.736.736 0 00-.658-.305c-.884.03-.761-.116-.772.773 0 .348-.006.7 0 1.043 0 .2-.059.316-.284.306-.242-.01-.484-.005-.726 0a.2.2 0 01-.222-.221v-5.672c0-.479 0-.481.463-.483h1.453c.5 0 1-.017 1.5.028a2.047 2.047 0 011.838 1.274 2.013 2.013 0 01-1.167 2.74c-.077.03-.145.06-.268.114zm-1.46-1.014c.256 0 .513.008.769 0a.978.978 0 001.038-.97.976.976 0 00-.975-1.032c-.571-.033-1.145-.006-1.718-.011-.175 0-.243.084-.243.248v1.491c0 .188.076.276.269.271.287-.003.574.002.86.003zm-18.876-.037a1.618 1.618 0 01.15-2.809 3.342 3.342 0 013.02-.089 1.488 1.488 0 01.905 1.22c.028.19-.029.291-.233.287h-.454c-.253.012-.487.017-.555-.316-.018-.089-.122-.172-.2-.234a1.833 1.833 0 00-1.889.061.7.7 0 00.113 1.2 1.941 1.941 0 00.965.213h2.5c.4 0 .4.007.4.405v.227c.011.194-.038.329-.271.312s-.275.125-.268.317 0 .363 0 .544a.68.68 0 00.417.732c.074.028.143.061.15.148a4.843 4.843 0 01-.005.95c-.014.115-.123.117-.214.112a1.01 1.01 0 01-.787-.39c-.072-.095-.132-.2-.194-.3-.144-.007-.178.114-.248.181a2.034 2.034 0 01-1.22.549 4.081 4.081 0 01-1.662-.145 1.733 1.733 0 01-1.291-1.581 1.469 1.469 0 01.551-1.367c.089-.064.188-.13.32-.227zm2.145.485c-.2 0-.393-.007-.589 0a1.657 1.657 0 00-.7.162.776.776 0 00-.5.737.786.786 0 00.529.722 1.844 1.844 0 001.24.1c.7-.179.89-.426.89-1.144 0-.106-.005-.211 0-.317.008-.2-.091-.269-.276-.263s-.398.002-.594.002zm-37.663.175c.105-.145.059-.3.06-.446v-2.9c0-.405.008-.416.4-.413 1 .01.829-.135.835.833.01 1.663 0 3.325 0 4.988 0 .121 0 .242-.007.363a.176.176 0 01-.116.174.842.842 0 01-.851-.234c-.35-.437-.695-.877-1.042-1.316l-1.773-2.241c-.081-.1-.139-.23-.284-.283-.112.118-.069.259-.069.385v3.219c0 .481 0 .488-.462.483-.9-.009-.773.12-.776-.759-.007-1.678 0-3.356 0-5.033v-.363c0-.152.081-.216.226-.216h.59c.218 0 .31.163.422.3l2.5 3.11c.103.12.175.278.347.349zm62.675-.608V33.83c0-.379.009-.388.377-.388q2.043-.006 4.086 0c.368 0 .378.01.377.389 0 .934.087.78-.75.789s-1.665 0-2.5 0c-.353 0-.357.01-.366.353q-.01.363 0 .726c.009.344.018.357.365.36.787.006 1.574 0 2.361 0h.363c.393.009.4.01.4.415 0 .837.1.715-.722.722-.8.007-1.6 0-2.406 0-.339 0-.35.019-.359.364-.006.242-.008.484 0 .726.011.311.024.328.346.33.863.005 1.725 0 2.588 0h.454a.2.2 0 01.223.22v.045c.088.92.088.92-.848.92h-3.541c-.447 0-.451 0-.451-.451.001-.909.003-1.831.003-2.753zm20.947-.008v-2.767c0-.372.01-.381.383-.382q2.043-.006 4.086 0c.356 0 .372.013.37.348-.006.988.121.818-.8.829-.8.01-1.6 0-2.406 0-.408 0-.411.006-.417.394v.771c0 .189.074.28.266.276h2.86c.353 0 .368.013.368.354 0 .939.091.77-.754.78-.787.01-1.574 0-2.36 0-.37 0-.372.009-.379.387 0 .242.009.484 0 .726s.093.315.323.313c.878-.008 1.755 0 2.633 0h.318c.34.011.351.012.349.368-.007.98.118.81-.807.818-1.2.01-2.391 0-3.586 0-.442 0-.445 0-.447-.458-.002-.913-.001-1.837 0-2.757zm43.178.055v-2.766c0-.413.006-.424.389-.42 1 .01.824-.138.84.831q.012.771 0 1.542c0 .213.082.294.295.293.847-.006 1.694-.008 2.542 0 .241 0 .315-.1.312-.323-.008-.62 0-1.239 0-1.859 0-.482 0-.489.461-.485.907.009.769-.116.773.759.007 1.678 0 3.355 0 5.033v.363c0 .153-.08.217-.226.216h-.045c-1.182-.016-.935.167-.961-.891-.011-.438 0-.877 0-1.315-.005-.354-.011-.363-.353-.365q-1.225-.009-2.451 0c-.323 0-.333.013-.337.333-.007.62 0 1.239 0 1.859 0 .371-.009.382-.385.378-1-.011-.832.14-.844-.827-.018-.785-.01-1.571-.01-2.356zM81.284 39.788a9.058 9.058 0 01-1.078.026c-.168 0-.236-.1-.294-.235-.1-.234-.219-.465-.315-.7a.356.356 0 00-.376-.253q-1.429.011-2.857 0a.357.357 0 00-.376.254c-.1.237-.218.465-.319.7a.329.329 0 01-.339.239c-.331-.009-.663 0-.973 0-.112-.132-.034-.226.007-.316.875-1.925 1.756-3.847 2.626-5.774a.405.405 0 01.446-.287c.33.024.7-.1.982.055s.311.535.443.82q1.137 2.47 2.256 4.947a.932.932 0 01.167.524zm-2.313-2.318c-.4-.9-.752-1.728-1.181-2.639-.413.935-.8 1.753-1.158 2.639zM183.8 39.815a.584.584 0 01.1-.437c.838-1.843 1.686-3.68 2.512-5.528.137-.307.3-.455.642-.413.283.034.6-.087.848.054s.285.483.4.74q1.147 2.49 2.276 4.988a1.745 1.745 0 01.208.6h-1.1c-.169 0-.236-.107-.294-.236-.1-.234-.219-.465-.315-.7a.354.354 0 00-.377-.251q-1.429.011-2.858 0a.354.354 0 00-.374.255c-.091.224-.206.438-.3.661a.375.375 0 01-.406.28c-.321-.026-.648-.013-.962-.013zm4.652-2.353l-1.123-2.533h-.1l-1.128 2.538zm-80.828-4.022c.4 0 .792.007 1.184 0 .208-.005.285.135.374.277q.589.943 1.182 1.883a1.049 1.049 0 00.273.366c.147-.039.188-.181.258-.287.426-.643.853-1.286 1.262-1.939a.543.543 0 01.552-.3c.345.026.694-.024 1.047.031.05.2-.105.311-.193.438-.689.995-1.38 1.988-2.082 2.973a1.119 1.119 0 00-.224.713c.014.635 0 1.27.007 1.905 0 .227-.073.337-.314.322a4.8 4.8 0 00-.59 0c-.236.015-.323-.087-.32-.318.008-.529-.022-1.06.009-1.587a1.881 1.881 0 00-.376-1.261c-.665-.937-1.291-1.9-1.931-2.856a.418.418 0 01-.118-.36zm-41.176 3.723v-2.085c0-.527 0-.527-.509-.529-.408 0-.817-.009-1.225 0-.23.006-.325-.075-.321-.312.014-.951-.09-.793.74-.8 1.346-.009 2.692 0 4.038 0 .121 0 .242 0 .363.007a.171.171 0 01.181.163c0 .03 0 .06.008.09.086.837.075.849-.775.849h-.772c-.5 0-.5 0-.505.487v4.035c0 .851.11.733-.747.745h-.227c-.172.005-.246-.081-.245-.248v-.725q-.005-.838-.004-1.677zm-10.565-.541V33.86c0-.412.007-.423.39-.419 1.009.01.827-.131.836.83.011 1.283 0 2.565 0 3.848 0 .106.006.212 0 .317-.01.193.078.27.269.268.5-.005 1 0 1.5 0 .423 0 .846.005 1.269 0 .2 0 .3.052.311.276.055.837.063.837-.794.837h-3.353c-.418 0-.423-.005-.425-.43-.006-.923-.003-1.844-.003-2.765z" fill="#fff"/></svg>