<svg xmlns="http://www.w3.org/2000/svg" width="230" height="58.001"><path d="M8.275 55.706c.023-1.273 5.471-2.3 12.219-2.3s12.218 1.021 12.218 2.3S27.241 58 20.494 58 8.275 56.978 8.275 55.706zm12.219-6.431L6.36 35.213l-.707-.7A20.287 20.287 0 010 20.424c0-.545.023-1.067.068-1.613a21.216 21.216 0 011.5-6.27 1.109 1.109 0 00.114-.3l5.7 5.68A13.228 13.228 0 0010.8 29.53h.005a6.785 6.785 0 00.57.568l9.119 9.086v-.022l6.976-6.953-.3-.3-8.5-8.469 5.084-5.066 13.655 13.613a23.9 23.9 0 01-1.778 2.226L20.494 49.3zm27.788-22.85c1.5-9.5 9.164-17.675 19.149-17.675 5.675 0 10.144 2.863 11.922 7.951l-6.246 3.09a6.953 6.953 0 00-6.77-5.291c-6.292 0-10.418 6.407-11.307 11.927S56.308 38.08 62.6 38.08c4.081 0 8.069-3.521 8.868-7.565h-7.09l.821-5.293h14.408l-.137.841c-1.5 9.4-7.66 17.766-18.032 17.766-9.759-.004-14.638-8.229-13.156-17.404zm146.856 17.24c-6.748 0-10.053-4.771-9.05-11.359 1.071-6.588 5.357-11.745 12.4-11.745 7.135 0 9.483 5.248 8.458 11.791l-.137.75h-14.294v-.024c-.388 2.726.138 5.839 3.374 5.839a5.531 5.531 0 004.651-2.953l5.585.931a12.192 12.192 0 01-10.919 6.771zm-1.846-14.426h8.3c.047-2.2-1.026-4.385-3.418-4.385-2.49 0-4.221 2.113-4.882 4.385zm-45.411 14.426c-6.748 0-10.053-4.771-9.05-11.359 1.071-6.588 5.358-11.745 12.4-11.745 7.135 0 9.483 5.248 8.458 11.791l-.137.75h-14.293v-.024c-.389 2.726.137 5.839 3.373 5.839a5.53 5.53 0 004.651-2.953l5.585.931a12.193 12.193 0 01-10.922 6.771zm-1.819-14.426h8.3c.046-2.2-1.026-4.385-3.419-4.385-2.488 0-4.22 2.113-4.881 4.385zm15.018 2.748c.935-5.748 5.494-11.45 11.74-11.45a6.552 6.552 0 015.54 2.7h.091l2.781-17.762h6.2L181.5 42.938h-6.2l.32-2.045h-.091a8.6 8.6 0 01-6.293 2.749c-6.378 0-9.095-5.793-8.156-11.655zm6.292.069c-.433 2.908.98 6.088 4.172 6.088 3.191.023 5.676-3.159 6.109-6.089.433-2.908-.98-6.044-4.171-6.044s-5.677 3.137-6.11 6.045zM80.13 42.942l3.443-21.7h6.223l-3.465 21.7zm11.649 0L94.4 26.467h-2.121l.844-5.225h2.119l1.163-7.342h6.178l-1.14 7.338h3.807l-.842 5.225H100.6l-2.621 16.475zm36.293 0l1.824-11.4c.319-2.113 1.117-6.043-1.938-6.043-3.374 0-4.082 4.544-4.423 6.792l-1.687 10.651h-6.2l1.732-11c.365-2.113 1.322-6.452-1.914-6.452-3.465 0-4.036 4.5-4.378 6.792L109.4 42.937h-6.2l3.465-21.7h6.2l-.341 1.958h.091a7.718 7.718 0 015.722-2.658 5.781 5.781 0 015.721 3.408 9.088 9.088 0 016.863-3.408c5.54 0 6.246 4.157 5.494 8.883l-2.143 13.517zm93.374-.023l1.823-11.472c.434-2.614 1.118-5.975-2.394-5.975-3.669 0-4.377 4.112-4.833 6.725l-1.687 10.723h-6.2l3.465-21.7h6.2l-.318 2.022h.091a7.6 7.6 0 016.064-2.7c5.858 0 6.907 4.112 6.108 9.133l-2.119 13.244zM35.63 24.081l-1.938-1.931a14.2 14.2 0 00.114-1.727 13.263 13.263 0 00-9.045-12.562 13.981 13.981 0 00-8.571-.067 13.084 13.084 0 00-7.3 6L3.761 8.633a20.591 20.591 0 019.164-7.2A20.863 20.863 0 0120.494 0a20.457 20.457 0 0120.425 18.811c.046.545.068 1.068.068 1.613a20.867 20.867 0 01-1.436 7.565zm49.449-9.369a3.056 3.056 0 01-.663-2.58 4.586 4.586 0 014.309-3.658 3.021 3.021 0 013.054 3.658 4.448 4.448 0 01-4.262 3.658h-.109a3.054 3.054 0 01-2.329-1.078z" fill="#fff"/></svg>