<svg xmlns="http://www.w3.org/2000/svg" width="165.604" height="35.492" viewBox="0 0 165.604 35.492"><path d="M11.286,8.512c5.51,0,9.956-2.812,9.956-9.994V-9.234c0-6.08-4.1-10.032-10.032-10.032S1.1-15.086,1.1-9.386C1.1-2.736,5.89.266,10.374.266a7.091,7.091,0,0,0,6.346-3.23V-1.33c0,4.37-2.09,5.928-5.434,5.928-2.394,0-4.218-.8-4.978-2.546H1.748C2.926,6.5,6.612,8.512,11.286,8.512ZM11.21-3.952A5.176,5.176,0,0,1,5.662-9.386a5.357,5.357,0,0,1,5.548-5.662,5.327,5.327,0,0,1,5.51,5.662A5.146,5.146,0,0,1,11.21-3.952ZM34.314.494c5.928,0,10.108-4.18,10.108-9.88s-4.18-9.88-10.108-9.88-10.108,4.18-10.108,9.88S28.386.494,34.314.494Zm0-4.218a5.357,5.357,0,0,1-5.548-5.662,5.357,5.357,0,0,1,5.548-5.662,5.327,5.327,0,0,1,5.51,5.662A5.327,5.327,0,0,1,34.314-3.724ZM47.386,0h4.522V-10.906c0-3.04,1.52-4.142,3.724-4.142s3.724,1.1,3.724,4.142v.19H63.84v-.114c0-5.738-3.306-8.436-8.208-8.436s-8.246,2.7-8.246,8.36ZM73.3.494c4.788,0,7.866-2.508,7.866-6.308,0-4.674-4.6-5.168-7.106-5.51-2.014-.266-3.724-.494-3.724-1.938,0-1.1.988-2.052,2.964-2.052,1.786,0,2.85.8,2.964,1.938H80.75c-.114-3.306-2.926-5.89-7.524-5.89-4.522,0-7.448,2.508-7.448,6.346,0,4.6,4.256,5.092,7.144,5.472,2.014.266,3.686.456,3.686,1.9,0,1.14-.988,2.09-3.306,2.09-2.2,0-3.306-.836-3.344-2.09H65.4C65.512-2.052,68.514.494,73.3.494Zm20.216,0c4.446,0,7.866-2.318,9.272-5.89H97.964A5.273,5.273,0,0,1,93.518-3.61,5.143,5.143,0,0,1,88.16-7.79h15.39v-1.6c0-5.7-4.1-9.88-10.032-9.88S83.41-15.086,83.41-9.386,87.59.494,93.518.494ZM88.274-11.4a5.1,5.1,0,0,1,5.244-3.762A5.115,5.115,0,0,1,98.762-11.4ZM107.16,0h4.522V-26.98H107.16Zm11.894.494a2.938,2.938,0,0,0,3-3,2.938,2.938,0,0,0-3-3,2.938,2.938,0,0,0-3,3A2.938,2.938,0,0,0,119.054.494Zm15.5,0c5.092,0,8.816-3.078,9.728-7.524h-4.56a5.311,5.311,0,0,1-5.168,3.306,5.357,5.357,0,0,1-5.548-5.662,5.357,5.357,0,0,1,5.548-5.662,5.311,5.311,0,0,1,5.168,3.306h4.56c-.912-4.446-4.636-7.524-9.728-7.524-5.928,0-10.108,4.18-10.108,9.88S128.63.494,134.558.494Zm22.04,0c5.928,0,10.108-4.18,10.108-9.88s-4.18-9.88-10.108-9.88-10.108,4.18-10.108,9.88S150.67.494,156.6.494Zm0-4.218a5.357,5.357,0,0,1-5.548-5.662,5.357,5.357,0,0,1,5.548-5.662,5.327,5.327,0,0,1,5.51,5.662A5.327,5.327,0,0,1,156.6-3.724Z" transform="translate(-1.102 26.98)" fill="#fff"/></svg>