<svg xmlns="http://www.w3.org/2000/svg" width="165.604" height="35.492"><path d="M10.184 35.492c5.51 0 9.956-2.812 9.956-9.994v-7.752c0-6.08-4.1-10.032-10.032-10.032s-10.11 4.18-10.11 9.88c0 6.65 4.79 9.652 9.274 9.652a7.091 7.091 0 006.346-3.23v1.634c0 4.37-2.09 5.928-5.434 5.928-2.394 0-4.218-.8-4.978-2.546H.646c1.178 4.448 4.864 6.46 9.538 6.46zm-.076-12.464a5.176 5.176 0 01-5.548-5.434 5.357 5.357 0 015.548-5.662 5.327 5.327 0 015.51 5.662 5.146 5.146 0 01-5.51 5.434zm23.104 4.446c5.928 0 10.108-4.18 10.108-9.88s-4.18-9.88-10.108-9.88-10.108 4.18-10.108 9.88 4.18 9.88 10.108 9.88zm0-4.218a5.357 5.357 0 01-5.548-5.662 5.357 5.357 0 015.548-5.662 5.327 5.327 0 015.51 5.662 5.327 5.327 0 01-5.51 5.662zm13.072 3.724h4.522V16.074c0-3.04 1.52-4.142 3.724-4.142s3.724 1.1 3.724 4.142v.19h4.484v-.114c0-5.738-3.306-8.436-8.208-8.436s-8.246 2.7-8.246 8.36zm25.914.494c4.788 0 7.866-2.508 7.866-6.308 0-4.674-4.6-5.168-7.106-5.51-2.014-.266-3.724-.494-3.724-1.938 0-1.1.988-2.052 2.964-2.052 1.786 0 2.85.8 2.964 1.938h4.486c-.114-3.306-2.926-5.89-7.524-5.89-4.522 0-7.448 2.508-7.448 6.346 0 4.6 4.256 5.092 7.144 5.472 2.014.266 3.686.456 3.686 1.9 0 1.14-.988 2.09-3.306 2.09-2.2 0-3.306-.836-3.344-2.09h-4.558c.112 3.496 3.114 6.042 7.9 6.042zm20.216 0c4.446 0 7.866-2.318 9.272-5.89h-4.824a5.273 5.273 0 01-4.446 1.786 5.143 5.143 0 01-5.358-4.18h15.39v-1.6c0-5.7-4.1-9.88-10.032-9.88s-10.108 4.184-10.108 9.884 4.18 9.88 10.108 9.88zM87.172 15.58a5.1 5.1 0 015.244-3.762 5.115 5.115 0 015.244 3.762zm18.886 11.4h4.522V0h-4.522zm11.894.494a2.938 2.938 0 003-3 2.938 2.938 0 00-3-3 2.938 2.938 0 00-3 3 2.938 2.938 0 003 3zm15.5 0c5.092 0 8.816-3.078 9.728-7.524h-4.56a5.311 5.311 0 01-5.168 3.306 5.357 5.357 0 01-5.548-5.662 5.357 5.357 0 015.548-5.662 5.311 5.311 0 015.168 3.306h4.56c-.912-4.446-4.636-7.524-9.728-7.524-5.928 0-10.108 4.18-10.108 9.88s4.184 9.88 10.112 9.88zm22.04 0c5.928 0 10.108-4.18 10.108-9.88s-4.18-9.88-10.108-9.88-10.108 4.18-10.108 9.88 4.184 9.88 10.114 9.88zm0-4.218a5.357 5.357 0 01-5.548-5.662 5.357 5.357 0 015.548-5.662 5.327 5.327 0 015.51 5.662 5.327 5.327 0 01-5.504 5.662z" fill="#fff"/></svg>