<svg xmlns="http://www.w3.org/2000/svg" width="208.406" height="113.089" viewBox="0 0 208.406 113.089"><path d="M207,161.166V156.7a2.028,2.028,0,0,0,.592.066,2.265,2.265,0,0,0,.592-.066c-.066.525-.066,1.182-.131,1.839v2.036a4.712,4.712,0,0,0,.131,1.116,1.27,1.27,0,0,0,.329.591,2.86,2.86,0,0,0,.46.394,2.365,2.365,0,0,0,.723.131,1.585,1.585,0,0,0,.986-.263,1.864,1.864,0,0,0,.591-.657.933.933,0,0,0,.131-.394.973.973,0,0,0,.066-.46c0-.2.066-.46.066-.722V156.7l.263.066h.526l.263-.066c-.066.722-.066,1.445-.066,2.1v3.349a7.133,7.133,0,0,0,.066,1.182h-1.052v-1.182a2.37,2.37,0,0,1-.986.985,2.72,2.72,0,0,1-1.249.328,2.069,2.069,0,0,1-2.3-2.3Z" transform="translate(-70.954 -53.791)" fill="#fff"/><path d="M198.06,163.267l-.394-.985c-.131-.394-.329-.788-.526-1.248l-.591-1.313c-.2-.46-.394-.919-.526-1.313l-.46-1.051-.263-.657.329.066h.657l.329-.066a21.344,21.344,0,0,0,.986,2.627c.329.854.723,1.773,1.117,2.693a24.288,24.288,0,0,0,1.117-2.627c.329-.919.657-1.839.986-2.693a1.644,1.644,0,0,0,.92,0l-.329.657-.526,1.116-.657,1.445-.723,1.576-.723,1.642c-.263.525-.46,1.051-.657,1.51l-.526,1.313c-.131.394-.263.722-.329.919a1.644,1.644,0,0,0-.92,0c.592-1.182,1.183-2.364,1.709-3.612Z" transform="translate(-66.944 -53.791)" fill="#fff"/><path d="M184.7,161.166V156.7a2.028,2.028,0,0,0,.591.066,2.265,2.265,0,0,0,.591-.066c-.066.525-.066,1.182-.131,1.839v2.036a4.712,4.712,0,0,0,.131,1.116,1.27,1.27,0,0,0,.329.591,2.859,2.859,0,0,0,.46.394,2.365,2.365,0,0,0,.723.131,1.585,1.585,0,0,0,.986-.263,1.863,1.863,0,0,0,.592-.657.933.933,0,0,0,.131-.394.973.973,0,0,0,.066-.46c0-.2.066-.46.066-.722V156.7l.263.066h.526l.263-.066c-.066.722-.066,1.445-.066,2.1v3.349a7.131,7.131,0,0,0,.066,1.182h-1.052v-1.182a2.37,2.37,0,0,1-.986.985,2.72,2.72,0,0,1-1.249.328,2.069,2.069,0,0,1-2.3-2.3Z" transform="translate(-63.31 -53.791)" fill="#fff"/><path d="M173.926,159.881c.066.2.2.328.263.525a1.534,1.534,0,0,0,.46.46,2.058,2.058,0,0,0,.657.328,3.3,3.3,0,0,0,.789.131,2.455,2.455,0,0,0,.789-.131,1.432,1.432,0,0,0,.592-.46,1.363,1.363,0,0,0,.394-.657,3.3,3.3,0,0,0,.131-.788,1.477,1.477,0,0,0-.329-.985,1.794,1.794,0,0,0-.789-.591,5.088,5.088,0,0,0-1.052-.46,5.24,5.24,0,0,1-1.052-.525,2.265,2.265,0,0,1-.789-.788,2.585,2.585,0,0,1-.329-1.313,2.721,2.721,0,0,1,.2-1.051,2.5,2.5,0,0,1,.591-.854,2.37,2.37,0,0,1,.986-.525,3.829,3.829,0,0,1,1.249-.2,3.185,3.185,0,0,1,1.183.2,6.006,6.006,0,0,1,.92.46,4.524,4.524,0,0,0-.2.525c-.066.2-.131.394-.2.657h-.2l-.2-.394a2,2,0,0,0-.329-.46,1.179,1.179,0,0,0-.46-.328,1.945,1.945,0,0,0-.657-.131,2.363,2.363,0,0,0-.723.131,2.664,2.664,0,0,0-.591.328,3.647,3.647,0,0,0-.394.525,2.36,2.36,0,0,0-.131.722,1.67,1.67,0,0,0,.329,1.051,3.815,3.815,0,0,0,.789.657,5.088,5.088,0,0,0,1.052.46,5.088,5.088,0,0,1,1.052.46,2.8,2.8,0,0,1,.789.722,2.335,2.335,0,0,1,.329,1.248,2.4,2.4,0,0,1-.263,1.182,2.6,2.6,0,0,1-.657.985,2.863,2.863,0,0,1-1.052.657,4.81,4.81,0,0,1-1.446.2,3.841,3.841,0,0,1-1.38-.2,2.7,2.7,0,0,1-.854-.525l.2-.591a2.024,2.024,0,0,0,.066-.657h.263Z" transform="translate(-59.437 -52.177)" fill="#fff"/><path d="M157.831,154.772V152.6a5.641,5.641,0,0,0-.066-1.051,3.469,3.469,0,0,0-.066-.854,2.265,2.265,0,0,0,.591.066,2.028,2.028,0,0,0,.592-.066l-.066.854v5.714c0,.2.066.263.2.263a.5.5,0,0,0,.263-.066l.329-.2.394-.394.657-.657.789-.788a7.876,7.876,0,0,0,.723-.788,1.448,1.448,0,0,0,.526.066h.329c.131,0,.263-.066.394-.066-.591.46-1.117.919-1.709,1.379-.526.46-1.052.919-1.512,1.379.526.657,1.052,1.248,1.643,1.9s1.117,1.248,1.709,1.9h-1.512l-.723-.788-.789-.919a9.818,9.818,0,0,0-.723-.854,4.8,4.8,0,0,1-.591-.657c-.131-.131-.2-.131-.2-.131-.066,0-.131.066-.131.2v2.1c0,.394.066.788.066,1.182h-1.183a3.764,3.764,0,0,1,.066-.788,6.007,6.007,0,0,1,.066-1.051v-4.728Z" transform="translate(-54.056 -51.731)" fill="#fff"/><path d="M152.149,162.839h-.131a.493.493,0,0,1-.329-.066.341.341,0,0,1-.131-.263.592.592,0,0,1-.066-.328v-3.546a1.817,1.817,0,0,0-.2-.854,2.36,2.36,0,0,0-.46-.657,1.567,1.567,0,0,0-.723-.394,2.09,2.09,0,0,0-.92-.131,2.726,2.726,0,0,0-1.052.2,5.57,5.57,0,0,0-1.183.657v.722h.131a1.541,1.541,0,0,1,.723-.722,1.93,1.93,0,0,1,1.052-.263,2.365,2.365,0,0,1,.723.131.883.883,0,0,1,.46.394,1.319,1.319,0,0,1,.263.525,2.232,2.232,0,0,1,.066.657.492.492,0,0,1-.066.328c0,.066-.131.131-.263.2a3.06,3.06,0,0,1-.591.2,10.811,10.811,0,0,1-1.183.2,3.689,3.689,0,0,0-1.446.591,1.726,1.726,0,0,0-.526,1.313,2.36,2.36,0,0,0,.131.722,3.638,3.638,0,0,0,.394.525,2.665,2.665,0,0,0,.591.328,2.958,2.958,0,0,0,1.84-.2,3.147,3.147,0,0,0,.986-.722.832.832,0,0,0,.263.591.982.982,0,0,0,.657.2,1.448,1.448,0,0,0,.526-.066.935.935,0,0,0,.394-.131v-.2C152.215,162.773,152.215,162.839,152.149,162.839Zm-1.774-.985a2.088,2.088,0,0,1-.657.657,1.585,1.585,0,0,1-.986.263,1.385,1.385,0,0,1-.854-.328,1.152,1.152,0,0,1-.394-.985,1.942,1.942,0,0,1,.131-.657,1.115,1.115,0,0,1,.394-.394,1.967,1.967,0,0,1,.526-.263,1.945,1.945,0,0,1,.657-.131c.2-.066.394-.066.592-.131s.394-.066.526-.131Z" transform="translate(-50.148 -53.756)" fill="#fff"/><path d="M140.035,159.324a2.657,2.657,0,0,0-.394-1.576,1.4,1.4,0,0,0-1.117-.525,1.746,1.746,0,0,0-1.446.591,3.1,3.1,0,0,0-.46,1.708v2.5c0,.46.066.854.066,1.248H135.5a7.533,7.533,0,0,0,.066-1.248v-4.072c0-.46-.066-.919-.066-1.313a2.266,2.266,0,0,0,.591.066h.263l.329-.066c0,.394-.066.722-.066,1.116a2.634,2.634,0,0,1,.986-.919,2.59,2.59,0,0,1,1.314-.328,3.3,3.3,0,0,1,.789.131,1.567,1.567,0,0,1,.723.394,2.059,2.059,0,0,1,.526.722,3.179,3.179,0,0,1,.2,1.182v4.334h-1.183l.066-1.51c0-.525.066-1.051.066-1.576v-.854Z" transform="translate(-46.446 -53.722)" fill="#fff"/><path d="M126.56,163.267l-.394-.985c-.131-.394-.329-.788-.526-1.248l-.592-1.313c-.2-.46-.394-.919-.526-1.313l-.46-1.051-.263-.657.329.066h.657l.329-.066a21.341,21.341,0,0,0,.986,2.627c.329.854.723,1.773,1.117,2.693a24.277,24.277,0,0,0,1.117-2.627c.329-.919.657-1.839.986-2.693a1.644,1.644,0,0,0,.92,0l-.329.657-.526,1.116-.657,1.445-.723,1.576-.723,1.642c-.263.525-.46,1.051-.657,1.51l-.526,1.313c-.131.394-.263.722-.329.919a1.644,1.644,0,0,0-.92,0c.592-1.182,1.183-2.364,1.709-3.612Z" transform="translate(-42.435 -53.791)" fill="#fff"/><path d="M119.949,162.839h-.131a.493.493,0,0,1-.329-.066.341.341,0,0,1-.131-.263.592.592,0,0,1-.066-.328v-3.546a1.817,1.817,0,0,0-.2-.854,2.359,2.359,0,0,0-.46-.657,1.567,1.567,0,0,0-.723-.394,2.09,2.09,0,0,0-.92-.131,2.726,2.726,0,0,0-1.052.2,5.569,5.569,0,0,0-1.183.657v.722h.131a1.541,1.541,0,0,1,.723-.722,1.93,1.93,0,0,1,1.052-.263,2.365,2.365,0,0,1,.723.131.884.884,0,0,1,.46.394,1.32,1.32,0,0,1,.263.525,2.233,2.233,0,0,1,.066.657.492.492,0,0,1-.066.328c0,.066-.131.131-.263.2a3.062,3.062,0,0,1-.592.2,10.811,10.811,0,0,1-1.183.2,3.689,3.689,0,0,0-1.446.591,1.726,1.726,0,0,0-.526,1.313,2.36,2.36,0,0,0,.131.722,3.643,3.643,0,0,0,.394.525,2.666,2.666,0,0,0,.591.328,2.958,2.958,0,0,0,1.84-.2,3.147,3.147,0,0,0,.986-.722.832.832,0,0,0,.263.591.982.982,0,0,0,.657.2,1.448,1.448,0,0,0,.526-.066.935.935,0,0,0,.394-.131v-.2C120.081,162.773,120.015,162.839,119.949,162.839Zm-1.709-.985a2.088,2.088,0,0,1-.657.657,1.585,1.585,0,0,1-.986.263,1.385,1.385,0,0,1-.854-.328,1.152,1.152,0,0,1-.394-.985,1.942,1.942,0,0,1,.131-.657,1.115,1.115,0,0,1,.394-.394,1.967,1.967,0,0,1,.526-.263,1.945,1.945,0,0,1,.657-.131c.2-.066.394-.066.591-.131s.394-.066.526-.131Z" transform="translate(-39.111 -53.756)" fill="#fff"/><path d="M102.4,161.723c0-.591.066-1.182.066-1.773s.066-1.182.066-1.773v-2.364a15.985,15.985,0,0,0-.066-1.773c0-.591-.066-1.182-.066-1.773l.329.066h.657l.329-.066-.066,1.773V156.6c0,.066,0,.131.066.131s.131-.066.2-.131a12.606,12.606,0,0,0,.986-.919c.329-.328.723-.722,1.052-1.116s.723-.788,1.052-1.182l.986-1.182.263.066h.591l.329-.066c-.329.263-.657.591-1.117.985-.394.394-.789.788-1.249,1.182l-1.183,1.182c-.394.394-.657.722-.92.985.723.854,1.512,1.707,2.235,2.561.789.854,1.512,1.773,2.3,2.627h-1.314c-.329-.394-.723-.788-1.117-1.313-.394-.46-.789-.985-1.183-1.445s-.723-.854-1.052-1.248-.526-.657-.657-.788c-.066-.066-.131-.131-.2-.131l-.066,1.313v1.773l.066,1.773h-.657c-.2,0-.394.066-.657.066Z" transform="translate(-35.1 -52.246)" fill="#fff"/><g transform="translate(201.703 45.249)"><path d="M313.144,70.608a3.779,3.779,0,0,0-1.249-1.248,3.636,3.636,0,0,0-1.643-.46,2.969,2.969,0,0,0-1.643.46,3.254,3.254,0,0,0-1.249,1.248,3.117,3.117,0,0,0-.46,1.642,2.962,2.962,0,0,0,.46,1.642,3.254,3.254,0,0,0,1.249,1.248,3.88,3.88,0,0,0,1.643.46,2.968,2.968,0,0,0,1.643-.46,3.254,3.254,0,0,0,1.249-1.248,3.16,3.16,0,0,0,0-3.284Zm-.46,3.087a2.7,2.7,0,0,1-1.051,1.051,2.614,2.614,0,0,1-2.76,0,2.694,2.694,0,0,1-1.051-1.051,2.608,2.608,0,0,1,0-2.758,2.694,2.694,0,0,1,1.051-1.051,2.614,2.614,0,0,1,2.76,0,2.7,2.7,0,0,1,1.051,1.051,2.756,2.756,0,0,1,.394,1.379A5.445,5.445,0,0,1,312.684,73.694Z" transform="translate(-306.9 -68.9)" fill="#fff"/><path d="M311.769,73.567a1.439,1.439,0,0,0-.329-.2.942.942,0,0,0,.723-.328.843.843,0,0,0,.263-.657.745.745,0,0,0-.2-.525.76.76,0,0,0-.46-.328,3.049,3.049,0,0,0-.92-.131H309.6v3.612h.591V73.5h.329a.95.95,0,0,1,.46.131,4.281,4.281,0,0,1,.592.854l.329.591h.723l-.46-.722A1.459,1.459,0,0,0,311.769,73.567Zm-.789-.591h-.723V71.86h.657a1.459,1.459,0,0,1,.591.066.909.909,0,0,1,.263.2.514.514,0,0,1-.131.657C311.572,72.91,311.309,72.976,310.98,72.976Z" transform="translate(-307.826 -69.758)" fill="#fff"/></g><path d="M227.5,71.7c8.938,1.708,15.971,13.923,10.516,23.117-3.943,6.37-3.089,14.776,2.76,17.338,3.023.985,5.915-.328,5.915-6.567V77.479l-1.38-.722v-.788h9.267v.854l-1.512.788v43.607a14.949,14.949,0,0,1-1.38,6.567c-2.826,5.32-7.821,7.815-13.539,5.385-5.192-2.036-5.849-9.982-1.84-12.806-2.892,6.3-.854,10.967,3.812,11.624,3.418.2,6.309-2.627,6.112-7.946v-9.982c-5.915,4.663-13.21,2.364-15.313-3.678-2.169-6.633-.329-11.361,2.432-16.156,3.155-6.042.986-16.681-5.849-22.526Z" transform="translate(-77.981 -24.613)" fill="#fff"/><path d="M212.6,65.04a3.943,3.943,0,1,1,3.943,3.94,3.953,3.953,0,0,1-3.943-3.94Z" transform="translate(-72.874 -20.974)" fill="#fff"/><path d="M219.984,78.2v39.4l1.183.46v.788h-9.2v-.788l1.446-.328V79.579l-1.512-.657V78.2Z" transform="translate(-72.634 -26.844)" fill="#fff"/><path d="M191.379,111.022V59.6h-8.018v.722l1.512.788V71.158c0,4.86-.986,6.5-4.272,9.785-8.018,6.239-13.67,9.391-14.656,17.666-.723,6.3,2.3,11.3,7.164,13.332,4.6,1.445,8.61.263,11.9-4.334v4.86h7.821v-1.051Zm-6.244-9.917c0,5.582-4.8,8.6-9.07,5.714-5.126-4.2-4.6-12.544.92-18.585,3.22-3.546,6.375-5.582,8.15-8.669Z" transform="translate(-56.845 -20.459)" fill="#fff"/><path d="M89.581,77.928l.131,2.627c4.338-4.269,9.53-3.349,12.159,1.708,3.68-4.2,8.873-5.582,13.013-3.546,5.586,3.021,5.718,9.523,5.718,16.484v22.132l1.249.525v.722h-9.135v-.722l1.446-.525V92.376c0-3.481-.591-6.436-1.972-8.012-2.5-3.152-7.69-3.021-9.53-.328,1.052,2.561,1.38,6.3,1.38,9.72v23.511l1.38.657v.722H97.073v-.788l1.314-.46V91.653c0-3.94-1.052-8.472-3.418-9.457-2.892-1.051-5.061.919-5.061,4.269V117.4l1.577.46v.722H81.5v-.919l1.314-.2V79.307L81.3,78.453v-.525Z" transform="translate(-27.868 -26.703)" fill="#fff"/><path d="M63.11,117.649V91.905c0-8.143-3.22-12.741-10.056-13.726-9.53-.788-11.961,10.573-6.572,13.66-3.483-5.976-.2-12.675,5.586-11.164,4.141.985,6.309,7.224,2.235,11.493-2.76,3.415-9.727,7.027-11.9,11.887-2.1,4.072-1.38,11.033,2.958,13.332,4.535,2.43,8.215,1.642,10.976-2.233V118.7h8.018v-.788Zm-6.9-9.523c0,5.32-3.549,6.37-6.572,4.466-3.68-2.955-2.892-9.654.526-13.135,1.775-1.97,4.075-3.743,6.112-6.108v14.776Z" transform="translate(-14.147 -26.823)" fill="#fff"/><path d="M7.624,59.3,7.69,74.667A9.119,9.119,0,0,1,20.9,74.6c4.272,4.663,4.141,11.164-.131,19.9-3.155,5.714-.854,16.484,5.389,22.329-5.784-.919-11.107-7.946-11.83-12.281-1.84-7.224,2.76-11.1,3.68-15.039a15.137,15.137,0,0,0-.2-9.391c-2.826-6.9-9.2-6.173-10.056-.919v31.917l1.183.263v.722H.066v-.657l1.314-.263V61.73C1.38,59.76,0,60.088,0,60.088V59.3Z" transform="translate(0 -20.356)" fill="#fff"/><path d="M290.425,105.2c3.418,6.436-.263,11.1-4.141,11.3-3.746-.131-6.112-3.021-6.112-7.093.263-3.349,2.3-5.911,6.7-8.8,6.967-4.925,10.121-10.311,8.084-16.287-4.338-11.427-21.36-7.027-21.36,7.552v12.872c0,9.063,3.68,13.529,10.647,13.988C291.805,118.987,296.143,109.858,290.425,105.2Zm-10.45-17.206c0-7.093,6.572-8.078,9.135-3.021,3.746,8.8-4.863,14.448-9.135,18.914Z" transform="translate(-93.783 -26.716)" fill="#fff"/><g transform="translate(91.941)"><path d="M152.219,0c5.843,3.981,5.907,11.364-.514,20.867C144.321,31.076,140.02,36.34,145.413,43.4c-7.769-4.559-8.86-10.145,1.284-23.756,6.228-8.283,8.411-14.9,5.522-19.647Z" transform="translate(-139.337)" fill="#fff"/><path d="M177.195,7.1c-4.88,2.632-6.292,9.5-5.072,19.775,2.055,16.822-1.734,21.188-10.722,21.188,8.218-3.467,7.063-10.145,5.843-22.665-.835-11.429,2.889-17.785,9.952-18.3Z" transform="translate(-147.234 -2.541)" fill="#fff"/><path d="M160.263,28.3a76.331,76.331,0,0,0,.642,12.905c1.284,8.154-3.852,14.318-7.127,13.483-4.944-.77-6.035-9.438-.257-16.437,2.376-3.082,5.136-6.292,6.742-9.952Z" transform="translate(-143.015 -10.13)" fill="#fff"/></g><path d="M154.984,78.2v39.4l1.183.46v.788h-9.2v-.788l1.38-.328V79.579l-1.446-.657V78.2Z" transform="translate(-50.354 -26.844)" fill="#fff"/></svg>