<svg xmlns="http://www.w3.org/2000/svg" width="244.999" height="40.001" viewBox="0 0 244.999 40.001"><g transform="translate(-70 -68)"><g transform="translate(70.001 68)"><path d="M2127.146,247.062c1.82,0,2.428.607,2.428,2.428v35.121c0,1.821-.607,2.428-2.428,2.428h-7.889a2.653,2.653,0,0,1-2.372-1.158l-6.234-10.736a33.6,33.6,0,0,1-2.483-4.634c-.5-1.159-1.378-3.752-2.593-7.67h-.441c.938,4.359,1.544,7.338,1.766,8.883.165,1.544.275,3.917.275,7.172v5.715c0,1.821-.607,2.428-2.427,2.428h-7.062c-1.821,0-2.427-.607-2.427-2.428V249.49c0-1.821.606-2.428,2.427-2.428h8.441a2.676,2.676,0,0,1,2.372,1.1l7.173,11.7a35.776,35.776,0,0,1,1.987,3.641c.165.387.5,1.27,1.1,2.7.606,1.49,1.1,2.814,1.6,3.972h.5c-1.49-4.91-2.427-8.11-2.7-9.6a28.654,28.654,0,0,1-.5-6.069V249.49c0-1.821.606-2.428,2.427-2.428Z" transform="translate(-2025.614 -247.062)" fill="#fff"/><path d="M2217.385,248.359c1.859,0,2.478.62,2.478,2.48v3.492a4.367,4.367,0,0,1-.789,2.536l-13.746,20.169h12.338c1.859,0,2.479.619,2.479,2.479v6.366c0,1.859-.62,2.479-2.479,2.479H2190c-1.858,0-2.478-.62-2.478-2.479V282.33a4.318,4.318,0,0,1,.789-2.479l13.8-20.225h-11.831c-1.859,0-2.479-.619-2.479-2.479v-6.309c0-1.86.62-2.48,2.479-2.48Z" transform="translate(-2064.146 -248.359)" fill="#fff"/><g transform="translate(16 0)"><g transform="translate(0)"><path d="M2015.232,262.729c0-9.724,6.4-15.667,17.6-15.667,8.662,0,14.234,3.3,16.717,9.833.607,1.674.166,2.43-1.545,3.025l-7.5,2.593c-1.765.487-2.428.217-3.09-1.512-.883-2.215-1.986-3.079-4.579-3.079-3.751,0-4.8,1.3-4.8,4.754v8.752c0,3.457,1.049,4.754,4.8,4.754a4.5,4.5,0,0,0,4.634-3.079c.663-1.729,1.38-2.106,3.091-1.513l7.447,2.594c1.711.594,2.152,1.4,1.545,3.079-2.483,6.537-8.055,9.778-16.717,9.778-11.2,0-17.6-5.942-17.6-15.667Z" transform="translate(-2015.232 -247.062)" fill="#fff"/></g></g><g transform="translate(-0.001 0)"><path d="M2207.361,377.558c0-1.6.607-2.207,2.207-2.207h8.386c1.6,0,2.207.607,2.207,2.207v23.917c0,1.6-.607,2.207-2.207,2.207h-8.386c-1.6,0-2.207-.607-2.207-2.207Z" transform="translate(-2207.361 -363.683)" fill="#fff"/><path d="M2217.216,363.683c2.262,0,2.945.754,2.945,2.943v2.191c0,2.189-.755,2.908-2.945,2.908H2210.3c-2.19,0-2.944-.719-2.944-2.908v-2.191c0-2.189.682-2.943,2.944-2.943Z" transform="translate(-2207.361 -363.683)" fill="#fff"/></g><g transform="translate(53.766 0)"><path d="M2207.361,377.558c0-1.6.607-2.207,2.207-2.207h8.386c1.6,0,2.207.607,2.207,2.207v23.917c0,1.6-.607,2.207-2.207,2.207h-8.386c-1.6,0-2.207-.607-2.207-2.207Z" transform="translate(-2207.361 -363.683)" fill="#fff"/><path d="M2217.216,363.683c2.262,0,2.945.754,2.945,2.943v2.191c0,2.189-.755,2.908-2.945,2.908H2210.3c-2.19,0-2.944-.719-2.944-2.908v-2.191c0-2.189.682-2.943,2.944-2.943Z" transform="translate(-2207.361 -363.683)" fill="#fff"/></g><g transform="translate(107.533 0)"><path d="M2207.361,377.558c0-1.6.607-2.207,2.207-2.207h8.386c1.6,0,2.207.607,2.207,2.207v23.917c0,1.6-.607,2.207-2.207,2.207h-8.386c-1.6,0-2.207-.607-2.207-2.207Z" transform="translate(-2207.361 -363.683)" fill="#fff"/><path d="M2217.216,363.683c2.262,0,2.945.754,2.945,2.943v2.191c0,2.189-.755,2.908-2.945,2.908H2210.3c-2.19,0-2.944-.719-2.944-2.908v-2.191c0-2.189.682-2.943,2.944-2.943Z" transform="translate(-2207.361 -363.683)" fill="#fff"/></g></g><g transform="translate(235.33 68)"><path d="M-12649.332-2121h-70a5.006,5.006,0,0,1-5-5v-30a5.006,5.006,0,0,1,5-5h70a5.006,5.006,0,0,1,5,5v30A5.006,5.006,0,0,1-12649.332-2121Zm-37.184-25.863a9.992,9.992,0,0,0-6.79,2.174,7.78,7.78,0,0,0-2.4,6v4.512a7.78,7.78,0,0,0,2.4,6,9.992,9.992,0,0,0,6.79,2.174,9.992,9.992,0,0,0,6.79-2.174,7.778,7.778,0,0,0,2.4-6v-4.512a7.778,7.778,0,0,0-2.4-6A9.992,9.992,0,0,0-12686.516-2146.863Zm-20.623,0a9.965,9.965,0,0,0-6.788,2.185,7.778,7.778,0,0,0-2.4,5.99v4.512a7.778,7.778,0,0,0,2.4,5.99,9.965,9.965,0,0,0,6.788,2.185,11,11,0,0,0,5.577-1.271,7.275,7.275,0,0,0,3.157-3.832,1.283,1.283,0,0,0,.059-1,1.377,1.377,0,0,0-.866-.611l-3.89-1.354a2.076,2.076,0,0,0-.657-.136c-.433,0-.7.26-.959.925a2.359,2.359,0,0,1-2.421,1.61c-1.9,0-2.507-.6-2.507-2.481v-4.566c0-1.878.609-2.481,2.507-2.481a2.168,2.168,0,0,1,2.393,1.606c.257.666.507.9.956.9a2.55,2.55,0,0,0,.659-.113l3.919-1.351a1.376,1.376,0,0,0,.87-.605,1.269,1.269,0,0,0-.062-.976,7.342,7.342,0,0,0-3.157-3.845A10.919,10.919,0,0,0-12707.139-2146.863Zm49.39,9.079h.345a45.119,45.119,0,0,0-1.268,4.934,20.2,20.2,0,0,0-.288,3.5v1.747c0,.9.308,1.185,1.268,1.185h4.091c.96,0,1.269-.288,1.269-1.185v-17.675c0-.9-.309-1.185-1.269-1.185h-3.717c-.964,0-1.245.152-1.673.9l-4.234,8.74-4.206-8.766c-.443-.719-.761-.875-1.788-.875h-3.517c-.96,0-1.268.288-1.268,1.185v17.675c0,.9.308,1.185,1.268,1.185h3.832c.96,0,1.269-.288,1.269-1.185v-1.718a23.741,23.741,0,0,0-.23-3.273c-.182-1.1-.609-2.891-1.239-5.186h.346l1.472,4.116,1.293,2.791a1.354,1.354,0,0,0,1.443.818h2.536a1.419,1.419,0,0,0,1.411-.818l1.239-2.791c.245-.564.8-1.942,1.616-4.115Zm-56.22-18.215c-1.787,0-2.36.562-2.36,2.312v1.718c0,1.707.6,2.283,2.36,2.283h1.673c1.767,0,2.363-.576,2.363-2.283v-1.718c0-1.75-.574-2.312-2.363-2.312Zm27.453,24.334a2.862,2.862,0,0,1-1.883-.532,2.007,2.007,0,0,1-.627-1.61v-5.244c0-1.442.821-2.143,2.51-2.143s2.507.7,2.507,2.143v5.244a2.008,2.008,0,0,1-.627,1.61A2.853,2.853,0,0,1-12686.516-2131.665Z" transform="translate(12724 2161)" fill="#fff"/></g></g></svg>