<svg xmlns="http://www.w3.org/2000/svg" width="244.999" height="40.001"><path d="M101.533 0c1.82 0 2.428.607 2.428 2.428v35.121c0 1.821-.607 2.428-2.428 2.428h-7.889a2.653 2.653 0 01-2.372-1.158l-6.234-10.736a33.6 33.6 0 01-2.483-4.634c-.5-1.159-1.378-3.752-2.593-7.67h-.441c.938 4.359 1.544 7.338 1.766 8.883.165 1.544.275 3.917.275 7.172v5.715c0 1.821-.607 2.428-2.427 2.428h-7.062c-1.821 0-2.427-.607-2.427-2.428V2.428C69.646.607 70.252 0 72.073 0h8.441a2.676 2.676 0 012.372 1.1l7.173 11.7a35.776 35.776 0 011.987 3.641c.165.387.5 1.27 1.1 2.7.606 1.49 1.1 2.814 1.6 3.972h.5c-1.49-4.91-2.427-8.11-2.7-9.6a28.654 28.654 0 01-.5-6.069V2.428C92.046.607 92.652 0 94.473 0zm51.707 0c1.859 0 2.478.62 2.478 2.48v3.492a4.367 4.367 0 01-.789 2.536l-13.746 20.169h12.338c1.859 0 2.479.619 2.479 2.479v6.366c0 1.859-.62 2.479-2.479 2.479h-27.666c-1.858 0-2.478-.62-2.478-2.479v-3.551a4.318 4.318 0 01.789-2.479l13.8-20.225h-11.831c-1.859 0-2.479-.619-2.479-2.479V2.479c0-1.86.62-2.48 2.479-2.48zM16.001 15.667c0-9.724 6.4-15.667 17.6-15.667 8.662 0 14.234 3.3 16.717 9.833.607 1.674.166 2.43-1.545 3.025l-7.5 2.593c-1.765.487-2.428.217-3.09-1.512-.883-2.215-1.986-3.079-4.579-3.079-3.751 0-4.8 1.3-4.8 4.754v8.752c0 3.457 1.049 4.754 4.8 4.754a4.5 4.5 0 004.634-3.079c.663-1.729 1.38-2.106 3.091-1.513l7.447 2.594c1.711.594 2.152 1.4 1.545 3.079-2.483 6.537-8.055 9.778-16.717 9.778-11.2 0-17.6-5.942-17.6-15.667zM0 13.875c0-1.6.607-2.207 2.207-2.207h8.386c1.6 0 2.207.607 2.207 2.207v23.917c0 1.6-.607 2.207-2.207 2.207H2.207c-1.6 0-2.207-.607-2.207-2.207zM9.855 0C12.117 0 12.8.754 12.8 2.943v2.191c0 2.189-.755 2.908-2.945 2.908H2.939c-2.19 0-2.944-.719-2.944-2.908V2.943C-.005.754.677 0 2.939 0zm43.912 13.875c0-1.6.607-2.207 2.207-2.207h8.386c1.6 0 2.207.607 2.207 2.207v23.917c0 1.6-.607 2.207-2.207 2.207h-8.386c-1.6 0-2.207-.607-2.207-2.207zM63.622 0c2.262 0 2.945.754 2.945 2.943v2.191c0 2.189-.755 2.908-2.945 2.908h-6.916c-2.19 0-2.944-.719-2.944-2.908V2.943C53.762.754 54.444 0 56.706 0zm43.912 13.875c0-1.6.607-2.207 2.207-2.207h8.386c1.6 0 2.207.607 2.207 2.207v23.917c0 1.6-.607 2.207-2.207 2.207h-8.386c-1.6 0-2.207-.607-2.207-2.207zM117.389 0c2.262 0 2.945.754 2.945 2.943v2.191c0 2.189-.755 2.908-2.945 2.908h-6.916c-2.19 0-2.944-.719-2.944-2.908V2.943c0-2.189.682-2.943 2.944-2.943zm122.609 40h-70a5.006 5.006 0 01-5-5V5a5.006 5.006 0 015-5h70a5.006 5.006 0 015 5v30a5.006 5.006 0 01-5 5zm-37.184-25.863a9.992 9.992 0 00-6.79 2.174 7.78 7.78 0 00-2.4 6v4.512a7.78 7.78 0 002.4 6 9.992 9.992 0 006.79 2.174 9.992 9.992 0 006.79-2.174 7.778 7.778 0 002.4-6v-4.512a7.778 7.778 0 00-2.4-6 9.992 9.992 0 00-6.79-2.174zm-20.623 0a9.965 9.965 0 00-6.788 2.185 7.778 7.778 0 00-2.4 5.99v4.512a7.778 7.778 0 002.4 5.99 9.965 9.965 0 006.788 2.185 11 11 0 005.577-1.271 7.275 7.275 0 003.157-3.832 1.283 1.283 0 00.059-1 1.377 1.377 0 00-.866-.611l-3.89-1.354a2.076 2.076 0 00-.657-.136c-.433 0-.7.26-.959.925a2.359 2.359 0 01-2.421 1.61c-1.9 0-2.507-.6-2.507-2.481v-4.566c0-1.878.609-2.481 2.507-2.481a2.168 2.168 0 012.393 1.606c.257.666.507.9.956.9a2.55 2.55 0 00.659-.113l3.919-1.351a1.376 1.376 0 00.87-.605 1.269 1.269 0 00-.062-.976 7.342 7.342 0 00-3.157-3.845 10.919 10.919 0 00-5.578-1.281zm49.39 9.079h.345a45.119 45.119 0 00-1.268 4.934 20.2 20.2 0 00-.288 3.5v1.747c0 .9.308 1.185 1.268 1.185h4.091c.96 0 1.269-.288 1.269-1.185V15.722c0-.9-.309-1.185-1.269-1.185h-3.717c-.964 0-1.245.152-1.673.9l-4.234 8.74-4.206-8.766c-.443-.719-.761-.875-1.788-.875h-3.517c-.96 0-1.268.288-1.268 1.185v17.675c0 .9.308 1.185 1.268 1.185h3.832c.96 0 1.269-.288 1.269-1.185v-1.718a23.741 23.741 0 00-.23-3.273c-.182-1.1-.609-2.891-1.239-5.186h.346l1.472 4.116 1.293 2.791a1.354 1.354 0 001.443.818h2.536a1.419 1.419 0 001.411-.818l1.239-2.791c.245-.564.8-1.942 1.616-4.115zm-56.22-18.215c-1.787 0-2.36.562-2.36 2.312v1.718c0 1.707.6 2.283 2.36 2.283h1.673c1.767 0 2.363-.576 2.363-2.283V7.313c0-1.75-.574-2.312-2.363-2.312zm27.453 24.334a2.862 2.862 0 01-1.883-.532 2.007 2.007 0 01-.627-1.61v-5.244c0-1.442.821-2.143 2.51-2.143s2.507.7 2.507 2.143v5.244a2.008 2.008 0 01-.627 1.61 2.853 2.853 0 01-1.88.532z" fill="#fff"/></svg>