<svg xmlns="http://www.w3.org/2000/svg" width="275.864" height="40"><path d="M201.479 37.91a.3.3 0 01-.13-.157.307.307 0 01.182-.4c2.083-.785 5.724-2.459 9.073-10.961a21.7 21.7 0 018.984-10.57.8.8 0 01.9.167 14.272 14.272 0 013.586 9.152c.31 8.241-5.507 14.511-14.079 14.833q-.4.021-.8.021a15.272 15.272 0 01-7.716-2.085zm66.6 2.082a7.611 7.611 0 117.786-7.61 7.429 7.429 0 01-7.24 7.618h-.195c-.118 0-.236 0-.354-.008zm-6.177-7.5a6.289 6.289 0 0012.577-.112 6.1 6.1 0 00-5.914-6.29c-.162-.005-.325 0-.486 0a6.289 6.289 0 00-6.179 6.404zM247.917 40l-8.139-11.051h-.109L231.531 40h-6.266l10.721-13.8L225.7 12.839h6.438l7.7 10.556h.109l7.7-10.556h6.268L243.577 26.2 254.348 40zm-85.155-14.515V0h5.225v16.744h.11a11.248 11.248 0 0110.117-5.333c6.983 0 13.69 5.056 13.69 14.294C191.9 33.953 185.852 40 177.278 40s-14.516-5.773-14.516-14.515zm14.4-8.962a9.32 9.32 0 00.109 18.638 8.975 8.975 0 009.352-8.581c.013-.292.011-.585 0-.876a9.32 9.32 0 00-9.315-9.183zM153.273 40V25.866c0-5.882-3.243-8.907-8.192-8.907s-8.192 3.023-8.192 8.907V40h-5.223V25.866c0-9.073 5.387-13.745 13.415-13.745S158.5 16.739 158.5 25.866V40zm-33.15-27.16h5.222V40h-5.222zM85.712 25.7c0-8.249 6.047-14.3 14.62-14.3s14.516 6.047 14.516 14.3v1.931L91.2 27.629v.109a8.667 8.667 0 009.126 7.423c3.519 0 5.993-1.1 7.587-3.463h5.776c-2.09 5.059-7.034 8.3-13.361 8.3C91.754 40 85.712 33.953 85.712 25.7zm11.821-9.02a9.426 9.426 0 00-6.164 6.166v.11h17.978v-.11a9.416 9.416 0 00-11.814-6.166zM61.457 40V11.766C61.457 3.9 66.187 0 73.169 0 80.1 0 84.824 3.957 84.824 11.766v.057h-5.16v-.057c0-4.838-2.64-6.927-6.483-6.927-3.905 0-6.483 2.145-6.483 6.927v4.564h14.9v4.783H66.7V40zm-11.043 0v-6.393H50.3a10.919 10.919 0 01-10.5 6.377c-7.034 0-13.743-5.056-13.743-14.295 0-8.248 6.046-14.3 14.62-14.3s14.517 5.833 14.517 14.521L55.2 40zm-9.843-23.546a9.347 9.347 0 00.111 18.694 8.973 8.973 0 009.351-8.581 8.7 8.7 0 000-.88 9.349 9.349 0 00-9.345-9.238zM18.088 40L5.334 27.464h-.11V40H0V0h5.222v24.773h.111L17.7 12.841h6.873L10.389 26.09 25.07 40zm250.122-6.454h-1.7v2.5h-1.388v-7.334h3.76a2.342 2.342 0 012.58 2.08 2.038 2.038 0 01.013.314 2.283 2.283 0 01-1.767 2.345v.043l2.012 2.551-1.677.006zm-1.7-1.21h2.237a1.211 1.211 0 00.182-2.415.877.877 0 00-.182 0h-2.237zM198.094 35a14.263 14.263 0 01-3.253-9.305c0-8.247 6.043-14.294 14.62-14.294a15.292 15.292 0 018.433 2.389.307.307 0 01-.073.544c-2.11.711-5.813 2.246-9.479 10.621-2.444 6.75-6.415 8.51-9.272 10.194a.8.8 0 01-.977-.148zM119.077 5.306a3.629 3.629 0 113.628 3.686 3.629 3.629 0 01-3.628-3.686z" fill="#fff"/></svg>