<svg xmlns="http://www.w3.org/2000/svg" xmlns:xlink="http://www.w3.org/1999/xlink" width="307.669" height="30" viewBox="0 0 307.669 30"><defs><linearGradient id="a" y1="0.5" x2="1" y2="0.5" gradientUnits="objectBoundingBox"><stop offset="0.452" stop-color="#fbba00"/><stop offset="1" stop-color="#fcea0d"/></linearGradient></defs><g transform="translate(460 -62.5)"><g transform="translate(-1098 -446.5)"><g transform="translate(638 509)"><g transform="translate(0 0)"><g transform="translate(0 0.028)"><circle cx="5.27" cy="5.27" r="5.27" transform="translate(0 19.374)" fill="#225cff"/><g transform="translate(10.429)"><path d="M-2958.513,744.189l-11.19-18.81a5.188,5.188,0,0,0-2.048-2.422h0a5.2,5.2,0,0,0-4.008-.641c-.093.021-.184.051-.276.077-.051.016-.1.028-.155.045a5.217,5.217,0,0,0-1.055.476,5.2,5.2,0,0,0-2.057,2.274l-7.357,11.758-7.267-12.216a5.22,5.22,0,0,0-7.158-1.816,5.22,5.22,0,0,0-1.814,7.153l11.575,19.458a5.22,5.22,0,0,0,7.157,1.816,5.238,5.238,0,0,0,.969-.75,5.227,5.227,0,0,0,1.1-1.248l7.438-11.887,7.179,12.068a5.219,5.219,0,0,0,7.157,1.816A5.22,5.22,0,0,0-2958.513,744.189Z" transform="translate(3003.633 -722.165)" fill="#225cff"/></g></g><g transform="translate(0)"><circle cx="5.27" cy="5.27" r="5.27" transform="translate(0 19.374)" fill="url(#a)"/><g transform="translate(10.429)"><path d="M1185.6,261.634l-11.189-18.81a5.192,5.192,0,0,0-2.049-2.421h0a5.2,5.2,0,0,0-4.008-.64c-.093.021-.184.051-.276.077-.052.016-.1.028-.155.045a5.187,5.187,0,0,0-3.112,2.75l-7.358,11.758-7.267-12.216a5.22,5.22,0,0,0-8.972,5.337l11.575,19.458a5.55,5.55,0,0,0,9.222-.182l7.438-11.887,7.179,12.068a5.22,5.22,0,1,0,8.972-5.337Z" transform="translate(-1140.484 -239.61)" fill="url(#a)"/></g></g></g><g transform="translate(68.999 0)"><path d="M-2881.045,737.456a15.643,15.643,0,0,1,15.889-15.319,16.118,16.118,0,0,1,10.207,3.292,2.82,2.82,0,0,0,3.513.037,16.5,16.5,0,0,1,9.895-3.347c9.14,0,15.613,6.179,15.613,15.319V749.3a2.758,2.758,0,0,1-2.759,2.759h-2.354a2.758,2.758,0,0,1-2.759-2.759V737.456c0-6.768-7.154-10.832-14.528-5.7a2.834,2.834,0,0,0-1.232,2.3v15.264a2.758,2.758,0,0,1-2.759,2.759h-2.354a2.759,2.759,0,0,1-2.759-2.759V734.053a2.759,2.759,0,0,0-1.232-2.3c-7.356-5.131-14.529-1.048-14.529,5.7v11.862a2.759,2.759,0,0,1-2.759,2.759h-2.335a2.758,2.758,0,0,1-2.759-2.759Z" transform="translate(2881.045 -722.112)" fill="#fff"/><path d="M-2752.24,736.749V726.056a3.943,3.943,0,0,1,3.936-3.937h0a3.943,3.943,0,0,1,3.938,3.937v10.233a8.276,8.276,0,0,0,8.108,8.44,8.224,8.224,0,0,0,1.074-.048,7.712,7.712,0,0,0,6.569-7.908V726.056a3.942,3.942,0,0,1,3.941-3.937h0a3.943,3.943,0,0,1,3.938,3.937v10.692a15.655,15.655,0,0,1-15.9,15.329C-2745.763,752.1-2752.24,745.895-2752.24,736.749Z" transform="translate(2813.78 -722.113)" fill="#fff"/><path d="M-2672.34,748.69a3.392,3.392,0,0,1,3.39-3.393h16.651a2.356,2.356,0,0,0,2.452-2.256c0-.065,0-.13,0-.2a2.312,2.312,0,0,0-2.326-2.3l-.124,0h-11.671a9.184,9.184,0,0,1-9.219-9.149v-.077a9.379,9.379,0,0,1,9.219-9.219h14.479a3.391,3.391,0,0,1,3.393,3.389v0h0a3.391,3.391,0,0,1-3.389,3.393h-13.578a2.529,2.529,0,0,0-2.6,2.459,2.57,2.57,0,0,0,.021.406,2.323,2.323,0,0,0,2.391,1.885h11.671a9.09,9.09,0,0,1,9.219,8.96q0,.13,0,.26a9.486,9.486,0,0,1-9.219,9.219h-17.368a3.392,3.392,0,0,1-3.393-3.389v0Z" transform="translate(2772.496 -722.106)" fill="#fff"/><path d="M-2572.974,752.079v-3.165a11.723,11.723,0,0,1-8.524,3.165c-8.667,0-14.713-6.041-14.713-14.979a15.406,15.406,0,0,1,15.828-14.971,15.4,15.4,0,0,1,5.233,1.072,15.769,15.769,0,0,1,9.728,14.8v12.282a1.8,1.8,0,0,1-1.8,1.8Zm-.125-14.944a7.992,7.992,0,0,0-7.463-7.858,7.564,7.564,0,0,0-7.927,7.183,7.476,7.476,0,0,0,.019,1.017,8.055,8.055,0,0,0,7.678,7.463,7.554,7.554,0,0,0,7.694-7.41c0-.132,0-.264,0-.4Z" transform="translate(2732.298 -722.115)" fill="#fff"/><path d="M-2514.232,722.119h0a3.678,3.678,0,0,1,3.467,2.411l6.405,17.26a.824.824,0,0,0,1.06.485.824.824,0,0,0,.485-.485l6.405-17.26a3.707,3.707,0,0,1,3.469-2.411h0a3.7,3.7,0,0,1,3.7,3.71,3.7,3.7,0,0,1-.268,1.376l-9.1,22.554a3.71,3.71,0,0,1-3.43,2.317h-3.071a3.709,3.709,0,0,1-3.43-2.317l-9.117-22.536a3.714,3.714,0,0,1,2.05-4.835A3.724,3.724,0,0,1-2514.232,722.119Z" transform="translate(2691.418 -722.113)" fill="#fff"/><path d="M-2398.595,722.12c1.593,0,1.65,1.292,1.65,2.884v3.664a.956.956,0,0,1-.956.956h-1.344a3.552,3.552,0,0,0-3.752,3.339,3.765,3.765,0,0,0,0,.413V749.23a2.883,2.883,0,0,1-2.883,2.883h-2.3a2.884,2.884,0,0,1-2.884-2.883h0l0-15.873a10.812,10.812,0,0,1,10.37-11.237" transform="translate(2635.615 -722.113)" fill="#fff"/><g transform="translate(208.429 0.005)"><path d="M-2444.742,727.916a5.062,5.062,0,0,1,4.271-5.746,5.066,5.066,0,0,1,2.022.111,4.81,4.81,0,0,1,3.335,3.241,4.974,4.974,0,0,1-3.17,6.28,4.976,4.976,0,0,1-6.281-3.171,5.064,5.064,0,0,1-.178-.719Z" transform="translate(2444.796 -722.116)" fill="#fff"/><path d="M-2438.679,748.773h0a4.046,4.046,0,0,1,4.033,4.033v9.158a4.045,4.045,0,0,1-4.033,4.033h0a4.045,4.045,0,0,1-4.033-4.033v-9.139A4.046,4.046,0,0,1-2438.679,748.773Z" transform="translate(2443.708 -736.037)" fill="#fff"/></g></g></g></g></g></svg>