<svg xmlns="http://www.w3.org/2000/svg" width="266.597" height="26.037" viewBox="0 0 266.597 26.037"><g transform="translate(-9858.393 1165)"><g transform="translate(9917.876 -1164.996)"><path d="M-2881.044,735.428a13.575,13.575,0,0,1,13.789-13.294,13.991,13.991,0,0,1,8.857,2.857,2.447,2.447,0,0,0,3.048.032,14.316,14.316,0,0,1,8.586-2.9c7.931,0,13.549,5.362,13.549,13.294V745.71a2.394,2.394,0,0,1-2.394,2.394h-2.043a2.394,2.394,0,0,1-2.394-2.394V735.428c0-5.873-6.208-9.4-12.607-4.948a2.461,2.461,0,0,0-1.07,1.995v13.246a2.394,2.394,0,0,1-2.394,2.394h-2.043a2.394,2.394,0,0,1-2.394-2.394V732.475a2.394,2.394,0,0,0-1.069-1.995c-6.384-4.452-12.608-.91-12.608,4.948v10.294a2.394,2.394,0,0,1-2.394,2.394h-2.026a2.394,2.394,0,0,1-2.394-2.394Z" transform="translate(2881.044 -722.113)" fill="#fff"/><path d="M-2752.24,734.814v-9.278a3.421,3.421,0,0,1,3.415-3.417h0a3.422,3.422,0,0,1,3.417,3.417v8.88a7.181,7.181,0,0,0,7.036,7.324,7.164,7.164,0,0,0,.933-.042,6.692,6.692,0,0,0,5.7-6.862v-9.3a3.422,3.422,0,0,1,3.42-3.417h0a3.423,3.423,0,0,1,3.417,3.417v9.278a13.585,13.585,0,0,1-13.8,13.3C-2746.619,748.132-2752.24,742.751-2752.24,734.814Z" transform="translate(2805.643 -722.114)" fill="#fff"/><path d="M-2672.451,745.175a2.943,2.943,0,0,1,2.941-2.944h14.449a2.044,2.044,0,0,0,2.127-1.958q0-.085,0-.17a2.006,2.006,0,0,0-2.018-1.994h-10.235a7.97,7.97,0,0,1-8-7.94V730.1a8.14,8.14,0,0,1,8-8h12.565a2.943,2.943,0,0,1,2.944,2.941h0a2.943,2.943,0,0,1-2.941,2.945H-2664.4a2.194,2.194,0,0,0-2.253,2.134,2.232,2.232,0,0,0,.019.352,2.016,2.016,0,0,0,2.075,1.636h10.128a7.889,7.889,0,0,1,8,7.776v.225a8.231,8.231,0,0,1-8,8H-2669.5a2.943,2.943,0,0,1-2.945-2.941h0Z" transform="translate(2759.366 -722.106)" fill="#fff"/><path d="M-2576.046,748.118v-2.747a10.174,10.174,0,0,1-7.4,2.746c-7.522,0-12.768-5.242-12.768-13a13.368,13.368,0,0,1,13.735-12.992,13.361,13.361,0,0,1,4.541.93A13.685,13.685,0,0,1-2569.5,735.9v10.658a1.565,1.565,0,0,1-1.561,1.561Zm-.109-12.969a6.935,6.935,0,0,0-6.476-6.819,6.564,6.564,0,0,0-6.879,6.234,6.606,6.606,0,0,0,.017.882,6.99,6.99,0,0,0,6.662,6.477,6.555,6.555,0,0,0,6.677-6.43v-.343Z" transform="translate(2714.304 -722.115)" fill="#fff"/><path d="M-2514.721,722.119h0a3.193,3.193,0,0,1,3.009,2.093l5.559,14.978a.715.715,0,0,0,.919.421.717.717,0,0,0,.421-.421l5.558-14.978a3.218,3.218,0,0,1,3.01-2.093h0a3.215,3.215,0,0,1,3.209,3.22,3.226,3.226,0,0,1-.232,1.194l-7.9,19.572a3.22,3.22,0,0,1-2.976,2.011h-2.666a3.219,3.219,0,0,1-2.976-2.011l-7.911-19.556a3.224,3.224,0,0,1,.019-2.469,3.223,3.223,0,0,1,1.761-1.731,3.227,3.227,0,0,1,1.2-.23Z" transform="translate(2668.48 -722.114)" fill="#fff"/><path d="M-2400.245,722.12c1.382,0,1.432,1.121,1.432,2.5v3.18a.828.828,0,0,1-.243.587.829.829,0,0,1-.587.243h-1.167a3.081,3.081,0,0,0-3.255,2.9,2.985,2.985,0,0,0,0,.359v13.758a2.5,2.5,0,0,1-2.5,2.5h-1.994a2.5,2.5,0,0,1-2.5-2.5h0V731.873a9.381,9.381,0,0,1,9-9.751" transform="translate(2605.927 -722.114)" fill="#fff"/><g transform="translate(180.871 0.004)"><path d="M-2444.749,727.149a4.393,4.393,0,0,1,3.706-4.986,4.393,4.393,0,0,1,1.755.1,4.175,4.175,0,0,1,2.9,2.812,4.317,4.317,0,0,1-2.75,5.45,4.318,4.318,0,0,1-5.451-2.751,4.353,4.353,0,0,1-.155-.624Z" transform="translate(2444.796 -722.116)" fill="#fff"/><path d="M-2439.211,748.773h0a3.512,3.512,0,0,1,3.5,3.5v7.947a3.511,3.511,0,0,1-3.5,3.5h0a3.511,3.511,0,0,1-3.5-3.5v-7.931a3.511,3.511,0,0,1,3.5-3.516Z" transform="translate(2443.576 -737.721)" fill="#fff"/></g></g><g transform="translate(9858.393 -1165)"><circle cx="4.573" cy="4.573" r="4.573" transform="translate(0 16.812)" fill="#225cff"/><g transform="translate(9.05)"><path d="M-2964.479,741.276l-9.71-16.323a4.5,4.5,0,0,0-1.778-2.1h0a4.512,4.512,0,0,0-3.477-.556c-.081.019-.16.044-.24.067-.044.014-.09.025-.134.039a4.514,4.514,0,0,0-.915.413,4.5,4.5,0,0,0-1.785,1.973l-6.385,10.2-6.306-10.6a4.529,4.529,0,0,0-6.21-1.576,4.529,4.529,0,0,0-1.575,6.207l10.044,16.884a4.529,4.529,0,0,0,6.21,1.576,4.5,4.5,0,0,0,.841-.651,4.53,4.53,0,0,0,.95-1.083l6.455-10.315,6.23,10.472a4.528,4.528,0,0,0,6.21,1.576A4.53,4.53,0,0,0-2964.479,741.276Z" transform="translate(3003.633 -722.165)" fill="#225cff"/></g></g></g></svg>