<svg xmlns="http://www.w3.org/2000/svg" width="307.669" height="30"><defs><linearGradient id="a" y1=".5" x2="1" y2=".5" gradientUnits="objectBoundingBox"><stop offset=".452" stop-color="#fbba00"/><stop offset="1" stop-color="#fcea0d"/></linearGradient></defs><g transform="translate(0 .028)" fill="#225cff"><circle cx="5.27" cy="5.27" r="5.27" transform="translate(0 19.374)"/><path d="M55.549 22.024l-11.19-18.81A5.188 5.188 0 0042.311.792a5.2 5.2 0 00-4.008-.641c-.093.021-.184.051-.276.077-.051.016-.1.028-.155.045a5.217 5.217 0 00-1.055.476 5.2 5.2 0 00-2.057 2.274l-7.357 11.758-7.267-12.216A5.22 5.22 0 0012.978.749a5.22 5.22 0 00-1.814 7.153L22.739 27.36a5.22 5.22 0 007.157 1.816 5.238 5.238 0 00.969-.75 5.227 5.227 0 001.1-1.248l7.438-11.887 7.179 12.068a5.219 5.219 0 007.157 1.816 5.22 5.22 0 001.81-7.151z"/></g><g fill="url(#a)"><circle cx="5.27" cy="5.27" r="5.27" transform="translate(0 19.374)"/><path d="M55.545 22.024L44.356 3.214A5.192 5.192 0 0042.307.793a5.2 5.2 0 00-4.008-.64c-.093.021-.184.051-.276.077l-.155.045a5.187 5.187 0 00-3.112 2.75l-7.358 11.758-7.267-12.216a5.22 5.22 0 00-8.972 5.337l11.575 19.458a5.55 5.55 0 009.222-.182l7.438-11.887 7.179 12.068a5.22 5.22 0 108.972-5.337z"/></g><path d="M68.999 15.344A15.643 15.643 0 0184.888.025a16.118 16.118 0 0110.207 3.292 2.82 2.82 0 003.513.037 16.5 16.5 0 019.895-3.347c9.14 0 15.613 6.179 15.613 15.319v11.862a2.758 2.758 0 01-2.759 2.759h-2.354a2.758 2.758 0 01-2.759-2.759V15.344c0-6.768-7.154-10.832-14.528-5.7a2.834 2.834 0 00-1.232 2.3v15.264a2.758 2.758 0 01-2.759 2.759h-2.354a2.759 2.759 0 01-2.759-2.759V11.941a2.759 2.759 0 00-1.232-2.3c-7.356-5.131-14.529-1.048-14.529 5.7v11.862a2.759 2.759 0 01-2.759 2.759h-2.335a2.758 2.758 0 01-2.759-2.759zm61.54-.708V3.943a3.943 3.943 0 013.936-3.937 3.943 3.943 0 013.938 3.937v10.233a8.276 8.276 0 008.108 8.44 8.224 8.224 0 001.074-.048 7.712 7.712 0 006.569-7.908V3.943a3.942 3.942 0 013.941-3.937 3.943 3.943 0 013.938 3.937v10.692a15.655 15.655 0 01-15.9 15.329c-9.127.023-15.604-6.182-15.604-15.328zm38.616 11.948a3.392 3.392 0 013.39-3.393h16.651a2.356 2.356 0 002.452-2.256v-.2a2.312 2.312 0 00-2.326-2.3h-11.795a9.184 9.184 0 01-9.219-9.149v-.077a9.379 9.379 0 019.219-9.219h14.479a3.391 3.391 0 013.393 3.389 3.391 3.391 0 01-3.389 3.393h-13.578a2.529 2.529 0 00-2.6 2.459 2.57 2.57 0 00.021.406 2.323 2.323 0 002.391 1.885h11.671a9.09 9.09 0 019.219 8.96v.26a9.486 9.486 0 01-9.219 9.219h-17.368a3.392 3.392 0 01-3.393-3.389zm59.168 3.38v-3.165a11.723 11.723 0 01-8.524 3.165c-8.667 0-14.713-6.041-14.713-14.979A15.406 15.406 0 01220.914.014a15.4 15.4 0 015.233 1.072 15.769 15.769 0 019.728 14.8v12.282a1.8 1.8 0 01-1.8 1.8zm-.125-14.944a7.992 7.992 0 00-7.463-7.858 7.564 7.564 0 00-7.927 7.183 7.476 7.476 0 00.019 1.017 8.055 8.055 0 007.678 7.463 7.554 7.554 0 007.694-7.41v-.4zM246.185.006a3.678 3.678 0 013.467 2.411l6.405 17.26a.824.824 0 001.06.485.824.824 0 00.485-.485l6.405-17.26a3.707 3.707 0 013.469-2.411 3.7 3.7 0 013.7 3.71 3.7 3.7 0 01-.268 1.376l-9.1 22.554a3.71 3.71 0 01-3.43 2.317h-3.071a3.709 3.709 0 01-3.43-2.317L242.76 5.11a3.714 3.714 0 012.05-4.835 3.724 3.724 0 011.375-.269zm59.834.001c1.593 0 1.65 1.292 1.65 2.884v3.664a.956.956 0 01-.956.956h-1.344a3.552 3.552 0 00-3.752 3.339 3.765 3.765 0 000 .413v15.854A2.883 2.883 0 01298.734 30h-2.3a2.884 2.884 0 01-2.884-2.883V11.244A10.812 10.812 0 01303.92.007m-26.438 5.798a5.062 5.062 0 014.271-5.746 5.066 5.066 0 012.022.111 4.81 4.81 0 013.335 3.241 4.974 4.974 0 01-3.17 6.28 4.976 4.976 0 01-6.281-3.171 5.064 5.064 0 01-.178-.719zm4.975 6.936a4.046 4.046 0 014.033 4.033v9.158a4.045 4.045 0 01-4.033 4.033 4.045 4.045 0 01-4.033-4.033v-9.139a4.046 4.046 0 014.033-4.052z" fill="#fff"/></svg>