<svg xmlns="http://www.w3.org/2000/svg" width="117.311" height="41" viewBox="0 0 117.311 41"><g transform="translate(-2005.5 -4288.5)"><path d="M20,40a20,20,0,0,1-9.843-2.586V13.594a1.289,1.289,0,0,0-2.578,0V35.675a20.188,20.188,0,0,1-5.52-6.829A19.994,19.994,0,0,1,20,0a20.017,20.017,0,0,1,9.688,2.5V26.406a1.289,1.289,0,0,0,2.578,0V4.2A20.19,20.19,0,0,1,37.9,11.064,19.994,19.994,0,0,1,20,40Zm0-27.656a7.664,7.664,0,0,0-7.054,4.676,7.569,7.569,0,0,0-.446,1.436,7.728,7.728,0,0,0,0,3.087c.02.1.045.206.076.333a7.429,7.429,0,0,0,.3.939c.022.056.044.111.068.166a7.687,7.687,0,0,0,4.074,4.074,7.567,7.567,0,0,0,1.437.446,7.724,7.724,0,0,0,3.086,0,7.594,7.594,0,0,0,1.437-.446,7.687,7.687,0,0,0,4.074-4.074,7.594,7.594,0,0,0,.446-1.437,7.729,7.729,0,0,0,0-3.087l-.014-.064-.014-.064a7.642,7.642,0,0,0-.419-1.309L27.044,17l-.011-.025a7.607,7.607,0,0,0-.685-1.251l-.026-.038a7.673,7.673,0,0,0-3-2.581c-.1-.048-.209-.1-.344-.156a7.643,7.643,0,0,0-2.98-.6ZM20,25a4.963,4.963,0,0,1-1.946-.392c-.094-.039-.192-.085-.292-.134a5.185,5.185,0,0,1-.558-.327,5.01,5.01,0,0,1-1.812-2.2c-.041-.1-.079-.2-.113-.291A4.993,4.993,0,0,1,15,20.064V20a4.979,4.979,0,0,1,.392-1.946,5.01,5.01,0,0,1,2.661-2.661,4.992,4.992,0,0,1,4.741.461,5.064,5.064,0,0,1,.676.547l.022.022.005,0,.037.037a5.027,5.027,0,0,1,.577.691l.034.049a5.076,5.076,0,0,1,.284.475c.062.116.12.239.177.374A5.009,5.009,0,0,1,22.8,24.146a5.027,5.027,0,0,1-.849.461A4.966,4.966,0,0,1,20,25Z" transform="translate(2006 4289)" fill="#fff" stroke="rgba(0,0,0,0)" stroke-miterlimit="10" stroke-width="1"/><g transform="translate(2053.5 4298)" style="isolation:isolate"><path d="M1979.309,883.654a1.852,1.852,0,0,1,.7-1.476,3.129,3.129,0,0,1,2.064-.588v1.3q-.408.552-.456.648l.1.1a5.562,5.562,0,0,1,1.692-1.524,4.647,4.647,0,0,1,2.292-.516,4.928,4.928,0,0,1,2.34.54,3.954,3.954,0,0,1,1.6,1.524,4.385,4.385,0,0,1,.577,2.256V889.7a4.106,4.106,0,0,1-.637,2.28,4.161,4.161,0,0,1-1.74,1.512,5.718,5.718,0,0,1-2.5.528,5.017,5.017,0,0,1-1.835-.371,4.6,4.6,0,0,1-1.6-1.02l-.1.12a2.3,2.3,0,0,0,.528.5v3.552q0,2.017-3.024,2.016Zm7.273,7.272a1.692,1.692,0,0,0,.647-1.416V886.1a1.7,1.7,0,0,0-.635-1.428,2.953,2.953,0,0,0-1.836-.492,2.909,2.909,0,0,0-1.776.516,1.548,1.548,0,0,0-.7,1.284v3.648a1.565,1.565,0,0,0,.684,1.272,2.844,2.844,0,0,0,1.788.528A2.914,2.914,0,0,0,1986.582,890.927Z" transform="translate(-1979.309 -876.79)" fill="#fff"/><path d="M2006.489,893.458a4.751,4.751,0,0,1-1.979-1.572,3.827,3.827,0,0,1-.72-2.28v-3.384a4.126,4.126,0,0,1,.708-2.352,4.884,4.884,0,0,1,1.955-1.668,6.4,6.4,0,0,1,2.856-.612,6.481,6.481,0,0,1,2.868.612,4.868,4.868,0,0,1,1.968,1.668,4.134,4.134,0,0,1,.708,2.352v3.384a3.785,3.785,0,0,1-.732,2.28,4.843,4.843,0,0,1-1.992,1.572,7.333,7.333,0,0,1-5.64,0Zm4.7-2.555a1.814,1.814,0,0,0,.685-1.489v-3.048a2.042,2.042,0,0,0-.685-1.6,3.187,3.187,0,0,0-3.756,0,2.025,2.025,0,0,0-.7,1.6v3.048a1.8,1.8,0,0,0,.7,1.489,3.473,3.473,0,0,0,3.756,0Z" transform="translate(-1991.549 -876.79)" fill="#fff"/><path d="M2031.413,888.671a4.135,4.135,0,0,1-2.233-3.769V881.11a4.081,4.081,0,0,1,.624-2.232,4.231,4.231,0,0,1,1.74-1.536,5.529,5.529,0,0,1,2.485-.552,5.028,5.028,0,0,1,1.836.371,4.807,4.807,0,0,1,1.6,1l.1-.12a2.043,2.043,0,0,0-.527-.48v-3.552a1.71,1.71,0,0,1,.756-1.488,4.023,4.023,0,0,1,2.292-.528v15.168a1.881,1.881,0,0,1-.672,1.476,3.113,3.113,0,0,1-2.089.588V887.9a5.757,5.757,0,0,0,.456-.624l-.12-.1a5.431,5.431,0,0,1-1.644,1.524,4.513,4.513,0,0,1-2.268.516A4.86,4.86,0,0,1,2031.413,888.671Zm4.979-2.557a1.574,1.574,0,0,0,.684-1.308v-3.624a1.555,1.555,0,0,0-.684-1.284,3.466,3.466,0,0,0-3.6-.024,1.672,1.672,0,0,0-.635,1.4v3.409a1.722,1.722,0,0,0,.635,1.451,2.953,2.953,0,0,0,1.836.492A2.848,2.848,0,0,0,2036.392,886.114Z" transform="translate(-2004.245 -871.99)" fill="#fff"/><path d="M2056.588,874.006a1.71,1.71,0,0,1,.756-1.488,3.97,3.97,0,0,1,2.267-.528v5.568a4.149,4.149,0,0,0-.527.48l.1.12a4.673,4.673,0,0,1,1.692-1,5.8,5.8,0,0,1,1.932-.371,4.794,4.794,0,0,1,3.408,1.188,4.057,4.057,0,0,1,1.271,3.108V884.9a4.077,4.077,0,0,1-.624,2.232,4.32,4.32,0,0,1-1.68,1.536,4.805,4.805,0,0,1-2.256.551,4.578,4.578,0,0,1-2.22-.516,5.457,5.457,0,0,1-1.716-1.524l-.1.1a2.078,2.078,0,0,0,.24.336c.1.112.168.2.216.265a1.077,1.077,0,0,1-.647,1.007,4.881,4.881,0,0,1-2.112.336Zm7.284,12.132a1.722,1.722,0,0,0,.636-1.451v-3.409a1.657,1.657,0,0,0-.648-1.4,2.961,2.961,0,0,0-1.824-.492,2.866,2.866,0,0,0-1.764.528,1.552,1.552,0,0,0-.708,1.272v3.624a1.565,1.565,0,0,0,.7,1.308,2.9,2.9,0,0,0,1.776.516A2.953,2.953,0,0,0,2063.872,886.138Z" transform="translate(-2017.948 -871.99)" fill="#fff"/><path d="M2084.271,875.146a1.721,1.721,0,0,1-.564-1.332,1.694,1.694,0,0,1,.564-1.308,2.234,2.234,0,0,1,2.856,0,1.7,1.7,0,0,1,.564,1.308,1.723,1.723,0,0,1-.564,1.332,2.236,2.236,0,0,1-2.856,0Zm-.084,3.468a1.482,1.482,0,0,1,.744-1.4,4.732,4.732,0,0,1,2.256-.42V887.4a1.489,1.489,0,0,1-.744,1.392,4.621,4.621,0,0,1-2.256.431Z" transform="translate(-2031.508 -871.99)" fill="#fff"/><path d="M2098.575,893.542a3.981,3.981,0,0,1-1.632-1.38,3.725,3.725,0,0,1-.612-2.148,3.687,3.687,0,0,1,.648-2.172,4.141,4.141,0,0,1,1.764-1.416,6.041,6.041,0,0,1,2.46-.492,5.33,5.33,0,0,1,1.98.348,5.144,5.144,0,0,1,1.62,1.044l.12-.12q-.216-.216-.744-.648v-.48a1.919,1.919,0,0,0-.7-1.56,2.966,2.966,0,0,0-1.944-.576,3.637,3.637,0,0,0-3.288,1.632,2.1,2.1,0,0,1-.888-.54,1.141,1.141,0,0,1-.36-.8,1.778,1.778,0,0,1,.648-1.32,4.673,4.673,0,0,1,1.752-.96,7.7,7.7,0,0,1,2.4-.36,5.885,5.885,0,0,1,3.936,1.188,4.024,4.024,0,0,1,1.392,3.228v6a1.757,1.757,0,0,1-.672,1.536,3.678,3.678,0,0,1-2.112.48v-.984a6.615,6.615,0,0,0,.552-.6l-.1-.12a5.773,5.773,0,0,1-1.692,1.272,5.31,5.31,0,0,1-2.292.431A5.2,5.2,0,0,1,2098.575,893.542Zm4.956-2.184a1.562,1.562,0,0,0,.7-1.368,1.6,1.6,0,0,0-.708-1.368,3.231,3.231,0,0,0-1.908-.5,2.777,2.777,0,0,0-1.74.492,1.647,1.647,0,0,0-.636,1.38,1.616,1.616,0,0,0,.624,1.38,2.825,2.825,0,0,0,1.728.469A3.385,3.385,0,0,0,2103.531,891.358Z" transform="translate(-2037.82 -876.79)" fill="#fff"/></g></g></svg>