<svg xmlns="http://www.w3.org/2000/svg" width="117.311" height="41"><g fill="#fff"><path d="M20.5 40.5a20 20 0 01-9.843-2.586v-23.82a1.289 1.289 0 00-2.578 0v22.081a20.188 20.188 0 01-5.52-6.829A19.994 19.994 0 0120.5.5 20.017 20.017 0 0130.188 3v23.906a1.289 1.289 0 002.578 0V4.7a20.19 20.19 0 015.634 6.864A19.994 19.994 0 0120.5 40.5zm0-27.656a7.664 7.664 0 00-7.054 4.676A7.569 7.569 0 0013 18.956a7.728 7.728 0 000 3.087c.02.1.045.206.076.333a7.429 7.429 0 00.3.939c.022.056.044.111.068.166a7.687 7.687 0 004.074 4.074 7.567 7.567 0 001.437.446 7.724 7.724 0 003.086 0 7.594 7.594 0 001.437-.446 7.687 7.687 0 004.074-4.074 7.594 7.594 0 00.446-1.437 7.729 7.729 0 000-3.087l-.014-.064-.014-.064a7.642 7.642 0 00-.419-1.309l-.007-.02-.011-.025a7.607 7.607 0 00-.685-1.251l-.026-.038a7.673 7.673 0 00-3-2.581c-.1-.048-.209-.1-.344-.156a7.643 7.643 0 00-2.98-.6zm0 12.656a4.963 4.963 0 01-1.946-.392 5.223 5.223 0 01-.292-.134 5.185 5.185 0 01-.558-.327 5.01 5.01 0 01-1.812-2.2c-.041-.1-.079-.2-.113-.291a4.993 4.993 0 01-.279-1.592V20.5a4.979 4.979 0 01.392-1.946 5.01 5.01 0 012.661-2.661 4.992 4.992 0 014.741.461 5.064 5.064 0 01.676.547l.022.022h.005l.037.037a5.027 5.027 0 01.577.691l.034.049a5.076 5.076 0 01.284.475c.062.116.12.239.177.374a5.009 5.009 0 01-1.806 6.097 5.027 5.027 0 01-.849.461 4.966 4.966 0 01-1.951.393z" stroke="rgba(0,0,0,0)" stroke-miterlimit="10"/><path d="M48 16.364a1.852 1.852 0 01.7-1.476 3.129 3.129 0 012.064-.588v1.3q-.408.552-.456.648l.1.1a5.562 5.562 0 011.692-1.524 4.647 4.647 0 012.292-.516 4.928 4.928 0 012.34.54 3.954 3.954 0 011.6 1.524 4.385 4.385 0 01.577 2.256v3.782a4.106 4.106 0 01-.637 2.28 4.161 4.161 0 01-1.74 1.512 5.718 5.718 0 01-2.5.528 5.017 5.017 0 01-1.835-.371 4.6 4.6 0 01-1.6-1.02l-.1.12a2.3 2.3 0 00.528.5v3.552q0 2.017-3.024 2.016zm7.273 7.272a1.692 1.692 0 00.647-1.416v-3.41a1.7 1.7 0 00-.635-1.428 2.953 2.953 0 00-1.836-.492 2.909 2.909 0 00-1.776.516 1.548 1.548 0 00-.7 1.284v3.648a1.565 1.565 0 00.684 1.272 2.844 2.844 0 001.788.528 2.914 2.914 0 001.828-.501zm7.667 2.532a4.751 4.751 0 01-1.979-1.572 3.827 3.827 0 01-.72-2.28v-3.384a4.126 4.126 0 01.708-2.352 4.884 4.884 0 011.955-1.668 6.4 6.4 0 012.856-.612 6.481 6.481 0 012.868.612 4.868 4.868 0 011.968 1.668 4.134 4.134 0 01.708 2.352v3.384a3.785 3.785 0 01-.732 2.28 4.843 4.843 0 01-1.992 1.572 7.333 7.333 0 01-5.64 0zm4.7-2.555a1.814 1.814 0 00.685-1.489v-3.048a2.042 2.042 0 00-.685-1.6 3.187 3.187 0 00-3.756 0 2.025 2.025 0 00-.7 1.6v3.048a1.8 1.8 0 00.7 1.489 3.473 3.473 0 003.756 0zm7.528 2.568a4.135 4.135 0 01-2.233-3.769V18.62a4.081 4.081 0 01.624-2.232 4.231 4.231 0 011.74-1.536 5.529 5.529 0 012.485-.552 5.028 5.028 0 011.836.371 4.807 4.807 0 011.6 1l.1-.12a2.043 2.043 0 00-.527-.48v-3.552a1.71 1.71 0 01.756-1.488 4.023 4.023 0 012.292-.528v15.168a1.881 1.881 0 01-.672 1.476 3.113 3.113 0 01-2.089.588V25.41a5.757 5.757 0 00.456-.624l-.12-.1a5.431 5.431 0 01-1.644 1.524 4.513 4.513 0 01-2.268.516 4.86 4.86 0 01-2.336-.545zm4.979-2.557a1.574 1.574 0 00.684-1.308v-3.624a1.555 1.555 0 00-.684-1.284 3.466 3.466 0 00-3.6-.024 1.672 1.672 0 00-.635 1.4v3.409a1.722 1.722 0 00.635 1.451 2.953 2.953 0 001.836.492 2.848 2.848 0 001.764-.512zm6.493-12.108a1.71 1.71 0 01.756-1.488 3.97 3.97 0 012.267-.528v5.568a4.149 4.149 0 00-.527.48l.1.12a4.673 4.673 0 011.692-1 5.8 5.8 0 011.932-.371 4.794 4.794 0 013.408 1.188 4.057 4.057 0 011.271 3.108v3.817a4.077 4.077 0 01-.624 2.232 4.32 4.32 0 01-1.68 1.536 4.805 4.805 0 01-2.256.551 4.578 4.578 0 01-2.22-.516 5.457 5.457 0 01-1.716-1.524l-.1.1a2.078 2.078 0 00.24.336c.1.112.168.2.216.265a1.077 1.077 0 01-.647 1.007 4.881 4.881 0 01-2.112.336zm7.284 12.132a1.722 1.722 0 00.636-1.451v-3.409a1.657 1.657 0 00-.648-1.4 2.961 2.961 0 00-1.824-.492 2.866 2.866 0 00-1.764.528 1.552 1.552 0 00-.708 1.272v3.624a1.565 1.565 0 00.7 1.308 2.9 2.9 0 001.776.516 2.953 2.953 0 001.832-.496zm6.839-10.992a1.721 1.721 0 01-.564-1.332 1.694 1.694 0 01.564-1.308 2.234 2.234 0 012.856 0 1.7 1.7 0 01.564 1.308 1.723 1.723 0 01-.564 1.332 2.236 2.236 0 01-2.856 0zm-.084 3.468a1.482 1.482 0 01.744-1.4 4.732 4.732 0 012.256-.42V24.91a1.489 1.489 0 01-.744 1.392 4.621 4.621 0 01-2.256.431zm8.076 10.128a3.981 3.981 0 01-1.632-1.38 3.725 3.725 0 01-.612-2.148 3.687 3.687 0 01.648-2.172 4.141 4.141 0 011.764-1.416 6.041 6.041 0 012.46-.492 5.33 5.33 0 011.98.348 5.144 5.144 0 011.62 1.044l.12-.12q-.216-.216-.744-.648v-.48a1.919 1.919 0 00-.7-1.56 2.966 2.966 0 00-1.944-.576 3.637 3.637 0 00-3.288 1.632 2.1 2.1 0 01-.888-.54 1.141 1.141 0 01-.36-.8 1.778 1.778 0 01.648-1.32 4.673 4.673 0 011.752-.96 7.7 7.7 0 012.4-.36 5.885 5.885 0 013.936 1.188 4.024 4.024 0 011.392 3.228v6a1.757 1.757 0 01-.672 1.536 3.678 3.678 0 01-2.112.48v-.984a6.615 6.615 0 00.552-.6l-.1-.12a5.773 5.773 0 01-1.692 1.272 5.31 5.31 0 01-2.292.431 5.2 5.2 0 01-2.236-.483zm4.956-2.184a1.562 1.562 0 00.7-1.368 1.6 1.6 0 00-.708-1.368 3.231 3.231 0 00-1.908-.5 2.777 2.777 0 00-1.74.492 1.647 1.647 0 00-.636 1.38 1.616 1.616 0 00.624 1.38 2.825 2.825 0 001.728.469 3.385 3.385 0 001.94-.485z"/></g></svg>