<svg xmlns="http://www.w3.org/2000/svg" width="262.591" height="250"><path d="M125.898 250a34.891 34.891 0 01-4.167-.2 119.56 119.56 0 01-25.845-2.821 118.9 118.9 0 01-23.941-8.069 121.088 121.088 0 01-21.461-12.727 123.712 123.712 0 01-18.407-16.8 125.373 125.373 0 01-15.123-20.868 126.093 126.093 0 01-10.669-23.9 127.309 127.309 0 01-5.587-26.279A131.575 131.575 0 01.806 110.3a124.618 124.618 0 0111.192-39.567 125.833 125.833 0 0122.683-33.108 122.606 122.606 0 0131.717-24.05A116.481 116.481 0 01104.68 1.19 123.9 123.9 0 01121.718 0c3.095 0 6.217.121 9.281.358V30.03a92.34 92.34 0 00-6.359-.22 91.176 91.176 0 00-18.7 1.934 90.6 90.6 0 00-17.416 5.546 92.044 92.044 0 00-15.76 8.776 93.98 93.98 0 00-13.731 11.622 95.415 95.415 0 00-11.329 14.087 96 96 0 00-8.554 16.169 96.525 96.525 0 00-5.406 17.868A98.306 98.306 0 0031.863 125a98.33 98.33 0 001.885 19.187 96.532 96.532 0 005.406 17.869 95.992 95.992 0 008.554 16.17 95.389 95.389 0 0011.329 14.088 93.985 93.985 0 0013.731 11.623 92.1 92.1 0 0015.76 8.776 90.6 90.6 0 0017.416 5.546 91.178 91.178 0 0018.7 1.934c2.109 0 4.248-.074 6.359-.22v29.83a71.501 71.501 0 01-5.105.197z" fill="#1974f8"/><path d="M130.998 219.968c48.269-3.351 86.409-44.585 86.409-94.972s-38.139-91.615-86.409-94.966V.358c38.777 3 72.438 24.683 92.588 56.253.179.248.317.4.5.66 5.767 8.113 9.982 17.866 13.147 28.4a126.9 126.9 0 014.49 19.031 225.602 225.602 0 011.715 11.348c2.147 16.912 2.344 20.913 1.323 37.936q-.272 4.406-.266 8.919c0 27.016 5.491 39.026 18.091 58.873-13.863 5.541-26.35 4.506-38.2 3.473-13.368-1.167-25.924-2.332-38.722 5.953-.7.4-1.366.737-2.052 1.116a118.935 118.935 0 01-29.616 12.9 105.1 105.1 0 01-22.998 4.58z" fill="#fff"/></svg>