<svg xmlns="http://www.w3.org/2000/svg" width="270" height="270" viewBox="0 0 270 270"><g transform="translate(-1272 -1677)"><g transform="translate(1272 1677)" fill="#fff" stroke="#707070" stroke-width="1" opacity="0"><rect width="270" height="270" stroke="none"/><rect x="0.5" y="0.5" width="269" height="269" fill="none"/></g><path d="M148.42,29.21V2.268h3.7V11.95h16.05v3.374h-16.05V29.21c0,4.979,2.758,7.358,7,7.358,4.193,0,7-2.323,7-7.358V28.6h3.587v.608c0,7.193-4.3,10.789-10.591,10.789C152.778,40,148.42,36.4,148.42,29.21Zm-25.426,2.38h3.75c.166,2.932,2.813,5.035,7.391,5.035,4.744,0,7.391-2.214,7.391-5.146,0-3.319-3.475-3.707-7.391-4.206-4.909-.607-10.48-1.381-10.48-7.412,0-5.146,4.027-8.63,10.424-8.63s10.313,3.541,10.423,8.188h-3.639c-.165-2.711-2.647-4.813-6.839-4.813s-6.674,2.1-6.674,4.924c0,3.374,3.53,3.762,7.391,4.26,4.247.553,10.535,1.218,10.535,7.414,0,5.2-4.357,8.8-11.141,8.8C127.406,40,123.16,36.4,122.994,31.59ZM64.53,25.615c0-8.3,6.066-14.384,14.67-14.384s14.56,6.085,14.56,14.384v1.217H68.335c.5,5.7,4.743,9.737,10.865,9.737,4.3,0,7.611-1.77,9.376-4.924H92.6C90.507,36.68,85.544,40,79.2,40,70.6,40,64.53,33.913,64.53,25.615Zm3.916-2.1H89.9c-.882-5.532-5.184-8.851-10.7-8.851C73.52,14.662,69.272,18.146,68.446,23.513ZM32.264,25.5c0-8.41,6.122-14.274,14.119-14.274,5.185,0,9.431,2.435,11.473,6.584V0a3.7,3.7,0,0,1,3.7,3.708V25.45c0,8.8-6.122,14.55-14.561,14.55C38.332,40,32.264,33.913,32.264,25.5Zm3.749.112c0,6.306,4.413,10.952,10.921,10.952,6.564,0,10.921-4.646,10.921-10.952S53.5,14.662,46.935,14.662C40.427,14.662,36.014,19.308,36.014,25.616Zm177.722,14.36a14.234,14.234,0,0,1-13.877-16.054,14.218,14.218,0,0,1,11.92-12.556,13.814,13.814,0,0,1,13.645,6.378c.022.029.038.046.059.076a11.155,11.155,0,0,1,1.509,3.268,14.757,14.757,0,0,1,.515,2.19c.077.432.141.869.2,1.307a17.588,17.588,0,0,1,.151,4.364c-.019.338-.03.68-.03,1.027a10.594,10.594,0,0,0,2.075,6.774,8.939,8.939,0,0,1-4.384.4c-1.533-.134-2.974-.269-4.442.685-.08.047-.157.085-.236.128a13.634,13.634,0,0,1-3.4,1.484,11.081,11.081,0,0,1-3.227.55A3.963,3.963,0,0,1,213.736,39.977ZM203.423,25.614a10.651,10.651,0,1,0,21.294,0,10.651,10.651,0,1,0-21.294,0ZM13.969,39.977A14.234,14.234,0,0,1,.092,23.923a14.218,14.218,0,0,1,11.92-12.556,13.817,13.817,0,0,1,13.646,6.378c.02.029.036.046.057.076a11.216,11.216,0,0,1,1.509,3.268,14.612,14.612,0,0,1,.515,2.19c.077.432.142.869.2,1.307a17.588,17.588,0,0,1,.152,4.364c-.022.338-.031.68-.031,1.027a10.6,10.6,0,0,0,2.076,6.774,8.939,8.939,0,0,1-4.384.4c-1.534-.134-2.975-.269-4.443.685-.081.047-.157.085-.236.128a13.635,13.635,0,0,1-3.4,1.484,11.075,11.075,0,0,1-3.227.55A3.969,3.969,0,0,1,13.969,39.977ZM3.656,25.614A10.8,10.8,0,0,0,14.3,36.569,10.8,10.8,0,0,0,24.949,25.614,10.8,10.8,0,0,0,14.3,14.662,10.8,10.8,0,0,0,3.656,25.614ZM173.018,39.281V22.9c0-7.855,4.687-11.672,11.473-11.672s11.417,3.817,11.417,11.729v.331h-3.64V22.9c0-5.7-3.144-8.242-7.776-8.242-4.689,0-7.777,2.544-7.777,8.242V39.281Zm-56.588,0-14.947-13v13h-3.7V0h3.7V24.176l14.45-12.227h5.185L105.4,25.228,121.67,39.281Z" transform="translate(1292 1792)" fill="#1974f8"/></g></svg>