<svg xmlns="http://www.w3.org/2000/svg" width="262.591" height="250" viewBox="0 0 262.591 250"><g transform="translate(-829.002 -415)"><path d="M125.9-7189a34.891,34.891,0,0,1-4.167-.2,119.56,119.56,0,0,1-25.845-2.821,118.9,118.9,0,0,1-23.941-8.069,121.088,121.088,0,0,1-21.461-12.727,123.712,123.712,0,0,1-18.407-16.8,125.373,125.373,0,0,1-15.123-20.868,126.093,126.093,0,0,1-10.669-23.9A127.309,127.309,0,0,1,.7-7300.664,131.575,131.575,0,0,1,.808-7328.7,124.618,124.618,0,0,1,12-7368.267a125.833,125.833,0,0,1,22.683-33.108A122.606,122.606,0,0,1,66.4-7425.425a116.481,116.481,0,0,1,38.282-12.385A123.9,123.9,0,0,1,121.72-7439c3.095,0,6.217.121,9.281.358v29.672c-2.106-.146-4.245-.22-6.359-.22a91.176,91.176,0,0,0-18.7,1.934,90.6,90.6,0,0,0-17.416,5.546,92.044,92.044,0,0,0-15.76,8.776,93.98,93.98,0,0,0-13.731,11.622,95.415,95.415,0,0,0-11.329,14.087,96,96,0,0,0-8.554,16.169,96.525,96.525,0,0,0-5.406,17.868A98.306,98.306,0,0,0,31.865-7314a98.33,98.33,0,0,0,1.885,19.187,96.532,96.532,0,0,0,5.406,17.869,95.992,95.992,0,0,0,8.554,16.17,95.389,95.389,0,0,0,11.329,14.088,93.985,93.985,0,0,0,13.731,11.623,92.1,92.1,0,0,0,15.76,8.776,90.6,90.6,0,0,0,17.416,5.546,91.178,91.178,0,0,0,18.7,1.934c2.109,0,4.248-.074,6.359-.22v29.83C129.216-7189.068,127.5-7189,125.9-7189Z" transform="translate(829 7854)" fill="#1974f8"/><path d="M131-7219.032c48.269-3.351,86.409-44.585,86.409-94.972S179.27-7405.619,131-7408.97v-29.672c38.777,3,72.438,24.683,92.588,56.253.179.248.317.4.5.66,5.767,8.113,9.982,17.866,13.147,28.4a126.9,126.9,0,0,1,4.49,19.031c.668,3.751,1.236,7.545,1.715,11.348,2.147,16.912,2.344,20.913,1.323,37.936q-.272,4.406-.266,8.919c0,27.016,5.491,39.026,18.091,58.873-13.863,5.541-26.35,4.506-38.2,3.473-13.368-1.167-25.924-2.332-38.722,5.953-.7.4-1.366.737-2.052,1.116a118.935,118.935,0,0,1-29.616,12.9A105.1,105.1,0,0,1,131-7189.2Z" transform="translate(829 7854)" fill="#fff"/></g></svg>