<svg xmlns="http://www.w3.org/2000/svg" width="270" height="270"><path d="M168.42 144.21v-26.942h3.7v9.682h16.05v3.374h-16.05v13.886c0 4.979 2.758 7.358 7 7.358 4.193 0 7-2.323 7-7.358v-.61h3.587v.608c0 7.193-4.3 10.789-10.591 10.789-6.338.003-10.696-3.597-10.696-10.787zm-25.426 2.38h3.75c.166 2.932 2.813 5.035 7.391 5.035 4.744 0 7.391-2.214 7.391-5.146 0-3.319-3.475-3.707-7.391-4.206-4.909-.607-10.48-1.381-10.48-7.412 0-5.146 4.027-8.63 10.424-8.63s10.313 3.541 10.423 8.188h-3.639c-.165-2.711-2.647-4.813-6.839-4.813s-6.674 2.1-6.674 4.924c0 3.374 3.53 3.762 7.391 4.26 4.247.553 10.535 1.218 10.535 7.414 0 5.2-4.357 8.8-11.141 8.8-6.729-.004-10.975-3.604-11.141-8.414zm-58.464-5.975c0-8.3 6.066-14.384 14.67-14.384s14.56 6.085 14.56 14.384v1.217H88.335c.5 5.7 4.743 9.737 10.865 9.737 4.3 0 7.611-1.77 9.376-4.924h4.024c-2.093 5.035-7.056 8.355-13.4 8.355-8.6 0-14.67-6.087-14.67-14.385zm3.916-2.1H109.9c-.882-5.532-5.184-8.851-10.7-8.851-5.68-.002-9.928 3.482-10.754 8.849zM52.264 140.5c0-8.41 6.122-14.274 14.119-14.274 5.185 0 9.431 2.435 11.473 6.584V115a3.7 3.7 0 013.7 3.708v21.742c0 8.8-6.122 14.55-14.561 14.55-8.663 0-14.731-6.087-14.731-14.5zm3.749.112c0 6.306 4.413 10.952 10.921 10.952 6.564 0 10.921-4.646 10.921-10.952s-4.355-10.95-10.92-10.95c-6.508 0-10.921 4.646-10.921 10.954zm177.722 14.36a14.234 14.234 0 01-13.877-16.054 14.218 14.218 0 0111.92-12.556 13.814 13.814 0 0113.645 6.378c.022.029.038.046.059.076a11.155 11.155 0 011.509 3.268 14.757 14.757 0 01.515 2.19c.077.432.141.869.2 1.307a17.588 17.588 0 01.151 4.364c-.019.338-.03.68-.03 1.027a10.594 10.594 0 002.075 6.774 8.939 8.939 0 01-4.384.4c-1.533-.134-2.974-.269-4.442.685-.08.047-.157.085-.236.128a13.634 13.634 0 01-3.4 1.484 11.081 11.081 0 01-3.227.55 3.963 3.963 0 01-.477-.016zm-10.312-14.358a10.651 10.651 0 1021.294 0 10.651 10.651 0 10-21.294 0zM33.969 154.977a14.234 14.234 0 01-13.877-16.054 14.218 14.218 0 0111.92-12.556 13.817 13.817 0 0113.646 6.378c.02.029.036.046.057.076a11.216 11.216 0 011.509 3.268 14.612 14.612 0 01.515 2.19c.077.432.142.869.2 1.307a17.588 17.588 0 01.152 4.364c-.022.338-.031.68-.031 1.027a10.6 10.6 0 002.076 6.774 8.939 8.939 0 01-4.384.4c-1.534-.134-2.975-.269-4.443.685-.081.047-.157.085-.236.128a13.635 13.635 0 01-3.4 1.484 11.075 11.075 0 01-3.227.55 3.969 3.969 0 01-.477-.021zm-10.313-14.363A10.8 10.8 0 0034.3 151.569a10.8 10.8 0 0010.649-10.955A10.8 10.8 0 0034.3 129.662a10.8 10.8 0 00-10.644 10.952zm169.362 13.667V137.9c0-7.855 4.687-11.672 11.473-11.672s11.417 3.817 11.417 11.729v.331h-3.64v-.388c0-5.7-3.144-8.242-7.776-8.242-4.689 0-7.777 2.544-7.777 8.242v16.381zm-56.588 0l-14.947-13v13h-3.7V115h3.7v24.176l14.45-12.227h5.185L125.4 140.228l16.27 14.053z" fill="#1974f8"/></svg>