<svg xmlns="http://www.w3.org/2000/svg" width="270" height="270"><g fill="#610692"><path d="M36.406 152.637a8.81 8.81 0 012.122-10.612 40.183 40.183 0 016.911-4.346c1.462-.811 2.926-1.62 4.43-2.453v4.653c0 .433-.385.508-.656.667-2.554 1.5-5.215 2.807-7.636 4.547a4.31 4.31 0 00-1.492 5.433 3.984 3.984 0 003.99 2.369 3.924 3.924 0 003.528-2.8 4.3 4.3 0 00-1.1-4.555c-.174-.164-.36-.316-.647-.566 1.212-.752 2.367-1.474 3.528-2.183.384-.235.525.148.7.36 3.91 4.651 1.675 12.182-4.093 13.805a8.265 8.265 0 01-2.236.311 8.232 8.232 0 01-7.349-4.63zm-9.782-5.164a8.419 8.419 0 01-7.565-7.365c-.77-6.748 5.382-11.635 11.471-9.093a18.765 18.765 0 012.638 1.329c2.8 1.732 5.574 3.513 8.526 5.382-1.44.808-2.738 1.531-4.031 2.264-.382.217-.617-.089-.88-.249-2.453-1.5-4.809-3.167-7.372-4.471a4.454 4.454 0 00-2.569-.57 4.2 4.2 0 00-3.654 4.634 4.168 4.168 0 003.479 3.762 3.988 3.988 0 004.533-3.208c.182-.952.443-.9 1.089-.471.8.525 1.641.991 2.485 1.44.408.217.44.463.313.883a8.428 8.428 0 01-7.779 5.766c-.229 0-.456-.011-.684-.034zm25.3-8.462c-.058-2.369-.01-4.741-.01-7.112h-.006c0-2.248.008-4.5 0-6.744a8.208 8.208 0 00-7.965-8.431 8.194 8.194 0 00-8.143 8.158c-.064 1.876-.046 3.757-.012 5.634.015.791-.194.8-.77.434-.983-.633-2-1.208-3-1.808-.255-.153-.528-.279-.524-.668.028-2.639-.172-5.287.758-7.848a12.379 12.379 0 0113.746-8.181 12.726 12.726 0 0110.235 12.629c.03 4.527 0 9.054.01 13.579a4.043 4.043 0 003.18 4.292 3.98 3.98 0 004.685-3.216 4.114 4.114 0 00-3.1-4.852 3.836 3.836 0 00-1.57 0c-1.131.251-1.132.251-1.132-.946 0-.862.034-1.726-.011-2.585-.032-.612.167-.856.766-.95a8.376 8.376 0 019.342 7.226 8.577 8.577 0 01-6.685 9.723 8.7 8.7 0 01-1.5.132 8.364 8.364 0 01-8.281-8.463z"/><g transform="translate(38.674 122.475)"><circle cx="2.16" cy="2.16" r="2.16"/><circle cx="2.16" cy="2.16" r="2.16" transform="translate(5.819)"/></g><path d="M81.018 143.723h-3.03q-.567 0-.378-.661l4.981-18.947a.9.9 0 01.946-.662h4.193a.849.849 0 01.946.662l4.981 18.947q.189.661-.378.661h-3.024a.619.619 0 01-.472-.141 1.074 1.074 0 01-.19-.52l-.883-3.468h-6.147l-.882 3.468a.984.984 0 01-.206.52.63.63 0 01-.457.141zm4.57-16.455l-2.27 9.111h4.67l-2.27-9.111zm13.904 16.455h-2.68a.585.585 0 01-.662-.661v-20.839a.585.585 0 01.662-.662h2.68a.585.585 0 01.662.662v20.839a.585.585 0 01-.662.661zm5.863-16.078h3.059a.53.53 0 01.5.221.544.544 0 01-.094.567l-4.193 6.9v.125l4.383 7.471a.489.489 0 01.032.552.634.634 0 01-.568.236h-2.71a1.728 1.728 0 01-.772-.126 1.435 1.435 0 01-.489-.535l-4-7.031a1.024 1.024 0 010-1.04l3.783-6.714a1.141 1.141 0 011.069-.626zm5.958 15.416v-14.752q0-.662.63-.663h2.709a.585.585 0 01.661.663v14.754a.725.725 0 01-.141.535.736.736 0 01-.489.126h-2.71a.585.585 0 01-.66-.663zm11.287.662h-2.679a.585.585 0 01-.663-.661v-20.839a.585.585 0 01.663-.662h2.679a.585.585 0 01.663.662v20.839a.585.585 0 01-.663.661zm7.785 0h-2.679a.585.585 0 01-.663-.661v-20.839a.585.585 0 01.663-.662h2.679a.585.585 0 01.663.662v20.839a.585.585 0 01-.663.661zm4.57-.662v-14.752q0-.662.631-.663h2.709a.585.585 0 01.661.663v14.754a.728.728 0 01-.141.535.737.737 0 01-.489.126h-2.71a.585.585 0 01-.661-.663zm18.016.662h-3.026q-.567 0-.378-.662l4.981-18.946a.9.9 0 01.945-.662h4.19a.848.848 0 01.945.662l4.981 18.946q.19.662-.378.662h-3.026a.618.618 0 01-.473-.142 1.063 1.063 0 01-.189-.52l-.883-3.468h-6.147l-.883 3.468a.98.98 0 01-.2.52.629.629 0 01-.459.142zm4.571-16.456l-2.27 9.111h4.666l-2.27-9.111zm13.903 16.456h-2.68a.585.585 0 01-.662-.662v-20.838a.585.585 0 01.662-.662h2.68a.585.585 0 01.662.662v7.125h.126q.694-1.7 3.089-1.7h1.009q4.948 0 4.949 5.139v10.277q0 .662-.694.662h-2.648a.585.585 0 01-.662-.662v-10.091a1.569 1.569 0 00-1.86-1.86h-1.135q-2.175 0-2.175 2.4v9.552a.585.585 0 01-.661.658zm13.493-12.61h-1.259a.8.8 0 01-.52-.126.672.672 0 01-.142-.5v-2.175a.585.585 0 01.662-.662h1.261a.306.306 0 00.346-.347v-2.995q0-.662.694-.662h2.648a.585.585 0 01.662.662v2.995c0 .232.126.347.378.347h2.459a.585.585 0 01.662.662v2.175a.679.679 0 01-.142.489.734.734 0 01-.52.142h-2.459c-.252 0-.378.116-.378.347v6.965a1.885 1.885 0 00.441 1.4 2.043 2.043 0 001.45.426h1.261a.585.585 0 01.662.662v2.175a.678.678 0 01-.142.489.734.734 0 01-.52.142h-1.923a5.332 5.332 0 01-3.862-1.324 5.016 5.016 0 01-1.372-3.783v-7.157a.306.306 0 00-.347-.347zm16.424 12.61h-.758a5.273 5.273 0 01-3.846-1.324 5.09 5.09 0 01-1.356-3.815v-5.8a5.09 5.09 0 011.356-3.814 5.274 5.274 0 013.846-1.324h7.282q.694 0 .694.662v14.754q0 .662-.694.662h-2.648a.585.585 0 01-.663-.662v-1.04h-.125a2.39 2.39 0 01-1.229 1.277 4.232 4.232 0 01-1.859.424zm3.215-5.864v-6.4c0-.231-.125-.347-.378-.347h-2.963a1.925 1.925 0 00-1.419.426 2.035 2.035 0 00-.41 1.434v5.422a2.034 2.034 0 00.41 1.434 1.924 1.924 0 001.419.426h1.168q2.174.001 2.173-2.395zm10.813 10.151h-2.685q-.662 0-.662-.631v-19.072a.585.585 0 01.662-.662h2.68a.585.585 0 01.662.662v1.04h.127a2.386 2.386 0 011.231-1.276 4.225 4.225 0 011.86-.426h1.292a4.8 4.8 0 013.673 1.324 5.362 5.362 0 011.245 3.814v5.8a5.362 5.362 0 01-1.245 3.815 4.8 4.8 0 01-3.673 1.324h-1.292a4.226 4.226 0 01-1.86-.426 2.387 2.387 0 01-1.229-1.277h-.127v5.359q.003.632-.659.632zm2.837-7.755h1.387a1.568 1.568 0 001.86-1.86v-5.422a1.569 1.569 0 00-1.86-1.86h-1.387q-2.175 0-2.175 2.4v4.35q0 2.392 2.175 2.392zm18.095 3.468h-2.805a5.274 5.274 0 01-3.846-1.324 5.093 5.093 0 01-1.356-3.815v-5.8a5.093 5.093 0 011.356-3.814 5.274 5.274 0 013.846-1.324h2.805a5.247 5.247 0 013.83 1.34 5.068 5.068 0 011.371 3.8v5.8a5.066 5.066 0 01-1.371 3.8 5.247 5.247 0 01-3.83 1.337zm-2.206-3.436h1.607a2.033 2.033 0 001.435-.41 1.922 1.922 0 00.425-1.419v-5.548a1.925 1.925 0 00-.425-1.419 2.04 2.04 0 00-1.435-.41h-1.607a1.528 1.528 0 00-1.828 1.828v5.548a1.528 1.528 0 001.828 1.828zm10.906-9.174h-1.261a.8.8 0 01-.52-.126.673.673 0 01-.142-.5v-2.175a.585.585 0 01.662-.662h1.261a.307.307 0 00.347-.347v-2.995q0-.662.693-.662h2.649a.585.585 0 01.662.662v2.995c0 .232.126.347.378.347h2.459a.585.585 0 01.662.662v2.175a.681.681 0 01-.142.489.735.735 0 01-.52.142h-2.459c-.252 0-.378.116-.378.347v6.965a1.885 1.885 0 00.441 1.4 2.045 2.045 0 001.45.426h1.261a.585.585 0 01.663.662v2.175a.674.674 0 01-.143.489.732.732 0 01-.52.142h-1.922a5.33 5.33 0 01-3.862-1.324 5.015 5.015 0 01-1.371-3.783v-7.157a.307.307 0 00-.348-.347z"/></g></svg>