<svg xmlns="http://www.w3.org/2000/svg" width="270" height="270" viewBox="0 0 270 270"><g transform="translate(-974 -1510)"><g transform="translate(974 1510)" fill="#fff" stroke="#707070" stroke-width="1" opacity="0"><rect width="270" height="270" stroke="none"/><rect x="0.5" y="0.5" width="269" height="269" fill="none"/></g><g transform="translate(992.993 1622.26)"><path d="M-19.741,291.742a8.81,8.81,0,0,1,2.122-10.612,40.183,40.183,0,0,1,6.911-4.346c1.462-.811,2.926-1.62,4.43-2.453,0,1.6,0,3.123,0,4.653,0,.433-.385.508-.656.667-2.554,1.5-5.215,2.807-7.636,4.547a4.31,4.31,0,0,0-1.492,5.433A3.984,3.984,0,0,0-12.072,292a3.924,3.924,0,0,0,3.528-2.8,4.3,4.3,0,0,0-1.1-4.555c-.174-.164-.36-.316-.647-.566,1.212-.752,2.367-1.474,3.528-2.183.384-.235.525.148.7.36,3.91,4.651,1.675,12.182-4.093,13.805a8.265,8.265,0,0,1-2.236.311A8.232,8.232,0,0,1-19.741,291.742Zm-9.782-5.164a8.419,8.419,0,0,1-7.565-7.365c-.77-6.748,5.382-11.635,11.471-9.093a18.765,18.765,0,0,1,2.638,1.329c2.8,1.732,5.574,3.513,8.526,5.382-1.44.808-2.738,1.531-4.031,2.264-.382.217-.617-.089-.88-.249-2.453-1.5-4.809-3.167-7.372-4.471a4.454,4.454,0,0,0-2.569-.57,4.2,4.2,0,0,0-3.654,4.634,4.168,4.168,0,0,0,3.479,3.762,3.988,3.988,0,0,0,4.533-3.208c.182-.952.443-.9,1.089-.471.8.525,1.641.991,2.485,1.44.408.217.44.463.313.883a8.428,8.428,0,0,1-7.779,5.766c-.229,0-.456-.011-.684-.034Zm25.3-8.462c-.058-2.369-.01-4.741-.01-7.112h-.006c0-2.248.008-4.5,0-6.744a8.208,8.208,0,0,0-7.965-8.431,8.194,8.194,0,0,0-8.143,8.158c-.064,1.876-.046,3.757-.012,5.634.015.791-.194.8-.77.434-.983-.633-2-1.208-3-1.808-.255-.153-.528-.279-.524-.668.028-2.639-.172-5.287.758-7.848a12.379,12.379,0,0,1,13.746-8.181A12.726,12.726,0,0,1,.086,264.179c.03,4.527,0,9.054.01,13.579a4.043,4.043,0,0,0,3.18,4.292,3.98,3.98,0,0,0,4.685-3.216,4.114,4.114,0,0,0-3.1-4.852,3.836,3.836,0,0,0-1.57,0c-1.131.251-1.132.251-1.132-.946,0-.862.034-1.726-.011-2.585-.032-.612.167-.856.766-.95a8.376,8.376,0,0,1,9.342,7.226,8.577,8.577,0,0,1-6.685,9.723,8.7,8.7,0,0,1-1.5.132,8.364,8.364,0,0,1-8.281-8.463Z" transform="translate(37.154 -251.365)" fill="#610692"/><g transform="translate(19.681 10.215)"><circle cx="2.16" cy="2.16" r="2.16" transform="translate(0)" fill="#610692"/><circle cx="2.16" cy="2.16" r="2.16" transform="translate(5.819)" fill="#610692"/></g></g><g transform="translate(1051.566 1631.561)"><g transform="translate(0 0)"><path d="M54.33,292.322H51.3q-.567,0-.378-.661l4.981-18.947a.9.9,0,0,1,.946-.662h4.193a.849.849,0,0,1,.946.662l4.981,18.947q.189.661-.378.661H63.567a.619.619,0,0,1-.472-.141,1.074,1.074,0,0,1-.19-.52l-.883-3.468H55.875l-.882,3.468a.984.984,0,0,1-.206.52A.63.63,0,0,1,54.33,292.322ZM58.9,275.867l-2.27,9.111H61.3l-2.27-9.111Z" transform="translate(-50.878 -270.16)" fill="#610692"/><path d="M82.516,291.334h-2.68a.585.585,0,0,1-.662-.661V269.834a.585.585,0,0,1,.662-.662h2.68a.585.585,0,0,1,.662.662v20.839A.585.585,0,0,1,82.516,291.334Zm5.863-16.078h3.059a.53.53,0,0,1,.5.221.544.544,0,0,1-.094.567l-4.193,6.9v.125l4.383,7.471a.489.489,0,0,1,.032.552.634.634,0,0,1-.568.236H88.788a1.728,1.728,0,0,1-.772-.126,1.435,1.435,0,0,1-.489-.535l-4-7.031a1.024,1.024,0,0,1,0-1.04l3.783-6.714A1.141,1.141,0,0,1,88.379,275.256Z" transform="translate(-60.59 -269.172)" fill="#610692"/><path d="M102.261,293.852V279.1q0-.662.63-.663H105.6a.585.585,0,0,1,.661.663v14.754a.725.725,0,0,1-.141.535.736.736,0,0,1-.489.126h-2.71A.585.585,0,0,1,102.261,293.852Z" transform="translate(-68.514 -272.352)" fill="#610692"/><path d="M117.7,291.334h-2.679a.585.585,0,0,1-.663-.661V269.834a.585.585,0,0,1,.663-.662H117.7a.585.585,0,0,1,.663.662v20.839A.585.585,0,0,1,117.7,291.334Z" transform="translate(-72.666 -269.172)" fill="#610692"/><path d="M129.554,291.334h-2.679a.585.585,0,0,1-.663-.661V269.834a.585.585,0,0,1,.663-.662h2.679a.585.585,0,0,1,.663.662v20.839A.585.585,0,0,1,129.554,291.334Z" transform="translate(-76.735 -269.172)" fill="#610692"/><path d="M138.26,293.852V279.1q0-.662.631-.663H141.6a.585.585,0,0,1,.661.663v14.754a.728.728,0,0,1-.141.535.737.737,0,0,1-.489.126h-2.71A.585.585,0,0,1,138.26,293.852Z" transform="translate(-80.871 -272.352)" fill="#610692"/></g><g transform="translate(71.954 0)"><path d="M163.888,285.794h-3.026q-.567,0-.378-.662l4.981-18.946a.9.9,0,0,1,.945-.662H170.6a.848.848,0,0,1,.945.662l4.981,18.946q.19.662-.378.662h-3.026a.618.618,0,0,1-.473-.142,1.063,1.063,0,0,1-.189-.52l-.883-3.468h-6.147l-.883,3.468a.98.98,0,0,1-.2.52A.629.629,0,0,1,163.888,285.794Zm4.571-16.456-2.27,9.111h4.666l-2.27-9.111Z" transform="translate(-160.437 -263.632)" fill="#610692"/><path d="M192.074,284.806h-2.68a.585.585,0,0,1-.662-.662V263.306a.585.585,0,0,1,.662-.662h2.68a.585.585,0,0,1,.662.662v7.125h.126q.694-1.7,3.089-1.7h1.009q4.948,0,4.949,5.139v10.277q0,.662-.694.662h-2.648a.585.585,0,0,1-.662-.662V274.056a1.569,1.569,0,0,0-1.86-1.86h-1.135q-2.175,0-2.175,2.4v9.552A.585.585,0,0,1,192.074,284.806Z" transform="translate(-170.149 -262.644)" fill="#610692"/><path d="M213.359,273.283H212.1a.8.8,0,0,1-.52-.126.672.672,0,0,1-.142-.5v-2.175a.585.585,0,0,1,.662-.662h1.261a.306.306,0,0,0,.346-.347v-2.995q0-.662.694-.662h2.648a.585.585,0,0,1,.662.662v2.995c0,.232.126.347.378.347h2.459a.585.585,0,0,1,.662.662v2.175a.679.679,0,0,1-.142.489.734.734,0,0,1-.52.142h-2.459c-.252,0-.378.116-.378.347V280.6a1.885,1.885,0,0,0,.441,1.4,2.043,2.043,0,0,0,1.45.426h1.261a.585.585,0,0,1,.662.662v2.175a.678.678,0,0,1-.142.489.734.734,0,0,1-.52.142h-1.923a5.332,5.332,0,0,1-3.862-1.324,5.016,5.016,0,0,1-1.372-3.783V273.63A.306.306,0,0,0,213.359,273.283Z" transform="translate(-177.941 -263.731)" fill="#610692"/><path d="M236.258,287.986H235.5a5.273,5.273,0,0,1-3.846-1.324,5.09,5.09,0,0,1-1.356-3.815v-5.8a5.09,5.09,0,0,1,1.356-3.814,5.274,5.274,0,0,1,3.846-1.324h7.282q.694,0,.694.662v14.754q0,.662-.694.662h-2.648a.585.585,0,0,1-.663-.662v-1.04h-.125a2.39,2.39,0,0,1-1.229,1.277A4.232,4.232,0,0,1,236.258,287.986Zm3.215-5.864v-6.4c0-.231-.125-.347-.378-.347h-2.963a1.925,1.925,0,0,0-1.419.426,2.035,2.035,0,0,0-.41,1.434v5.422a2.034,2.034,0,0,0,.41,1.434,1.924,1.924,0,0,0,1.419.426H237.3Q239.474,284.518,239.473,282.122Z" transform="translate(-184.416 -265.824)" fill="#610692"/><path d="M258.985,292.273H256.3q-.662,0-.662-.631V272.57a.585.585,0,0,1,.662-.662h2.68a.585.585,0,0,1,.662.662v1.04h.127A2.386,2.386,0,0,1,261,272.334a4.225,4.225,0,0,1,1.86-.426h1.292a4.8,4.8,0,0,1,3.673,1.324,5.362,5.362,0,0,1,1.245,3.814v5.8a5.362,5.362,0,0,1-1.245,3.815,4.8,4.8,0,0,1-3.673,1.324h-1.292a4.226,4.226,0,0,1-1.86-.426,2.387,2.387,0,0,1-1.229-1.277h-.127v5.359Q259.647,292.273,258.985,292.273Zm2.837-7.755h1.387a1.568,1.568,0,0,0,1.86-1.86v-5.422a1.569,1.569,0,0,0-1.86-1.86h-1.387q-2.175,0-2.175,2.4v4.35Q259.647,284.518,261.822,284.518Z" transform="translate(-193.115 -265.824)" fill="#610692"/><path d="M288.418,287.986h-2.805a5.274,5.274,0,0,1-3.846-1.324,5.093,5.093,0,0,1-1.356-3.815v-5.8a5.093,5.093,0,0,1,1.356-3.814,5.274,5.274,0,0,1,3.846-1.324h2.805a5.247,5.247,0,0,1,3.83,1.34,5.068,5.068,0,0,1,1.371,3.8v5.8a5.066,5.066,0,0,1-1.371,3.8A5.247,5.247,0,0,1,288.418,287.986Zm-2.206-3.436h1.607a2.033,2.033,0,0,0,1.435-.41,1.922,1.922,0,0,0,.425-1.419v-5.548a1.925,1.925,0,0,0-.425-1.419,2.04,2.04,0,0,0-1.435-.41h-1.607a1.528,1.528,0,0,0-1.828,1.828v5.548a1.528,1.528,0,0,0,1.828,1.828Z" transform="translate(-201.616 -265.824)" fill="#610692"/><path d="M304.845,273.283h-1.261a.8.8,0,0,1-.52-.126.673.673,0,0,1-.142-.5v-2.175a.585.585,0,0,1,.662-.662h1.261a.307.307,0,0,0,.347-.347v-2.995q0-.662.693-.662h2.649a.585.585,0,0,1,.662.662v2.995c0,.232.126.347.378.347h2.459a.585.585,0,0,1,.662.662v2.175a.681.681,0,0,1-.142.489.735.735,0,0,1-.52.142h-2.459c-.252,0-.378.116-.378.347V280.6a1.885,1.885,0,0,0,.441,1.4,2.045,2.045,0,0,0,1.45.426h1.261a.585.585,0,0,1,.663.662v2.175a.674.674,0,0,1-.143.489.732.732,0,0,1-.52.142h-1.922a5.33,5.33,0,0,1-3.862-1.324,5.015,5.015,0,0,1-1.371-3.783V273.63A.307.307,0,0,0,304.845,273.283Z" transform="translate(-209.343 -263.731)" fill="#610692"/></g></g></g></svg>