<svg xmlns="http://www.w3.org/2000/svg" xmlns:xlink="http://www.w3.org/1999/xlink" width="200" height="200" viewBox="0 0 200 200"><defs><clipPath id="b"><rect width="200" height="200"/></clipPath></defs><g id="a" clip-path="url(#b)"><g transform="translate(3 42)"><g transform="translate(-46.979 206)"><path d="M141.3-201.8c.3,2.4.9,7.4,1.3,11.3.7,6.4.8,6.7,1.5,3.5.4-1.9,1.1-7,1.5-11.3l.7-7.7h-2.8C140.8-206,140.7-205.9,141.3-201.8Z" fill="#971b71"/><path d="M152.5-192.3c-1.4,3.1-2.3,5.8-2.1,6,.7.8,7.7-9.7,7.1-10.7C156.2-199.1,154.9-197.9,152.5-192.3Z" fill="#971b71"/><path d="M130.1-196.1c-1,.7-.4,2.1,2.9,6.5a43.281,43.281,0,0,0,4.6,5.6,51.666,51.666,0,0,0-2.4-6.5C132.3-197.4,132.3-197.5,130.1-196.1Z" fill="#971b71"/><path d="M160.7-189.8c-2.2,2.1-12.4,13.9-15.5,17.9-1,1.3-.9,2.3.3,5.1,1.2,2.9,1.8,3.5,3.8,3.1a7.982,7.982,0,0,1,4.6.6c2.9,1.6,2.9,7.6.1,9.3a5.107,5.107,0,0,0-2,4.5c0,2.9.4,3.3,3.8,4.2,2,.6,11.1,3,20.2,5.4,17.8,4.8,16.7,4.1,15.7,10.1-.3,1.5,9.3,4.2,10.1,2.9.4-.6,2-6.3,3.6-12.6l3-11.6-2.7-14.8c-2.3-12.1-3.2-15.2-5.1-16.9-2.5-2.2-28.7-9.4-34.3-9.4A9.15,9.15,0,0,0,160.7-189.8Zm22.8,8.3c14.1,3.8,13.9,3.6,16,15,.9,5.3,1.5,9.8,1.4,9.9-.3.3-20.1-4.9-43.6-11.3-2.4-.7-4.3-1.7-4.3-2.4s3-4.5,6.8-8.5C167.5-186.9,164.8-186.6,183.5-181.5Zm16.3,31.1c3.2,2.2,2.7,7.3-.9,9.3-2.4,1.3-2.9,1.3-5.3-.2a5.429,5.429,0,0,1-.4-9.1C196-152.4,197-152.4,199.8-150.4Z" fill="#971b71"/><path d="M93.7-179.2c-.9,1-4.4,7.5-7.7,14.5L80-152v27.1l5.3-.3c5.1-.3,5.2-.4,5.5-3.6l.3-3.2H138v7.1l5.3-.3,5.2-.3.3-13,.2-13-6.9-14.1c-3.8-7.7-7.6-14.4-8.6-14.7-.9-.4-9.9-.7-19.9-.7C97.2-181,95.1-180.8,93.7-179.2Zm35.8,4.9c1.5.5,9.5,16.1,9.5,18.4,0,.5-10.8.9-25,.9-13.7,0-25-.2-25-.4,0-1.1,7.5-16.3,8.8-17.9,1.3-1.5,3.4-1.7,15.8-1.7C121.4-175,128.6-174.7,129.5-174.3Zm-35.3,26c2,1.8,2.4,6.3.6,8.1-2,2-7.6,1.5-8.8-.7-1.4-2.8-1.2-5.2.7-7.3C88.7-150.4,91.8-150.5,94.2-148.3Zm47.8.3c2.4,2.4,2.5,3.8.4,6.8-2.9,4.2-10.4,1.7-10.4-3.5,0-2,3.8-5.3,6-5.3A6.917,6.917,0,0,1,142-148Z" fill="#971b71"/><path d="M67-105.1c0,10.4.3,13.3,1.6,14.5,1.7,1.8,4.4,2.1,4.4.6,0-.6-.9-1-2-1-1.9,0-2-.7-2-13.5,0-8.3-.4-13.5-1-13.5S67-113,67-105.1Z" fill="#971b71" stroke="#971b71" stroke-width="2"/><path d="M96.9-115.3a119.936,119.936,0,0,0,.2,14.3c.3,6.3.6,10.3.7,8.9A6.418,6.418,0,0,1,99.5-96c1.3-1.1,2.2-.7,5.5,2.5,2.2,2.1,4.2,3.6,4.5,3.4.2-.3-1.1-2.1-3-3.9-1.9-1.9-3.5-4-3.5-4.7s1.6-3.1,3.6-5.3,3.2-4,2.6-4-3,2.2-5.4,5c-2.4,2.7-4.6,5-5.1,5-.4,0-.7-4.3-.6-9.6C98.2-117,97.6-120.8,96.9-115.3Z" fill="#971b71" stroke="#971b71" stroke-width="2"/><path d="M50-105.1a9.328,9.328,0,0,0-1.9,11.3c1.6,3,7.4,5.1,12.1,4.3l3.9-.7-.3-8.6-.3-8.7-5.3-.3C53.5-108.1,52.6-107.8,50-105.1Zm11.1-.9c.5,0,.9,3.4.9,7.5V-91H58.6c-5.2,0-8.1-1.5-9.5-4.7a8.077,8.077,0,0,1,2-9,11.714,11.714,0,0,1,7.7-1.7A12.362,12.362,0,0,0,61.1-106Z" fill="#971b71" stroke="#971b71" stroke-linejoin="bevel" stroke-width="2"/><path d="M77.9-105.1c-4.8,4.8-3.5,12.1,2.7,14.7,7.6,3.2,14.9-3.4,12.4-11.2C90.7-108.5,83.1-110.2,77.9-105.1Zm10-.4c7.2,3.7,4.5,14.5-3.6,14.5-9.8,0-9.9-14.9,0-15.9A10.617,10.617,0,0,1,87.9-105.5Z" fill="#971b71" stroke="#971b71" stroke-linejoin="bevel" stroke-width="2"/><path d="M116-106.7a9.07,9.07,0,0,0-4.5,9.6c1.2,5.4,7.1,8.7,13.4,7.5l3.1-.7V-108h-4.7A19.887,19.887,0,0,0,116-106.7Zm8.8.3c2,.6,2.2,1.2,2.2,8V-91h-4.4c-5.5,0-9.6-3-9.6-7,0-4.3,1-6.1,4.4-7.6C121-107.1,121.7-107.2,124.8-106.4Z" fill="#971b71" stroke="#971b71" stroke-linejoin="bevel" stroke-width="2"/><path d="M132-107c0,.5,2.3,1,5,1,2.8,0,5,.3,5,.6,0,.4-2.2,3.4-4.8,6.8-7.2,9.2-7.4,8.6,1.5,8.4,7.6-.2,7.7-.2,1.6-.5-3.5-.2-6.3-.6-6.3-.9a79,79,0,0,1,5.5-7.6c3-3.8,5.5-7.4,5.5-7.9s-2.9-.9-6.5-.9C134.8-108,132-107.6,132-107Z" fill="#971b71" stroke="#971b71" stroke-linejoin="bevel" stroke-width="2"/><path d="M152.5-106.8a14.287,14.287,0,0,0-3.2,2.7c-1.5,2-1.7,7.6-.2,10.3,1.6,3,7.4,5.1,12.1,4.3l3.9-.7-.3-8.6-.3-8.7-5-.2C156.8-107.9,153.6-107.5,152.5-106.8Zm8.3.4c2,.6,2.2,1.2,2.2,8V-91h-4.4c-5.2,0-8.3-2.2-9.2-6.5-.7-3.6,2.4-8.1,5.9-8.8a24.586,24.586,0,0,0,2.7-.6A20.9,20.9,0,0,1,160.8-106.4Z" fill="#971b71" stroke="#971b71" stroke-linejoin="bevel" stroke-width="2"/><path d="M178.5-106.8c-3.3,1.8-4.5,4-4.5,8.3,0,6.9,6.9,11.1,13.5,8.1,2.9-1.4,2.8-1.4-2.2-.9-4.6.5-5.4.3-7.7-2-1.4-1.4-2.6-3.5-2.6-4.6a8.455,8.455,0,0,1,11.4-8.1c3.7,1.4,4.5,1.2,2.2-.5C186.3-108.3,181.3-108.4,178.5-106.8Z" fill="#971b71" stroke="#971b71" stroke-linejoin="bevel" stroke-width="2"/><path d="M195.9-105.1c-4.7,4.8-3.5,12.1,2.6,14.7,4.1,1.7,7.6,1.1,10.3-1.9a9.155,9.155,0,0,0,1.7-10.3C208-108.8,200.8-110,195.9-105.1Zm10-.4c7,3.6,4.4,14.5-3.5,14.5-9.9,0-10-14.9-.1-15.9A10.617,10.617,0,0,1,205.9-105.5Z" fill="#971b71" stroke="#971b71" stroke-linejoin="bevel" stroke-width="2"/><path d="M217-106c-1.7,1.7-2,3.2-1.8,9.2l.1,7.3.6-7.3c.5-5.7,1-7.7,2.5-8.8,2.5-1.8,3.6-1.8,6.4.2,1.9,1.3,2.2,2.4,2.2,8.5,0,3.9.4,6.9,1,6.9s1-3,1-6.9c0-6.1.3-7.2,2.2-8.5,2.8-2,3.9-2,6.3-.2,1.4,1,2,3.2,2.5,8.7l.7,7.4.2-7.3c.1-6-.2-7.5-1.9-9.2a6.879,6.879,0,0,0-9.1-.4c-1.6,1.5-2,1.5-4.1,0C222.7-108.6,219.4-108.4,217-106Z" fill="#971b71" stroke="#971b71" stroke-linejoin="bevel" stroke-width="2"/><path d="M168-91.5a1.538,1.538,0,0,0,1.5,1.5,1.538,1.538,0,0,0,1.5-1.5,1.538,1.538,0,0,0-1.5-1.5A1.538,1.538,0,0,0,168-91.5Z" fill="#971b71" stroke="#971b71" stroke-linejoin="bevel" stroke-width="2"/></g></g></g></svg>