<svg xmlns="http://www.w3.org/2000/svg" width="270" height="270" viewBox="0 0 270 270"><g transform="translate(-974 -1677)"><g transform="translate(974 1677)" fill="#fff" stroke="#707070" stroke-width="1" opacity="0"><rect width="270" height="270" stroke="none"/><rect x="0.5" y="0.5" width="269" height="269" fill="none"/></g><g transform="translate(618.26 1393.237)"><g transform="translate(472.69 388.763)"><g transform="translate(0 0)"><path d="M924.806,478.987" transform="translate(-913.927 -461.268)" fill="#d9000d"/><path d="M887.13,388.763c-5.7,9.859-11.96,20.655-17.719,30.625l15.285-2.662-7.428-3.024Z" transform="translate(-869.411 -388.763)" fill="#d9000d"/><path d="M891.463,460.28l-4.162,2.955h16.686a10.379,10.379,0,0,1-.709,2.019,14.966,14.966,0,0,1-1.026,1.889,17.314,17.314,0,0,1-6.82,6.068c-.182.093-.372.186-.567.279a24.321,24.321,0,0,1-6.677,2.035l-12.494,1.951c6.626,0,15.465,1.139,22.04-2.312a18.133,18.133,0,0,0,6.375-5.705c.3-.437.585-.886.844-1.341a14.456,14.456,0,0,0,2.023-7.838Z" transform="translate(-874.459 -446.235)" fill="#d9000d"/><path d="M941.582,396.363c-.464-.79-.937-1.6-1.425-2.444-1.867,4.826-3.665,9.721-5.493,14.442l6.629-4.966,1.919,2.494h4.163Z" transform="translate(-921.849 -392.906)" fill="#d9000d"/><path d="M999.392,479.924l1.549,1.988a15.27,15.27,0,0,0,.849-1.4c-.249-.424-.1-.168-.345-.592Z" transform="translate(-973.866 -462.021)" fill="#d9000d"/><path d="M1022.886,505.311l5.44,6.745-4.657-7.985C1023.426,504.491,1023.166,504.907,1022.886,505.311Z" transform="translate(-992.746 -481.426)" fill="#d9000d"/></g></g><g transform="translate(375.74 427.544)"><g transform="translate(0 0.491)"><path d="M375.74,608.376l10.594-19.639,10.593,19.639h-3.467l-7.143-13.221-7.109,13.221Z" transform="translate(-375.74 -588.737)" fill="#d9000d"/><path d="M594.149,608.376l10.576-19.639,10.611,19.639H611.87l-7.145-13.221-7.109,13.221Z" transform="translate(-551.257 -588.737)" fill="#d9000d"/><path d="M506.211,588.737v2.852h-9.15v16.787h-2.935V591.589h-9.109v-2.852Z" transform="translate(-463.557 -588.737)" fill="#d9000d"/><path d="M739.229,598.556l12.763,9.819h-4.937l-10.941-8.225H733.8v8.225h-3.018V588.737H733.8v8.3h2.316l10.735-8.3h5.088Z" transform="translate(-661.054 -588.737)" fill="#d9000d"/><path d="M1024.942,588.737v19.639l-18.005-13.054v13.054h-3.184V588.737l17.911,12.961V588.737Z" transform="translate(-880.42 -588.737)" fill="#d9000d"/><path d="M867.243,608.376l10.55-19.639,10.637,19.639h-3.467l-7.127-13.221-7.126,13.221Z" transform="translate(-770.719 -588.737)" fill="#d9000d"/></g><g transform="translate(150.135 0)"><path d="M1436.374,608.376l10.55-19.639,10.637,19.639h-3.467l-7.127-13.221-7.127,13.221Z" transform="translate(-1378.216 -588.246)" fill="#949393"/><path d="M1158.156,591.539c0-.521-2.651-1.4-2.784-1.452a13.818,13.818,0,0,0-4.556-.659,14.227,14.227,0,0,0-4.8.74c-.894.364-2.5.825-2.5,1.383V600.6c0,.558,1.634,1.858,2.556,2.2a13.445,13.445,0,0,0,4.766.874,13.027,13.027,0,0,0,4.73-.874c.69-.245,2.592-1.66,2.592-2.2V599.6h-6.663v-3.189h9.942v5.5c0,1.7-1.377,2.618-3.387,3.539a16.949,16.949,0,0,1-7.233,1.407,17.16,17.16,0,0,1-7.261-1.407c-1.984-.923-3.324-2.256-3.324-3.954V591.55c0-1.674,1.368-2.984,3.324-3.906a17.544,17.544,0,0,1,7.261-1.407,16.872,16.872,0,0,1,7.233,1.407c1.984.946,3.387,1.848,3.387,3.546l-.008,3.088h-3.278l.006-2.739" transform="translate(-1140.23 -586.237)" fill="#949393"/><g transform="translate(36.873 0.491)"><path d="M1349.176,598.584c0,5.937-5.02,9.791-12.741,9.791h-8.447V588.737h8.448C1344.157,588.737,1349.176,592.62,1349.176,598.584Zm-12.74,6.242c4.707,0,8.911-2.472,8.911-6.245s-4.2-6.3-8.911-6.3h-4.62v12.541Z" transform="translate(-1327.988 -588.737)" fill="#949393"/></g><path d="M1278.351,608.376V588.737h3.828v19.639Z" transform="translate(-1251.226 -588.246)" fill="#949393"/></g></g></g></g></svg>