<svg xmlns="http://www.w3.org/2000/svg" width="270" height="270"><defs><linearGradient id="b" x1=".009" y1=".205" x2=".807" y2="1.025" gradientUnits="objectBoundingBox"><stop offset="0" stop-color="#f60000"/><stop offset="1" stop-color="#ff4a4a"/></linearGradient><linearGradient id="c" x1=".5" x2=".5" y2="1" gradientUnits="objectBoundingBox"><stop offset="0" stop-color="#f5c3c3"/><stop offset="1" stop-color="#ffc4c4"/></linearGradient><linearGradient id="e" x1=".5" x2=".5" y2="1" gradientUnits="objectBoundingBox"><stop offset="0" stop-color="#f74040"/><stop offset="1" stop-color="#f60000"/></linearGradient><filter id="a" x="11" y="100.598" width="74.043" height="74.043" filterUnits="userSpaceOnUse"><feOffset/><feGaussianBlur stdDeviation="3" result="c"/><feFlood flood-opacity=".149"/><feComposite operator="in" in2="c"/><feComposite in="SourceGraphic"/></filter><filter id="d" x="24.732" y="155.332" width="46.578" height="36.669" filterUnits="userSpaceOnUse"><feOffset dy="5"/><feGaussianBlur stdDeviation="3" result="g"/><feFlood flood-opacity=".161"/><feComposite operator="in" in2="g"/><feComposite in="SourceGraphic"/></filter></defs><path d="M85.838 141.661v-17.032a1.067 1.067 0 01.051-.41 8.477 8.477 0 01.8-3.386 8.872 8.872 0 011.975-2.745 9.32 9.32 0 012.847-1.821 8.855 8.855 0 013.407-.667h.051a8.608 8.608 0 013.489.718 9.283 9.283 0 012.873 1.949 9.283 9.283 0 011.949 2.873 8.608 8.608 0 01.718 3.489 9.027 9.027 0 01-.564 3.129 14.533 14.533 0 017.08 3.9 14.193 14.193 0 013.129 4.668 14.409 14.409 0 011.077 5.541v.051a14.219 14.219 0 01-1.077 5.515 14.267 14.267 0 01-3.129 4.647 15.226 15.226 0 01-4.694 3.155 13.931 13.931 0 01-5.515 1.1 14.117 14.117 0 01-5.541-1.1 15.136 15.136 0 01-4.719-3.155 14.267 14.267 0 01-3.129-4.643 14.219 14.219 0 01-1.078-5.519zm9.08-22.265a5.05 5.05 0 00-2.026.41 5.322 5.322 0 00-1.667 1.129 5.322 5.322 0 00-1.129 1.667 5.05 5.05 0 00-.41 2.026.88.88 0 01-.051.359l.051 16.673v.051a.228.228 0 01-.026.1.228.228 0 00-.026.1 10.14 10.14 0 00.846 4.13 10.925 10.925 0 002.283 3.36 10.49 10.49 0 003.386 2.257 10.6 10.6 0 004.155.821 10.412 10.412 0 004.13-.821 10.564 10.564 0 003.36-2.257 10.925 10.925 0 002.283-3.36 10.14 10.14 0 00.846-4.13v-.051a10.1 10.1 0 00-.821-4.053 11.109 11.109 0 00-2.204-3.327 10.738 10.738 0 00-3.283-2.309 10.184 10.184 0 00-4.053-.923.2.2 0 00-.128.026.2.2 0 01-.128.026 1.679 1.679 0 01-1.231-.513 1.751 1.751 0 01-.667-1.642v-.051a1.979 1.979 0 01.564-1.129 5.1 5.1 0 001.18-3.335 5.05 5.05 0 00-.41-2.026 5.554 5.554 0 00-1.1-1.667A5.023 5.023 0 0097 119.808a5.05 5.05 0 00-2.026-.41zm34.68 36.938a13.312 13.312 0 01-5.1-1 13.133 13.133 0 01-4.335-2.9 13.205 13.205 0 01-2.9-4.309 13.253 13.253 0 01-1-5.13v-13.544a1.781 1.781 0 01.539-1.308 1.781 1.781 0 011.308-.539 1.781 1.781 0 011.308.539 1.781 1.781 0 01.539 1.308v13.544a9.632 9.632 0 00.744 3.771 9.52 9.52 0 002.052 3.078 9.52 9.52 0 003.078 2.052 9.632 9.632 0 003.771.744 9.446 9.446 0 003.745-.744 9.594 9.594 0 003.052-2.052 9.956 9.956 0 002.078-3.052 9.174 9.174 0 00.77-3.745v-13.596a1.781 1.781 0 01.539-1.308 1.781 1.781 0 011.308-.539 1.781 1.781 0 011.308.539 1.781 1.781 0 01.539 1.308v13.544a13.253 13.253 0 01-1 5.13 13.205 13.205 0 01-2.9 4.309 13.205 13.205 0 01-4.309 2.9 13.253 13.253 0 01-5.134 1zm16.571-.154a1.741 1.741 0 01-1.308-.564 1.867 1.867 0 01-.539-1.336v-13.542a13.122 13.122 0 011-5.079 13.206 13.206 0 012.9-4.309 13.133 13.133 0 014.335-2.9 13.312 13.312 0 015.1-1 1.781 1.781 0 011.308.539 1.781 1.781 0 01.539 1.308 1.781 1.781 0 01-.539 1.308 1.781 1.781 0 01-1.308.539 9.446 9.446 0 00-3.745.744 9.594 9.594 0 00-3.052 2.052 10.048 10.048 0 00-2.078 3.027 9 9 0 00-.77 3.719v13.594a1.867 1.867 0 01-.539 1.334 1.741 1.741 0 01-1.304.566zm27.857-17.956a1.781 1.781 0 011.308.539 1.781 1.781 0 01.539 1.308v4.72a1.781 1.781 0 01-.539 1.308 1.781 1.781 0 01-1.308.539 1.781 1.781 0 01-1.308-.539 1.781 1.781 0 01-.539-1.308v-4.72a1.781 1.781 0 01.539-1.308 1.781 1.781 0 011.308-.539zm10.671-8.773a1.741 1.741 0 01.564-1.308 1.867 1.867 0 011.334-.539 1.781 1.781 0 011.308.539 1.781 1.781 0 01.539 1.308v25.036a1.781 1.781 0 01-.539 1.308 1.781 1.781 0 01-1.308.539 1.867 1.867 0 01-1.334-.539 1.741 1.741 0 01-.564-1.308v-2.924a5.86 5.86 0 01-.513.564 14.267 14.267 0 01-4.646 3.129 14.219 14.219 0 01-5.515 1.077 14.409 14.409 0 01-5.541-1.077 14.193 14.193 0 01-4.668-3.129 14.083 14.083 0 01-3.076-4.592 14.788 14.788 0 01-1.129-5.464v-.205a14.584 14.584 0 011.129-5.437 14.158 14.158 0 013.078-4.566 14.193 14.193 0 014.668-3.129 14.409 14.409 0 015.541-1.077 14.219 14.219 0 015.513 1.076 14.267 14.267 0 014.643 3.129 1.323 1.323 0 01.282.257q.128.154.231.257zm-10.671 23.189a10.32 10.32 0 004.155-.846 10.841 10.841 0 003.386-2.283 10.841 10.841 0 002.283-3.386 10.32 10.32 0 00.846-4.155 10.14 10.14 0 00-.846-4.13 10.925 10.925 0 00-2.283-3.36 10.841 10.841 0 00-3.386-2.283 10.32 10.32 0 00-4.155-.846 10.571 10.571 0 00-4.078.8 10.963 10.963 0 00-3.386 2.18 10.614 10.614 0 00-2.335 3.249 10 10 0 00-.923 4.027v.41a10.14 10.14 0 00.846 4.13 10.706 10.706 0 002.309 3.36 11.16 11.16 0 003.412 2.283 10.32 10.32 0 004.155.85zm31.4 3.642a14.409 14.409 0 01-5.541-1.077 14.193 14.193 0 01-4.668-3.129 14.083 14.083 0 01-3.079-4.596 14.788 14.788 0 01-1.129-5.464v-.205a14.666 14.666 0 011.129-5.412 14.083 14.083 0 013.078-4.592 14.193 14.193 0 014.668-3.129 14.409 14.409 0 015.541-1.077 1.781 1.781 0 011.308.539 1.781 1.781 0 01.539 1.308 1.781 1.781 0 01-.539 1.308 1.781 1.781 0 01-1.308.539 10.32 10.32 0 00-4.155.846 11.16 11.16 0 00-3.412 2.283 10.706 10.706 0 00-2.309 3.36 10.139 10.139 0 00-.846 4.13 10.32 10.32 0 00.846 4.155 10.626 10.626 0 002.309 3.386 11.16 11.16 0 003.412 2.283 10.32 10.32 0 004.155.846 10.32 10.32 0 004.155-.846 10.841 10.841 0 003.386-2.283 10.841 10.841 0 002.283-3.386 10.32 10.32 0 00.846-4.155V120.58a1.741 1.741 0 01.564-1.308 1.867 1.867 0 011.334-.539 1.808 1.808 0 011.283.539 1.741 1.741 0 01.562 1.308v21.44a14.787 14.787 0 01-1.129 5.464 13.711 13.711 0 01-3.129 4.592 14.267 14.267 0 01-4.642 3.129 14.219 14.219 0 01-5.515 1.075zm30.063-18.058a1.781 1.781 0 011.308.539 1.781 1.781 0 01.539 1.308v4.72a1.781 1.781 0 01-.539 1.308 1.781 1.781 0 01-1.308.539 1.781 1.781 0 01-1.308-.539 1.781 1.781 0 01-.539-1.308v-4.72a1.781 1.781 0 01.539-1.308 1.781 1.781 0 011.304-.539zm10.671-8.773a1.741 1.741 0 01.564-1.308 1.867 1.867 0 011.334-.539 1.781 1.781 0 011.308.539 1.781 1.781 0 01.539 1.308v25.036a1.781 1.781 0 01-.539 1.308 1.781 1.781 0 01-1.308.539 1.867 1.867 0 01-1.334-.539 1.741 1.741 0 01-.564-1.308v-2.924a5.861 5.861 0 01-.513.564 14.267 14.267 0 01-4.643 3.129 14.219 14.219 0 01-5.515 1.077 14.409 14.409 0 01-5.541-1.077 14.193 14.193 0 01-4.668-3.129 14.083 14.083 0 01-3.078-4.592 14.787 14.787 0 01-1.129-5.464v-.205a14.584 14.584 0 011.129-5.438 14.158 14.158 0 013.078-4.566 14.193 14.193 0 014.668-3.129 14.409 14.409 0 015.541-1.077 14.219 14.219 0 015.515 1.077 14.267 14.267 0 014.643 3.129 1.323 1.323 0 01.282.257q.128.154.231.257zm-10.675 23.189a10.32 10.32 0 004.155-.846 10.841 10.841 0 003.386-2.283 10.841 10.841 0 002.283-3.386 10.32 10.32 0 00.846-4.155 10.14 10.14 0 00-.846-4.13 10.925 10.925 0 00-2.283-3.36 10.841 10.841 0 00-3.386-2.283 10.32 10.32 0 00-4.155-.846 10.571 10.571 0 00-4.078.8 10.963 10.963 0 00-3.386 2.18 10.614 10.614 0 00-2.334 3.249 10 10 0 00-.923 4.027v.41a10.14 10.14 0 00.846 4.13 10.706 10.706 0 002.309 3.36 11.16 11.16 0 003.412 2.283 10.32 10.32 0 004.154.85z" fill="#f60000"/><path d="M33.14 163.786l-10.615-15.551 12.956 4.9zm29.766 0l10.652-15.551-12.973 4.664z" fill="#f86666"/><g transform="translate(0 -.002)" filter="url(#a)"><path d="M28.021 56.043a28.066 28.066 0 01-10.544-2.052A27.984 27.984 0 01.513 33.373a28.1 28.1 0 011.539-15.9A27.984 27.984 0 0122.669.513a28.1 28.1 0 0115.9 1.539A27.985 27.985 0 0155.53 22.67a28.1 28.1 0 01-1.539 15.9 27.985 27.985 0 01-20.618 16.96 28.223 28.223 0 01-5.352.513zm.009-47.515a19.488 19.488 0 00-10.883 35.638 19.14 19.14 0 0010.355 3.3c.187.005.371.008.549.008A19.485 19.485 0 0043.5 16.144a19.575 19.575 0 00-14.92-7.608c-.18-.005-.369-.008-.55-.008z" transform="translate(20 109.6)" fill="url(#b)"/></g><path d="M28.022 2.227A25.795 25.795 0 112.227 28.022 25.835 25.835 0 0128.022 2.227m0-2.227a28.022 28.022 0 1028.021 28.022A28.02 28.02 0 0028.022 0z" transform="translate(20 109.598)" opacity=".4" fill="url(#c)"/><path d="M62.312 159.332H33.734l-.631 4.454h29.84z" fill="#f97676"/><g transform="translate(0 -.002)" filter="url(#d)"><path d="M37 134l14.289 18.669L65.578 134z" transform="translate(-3.27 25.33)" fill="url(#e)"/></g><path d="M47.958 153.038a15.444 15.444 0 1115.444-15.445 15.462 15.462 0 01-15.444 15.445zm.253-9.832a2.887 2.887 0 00.62.066 1.7 1.7 0 001.832-1.939 11.347 11.347 0 01.4-2.746c.109-.424.227-.829.341-1.221v-.007a9.386 9.386 0 00.494-2.315 3.878 3.878 0 00-.341-1.845 2.62 2.62 0 00-.687-.8 1.38 1.38 0 00-.892-.258 4.14 4.14 0 00-1.347.277h-.843a4.133 4.133 0 00-1.347-.277 1.372 1.372 0 00-.892.262 2.611 2.611 0 00-.682.794 3.873 3.873 0 00-.343 1.852 9.366 9.366 0 00.49 2.3c.114.393.232.8.341 1.223a11.344 11.344 0 01.405 2.756 1.7 1.7 0 001.834 1.941 2.816 2.816 0 00.616-.066zm4.074-9.657a5.578 5.578 0 01.164 1.493 9.646 9.646 0 01-.512 2.454 35.47 35.47 0 00-.385 1.4 3.08 3.08 0 00-.081.957c.006.084.011.171.015.253a3.294 3.294 0 00.6 2 .675.675 0 00.564.291 1.96 1.96 0 001.214-.646 5.977 5.977 0 001.15-1.577 3.922 3.922 0 00.091-4.074 8.906 8.906 0 00-2.82-2.551zm-8.139 0a8.916 8.916 0 00-2.832 2.551 3.923 3.923 0 00.091 4.075 5.976 5.976 0 001.152 1.59 1.959 1.959 0 001.214.645.674.674 0 00.564-.291 3.292 3.292 0 00.6-1.995l.018-.29a3.128 3.128 0 00-.086-.988c-.114-.458-.24-.9-.371-1.342a9.644 9.644 0 01-.513-2.457 5.557 5.557 0 01.166-1.5zm4.068 8.2a2.057 2.057 0 01-.594-.27 1.237 1.237 0 01-.594-1.041c0-.352.091-.516.286-.516a1.272 1.272 0 01.479.165 1.157 1.157 0 00.423.15 1.155 1.155 0 00.422-.149 1.274 1.274 0 01.479-.165c.195 0 .286.164.286.516a1.237 1.237 0 01-.594 1.041 2.076 2.076 0 01-.593.27zm1.484-4.461a.844.844 0 11.843-.844.845.845 0 01-.844.84zm-2.95 0a.844.844 0 11.843-.844.845.845 0 01-.844.84z" fill="#f60000"/></svg>