<svg xmlns="http://www.w3.org/2000/svg" xmlns:xlink="http://www.w3.org/1999/xlink" width="270" height="270" viewBox="0 0 270 270"><defs><linearGradient id="a" x1="0.009" y1="0.205" x2="0.807" y2="1.025" gradientUnits="objectBoundingBox"><stop offset="0" stop-color="#f60000"/><stop offset="1" stop-color="#ff4a4a"/></linearGradient><filter id="b" x="11" y="100.598" width="74.043" height="74.043" filterUnits="userSpaceOnUse"><feOffset input="SourceAlpha"/><feGaussianBlur stdDeviation="3" result="c"/><feFlood flood-opacity="0.149"/><feComposite operator="in" in2="c"/><feComposite in="SourceGraphic"/></filter><linearGradient id="d" x1="0.5" x2="0.5" y2="1" gradientUnits="objectBoundingBox"><stop offset="0" stop-color="#f5c3c3"/><stop offset="1" stop-color="#ffc4c4"/></linearGradient><linearGradient id="e" x1="0.5" x2="0.5" y2="1" gradientUnits="objectBoundingBox"><stop offset="0" stop-color="#f74040"/><stop offset="1" stop-color="#f60000"/></linearGradient><filter id="f" x="24.732" y="155.332" width="46.578" height="36.669" filterUnits="userSpaceOnUse"><feOffset dy="5" input="SourceAlpha"/><feGaussianBlur stdDeviation="3" result="g"/><feFlood flood-opacity="0.161"/><feComposite operator="in" in2="g"/><feComposite in="SourceGraphic"/></filter></defs><g transform="translate(-1272 -1677)"><g transform="translate(1272 1677)" fill="#fff" stroke="#707070" stroke-width="1" opacity="0"><rect width="270" height="270" stroke="none"/><rect x="0.5" y="0.5" width="269" height="269" fill="none"/></g><g transform="translate(17799 22759.598)"><path d="M0-20.919V-37.951a1.067,1.067,0,0,1,.051-.41,8.477,8.477,0,0,1,.8-3.386,8.872,8.872,0,0,1,1.975-2.745,9.32,9.32,0,0,1,2.847-1.821A8.855,8.855,0,0,1,9.08-46.98h.051a8.608,8.608,0,0,1,3.489.718,9.283,9.283,0,0,1,2.873,1.949,9.283,9.283,0,0,1,1.949,2.873,8.608,8.608,0,0,1,.718,3.489,9.027,9.027,0,0,1-.564,3.129,14.533,14.533,0,0,1,7.08,3.9,14.193,14.193,0,0,1,3.129,4.668,14.409,14.409,0,0,1,1.077,5.541v.051a14.219,14.219,0,0,1-1.077,5.515A14.267,14.267,0,0,1,24.676-10.5a15.226,15.226,0,0,1-4.694,3.155,13.931,13.931,0,0,1-5.515,1.1,14.117,14.117,0,0,1-5.541-1.1A15.136,15.136,0,0,1,4.207-10.5a14.267,14.267,0,0,1-3.129-4.643A14.219,14.219,0,0,1,0-20.662ZM9.08-43.184a5.05,5.05,0,0,0-2.026.41,5.322,5.322,0,0,0-1.667,1.129,5.322,5.322,0,0,0-1.129,1.667,5.05,5.05,0,0,0-.41,2.026.88.88,0,0,1-.051.359l.051,16.673v.051a.228.228,0,0,1-.026.1.228.228,0,0,0-.026.1,10.14,10.14,0,0,0,.846,4.13,10.925,10.925,0,0,0,2.283,3.36,10.49,10.49,0,0,0,3.386,2.257,10.6,10.6,0,0,0,4.155.821,10.412,10.412,0,0,0,4.13-.821,10.564,10.564,0,0,0,3.36-2.257,10.925,10.925,0,0,0,2.283-3.36,10.14,10.14,0,0,0,.846-4.13v-.051a10.1,10.1,0,0,0-.821-4.053A11.109,11.109,0,0,0,22.06-28.1a10.738,10.738,0,0,0-3.283-2.309,10.184,10.184,0,0,0-4.053-.923.2.2,0,0,0-.128.026.2.2,0,0,1-.128.026,1.679,1.679,0,0,1-1.231-.513,1.751,1.751,0,0,1-.667-1.642v-.051a1.979,1.979,0,0,1,.564-1.129,5.1,5.1,0,0,0,1.18-3.335,5.05,5.05,0,0,0-.41-2.026,5.554,5.554,0,0,0-1.1-1.667,5.023,5.023,0,0,0-1.642-1.129,5.05,5.05,0,0,0-2.026-.41ZM43.76-6.246a13.312,13.312,0,0,1-5.1-1,13.133,13.133,0,0,1-4.335-2.9,13.205,13.205,0,0,1-2.9-4.309,13.253,13.253,0,0,1-1-5.13V-33.129a1.781,1.781,0,0,1,.539-1.308,1.781,1.781,0,0,1,1.308-.539,1.781,1.781,0,0,1,1.308.539,1.781,1.781,0,0,1,.539,1.308v13.544a9.632,9.632,0,0,0,.744,3.771,9.52,9.52,0,0,0,2.052,3.078,9.52,9.52,0,0,0,3.078,2.052,9.632,9.632,0,0,0,3.771.744,9.446,9.446,0,0,0,3.745-.744,9.594,9.594,0,0,0,3.052-2.052,9.956,9.956,0,0,0,2.078-3.052,9.174,9.174,0,0,0,.77-3.745V-33.129a1.781,1.781,0,0,1,.539-1.308,1.781,1.781,0,0,1,1.308-.539,1.781,1.781,0,0,1,1.308.539,1.781,1.781,0,0,1,.539,1.308v13.544a13.253,13.253,0,0,1-1,5.13,13.205,13.205,0,0,1-2.9,4.309,13.205,13.205,0,0,1-4.309,2.9A13.253,13.253,0,0,1,43.76-6.246ZM60.331-6.4a1.741,1.741,0,0,1-1.308-.564A1.867,1.867,0,0,1,58.484-8.3V-21.842a13.122,13.122,0,0,1,1-5.079,13.206,13.206,0,0,1,2.9-4.309,13.133,13.133,0,0,1,4.335-2.9,13.312,13.312,0,0,1,5.1-1,1.781,1.781,0,0,1,1.308.539,1.781,1.781,0,0,1,.539,1.308,1.781,1.781,0,0,1-.539,1.308,1.781,1.781,0,0,1-1.308.539,9.446,9.446,0,0,0-3.745.744,9.594,9.594,0,0,0-3.052,2.052,10.048,10.048,0,0,0-2.078,3.027,9,9,0,0,0-.77,3.719V-8.3a1.867,1.867,0,0,1-.539,1.334A1.741,1.741,0,0,1,60.331-6.4ZM88.188-24.356a1.781,1.781,0,0,1,1.308.539,1.781,1.781,0,0,1,.539,1.308v4.72a1.781,1.781,0,0,1-.539,1.308,1.781,1.781,0,0,1-1.308.539,1.781,1.781,0,0,1-1.308-.539,1.781,1.781,0,0,1-.539-1.308v-4.72a1.781,1.781,0,0,1,.539-1.308A1.781,1.781,0,0,1,88.188-24.356Zm10.671-8.773a1.741,1.741,0,0,1,.564-1.308,1.867,1.867,0,0,1,1.334-.539,1.781,1.781,0,0,1,1.308.539,1.781,1.781,0,0,1,.539,1.308V-8.093a1.781,1.781,0,0,1-.539,1.308,1.781,1.781,0,0,1-1.308.539,1.867,1.867,0,0,1-1.334-.539,1.741,1.741,0,0,1-.564-1.308v-2.924a5.86,5.86,0,0,1-.513.564A14.267,14.267,0,0,1,93.7-7.324a14.219,14.219,0,0,1-5.515,1.077,14.409,14.409,0,0,1-5.541-1.077,14.193,14.193,0,0,1-4.668-3.129A14.083,14.083,0,0,1,74.9-15.045a14.788,14.788,0,0,1-1.129-5.464v-.205A14.584,14.584,0,0,1,74.9-26.151a14.158,14.158,0,0,1,3.078-4.566,14.193,14.193,0,0,1,4.668-3.129,14.409,14.409,0,0,1,5.541-1.077A14.219,14.219,0,0,1,93.7-33.847a14.267,14.267,0,0,1,4.643,3.129,1.323,1.323,0,0,1,.282.257q.128.154.231.257ZM88.188-9.94a10.32,10.32,0,0,0,4.155-.846,10.841,10.841,0,0,0,3.386-2.283,10.841,10.841,0,0,0,2.283-3.386,10.32,10.32,0,0,0,.846-4.155,10.14,10.14,0,0,0-.846-4.13,10.925,10.925,0,0,0-2.283-3.36,10.841,10.841,0,0,0-3.386-2.283,10.32,10.32,0,0,0-4.155-.846,10.571,10.571,0,0,0-4.078.8,10.963,10.963,0,0,0-3.386,2.18A10.614,10.614,0,0,0,78.389-25a10,10,0,0,0-.923,4.027v.41a10.14,10.14,0,0,0,.846,4.13,10.706,10.706,0,0,0,2.309,3.36,11.16,11.16,0,0,0,3.412,2.283A10.32,10.32,0,0,0,88.188-9.94Zm31.4,3.642a14.409,14.409,0,0,1-5.541-1.077,14.193,14.193,0,0,1-4.668-3.129A14.083,14.083,0,0,1,106.3-15.1a14.788,14.788,0,0,1-1.129-5.464v-.205a14.666,14.666,0,0,1,1.129-5.412,14.083,14.083,0,0,1,3.078-4.592,14.193,14.193,0,0,1,4.668-3.129,14.409,14.409,0,0,1,5.541-1.077,1.781,1.781,0,0,1,1.308.539,1.781,1.781,0,0,1,.539,1.308,1.781,1.781,0,0,1-.539,1.308,1.781,1.781,0,0,1-1.308.539,10.32,10.32,0,0,0-4.155.846,11.16,11.16,0,0,0-3.412,2.283,10.706,10.706,0,0,0-2.309,3.36,10.139,10.139,0,0,0-.846,4.13,10.32,10.32,0,0,0,.846,4.155,10.626,10.626,0,0,0,2.309,3.386,11.16,11.16,0,0,0,3.412,2.283,10.32,10.32,0,0,0,4.155.846,10.32,10.32,0,0,0,4.155-.846,10.841,10.841,0,0,0,3.386-2.283,10.841,10.841,0,0,0,2.283-3.386,10.32,10.32,0,0,0,.846-4.155V-42a1.741,1.741,0,0,1,.564-1.308,1.867,1.867,0,0,1,1.334-.539,1.808,1.808,0,0,1,1.283.539A1.741,1.741,0,0,1,134-42V-20.56a14.787,14.787,0,0,1-1.129,5.464,13.711,13.711,0,0,1-3.129,4.592A14.267,14.267,0,0,1,125.1-7.375,14.219,14.219,0,0,1,119.585-6.3Zm30.063-18.058a1.781,1.781,0,0,1,1.308.539,1.781,1.781,0,0,1,.539,1.308v4.72a1.781,1.781,0,0,1-.539,1.308,1.781,1.781,0,0,1-1.308.539,1.781,1.781,0,0,1-1.308-.539,1.781,1.781,0,0,1-.539-1.308v-4.72a1.781,1.781,0,0,1,.539-1.308A1.781,1.781,0,0,1,149.647-24.356Zm10.671-8.773a1.741,1.741,0,0,1,.564-1.308,1.867,1.867,0,0,1,1.334-.539,1.781,1.781,0,0,1,1.308.539,1.781,1.781,0,0,1,.539,1.308V-8.093a1.781,1.781,0,0,1-.539,1.308,1.781,1.781,0,0,1-1.308.539,1.867,1.867,0,0,1-1.334-.539,1.741,1.741,0,0,1-.564-1.308v-2.924a5.861,5.861,0,0,1-.513.564,14.267,14.267,0,0,1-4.643,3.129,14.219,14.219,0,0,1-5.515,1.077,14.409,14.409,0,0,1-5.541-1.077,14.193,14.193,0,0,1-4.668-3.129,14.083,14.083,0,0,1-3.078-4.592,14.787,14.787,0,0,1-1.129-5.464v-.205a14.584,14.584,0,0,1,1.129-5.438,14.158,14.158,0,0,1,3.078-4.566,14.193,14.193,0,0,1,4.668-3.129,14.409,14.409,0,0,1,5.541-1.077,14.219,14.219,0,0,1,5.515,1.077,14.267,14.267,0,0,1,4.643,3.129,1.323,1.323,0,0,1,.282.257q.128.154.231.257ZM149.647-9.94a10.32,10.32,0,0,0,4.155-.846,10.841,10.841,0,0,0,3.386-2.283,10.841,10.841,0,0,0,2.283-3.386,10.32,10.32,0,0,0,.846-4.155,10.14,10.14,0,0,0-.846-4.13,10.925,10.925,0,0,0-2.283-3.36,10.841,10.841,0,0,0-3.386-2.283,10.32,10.32,0,0,0-4.155-.846,10.571,10.571,0,0,0-4.078.8,10.963,10.963,0,0,0-3.386,2.18A10.614,10.614,0,0,0,139.849-25a10,10,0,0,0-.923,4.027v.41a10.14,10.14,0,0,0,.846,4.13,10.706,10.706,0,0,0,2.309,3.36,11.16,11.16,0,0,0,3.412,2.283A10.32,10.32,0,0,0,149.647-9.94Z" transform="translate(-16441.162 -20920.018)" fill="#f60000"/><path d="M17.415,119.651,6.8,104.1,19.756,109Z" transform="translate(-16511.275 -21038.463)" fill="#f86666"/><path d="M111.668,119.651,122.32,104.1l-12.973,4.664Z" transform="translate(-16575.762 -21038.463)" fill="#f86666"/><g transform="matrix(1, 0, 0, 1, -16527, -21082.6)" filter="url(#b)"><path d="M28.021,56.043a28.066,28.066,0,0,1-10.544-2.052A27.984,27.984,0,0,1,.513,33.373a28.1,28.1,0,0,1,1.539-15.9A27.984,27.984,0,0,1,22.669.513a28.1,28.1,0,0,1,15.9,1.539A27.985,27.985,0,0,1,55.53,22.67a28.1,28.1,0,0,1-1.539,15.9A27.985,27.985,0,0,1,33.373,55.53,28.223,28.223,0,0,1,28.021,56.043ZM28.03,8.528A19.488,19.488,0,0,0,17.147,44.166a19.14,19.14,0,0,0,10.355,3.3c.187.005.371.008.549.008A19.485,19.485,0,0,0,43.5,16.144a19.575,19.575,0,0,0-14.92-7.608C28.4,8.531,28.211,8.528,28.03,8.528Z" transform="translate(20 109.6)" fill="url(#a)"/></g><path d="M28.022,2.227A25.795,25.795,0,1,1,2.227,28.022,25.835,25.835,0,0,1,28.022,2.227m0-2.227A28.022,28.022,0,1,0,56.043,28.022,28.02,28.02,0,0,0,28.022,0Z" transform="translate(-16507 -20973)" opacity="0.4" fill="url(#d)"/><path d="M64.509,134H35.931l-.631,4.454H65.14Z" transform="translate(-16529.197 -21057.266)" fill="#f97676"/><g transform="matrix(1, 0, 0, 1, -16527, -21082.6)" filter="url(#f)"><path d="M37,134l14.289,18.669L65.578,134Z" transform="translate(-3.27 25.33)" fill="url(#e)"/></g><path d="M15.444,30.889A15.444,15.444,0,1,1,30.888,15.444,15.462,15.462,0,0,1,15.444,30.889Zm.253-9.832h0a2.887,2.887,0,0,0,.62.066,1.7,1.7,0,0,0,1.832-1.939,11.347,11.347,0,0,1,.4-2.746c.109-.424.227-.829.341-1.221l0-.007a9.386,9.386,0,0,0,.494-2.315,3.878,3.878,0,0,0-.341-1.845,2.62,2.62,0,0,0-.687-.8,1.38,1.38,0,0,0-.892-.258,4.14,4.14,0,0,0-1.347.277h-.843a4.133,4.133,0,0,0-1.347-.277,1.372,1.372,0,0,0-.892.262,2.611,2.611,0,0,0-.682.794A3.873,3.873,0,0,0,12.01,12.9,9.366,9.366,0,0,0,12.5,15.2c.114.393.232.8.341,1.223a11.344,11.344,0,0,1,.405,2.756,1.7,1.7,0,0,0,1.834,1.941,2.816,2.816,0,0,0,.616-.066ZM19.771,11.4a5.578,5.578,0,0,1,.164,1.493,9.646,9.646,0,0,1-.512,2.454v0c-.136.469-.269.929-.385,1.4a3.08,3.08,0,0,0-.081.957c.006.084.011.171.015.253a3.294,3.294,0,0,0,.6,2,.675.675,0,0,0,.564.291,1.96,1.96,0,0,0,1.214-.646A5.977,5.977,0,0,0,22.5,18.025a3.922,3.922,0,0,0,.091-4.074A8.906,8.906,0,0,0,19.771,11.4h0ZM11.632,11.4h0A8.916,8.916,0,0,0,8.8,13.951a3.923,3.923,0,0,0,.091,4.075,5.976,5.976,0,0,0,1.152,1.59,1.959,1.959,0,0,0,1.214.645.674.674,0,0,0,.564-.291,3.292,3.292,0,0,0,.6-1.995c.005-.095.011-.193.018-.29a3.128,3.128,0,0,0-.086-.988c-.114-.458-.24-.9-.371-1.342a9.644,9.644,0,0,1-.513-2.457,5.557,5.557,0,0,1,.166-1.5ZM15.7,19.6h0a2.057,2.057,0,0,1-.594-.27,1.237,1.237,0,0,1-.594-1.041c0-.352.091-.516.286-.516a1.272,1.272,0,0,1,.479.165,1.157,1.157,0,0,0,.423.15,1.155,1.155,0,0,0,.422-.149,1.274,1.274,0,0,1,.479-.165c.195,0,.286.164.286.516a1.237,1.237,0,0,1-.594,1.041,2.076,2.076,0,0,1-.593.27Zm1.484-4.461a.844.844,0,1,1,.843-.844A.845.845,0,0,1,17.183,15.135Zm-2.95,0a.844.844,0,1,1,.843-.844A.845.845,0,0,1,14.233,15.135Z" transform="translate(-16494.486 -20960.449)" fill="#f60000"/></g></g></svg>