<svg xmlns="http://www.w3.org/2000/svg" width="141.6" height="30" viewBox="0 0 141.6 30">
  <g id="Group_79" data-name="Group 79" transform="translate(-1220 -287.999)">
    <path id="Path_1" data-name="Path 1" d="M708.509,719.683a8.216,8.216,0,1,0,0,6.307h2.819c-1.2,4.564-5.223,7.635-10.529,7.635-6.466,0-11.026-4.564-11.026-10.788s4.56-10.788,11.026-10.788c5.306,0,9.327,3.071,10.529,7.635Z" transform="translate(530.227 -415.626)" fill="#e22000"/>
    <path id="Path_2" data-name="Path 2" d="M790.187,733.625c-6.466,0-11.026-4.564-11.026-10.788s4.56-10.788,11.026-10.788,11.026,4.564,11.026,10.788S796.653,733.625,790.187,733.625Zm8.207-10.788a8.207,8.207,0,1,0-8.207,8.216A7.883,7.883,0,0,0,798.394,722.836Z" transform="translate(464.881 -415.626)" fill="#e22000"/>
    <path id="Path_3" data-name="Path 3" d="M870.091,699.974A10.323,10.323,0,0,1,880.7,689.186a9.231,9.231,0,0,1,8.539,4.772h.083v-13.2H892.1V699.85c0,6.514-4.518,10.913-10.984,10.913S870.091,706.2,870.091,699.974Zm19.233,0a8.207,8.207,0,1,0-8.207,8.216A7.883,7.883,0,0,0,889.324,699.974Z" transform="translate(398.408 -392.764)" fill="#e22000"/>
    <path id="Path_4" data-name="Path 4" d="M966.809,723.749a7.786,7.786,0,0,0,8.166,7.3c3.233,0,5.72-1.328,7.047-3.693h3.026c-1.575,3.776-5.306,6.266-10.073,6.266-6.466,0-11.026-4.564-11.026-10.788s4.559-10.788,11.026-10.788,10.943,4.564,10.943,10.788v.913Zm.083-2.573v.083h16.124v-.083a8.235,8.235,0,0,0-16.124,0Z" transform="translate(329.795 -415.626)" fill="#e22000"/>
    <path id="Path_5" data-name="Path 5" d="M1073.307,719.683a8.216,8.216,0,1,0,0,6.307h2.819c-1.2,4.564-5.223,7.635-10.529,7.635-6.467,0-11.026-4.564-11.026-10.788s4.559-10.788,11.026-10.788c5.306,0,9.327,3.071,10.529,7.635Z" transform="translate(263.547 -415.626)" fill="#e22000"/>
    <path id="Path_6" data-name="Path 6" d="M1149.507,710.763v-30h2.828v18.422h.085l10.975-9.3h3.967l-12.03,10.141,12.452,10.732h-4.01l-11.354-9.887h-.085v9.887Z" transform="translate(193.816 -392.764)" fill="#e22000"/>
  </g>
</svg>
