<svg xmlns="http://www.w3.org/2000/svg" width="141.6" height="30"><g data-name="Group 79" fill="#e22000"><path data-name="Path 1" d="M18.736 16.058a8.216 8.216 0 100 6.307h2.819C20.355 26.929 16.332 30 11.026 30 4.56 30 0 25.436 0 19.212S4.56 8.424 11.026 8.424c5.306 0 9.327 3.071 10.529 7.635z"/><path data-name="Path 2" d="M35.068 30c-6.466 0-11.026-4.564-11.026-10.788s4.56-10.788 11.026-10.788 11.026 4.564 11.026 10.788S41.534 30 35.068 30zm8.207-10.788a8.207 8.207 0 10-8.207 8.216 7.883 7.883 0 008.207-8.217z"/><path data-name="Path 3" d="M48.499 19.211A10.323 10.323 0 0159.108 8.423a9.231 9.231 0 018.539 4.772h.083v-13.2h2.778v19.092C70.508 25.601 65.99 30 59.524 30s-11.025-4.563-11.025-10.789zm19.233 0a8.207 8.207 0 10-8.207 8.216 7.883 7.883 0 008.207-8.216z"/><path data-name="Path 4" d="M76.604 20.124a7.786 7.786 0 008.166 7.3c3.233 0 5.72-1.328 7.047-3.693h3.026c-1.575 3.776-5.306 6.266-10.073 6.266-6.466 0-11.026-4.564-11.026-10.788S78.303 8.421 84.77 8.421s10.943 4.564 10.943 10.788v.913zm.083-2.573v.083h16.124v-.083a8.235 8.235 0 00-16.124 0z"/><path data-name="Path 5" d="M116.854 16.058a8.216 8.216 0 100 6.307h2.819c-1.2 4.564-5.223 7.635-10.529 7.635-6.467 0-11.026-4.564-11.026-10.788s4.559-10.788 11.026-10.788c5.306 0 9.327 3.071 10.529 7.635z"/><path data-name="Path 6" d="M123.323 30V0h2.828v18.422h.085l10.975-9.3h3.967l-12.03 10.141L141.6 29.995h-4.01l-11.354-9.887h-.085v9.887z"/></g></svg>