<svg xmlns="http://www.w3.org/2000/svg" width="270" height="270"><path d="M35.43 155.947c7.425 0 13.052-4.293 14.734-10.675h-3.945c-1.566 4.293-5.569 7.078-10.789 7.078-6.845 0-11.49-4.87-11.49-11.488s4.641-11.487 11.485-11.487c5.221 0 9.223 2.785 10.789 7.078h3.945c-1.682-6.382-7.309-10.675-14.734-10.675-9.049 0-15.43 6.382-15.43 15.085s6.386 15.084 15.435 15.084zm33.644 0c9.049 0 15.43-6.382 15.43-15.085s-6.38-15.082-15.43-15.082-15.434 6.38-15.434 15.082 6.385 15.085 15.434 15.085zm0-3.6c-6.845 0-11.485-4.873-11.485-11.487s4.641-11.487 11.485-11.487 11.486 4.875 11.486 11.489-4.641 11.488-11.486 11.488zm19.955 2.843h3.887v-17.171c0-5.976 3.248-8.645 8.179-8.645 4.873 0 8.179 2.669 8.179 8.645v.406h3.828v-.345c0-8.3-4.873-12.3-12.008-12.3s-12.066 4-12.066 12.242zm42.172.754c6.671 0 11.892-3.481 14.1-8.761h-4.235c-1.856 3.307-5.337 5.164-9.861 5.164-6.439 0-10.905-4.235-11.427-10.211h26.741v-1.274c0-8.7-6.265-15.085-15.314-15.085s-15.435 6.383-15.435 15.085 6.381 15.085 15.431 15.085zm-11.312-17.287c.87-5.628 5.337-9.283 11.311-9.283 5.8 0 10.325 3.481 11.253 9.283zm44.84 17.289c5.569 0 10.325-2.727 12.356-7.832v7.078h3.6v-14.156c-.004-9.051-6.327-15.256-15.376-15.256s-15.43 6.321-15.43 15.256c0 9.167 6.787 14.911 14.85 14.911zm.58-3.6c-6.845 0-11.485-4.873-11.485-11.487s4.641-11.487 11.485-11.487 11.485 4.876 11.485 11.49-4.64 11.488-11.485 11.488zm35.385 3.6c8.875 0 15.314-6.034 15.314-15.259V114h-3.887v18.68c-2.146-4.351-6.613-6.9-12.066-6.9-8.411 0-14.85 6.15-14.85 14.969s6.381 15.198 15.489 15.198zm-.058-3.6c-6.845.004-11.486-4.866-11.486-11.484s4.641-11.487 11.49-11.487c6.9 0 11.485 4.873 11.485 11.487s-4.585 11.488-11.485 11.488zm35.036 15.842c8.005 0 14.328-4.061 14.328-14.04v-27.616h-3.886v14.794c0 7.02-4.119 10.849-10.267 10.849-6.207.005-10.268-3.771-10.268-10.849v-14.794h-3.887v14.794c0 9.8 5.917 14.446 13.574 14.446 4.989 0 8.817-2.2 10.847-6.324v4.815c0 7.484-4.293 10.5-10.441 10.5-4.757 0-8.3-1.915-9.8-5.8h-3.89c1.799 6.209 7.193 9.225 13.69 9.225z" fill="#e22000"/></svg>