<svg xmlns="http://www.w3.org/2000/svg" width="270" height="270" viewBox="0 0 270 270"><g transform="translate(-1272 -1677)"><g transform="translate(1272 1677)" fill="#fff" stroke="#707070" stroke-width="1" opacity="0"><rect width="270" height="270" stroke="none"/><rect x="0.5" y="0.5" width="269" height="269" fill="none"/></g><path d="M-137.71,14.967c7.425,0,13.052-4.293,14.734-10.675h-3.945c-1.566,4.293-5.569,7.078-10.789,7.078C-144.555,11.37-149.2,6.5-149.2-.118s4.641-11.487,11.485-11.487c5.221,0,9.223,2.785,10.789,7.078h3.945c-1.682-6.382-7.309-10.675-14.734-10.675-9.049,0-15.43,6.382-15.43,15.085S-146.759,14.967-137.71,14.967Zm33.644,0c9.049,0,15.43-6.382,15.43-15.085S-95.016-15.2-104.066-15.2-119.5-8.82-119.5-.118-113.115,14.967-104.066,14.967Zm0-3.6c-6.845,0-11.485-4.873-11.485-11.487s4.641-11.487,11.485-11.487S-92.58-6.732-92.58-.118-97.221,11.37-104.066,11.37Zm19.955,2.843h3.887V-2.961c0-5.976,3.248-8.645,8.179-8.645,4.873,0,8.179,2.669,8.179,8.645v.406h3.828V-2.9c0-8.3-4.873-12.3-12.008-12.3s-12.066,4-12.066,12.242Zm42.172.754c6.671,0,11.892-3.481,14.1-8.761h-4.235c-1.856,3.307-5.337,5.164-9.861,5.164-6.439,0-10.905-4.235-11.427-10.211h26.741V-.118c0-8.7-6.265-15.085-15.314-15.085S-57.37-8.82-57.37-.118-50.989,14.967-41.939,14.967ZM-53.251-2.323c.87-5.628,5.337-9.283,11.311-9.283,5.8,0,10.325,3.481,11.253,9.283Zm44.84,17.289c5.569,0,10.325-2.727,12.356-7.832v7.078h3.6V.056C7.541-8.995,1.218-15.2-7.831-15.2S-23.261-8.879-23.261.056C-23.261,9.223-16.474,14.967-8.411,14.967Zm.58-3.6c-6.845,0-11.485-4.873-11.485-11.487s4.641-11.487,11.485-11.487S3.654-6.732,3.654-.118-.986,11.37-7.831,11.37Zm35.385,3.6c8.875,0,15.314-6.034,15.314-15.259V-26.98H38.981V-8.3c-2.146-4.351-6.613-6.9-12.066-6.9-8.411,0-14.85,6.15-14.85,14.969S18.446,14.967,27.554,14.967Zm-.058-3.6C20.651,11.37,16.01,6.5,16.01-.118S20.651-11.605,27.5-11.605c6.9,0,11.485,4.873,11.485,11.487S34.4,11.37,27.5,11.37ZM62.532,27.208c8.005,0,14.328-4.061,14.328-14.04V-14.448H72.974V.346c0,7.02-4.119,10.849-10.267,10.849C56.5,11.2,52.439,7.424,52.439.346V-14.448H48.552V.346c0,9.8,5.917,14.446,13.574,14.446,4.989,0,8.817-2.2,10.847-6.324v4.815c0,7.484-4.293,10.5-10.441,10.5-4.757,0-8.3-1.915-9.8-5.8H48.842C50.641,24.192,56.035,27.208,62.532,27.208Z" transform="translate(1445.14 1817.98)" fill="#e22000"/></g></svg>