<svg id="Group_100" data-name="Group 100" xmlns="http://www.w3.org/2000/svg" width="230" height="58" viewBox="0 0 230 58">
  <path id="Path_255" data-name="Path 255" d="M242.237,54.971l-.137.841c-1.5,9.405-7.66,17.766-18.032,17.766-9.757,0-14.635-8.224-13.154-17.4,1.5-9.5,9.164-17.675,19.149-17.675,5.676,0,10.144,2.863,11.923,7.951l-6.246,3.09a6.954,6.954,0,0,0-6.771-5.293c-6.292,0-10.418,6.407-11.307,11.927s1.277,11.655,7.568,11.655c4.081,0,8.07-3.521,8.868-7.565h-7.09l.821-5.293Z" transform="translate(-162.632 -29.753)" fill="#49494a"/>
  <path id="Path_256" data-name="Path 256" d="M357.7,115.2h-6.2l3.442-21.7h6.223Z" transform="translate(-271.37 -72.258)" fill="#49494a"/>
  <path id="Path_257" data-name="Path 257" d="M377.509,40.958a4.449,4.449,0,0,1-4.263,3.658,3.054,3.054,0,0,1-3.1-3.658,4.585,4.585,0,0,1,4.309-3.658A3.021,3.021,0,0,1,377.509,40.958Z" transform="translate(-285.73 -28.826)" fill="#f16722"/>
  <path id="Path_258" data-name="Path 258" d="M408.8,90.234h-6.2l2.622-16.471H403.1l.844-5.225h2.12l1.163-7.338h6.178l-1.14,7.338h3.807l-.843,5.225h-3.807Z" transform="translate(-310.821 -47.296)" fill="#49494a"/>
  <path id="Path_259" data-name="Path 259" d="M462.024,93.058h.091a7.718,7.718,0,0,1,5.722-2.658,5.783,5.783,0,0,1,5.722,3.408,9.088,9.088,0,0,1,6.862-3.408c5.54,0,6.246,4.157,5.494,8.883L483.772,112.8h-6.2l1.824-11.4c.319-2.113,1.117-6.043-1.938-6.043-3.374,0-4.081,4.544-4.422,6.793L471.348,112.8h-6.2l1.733-11c.365-2.113,1.322-6.452-1.915-6.452-3.465,0-4.035,4.5-4.377,6.793L458.9,112.8h-6.2l3.465-21.7h6.2Z" transform="translate(-349.5 -69.863)" fill="#49494a"/>
  <path id="Path_260" data-name="Path 260" d="M614.831,103.018c-.388,2.726.137,5.839,3.374,5.839a5.531,5.531,0,0,0,4.651-2.953l5.585.931a12.193,12.193,0,0,1-10.988,6.77c-6.748,0-10.053-4.771-9.05-11.359,1.071-6.588,5.357-11.745,12.4-11.745,7.135,0,9.483,5.248,8.458,11.791l-.137.75H614.831Zm9.1-3.839c.046-2.2-1.026-4.385-3.419-4.385-2.485,0-4.217,2.113-4.878,4.385Z" transform="translate(-469.572 -69.94)" fill="#49494a"/>
  <path id="Path_261" data-name="Path 261" d="M720.536,59.518h-.091a8.6,8.6,0,0,1-6.292,2.749c-6.383,0-9.1-5.793-8.161-11.655.935-5.748,5.494-11.45,11.74-11.45a6.552,6.552,0,0,1,5.54,2.7h.091L726.144,24.1h6.2l-5.927,37.463h-6.2Zm2.029-8.837c.433-2.908-.98-6.043-4.172-6.043s-5.676,3.135-6.109,6.043.98,6.089,4.172,6.089C719.647,56.792,722.132,53.611,722.565,50.68Z" transform="translate(-544.912 -18.625)" fill="#49494a"/>
  <path id="Path_262" data-name="Path 262" d="M822.131,103.018c-.388,2.726.137,5.839,3.374,5.839a5.531,5.531,0,0,0,4.651-2.953l5.585.931a12.192,12.192,0,0,1-10.988,6.77c-6.748,0-10.053-4.771-9.05-11.359,1.071-6.588,5.357-11.745,12.4-11.745,7.135,0,9.483,5.248,8.458,11.791l-.137.75H822.131Zm9.073-3.839c.046-2.2-1.026-4.385-3.419-4.385-2.485,0-4.217,2.113-4.878,4.385Z" transform="translate(-629.615 -69.94)" fill="#49494a"/>
  <path id="Path_263" data-name="Path 263" d="M922.447,93.1h.091a7.6,7.6,0,0,1,6.064-2.7c5.859,0,6.907,4.112,6.109,9.133l-2.12,13.245h-6.2l1.824-11.473c.433-2.613,1.117-5.975-2.394-5.975-3.67,0-4.377,4.112-4.833,6.725L919.3,112.778h-6.2l3.465-21.7h6.2Z" transform="translate(-704.945 -69.863)" fill="#49494a"/>
  <g id="Group_101" data-name="Group 101">
    <g id="Group_100-2" data-name="Group 100">
      <path id="Path_264" data-name="Path 264" d="M16.5,8.633a20.591,20.591,0,0,1,9.164-7.2A20.851,20.851,0,0,1,33.233,0,20.458,20.458,0,0,1,53.658,18.811c.046.545.068,1.068.068,1.613a20.868,20.868,0,0,1-1.436,7.565l-3.921-3.908L46.432,22.15a14.324,14.324,0,0,0,.114-1.727A13.263,13.263,0,0,0,37.5,7.861a13.982,13.982,0,0,0-8.571-.068,13.085,13.085,0,0,0-7.295,6Z" transform="translate(-12.739)" fill="#f16722" fill-rule="evenodd"/>
      <path id="Path_265" data-name="Path 265" d="M10.806,71.189a6.713,6.713,0,0,0,.57.568l9.119,9.087h0v-.023l6.976-6.952-.3-.3L18.67,65.1l5.084-5.066L37.409,73.642a23.807,23.807,0,0,1-1.778,2.226L20.494,90.954v-.023h0L6.36,76.868l-.707-.7A20.286,20.286,0,0,1,0,62.079c0-.545.023-1.068.068-1.613a21.222,21.222,0,0,1,1.5-6.27,1.139,1.139,0,0,0,.114-.3l5.7,5.68a13.229,13.229,0,0,0,3.419,11.609" transform="translate(0 -41.655)" fill="#49494a" fill-rule="evenodd"/>
    </g>
    <path id="Path_266" data-name="Path 266" d="M16.5,38.1" transform="translate(-12.739 -29.444)" fill="#a01d23" fill-rule="evenodd"/>
  </g>
  <path id="Path_267" data-name="Path 267" d="M48.519,235.1c6.748,0,12.219,1.022,12.219,2.295s-5.471,2.295-12.219,2.295S36.3,238.667,36.3,237.395c.023-1.272,5.471-2.295,12.219-2.295" transform="translate(-28.025 -181.689)" fill="#49494a" fill-rule="evenodd" opacity="0.55"/>
</svg>
