<svg xmlns="http://www.w3.org/2000/svg" width="350.5" height="501" viewBox="0 0 350.5 501"><g transform="translate(-13829 -1835.5)"><g transform="translate(13829 1836)"><g transform="translate(36.069)"><path d="M0,75.095A174.21,174.21,0,0,1,77.22,12.556,168.25,168.25,0,0,1,141.126,0C231.951,0,306.4,71.984,313.4,163.458q.52,6.972.529,14.112a181.244,181.244,0,0,1-12.2,65.668l-32.993-33.9-16.268-16.717a120.513,120.513,0,0,0,.948-15.049c0-50.769-31.9-93.873-76.235-109.3-22.469-7.815-49.662-8.227-72.277-.6A108.887,108.887,0,0,0,49.735,109.6a113.378,113.378,0,0,0-6.256,10.158Z" transform="translate(0 0)" fill="#f16721"/></g><path d="M91.536,148.876c1.559,1.674,3.172,3.293,4.822,4.874l77.288,78.438.073.074V232.1l59.135-60-2.567-2.6L158.207,96.355l43.017-43.666q57.87,58.745,115.74,117.453A175.707,175.707,0,0,1,301.947,189.3L173.72,319.409v-.186l-.073.093-.073.093L53.928,198.012l-6.014-6.084A177.077,177.077,0,0,1,0,70.364Q0,63.387.532,56.54A176.86,176.86,0,0,1,13.367,2.456L14.394,0,62.711,49.005c-6.253,34.084,2.255,71.238,28.825,99.871" transform="translate(0 112.146)" fill="#f16721"/><g transform="translate(71.815 459.599)"><path d="M103.2,0H0V40.4H206.391V0Z" transform="translate(0 0)" fill="none"/><g transform="translate(0 0)"><path d="M103.208,0c57,0,103.208,9.05,103.208,20.191,0,11.16-46.21,20.21-103.208,20.21C46.228,40.4,0,31.352,0,20.191,0,9.05,46.228,0,103.208,0" transform="translate(-0.026)" fill="#f16721"/></g></g></g><path d="M175,749.6c57,0,103.207,9.049,103.207,20.191C278.206,780.95,232,790,175,790Zm0-116.654,57.856-58.7-2.568-2.6L175,515.539V481.456l26.225-26.621q57.869,58.745,115.739,117.453a175.6,175.6,0,0,1-15.017,19.164L175,720.257ZM304.806,499.335l-16.267-16.718a120.509,120.509,0,0,0,.948-15.049c0-50.769-31.9-93.873-76.234-109.3A114.855,114.855,0,0,0,175,352.179V290.014q1.1-.014,2.2-.014c90.825,0,165.273,71.984,172.276,163.458q.52,6.971.529,14.111a181.256,181.256,0,0,1-12.2,65.669Z" transform="translate(13829 1546)" fill="#fff" stroke="rgba(0,0,0,0)" stroke-miterlimit="10" stroke-width="1"/></g></svg>