<svg xmlns="http://www.w3.org/2000/svg" width="270" height="270"><path d="M99.605 137.218l-.137.841c-1.5 9.405-7.66 17.766-18.032 17.766-9.757 0-14.635-8.224-13.154-17.4 1.5-9.5 9.164-17.675 19.149-17.675 5.676 0 10.144 2.863 11.923 7.951l-6.246 3.09a6.954 6.954 0 00-6.771-5.293c-6.292 0-10.418 6.407-11.307 11.927s1.277 11.655 7.568 11.655c4.081 0 8.07-3.521 8.868-7.565h-7.09l.821-5.293zm6.725 17.724h-6.2l3.442-21.7h6.223z" fill="#49494a"/><path d="M111.779 124.132a4.449 4.449 0 01-4.263 3.658 3.054 3.054 0 01-3.1-3.658 4.585 4.585 0 014.309-3.658 3.021 3.021 0 013.054 3.658z" fill="#f16722"/><path d="M117.979 154.938h-6.2l2.622-16.471h-2.122l.844-5.225h2.12l1.163-7.338h6.178l-1.14 7.338h3.807l-.843 5.225h-3.807zm14.545-19.743h.091a7.718 7.718 0 015.722-2.658 5.783 5.783 0 015.722 3.408 9.088 9.088 0 016.862-3.408c5.54 0 6.246 4.157 5.494 8.883l-2.143 13.517h-6.2l1.824-11.4c.319-2.113 1.117-6.043-1.938-6.043-3.374 0-4.081 4.544-4.422 6.793l-1.688 10.65h-6.2l1.733-11c.365-2.113 1.322-6.452-1.915-6.452-3.465 0-4.035 4.5-4.377 6.793l-1.689 10.659h-6.2l3.465-21.7h6.2zm32.735 9.883c-.388 2.726.137 5.839 3.374 5.839a5.531 5.531 0 004.651-2.953l5.585.931a12.193 12.193 0 01-10.988 6.77c-6.748 0-10.053-4.771-9.05-11.359 1.071-6.588 5.357-11.745 12.4-11.745 7.135 0 9.483 5.248 8.458 11.791l-.137.75h-14.293zm9.1-3.839c.046-2.2-1.026-4.385-3.419-4.385-2.485 0-4.217 2.113-4.878 4.385zm21.265 11.654h-.091a8.6 8.6 0 01-6.292 2.749c-6.383 0-9.1-5.793-8.161-11.655.935-5.748 5.494-11.45 11.74-11.45a6.552 6.552 0 015.54 2.7h.091l2.781-17.762h6.2l-5.927 37.463h-6.2zm2.029-8.837c.433-2.908-.98-6.043-4.172-6.043s-5.676 3.135-6.109 6.043.98 6.089 4.172 6.089c3.191.022 5.676-3.159 6.109-6.09zm14.863 1.022c-.388 2.726.137 5.839 3.374 5.839a5.531 5.531 0 004.651-2.953l5.585.931a12.192 12.192 0 01-10.988 6.77c-6.748 0-10.053-4.771-9.05-11.359 1.071-6.588 5.357-11.745 12.4-11.745 7.135 0 9.483 5.248 8.458 11.791l-.137.75h-14.293zm9.073-3.839c.046-2.2-1.026-4.385-3.419-4.385-2.485 0-4.217 2.113-4.878 4.385zm15.913-6.002h.091a7.6 7.6 0 016.064-2.7c5.859 0 6.907 4.112 6.109 9.133l-2.12 13.245h-6.2l1.824-11.473c.433-2.613 1.117-5.975-2.394-5.975-3.67 0-4.377 4.112-4.833 6.725l-1.688 10.723h-6.2l3.465-21.7h6.2z" fill="#49494a"/><path d="M23.761 120.633a20.591 20.591 0 019.164-7.2A20.851 20.851 0 0140.494 112a20.458 20.458 0 0120.425 18.811c.046.545.068 1.068.068 1.613a20.868 20.868 0 01-1.436 7.565l-3.921-3.908-1.937-1.931a14.324 14.324 0 00.114-1.727 13.263 13.263 0 00-9.046-12.562 13.982 13.982 0 00-8.571-.068 13.085 13.085 0 00-7.295 6z" fill="#f16722" fill-rule="evenodd"/><path d="M30.806 141.534a6.713 6.713 0 00.57.568l9.119 9.087v-.023l6.976-6.952-.3-.3-8.501-8.469 5.084-5.066 13.655 13.608a23.807 23.807 0 01-1.778 2.226l-15.137 15.086v-.023L26.36 147.213l-.707-.7A20.286 20.286 0 0120 132.424c0-.545.023-1.068.068-1.613a21.222 21.222 0 011.5-6.27 1.139 1.139 0 00.114-.3l5.7 5.68a13.229 13.229 0 003.419 11.609" fill="#49494a" fill-rule="evenodd"/><path d="M40.494 165.411c6.748 0 12.219 1.022 12.219 2.295s-5.471 2.295-12.219 2.295-12.219-1.023-12.219-2.295c.023-1.272 5.471-2.295 12.219-2.295" fill="#49494a" fill-rule="evenodd" opacity=".55"/></svg>