<svg xmlns="http://www.w3.org/2000/svg" width="270" height="270"><path d="M115.317 122.45c1.709 0 2.279.57 2.279 2.28v32.971c0 1.709-.57 2.279-2.279 2.279h-7.406a2.49 2.49 0 01-2.227-1.087l-5.853-10.079a31.548 31.548 0 01-2.332-4.35c-.465-1.088-1.294-3.522-2.434-7.2h-.415c.881 4.092 1.45 6.889 1.658 8.339.155 1.45.259 3.678.259 6.733v5.365c0 1.709-.57 2.279-2.278 2.279h-6.63c-1.709 0-2.278-.57-2.278-2.279V124.73c0-1.71.569-2.28 2.278-2.28h7.924a2.512 2.512 0 012.227 1.036l6.734 10.98a33.544 33.544 0 011.865 3.418c.155.363.466 1.192 1.036 2.538.569 1.4 1.035 2.642 1.5 3.729h.466c-1.4-4.61-2.278-7.614-2.538-9.011a26.9 26.9 0 01-.466-5.7v-4.713c0-1.71.569-2.28 2.279-2.28zm48.54-.001c1.745 0 2.327.582 2.327 2.328v3.278a4.1 4.1 0 01-.74 2.38l-12.9 18.934h11.583c1.745 0 2.327.581 2.327 2.327v5.976c0 1.745-.582 2.327-2.327 2.327h-25.969c-1.745 0-2.326-.582-2.326-2.327v-3.332a4.053 4.053 0 01.74-2.327l12.957-18.986h-11.106c-1.745 0-2.327-.581-2.327-2.327v-5.923c0-1.746.582-2.328 2.327-2.328zM35.021 137.158c0-9.129 6.008-14.708 16.522-14.708 8.131 0 13.363 3.094 15.693 9.231.57 1.571.156 2.281-1.451 2.839l-7.044 2.434c-1.657.457-2.279.2-2.9-1.419-.828-2.08-1.865-2.891-4.3-2.891-3.522 0-4.506 1.217-4.506 4.463v8.216c0 3.245.984 4.463 4.506 4.463a4.227 4.227 0 004.35-2.891c.622-1.623 1.3-1.977 2.9-1.42l6.991 2.435c1.606.557 2.02 1.318 1.451 2.89-2.331 6.137-7.562 9.18-15.693 9.18-10.514 0-16.522-5.578-16.522-14.708z" fill="#fab01d"/><path d="M20 135.476c0-1.5.57-2.072 2.072-2.072h7.873c1.5 0 2.072.57 2.072 2.072v22.453c0 1.5-.57 2.072-2.072 2.072h-7.873c-1.5 0-2.072-.57-2.072-2.072zm9.252-13.026c2.124 0 2.764.708 2.764 2.763v2.054c0 2.055-.708 2.73-2.764 2.73h-6.488c-2.056 0-2.764-.675-2.764-2.73v-2.057c0-2.055.64-2.763 2.764-2.763zm41.223 13.026c0-1.5.57-2.072 2.072-2.072h7.873c1.5 0 2.072.57 2.072 2.072v22.453c0 1.5-.57 2.072-2.072 2.072h-7.873c-1.5 0-2.072-.57-2.072-2.072zm9.252-13.026c2.124 0 2.764.708 2.764 2.763v2.054c0 2.055-.708 2.73-2.764 2.73h-6.488c-2.056 0-2.764-.675-2.764-2.73v-2.057c0-2.055.64-2.763 2.764-2.763zm41.223 13.026c0-1.5.57-2.072 2.072-2.072h7.873c1.5 0 2.072.57 2.072 2.072v22.453c0 1.5-.57 2.072-2.072 2.072h-7.873c-1.5 0-2.072-.57-2.072-2.072zm9.252-13.026c2.124 0 2.764.708 2.764 2.763v2.054c0 2.055-.708 2.73-2.764 2.73h-6.488c-2.056 0-2.764-.675-2.764-2.73v-2.057c0-2.055.64-2.763 2.764-2.763z" fill="#f2b231"/><g transform="translate(174.898 122.449)"><rect width="75" height="38" rx="5" transform="translate(.102 -.449)" fill="#73ba5e"/><path d="M11.298 4.694c1.7 0 2.219.556 2.219 2.169v1.615c0 1.614-.569 2.144-2.219 2.144H9.729c-1.65 0-2.218-.53-2.218-2.144V6.863c0-1.614.514-2.169 2.218-2.169zM7.511 20.947c0-4.764 3.138-7.675 8.63-7.675 4.247 0 6.98 1.614 8.2 4.817.3.82.081 1.191-.758 1.483l-3.679 1.27c-.865.238-1.19.106-1.515-.741a2.037 2.037 0 00-2.245-1.509c-1.84 0-2.354.636-2.354 2.329v4.288c0 1.694.514 2.329 2.354 2.329a2.209 2.209 0 002.273-1.509c.324-.846.676-1.032 1.514-.741l3.653 1.27c.839.291 1.055.688.758 1.509-1.217 3.2-3.95 4.79-8.2 4.79-5.492 0-8.63-2.911-8.63-7.675zm19.358 0c0-4.79 3.138-7.675 8.63-7.675s8.631 2.885 8.631 7.675v4.235c0 4.79-3.139 7.675-8.631 7.675s-8.63-2.885-8.63-7.675zm10.984-.343c0-1.35-.785-2.012-2.354-2.012s-2.354.661-2.354 2.012v4.923c0 1.35.784 2.012 2.354 2.012s2.354-.662 2.354-2.012zm28.546-6.961c.893 0 1.19.264 1.19 1.112v16.594c0 .847-.3 1.111-1.19 1.111h-3.842c-.893 0-1.191-.265-1.191-1.111v-1.641a18.9 18.9 0 01.271-3.282 41.993 41.993 0 011.19-4.631h-.324c-.785 2.09-1.3 3.361-1.516 3.864l-1.163 2.62a1.341 1.341 0 01-1.325.767h-2.381a1.265 1.265 0 01-1.353-.767l-1.217-2.62-1.38-3.864h-.325c.623 2.275 1 3.89 1.163 4.869a22.164 22.164 0 01.216 3.071v1.614c0 .847-.3 1.111-1.19 1.111h-3.6c-.893 0-1.19-.265-1.19-1.111V14.755c0-.848.3-1.112 1.19-1.112h3.3c.974 0 1.271.159 1.678.82l3.949 8.231 3.977-8.2c.406-.715.677-.847 1.569-.847z" fill="#fff"/></g></svg>