<svg xmlns="http://www.w3.org/2000/svg" xmlns:xlink="http://www.w3.org/1999/xlink" width="330.613" height="500" viewBox="0 0 330.613 500"><defs><linearGradient id="a" y1="-0.187" x2="0.348" y2="1.143" gradientUnits="objectBoundingBox"><stop offset="0" stop-color="#d09318"/><stop offset="1" stop-color="#c3922e"/></linearGradient><linearGradient id="b" x1="0.102" x2="0.5" y2="1" gradientUnits="objectBoundingBox"><stop offset="0" stop-color="#f2b231"/><stop offset="1" stop-color="#eba10c"/></linearGradient></defs><g transform="translate(-474.591 -520.232)"><g transform="translate(513.358 611.416)"><path d="M724.454,533.545c35.328,13.219,47.444,16.794,47.444,16.794s-.479,2.664-1.726,7.13c-11.011,39.492-254.734-19-159.393,250.375.231,3.437,3.058,68.443-9.146,95.61-11.1,24.71-36.764,16.832-36.289,20.918-72.481,12.726-79.58-249.635-85.1-316,0-18.342,115.067-74.828,133.4-74.828Z" transform="translate(-480.251 -533.545)" fill="url(#a)"/></g><g transform="translate(474.591 520.232)"><path d="M475,749.949c-3.657-55.712,17.555-177.739,61.239-229.717,0,0-27.4,91.252-17.212,140.409,0,0,159.834-139.409,286.182-32.191,0,0-282.983-102.424-261.292,205.135,17.206,243.874,104.711,135.677,99.841,51.883,0,0,25.335,83.4-6.876,118.821a51.373,51.373,0,0,1-37.89,15.938C553.474,1020.227,489.1,964.618,475,749.949ZM531.07,582.957A29.219,29.219,0,1,1,560.3,612.183a29.215,29.215,0,0,1-29.226-29.226Z" transform="translate(-474.591 -520.232)" fill="url(#b)"/></g></g></svg>