<svg xmlns="http://www.w3.org/2000/svg" width="270" height="270"><path d="M20 151.346V118h4.354v20.654h.092l10.313-9.947h5.73l-11.828 11.046 12.24 11.6H35.08L24.447 140.9h-.092v10.452zm46.02.004h-3.989v-5.33h-.092a9.1 9.1 0 01-8.756 5.318c-5.865 0-11.458-4.216-11.458-11.918 0-6.877 5.042-11.919 12.19-11.919s12.1 4.859 12.1 12.1zm-4.31-11.93a7.793 7.793 0 10-7.792 7.884 7.481 7.481 0 007.8-7.154 8.556 8.556 0 000-.734zm9.53 11.93v-23.54c0-6.555 3.943-9.809 9.765-9.809 5.775 0 9.717 3.3 9.717 9.809v.047h-4.3v-.047c0-4.033-2.2-5.775-5.405-5.775-3.256 0-5.4 1.788-5.4 5.775v3.805h12.42v3.988h-12.42v15.747zm24.8-10.314v.091a7.226 7.226 0 007.609 6.189c2.934 0 5-.92 6.325-2.888h4.816c-1.742 4.218-5.865 6.922-11.14 6.922-7.152 0-12.19-5.042-12.19-11.918s5.042-11.919 12.19-11.919 12.1 5.042 12.1 11.919v1.61zm.138-3.988v.092h14.989v-.092a7.855 7.855 0 00-14.989 0zm23.101-14.624a3.025 3.025 0 113.024 3.073 3.025 3.025 0 01-3.024-3.073zm.872 28.925v-22.644h4.354v22.642zm27.639.001v-11.784c0-4.9-2.7-7.427-6.83-7.427s-6.83 2.521-6.83 7.427v11.784h-4.355v-11.784c0-7.565 4.492-11.46 11.185-11.46s11.185 3.85 11.185 11.46v11.784zm7.908-33.35h4.356v13.96h.091a9.377 9.377 0 018.435-4.446c5.822 0 11.414 4.216 11.414 11.917 0 6.877-5.042 11.918-12.19 11.918s-12.1-4.813-12.1-12.1zm19.895 21.431a7.771 7.771 0 10-7.793 7.884 7.482 7.482 0 007.8-7.154q.012-.361-.007-.73zm32.22 11.919l8.939-11.506-8.573-11.14h5.367l6.418 8.8h.091l6.418-8.8h5.226l-8.618 11.14 8.98 11.506h-5.362l-6.785-9.214h-.091l-6.785 9.214zm-14.11-12.547c3.057-6.983 6.144-8.263 7.9-8.855a.255.255 0 00.159-.324.248.248 0 00-.1-.129 12.744 12.744 0 00-7.031-1.992c-7.152 0-12.19 5.041-12.19 11.917a11.891 11.891 0 002.713 7.758.664.664 0 00.814.124c2.387-1.405 5.698-2.871 7.735-8.499zm1.887 1.21c-2.792 7.089-5.828 8.484-7.565 9.139a.256.256 0 00-.152.329.249.249 0 00.108.131 12.741 12.741 0 007.1 1.725c7.146-.269 12-5.5 11.738-12.367a11.9 11.9 0 00-2.99-7.63.666.666 0 00-.749-.139 18.091 18.091 0 00-7.49 8.812zm47.916 11.329a6.346 6.346 0 116.492-6.344 6.2 6.2 0 01-6.034 6.349 6.347 6.347 0 01-.458-.005zm0-11.586a5.242 5.242 0 105.336 5.242 5.089 5.089 0 00-4.931-5.244h-.4zm1.642 8.3l-1.531-2.088H242.2v2.088h-1.157v-6.119h3.136a1.953 1.953 0 012.152 1.734 1.805 1.805 0 01.011.262 1.9 1.9 0 01-1.473 1.955v.036l1.678 2.126zm-2.947-5.111v2.014h1.865a1.01 1.01 0 00.152-2.014.852.852 0 00-.152 0z" fill="#e22000"/></svg>