<svg xmlns="http://www.w3.org/2000/svg" width="270" height="270" viewBox="0 0 270 270"><g transform="translate(-974 -1210)"><g transform="translate(-298 43)"><g transform="translate(1272 1167)" fill="#fff" stroke="#707070" stroke-width="1" opacity="0"><rect width="270" height="270" stroke="none"/><rect x="0.5" y="0.5" width="269" height="269" fill="none"/></g></g><g transform="translate(531.038 122)"><path d="M462.962,1236.346V1203h4.354v20.654h.092l10.313-9.947h5.73l-11.828,11.046,12.24,11.6h-5.821L467.409,1225.9h-.092v10.452Z" transform="translate(0)" fill="#030303"/><path d="M506.149,1235.111H502.16v-5.33h-.092a9.1,9.1,0,0,1-8.756,5.318c-5.865,0-11.458-4.216-11.458-11.918,0-6.877,5.042-11.919,12.19-11.919s12.1,4.859,12.1,12.1Zm-4.31-11.93a7.793,7.793,0,1,0-7.792,7.884,7.481,7.481,0,0,0,7.8-7.154c.012-.244.009-.489,0-.734Z" transform="translate(2.833 1.239)" fill="#030303"/><path d="M507.519,1236.35v-23.54c0-6.555,3.943-9.809,9.765-9.809,5.775,0,9.717,3.3,9.717,9.809v.047h-4.3v-.047c0-4.033-2.2-5.775-5.405-5.775-3.256,0-5.4,1.788-5.4,5.775v3.805h12.42v3.988h-12.42v15.747Z" transform="translate(6.683)" fill="#030303"/><path d="M529.682,1224.795v.091a7.226,7.226,0,0,0,7.609,6.189c2.934,0,5-.92,6.325-2.888h4.816c-1.742,4.218-5.865,6.922-11.14,6.922-7.152,0-12.19-5.042-12.19-11.918s5.042-11.919,12.19-11.919,12.1,5.042,12.1,11.919v1.61Zm.138-3.988v.092h14.989v-.092a7.855,7.855,0,0,0-14.989,0Z" transform="translate(9.32 1.241)" fill="#030303"/><path d="M549.293,1207.236a3.025,3.025,0,1,1,3.024,3.073A3.025,3.025,0,0,1,549.293,1207.236Zm.872,28.925v-22.644h4.354v22.642Z" transform="translate(12.948 0.188)" fill="#030303"/><path d="M576.435,1235.032v-11.784c0-4.9-2.7-7.427-6.83-7.427s-6.83,2.521-6.83,7.427v11.784H558.42v-11.784c0-7.565,4.492-11.46,11.185-11.46s11.185,3.85,11.185,11.46v11.784Z" transform="translate(14.317 1.318)" fill="#030303"/><path d="M580.962,1203h4.356v13.96h.091a9.377,9.377,0,0,1,8.435-4.446c5.822,0,11.414,4.216,11.414,11.917,0,6.877-5.042,11.918-12.19,11.918s-12.1-4.813-12.1-12.1Zm19.895,21.431a7.771,7.771,0,1,0-7.793,7.884,7.482,7.482,0,0,0,7.8-7.154Q600.876,1224.8,600.857,1224.431Z" transform="translate(17.698)" fill="#030303"/><path d="M626.28,1234.954l8.939-11.506-8.573-11.14h5.367l6.418,8.8h.091l6.418-8.8h5.226l-8.618,11.14,8.98,11.506h-5.362l-6.785-9.214h-.091l-6.785,9.214Z" transform="translate(24.495 1.396)" fill="#030303"/><g transform="translate(625.407 1212.502)"><path d="M615.479,1222.564c3.057-6.983,6.144-8.263,7.9-8.855a.255.255,0,0,0,.159-.324.248.248,0,0,0-.1-.129,12.744,12.744,0,0,0-7.031-1.992c-7.152,0-12.19,5.041-12.19,11.917a11.891,11.891,0,0,0,2.713,7.758.664.664,0,0,0,.814.124C610.131,1229.658,613.442,1228.192,615.479,1222.564Z" transform="translate(-604.221 -1211.263)" fill="#030303"/><path d="M616.66,1223.3c-2.792,7.089-5.828,8.484-7.565,9.139a.256.256,0,0,0-.152.329.249.249,0,0,0,.108.131,12.741,12.741,0,0,0,7.1,1.725c7.146-.269,12-5.5,11.738-12.367a11.9,11.9,0,0,0-2.99-7.63.666.666,0,0,0-.749-.139A18.091,18.091,0,0,0,616.66,1223.3Z" transform="translate(-603.515 -1210.789)" fill="#030303"/></g><g transform="translate(680.268 1223.653)"><path d="M658.127,1233.649a6.346,6.346,0,1,1,6.492-6.344,6.2,6.2,0,0,1-6.034,6.349C658.431,1233.658,658.279,1233.656,658.127,1233.649Zm0-11.586a5.242,5.242,0,1,0,5.336,5.242,5.089,5.089,0,0,0-4.931-5.244c-.135,0-.27,0-.4,0Zm1.642,8.3-1.531-2.088h-1.417v2.088h-1.157v-6.119H658.8a1.953,1.953,0,0,1,2.152,1.734,1.805,1.805,0,0,1,.011.262,1.9,1.9,0,0,1-1.473,1.955v.036l1.678,2.126Zm-2.947-5.111v2.014h1.865a1.01,1.01,0,0,0,.152-2.014.852.852,0,0,0-.152,0Z" transform="translate(-651.927 -1220.96)" fill="#030303"/></g></g></g></svg>