<svg xmlns="http://www.w3.org/2000/svg" width="270" height="270" viewBox="0 0 270 270"><g transform="translate(-1570 -1167)"><g transform="translate(1570 1167)" fill="#fff" stroke="#707070" stroke-width="1" opacity="0"><rect width="270" height="270" stroke="none"/><rect x="0.5" y="0.5" width="269" height="269" fill="none"/></g><g transform="translate(1590 1214)"><g transform="translate(50.741)"><path d="M874.9,414.636c6.269-2.7,14.162,1.643,17.629,9.7s1.2,16.772-5.074,19.471-14.162-1.643-17.629-9.7-1.2-16.772,5.073-19.471Z" transform="translate(-848.666 -367.636)" fill="#35a5d9" fill-rule="evenodd"/><path d="M887.524,308.5c6.243,2.647,8.547,11.294,5.147,19.315s-11.217,12.377-17.459,9.731-8.547-11.294-5.147-19.315,11.217-12.377,17.459-9.73Z" transform="translate(-848.854 -298.285)" fill="#35a5d9" fill-rule="evenodd"/><path d="M837.5,281.27c-3.362-1.807-8.789,1.756-12.122,7.957s-3.308,12.694.054,14.5,8.79-1.755,12.122-7.957,3.308-12.693-.054-14.5Z" transform="translate(-819.047 -280.684)" fill="#35a5d9" fill-rule="evenodd"/><path d="M825.2,455.148c3.363-1.807,8.79,1.756,12.122,7.957s3.308,12.694-.054,14.5-8.79-1.756-12.122-7.957-3.308-12.694.054-14.5Z" transform="translate(-818.897 -394.332)" fill="#35a5d9" fill-rule="evenodd"/><path d="M820.521,360.185c4.821,0,8.729,6.545,8.729,14.617s-3.908,14.617-8.729,14.617-8.73-6.544-8.73-14.617,3.908-14.617,8.73-14.617Z" transform="translate(-811.792 -332.57)" fill="#35a5d9" fill-rule="evenodd"/><path d="M879.857,514.875c-2.634,3.983.632,10.783,7.294,15.189s14.2,4.748,16.83.765-.631-10.784-7.292-15.189-14.2-4.748-16.832-.764Z" transform="translate(-855.685 -431.862)" fill="#35a5d9" fill-rule="evenodd"/><path d="M1064.486,414.3c-6.27-2.7-14.162,1.643-17.629,9.7s-1.2,16.772,5.074,19.471,14.162-1.643,17.629-9.7,1.195-16.772-5.074-19.471Z" transform="translate(-964.376 -367.416)" fill="#35a5d9" fill-rule="evenodd"/><path d="M1052.24,308.167c-6.242,2.646-8.547,11.294-5.147,19.315s11.218,12.377,17.46,9.731,8.547-11.294,5.147-19.315-11.217-12.377-17.46-9.731Z" transform="translate(-964.565 -298.065)" fill="#35a5d9" fill-rule="evenodd"/><path d="M1118.966,280.933c3.363-1.807,8.79,1.756,12.123,7.958s3.307,12.693-.055,14.5-8.79-1.756-12.123-7.957-3.307-12.694.054-14.5Z" transform="translate(-1010.911 -280.463)" fill="#35a5d9" fill-rule="evenodd"/><path d="M1131.264,454.811c-3.363-1.807-8.79,1.755-12.123,7.957s-3.307,12.694.054,14.5,8.791-1.755,12.123-7.957,3.309-12.694-.054-14.5Z" transform="translate(-1011.06 -394.111)" fill="#35a5d9" fill-rule="evenodd"/><path d="M1135.347,359.848c-4.821,0-8.73,6.544-8.73,14.617s3.909,14.617,8.73,14.617,8.729-6.544,8.729-14.617-3.907-14.617-8.729-14.617Z" transform="translate(-1017.57 -332.35)" fill="#35a5d9" fill-rule="evenodd"/><path d="M1059.99,514.538c2.634,3.983-.631,10.783-7.293,15.188s-14.2,4.748-16.831.764.632-10.783,7.293-15.188,14.2-4.748,16.83-.764Z" transform="translate(-957.657 -431.642)" fill="#35a5d9" fill-rule="evenodd"/><path d="M965.275,360.278a15.438,15.438,0,1,1-15.437,15.438,15.437,15.437,0,0,1,15.437-15.438Z" transform="translate(-902.023 -332.631)" fill="#35a5d9" fill-rule="evenodd"/></g><g transform="translate(0 127.547)"><path d="M697.334,650.856c1.256,0,1.707.452,1.707,1.708V684.8c0,1.255-.451,1.707-1.707,1.707h-2.561c-1.256,0-1.708-.452-1.708-1.707V669.486a46.915,46.915,0,0,1,1.205-9.993h-.352a55.339,55.339,0,0,1-4.117,9.19l-4.921,8.687a2.246,2.246,0,0,1-1.958,1.2h-1.606a1.784,1.784,0,0,1-1.958-1.2l-5.021-8.737a41.357,41.357,0,0,1-3.867-9.14h-.351a49.828,49.828,0,0,1,1.055,10.043V684.8c0,1.255-.452,1.707-1.708,1.707h-2.41c-1.256,0-1.758-.452-1.758-1.707V652.564c0-1.256.5-1.708,1.758-1.708h2.209c1.406,0,1.857.252,2.41,1.306l10.445,18.68,10.444-18.63c.6-1.155.953-1.356,2.31-1.356Z" transform="translate(-665.299 -650.103)" fill="#706f6f"/><path d="M804.544,650.856c1.255,0,1.757.452,1.757,1.708v2.46c0,1.256-.5,1.707-1.757,1.707H789.178v8.788h13.006c1.255,0,1.707.452,1.707,1.707v2.46c0,1.255-.452,1.708-1.707,1.708H789.178v9.239H805.1c1.255,0,1.707.452,1.707,1.707v2.46c0,1.255-.452,1.707-1.707,1.707H784.61c-1.256,0-1.758-.452-1.758-1.707V652.564c0-1.256.5-1.708,1.758-1.708Z" transform="translate(-742.135 -650.103)" fill="#706f6f"/><path d="M879.784,650.856c9.239,0,14.562,5.022,14.562,13.257v9.14c0,8.235-5.323,13.256-14.562,13.256H868.537c-1.256,0-1.758-.452-1.758-1.707V652.564c0-1.256.5-1.708,1.758-1.708Zm8.285,13.207c0-4.771-2.962-7.332-8.234-7.332h-6.729v23.9h6.729c5.272,0,8.234-2.561,8.234-7.331Z" transform="translate(-796.992 -650.103)" fill="#706f6f"/><path d="M980.259,650.856c1.2,0,1.455.754.853,1.708L968.86,672.449V684.8c0,1.255-.452,1.707-1.708,1.707h-2.862c-1.256,0-1.707-.452-1.707-1.707V672.349l-12.3-19.785c-.6-.954-.3-1.708.9-1.708H954.7c2.159,0,2.561.1,3.313,1.507l7.784,13.558,7.833-13.558c.753-1.406,1.205-1.507,3.364-1.507Z" transform="translate(-851.375 -650.103)" fill="#706f6f"/><path d="M1064.156,684.757c.4,1.105,0,1.657-1.155,1.657h-2.611c-2.059,0-2.711-.3-3.113-1.506l-2.31-6.478h-13.859l-2.36,6.478c-.4,1.205-1.055,1.506-3.113,1.506h-2.31c-1.155,0-1.557-.552-1.155-1.657l12.553-32.639a1.811,1.811,0,0,1,2.108-1.406h2.662c1.206,0,1.708.3,2.109,1.356Zm-14.763-22.094a31.8,31.8,0,0,1-1.154-5.272l-.051-.854h-.351a18.34,18.34,0,0,1-1.105,6.076l-3.866,10.645h10.344Z" transform="translate(-904.997 -650.009)" fill="#706f6f"/><path d="M1183.45,684.757c.4,1.105,0,1.657-1.155,1.657h-2.61c-2.059,0-2.712-.3-3.113-1.506l-2.31-6.478H1160.4l-2.36,6.478c-.4,1.205-1.054,1.506-3.113,1.506h-2.31c-1.155,0-1.557-.552-1.155-1.657l12.553-32.639a1.812,1.812,0,0,1,2.109-1.406h2.661c1.205,0,1.708.3,2.109,1.356Zm-14.763-22.094a31.912,31.912,0,0,1-1.154-5.272l-.051-.854h-.351a18.363,18.363,0,0,1-1.1,6.076l-3.866,10.645H1172.5Z" transform="translate(-982.971 -650.009)" fill="#706f6f"/><path d="M1266.8,664.651a24.244,24.244,0,0,1,3.364,1c3.415,1.356,5.523,3.917,5.724,8.938,0,6.177-4.268,10.345-11.85,11.1l-.853,2.31c.151,0,.452-.05.653-.05a4.017,4.017,0,0,1,4.167,4.57c-.352,3.465-3.112,4.921-6.729,4.921a8.112,8.112,0,0,1-3.615-.7,1.384,1.384,0,0,1-.854-1.356l-.05-1.556c0-.653.25-.854.8-.6a6.117,6.117,0,0,0,2.962.8c1.657,0,2.46-.6,2.46-1.808,0-.954-.7-1.406-2.109-1.406a8.234,8.234,0,0,0-1.255.05c-.8,0-1.055-.4-.7-1.2l1.657-3.817c-6.979-.251-10.8-3.013-12.8-8.385-.452-1.256-.15-1.808,1.054-2.209l2.762-1c1.205-.4,1.607-.151,2.159,1.054q1.958,4.671,7.833,4.67c5.323,0,7.984-1.757,7.984-5.222,0-2.21-1.909-3.565-3.917-4.068a27.658,27.658,0,0,0-4.017-.6,45.449,45.449,0,0,1-5.322-.8,12,12,0,0,1-4.82-2.059c-2.209-1.406-3.466-3.867-3.466-7.532,0-6.578,4.922-11,13.709-11,6.979,0,10.745,2.411,13.206,7.582.5,1.055.2,1.808-.954,2.31l-2.762,1.205c-1.156.452-1.557.3-2.16-.854-1.406-2.812-3.515-4.218-7.331-4.218-4.871,0-7.281,1.557-7.281,4.62-.3,2.661,2.662,3.866,5.322,4.268C1261.324,663.9,1264.939,664.3,1266.8,664.651Z" transform="translate(-1045.885 -648.682)" fill="#706f6f"/></g></g></g></svg>