<svg xmlns="http://www.w3.org/2000/svg" width="270" height="270"><path d="M96.975 94c6.269-2.7 14.162 1.643 17.629 9.7s1.2 16.772-5.074 19.471-14.162-1.643-17.629-9.7-1.2-16.772 5.073-19.471zm12.436-36.785c6.243 2.647 8.547 11.294 5.147 19.315s-11.217 12.377-17.459 9.731-8.547-11.294-5.147-19.315 11.217-12.377 17.459-9.73zm-20.217-9.629c-3.362-1.807-8.789 1.756-12.122 7.957s-3.308 12.694.054 14.5 8.79-1.755 12.122-7.957 3.308-12.693-.054-14.5zm-12.15 60.23c3.363-1.807 8.79 1.756 12.122 7.957s3.308 12.694-.054 14.5-8.79-1.756-12.122-7.957-3.308-12.694.054-14.5zm2.426-33.201c4.821 0 8.729 6.545 8.729 14.617s-3.908 14.617-8.729 14.617-8.73-6.544-8.73-14.617 3.908-14.617 8.73-14.617zm15.443 55.398c-2.634 3.983.632 10.783 7.294 15.189s14.2 4.748 16.83.765-.631-10.784-7.292-15.189-14.2-4.748-16.832-.764zm75.938-36.129c-6.27-2.7-14.162 1.643-17.629 9.7s-1.2 16.772 5.074 19.471 14.162-1.643 17.629-9.7 1.195-16.772-5.074-19.471zm-12.435-36.782c-6.242 2.646-8.547 11.294-5.147 19.315s11.218 12.377 17.46 9.731 8.547-11.294 5.147-19.315-11.217-12.377-17.46-9.731zm20.38-9.632c3.363-1.807 8.79 1.756 12.123 7.958s3.307 12.693-.055 14.5-8.79-1.756-12.123-7.957-3.307-12.694.054-14.5zm12.149 60.23c-3.363-1.807-8.79 1.755-12.123 7.957s-3.307 12.694.054 14.5 8.791-1.755 12.123-7.957 3.309-12.694-.054-14.5zm-2.427-33.202c-4.821 0-8.73 6.544-8.73 14.617s3.909 14.617 8.73 14.617 8.729-6.544 8.729-14.617-3.907-14.617-8.729-14.617zm-15.444 55.398c2.634 3.983-.631 10.783-7.293 15.188s-14.2 4.748-16.831.764.632-10.783 7.293-15.188 14.2-4.748 16.83-.764zm-39.081-55.249a15.438 15.438 0 11-15.437 15.438 15.437 15.437 0 0115.437-15.438z" fill="#35a5d9" fill-rule="evenodd"/><path d="M52.035 175.3c1.256 0 1.707.452 1.707 1.708v32.236c0 1.255-.451 1.707-1.707 1.707h-2.561c-1.256 0-1.708-.452-1.708-1.707V193.93a46.915 46.915 0 011.205-9.993h-.352a55.339 55.339 0 01-4.117 9.19l-4.921 8.687a2.246 2.246 0 01-1.958 1.2h-1.606a1.784 1.784 0 01-1.958-1.2l-5.021-8.737a41.357 41.357 0 01-3.867-9.14h-.351a49.828 49.828 0 011.055 10.043v15.264c0 1.255-.452 1.707-1.708 1.707h-2.41c-1.256 0-1.758-.452-1.758-1.707v-32.236c0-1.256.5-1.708 1.758-1.708h2.209c1.406 0 1.857.252 2.41 1.306l10.445 18.68 10.444-18.63c.6-1.155.953-1.356 2.31-1.356zm30.374 0c1.255 0 1.757.452 1.757 1.708v2.46c0 1.256-.5 1.707-1.757 1.707H67.043v8.788h13.006c1.255 0 1.707.452 1.707 1.707v2.46c0 1.255-.452 1.708-1.707 1.708H67.043v9.239h15.922c1.255 0 1.707.452 1.707 1.707v2.46c0 1.255-.452 1.707-1.707 1.707h-20.49c-1.256 0-1.758-.452-1.758-1.707v-32.236c0-1.256.5-1.708 1.758-1.708zm20.383 0c9.239 0 14.562 5.022 14.562 13.257v9.14c0 8.235-5.323 13.256-14.562 13.256H91.545c-1.256 0-1.758-.452-1.758-1.707v-32.238c0-1.256.5-1.708 1.758-1.708zm8.285 13.207c0-4.771-2.962-7.332-8.234-7.332h-6.729v23.9h6.729c5.272 0 8.234-2.561 8.234-7.331zm37.807-13.207c1.2 0 1.455.754.853 1.708l-12.252 19.885v12.351c0 1.255-.452 1.707-1.708 1.707h-2.862c-1.256 0-1.707-.452-1.707-1.707v-12.451l-12.3-19.785c-.6-.954-.3-1.708.9-1.708h3.517c2.159 0 2.561.1 3.313 1.507l7.784 13.558 7.833-13.558c.753-1.406 1.205-1.507 3.364-1.507zm30.275 33.995c.4 1.105 0 1.657-1.155 1.657h-2.611c-2.059 0-2.711-.3-3.113-1.506l-2.31-6.478h-13.859l-2.36 6.478c-.4 1.205-1.055 1.506-3.113 1.506h-2.31c-1.155 0-1.557-.552-1.155-1.657l12.553-32.639a1.811 1.811 0 012.108-1.406h2.662c1.206 0 1.708.3 2.109 1.356zm-14.763-22.094a31.8 31.8 0 01-1.154-5.272l-.051-.854h-.351a18.34 18.34 0 01-1.105 6.076l-3.866 10.645h10.344zm56.083 22.094c.4 1.105 0 1.657-1.155 1.657h-2.61c-2.059 0-2.712-.3-3.113-1.506l-2.31-6.478h-13.862l-2.36 6.478c-.4 1.205-1.054 1.506-3.113 1.506h-2.31c-1.155 0-1.557-.552-1.155-1.657l12.553-32.639a1.812 1.812 0 012.109-1.406h2.661c1.205 0 1.708.3 2.109 1.356zm-14.763-22.094a31.912 31.912 0 01-1.154-5.272l-.051-.854h-.351a18.363 18.363 0 01-1.1 6.076l-3.866 10.645h10.335zm35.199 3.315a24.244 24.244 0 013.364 1c3.415 1.356 5.523 3.917 5.724 8.938 0 6.177-4.268 10.345-11.85 11.1l-.853 2.31c.151 0 .452-.05.653-.05a4.017 4.017 0 014.167 4.57c-.352 3.465-3.112 4.921-6.729 4.921a8.112 8.112 0 01-3.615-.7 1.384 1.384 0 01-.854-1.356l-.05-1.556c0-.653.25-.854.8-.6a6.117 6.117 0 002.962.8c1.657 0 2.46-.6 2.46-1.808 0-.954-.7-1.406-2.109-1.406a8.234 8.234 0 00-1.255.05c-.8 0-1.055-.4-.7-1.2l1.657-3.817c-6.979-.251-10.8-3.013-12.8-8.385-.452-1.256-.15-1.808 1.054-2.209l2.762-1c1.205-.4 1.607-.151 2.159 1.054q1.958 4.671 7.833 4.67c5.323 0 7.984-1.757 7.984-5.222 0-2.21-1.909-3.565-3.917-4.068a27.658 27.658 0 00-4.017-.6 45.449 45.449 0 01-5.322-.8 12 12 0 01-4.82-2.059c-2.209-1.406-3.466-3.867-3.466-7.532 0-6.578 4.922-11 13.709-11 6.979 0 10.745 2.411 13.206 7.582.5 1.055.2 1.808-.954 2.31l-2.762 1.205c-1.156.452-1.557.3-2.16-.854-1.406-2.812-3.515-4.218-7.331-4.218-4.871 0-7.281 1.557-7.281 4.62-.3 2.661 2.662 3.866 5.322 4.268 1.553.291 5.168.691 7.029 1.042z" fill="#706f6f"/></svg>