<svg xmlns="http://www.w3.org/2000/svg" width="469.442" height="250.648" viewBox="0 0 469.442 250.648"><g transform="translate(-724.764 -414.851)"><path d="M388.025-6079.668l-59.85-100.606-62.006,99.091a43.525,43.525,0,0,1-9.13,10.4,43.647,43.647,0,0,1-8.082,6.251,43.4,43.4,0,0,1-14.222,5.391v-135.886l54.773-87.533a43.356,43.356,0,0,1,17.149-18.955,43.445,43.445,0,0,1,8.8-3.967c.425-.143.867-.248,1.291-.378.769-.224,1.527-.467,2.3-.646a43.352,43.352,0,0,1,33.413,5.34h0a43.244,43.244,0,0,1,17.077,20.186l93.285,156.813a43.521,43.521,0,0,1-15.133,59.634,43.309,43.309,0,0,1-22.224,6.137A43.5,43.5,0,0,1,388.025-6079.668Z" transform="translate(725.264 6723)" fill="#fff"/><path d="M43.771-6058a43.1,43.1,0,0,1-17.037-3.477,43.593,43.593,0,0,1-13.913-9.481,44.12,44.12,0,0,1-9.381-14.062A44.374,44.374,0,0,1,0-6102.242a44.374,44.374,0,0,1,3.44-17.221,44.121,44.121,0,0,1,9.381-14.063,43.589,43.589,0,0,1,13.913-9.482,43.1,43.1,0,0,1,17.037-3.477,43.1,43.1,0,0,1,17.038,3.477,43.591,43.591,0,0,1,13.914,9.482,44.12,44.12,0,0,1,9.381,14.063,44.375,44.375,0,0,1,3.44,17.221,44.375,44.375,0,0,1-3.44,17.221,44.113,44.113,0,0,1-9.381,14.062,43.6,43.6,0,0,1-13.914,9.481A43.1,43.1,0,0,1,43.771-6058Zm182.963-.392A43.786,43.786,0,0,1,205.5-6063.9a43.3,43.3,0,0,1-9.011-6.672,43.634,43.634,0,0,1-7.2-9.1L92.8-6241.879a43.232,43.232,0,0,1-5.722-16.3,43.361,43.361,0,0,1,.938-16.649,43.371,43.371,0,0,1,7.111-15.084,43.247,43.247,0,0,1,12.8-11.6,43.624,43.624,0,0,1,10.892-4.628,43.3,43.3,0,0,1,11.337-1.509,43.784,43.784,0,0,1,21.232,5.507,43.281,43.281,0,0,1,9.01,6.673,43.631,43.631,0,0,1,7.2,9.1l60.579,101.835,6.562-10.486v135.886A43.419,43.419,0,0,1,226.734-6058.393Z" transform="translate(725.264 6723)" fill="#225cff" stroke="rgba(0,0,0,0)" stroke-miterlimit="10" stroke-width="1"/></g></svg>