<svg xmlns="http://www.w3.org/2000/svg" width="469.442" height="250.648"><path d="M388.525 228.481l-59.85-100.606-62.006 99.091a43.525 43.525 0 01-9.13 10.4 43.647 43.647 0 01-8.082 6.251 43.4 43.4 0 01-14.222 5.391V113.122l54.773-87.533a43.356 43.356 0 0117.149-18.955 43.445 43.445 0 018.8-3.967c.425-.143.867-.248 1.291-.378.769-.224 1.527-.467 2.3-.646a43.352 43.352 0 0133.413 5.34 43.244 43.244 0 0117.077 20.186l93.285 156.813a43.521 43.521 0 01-15.133 59.634 43.309 43.309 0 01-22.224 6.137 43.5 43.5 0 01-37.441-21.272z" fill="#fff"/><path d="M44.271 250.149a43.1 43.1 0 01-17.037-3.477 43.593 43.593 0 01-13.913-9.481 44.12 44.12 0 01-9.381-14.062A44.374 44.374 0 01.5 205.907a44.374 44.374 0 013.44-17.221 44.121 44.121 0 019.381-14.063 43.589 43.589 0 0113.913-9.482 43.1 43.1 0 0117.037-3.477 43.1 43.1 0 0117.038 3.477 43.591 43.591 0 0113.914 9.482 44.12 44.12 0 019.381 14.063 44.375 44.375 0 013.44 17.221 44.375 44.375 0 01-3.44 17.221 44.113 44.113 0 01-9.381 14.062 43.6 43.6 0 01-13.914 9.481 43.1 43.1 0 01-17.038 3.478zm182.963-.392A43.786 43.786 0 01206 244.249a43.3 43.3 0 01-9.011-6.672 43.634 43.634 0 01-7.2-9.1L93.3 66.27a43.232 43.232 0 01-5.722-16.3 43.361 43.361 0 01.938-16.649 43.371 43.371 0 017.111-15.084 43.247 43.247 0 0112.8-11.6 43.624 43.624 0 0110.892-4.628A43.3 43.3 0 01130.656.5a43.784 43.784 0 0121.232 5.507 43.281 43.281 0 019.01 6.673 43.631 43.631 0 017.2 9.1l60.579 101.835 6.562-10.486v135.886a43.419 43.419 0 01-8.005.741z" fill="#225cff" stroke="rgba(0,0,0,0)" stroke-miterlimit="10"/></svg>