<svg xmlns="http://www.w3.org/2000/svg" width="270" height="270"><g transform="translate(20 129.594)" fill="#225cff"><circle cx="3.939" cy="3.939" r="3.939" transform="translate(0 14.483)"/><path d="M41.529 16.464L33.164 2.402a3.879 3.879 0 00-1.531-1.81 3.887 3.887 0 00-3-.479c-.069.016-.137.038-.207.058-.038.012-.077.021-.116.034a3.9 3.9 0 00-.788.356 3.884 3.884 0 00-1.538 1.7l-5.5 8.79-5.433-9.132A3.9 3.9 0 009.701.561a3.9 3.9 0 00-1.357 5.347l8.653 14.546a3.9 3.9 0 005.35 1.358 3.9 3.9 0 00.725-.56 3.9 3.9 0 00.818-.933l5.561-8.886 5.366 9.022a3.9 3.9 0 005.35 1.358 3.9 3.9 0 001.362-5.349z"/></g><path d="M71.58 141.043a11.694 11.694 0 0111.878-11.452 12.053 12.053 0 017.63 2.461 2.108 2.108 0 002.626.028 12.333 12.333 0 017.4-2.5c6.833 0 11.672 4.619 11.672 11.452v8.867a2.062 2.062 0 01-2.062 2.062h-1.76a2.062 2.062 0 01-2.062-2.062v-8.853c0-5.06-5.348-8.1-10.86-4.262a2.119 2.119 0 00-.921 1.718v11.411a2.062 2.062 0 01-2.062 2.062h-1.76a2.062 2.062 0 01-2.062-2.062v-11.414a2.062 2.062 0 00-.921-1.718c-5.5-3.836-10.861-.784-10.861 4.262v8.867a2.062 2.062 0 01-2.062 2.062h-1.746a2.062 2.062 0 01-2.062-2.062zm46.005-.529v-7.993a2.947 2.947 0 012.942-2.943 2.947 2.947 0 012.943 2.943v7.649a6.186 6.186 0 006.062 6.309 6.157 6.157 0 00.8-.036 5.765 5.765 0 004.911-5.911v-8.011a2.947 2.947 0 012.946-2.943 2.948 2.948 0 012.944 2.943v7.993a11.7 11.7 0 01-11.885 11.459c-6.823.014-11.663-4.621-11.663-11.459zm28.869 8.932a2.535 2.535 0 012.534-2.537h12.448a1.761 1.761 0 001.833-1.687v-.146a1.728 1.728 0 00-1.739-1.718h-8.817a6.866 6.866 0 01-6.892-6.84v-.051a7.012 7.012 0 016.892-6.892h10.824a2.536 2.536 0 012.536 2.534 2.535 2.535 0 01-2.534 2.537h-10.15a1.89 1.89 0 00-1.941 1.838 1.884 1.884 0 00.016.3 1.736 1.736 0 001.787 1.409h8.725a6.8 6.8 0 016.892 6.7v.194a7.091 7.091 0 01-6.892 6.892h-12.984a2.535 2.535 0 01-2.536-2.534zm44.229 2.528v-2.366a8.764 8.764 0 01-6.372 2.366c-6.48 0-11-4.516-11-11.2a11.516 11.516 0 0111.833-11.192 11.511 11.511 0 013.912.8 11.789 11.789 0 017.272 11.063v9.181a1.348 1.348 0 01-1.344 1.344zm-.094-11.172a5.975 5.975 0 00-5.579-5.875 5.655 5.655 0 00-5.925 5.37 5.6 5.6 0 00.014.76 6.021 6.021 0 005.739 5.579 5.647 5.647 0 005.752-5.539v-.3zm13.448-11.224a2.75 2.75 0 012.592 1.8l4.789 12.9a.616.616 0 00.792.363.617.617 0 00.363-.363l4.788-12.9a2.771 2.771 0 012.593-1.8 2.769 2.769 0 012.764 2.774 2.774 2.774 0 01-.2 1.029l-6.8 16.861a2.773 2.773 0 01-2.564 1.732h-2.3a2.772 2.772 0 01-2.563-1.732l-6.816-16.847a2.777 2.777 0 011.533-3.614 2.782 2.782 0 011.029-.203zm44.729 0c1.191 0 1.234.965 1.234 2.156v2.739a.715.715 0 01-.715.715h-1.005a2.655 2.655 0 00-2.8 2.5 2.609 2.609 0 000 .309v11.852a2.156 2.156 0 01-2.156 2.155h-1.718a2.156 2.156 0 01-2.156-2.155v-11.866a8.082 8.082 0 017.751-8.4m-19.767 4.329a3.784 3.784 0 013.193-4.3 3.782 3.782 0 011.511.083 3.6 3.6 0 012.494 2.423 3.719 3.719 0 01-2.37 4.695 3.72 3.72 0 01-4.7-2.37 3.736 3.736 0 01-.133-.537zm3.715 5.185a3.025 3.025 0 013.015 3.015v6.846a3.024 3.024 0 01-3.015 3.015 3.025 3.025 0 01-3.015-3.015v-6.834a3.025 3.025 0 013.015-3.027z" fill="#1d1d1b"/></svg>