<svg xmlns="http://www.w3.org/2000/svg" width="270" height="270" viewBox="0 0 270 270"><g transform="translate(-1272 -1677)"><g transform="translate(1272 1677)" fill="#fff" stroke="#707070" stroke-width="1" opacity="0"><rect width="270" height="270" stroke="none"/><rect x="0.5" y="0.5" width="269" height="269" fill="none"/></g><g transform="translate(654 1297.573)"><g transform="translate(638 509.021)"><g transform="translate(0 0)"><circle cx="3.939" cy="3.939" r="3.939" transform="translate(0 14.483)" fill="#225cff"/><g transform="translate(7.796)"><path d="M-2969.9,738.629l-8.365-14.062a3.879,3.879,0,0,0-1.531-1.81h0a3.887,3.887,0,0,0-3-.479c-.069.016-.137.038-.207.058-.038.012-.077.021-.116.034a3.9,3.9,0,0,0-.788.356,3.884,3.884,0,0,0-1.538,1.7l-5.5,8.79-5.433-9.132a3.9,3.9,0,0,0-5.35-1.358,3.9,3.9,0,0,0-1.357,5.347l8.653,14.546a3.9,3.9,0,0,0,5.35,1.358,3.9,3.9,0,0,0,.725-.56,3.9,3.9,0,0,0,.818-.933l5.561-8.886,5.366,9.022a3.9,3.9,0,0,0,5.35,1.358A3.9,3.9,0,0,0-2969.9,738.629Z" transform="translate(3003.633 -722.165)" fill="#225cff"/></g></g></g><g transform="translate(689.58 509)"><path d="M-2881.045,733.584a11.694,11.694,0,0,1,11.878-11.452,12.053,12.053,0,0,1,7.63,2.461,2.108,2.108,0,0,0,2.626.028,12.333,12.333,0,0,1,7.4-2.5c6.833,0,11.672,4.619,11.672,11.452v8.867a2.062,2.062,0,0,1-2.062,2.062h-1.76a2.062,2.062,0,0,1-2.062-2.062v-8.853c0-5.06-5.348-8.1-10.86-4.262a2.119,2.119,0,0,0-.921,1.718v11.411a2.062,2.062,0,0,1-2.062,2.062h-1.76a2.062,2.062,0,0,1-2.062-2.062V731.04a2.062,2.062,0,0,0-.921-1.718c-5.5-3.836-10.861-.784-10.861,4.262v8.867a2.062,2.062,0,0,1-2.062,2.062h-1.746a2.062,2.062,0,0,1-2.062-2.062Z" transform="translate(2881.045 -722.114)" fill="#1d1d1b"/><path d="M-2752.24,733.055v-7.993a2.947,2.947,0,0,1,2.942-2.943h0a2.947,2.947,0,0,1,2.943,2.943v7.649a6.186,6.186,0,0,0,6.062,6.309,6.157,6.157,0,0,0,.8-.036,5.765,5.765,0,0,0,4.911-5.911v-8.011a2.947,2.947,0,0,1,2.946-2.943h0a2.948,2.948,0,0,1,2.944,2.943v7.993a11.7,11.7,0,0,1-11.885,11.459C-2747.4,744.528-2752.24,739.893-2752.24,733.055Z" transform="translate(2798.245 -722.114)" fill="#1d1d1b"/><path d="M-2672.553,741.979a2.535,2.535,0,0,1,2.534-2.537h12.448a1.761,1.761,0,0,0,1.833-1.687c0-.049,0-.1,0-.146a1.728,1.728,0,0,0-1.739-1.718l-.093,0h-8.724a6.866,6.866,0,0,1-6.892-6.84V729a7.012,7.012,0,0,1,6.892-6.892h10.824a2.536,2.536,0,0,1,2.536,2.534v0h0a2.535,2.535,0,0,1-2.534,2.537h-10.15a1.89,1.89,0,0,0-1.941,1.838,1.884,1.884,0,0,0,.016.3,1.736,1.736,0,0,0,1.787,1.409h8.725a6.8,6.8,0,0,1,6.892,6.7q0,.1,0,.194a7.091,7.091,0,0,1-6.892,6.892h-12.984a2.535,2.535,0,0,1-2.536-2.534v0Z" transform="translate(2747.427 -722.106)" fill="#1d1d1b"/><path d="M-2578.84,744.517v-2.366a8.764,8.764,0,0,1-6.372,2.366c-6.48,0-11-4.516-11-11.2a11.516,11.516,0,0,1,11.833-11.192,11.511,11.511,0,0,1,3.912.8,11.789,11.789,0,0,1,7.272,11.063v9.181a1.348,1.348,0,0,1-1.344,1.344Zm-.094-11.172a5.975,5.975,0,0,0-5.579-5.875,5.655,5.655,0,0,0-5.925,5.37,5.6,5.6,0,0,0,.014.76,6.021,6.021,0,0,0,5.739,5.579,5.647,5.647,0,0,0,5.752-5.539c0-.1,0-.2,0-.3Z" transform="translate(2697.943 -722.116)" fill="#1d1d1b"/><path d="M-2515.166,722.119h0a2.75,2.75,0,0,1,2.592,1.8l4.789,12.9a.616.616,0,0,0,.792.363.617.617,0,0,0,.363-.363l4.788-12.9a2.771,2.771,0,0,1,2.593-1.8h0a2.769,2.769,0,0,1,2.764,2.774,2.774,2.774,0,0,1-.2,1.029l-6.8,16.861a2.773,2.773,0,0,1-2.564,1.732h-2.3a2.772,2.772,0,0,1-2.563-1.732l-6.816-16.847a2.777,2.777,0,0,1,1.533-3.614A2.782,2.782,0,0,1-2515.166,722.119Z" transform="translate(2647.623 -722.114)" fill="#1d1d1b"/><path d="M-2401.745,722.12c1.191,0,1.234.965,1.234,2.156v2.739a.715.715,0,0,1-.715.715h-1.005a2.655,2.655,0,0,0-2.8,2.5,2.609,2.609,0,0,0,0,.309v11.852a2.156,2.156,0,0,1-2.156,2.155h-1.718a2.156,2.156,0,0,1-2.156-2.155h0l0-11.866a8.082,8.082,0,0,1,7.751-8.4" transform="translate(2578.931 -722.115)" fill="#1d1d1b"/><g transform="translate(155.813 0.003)"><path d="M-2444.755,726.452a3.784,3.784,0,0,1,3.193-4.3,3.782,3.782,0,0,1,1.511.083,3.6,3.6,0,0,1,2.494,2.423,3.719,3.719,0,0,1-2.37,4.695,3.72,3.72,0,0,1-4.7-2.37,3.736,3.736,0,0,1-.133-.537Z" transform="translate(2444.796 -722.116)" fill="#1d1d1b"/><path d="M-2439.7,748.773h0a3.025,3.025,0,0,1,3.015,3.015v6.846a3.024,3.024,0,0,1-3.015,3.015h0a3.025,3.025,0,0,1-3.015-3.015V751.8A3.025,3.025,0,0,1-2439.7,748.773Z" transform="translate(2443.456 -739.252)" fill="#1d1d1b"/></g></g></g></g></svg>