<svg xmlns="http://www.w3.org/2000/svg" width="270" height="270" viewBox="0 0 270 270"><g transform="translate(-1272 -1677)"><g transform="translate(1272 1677)" fill="#fff" stroke="#707070" stroke-width="1" opacity="0"><rect width="270" height="270" stroke="none"/><rect x="0.5" y="0.5" width="269" height="269" fill="none"/></g><g transform="translate(-714 -2516)"><path d="M39.38,78.76A39.2,39.2,0,0,1,20,73.667v-46.9a2.539,2.539,0,0,0-5.075,0V70.245A39.532,39.532,0,0,1,4.051,56.8a39.166,39.166,0,0,1-3-8.333A39.585,39.585,0,0,1,0,39.38,39.376,39.376,0,0,1,58.454,4.92V51.994a2.539,2.539,0,0,0,5.076,0V8.273A39.551,39.551,0,0,1,74.62,21.786,39.169,39.169,0,0,1,77.683,30.2,39.567,39.567,0,0,1,78.76,39.38,39.347,39.347,0,0,1,39.38,78.76Zm0-54.455a15.229,15.229,0,0,0-3.037.306A15.07,15.07,0,0,0,24.611,36.341,15.247,15.247,0,0,0,24.3,39.38c0,.1,0,.2,0,.3a15.281,15.281,0,0,0,.3,2.734,14.938,14.938,0,0,0,1.583,4.273c.211.381.442.757.686,1.118a15.118,15.118,0,0,0,6.283,5.308c.135.061.246.109.349.153a14.9,14.9,0,0,0,2.559.82c.09.021.181.04.272.059a15.19,15.19,0,0,0,6.076,0,15.01,15.01,0,0,0,5.391-2.268,15.108,15.108,0,0,0,5.461-6.633,14.935,14.935,0,0,0,.878-2.83,15.188,15.188,0,0,0,.1-5.526c-.033-.2-.067-.381-.1-.551a14.975,14.975,0,0,0-.878-2.83c-.053-.125-.108-.252-.165-.375-.183-.4-.391-.81-.618-1.209-.188-.33-.393-.659-.607-.976l-.015-.022-.036-.053a15.153,15.153,0,0,0-4.021-4c-.361-.244-.737-.474-1.118-.686a14.938,14.938,0,0,0-4.273-1.583,15.281,15.281,0,0,0-2.734-.3l-.208,0Zm0,24.92a9.808,9.808,0,0,1-5.5-1.681c-.256-.174-.5-.357-.729-.544-.255-.21-.5-.431-.727-.659a9.891,9.891,0,0,1-.763-.857c-.152-.193-.3-.395-.439-.6a9.854,9.854,0,0,1-.908-1.672c-.114-.269-.217-.549-.308-.83A9.854,9.854,0,0,1,42.382,30c.281.09.56.194.83.308.246.1.49.22.725.343a9.691,9.691,0,0,1,.947.565,9.843,9.843,0,0,1-5.5,18.008Z" transform="translate(2006 4289)" fill="#030303" stroke="rgba(0,0,0,0)" stroke-miterlimit="10" stroke-width="1"/><g transform="translate(2099.527 4306.721)" style="isolation:isolate"><path d="M1979.309,885.654a3.647,3.647,0,0,1,1.371-2.906,6.161,6.161,0,0,1,4.064-1.158v2.552q-.8,1.087-.9,1.276l.189.189a10.95,10.95,0,0,1,3.332-3,9.148,9.148,0,0,1,4.513-1.016,9.7,9.7,0,0,1,4.607,1.063,7.785,7.785,0,0,1,3.143,3,8.634,8.634,0,0,1,1.135,4.442v7.466a8.086,8.086,0,0,1-1.253,4.489,8.192,8.192,0,0,1-3.425,2.977,11.257,11.257,0,0,1-4.916,1.04,9.878,9.878,0,0,1-3.614-.731,9.053,9.053,0,0,1-3.144-2.008l-.189.235a4.537,4.537,0,0,0,1.04.993v6.993q0,3.971-5.954,3.97Zm14.32,14.319a3.332,3.332,0,0,0,1.274-2.788v-6.711a3.341,3.341,0,0,0-1.251-2.812,5.814,5.814,0,0,0-3.615-.969,5.728,5.728,0,0,0-3.5,1.016,3.047,3.047,0,0,0-1.369,2.528v7.184a3.081,3.081,0,0,0,1.346,2.5,5.6,5.6,0,0,0,3.521,1.04A5.738,5.738,0,0,0,1993.629,899.973Z" transform="translate(-1979.309 -872.139)" fill="#030303"/><path d="M2009.1,904.958a9.353,9.353,0,0,1-3.9-3.094,7.537,7.537,0,0,1-1.418-4.49V890.71a8.124,8.124,0,0,1,1.394-4.631,9.616,9.616,0,0,1,3.85-3.284,12.611,12.611,0,0,1,5.624-1.2,12.762,12.762,0,0,1,5.647,1.2,9.585,9.585,0,0,1,3.875,3.284,8.14,8.14,0,0,1,1.394,4.631v6.663a7.453,7.453,0,0,1-1.441,4.49,9.534,9.534,0,0,1-3.921,3.094,14.439,14.439,0,0,1-11.106,0Zm9.262-5.032a3.571,3.571,0,0,0,1.348-2.931v-6a4.02,4.02,0,0,0-1.348-3.143,6.276,6.276,0,0,0-7.4,0,3.987,3.987,0,0,0-1.37,3.143v6a3.545,3.545,0,0,0,1.37,2.931,6.839,6.839,0,0,0,7.4,0Z" transform="translate(-1979.688 -872.139)" fill="#030303"/><path d="M2033.576,904.834a8.142,8.142,0,0,1-4.4-7.42v-7.466a8.036,8.036,0,0,1,1.229-4.395,8.33,8.33,0,0,1,3.426-3.024,10.884,10.884,0,0,1,4.892-1.087,9.9,9.9,0,0,1,3.615.731,9.463,9.463,0,0,1,3.141,1.962l.189-.236a4.017,4.017,0,0,0-1.039-.946v-6.993a3.368,3.368,0,0,1,1.489-2.93,7.921,7.921,0,0,1,4.513-1.04v29.866a3.7,3.7,0,0,1-1.323,2.906,6.13,6.13,0,0,1-4.112,1.158v-2.6a11.364,11.364,0,0,0,.9-1.229l-.236-.189a10.691,10.691,0,0,1-3.237,3,8.886,8.886,0,0,1-4.465,1.015A9.571,9.571,0,0,1,2033.576,904.834Zm9.8-5.034a3.1,3.1,0,0,0,1.348-2.575v-7.136a3.062,3.062,0,0,0-1.348-2.528,6.824,6.824,0,0,0-7.089-.047,3.292,3.292,0,0,0-1.251,2.764v6.711a3.392,3.392,0,0,0,1.251,2.858,5.814,5.814,0,0,0,3.615.97A5.607,5.607,0,0,0,2043.38,899.8Z" transform="translate(-1980.082 -871.99)" fill="#030303"/><path d="M2056.588,875.959a3.368,3.368,0,0,1,1.489-2.93,7.817,7.817,0,0,1,4.464-1.04v10.962a8.173,8.173,0,0,0-1.039.946l.188.236a9.2,9.2,0,0,1,3.332-1.962,11.413,11.413,0,0,1,3.8-.731,9.44,9.44,0,0,1,6.71,2.339,7.989,7.989,0,0,1,2.5,6.12v7.514a8.029,8.029,0,0,1-1.229,4.395,8.506,8.506,0,0,1-3.308,3.025,9.46,9.46,0,0,1-4.441,1.086,9.014,9.014,0,0,1-4.372-1.015,10.739,10.739,0,0,1-3.379-3l-.188.189a4.114,4.114,0,0,0,.473.662c.188.221.331.395.425.521a2.12,2.12,0,0,1-1.275,1.984,9.611,9.611,0,0,1-4.159.661Zm14.341,23.888a3.389,3.389,0,0,0,1.253-2.858v-6.711a3.262,3.262,0,0,0-1.277-2.764,5.828,5.828,0,0,0-3.591-.969,5.644,5.644,0,0,0-3.473,1.04,3.057,3.057,0,0,0-1.394,2.5v7.136a3.082,3.082,0,0,0,1.371,2.575,5.707,5.707,0,0,0,3.5,1.017A5.815,5.815,0,0,0,2070.929,899.847Z" transform="translate(-1980.507 -871.99)" fill="#030303"/><path d="M2084.817,878.2a3.389,3.389,0,0,1-1.11-2.623,3.336,3.336,0,0,1,1.11-2.575,4.4,4.4,0,0,1,5.624,0,3.339,3.339,0,0,1,1.11,2.575,3.392,3.392,0,0,1-1.11,2.623,4.4,4.4,0,0,1-5.624,0Zm-.165,6.829a2.918,2.918,0,0,1,1.464-2.765,9.314,9.314,0,0,1,4.442-.827v20.888a2.933,2.933,0,0,1-1.464,2.741,9.1,9.1,0,0,1-4.443.849Z" transform="translate(-1980.927 -871.99)" fill="#030303"/><path d="M2100.749,905.123a7.838,7.838,0,0,1-3.213-2.717,7.334,7.334,0,0,1-1.2-4.229,7.259,7.259,0,0,1,1.276-4.277,8.151,8.151,0,0,1,3.473-2.788,11.891,11.891,0,0,1,4.843-.969,10.5,10.5,0,0,1,3.9.685,10.13,10.13,0,0,1,3.189,2.056l.236-.236q-.425-.425-1.464-1.276v-.945a3.778,3.778,0,0,0-1.371-3.072,5.841,5.841,0,0,0-3.828-1.134,7.16,7.16,0,0,0-6.474,3.213,4.128,4.128,0,0,1-1.749-1.063,2.245,2.245,0,0,1-.709-1.583,3.5,3.5,0,0,1,1.276-2.6,9.2,9.2,0,0,1,3.45-1.89,15.157,15.157,0,0,1,4.725-.709q5.008,0,7.749,2.339a7.923,7.923,0,0,1,2.742,6.356V902.1a3.461,3.461,0,0,1-1.323,3.023,7.242,7.242,0,0,1-4.158.945v-1.937a13.1,13.1,0,0,0,1.086-1.181l-.189-.235a11.37,11.37,0,0,1-3.332,2.5,10.455,10.455,0,0,1-4.513.849A10.25,10.25,0,0,1,2100.749,905.123Zm9.758-4.3a3.077,3.077,0,0,0,1.371-2.693,3.14,3.14,0,0,0-1.394-2.694,6.362,6.362,0,0,0-3.757-.992,5.466,5.466,0,0,0-3.427.969,3.243,3.243,0,0,0-1.252,2.718,3.181,3.181,0,0,0,1.229,2.716,5.561,5.561,0,0,0,3.4.922A6.667,6.667,0,0,0,2110.507,900.823Z" transform="translate(-1981.123 -872.139)" fill="#030303"/></g></g></g></svg>