<svg xmlns="http://www.w3.org/2000/svg" xmlns:xlink="http://www.w3.org/1999/xlink" width="270" height="270" viewBox="0 0 270 270"><defs><linearGradient id="a" x1="0.5" x2="0.5" y2="1" gradientUnits="objectBoundingBox"><stop offset="0" stop-color="#fd0069"/><stop offset="1" stop-color="#b5005d"/></linearGradient></defs><g transform="translate(-1272 -1677)"><g transform="translate(1272 1677)" fill="#fff" stroke="#707070" stroke-width="1" opacity="0"><rect width="270" height="270" stroke="none"/><rect x="0.5" y="0.5" width="269" height="269" fill="none"/></g><g transform="translate(986 1648)"><g transform="translate(306 124)"><rect width="80" height="80" rx="40" fill="url(#a)"/><path d="M0,66.355V22.19H0a2.578,2.578,0,0,1,5.154,0h0v47.64A40.087,40.087,0,0,1,0,66.355ZM44.22,47.815h0V0a40.072,40.072,0,0,1,5.156,3.406V47.815h0a2.578,2.578,0,0,1-5.154,0ZM21.757,50a15.216,15.216,0,0,1-5.475-2.3,15.357,15.357,0,0,1-5.549-6.736,15.213,15.213,0,0,1-.892-2.875,15.448,15.448,0,0,1,0-6.172,15.216,15.216,0,0,1,2.3-5.475,15.381,15.381,0,0,1,4.136-4.136A15.216,15.216,0,0,1,21.757,20a15.448,15.448,0,0,1,6.172,0,15.211,15.211,0,0,1,5.476,2.3,15.4,15.4,0,0,1,4.136,4.136A15.32,15.32,0,0,1,21.757,50Zm-.806-24.215a10.056,10.056,0,0,0-3.179,2.143,10.116,10.116,0,0,0-1.22,1.48,10.005,10.005,0,1,0,16.584,0,10.028,10.028,0,0,0-2.7-2.7,10.016,10.016,0,0,0-9.483-.923Z" transform="translate(15.156 4.997)" fill="#fff" stroke="rgba(0,0,0,0)" stroke-miterlimit="10" stroke-width="1"/></g><g transform="translate(-1578.309 -729.99)" style="isolation:isolate"><g style="isolation:isolate"><path d="M1979.309,885.718a3.7,3.7,0,0,1,1.392-2.952,6.258,6.258,0,0,1,4.128-1.176v2.592q-.816,1.1-.912,1.3l.192.192a11.127,11.127,0,0,1,3.384-3.048,9.294,9.294,0,0,1,4.584-1.032,9.857,9.857,0,0,1,4.68,1.08,7.908,7.908,0,0,1,3.192,3.048,8.769,8.769,0,0,1,1.153,4.512v7.584a8.212,8.212,0,0,1-1.273,4.56,8.324,8.324,0,0,1-3.479,3.024,11.436,11.436,0,0,1-4.993,1.056,10.035,10.035,0,0,1-3.671-.743,9.2,9.2,0,0,1-3.193-2.04l-.192.239a4.6,4.6,0,0,0,1.056,1.009v7.1q0,4.034-6.048,4.033Zm14.545,14.545a3.384,3.384,0,0,0,1.294-2.832v-6.817a3.393,3.393,0,0,0-1.271-2.856,5.9,5.9,0,0,0-3.672-.984,5.818,5.818,0,0,0-3.553,1.032,3.1,3.1,0,0,0-1.39,2.568v7.3a3.129,3.129,0,0,0,1.367,2.544,5.688,5.688,0,0,0,3.576,1.056A5.827,5.827,0,0,0,1993.854,900.263Z" fill="#b5005d"/><path d="M2009.188,905.326a9.5,9.5,0,0,1-3.959-3.143,7.655,7.655,0,0,1-1.44-4.561v-6.768a8.252,8.252,0,0,1,1.416-4.7,9.766,9.766,0,0,1,3.911-3.336,12.808,12.808,0,0,1,5.712-1.224,12.961,12.961,0,0,1,5.736,1.224,9.735,9.735,0,0,1,3.936,3.336,8.267,8.267,0,0,1,1.416,4.7v6.768a7.569,7.569,0,0,1-1.464,4.561,9.687,9.687,0,0,1-3.983,3.143,14.667,14.667,0,0,1-11.281,0Zm9.408-5.111a3.627,3.627,0,0,0,1.369-2.977v-6.1a4.083,4.083,0,0,0-1.369-3.192,6.375,6.375,0,0,0-7.512,0,4.051,4.051,0,0,0-1.392,3.192v6.1a3.6,3.6,0,0,0,1.392,2.977,6.947,6.947,0,0,0,7.512,0Z" fill="#b5005d"/><path d="M2033.645,905.351a8.27,8.27,0,0,1-4.465-7.537V890.23a8.162,8.162,0,0,1,1.248-4.464,8.462,8.462,0,0,1,3.48-3.072,11.056,11.056,0,0,1,4.969-1.1,10.057,10.057,0,0,1,3.672.743,9.617,9.617,0,0,1,3.191,1.993l.192-.24a4.085,4.085,0,0,0-1.055-.961v-7.1a3.421,3.421,0,0,1,1.512-2.976,8.046,8.046,0,0,1,4.584-1.056v30.336a3.761,3.761,0,0,1-1.344,2.952,6.226,6.226,0,0,1-4.177,1.176v-2.64a11.524,11.524,0,0,0,.912-1.248l-.24-.192a10.86,10.86,0,0,1-3.288,3.049,9.025,9.025,0,0,1-4.535,1.031A9.72,9.72,0,0,1,2033.645,905.351Zm9.959-5.113a3.148,3.148,0,0,0,1.369-2.616v-7.248a3.111,3.111,0,0,0-1.369-2.568,6.932,6.932,0,0,0-7.2-.048,3.343,3.343,0,0,0-1.271,2.808v6.817a3.445,3.445,0,0,0,1.271,2.9,5.9,5.9,0,0,0,3.672.985A5.694,5.694,0,0,0,2043.6,900.238Z" fill="#b5005d"/><path d="M2056.588,876.022a3.421,3.421,0,0,1,1.512-2.976,7.94,7.94,0,0,1,4.535-1.056v11.135a8.281,8.281,0,0,0-1.055.961l.191.24a9.35,9.35,0,0,1,3.384-1.993,11.6,11.6,0,0,1,3.865-.743,9.588,9.588,0,0,1,6.816,2.376,8.115,8.115,0,0,1,2.543,6.216v7.632a8.155,8.155,0,0,1-1.248,4.464,8.639,8.639,0,0,1-3.36,3.073,9.61,9.61,0,0,1-4.511,1.1,9.158,9.158,0,0,1-4.441-1.031,10.912,10.912,0,0,1-3.432-3.049l-.192.192a4.144,4.144,0,0,0,.481.672c.191.225.336.4.431.529a2.153,2.153,0,0,1-1.295,2.015,9.762,9.762,0,0,1-4.224.672Zm14.567,24.264a3.444,3.444,0,0,0,1.273-2.9v-6.817a3.315,3.315,0,0,0-1.3-2.808,5.922,5.922,0,0,0-3.648-.984,5.732,5.732,0,0,0-3.528,1.056,3.105,3.105,0,0,0-1.416,2.544v7.248a3.13,3.13,0,0,0,1.393,2.616,5.8,5.8,0,0,0,3.551,1.033A5.905,5.905,0,0,0,2071.155,900.286Z" fill="#b5005d"/><path d="M2084.835,878.3a3.443,3.443,0,0,1-1.128-2.664,3.388,3.388,0,0,1,1.128-2.616,4.468,4.468,0,0,1,5.712,0,3.392,3.392,0,0,1,1.128,2.616,3.446,3.446,0,0,1-1.128,2.664,4.471,4.471,0,0,1-5.712,0Zm-.168,6.936a2.965,2.965,0,0,1,1.487-2.808,9.464,9.464,0,0,1,4.513-.84v21.217a2.979,2.979,0,0,1-1.487,2.784,9.243,9.243,0,0,1-4.513.863Z" fill="#b5005d"/><path d="M2100.818,905.494a7.962,7.962,0,0,1-3.263-2.76,8.038,8.038,0,0,1,.072-8.64,8.282,8.282,0,0,1,3.527-2.832,12.082,12.082,0,0,1,4.92-.984,10.657,10.657,0,0,1,3.961.7,10.289,10.289,0,0,1,3.24,2.088l.24-.24q-.432-.432-1.488-1.3v-.96a3.838,3.838,0,0,0-1.392-3.12,5.932,5.932,0,0,0-3.888-1.152,7.273,7.273,0,0,0-6.576,3.264,4.194,4.194,0,0,1-1.776-1.08,2.281,2.281,0,0,1-.72-1.608,3.555,3.555,0,0,1,1.3-2.64,9.343,9.343,0,0,1,3.5-1.92,15.4,15.4,0,0,1,4.8-.72q5.087,0,7.871,2.376a8.048,8.048,0,0,1,2.785,6.456v12a3.515,3.515,0,0,1-1.344,3.071,7.357,7.357,0,0,1-4.224.96v-1.968a13.3,13.3,0,0,0,1.1-1.2l-.192-.239a11.54,11.54,0,0,1-3.384,2.544,10.621,10.621,0,0,1-4.584.863A10.415,10.415,0,0,1,2100.818,905.494Zm9.912-4.368a3.125,3.125,0,0,0,1.393-2.735,3.189,3.189,0,0,0-1.416-2.737,6.463,6.463,0,0,0-3.816-1.008,5.555,5.555,0,0,0-3.481.984,3.294,3.294,0,0,0-1.271,2.761,3.232,3.232,0,0,0,1.248,2.759,5.65,5.65,0,0,0,3.456.937A6.768,6.768,0,0,0,2110.73,901.126Z" fill="#b5005d"/></g></g></g></g></svg>