<svg id="svg" version="1.1" xmlns="http://www.w3.org/2000/svg" xmlns:xlink="http://www.w3.org/1999/xlink" width="400"
     height="615.5555555555555" viewBox="0, 0, 400,615.5555555555555">
    <g id="svgg">
        <path id="path0"
              d="M158.889 3.262 C 80.733 20.314,4.444 100.828,4.444 166.260 C 4.444 205.864,63.776 212.968,73.454 174.522 C 85.011 128.619,111.824 96.807,154.369 78.527 L 165.556 73.720 166.667 186.699 C 167.902 312.261,166.916 304.462,183.078 316.529 C 192.043 323.223,211.912 322.918,221.700 315.936 C 237.049 304.989,236.597 308.743,237.301 186.111 C 237.819 95.912,238.480 75.556,240.891 75.556 C 266.990 75.556,313.952 123.393,325.973 162.222 C 335.713 193.685,344.013 201.208,367.136 199.536 C 393.063 197.660,403.428 178.609,395.484 147.435 C 369.761 46.500,261.917 -19.216,158.889 3.262 M44.410 264.115 C 25.818 273.994,20.315 299.654,33.092 316.889 C 43.422 330.823,173.749 459.164,181.556 463.090 C 190.891 467.785,213.553 467.785,222.888 463.090 C 232.768 458.121,363.797 327.439,369.054 317.311 C 381.116 294.072,364.432 266.667,338.222 266.667 C 323.978 266.667,323.407 267.124,264.342 325.806 C 218.016 371.833,208.815 380.000,203.287 380.000 C 197.746 380.000,188.341 371.588,140.056 323.444 C 73.697 257.281,66.118 252.579,44.410 264.115 M81.040 513.829 C 80.417 515.453,80.178 537.732,80.509 563.339 L 81.111 609.896 87.222 612.044 C 99.575 616.385,105.461 611.735,106.226 597.032 C 107.037 581.471,109.785 581.400,118.163 596.723 C 125.144 609.490,129.739 613.333,138.021 613.333 C 153.855 613.333,154.854 607.077,142.201 587.133 C 131.563 570.364,131.664 573.556,141.308 559.032 C 151.983 542.954,151.040 538.889,136.636 538.889 C 125.808 538.889,125.387 539.142,118.156 550.000 C 107.535 565.948,106.883 565.261,106.185 537.383 L 105.556 512.222 93.864 511.550 C 85.691 511.080,81.832 511.766,81.040 513.829 M232.778 520.178 C 230.113 521.730,228.889 525.205,228.889 531.222 C 228.889 538.416,228.114 540.000,224.594 540.000 C 219.567 540.000,216.797 546.900,218.731 554.605 C 219.594 558.046,221.679 560.000,224.487 560.000 C 228.486 560.000,228.889 561.535,228.889 576.777 C 228.889 597.626,232.307 604.884,244.404 609.725 C 262.352 616.906,272.038 613.256,270.707 599.814 C 270.026 592.933,267.786 590.586,259.444 588.008 C 251.970 585.698,253.942 560.481,261.667 559.592 C 271.663 558.442,272.306 540.000,262.350 540.000 C 256.093 540.000,255.556 539.397,255.556 532.381 C 255.556 519.828,244.004 513.639,232.778 520.178 M23.742 538.688 C -6.234 549.687,-9.729 592.925,18.080 608.738 C 34.820 618.257,68.889 612.467,68.889 600.103 C 68.889 589.690,62.510 586.012,50.173 589.312 C 41.400 591.659,38.822 591.582,33.939 588.829 C 22.148 582.180,25.181 580.199,48.176 579.527 L 70.000 578.889 70.604 568.889 C 72.028 545.342,47.931 529.812,23.742 538.688 M175.966 537.672 C 160.396 541.532,152.660 555.438,158.419 569.214 C 161.549 576.701,164.825 579.070,180.949 585.507 C 192.148 589.978,189.081 595.385,177.615 591.387 C 166.141 587.387,160.198 588.246,157.438 594.303 C 152.324 605.527,163.615 613.340,184.929 613.325 C 220.682 613.300,227.058 576.757,193.268 565.534 C 176.266 559.887,179.894 554.871,197.357 559.879 C 210.379 563.614,219.370 548.424,208.333 541.336 C 201.895 537.201,185.398 535.333,175.966 537.672 M350.304 538.675 C 335.159 542.862,332.073 548.541,339.776 558.053 C 343.762 562.975,344.557 563.114,354.126 560.555 C 363.886 557.944,371.111 558.632,371.111 562.171 C 371.111 563.103,365.133 565.042,357.827 566.480 C 335.707 570.831,325.845 582.932,331.198 599.151 C 335.717 612.844,357.561 618.277,369.700 608.728 C 374.230 605.164,375.556 604.859,375.556 607.379 C 375.556 613.995,390.777 615.573,396.771 609.578 C 402.038 604.311,400.560 559.021,394.836 550.285 C 386.719 537.897,369.424 533.388,350.304 538.675 M281.584 539.157 C 276.815 543.926,279.943 610.578,285.000 611.933 C 301.962 616.478,306.667 611.660,306.667 589.740 C 306.667 571.222,312.006 562.222,322.995 562.222 C 328.704 562.222,331.111 558.598,331.111 550.000 C 331.111 536.660,320.078 533.054,310.024 543.107 C 304.701 548.430,304.693 548.431,304.014 543.663 C 303.320 538.796,285.520 535.220,281.584 539.157 M44.444 562.300 C 44.444 563.480,40.194 564.411,35.000 564.371 L 25.556 564.297 30.762 559.958 C 35.999 555.594,44.444 557.040,44.444 562.300 M370.561 587.222 C 366.782 592.924,360.630 594.853,357.191 591.414 C 353.518 587.740,359.532 582.222,367.210 582.222 C 373.623 582.222,373.750 582.412,370.561 587.222 "
              stroke="none" fill="#127DC6" fill-rule="evenodd"></path>
    </g>
</svg>