<svg xmlns="http://www.w3.org/2000/svg" xmlns:xlink="http://www.w3.org/1999/xlink" width="270" height="270" viewBox="0 0 270 270">
  <defs>
    <clipPath id="clip-path">
      <rect id="Rectangle_24" data-name="Rectangle 24" width="230" height="81.65"/>
    </clipPath>
  </defs>
  <g id="udef-logo" transform="translate(-891 -1902)">
    <g id="Rectangle_2355" data-name="Rectangle 2355" transform="translate(891 1902)" fill="#fff" stroke="#707070" stroke-width="1" opacity="0">
      <rect width="270" height="270" stroke="none"/>
      <rect x="0.5" y="0.5" width="269" height="269" fill="none"/>
    </g>
    <g id="logo" transform="translate(880.899 2012.2)">
      <g id="Group_619" data-name="Group 619" transform="translate(30.101 -16.2)">
        <g id="Group_613" data-name="Group 613" clip-path="url(#clip-path)">
          <path id="Path_815" data-name="Path 815" d="M370.5,122.5V111.917h5.055v2.035H372.9v2.1h2.372v2H372.9V122.5Zm9.924,0V111.917h5.337v2.035H382.8v2.1h2.59v2H382.8v2.38h3.027v2.035h-5.4Zm12.982-8.766h-.312v6.95h.312a1.27,1.27,0,0,0,.843-.188,1.049,1.049,0,0,0,.25-.814V114.7a1.049,1.049,0,0,0-.25-.814,1.566,1.566,0,0,0-.843-.157m-2.684-1.785h2.933a4.29,4.29,0,0,1,2.466.532,2.8,2.8,0,0,1,.778,2.317v4.853a2.724,2.724,0,0,1-.874,2.286,2.6,2.6,0,0,1-.936.438c-.187.031-.405.063-.718.094s-.687.031-1.124.031H390.72Zm11.3,10.551V111.917h5.337v2.035h-2.965v2.1h2.59v2h-2.59v2.38h3.027v2.035h-5.4Zm12.67-6.293a1.851,1.851,0,0,0,1.061-.219.819.819,0,0,0,.281-.722v-.595a.809.809,0,0,0-.374-.783,2.034,2.034,0,0,0-.9-.157h-.095v2.473Zm-2.341,6.293V111.917h3.4c1.777,0,2.653.783,2.653,2.348v.595a1.97,1.97,0,0,1-1.311,2.035,1.861,1.861,0,0,1,1.311,2v2.444a2.184,2.184,0,0,0,.218,1.127h-2.4a2.843,2.843,0,0,1-.156-1.222v-2.035a1.594,1.594,0,0,0-.281-1.1,1.529,1.529,0,0,0-1.092-.282V122.5Zm10.609,0,1.935-10.582h3.214l1.935,10.582h-2.526l-.25-1.91h-1.654l-.25,1.91Zm2.933-3.819h1.155l-.53-5.041-.094.876-.094.939Zm8.395.157h2.372v.842c0,.722.249,1.064.778,1.064a.8.8,0,0,0,.593-.251.92.92,0,0,0,.218-.595,1.1,1.1,0,0,0-.218-.658,2.422,2.422,0,0,0-.624-.658l-.53-.438a17.981,17.981,0,0,1-1.591-1.346,2.981,2.981,0,0,1-.811-2.192,2.714,2.714,0,0,1,.811-2.066,3.228,3.228,0,0,1,2.277-.751c1.966,0,2.933.908,2.933,2.692v.876h-2.247v-.722c0-.658-.25-.97-.749-.97-.468,0-.687.251-.687.783,0,.313.53.939,1.56,1.879l.062.063.187.157a7.789,7.789,0,0,1,1.654,1.659,3.349,3.349,0,0,1,.374,1.6,2.746,2.746,0,0,1-.9,2.192,3.515,3.515,0,0,1-2.31.722c-2.06,0-3.058-1-3.058-3.006v-.876Zm12.389,3.663v-4.166l-2.024-6.418h2.528l.405,1.941a3.654,3.654,0,0,0,.094.5c.031.125.031.282.062.469l.094.845a4.559,4.559,0,0,1,.125-1,4.9,4.9,0,0,1,.156-.689v-.031l.405-2.066h2.462l-1.935,6.23V122.5Zm11.048-7.827v5.135c0,.658.249.97.718.97.5,0,.718-.313.718-.97v-5.135c0-.658-.249-.97-.749-.97-.437-.031-.687.313-.687.97m-2.4.375c0-2.16,1.061-3.256,3.152-3.256s3.121,1.1,3.121,3.256V119.4c0,2.192-1.061,3.287-3.121,3.287-2.091,0-3.152-1.1-3.152-3.287Zm11.39,7.451V111.917h2.684l1.217,4.289c.062.188.125.469.249.908.031.125.093.313.156.564.031.125.125.469.218.97.062.282.125.5.156.626l-.125-.97s0-.532-.062-1.534c-.031-.438-.031-.722-.031-.908v-3.914h2.31V122.5h-2.59l-1.373-4.54c-.156-.564-.312-1.033-.405-1.471-.094-.344-.187-.876-.343-1.6,0,.251.031.626.062,1.127a8.518,8.518,0,0,1,.062,1.127v.752l.031,1.19v3.444h-2.216Zm14.355-10.551v7.858c0,.658.249.97.718.97.5,0,.718-.313.718-.97v-7.86h2.372V119.4c0,2.192-1.03,3.287-3.12,3.287q-3.089,0-3.089-3.287v-7.453Z" transform="translate(-254.876 -76.791)"/>
        </g>
        <g id="Group_614" data-name="Group 614" clip-path="url(#clip-path)">
          <path id="Path_816" data-name="Path 816" d="M372.9,58v5.134c0,.658.249.97.718.97.5,0,.718-.313.718-.97V58c0-.658-.249-1-.749-1-.437.031-.687.344-.687,1m-2.4.407c0-2.192,1.061-3.256,3.152-3.256s3.152,1.1,3.152,3.256v4.352c0,2.192-1.061,3.287-3.152,3.287s-3.152-1.1-3.152-3.288Zm3.5-5.542h1.559v1.691h-1.56Zm-2.277,0h1.559v1.691h-1.56Zm10.172,12.99v-.812a2.245,2.245,0,0,1-1.935.97q-2.154,0-2.153-3.287V58.4c0-2.192,1.061-3.256,3.152-3.256s3.154,1.1,3.154,3.256v.5H381.7V58c0-.658-.249-1-.749-1-.468,0-.718.344-.718,1v5.134c0,.658.25.97.718.97.5,0,.718-.313.718-.97V61.942h-.811V60h3.214v5.852ZM378.926,52.8h.843c.062.532.468.783,1.186.783s1.092-.251,1.186-.783h.843a1.839,1.839,0,0,1-2.028,1.847,1.873,1.873,0,0,1-2.029-1.847m8.675,6.731a2.039,2.039,0,0,0,1.092-.219.819.819,0,0,0,.281-.722V58a.809.809,0,0,0-.374-.783,2.035,2.035,0,0,0-.9-.157H387.6Zm-2.341,6.322V55.273h3.433c1.777,0,2.653.783,2.653,2.38v.595a1.97,1.97,0,0,1-1.311,2.035,1.861,1.861,0,0,1,1.311,2V64.73a2.182,2.182,0,0,0,.218,1.127h-2.4a2.841,2.841,0,0,1-.156-1.222V62.6a1.593,1.593,0,0,0-.281-1.1,1.528,1.528,0,0,0-1.092-.282v4.631Zm7.24,0V55.273h5.337v2.035h-2.965v2.129h2.622v2.035h-2.622V63.82h3.058v2.033Zm6.335,0V55.273h2.684l1.248,4.289c.062.188.125.469.249.908.031.125.094.313.156.564.031.125.125.469.218.97.062.282.125.5.156.626l-.125-1s-.031-.532-.062-1.534c-.031-.438-.031-.722-.031-.908V55.273h2.31V65.887h-2.591l-1.342-4.571c-.156-.564-.312-1.033-.405-1.471-.094-.344-.187-.876-.343-1.6,0,.251.031.626.062,1.127a8.523,8.523,0,0,1,.062,1.127v.752l.031,1.19v3.444h-2.277Zm14.23-3.1c0,2.192-1.061,3.287-3.152,3.287s-3.152-1.1-3.152-3.287V58.4c0-2.192,1.061-3.256,3.152-3.256s3.152,1.1,3.152,3.256v.814h-2.4V58c0-.658-.249-1-.749-1-.468,0-.718.344-.718,1v5.136c0,.658.249.97.718.97.5,0,.718-.344.718-.97v-1.44h2.4v1.064Zm1.091-7.48h2.4V65.887h-2.4Zm.406-2.444h1.623v1.753h-1.623Zm9.206,4.258h-.312v6.983h.312a1.27,1.27,0,0,0,.843-.188,1.049,1.049,0,0,0,.249-.814v-5.01a1.049,1.049,0,0,0-.249-.814,1.43,1.43,0,0,0-.843-.157m-2.715-1.816h2.965a4.29,4.29,0,0,1,2.466.532,2.827,2.827,0,0,1,.778,2.348v4.884a2.724,2.724,0,0,1-.874,2.286,2.6,2.6,0,0,1-.936.438c-.187.031-.405.063-.718.094s-.687.031-1.155.031h-2.524Zm7.332,10.582V55.273h5.337v2.035h-2.965v2.129h2.621v2.035h-2.621V63.82h3.062v2.033Zm8.711-6.324a2.039,2.039,0,0,0,1.092-.219.819.819,0,0,0,.281-.722V58a.809.809,0,0,0-.374-.783,2.035,2.035,0,0,0-.9-.157H437.1Zm-2.372,6.322V55.273h3.433c1.777,0,2.653.783,2.653,2.38v.595a1.97,1.97,0,0,1-1.311,2.035,1.861,1.861,0,0,1,1.311,2V64.73a2.183,2.183,0,0,0,.218,1.127h-2.4a2.843,2.843,0,0,1-.156-1.222V62.6a1.594,1.594,0,0,0-.281-1.1,1.529,1.529,0,0,0-1.092-.282v4.631Zm7.24,0V55.273h2.686l1.248,4.289c.062.188.125.469.249.908.031.125.094.313.156.564.031.125.125.469.218.97.062.282.125.5.156.626l-.125-1s0-.532-.062-1.534c-.031-.438-.031-.722-.031-.908V55.273h2.31V65.887h-2.59l-1.342-4.571c-.156-.564-.312-1.033-.405-1.471-.094-.344-.187-.876-.343-1.6,0,.251.031.626.062,1.127a8.533,8.533,0,0,1,.062,1.127v.752l.031,1.19v3.444h-2.277Zm8.02,0V55.273h5.337v2.035h-2.965v2.129h2.622v2.035h-2.622V63.82h3.058v2.033Zm6.367,0V55.273h2.372v4.6a1.926,1.926,0,0,1,.093-.5,4.126,4.126,0,0,1,.156-.469l1.342-3.632h2.528l-2.153,4.444,2.153,6.165h-2.5l-1.155-3.944-.5.939v2.973Zm6.866,0V55.273h2.4v8.516h2.621v2.064Zm5.68,0V55.273h5.368v2.035H471.3v2.129h2.623v2.035H471.3V63.82h3.058v2.033Zm8.707-6.324a2.039,2.039,0,0,0,1.093-.219.819.819,0,0,0,.281-.722V58a.809.809,0,0,0-.374-.783,2.035,2.035,0,0,0-.9-.157h-.094Zm-2.372,6.324V55.273h3.433c1.777,0,2.653.783,2.653,2.38v.595a1.97,1.97,0,0,1-1.311,2.035,1.861,1.861,0,0,1,1.311,2V64.73a2.183,2.183,0,0,0,.218,1.127h-2.4a2.842,2.842,0,0,1-.156-1.222V62.6a1.594,1.594,0,0,0-.281-1.1,1.529,1.529,0,0,0-1.092-.282v4.631Zm7.24-10.582h2.4V65.887h-2.4Zm.405-2.444H484.5V54.58h-1.623Z" transform="translate(-254.876 -36.269)"/>
        </g>
        <g id="Group_615" data-name="Group 615" clip-path="url(#clip-path)">
          <path id="Path_817" data-name="Path 817" d="M372.8,1.381V9.24c0,.658.249.97.718.97.5,0,.718-.313.718-.97V1.381h2.372V8.864c0,2.192-1.03,3.287-3.121,3.287q-3.089,0-3.089-3.287V1.381Zm8.332,10.582V1.381h2.374V9.9h2.59v2.066Zm11.36-10.582V9.24c0,.658.249.97.718.97.5,0,.718-.313.718-.97V1.381H396.3V8.864c0,2.192-1.03,3.287-3.121,3.287q-3.089,0-3.089-3.287V1.381ZM400.484,8.3h2.372v.845c0,.722.249,1.064.778,1.064a.8.8,0,0,0,.593-.25.92.92,0,0,0,.218-.595,1.105,1.105,0,0,0-.218-.658,2.422,2.422,0,0,0-.624-.658l-.53-.438a13.059,13.059,0,0,1-1.591-1.378,3.027,3.027,0,0,1-.843-2.222,2.715,2.715,0,0,1,.811-2.066,3.227,3.227,0,0,1,2.277-.752c1.966,0,2.933.908,2.933,2.692v.876h-2.247V4.041c0-.658-.249-1-.749-1-.468,0-.687.251-.687.783,0,.313.53.939,1.56,1.879l.062.063.187.157a7.789,7.789,0,0,1,1.654,1.659,3.348,3.348,0,0,1,.374,1.6,2.746,2.746,0,0,1-.9,2.192,3.516,3.516,0,0,1-2.31.722q-3.089,0-3.089-3.006V8.3Zm10.486,3.663V1.381h2.372V9.9h2.59v2.066Zm8.426,0L421.33,1.382h3.214l1.935,10.582h-2.528l-.249-1.91h-1.654l-.249,1.91Zm2.933-3.82h1.155l-.53-5.041-.094.876-.094.939Zm10.392-2.507a1.851,1.851,0,0,0,1.061-.219.819.819,0,0,0,.281-.722v-.59a.809.809,0,0,0-.374-.783,2.035,2.035,0,0,0-.9-.157h-.094V5.637Zm-2.372,6.324V1.381h3.4c1.777,0,2.653.783,2.653,2.348v.595a1.97,1.97,0,0,1-1.311,2.035,1.861,1.861,0,0,1,1.311,2v2.473a2.183,2.183,0,0,0,.218,1.127H434.25a2.842,2.842,0,0,1-.156-1.222V8.708a1.594,1.594,0,0,0-.281-1.1,1.528,1.528,0,0,0-1.092-.282v4.634Zm9.986,0L442.27,1.38h3.214l1.935,10.582h-2.559l-.249-1.91h-1.623l-.249,1.91Zm2.933-3.82h1.155l-.53-5.041-.094.876-.094.939Zm10.392-2.5a1.852,1.852,0,0,0,1.061-.219A.819.819,0,0,0,455,4.7v-.59a.809.809,0,0,0-.374-.783,2.035,2.035,0,0,0-.9-.157h-.093V5.637Zm-2.372,6.324V1.381h3.4c1.777,0,2.653.783,2.653,2.348v.595a1.97,1.97,0,0,1-1.311,2.035,1.861,1.861,0,0,1,1.311,2v2.473a2.182,2.182,0,0,0,.218,1.127h-2.4A2.842,2.842,0,0,1,455,10.741V8.708a1.593,1.593,0,0,0-.281-1.1,1.528,1.528,0,0,0-1.092-.282v4.634Zm9.986,0L463.21,1.38h3.214l1.935,10.582h-2.528l-.249-1.91h-1.654l-.249,1.91Zm2.933-3.82h1.155l-.53-5.041-.094.876-.093.939Zm7.708.157h2.372v.845c0,.722.249,1.064.778,1.064a.8.8,0,0,0,.593-.251.921.921,0,0,0,.218-.595,1.105,1.105,0,0,0-.218-.658,2.425,2.425,0,0,0-.624-.658l-.53-.438a13.058,13.058,0,0,1-1.591-1.378,3.027,3.027,0,0,1-.843-2.222,2.714,2.714,0,0,1,.812-2.066,3.228,3.228,0,0,1,2.277-.752c1.966,0,2.933.908,2.933,2.692v.879h-2.247V4.041c0-.658-.249-1-.749-1-.468,0-.687.251-.687.783,0,.313.53.939,1.56,1.879l.062.063.187.157a7.788,7.788,0,0,1,1.658,1.66,3.349,3.349,0,0,1,.374,1.6,2.746,2.746,0,0,1-.9,2.192,3.515,3.515,0,0,1-2.31.722q-3.089,0-3.089-3.006V8.3Zm10.516-6.917H484.8V11.964h-2.372Z" transform="translate(-254.807 -0.818)"/>
        </g>
        <g id="Group_616" data-name="Group 616" clip-path="url(#clip-path)">
          <path id="Path_818" data-name="Path 818" d="M230.069,214.906a3.443,3.443,0,0,1-.249,1.253,8.288,8.288,0,0,1-.53,1.033l-.156-.094a2.876,2.876,0,0,0,.031-.532c0-.219.031-.344.031-.407,0-.564-.062-1.346-.125-2.348-.094-1-.187-2.066-.343-3.162-.062-.658-.156-1.346-.249-2.035.125-.251.249-.5.374-.783.156-.282.281-.532.405-.783.094.626.187,1.471.343,2.536.125,1.064.249,2.035.312,2.912a20.978,20.978,0,0,1,.156,2.411M4.438,207.267l-.655,1.158-1.342-.689.624-1.159Zm-1.935.722-.626,1.188-1.342-.689.624-1.19Zm3.464,8.985H5.377c-.405,0-.749-.344-1.061-1a9.418,9.418,0,0,1-.562-1.91,2.009,2.009,0,0,1-.624.722,1.544,1.544,0,0,1-.812.251,10.587,10.587,0,0,1-1.591-.125c-.409-.1-.627-.194-.627-.319a2.2,2.2,0,0,1,.936-1.534,8.567,8.567,0,0,1,2.341-1.471c0-.031-.031-.157-.062-.344s-.062-.313-.062-.344a1.3,1.3,0,0,1,.187-.626,3.178,3.178,0,0,1,.405-.564c.062.344.125.658.156.97.062.313.156.658.218.97l.218,1.377a16.844,16.844,0,0,0,.374,1.691c.156.564.343.845.53.845H20.729a4.429,4.429,0,0,0-.218-1.471,4.616,4.616,0,0,0-.778-1l.624-1.315a4.3,4.3,0,0,1,.749,1.159A6.625,6.625,0,0,1,21.324,215v.564h3.558a4.429,4.429,0,0,0-.218-1.471,4.617,4.617,0,0,0-.778-1l.655-1.315a4.3,4.3,0,0,1,.749,1.159,6.626,6.626,0,0,1,.218,2.066v1.972H5.967Zm-2.341-3.631-.156-.876A5.022,5.022,0,0,0,2.316,213a2.166,2.166,0,0,0-.687.722,1.541,1.541,0,0,0,.405.125,3.785,3.785,0,0,0,.655.031,1.278,1.278,0,0,0,.936-.532M21.29,218.6l-.655,1.158-1.342-.689.624-1.158Zm-1.935.722-.624,1.19-1.342-.689.624-1.19Zm5.277-.375-.655,1.19-1.342-.689.624-1.19Zm7.646-6.23a.869.869,0,0,1-.031.282.722.722,0,0,1-.094.282,9.631,9.631,0,0,0-1.373-2.1c-.687-.783-1.217-1.19-1.591-1.19-.094,0-.156.063-.249.219-.094.125-.187.219-.281.219a1.633,1.633,0,0,1-.718-.282,3.184,3.184,0,0,1-.968-.814,2.243,2.243,0,0,1-.5-1.346c0-.344.125-.5.343-.5a4.336,4.336,0,0,1,1.872.751,9.813,9.813,0,0,1,2.4,1.91,3.87,3.87,0,0,1,1.186,2.567m2.871,4.251a1.336,1.336,0,0,1-1.061-.752,5.577,5.577,0,0,1-.5-2.692c0-.094-.031-.219-.031-.344a1.215,1.215,0,0,1-.031-.282,11.331,11.331,0,0,1-1.436,2.974A3.493,3.493,0,0,1,30,217.13a21.6,21.6,0,0,1-3.9.251v-.219a30.794,30.794,0,0,0,3.339-1.127,7.541,7.541,0,0,0,2.684-1.753,4,4,0,0,0,1.124-2.849,10.61,10.61,0,0,0-.094-1.471,11.248,11.248,0,0,0-.281-1.409l.281-.689a4.89,4.89,0,0,1,.312-.689c.156.783.281,1.628.405,2.536.094.626.187,1.284.249,2,.094.876.187,1.6.281,2.129a3.74,3.74,0,0,0,.437,1.471q.187.282.374.282h1.215a3.776,3.776,0,0,0,1.061-.157,5.058,5.058,0,0,0,1.278-.595,7.059,7.059,0,0,0,.249-.752,3.561,3.561,0,0,0,.094-.783,14.281,14.281,0,0,0-.156-1.91c-.062-.5-.218-1.1-.374-1.785-.094-.344-.218-.783-.343-1.315l-.53-.251a4.554,4.554,0,0,1,.187-.939,4.178,4.178,0,0,1,.312-.876,1.01,1.01,0,0,0,.593.595,2.78,2.78,0,0,0,1,.219c-.062.564-.094.908-.125,1.064s-.094.344-.156.563a1.332,1.332,0,0,1-.312-.094l-.094-.031a19.551,19.551,0,0,1,.468,1.941,9.276,9.276,0,0,1,.187,1.691,6.586,6.586,0,0,1-.125,1.284c-.031.157-.062.438-.156.783a21.146,21.146,0,0,1,1.872-1,5.235,5.235,0,0,1,2.122-.564,2.1,2.1,0,0,1,1.685.658,2.4,2.4,0,0,1,.5,1.659v.658H59.3l-1-6.887-.437-.188a5.874,5.874,0,0,1,.094-1.064,3.326,3.326,0,0,1,.312-.939l.125.094a.789.789,0,0,0,.53.722c.281.125.562.219.843.313,0,.282-.031.564-.062.876a2.509,2.509,0,0,1-.156.689l-.405-.125.968,6.355v1.6h-24.9l-.062-.125Zm9.175-2.035a.667.667,0,0,0-.437-.626,3.191,3.191,0,0,0-1.248-.219,5.124,5.124,0,0,0-1.4.25,7.3,7.3,0,0,0-1.373.595c-.343.188-.718.407-1.124.626h3.62c1.311,0,1.966-.219,1.966-.626m18.6-.031a3.444,3.444,0,0,1-.249,1.253,8.291,8.291,0,0,1-.53,1.033l-.156-.094a2.873,2.873,0,0,0,.031-.532c0-.188.031-.344.031-.407,0-.564-.062-1.346-.125-2.348-.094-1-.218-2.066-.343-3.162-.062-.658-.156-1.346-.249-2.035.125-.251.249-.5.374-.783.156-.282.281-.532.405-.783.094.626.218,1.471.343,2.536s.249,2.035.312,2.912c.094,1.064.156,1.879.156,2.411m13.7-5.291-.655,1.159-1.342-.689.624-1.159Zm-1.9.722-.624,1.19-1.342-.689.624-1.19Zm5.8,6.637H72.6a5.458,5.458,0,0,1-2.559-.532,2.277,2.277,0,0,1-1.186-2.129,3.9,3.9,0,0,1,.343-1.534,12.165,12.165,0,0,1,.593-1.064l.249.157a8.018,8.018,0,0,0-.343.752,2.762,2.762,0,0,0-.249,1.033,1.615,1.615,0,0,0,1.03,1.471,5.2,5.2,0,0,0,2.341.47h7.054v-.219a3.952,3.952,0,0,0-.218-1.471,2.124,2.124,0,0,0-.778-.97l.655-1.315c.249.313.405.5.437.564a5.113,5.113,0,0,1,.562,2.661Zm3.339,0H83.27a1.111,1.111,0,0,1-.9-.438,2.894,2.894,0,0,1-.437-1.159,19.183,19.183,0,0,1-.249-1.91c-.031-.595-.062-1.253-.094-1.879a11.791,11.791,0,0,0-.156-1.471,2.505,2.505,0,0,0-.249-.814,2.166,2.166,0,0,0-.5-.689l1.03-1.565a11.224,11.224,0,0,1,.468,2.317c.062.564.062,1.91.156,4.008a3.948,3.948,0,0,0,.437,1.847c.156.219.312.344.5.344h9.672a2.4,2.4,0,0,0,1.342-.375,2.958,2.958,0,0,0,.843-.814,5.277,5.277,0,0,1,1.248-1.253,3.616,3.616,0,0,1,1.217-.595,14.864,14.864,0,0,1,.9,1.534,3.647,3.647,0,0,1,.468,1.5h.687a3.952,3.952,0,0,0,1.061-.157,6.454,6.454,0,0,0,1.278-.595,7.061,7.061,0,0,0,.249-.752,3.561,3.561,0,0,0,.094-.783,14.282,14.282,0,0,0-.156-1.91q-.141-.752-.374-1.785c-.094-.344-.218-.783-.343-1.315l-.53-.251a5,5,0,0,1,.187-.939,4.177,4.177,0,0,1,.312-.876,1.01,1.01,0,0,0,.593.595,2.781,2.781,0,0,0,1,.219c-.062.564-.094.908-.125,1.064s-.094.344-.156.564a1.333,1.333,0,0,1-.312-.094l-.094-.031a19.55,19.55,0,0,1,.468,1.941,9.276,9.276,0,0,1,.187,1.691,6.586,6.586,0,0,1-.125,1.284c-.031.157-.062.438-.156.783a21.153,21.153,0,0,1,1.872-1,5.235,5.235,0,0,1,2.122-.564,2.094,2.094,0,0,1,1.685.658,2.4,2.4,0,0,1,.5,1.659v.658h3.527a4.429,4.429,0,0,0-.218-1.471,4.616,4.616,0,0,0-.778-1l.655-1.315a4.3,4.3,0,0,1,.749,1.158,6.5,6.5,0,0,1,.218,2.066v.564h.687a3.444,3.444,0,0,0,1.623-.375,2.958,2.958,0,0,0,.843-.814,5.277,5.277,0,0,1,1.248-1.253,3.616,3.616,0,0,1,1.217-.595,14.87,14.87,0,0,1,.9,1.534,3.647,3.647,0,0,1,.468,1.5h2.684l-1-6.888-.437-.188a5.874,5.874,0,0,1,.094-1.064,3.326,3.326,0,0,1,.314-.949l.125.094a.789.789,0,0,0,.53.722c.281.125.562.219.843.313,0,.282-.031.564-.062.876a2.508,2.508,0,0,1-.156.689l-.405-.125,1,6.355v.188h2.681l-1-6.887-.437-.188a5.874,5.874,0,0,1,.094-1.064,3.326,3.326,0,0,1,.312-.939l.125.094a.789.789,0,0,0,.53.722c.281.125.562.219.843.313,0,.282-.031.564-.062.876a2.508,2.508,0,0,1-.156.689l-.405-.125.968,6.355v1.6h-7.927a4.006,4.006,0,0,1-1.248-.25,4.924,4.924,0,0,1-1.436-.783,2.94,2.94,0,0,1-1,.814,5.4,5.4,0,0,1-1.747.219h-15.6a4.005,4.005,0,0,1-1.248-.25,4.925,4.925,0,0,1-1.436-.783,2.94,2.94,0,0,1-1,.814,3.61,3.61,0,0,1-1.467.219h-9.08ZM98,215.378a3.807,3.807,0,0,0-.343-.939,4.623,4.623,0,0,0-.5-.783,1.486,1.486,0,0,0-.687.375,3.213,3.213,0,0,0-.437.564,2.206,2.206,0,0,0,.843.564,3.8,3.8,0,0,0,1.03.313Zm8.613-5.948-.624,1.19-1.373-.722.624-1.19Zm.936,5.51a.666.666,0,0,0-.437-.626,2.705,2.705,0,0,0-1.248-.219,5.125,5.125,0,0,0-1.4.251,7.3,7.3,0,0,0-1.373.595c-.374.188-.749.407-1.124.626h3.62c1.311,0,1.966-.219,1.966-.626m4.837-5.479-.627,1.185-1.342-.689.624-1.19Zm6.71,5.917a3.805,3.805,0,0,0-.343-.939,4.621,4.621,0,0,0-.5-.783,1.487,1.487,0,0,0-.687.375,3.215,3.215,0,0,0-.437.564,2.206,2.206,0,0,0,.843.564,3.8,3.8,0,0,0,1.03.313Zm22.189,1.6h-.874c-.843,0-1.5.031-1.935.063s-.655.125-.655.251c0,.188.249.251.778.251a2.523,2.523,0,0,1,.53.031,8.268,8.268,0,0,1,.874.094,1.667,1.667,0,0,1,.562.125.465.465,0,0,1,.249.438,2.514,2.514,0,0,1-1.03,2.222,6.83,6.83,0,0,1-3.683.752,5.639,5.639,0,0,1-2.84-.595,1.976,1.976,0,0,1-1.124-1.816,4.691,4.691,0,0,1,.53-2c.125-.251.468-.814,1-1.628l.343.157c-.218.344-.437.689-.624,1.033a3.412,3.412,0,0,0-.468,1.471,1.649,1.649,0,0,0,1.061,1.534,6.679,6.679,0,0,0,2.777.5,10.156,10.156,0,0,0,2.091-.188c.749-.157,1.124-.344,1.124-.595a.237.237,0,0,0-.125-.219,1.219,1.219,0,0,0-.405-.063c-.156,0-.374-.031-.718-.063a5.974,5.974,0,0,0-.624-.031,1.537,1.537,0,0,1-.749-.126.425.425,0,0,1-.218-.407,2.5,2.5,0,0,1,.593-1.659,3.317,3.317,0,0,1,1.342-.783,4.635,4.635,0,0,1,1.342-.188h2.153a2.4,2.4,0,0,0,1.341-.376,2.958,2.958,0,0,0,.843-.814A5.277,5.277,0,0,1,146,213.09a3.614,3.614,0,0,1,1.217-.595,14.853,14.853,0,0,1,.9,1.534,3.647,3.647,0,0,1,.468,1.5h2.684l-1-6.888-.437-.188a5.873,5.873,0,0,1,.094-1.064,3.325,3.325,0,0,1,.312-.939l.125.094a.789.789,0,0,0,.53.722c.281.125.562.219.843.313,0,.282-.031.564-.062.876a2.508,2.508,0,0,1-.156.689l-.405-.126,1,6.355v1.6h-4.4a4.006,4.006,0,0,1-1.248-.251,4.923,4.923,0,0,1-1.436-.783,2.944,2.944,0,0,1-1,.814,3.61,3.61,0,0,1-1.467.219h-1.278Zm-2.874,5.225-.778.689-.936-.564.749-.752Zm-1.716,0-.749.689-.968-.564.778-.752Zm10.923-6.825a3.8,3.8,0,0,0-.343-.939,4.621,4.621,0,0,0-.5-.783,1.486,1.486,0,0,0-.687.375,3.213,3.213,0,0,0-.437.564,2.206,2.206,0,0,0,.843.564,3.8,3.8,0,0,0,1.03.313Zm7.8,1.6h-.562a1.111,1.111,0,0,1-.9-.438,2.9,2.9,0,0,1-.437-1.159,19.177,19.177,0,0,1-.249-1.91l-.094-1.879a11.129,11.129,0,0,0-.156-1.471,2.5,2.5,0,0,0-.249-.814,2.166,2.166,0,0,0-.5-.689l1.03-1.565a11.224,11.224,0,0,1,.468,2.317c.062.564.062,1.91.156,4.008a3.948,3.948,0,0,0,.437,1.847c.156.219.312.344.5.344h12.577a5.787,5.787,0,0,0,1.311-.157,5.454,5.454,0,0,0,1.342-.532l-.343-.438a.713.713,0,0,0-.593-.313.586.586,0,0,0-.249.063c-.094.031-.156.125-.249.219h-.187v-.469a1.4,1.4,0,0,1,.468-1.222,2.939,2.939,0,0,1,1.529-.313,4.1,4.1,0,0,1,1.529.25c.53.219.778.532.778.97a1.115,1.115,0,0,1-.312.722,7.024,7.024,0,0,1-.812.752.865.865,0,0,0,.5.313,1.817,1.817,0,0,0,.624.125h3.9l-1-6.888-.437-.188a5.874,5.874,0,0,1,.094-1.064,3.327,3.327,0,0,1,.312-.939l.125.094a.789.789,0,0,0,.53.722c.281.125.562.219.843.313,0,.282-.031.564-.062.876a2.508,2.508,0,0,1-.156.689l-.405-.126,1,6.355v1.6h-4.743a2.771,2.771,0,0,1-1.092-.251,1.855,1.855,0,0,1-.968-.845,4.752,4.752,0,0,1-1.278.751,5.682,5.682,0,0,1-2,.344H155.421Zm24.872-2.066a3.443,3.443,0,0,1-.249,1.253,8.29,8.29,0,0,1-.53,1.033l-.156-.094a2.877,2.877,0,0,0,.031-.532c0-.219.031-.344.031-.407,0-.564-.062-1.346-.125-2.348-.094-1-.218-2.066-.343-3.162-.062-.658-.156-1.346-.249-2.035.125-.25.249-.5.374-.783.156-.282.281-.532.405-.783.094.626.187,1.471.343,2.536.125,1.064.249,2.035.312,2.912a20.979,20.979,0,0,1,.156,2.411m11.2,2.066h-3.712a1.367,1.367,0,0,1-.843-.282.763.763,0,0,1-.374-.626,3.055,3.055,0,0,1,.031-.564c.031-.157.062-.344.125-.564h.187a.778.778,0,0,0,.343.469.937.937,0,0,0,.562.125h3.214a6.1,6.1,0,0,0-.405-2.348,2.616,2.616,0,0,0-1.716-1.471l.125-1.565a3.88,3.88,0,0,1,2.028,2.192,9.076,9.076,0,0,1,.468,3.193v1.44Zm3.339,0h-.593a1.111,1.111,0,0,1-.9-.438,2.9,2.9,0,0,1-.437-1.159,19.175,19.175,0,0,1-.249-1.91l-.094-1.879a11.131,11.131,0,0,0-.156-1.471,2.505,2.505,0,0,0-.249-.814,2.166,2.166,0,0,0-.5-.689l1.03-1.565a11.225,11.225,0,0,1,.468,2.317c.062.564.062,1.91.156,4.008a3.948,3.948,0,0,0,.437,1.847c.156.219.312.344.5.344h16.79c-.562-.438-1.061-.752-1.436-1a10.207,10.207,0,0,0-1.311-.658,4.07,4.07,0,0,0-1.373-.219,7.63,7.63,0,0,0-.843.063,2.74,2.74,0,0,1,.624-.97,2.031,2.031,0,0,1,1.436-.532,3.693,3.693,0,0,1,2,.814c.374.282,1,.783,1.872,1.534a4.753,4.753,0,0,0,1.373.97h4.055a3.744,3.744,0,0,0-.218-1.471,4.616,4.616,0,0,0-.778-1l.655-1.315a4.3,4.3,0,0,1,.749,1.159,6.5,6.5,0,0,1,.218,2.066v1.972H194.841Zm23.094-8.015-.655,1.159-1.342-.689.624-1.159Zm-1.9.722-.624,1.189-1.342-.689.624-1.19Zm10.609-1.284-.405,1.471-.5-.251v.752a7.734,7.734,0,0,1-.281,2.1,9.81,9.81,0,0,1-.968,2.222,7.431,7.431,0,0,1,.437.908,3.014,3.014,0,0,1,.187,1.033,2.383,2.383,0,0,1-.031.5,3.132,3.132,0,0,1-.062.5c-.593.125-1.217.219-1.872.313q-.983.094-1.966.094v-.251a6.9,6.9,0,0,1,.187-1.158,8.017,8.017,0,0,0,2.4-1.91c-.374-.722-.655-1.222-.843-1.534s-.53-.845-1-1.534a4.472,4.472,0,0,0-.468-.564c-.187-.188-.312-.282-.437-.282a.756.756,0,0,0-.343.125.792.792,0,0,1-.218.063c-.125,0-.312-.125-.562-.344a9.258,9.258,0,0,1-.718-.783,3.391,3.391,0,0,1-.405-.626,1.7,1.7,0,0,1-.094-.595,4.624,4.624,0,0,1,.062-.783c.062-.282.187-.438.343-.438a1.944,1.944,0,0,1,1,.626,14.142,14.142,0,0,1,1.278,1.5,21.157,21.157,0,0,1,1.217,1.785l.843,1.346c.249.407.5.845.778,1.377a8.584,8.584,0,0,0,.778-2.222,13.519,13.519,0,0,0,.187-2.473l-.468-.282a4.65,4.65,0,0,1,.094-.97,2.9,2.9,0,0,1,.281-.783l.187.063a.787.787,0,0,0,.405.564l.5.251c.187.063.343.157.468.188m-2.185,7.887a1.574,1.574,0,0,0-.062-.375,3.73,3.73,0,0,0-.312-.626,3.332,3.332,0,0,1-.749.722c-.343.282-.655.5-.968.722a13.194,13.194,0,0,0,1.4-.063c.468-.031.687-.188.687-.375" transform="translate(-0.069 -141.647)" fill="#008bd2"/>
        </g>
        <g id="Group_617" data-name="Group 617" clip-path="url(#clip-path)">
          <path id="Path_819" data-name="Path 819" d="M0,176.224v-8.171H3.9v1.6H1.841v1.628H3.683v1.565H1.841v3.413H0Zm4.587,0v-8.171H8.738v1.6H6.461v1.628H8.489v1.565H6.46v1.816H8.8v1.6H4.587Zm6.99-6.794h-.247v5.385h.249a1.086,1.086,0,0,0,.655-.125.787.787,0,0,0,.185-.629V170.21a.786.786,0,0,0-.187-.626c-.094-.125-.312-.157-.655-.157m-2.091-1.409h2.277a3.179,3.179,0,0,1,1.9.407,2.183,2.183,0,0,1,.593,1.816V174a2.119,2.119,0,0,1-.655,1.753,1.709,1.709,0,0,1-.718.344,2.317,2.317,0,0,1-.562.063,7.319,7.319,0,0,1-.874.031H9.487v-8.169Zm5.648,8.2v-8.171h4.119v1.6H16.978v1.628h2.028v1.565H16.977v1.816h2.372v1.6H15.136Zm6.741-4.884a1.528,1.528,0,0,0,.843-.188c.156-.094.218-.282.218-.564v-.47a.59.59,0,0,0-.281-.595,1.725,1.725,0,0,0-.718-.125h-.062Zm-1.81,4.884v-8.171h2.651c1.373,0,2.06.595,2.06,1.816v.469a1.526,1.526,0,0,1-1,1.565,1.423,1.423,0,0,1,1,1.565v1.879a1.741,1.741,0,0,0,.187.876H23.094a2.136,2.136,0,0,1-.125-.939v-1.565a1.145,1.145,0,0,0-.218-.845,1.136,1.136,0,0,0-.843-.219v3.6H20.067Zm5.15,0,1.5-8.171h2.466l1.5,8.171h-1.97l-.187-1.471H27.246l-.187,1.471Zm2.247-2.974h.874l-.405-3.914-.062.689-.094.722Zm4.4,2.974v-6.606H30.646v-1.6H34.89v1.6H33.7v6.606Zm3.527-8.2h1.841v8.171H35.39Zm4.555,2.129v3.976q0,.752.562.752t.562-.752V170.15q0-.752-.562-.752-.562-.047-.562.752m-1.872.282q0-2.536,2.434-2.536t2.434,2.536v3.352q0,2.536-2.434,2.536t-2.432-2.536Zm5.711,5.792v-8.171h2.06l.968,3.319c.031.125.094.375.187.689.031.094.062.251.125.438q.047.141.187.752c.062.219.094.375.125.469l-.094-.752s0-.407-.031-1.19c0-.344-.031-.564-.031-.689v-3.037h1.777v8.171h-2L46,172.717c-.125-.438-.249-.814-.312-1.127-.062-.282-.156-.689-.249-1.253,0,.188.031.469.062.876.031.375.062.658.062.876v.595l.031.908v2.661h-1.8Zm10.548-6.074v3.976q0,.752.562.752t.562-.752V170.15q0-.752-.562-.752-.562-.047-.562.752m-1.872.282q0-2.536,2.434-2.536t2.434,2.536v3.352q0,2.536-2.434,2.536t-2.433-2.536Zm5.742,5.792v-8.171h3.9v1.6H60.044v1.628h1.841v1.565H60.044v3.413H58.2Zm7.146-8.2h1.841v8.171H65.347Zm2.777,8.2v-8.171h2.06l.968,3.319c.031.125.094.375.187.689.031.094.062.251.125.438q.047.141.187.752c.062.219.094.375.125.469l-.094-.752s0-.407-.031-1.19c0-.344-.031-.564-.031-.689v-3.037H73.4v8.171h-2l-1.061-3.507c-.125-.438-.249-.814-.312-1.127-.062-.282-.156-.689-.249-1.253,0,.188.031.469.062.876.031.375.062.658.062.876v.595l.031.908v2.661h-1.81Zm6.928,0v-6.606H73.836v-1.6H78.08v1.6H76.863v6.606Zm3.527,0v-8.171H82.7v1.6H80.421v1.628H82.45v1.565H80.421v1.816h2.34v1.6H78.579Zm6.743-4.884a1.528,1.528,0,0,0,.843-.188c.156-.094.218-.282.218-.564v-.47a.59.59,0,0,0-.281-.595,1.725,1.725,0,0,0-.718-.125h-.062Zm-1.841,4.884v-8.171h2.653c1.373,0,2.06.595,2.06,1.816v.469a1.526,1.526,0,0,1-1,1.565,1.423,1.423,0,0,1,1,1.565v1.879a1.741,1.741,0,0,0,.187.876H86.508a2.136,2.136,0,0,1-.125-.939v-1.565a1.145,1.145,0,0,0-.218-.845,1.186,1.186,0,0,0-.843-.219v3.6H83.48Zm5.586,0v-8.171h2.06l.968,3.319c.031.125.094.375.187.689.031.094.062.251.125.438q.047.141.187.752c.062.219.094.375.125.469l-.094-.752s0-.407-.031-1.19c0-.344-.031-.564-.031-.689v-3.037h1.777v8.171h-2l-1.061-3.507c-.125-.438-.249-.814-.312-1.127-.062-.282-.156-.689-.249-1.253,0,.188.031.469.062.876.031.375.062.658.062.876v.595l.031.908v2.661h-1.81Zm5.773,0,1.5-8.171h2.466l1.5,8.171H98.339l-.187-1.471H96.874l-.187,1.471Zm2.247-2.974h.874l-.405-3.914-.062.689-.094.722Zm4.4,2.974v-6.606H100.27v-1.6h4.277v1.6H103.33v6.606Zm3.527-8.2h1.841v8.171h-1.841Zm4.555,2.129v3.976q0,.752.562.752t.562-.752V170.15q0-.752-.562-.752-.562-.047-.562.752m-1.872.282q0-2.536,2.434-2.536t2.434,2.536v3.352q0,2.536-2.434,2.536t-2.434-2.536Zm5.742,5.792v-8.171h2.06l.968,3.319c.031.125.094.375.187.689.031.094.062.251.125.438q.047.141.187.752c.062.219.094.375.125.469l-.094-.752s0-.407-.031-1.19c0-.344-.031-.564-.031-.689v-3.037h1.777v8.171h-2l-1.061-3.507c-.125-.438-.249-.814-.312-1.127-.062-.282-.156-.689-.249-1.253,0,.188.031.469.062.876.031.375.062.658.062.876v.595l.031.908v2.661h-1.81Zm5.742,0,1.5-8.171h2.466l1.5,8.171h-1.966l-.187-1.471h-1.278l-.187,1.471Zm2.277-2.974h.874l-.405-3.914-.062.689-.094.722Zm3.651,2.974v-8.171h1.841v6.575h2.028v1.6Zm6.71-2.849h1.841v.658c0,.532.187.814.593.814a.523.523,0,0,0,.437-.188.77.77,0,0,0,.156-.469,1.274,1.274,0,0,0-.156-.532,1.407,1.407,0,0,0-.468-.5l-.405-.344c-.624-.5-1.03-.845-1.248-1.064a2.292,2.292,0,0,1-.655-1.691,2.077,2.077,0,0,1,.624-1.6,2.529,2.529,0,0,1,1.777-.564c1.529,0,2.277.689,2.277,2.1v.658h-1.747v-.534c0-.5-.187-.751-.593-.751-.374,0-.53.188-.53.595,0,.25.405.751,1.217,1.471l.031.031.156.125a5.824,5.824,0,0,1,1.278,1.284,2.561,2.561,0,0,1,.281,1.253,2.133,2.133,0,0,1-.718,1.691,2.637,2.637,0,0,1-1.777.564,2.072,2.072,0,0,1-2.372-2.317v-.689Zm6.273,2.849v-6.606h-1.217v-1.6h4.244v1.6H139.9v6.606Zm5.337-8.2v6.074q0,.752.562.752t.562-.752v-6.074h1.841v5.763c0,1.691-.811,2.536-2.4,2.536s-2.4-.845-2.4-2.536v-5.763Zm5.96,1.409h-.218v5.385h.249c.343,0,.562-.031.655-.125a.786.786,0,0,0,.187-.626v-3.851a.786.786,0,0,0-.187-.626.967.967,0,0,0-.687-.157m-2.091-1.409h2.277a3.179,3.179,0,0,1,1.9.407,2.183,2.183,0,0,1,.593,1.816V174a2.119,2.119,0,0,1-.655,1.753,1.708,1.708,0,0,1-.718.344,2.316,2.316,0,0,1-.562.063,7.319,7.319,0,0,1-.874.031H147.3Zm5.649,8.2v-8.172h4.119v1.6h-2.277v1.628h2.028v1.565h-2.028v1.816h2.341v1.6h-4.182Zm4.931,0v-8.172h2.06l.968,3.319c.031.125.094.375.187.689.031.094.062.251.125.438q.047.141.187.752c.062.219.094.375.125.469l-.094-.752s0-.407-.031-1.19c0-.344-.031-.564-.031-.689v-3.037h1.777v8.171h-2l-1.061-3.507c-.125-.438-.249-.814-.312-1.127-.062-.282-.156-.689-.249-1.253,0,.188.031.469.062.876.031.375.062.658.062.876v.595l.031.908v2.661h-1.8Zm6.928,0v-6.606h-1.217v-1.6h4.244v1.6h-1.186v6.606Zm5.617,0,1.5-8.171h2.466l1.5,8.171h-1.966l-.187-1.471h-1.278l-.187,1.471Zm2.247-2.974h.874l-.405-3.914-.062.689-.094.722Zm3.433.125h1.841v.658c0,.532.187.814.593.814a.523.523,0,0,0,.437-.188.77.77,0,0,0,.156-.469,1.273,1.273,0,0,0-.156-.532,1.406,1.406,0,0,0-.468-.5l-.405-.344c-.624-.5-1.03-.845-1.248-1.064a2.292,2.292,0,0,1-.655-1.691,2.077,2.077,0,0,1,.624-1.6,2.529,2.529,0,0,1,1.777-.564c1.529,0,2.277.689,2.277,2.1v.658h-1.745v-.534q0-.752-.562-.751c-.374,0-.53.188-.53.595,0,.25.405.751,1.217,1.471l.031.031.156.125a5.825,5.825,0,0,1,1.277,1.284,2.56,2.56,0,0,1,.281,1.253,2.133,2.133,0,0,1-.718,1.691,2.637,2.637,0,0,1-1.777.564,2.072,2.072,0,0,1-2.372-2.317v-.689Zm5.305,0h1.841v.658c0,.532.187.814.593.814a.523.523,0,0,0,.437-.188.771.771,0,0,0,.156-.469,1.273,1.273,0,0,0-.156-.532,1.406,1.406,0,0,0-.468-.5l-.405-.344c-.624-.5-1.03-.845-1.248-1.064a2.292,2.292,0,0,1-.655-1.691,2.077,2.077,0,0,1,.624-1.6,2.529,2.529,0,0,1,1.777-.564c1.529,0,2.277.689,2.277,2.1v.658h-1.747v-.534c0-.5-.187-.751-.593-.751-.374,0-.53.188-.53.595,0,.25.405.751,1.217,1.471l.031.031.156.125a5.825,5.825,0,0,1,1.277,1.284,2.56,2.56,0,0,1,.281,1.253,2.133,2.133,0,0,1-.718,1.691,2.637,2.637,0,0,1-1.777.564,2.072,2.072,0,0,1-2.372-2.317Zm7.332-3.225v3.976q0,.752.562.752t.562-.752V170.15q0-.752-.562-.752-.562-.047-.562.752m-1.841.282q0-2.536,2.434-2.536t2.434,2.536v3.352q0,2.536-2.434,2.536t-2.434-2.536Zm10.486,3.381q0,2.536-2.434,2.536t-2.434-2.536v-3.381q0-2.536,2.434-2.536t2.434,2.536v.626h-1.867v-.94q0-.752-.562-.751t-.562.751v3.976q0,.752.562.751t.562-.75v-1.127h1.872Zm.843-5.792h1.845v8.171H198.23Zm2.341,8.2,1.5-8.171h2.466l1.5,8.171H204.1l-.187-1.471h-1.278l-.187,1.471Zm2.277-2.974h.874l-.405-3.914-.062.689-.094.722Zm4.4,2.974v-6.606h-1.217v-1.6h4.244v1.6h-1.186v6.606Zm3.5-8.2h1.841v8.171h-1.841Zm4.587,2.129v3.976q0,.752.562.752t.562-.752V170.15q0-.752-.562-.752-.562-.047-.562.752m-1.872.282q0-2.536,2.434-2.536t2.434,2.536v3.352q0,2.536-2.434,2.536t-2.434-2.536Zm5.711,5.792v-8.171h2.068l.968,3.319c.031.125.094.375.187.689.031.094.062.251.125.438q.047.141.187.752c.062.219.094.375.125.469l-.094-.752s0-.407-.031-1.19c0-.344-.031-.564-.031-.689v-3.037h1.777v8.171h-2l-1.061-3.507c-.125-.438-.249-.814-.312-1.127-.062-.282-.156-.689-.249-1.253,0,.188.031.469.062.876.031.375.062.658.062.876v.595l.031.908v2.661h-1.81Zm5.96-2.849h1.841v.658c0,.532.187.814.593.814a.523.523,0,0,0,.437-.188.77.77,0,0,0,.156-.469,1.273,1.273,0,0,0-.156-.532,1.406,1.406,0,0,0-.468-.5l-.405-.344c-.624-.5-1.03-.845-1.248-1.064a2.292,2.292,0,0,1-.655-1.691,2.077,2.077,0,0,1,.624-1.6,2.53,2.53,0,0,1,1.777-.564c1.529,0,2.277.689,2.277,2.1v.658h-1.747v-.534c0-.5-.187-.751-.593-.751-.374,0-.53.188-.53.595,0,.25.405.751,1.217,1.471l.031.031.156.125a5.825,5.825,0,0,1,1.277,1.284,2.561,2.561,0,0,1,.281,1.253,2.133,2.133,0,0,1-.718,1.691,2.637,2.637,0,0,1-1.777.564,2.072,2.072,0,0,1-2.372-2.317v-.689Z" transform="translate(0 -115.33)" fill="#008bd2"/>
        </g>
        <g id="Group_618" data-name="Group 618" clip-path="url(#clip-path)">
          <path id="Path_820" data-name="Path 820" d="M26.4,32.889V1.3H16.259V34.548q0,4.133-3.089,4.133-3,0-3-4.133V1.3H0V6.685H0V8.72H0v.313H0V28.1H0v4.79Q0,46.743,13.17,46.759q13.248,0,13.232-13.869m19.817,1.349c0,1.722-.343,2.881-1,3.444a6.166,6.166,0,0,1-3.62.752H40.321V8.939H41.6c1.81,0,3.027.251,3.62.752.687.564,1,1.722,1,3.475ZM52.8,43.69c2.466-1.972,3.683-5.2,3.683-9.674v-20.6c0-4.853-1.092-8.14-3.308-9.862Q50.275,1.3,42.692,1.3H30.147V46.069H40.913c1.935,0,3.558-.031,4.837-.125a19.184,19.184,0,0,0,3.058-.407A9.85,9.85,0,0,0,52.8,43.689m7.427,2.38H83.324V37.4H70.375V27.379H81.454V18.864H70.375V9.972H83.326V1.3h-23.1Zm49.963-36.1V1.3H87.1V46.069H97.243V27.41h11.079V18.864H97.243V9.972Z" transform="translate(0 -0.893)" fill="#008bd2"/>
        </g>
      </g>
    </g>
  </g>
</svg>
