<svg xmlns="http://www.w3.org/2000/svg" xmlns:xlink="http://www.w3.org/1999/xlink" width="270" height="270" viewBox="0 0 270 270">
  <defs>
    <clipPath id="clip-path">
      <path id="Path_6145" data-name="Path 6145" d="M393.129-354.8c-10.148,10.149-18.687,35.449-26.263,35.449h0s-1.886,24.932,10.944,16.52h0s5.724-.358,13.131-17.867h0c7.409-17.509,17.509-26.6,21.887-26.6h0s-5.761-10.648-13.09-10.65h0c-2.106,0-4.342.879-6.609,3.146" transform="translate(-366.768 357.949)" fill="none"/>
    </clipPath>
    <linearGradient id="linear-gradient" x1="0.321" y1="0.64" x2="0.414" y2="0.64" gradientUnits="objectBoundingBox">
      <stop offset="0" stop-color="#ffca42"/>
      <stop offset="0.1" stop-color="#ffc841"/>
      <stop offset="0.2" stop-color="#fab33b"/>
      <stop offset="0.3" stop-color="#f09f35"/>
      <stop offset="0.4" stop-color="#e68b30"/>
      <stop offset="0.5" stop-color="#dc782b"/>
      <stop offset="0.6" stop-color="#d36526"/>
      <stop offset="0.7" stop-color="#ca5222"/>
      <stop offset="0.8" stop-color="#c13f1f"/>
      <stop offset="0.9" stop-color="#c13e1f"/>
      <stop offset="1" stop-color="#c13e1f"/>
    </linearGradient>
    <clipPath id="clip-path-2">
      <path id="Path_6147" data-name="Path 6147" d="M353.385-349.917s-10.215,20.233-10.514,41.947h0c-.3,21.715,26.1,11.474,29.228,4.867h0c-.093.066-12.412,8.778-12.2-6.315h0c.209-15.152,11.77-35.532,11.77-35.532h0s-.574-7.787-8.436-7.787h0c-2.484,0-5.693.776-9.845,2.821" transform="translate(-342.869 352.738)" fill="none"/>
    </clipPath>
    <radialGradient id="radial-gradient" cx="0.72" cy="0.419" r="0.14" gradientTransform="translate(0.239) scale(0.522 1)" gradientUnits="objectBoundingBox">
      <stop offset="0" stop-color="#ffca42"/>
      <stop offset="0.1" stop-color="#ffc941"/>
      <stop offset="0.2" stop-color="#ffbe3e"/>
      <stop offset="0.3" stop-color="#ffb43a"/>
      <stop offset="0.4" stop-color="#ffaa37"/>
      <stop offset="0.5" stop-color="#ff9f34"/>
      <stop offset="0.6" stop-color="#fe9531"/>
      <stop offset="0.7" stop-color="#fd8a2e"/>
      <stop offset="0.8" stop-color="#fc7f2b"/>
      <stop offset="0.9" stop-color="#fb7f2b"/>
      <stop offset="1" stop-color="#fb7f2b"/>
    </radialGradient>
  </defs>
  <g id="udef-logo" transform="translate(-891 -1902)">
    <g id="Rectangle_2355" data-name="Rectangle 2355" transform="translate(891 1902)" fill="#fff" stroke="#707070" stroke-width="1" opacity="0">
      <rect width="270" height="270" stroke="none"/>
      <rect x="0.5" y="0.5" width="269" height="269" fill="none"/>
    </g>
    <g id="Group_4599" data-name="Group 4599" transform="translate(787.271 2366.251)">
      <g id="Group_4604" data-name="Group 4604" transform="translate(282.342 -371.433)" clip-path="url(#clip-path)">
        <g id="Group_4603" data-name="Group 4603" transform="matrix(-0.584, 0.812, -0.812, -0.584, 242.019, 6.883)">
          <path id="Path_6144" data-name="Path 6144" d="M183.649,445.24,0,189.853,264.014,0,447.663,255.387Z" transform="translate(0 0)" fill="url(#linear-gradient)"/>
        </g>
      </g>
      <g id="Group_4606" data-name="Group 4606" transform="translate(267.571 -368.212)" clip-path="url(#clip-path-2)">
        <g id="Group_4605" data-name="Group 4605" transform="translate(-211.91 -107.179)">
          <path id="Path_6146" data-name="Path 6146" d="M-366.517-220.266H-51.954V104.922H-366.517Z" transform="translate(366.517 220.266)" fill="url(#radial-gradient)"/>
        </g>
      </g>
      <g id="Group_4631" data-name="Group 4631" transform="translate(145.729 -393.251)">
        <g id="Group_4607" data-name="Group 4607" transform="translate(70.549 8.374)">
          <path id="Path_6148" data-name="Path 6148" d="M0-26.75S6.06-15.976,21.885-21.7,56.817-50.283,71.55-51.835c9.6-1.011,5.218,12.627,5.218,12.627s16.72-22.573,4.883-30.136c-6.061-3.873-27.275,9.765-27.275,9.765Z" transform="translate(0 70.035)" fill="#ffca42"/>
        </g>
        <g id="Group_4609" data-name="Group 4609" transform="translate(68.296 107.373)">
          <path id="Path_6150" data-name="Path 6150" d="M-1.485-1.362v13H-.122a3.072,3.072,0,0,0,1.906-.545A3.633,3.633,0,0,0,2.9,9.1a15.746,15.746,0,0,0,.4-3.975q0-3.69-.829-5.088a2.838,2.838,0,0,0-2.637-1.4Zm-1.931,15.2c-.314,0-.471-.148-.471-.445V-3.121c0-.3.157-.446.471-.446H-.173A5.212,5.212,0,0,1,4.322-1.634Q5.746.3,5.745,5.125q0,4.854-1.41,6.786A5.151,5.151,0,0,1-.122,13.842Z" transform="translate(3.887 3.567)" fill="#010407"/>
        </g>
        <g id="Group_4610" data-name="Group 4610" transform="translate(79.464 111.262)">
          <path id="Path_6151" data-name="Path 6151" d="M-3.6-4.269a5.778,5.778,0,0,0-2.785.643,2.4,2.4,0,0,0-.9,2.2q0,2.031,1.56,2.03A1.791,1.791,0,0,0-4.178-.245,3.767,3.767,0,0,0-3.6-2.412Zm2.155,6.191a.372.372,0,0,1-.42.42H-3.026q-.446,0-.446-.4L-3.5.758A2.9,2.9,0,0,1-6.345,2.491a2.74,2.74,0,0,1-2.266-1,4.43,4.43,0,0,1-.8-2.835q0-2.551,1.486-3.517A8.39,8.39,0,0,1-3.6-5.9V-7.117A2.328,2.328,0,0,0-4.029-8.69a1.867,1.867,0,0,0-1.449-.483,9.093,9.093,0,0,0-2.674.5.43.43,0,0,1-.334-.037A.3.3,0,0,1-8.647-9v-1.214a.487.487,0,0,1,.371-.5,8.758,8.758,0,0,1,3.046-.47,3.867,3.867,0,0,1,2.909.929A4.113,4.113,0,0,1-1.442-7.34Z" transform="translate(9.415 11.178)" fill="#010407"/>
        </g>
        <g id="Group_4611" data-name="Group 4611" transform="translate(89.566 111.237)">
          <path id="Path_6152" data-name="Path 6152" d="M-5.08-8.11a.372.372,0,0,1-.422.421H-6.888a.372.372,0,0,1-.421-.421v-8.617a3.509,3.509,0,0,0-.359-1.782A1.313,1.313,0,0,0-8.894-19.1a1.846,1.846,0,0,0-1.646.842,4.185,4.185,0,0,0-.557,2.328V-8.11q0,.421-.4.421h-1.387a.372.372,0,0,1-.42-.421v-12.5a.372.372,0,0,1,.42-.422h1.313c.3,0,.445.133.445.4l.025,1.089a3.071,3.071,0,0,1,1.053-1.176,3.026,3.026,0,0,1,1.77-.507,2.771,2.771,0,0,1,2.39,1.1,4.963,4.963,0,0,1,.8,2.985Z" transform="translate(13.301 21.234)" fill="#010407"/>
        </g>
        <g id="Group_4612" data-name="Group 4612" transform="translate(100.015 111.435)">
          <path id="Path_6153" data-name="Path 6153" d="M-1.377-7.988a.372.372,0,0,1-.421.421H-3.185a.372.372,0,0,1-.421-.421v-12.5a.373.373,0,0,1,.421-.422H-1.8a.373.373,0,0,1,.421.422Z" transform="translate(3.606 20.915)" fill="#010407"/>
        </g>
        <g id="Group_4613" data-name="Group 4613" transform="translate(104.051 111.237)">
          <path id="Path_6154" data-name="Path 6154" d="M-2.341-8.462A2.205,2.205,0,0,1-1.029-6.581q0,1.535-1.956,1.535a2.632,2.632,0,0,1-.941-.124.312.312,0,0,1-.248-.322v-.668a.219.219,0,0,1,.248-.248h.643q.744,0,.743-.595a1.867,1.867,0,0,0-.966-1.412,8.918,8.918,0,0,1-2.253-.321.472.472,0,0,1-.371-.472v-1.213c0-.3.156-.4.47-.3a6.5,6.5,0,0,0,2.229.322q2.006,0,2.006-1.783A1.848,1.848,0,0,0-1.882-13.5a9.861,9.861,0,0,0-1.7-1.275,7.258,7.258,0,0,1-1.943-1.646,3.743,3.743,0,0,1-.607-2.291,3.36,3.36,0,0,1,.915-2.612,4.231,4.231,0,0,1,2.9-.83,8.665,8.665,0,0,1,2.2.273.442.442,0,0,1,.347.47v1.139q0,.47-.446.347a8.086,8.086,0,0,0-1.758-.248,2.646,2.646,0,0,0-1.523.335,1.393,1.393,0,0,0-.458,1.2,1.673,1.673,0,0,0,.483,1.214,8.9,8.9,0,0,0,1.6,1.188A6.842,6.842,0,0,1,.123-14.517a3.971,3.971,0,0,1,.632,2.365q0,3.344-3.1,3.69" transform="translate(6.129 22.156)" fill="#010407"/>
        </g>
        <g id="Group_4614" data-name="Group 4614" transform="translate(112.643 111.237)">
          <path id="Path_6155" data-name="Path 6155" d="M-4.866-8.11q0,.421-.4.421H-6.625a.372.372,0,0,1-.42-.421V-16.8a3.524,3.524,0,0,0-.334-1.733,1.2,1.2,0,0,0-1.127-.57,1.654,1.654,0,0,0-1.5.817,4.262,4.262,0,0,0-.507,2.253V-8.11a.372.372,0,0,1-.421.421H-12.32a.372.372,0,0,1-.421-.421v-12.5a.372.372,0,0,1,.421-.422h1.313c.3,0,.446.133.446.4l.024,1.089a3.209,3.209,0,0,1,1-1.176,2.717,2.717,0,0,1,1.671-.507,2.433,2.433,0,0,1,2.55,1.907,3.208,3.208,0,0,1,3.1-1.907A2.627,2.627,0,0,1,.061-20.17a4.866,4.866,0,0,1,.768,2.9V-8.11a.372.372,0,0,1-.422.421H-.979A.372.372,0,0,1-1.4-8.11V-16.8a3.622,3.622,0,0,0-.322-1.733,1.171,1.171,0,0,0-1.114-.57,1.706,1.706,0,0,0-1.486.8,3.573,3.573,0,0,0-.545,2.043Z" transform="translate(12.741 21.234)" fill="#010407"/>
        </g>
        <g id="Group_4615" data-name="Group 4615" transform="translate(127.92 111.262)">
          <path id="Path_6156" data-name="Path 6156" d="M-3.6-4.269a5.778,5.778,0,0,0-2.785.643,2.4,2.4,0,0,0-.9,2.2q0,2.031,1.559,2.03A1.791,1.791,0,0,0-4.178-.245,3.772,3.772,0,0,0-3.6-2.412Zm2.155,6.191a.372.372,0,0,1-.421.42H-3.026q-.446,0-.446-.4L-3.5.758A2.9,2.9,0,0,1-6.345,2.491a2.74,2.74,0,0,1-2.266-1,4.426,4.426,0,0,1-.8-2.835q0-2.551,1.486-3.517A8.392,8.392,0,0,1-3.6-5.9V-7.117A2.328,2.328,0,0,0-4.029-8.69a1.867,1.867,0,0,0-1.449-.483,9.093,9.093,0,0,0-2.674.5.43.43,0,0,1-.334-.037A.3.3,0,0,1-8.647-9v-1.214a.487.487,0,0,1,.371-.5,8.764,8.764,0,0,1,3.046-.47,3.868,3.868,0,0,1,2.909.929A4.113,4.113,0,0,1-1.442-7.34Z" transform="translate(9.415 11.178)" fill="#010407"/>
        </g>
        <g id="Group_4616" data-name="Group 4616" transform="translate(138.023 111.237)">
          <path id="Path_6157" data-name="Path 6157" d="M-5.08-8.11a.372.372,0,0,1-.421.421H-6.888a.372.372,0,0,1-.421-.421v-8.617a3.523,3.523,0,0,0-.358-1.782A1.314,1.314,0,0,0-8.893-19.1a1.847,1.847,0,0,0-1.647.842,4.185,4.185,0,0,0-.557,2.328V-8.11q0,.421-.4.421h-1.387a.372.372,0,0,1-.42-.421v-12.5a.372.372,0,0,1,.42-.422h1.313c.3,0,.445.133.445.4l.025,1.089a3.066,3.066,0,0,1,1.053-1.176,3.027,3.027,0,0,1,1.771-.507,2.771,2.771,0,0,1,2.389,1.1,4.968,4.968,0,0,1,.8,2.985Z" transform="translate(13.301 21.234)" fill="#010407"/>
        </g>
        <g id="Group_4617" data-name="Group 4617" transform="translate(148.472 107.374)">
          <path id="Path_6158" data-name="Path 6158" d="M-1.377-10.5a.372.372,0,0,1-.421.421H-3.185a.372.372,0,0,1-.421-.421V-27.064a.372.372,0,0,1,.421-.421H-1.8a.372.372,0,0,1,.421.421Z" transform="translate(3.606 27.485)" fill="#010407"/>
        </g>
        <g id="Group_4618" data-name="Group 4618" transform="translate(153.102 111.435)">
          <path id="Path_6159" data-name="Path 6159" d="M-1.377-7.988a.372.372,0,0,1-.421.421H-3.185a.372.372,0,0,1-.421-.421v-12.5a.373.373,0,0,1,.421-.422H-1.8a.373.373,0,0,1,.421.422Z" transform="translate(3.606 20.915)" fill="#010407"/>
        </g>
        <g id="Group_4619" data-name="Group 4619" transform="translate(157.658 107.373)">
          <path id="Path_6160" data-name="Path 6160" d="M-3.8-10.758a.654.654,0,0,1-.569-.373L-7.707-16.85v5.67a.372.372,0,0,1-.421.422H-9.515a.372.372,0,0,1-.421-.422V-27.745a.372.372,0,0,1,.421-.422h1.387a.372.372,0,0,1,.421.422v8.419l3.244-4.408a.752.752,0,0,1,.593-.371h1.462q.3,0,.359.186a.407.407,0,0,1-.087.383L-6.1-18.187-2.013-11.3a.388.388,0,0,1,.05.371c-.05.116-.165.174-.347.174Z" transform="translate(9.936 28.167)" fill="#010407"/>
        </g>
        <g id="Group_4620" data-name="Group 4620" transform="translate(143.834 35.966)">
          <path id="Path_6161" data-name="Path 6161" d="M-19.079-20.838s0,.03-.012.086C-19.21-19.521-20.722-5.281-26.477.471c0,0-7.386,8.9-7.136,12.915l-.321,7-2.194-.186s-.546-6.481-5.264-9.7c-5.651-3.854-8.793-13.782-8.546-14.622a.11.11,0,0,1,.022-.045s13.57-10.265,19.554-26.123S-14.568-54.557-9.679-54.557c0,0-2.006,5.64.627,15.169s-3.259,18.55-10.027,18.55" transform="translate(49.952 54.557)" fill="#010407"/>
        </g>
        <g id="Group_4621" data-name="Group 4621" transform="translate(87.713 40.135)">
          <path id="Path_6162" data-name="Path 6162" d="M-23.085-27.093s-19.43-.5-19.43-20.682c0,0-.287.115-.809.276h0A21.984,21.984,0,0,1-60.44-49.281s10.4.878,22.564-11.281,13.35-10.927,14.791-9.484c1.223,1.223-1.715,6.939-2.925,11.174-.217.752-.4,1.417-.542,1.945-.92,3.51-7.064,23.315,3.467,29.833" transform="translate(60.44 70.934)" fill="#48359c"/>
        </g>
        <g id="Group_4622" data-name="Group 4622" transform="translate(142.241 16.606)">
          <path id="Path_6163" data-name="Path 6163" d="M-8.986-.939s2.256,5.808-9.526,24.485c0,0-4.138,8.2-5.014,13.252,0,0,10.418-17.263,13.483-22.4,0,0,6.446-12.159,14.219-10.781,0,0-4.639-9.736-13.161-4.554" transform="translate(23.526 2.459)" fill="#e72f7c"/>
        </g>
        <g id="Group_4623" data-name="Group 4623" transform="translate(143.847 35.966)">
          <path id="Path_6164" data-name="Path 6164" d="M-19.071-20.838s0,.03-.012.086c-4.82-.413-12.077,4.874-18.6,10.6A23.719,23.719,0,0,1-49.93-4.121a.11.11,0,0,1,.022-.045s13.57-10.265,19.554-26.123S-14.56-54.557-9.671-54.557c0,0-2.006,5.64.627,15.169s-3.259,18.55-10.027,18.55" transform="translate(49.93 54.557)" fill="#ff7130"/>
        </g>
        <g id="Group_4624" data-name="Group 4624" transform="translate(87.714 39.609)">
          <path id="Path_6165" data-name="Path 6165" d="M-21.277-7.779C-24.2-3.764-29.43.371-38.591,3.591l0,0A21.981,21.981,0,0,1-55.706,1.811S-45.3,2.69-33.143-9.47s13.35-11.595,14.791-10.153c1.223,1.223,0,6.6-2.925,11.844" transform="translate(55.706 20.368)" fill="#36b7e7"/>
        </g>
        <g id="Group_4625" data-name="Group 4625" transform="translate(68.27 0)">
          <path id="Path_6166" data-name="Path 6166" d="M-49.715-5.062a.735.735,0,0,1-.376.64.727.727,0,0,1-.355.093.709.709,0,0,1-.152-.015c-7.577.211-19.213,7.7-19.213,7.7L-127.973,37.63c-7.266-16.584,5.765-26.9,7.222-27.984.067-.049.111-.08.126-.093h.006C-114.1-3.986-92.709-10.5-92.709-10.5-71.25-17.481-55.7-9.421-50.066-5.686a.734.734,0,0,1,.351.624" transform="translate(130.161 13.254)" fill="#3ac3b5"/>
        </g>
        <g id="Group_4626" data-name="Group 4626" transform="translate(77.806 0)">
          <path id="Path_6167" data-name="Path 6167" d="M-43.821-5.062a.735.735,0,0,1-.376.64C-53.263-8.446-83.236,7.523-99.56,10.053c-7.465,1.155-12.2.572-15.171-.5h.006C-108.208-3.986-86.816-10.5-86.816-10.5c21.459-6.976,37.007,1.083,42.643,4.819a.734.734,0,0,1,.351.624" transform="translate(114.731 13.254)" fill="#ff7130"/>
        </g>
        <g id="Group_4627" data-name="Group 4627" transform="translate(0 56.624)">
          <path id="Path_6168" data-name="Path 6168" d="M-16.786,0V60.578a7.647,7.647,0,0,1-1.808,5.081A7.543,7.543,0,0,1-23.235,68.3H-37.4a7.743,7.743,0,0,1-4.69-2.638,7.52,7.52,0,0,1-1.856-5.081V0h6.839V60.482a.863.863,0,0,0,.977.977h11.626q.88,0,.88-.977V0Z" transform="translate(43.948)" fill="#010407"/>
        </g>
        <g id="Group_4628" data-name="Group 4628" transform="translate(32.335 56.624)">
          <path id="Path_6169" data-name="Path 6169" d="M-11.98-9.271v-7.221a.856.856,0,0,0-.975-.962H-23.573a.863.863,0,0,0-.974.978v18.6a.831.831,0,0,0,.585.88h11.007A7.476,7.476,0,0,1-7.4,5.289a7.565,7.565,0,0,1,2.24,5.49V36.338a7.48,7.48,0,0,1-1.85,5.054,7.733,7.733,0,0,1-4.676,2.624H-24.839a7.72,7.72,0,0,1-4.675-2.631,7.489,7.489,0,0,1-1.851-5.065V29.014h6.818v7.221a.856.856,0,0,0,.974.963h10.618a.86.86,0,0,0,.975-.972V10.7a.827.827,0,0,0-.584-.875H-23.573a7.487,7.487,0,0,1-5.5-2.3,7.536,7.536,0,0,1-2.289-5.52V-16.556a7.532,7.532,0,0,1,1.851-5.08,7.718,7.718,0,0,1,4.675-2.637h13.151a7.743,7.743,0,0,1,4.676,2.629,7.511,7.511,0,0,1,1.85,5.066v7.306Z" transform="translate(31.365 24.272)" fill="#010407"/>
        </g>
      </g>
    </g>
  </g>
</svg>
