<svg xmlns="http://www.w3.org/2000/svg" width="270" height="270"><defs><clipPath id="a"><path data-name="Path 6145" d="M393.129-354.8c-10.148 10.149-18.687 35.449-26.263 35.449s-1.886 24.932 10.944 16.52 5.724-.358 13.131-17.867c7.409-17.509 17.509-26.6 21.887-26.6s-5.761-10.648-13.09-10.65c-2.106 0-4.342.879-6.609 3.146" transform="translate(-366.768 357.949)" fill="none"/></clipPath><clipPath id="c"><path data-name="Path 6147" d="M353.385-349.917s-10.215 20.233-10.514 41.947c-.3 21.715 26.1 11.474 29.228 4.867-.093.066-12.412 8.778-12.2-6.315.209-15.152 11.77-35.532 11.77-35.532s-.574-7.787-8.436-7.787c-2.484 0-5.693.776-9.845 2.821" transform="translate(-342.869 352.738)" fill="none"/></clipPath><radialGradient id="d" cx=".72" cy=".419" r=".14" gradientTransform="matrix(.522 0 0 1 .239 0)" gradientUnits="objectBoundingBox"><stop offset="0" stop-color="#ffca42"/><stop offset=".1" stop-color="#ffc941"/><stop offset=".2" stop-color="#ffbe3e"/><stop offset=".3" stop-color="#ffb43a"/><stop offset=".4" stop-color="#ffaa37"/><stop offset=".5" stop-color="#ff9f34"/><stop offset=".6" stop-color="#fe9531"/><stop offset=".7" stop-color="#fd8a2e"/><stop offset=".8" stop-color="#fc7f2b"/><stop offset=".9" stop-color="#fb7f2b"/><stop offset="1" stop-color="#fb7f2b"/></radialGradient><linearGradient id="b" x1=".321" y1=".64" x2=".414" y2=".64" gradientUnits="objectBoundingBox"><stop offset="0" stop-color="#ffca42"/><stop offset=".1" stop-color="#ffc841"/><stop offset=".2" stop-color="#fab33b"/><stop offset=".3" stop-color="#f09f35"/><stop offset=".4" stop-color="#e68b30"/><stop offset=".5" stop-color="#dc782b"/><stop offset=".6" stop-color="#d36526"/><stop offset=".7" stop-color="#ca5222"/><stop offset=".8" stop-color="#c13f1f"/><stop offset=".9" stop-color="#c13e1f"/><stop offset="1" stop-color="#c13e1f"/></linearGradient></defs><g data-name="Group 4599"><g data-name="Group 4604" transform="translate(178.613 92.818)" clip-path="url(#a)"><g data-name="Group 4603"><path data-name="Path 6144" d="M183.649 445.24L0 189.853 264.014 0l183.649 255.387z" transform="rotate(125.73 119.23 65.466)" fill="url(#b)"/></g></g><g data-name="Group 4606" transform="translate(163.842 96.039)" clip-path="url(#c)"><g data-name="Group 4605"><path data-name="Path 6146" d="M-366.517-220.266h314.563v325.188h-314.563z" transform="translate(154.607 113.087)" fill="url(#d)"/></g></g><g data-name="Group 4631"><g data-name="Group 4607"><path data-name="Path 6148" d="M112.549 122.659s6.06 10.774 21.885 5.05 34.932-28.583 49.665-30.135c9.6-1.011 5.218 12.627 5.218 12.627s16.72-22.573 4.883-30.136c-6.061-3.873-27.275 9.765-27.275 9.765z" fill="#ffca42"/></g><g data-name="Group 4609"><path data-name="Path 6150" d="M112.698 180.578v13h1.363a3.072 3.072 0 001.906-.545 3.633 3.633 0 001.116-1.993 15.746 15.746 0 00.4-3.975q0-3.69-.829-5.088a2.838 2.838 0 00-2.637-1.4zm-1.931 15.2c-.314 0-.471-.148-.471-.445v-16.514c0-.3.157-.446.471-.446h3.243a5.212 5.212 0 014.495 1.933q1.424 1.934 1.423 6.759 0 4.854-1.41 6.786a5.151 5.151 0 01-4.457 1.931z" fill="#010407"/></g><g data-name="Group 4610"><path data-name="Path 6151" d="M127.279 189.171a5.778 5.778 0 00-2.785.643 2.4 2.4 0 00-.9 2.2q0 2.031 1.56 2.03a1.791 1.791 0 001.547-.849 3.767 3.767 0 00.578-2.167zm2.155 6.191a.372.372 0 01-.42.42h-1.161q-.446 0-.446-.4l-.028-1.184a2.9 2.9 0 01-2.845 1.733 2.74 2.74 0 01-2.266-1 4.43 4.43 0 01-.8-2.835q0-2.551 1.486-3.517a8.39 8.39 0 014.325-1.039v-1.217a2.328 2.328 0 00-.429-1.573 1.867 1.867 0 00-1.449-.483 9.093 9.093 0 00-2.674.5.43.43 0 01-.334-.037.3.3 0 01-.161-.29v-1.214a.487.487 0 01.371-.5 8.758 8.758 0 013.046-.47 3.867 3.867 0 012.909.929 4.113 4.113 0 01.879 2.915z" fill="#010407"/></g><g data-name="Group 4611"><path data-name="Path 6152" d="M139.787 195.361a.372.372 0 01-.422.421h-1.386a.372.372 0 01-.421-.421v-8.617a3.509 3.509 0 00-.359-1.782 1.313 1.313 0 00-1.226-.591 1.846 1.846 0 00-1.646.842 4.185 4.185 0 00-.557 2.328v7.82q0 .421-.4.421h-1.387a.372.372 0 01-.42-.421v-12.5a.372.372 0 01.42-.422h1.313c.3 0 .445.133.445.4l.025 1.089a3.071 3.071 0 011.053-1.176 3.026 3.026 0 011.77-.507 2.771 2.771 0 012.39 1.1 4.963 4.963 0 01.8 2.985z" fill="#010407"/></g><g data-name="Group 4612"><path data-name="Path 6153" d="M144.244 195.362a.372.372 0 01-.421.421h-1.387a.372.372 0 01-.421-.421v-12.5a.373.373 0 01.421-.422h1.385a.373.373 0 01.421.422z" fill="#010407"/></g><g data-name="Group 4613"><path data-name="Path 6154" d="M149.839 195.931a2.205 2.205 0 011.312 1.881q0 1.535-1.956 1.535a2.632 2.632 0 01-.941-.124.312.312 0 01-.248-.322v-.668a.219.219 0 01.248-.248h.643q.744 0 .743-.595a1.867 1.867 0 00-.966-1.412 8.918 8.918 0 01-2.253-.321.472.472 0 01-.371-.472v-1.213c0-.3.156-.4.47-.3a6.5 6.5 0 002.229.322q2.006 0 2.006-1.783a1.848 1.848 0 00-.457-1.318 9.861 9.861 0 00-1.7-1.275 7.258 7.258 0 01-1.943-1.646 3.743 3.743 0 01-.607-2.291 3.36 3.36 0 01.915-2.612 4.231 4.231 0 012.9-.83 8.665 8.665 0 012.2.273.442.442 0 01.347.47v1.139q0 .47-.446.347a8.086 8.086 0 00-1.758-.248 2.646 2.646 0 00-1.523.335 1.393 1.393 0 00-.458 1.2 1.673 1.673 0 00.483 1.214 8.9 8.9 0 001.6 1.188 6.842 6.842 0 011.995 1.719 3.971 3.971 0 01.632 2.365q0 3.344-3.1 3.69" fill="#010407"/></g><g data-name="Group 4614"><path data-name="Path 6155" d="M162.518 195.361q0 .421-.4.421h-1.359a.372.372 0 01-.42-.421v-8.69a3.524 3.524 0 00-.334-1.733 1.2 1.2 0 00-1.127-.57 1.654 1.654 0 00-1.5.817 4.262 4.262 0 00-.507 2.253v7.923a.372.372 0 01-.421.421h-1.386a.372.372 0 01-.421-.421v-12.5a.372.372 0 01.421-.422h1.313c.3 0 .446.133.446.4l.024 1.089a3.209 3.209 0 011-1.176 2.717 2.717 0 011.671-.507 2.433 2.433 0 012.55 1.907 3.208 3.208 0 013.1-1.907 2.627 2.627 0 012.277 1.056 4.866 4.866 0 01.768 2.9v9.16a.372.372 0 01-.422.421h-1.386a.372.372 0 01-.421-.421v-8.69a3.622 3.622 0 00-.322-1.733 1.171 1.171 0 00-1.114-.57 1.706 1.706 0 00-1.486.8 3.573 3.573 0 00-.545 2.043z" fill="#010407"/></g><g data-name="Group 4615"><path data-name="Path 6156" d="M175.735 189.171a5.778 5.778 0 00-2.785.643 2.4 2.4 0 00-.9 2.2q0 2.031 1.559 2.03a1.791 1.791 0 001.548-.849 3.772 3.772 0 00.578-2.167zm2.155 6.191a.372.372 0 01-.421.42h-1.16q-.446 0-.446-.4l-.028-1.184a2.9 2.9 0 01-2.845 1.733 2.74 2.74 0 01-2.266-1 4.426 4.426 0 01-.8-2.835q0-2.551 1.486-3.517a8.392 8.392 0 014.325-1.039v-1.217a2.328 2.328 0 00-.429-1.573 1.867 1.867 0 00-1.449-.483 9.093 9.093 0 00-2.674.5.43.43 0 01-.334-.037.3.3 0 01-.161-.29v-1.214a.487.487 0 01.371-.5 8.764 8.764 0 013.046-.47 3.868 3.868 0 012.909.929 4.113 4.113 0 01.879 2.915z" fill="#010407"/></g><g data-name="Group 4616"><path data-name="Path 6157" d="M188.244 195.361a.372.372 0 01-.421.421h-1.387a.372.372 0 01-.421-.421v-8.617a3.523 3.523 0 00-.358-1.782 1.314 1.314 0 00-1.226-.591 1.847 1.847 0 00-1.647.842 4.185 4.185 0 00-.557 2.328v7.82q0 .421-.4.421h-1.387a.372.372 0 01-.42-.421v-12.5a.372.372 0 01.42-.422h1.313c.3 0 .445.133.445.4l.025 1.089a3.066 3.066 0 011.053-1.176 3.027 3.027 0 011.771-.507 2.771 2.771 0 012.389 1.1 4.968 4.968 0 01.8 2.985z" fill="#010407"/></g><g data-name="Group 4617"><path data-name="Path 6158" d="M192.701 195.359a.372.372 0 01-.421.421h-1.387a.372.372 0 01-.421-.421v-16.564a.372.372 0 01.421-.421h1.385a.372.372 0 01.421.421z" fill="#010407"/></g><g data-name="Group 4618"><path data-name="Path 6159" d="M197.331 195.362a.372.372 0 01-.421.421h-1.387a.372.372 0 01-.421-.421v-12.5a.373.373 0 01.421-.422h1.385a.373.373 0 01.421.422z" fill="#010407"/></g><g data-name="Group 4619"><path data-name="Path 6160" d="M205.794 195.782a.654.654 0 01-.569-.373l-3.338-5.719v5.67a.372.372 0 01-.421.422h-1.387a.372.372 0 01-.421-.422v-16.565a.372.372 0 01.421-.422h1.387a.372.372 0 01.421.422v8.419l3.244-4.408a.752.752 0 01.593-.371h1.462q.3 0 .359.186a.407.407 0 01-.087.383l-3.964 5.349 4.087 6.887a.388.388 0 01.05.371c-.05.116-.165.174-.347.174z" fill="#010407"/></g><g data-name="Group 4620"><path data-name="Path 6161" d="M216.707 140.685s0 .03-.012.086c-.119 1.231-1.631 15.471-7.386 21.223 0 0-7.386 8.9-7.136 12.915l-.321 7-2.194-.186s-.546-6.481-5.264-9.7c-5.651-3.854-8.793-13.782-8.546-14.622a.11.11 0 01.022-.045s13.57-10.265 19.554-26.123 15.794-24.267 20.683-24.267c0 0-2.006 5.64.627 15.169s-3.259 18.55-10.027 18.55" fill="#010407"/></g><g data-name="Group 4621"><path data-name="Path 6162" d="M167.068 154.976s-19.43-.5-19.43-20.682c0 0-.287.115-.809.276a21.984 21.984 0 01-17.116-1.782s10.4.878 22.564-11.281 13.35-10.927 14.791-9.484c1.223 1.223-1.715 6.939-2.925 11.174-.217.752-.4 1.417-.542 1.945-.92 3.51-7.064 23.315 3.467 29.833" fill="#48359c"/></g><g data-name="Group 4622"><path data-name="Path 6163" d="M198.781 89.126s2.256 5.808-9.526 24.485c0 0-4.138 8.2-5.014 13.252 0 0 10.418-17.263 13.483-22.4 0 0 6.446-12.159 14.219-10.781 0 0-4.639-9.736-13.161-4.554" fill="#e72f7c"/></g><g data-name="Group 4623"><path data-name="Path 6164" d="M216.706 140.685s0 .03-.012.086c-4.82-.413-12.077 4.874-18.6 10.6a23.719 23.719 0 01-12.247 6.031.11.11 0 01.022-.045s13.57-10.265 19.554-26.123 15.794-24.268 20.683-24.268c0 0-2.006 5.64.627 15.169s-3.259 18.55-10.027 18.55" fill="#ff7130"/></g><g data-name="Group 4624"><path data-name="Path 6165" d="M164.143 123.198c-2.923 4.015-8.153 8.15-17.314 11.37a21.981 21.981 0 01-17.115-1.78s10.406.879 22.563-11.281 13.35-11.595 14.791-10.153c1.223 1.223 0 6.6-2.925 11.844" fill="#36b7e7"/></g><g data-name="Group 4625"><path data-name="Path 6166" d="M190.716 79.192a.735.735 0 01-.376.64.727.727 0 01-.355.093.709.709 0 01-.152-.015c-7.577.211-19.213 7.7-19.213 7.7l-58.162 34.274c-7.266-16.584 5.765-26.9 7.222-27.984.067-.049.111-.08.126-.093h.006c6.519-13.539 27.91-20.053 27.91-20.053 21.459-6.981 37.009 1.079 42.643 4.814a.734.734 0 01.351.624" fill="#3ac3b5"/></g><g data-name="Group 4626"><path data-name="Path 6167" d="M190.716 79.192a.735.735 0 01-.376.64c-9.066-4.024-39.039 11.945-55.363 14.475-7.465 1.155-12.2.572-15.171-.5h.006c6.517-13.539 27.909-20.053 27.909-20.053 21.459-6.976 37.007 1.083 42.643 4.819a.734.734 0 01.351.624" fill="#ff7130"/></g><g data-name="Group 4627"><path data-name="Path 6168" d="M69.162 127.624v60.578a7.647 7.647 0 01-1.808 5.081 7.543 7.543 0 01-4.641 2.641H48.548a7.743 7.743 0 01-4.69-2.638 7.52 7.52 0 01-1.856-5.081v-60.581h6.839v60.482a.863.863 0 00.977.977h11.626q.88 0 .88-.977v-60.482z" fill="#010407"/></g><g data-name="Group 4628"><path data-name="Path 6169" d="M93.72 142.625v-7.221a.856.856 0 00-.975-.962H82.127a.863.863 0 00-.974.978v18.6a.831.831 0 00.585.88h11.007a7.476 7.476 0 015.555 2.285 7.565 7.565 0 012.24 5.49v25.559a7.48 7.48 0 01-1.85 5.054 7.733 7.733 0 01-4.676 2.624H80.861a7.72 7.72 0 01-4.675-2.631 7.489 7.489 0 01-1.851-5.065v-7.306h6.818v7.221a.856.856 0 00.974.963h10.618a.86.86 0 00.975-.972v-25.526a.827.827 0 00-.584-.875H82.127a7.487 7.487 0 01-5.5-2.3 7.536 7.536 0 01-2.289-5.52V135.34a7.532 7.532 0 011.851-5.08 7.718 7.718 0 014.675-2.637h13.151a7.743 7.743 0 014.676 2.629 7.511 7.511 0 011.85 5.066v7.306z" fill="#010407"/></g></g></g></svg>